<?xml version="1.0" encoding="iso-8859-1"?>
<!-- Generator: Adobe Illustrator 16.0.0, SVG Export Plug-In . SVG Version: 6.00 Build 0)  -->
<!DOCTYPE svg PUBLIC "-//W3C//DTD SVG 1.1//EN" "http://www.w3.org/Graphics/SVG/1.1/DTD/svg11.dtd">
<svg version="1.1" id="Capa_1" xmlns="http://www.w3.org/2000/svg" xmlns:xlink="http://www.w3.org/1999/xlink" x="0px" y="0px"
	 width="161.661px" height="161.661px" viewBox="0 0 161.661 161.661" style="enable-background:new 0 0 161.661 161.661;"
	 xml:space="preserve">
<g>
	<g>
		<path d="M161.661,80.909c0.013-13.289-7.843-25.397-20.673-34.607c-1.534-16.392-8.409-28.93-19.729-35.466
			c-5.432-3.142-11.582-4.731-18.298-4.731c-7.155,0-14.681,1.863-22.116,5.273c-7.444-3.41-14.958-5.273-22.122-5.273
			c-6.704,0-12.857,1.589-18.307,4.731c-11.53,6.652-18.063,19.561-19.61,35.311C7.938,55.338,0.013,67.446,0,80.745
			c-0.012,13.067,7.401,25.307,20.819,34.842c1.546,15.723,8.086,28.595,19.598,35.238c5.444,3.142,11.591,4.731,18.307,4.731
			c7.158,0,14.678-1.863,22.128-5.273c7.44,3.41,14.954,5.273,22.109,5.273l0,0c6.698,0,12.854-1.59,18.298-4.731
			c11.295-6.521,18.183-19.028,19.729-35.396C153.782,106.259,161.649,94.172,161.661,80.909z M102.962,12.339
			c5.584,0,10.698,1.309,15.18,3.891c8.379,4.838,13.859,13.834,15.973,25.687c-7.319-4.147-15.808-7.432-25.105-9.676
			c-6.583-6.954-13.701-12.732-21.021-17.08C93.061,13.335,98.108,12.339,102.962,12.339z M135.101,50.619
			c0.231,6.32-0.384,12.942-1.742,19.677c-2.131-5.212-4.609-10.388-7.538-15.439c-2.923-5.057-6.156-9.8-9.608-14.23
			c7.045,2.338,13.354,5.371,18.81,8.912L135.101,50.619z M135.101,111.032l-0.104,1.151c-5.469,3.543-11.789,6.57-18.834,8.896
			c3.477-4.434,6.723-9.207,9.657-14.285c2.929-5.055,5.407-10.225,7.538-15.437C134.741,98.093,135.332,104.712,135.101,111.032z
			 M120.432,103.677c-4.312,7.489-9.329,14.261-14.748,20.198c-7.745,1.686-16.051,2.648-24.731,2.648v3.117l-0.148-3.117
			c-8.598,0-16.938-0.95-24.805-2.68c-5.419-5.931-10.424-12.708-14.735-20.167c-4.357-7.551-7.682-15.26-10.105-22.855
			c2.424-7.587,5.749-15.302,10.105-22.853c4.311-7.478,9.328-14.249,14.735-20.183c7.794-1.69,16.148-2.664,24.89-2.664
			c8.72,0.006,17.05,0.986,24.831,2.688c5.396,5.934,10.4,12.695,14.699,20.158c4.306,7.456,7.667,15.165,10.121,22.853
			C128.086,88.509,124.725,96.224,120.432,103.677z M97.865,131.596c-5.48,4.865-11.229,8.848-17.02,11.807
			c-5.812-2.959-11.56-6.954-17.034-11.819c5.517,0.762,11.192,1.176,16.979,1.176h0.155
			C86.753,132.759,92.397,132.345,97.865,131.596z M26.631,112.043c-0.338-6.49,0.192-13.457,1.689-20.709
			c2.101,5.182,4.588,10.363,7.532,15.461c2.917,5.06,6.153,9.791,9.615,14.218c-6.542-2.187-12.595-4.981-17.957-8.366
			L26.631,112.043z M26.644,49.514c5.456-3.547,11.797-6.585,18.855-8.924c-3.48,4.439-6.716,9.198-9.646,14.267
			c-2.944,5.1-5.431,10.282-7.532,15.463C26.817,63.031,26.287,56.017,26.644,49.514z M63.812,30.059
			c5.492-4.862,11.244-8.848,17.028-11.804c5.821,2.962,11.569,6.966,17.093,11.85c-5.548-0.773-11.283-1.212-17.169-1.218
			C74.955,28.887,69.28,29.304,63.812,30.059z M43.547,16.23c4.469-2.582,9.584-3.891,15.183-3.891c4.85,0,9.901,1.008,14.982,2.822
			c-7.307,4.335-14.416,10.096-20.962,17.025c-9.353,2.232-17.877,5.535-25.233,9.694C29.578,30.421,34.903,21.211,43.547,16.23z
			 M6.248,80.739c0.012-9.961,5.325-19.16,14.221-26.673c0.07,8.461,1.461,17.516,4.211,26.756
			c-2.731,9.186-4.128,18.191-4.211,26.618C11.274,99.664,6.235,90.414,6.248,80.739z M58.724,149.309
			c-5.587,0-10.708-1.309-15.189-3.891c-8.625-4.98-13.935-14.157-16.011-25.593c7.499,4.244,16.036,7.502,25.258,9.688
			c6.546,6.899,13.643,12.647,20.919,16.983C68.625,148.311,63.568,149.309,58.724,149.309z M118.118,145.418
			c-4.47,2.582-9.572,3.891-15.162,3.891h-0.013c-4.847,0-9.889-0.998-14.967-2.831c7.295-4.329,14.413-10.077,20.946-17.02
			c9.329-2.223,17.817-5.517,25.173-9.657C131.971,131.62,126.484,140.602,118.118,145.418z M141.312,107.501
			c-0.104-8.61-1.535-17.61-4.257-26.68c2.722-9.037,4.153-18.027,4.257-26.613c8.854,7.526,14.127,16.73,14.114,26.686
			C155.414,90.828,150.141,100.011,141.312,107.501z"/>
		<circle cx="80.834" cy="80.829" r="10.633"/>
	</g>
</g>
<g>
</g>
<g>
</g>
<g>
</g>
<g>
</g>
<g>
</g>
<g>
</g>
<g>
</g>
<g>
</g>
<g>
</g>
<g>
</g>
<g>
</g>
<g>
</g>
<g>
</g>
<g>
</g>
<g>
</g>
</svg>
