<?xml version="1.0" encoding="iso-8859-1"?>
<!-- Generator: Adobe Illustrator 16.0.0, SVG Export Plug-In . SVG Version: 6.00 Build 0)  -->
<!DOCTYPE svg PUBLIC "-//W3C//DTD SVG 1.1//EN" "http://www.w3.org/Graphics/SVG/1.1/DTD/svg11.dtd">
<svg version="1.1" id="Capa_1" xmlns="http://www.w3.org/2000/svg" xmlns:xlink="http://www.w3.org/1999/xlink" x="0px" y="0px"
	 width="128.87px" height="128.87px" viewBox="0 0 128.87 128.87" style="enable-background:new 0 0 128.87 128.87;"
	 xml:space="preserve">
<g>
	<g>
		<path d="M122.215,88.169l0.032-0.575l-0.148-0.738c-1.461-11.672-5.87-25.505-15.693-41.169l-1.378-2.15
			c-6.116-9.441-13.723-21.179,1.668-38.898c1.018-1.17,0.887-2.938-0.276-3.956c-1.168-1.01-2.928-0.887-3.959,0.279
			c-18.149,20.9-8.125,36.378-2.145,45.623l1.336,2.085c9.488,15.122,13.641,28.364,14.938,39.383
			c-0.29,11.563-11.201,20.903-24.635,20.903c-13.62,0-24.689-9.581-24.689-21.356c0-1.543-1.252-2.802-2.802-2.802
			c-1.546,0-2.802,1.259-2.802,2.802c0,11.787-11.078,21.356-24.686,21.356c-13.612,0-24.69-9.581-24.69-21.356
			c0-0.515-0.178-0.974-0.417-1.384c0.188-13.56,5.187-21.09,11.217-30.061c1.819-2.711,3.71-5.529,5.552-8.64
			c16.716-28.184-1.921-46.553-2.113-46.736c-1.108-1.064-2.883-1.026-3.962,0.087c-1.064,1.117-1.029,2.892,0.091,3.961
			c0.155,0.148,15.644,15.429,1.17,39.829c-1.786,3.01-3.619,5.739-5.389,8.366c-10.641,15.841-19.045,28.35-4.181,73.91
			c0.374,1.149,1.452,1.938,2.667,1.938h94.865c0.887,0,1.741-0.426,2.255-1.148C114.693,126.839,124.803,112.373,122.215,88.169z
			 M18.948,123.267c-2.173-6.822-3.742-12.745-4.879-18.074c5.557,5.724,13.749,9.367,22.9,9.367
			c10.204,0,19.197-4.547,24.687-11.446v20.044l0.022,0.114L18.948,123.267z M110.275,123.272H67.244l0.021-0.114v-20.044
			c5.487,6.899,14.484,11.446,24.689,11.446c10.206,0,19.245-4.535,24.728-11.441C115.473,113.674,111.873,120.629,110.275,123.272z
			"/>
	</g>
</g>
<g>
</g>
<g>
</g>
<g>
</g>
<g>
</g>
<g>
</g>
<g>
</g>
<g>
</g>
<g>
</g>
<g>
</g>
<g>
</g>
<g>
</g>
<g>
</g>
<g>
</g>
<g>
</g>
<g>
</g>
</svg>
