<?xml version="1.0" encoding="iso-8859-1"?>
<!-- Generator: Adobe Illustrator 16.0.0, SVG Export Plug-In . SVG Version: 6.00 Build 0)  -->
<!DOCTYPE svg PUBLIC "-//W3C//DTD SVG 1.1//EN" "http://www.w3.org/Graphics/SVG/1.1/DTD/svg11.dtd">
<svg version="1.1" id="Capa_1" xmlns="http://www.w3.org/2000/svg" xmlns:xlink="http://www.w3.org/1999/xlink" x="0px" y="0px"
	 width="175.757px" height="175.757px" viewBox="0 0 175.757 175.757" style="enable-background:new 0 0 175.757 175.757;"
	 xml:space="preserve">
<g>
	<path d="M153.175,46.969C141.252,11.59,123.071,6.308,113.297,6.308c-2.63,0-4.694,0.375-6.021,0.707
		C98.788,2.356,89.906,0,80.882,0C55.38,0,35.609,18.398,28.537,30.769C1.476,78.133,7.407,131.538,24.372,161.095
		c5.587,9.73,12.245,14.662,19.805,14.662c13.119,0,23.288-15.405,23.718-16.062c0.505-0.768,0.648-1.699,0.405-2.595
		c-0.244-0.889-0.84-1.632-1.666-2.033c-4.469-2.235-19.845-21.678-23.264-44.743c-1.726-11.667,0.283-21.836,1.379-26.135h20.782
		c1.504,0,2.801-1.041,3.136-2.503l4.248-18.535l4.338,17.263c0.362,1.431,1.647,2.433,3.118,2.433h50.896
		c0.316,7.688,0.889,28.013-1.48,37.72c-6.825,28.034-20.551,38.885-20.679,38.982c-0.804,0.615-1.267,1.559-1.267,2.558
		c0,0.998,0.457,1.948,1.255,2.558c5.815,4.433,11.673,6.68,17.445,6.68c13.585,0,22.688-12.593,25.672-16.733
		C177.611,119.469,161.146,70.612,153.175,46.969z M146.995,150.841c-4.354,6.04-11.234,14.065-20.459,14.065
		c-3.331,0-6.808-1.071-10.352-3.203c4.95-5.14,14.413-17.354,19.845-39.64c3.172-12.971,1.577-41.431,1.51-42.628
		c-0.092-1.702-1.51-3.035-3.209-3.035H82.885l-6.99-27.821c-0.369-1.431-1.653-2.433-3.124-2.433c-0.012,0-0.024,0-0.024,0
		c-1.498,0.018-2.776,1.047-3.111,2.5L62.968,77.74H42.316c-1.376,0-2.6,0.88-3.048,2.183c-0.195,0.572-4.783,14.337-2.259,31.326
		c3.3,22.286,16.206,40.748,23.69,47.349c-3.033,3.8-9.508,10.717-16.523,10.717c-5.084,0-9.87-3.849-14.224-11.423
		c-16.087-28.022-21.635-78.754,4.177-123.93c6.08-10.644,24.149-27.529,46.752-27.529c8.312,0,16.517,2.308,24.415,6.842
		c0.828,0.478,1.839,0.566,2.728,0.216c0.019-0.006,2.077-0.746,5.279-0.746c8.057,0,23.151,4.707,33.844,36.444
		C155.283,73.368,170.468,118.397,146.995,150.841z"/>
</g>
<g>
</g>
<g>
</g>
<g>
</g>
<g>
</g>
<g>
</g>
<g>
</g>
<g>
</g>
<g>
</g>
<g>
</g>
<g>
</g>
<g>
</g>
<g>
</g>
<g>
</g>
<g>
</g>
<g>
</g>
</svg>
