<?xml version="1.0" encoding="iso-8859-1"?>
<!-- Generator: Adobe Illustrator 16.0.0, SVG Export Plug-In . SVG Version: 6.00 Build 0)  -->
<!DOCTYPE svg PUBLIC "-//W3C//DTD SVG 1.1//EN" "http://www.w3.org/Graphics/SVG/1.1/DTD/svg11.dtd">
<svg version="1.1" id="Capa_1" xmlns="http://www.w3.org/2000/svg" xmlns:xlink="http://www.w3.org/1999/xlink" x="0px" y="0px"
	 width="175.719px" height="175.72px" viewBox="0 0 175.719 175.72" style="enable-background:new 0 0 175.719 175.72;"
	 xml:space="preserve">
<g>
	<path d="M153.152,46.946c-6.612-19.625-15.874-32.358-27.511-37.826c-8.269-3.896-15.363-2.886-18.377-2.131
		C94.398-0.05,80.423-1.81,66.798,1.88c-17.801,4.823-32.05,17.975-38.273,28.869C1.459,78.116,7.38,131.507,24.354,161.063
		c5.462,9.511,11.965,14.431,19.336,14.65c0.155,0,0.304,0.006,0.469,0.006c13.119-0.006,23.288-15.399,23.717-16.069
		c0.505-0.768,0.648-1.699,0.405-2.594c-0.244-0.884-0.84-1.626-1.666-2.04c-3.614-1.809-6.497-5.109-8.808-7.77
		c-0.618-0.707-1.2-1.383-1.729-1.943c-5.148-5.564-9.788-20.13-12.221-32.357c28.451-10.766,57.677-51.258,65.379-62.48
		c28.077,21.306,26.609,49.23,22.079,71.383c-4.329,21.196-22.268,37.68-22.45,37.838c-0.706,0.652-1.103,1.565-1.048,2.521
		c0.037,0.949,0.506,1.839,1.255,2.417c6.905,5.292,13.877,7.447,20.673,6.442c10.546-1.553,17.854-10.15,22.444-16.483
		C177.6,119.425,161.123,70.578,153.152,46.946z M146.971,150.809c-3.896,5.39-10.017,12.69-18.164,13.901
		c-4.067,0.615-8.36-0.438-12.75-3.087c5.639-5.894,17.865-20.386,21.562-38.489c5.06-24.765,6.533-56.209-27.358-79.89
		c-0.707-0.493-1.602-0.688-2.448-0.524c-0.864,0.17-1.613,0.676-2.082,1.401c-0.39,0.621-35.129,53.39-65.532,63.412
		c-0.286,0.019-0.387,0.013-0.591,0.049c-0.469,0.079-0.88,0.256-1.248,0.505c-3.861,1.054-7.621,1.377-11.216,0.792
		c-1.711-0.292-3.413,0.89-3.693,2.649c-0.286,1.753,0.898,3.403,2.652,3.695c3.785,0.634,7.648,0.427,11.561-0.432
		c2.548,12.586,7.386,28.083,13.697,34.891c0.5,0.529,1.023,1.139,1.596,1.796c1.933,2.21,4.402,5.054,7.55,7.331
		c-3.498,4.306-9.919,10.48-16.368,10.48c-0.091,0-0.186,0-0.286-0.007c-4.969-0.134-9.651-3.982-13.923-11.423
		C13.841,129.844,8.291,79.115,34.106,33.939c5.383-9.426,18.432-21.531,34.364-25.848c4.165-1.132,8.312-1.693,12.419-1.693
		c8.287,0,16.443,2.29,24.372,6.851c0.828,0.475,1.839,0.566,2.752,0.207c0.055-0.024,6.68-2.363,14.882,1.479
		c9.858,4.64,18.206,16.416,24.204,34.233C155.265,73.343,170.439,118.354,146.971,150.809z"/>
</g>
<g>
</g>
<g>
</g>
<g>
</g>
<g>
</g>
<g>
</g>
<g>
</g>
<g>
</g>
<g>
</g>
<g>
</g>
<g>
</g>
<g>
</g>
<g>
</g>
<g>
</g>
<g>
</g>
<g>
</g>
</svg>
