<?xml version="1.0" encoding="iso-8859-1"?>
<!-- Generator: Adobe Illustrator 16.0.0, SVG Export Plug-In . SVG Version: 6.00 Build 0)  -->
<!DOCTYPE svg PUBLIC "-//W3C//DTD SVG 1.1//EN" "http://www.w3.org/Graphics/SVG/1.1/DTD/svg11.dtd">
<svg version="1.1" id="Capa_1" xmlns="http://www.w3.org/2000/svg" xmlns:xlink="http://www.w3.org/1999/xlink" x="0px" y="0px"
	 width="147.918px" height="147.918px" viewBox="0 0 147.918 147.918" style="enable-background:new 0 0 147.918 147.918;"
	 xml:space="preserve">
<g>
	<path d="M144.143,90.567H128.47c-2.533-5.894-4.799-10.747-5.432-12.099h18.426c1.717,0,3.117-1.395,3.117-3.115
		s-1.4-3.118-3.117-3.118H95.479c-1.718,0-3.118,1.397-3.118,3.118s1.4,3.115,3.118,3.115h21.799
		c-1.12,2.362-7.161,15.345-10.899,25.885H40.56c-2.743,0-4.981-2.654-4.981-5.906c0-3.246,2.226-5.889,4.981-5.889h34.854
		c1.729,0,3.118-1.395,3.118-3.117c0-0.013-0.013-0.037-0.013-0.049c0-0.024,0.013-0.043,0.013-0.067
		c0-1.711-1.389-3.117-3.118-3.117H27.441c-2.743,0-4.987-2.539-4.987-5.688c0-2.989,2.055-5.392,4.637-5.605h48.324
		c1.729,0,3.118-1.395,3.118-3.118c0-0.012,0-0.024,0-0.037s0-0.024,0-0.037c0-1.72-1.389-3.117-3.118-3.117H27.441
		c-0.255,0-0.487,0.061-0.737,0.079H11.241c-2.749,0-4.993-2.591-4.993-5.785c0-3.2,2.232-5.8,4.993-5.8h10.184
		c0.28,0.024,0.554,0.095,0.84,0.095h53.167c1.717,0,3.118-1.397,3.118-3.118c0-0.012-0.013-0.03-0.013-0.042
		c0-0.016,0.013-0.034,0.013-0.046c0-1.72-1.401-3.118-3.118-3.118h-53.56c-2.558-0.244-4.594-2.667-4.594-5.7
		c0-3.196,2.231-5.797,4.987-5.797h33.39h17.729c0.929,6.528,5.179,9.259,13.983,9.259h16.855c1.717,0,3.117-1.397,3.117-3.118
		s-1.4-3.118-3.117-3.118H87.367c-7.574,0-7.949-1.565-7.949-6.104c0-1.72-1.403-3.117-3.117-3.117
		c-0.125,0-0.214,0.055-0.329,0.069c-0.177-0.033-0.356-0.112-0.539-0.112H55.655c-2.75,0-4.993-2.664-4.993-5.931
		c0-3.255,2.219-5.903,4.969-5.925c0,0,0.012,0.006,0.024,0.006h50.248c6.874,0,12.445,4.996,12.445,11.125v5.343
		c0,0.837,0.342,1.629,0.914,2.208c0.584,0.581,1.376,0.91,2.204,0.91c0.012,0,0.024,0,0.024,0l23.346-0.186
		c1.717-0.013,3.094-1.422,3.081-3.143c-0.012-1.717-1.4-3.093-3.117-3.093c0,0-0.013,0-0.024,0l-20.192,0.161v-2.207
		c0-9.572-8.378-17.36-18.681-17.36H75.497c-0.024,0-0.037-0.012-0.064-0.012H55.655c-6.184,0-11.229,5.456-11.229,12.166
		c0,2.165,0.572,4.165,1.482,5.931H22.253c-6.187,0-11.222,5.392-11.222,12.032c0,2.076,0.536,3.997,1.4,5.699h-1.203
		C5.045,50.86,0,56.255,0,62.896c0,6.622,5.045,12.02,11.229,12.02h6.366c-0.853,1.684-1.385,3.565-1.385,5.605
		c0,6.583,5.039,11.923,11.226,11.923h3.44c-0.947,1.777-1.532,3.812-1.532,6.01c0,6.691,5.042,12.136,11.229,12.136h63.833
		c-0.609,2.234-0.993,4.165-0.993,5.535c0,9.237,7.526,16.763,16.764,16.763c9.231,0,16.758-7.525,16.758-16.763
		c0-3.763-2.771-11.667-5.846-19.321l13.067,0.013c1.729,0,3.117-1.407,3.117-3.118C147.272,91.975,145.86,90.567,144.143,90.567z
		 M120.164,126.64c-5.81,0-10.528-4.731-10.528-10.534c0-4.122,5.645-18.091,10.528-28.966
		c4.858,10.875,10.521,24.844,10.521,28.966C130.691,121.908,125.961,126.64,120.164,126.64z"/>
</g>
<g>
</g>
<g>
</g>
<g>
</g>
<g>
</g>
<g>
</g>
<g>
</g>
<g>
</g>
<g>
</g>
<g>
</g>
<g>
</g>
<g>
</g>
<g>
</g>
<g>
</g>
<g>
</g>
<g>
</g>
</svg>
