<?xml version="1.0" encoding="iso-8859-1"?>
<!-- Generator: Adobe Illustrator 16.0.0, SVG Export Plug-In . SVG Version: 6.00 Build 0)  -->
<!DOCTYPE svg PUBLIC "-//W3C//DTD SVG 1.1//EN" "http://www.w3.org/Graphics/SVG/1.1/DTD/svg11.dtd">
<svg version="1.1" id="Capa_1" xmlns="http://www.w3.org/2000/svg" xmlns:xlink="http://www.w3.org/1999/xlink" x="0px" y="0px"
	 width="187.059px" height="187.06px" viewBox="0 0 187.059 187.06" style="enable-background:new 0 0 187.059 187.06;"
	 xml:space="preserve">
<g>
	<path d="M90.031,81.147c-0.992,0-1.976,0.137-2.974,0.28c0.082-0.819,0.176-1.647,0.387-2.469c1.053-4.034,3.791-7.353,8.163-9.81
		c1.212-0.679,1.65-2.238,0.956-3.458c-0.694-1.23-2.241-1.647-3.468-0.962c-5.593,3.182-9.161,7.521-10.565,12.952
		c-0.441,1.695-0.591,3.397-0.615,5.062c-1.836,0.731-3.544,1.751-5.182,2.963c-0.536-3.666-0.058-7.925,2.542-12.583
		c0.688-1.221,0.25-2.761-0.972-3.461c-1.211-0.679-2.761-0.256-3.456,0.974c-4.04,7.24-3.939,13.75-2.375,18.992
		c-6.802,8.123-7.097,19.51-0.189,27.913c5.514,6.698,20.776,14.809,31.462,14.809c2.923,0,5.371-0.597,7.308-1.766
		c2.082-1.261,3.422-3.83,4-7.66c1.443-9.621-2.161-26.78-8.981-34.462C101.883,83.741,96.19,81.147,90.031,81.147z
		 M110.043,122.161c-0.384,2.521-1.108,3.775-1.607,4.092c-1.133,0.663-2.704,1.022-4.677,1.022
		c-9.098,0-22.737-7.143-27.544-12.958c-4.676-5.699-5.002-13.188-1.416-19.181c2.53,4.536,5.586,7.246,5.653,7.302
		c0.481,0.401,1.069,0.608,1.653,0.608c0.712,0,1.428-0.292,1.921-0.877c0.917-1.06,0.81-2.655-0.244-3.58
		c-0.262-0.231-3.462-3.069-5.52-7.679c0.107-0.092,0.165-0.177,0.256-0.268c1.193-1.023,2.502-1.827,3.861-2.494
		c1.117,5.843,3.711,10.264,3.878,10.531c0.481,0.779,1.321,1.212,2.171,1.212c0.453,0,0.91-0.122,1.32-0.378
		c1.197-0.73,1.584-2.277,0.862-3.482c-0.046-0.061-2.503-4.281-3.349-9.56c0.91-0.152,1.838-0.256,2.767-0.256
		c4.68,0,9.027,1.988,12.255,5.602C107.96,98.218,111.31,113.854,110.043,122.161z M35.198,138.352h116.677
		c1.406,0,2.533-1.139,2.533-2.521V61.385c0-1.4-1.139-2.536-2.533-2.536H35.198c-1.41,0-2.533,1.148-2.533,2.536v74.44
		C32.653,137.213,33.789,138.352,35.198,138.352z M37.728,63.924h111.603v69.355H37.728V63.924z M184.52,43.005H2.539
		C1.124,43.005,0,44.146,0,45.528c0,1.41,1.135,2.54,2.539,2.54h14.9v95.204c0,5.675,4.61,10.291,10.276,10.291h131.614
		c5.669,0,10.278-4.616,10.278-10.291V48.068h14.9c1.419,0,2.539-1.136,2.539-2.54C187.059,44.146,185.926,43.005,184.52,43.005z
		 M164.553,143.284c0,2.874-2.338,5.212-5.212,5.212H27.721c-2.874,0-5.206-2.338-5.206-5.212V48.068h142.039V143.284z M0,36.026
		c0-1.403,1.135-2.53,2.539-2.53H184.52c1.418,0,2.539,1.148,2.539,2.53c0,1.41-1.133,2.533-2.539,2.533H2.539
		C1.135,38.572,0,37.43,0,36.026z"/>
</g>
<g>
</g>
<g>
</g>
<g>
</g>
<g>
</g>
<g>
</g>
<g>
</g>
<g>
</g>
<g>
</g>
<g>
</g>
<g>
</g>
<g>
</g>
<g>
</g>
<g>
</g>
<g>
</g>
<g>
</g>
</svg>
