<?xml version="1.0" encoding="iso-8859-1"?>
<!-- Generator: Adobe Illustrator 16.0.0, SVG Export Plug-In . SVG Version: 6.00 Build 0)  -->
<!DOCTYPE svg PUBLIC "-//W3C//DTD SVG 1.1//EN" "http://www.w3.org/Graphics/SVG/1.1/DTD/svg11.dtd">
<svg version="1.1" id="Capa_1" xmlns="http://www.w3.org/2000/svg" xmlns:xlink="http://www.w3.org/1999/xlink" x="0px" y="0px"
	 width="155.901px" height="155.9px" viewBox="0 0 155.901 155.9" style="enable-background:new 0 0 155.901 155.9;"
	 xml:space="preserve">
<g>
	<path d="M141.091,34.678c-13.45-17.314-33.746-27.243-55.703-27.243c-15.78,0-30.726,5.133-43.215,14.848
		C13.366,44.691,7.036,85.06,26.067,115.322l-23.382,18.17c-3.026,2.339-3.581,6.699-1.224,9.719
		c1.367,1.766,3.41,2.686,5.474,2.686c1.492,0,2.993-0.475,4.253-1.455l23.139-17.976c13.262,14.042,31.521,22,51.134,22
		c15.771,0,30.726-5.127,43.215-14.852C159.383,109.775,164.955,65.386,141.091,34.678z M120.169,122.679
		c-10.029,7.794-22.043,11.923-34.696,11.923c-17.637,0-33.935-7.983-44.755-21.885c-19.141-24.649-14.671-60.313,9.971-79.491
		c10.038-7.8,22.043-11.922,34.705-11.922c17.628,0,33.935,7.98,44.755,21.878C149.293,67.849,144.831,103.516,120.169,122.679z
		 M123.945,65.873l-13.481,21.232c-1.315,2.082-3.568,3.221-5.858,3.221c-1.272,0-2.563-0.358-3.708-1.083
		c-3.233-2.046-4.195-6.339-2.137-9.566l13.48-21.224c2.047-3.242,6.352-4.184,9.566-2.138
		C125.041,58.353,126.002,62.648,123.945,65.873z M66.515,54.127c-2.113-3.2-1.236-7.508,1.964-9.603l13.439-8.863
		c3.196-2.137,7.495-1.233,9.608,1.967c2.113,3.197,1.236,7.505-1.967,9.609l-13.436,8.86c-1.179,0.785-2.506,1.154-3.821,1.154
		C70.043,57.244,67.836,56.146,66.515,54.127z M57.929,64.372l-2.22,22.563c-0.356,3.592-3.374,6.26-6.896,6.26
		c-0.231,0-0.463-0.013-0.694-0.025c-3.821-0.377-6.594-3.775-6.235-7.587l2.219-22.572c0.38-3.814,3.824-6.491,7.59-6.229
		C55.508,57.162,58.292,60.56,57.929,64.372z M75.457,100.295l-4.865,12.921c-1.041,2.789-3.684,4.506-6.491,4.506
		c-0.81,0-1.638-0.14-2.436-0.444c-3.593-1.346-5.407-5.353-4.049-8.933l4.865-12.934c1.34-3.599,5.362-5.456,8.93-4.05
		C74.988,92.707,76.802,96.715,75.457,100.295z M82.313,83.038c-0.822,0-1.65-0.134-2.448-0.45c-3.592-1.34-5.407-5.347-4.052-8.927
		l4.862-12.924c1.339-3.604,5.364-5.45,8.938-4.055c3.58,1.342,5.396,5.352,4.037,8.93l-4.865,12.921
		C87.75,81.333,85.108,83.038,82.313,83.038z M123.038,101.391c0.463,3.812-2.253,7.246-6.065,7.697l-25.142,2.971
		c-0.269,0.043-0.555,0.055-0.828,0.055c-3.465,0-6.461-2.594-6.869-6.119c-0.463-3.8,2.253-7.246,6.071-7.685l25.142-2.972
		C119.055,94.766,122.605,97.579,123.038,101.391z"/>
</g>
<g>
</g>
<g>
</g>
<g>
</g>
<g>
</g>
<g>
</g>
<g>
</g>
<g>
</g>
<g>
</g>
<g>
</g>
<g>
</g>
<g>
</g>
<g>
</g>
<g>
</g>
<g>
</g>
<g>
</g>
</svg>
