<?xml version="1.0" encoding="iso-8859-1"?>
<!-- Generator: Adobe Illustrator 16.0.0, SVG Export Plug-In . SVG Version: 6.00 Build 0)  -->
<!DOCTYPE svg PUBLIC "-//W3C//DTD SVG 1.1//EN" "http://www.w3.org/Graphics/SVG/1.1/DTD/svg11.dtd">
<svg version="1.1" id="Capa_1" xmlns="http://www.w3.org/2000/svg" xmlns:xlink="http://www.w3.org/1999/xlink" x="0px" y="0px"
	 width="155.871px" height="155.871px" viewBox="0 0 155.871 155.871" style="enable-background:new 0 0 155.871 155.871;"
	 xml:space="preserve">
<g>
	<path d="M111.292,55.743c-6.533-7.343-14.681-12.358-23.656-14.821c0.231-0.804,0.371-1.62,0.682-2.415
		c2.868-7.076,8.957-12.312,18.061-15.561c2.308-0.831,3.508-3.373,2.686-5.687c-0.828-2.302-3.35-3.486-5.682-2.682
		C91.8,18.724,83.958,25.654,80.09,35.174c-0.56,1.376-0.858,2.779-1.227,4.177c-1.315-0.106-2.625-0.207-3.958-0.207
		c-2.901,0-5.788,0.308-8.644,0.819c0.131-2.588,0.481-5.206,1.16-7.794c2.576-9.865,9.222-17.884,19.78-23.846
		c2.138-1.202,2.893-3.921,1.687-6.053c-1.205-2.158-3.927-2.901-6.046-1.692C70.111,7.776,62.042,17.653,58.842,29.922
		c-1.096,4.21-1.528,8.412-1.522,12.498c-5.207,1.964-10.099,4.898-14.583,8.509c-1.882-9.329-1.136-20.457,5.767-32.772
		c1.199-2.14,0.432-4.838-1.708-6.049c-2.144-1.184-4.844-0.435-6.041,1.702c-9.448,16.861-8.973,32.008-5.182,44.08
		c-15.914,18.487-16.791,44.665-0.968,63.912c12.684,15.437,47.806,34.069,72.4,34.069c6.553,0,12.039-1.315,16.319-3.91
		c4.463-2.715,7.368-8.378,8.641-16.854C135.295,112.917,126.99,73.402,111.292,55.743z M123.184,133.797
		c-1.176,7.824-3.508,10.004-4.464,10.577c-2.868,1.741-6.802,2.63-11.709,2.63c-21.659,0-54.136-16.952-65.547-30.823
		c-11.947-14.535-12.197-33.88-2.007-48.747c5.956,11.67,13.88,18.728,14.048,18.874c0.84,0.719,1.863,1.09,2.893,1.09
		c1.248,0,2.487-0.523,3.367-1.547c1.595-1.857,1.392-4.652-0.466-6.254c-0.643-0.566-8.738-7.76-13.688-19.369
		c0.512-0.469,0.892-1.017,1.428-1.474c3.38-2.911,7.146-5.13,11.061-6.896c2.302,14.325,8.875,25.358,9.28,26.034
		c0.84,1.371,2.308,2.132,3.797,2.132c0.785,0,1.583-0.207,2.308-0.64c2.095-1.278,2.755-4.019,1.489-6.107
		c-0.095-0.149-6.439-10.954-8.248-24.311c2.697-0.566,5.432-0.911,8.181-0.911c0.864,0,1.689,0.219,2.542,0.274
		c-0.404,13.28,5.127,24.868,5.444,25.514c0.772,1.577,2.344,2.49,3.994,2.49c0.651,0,1.315-0.146,1.948-0.45
		c2.204-1.078,3.111-3.748,2.04-5.943c-0.073-0.115-4.5-9.438-4.561-19.963c6.911,2.119,13.244,5.967,18.334,11.697
		C118.184,76.87,126.143,114.038,123.184,133.797z"/>
</g>
<g>
</g>
<g>
</g>
<g>
</g>
<g>
</g>
<g>
</g>
<g>
</g>
<g>
</g>
<g>
</g>
<g>
</g>
<g>
</g>
<g>
</g>
<g>
</g>
<g>
</g>
<g>
</g>
<g>
</g>
</svg>
