<?xml version="1.0" encoding="iso-8859-1"?>
<!-- Generator: Adobe Illustrator 16.0.0, SVG Export Plug-In . SVG Version: 6.00 Build 0)  -->
<!DOCTYPE svg PUBLIC "-//W3C//DTD SVG 1.1//EN" "http://www.w3.org/Graphics/SVG/1.1/DTD/svg11.dtd">
<svg version="1.1" id="Capa_1" xmlns="http://www.w3.org/2000/svg" xmlns:xlink="http://www.w3.org/1999/xlink" x="0px" y="0px"
	 width="187.059px" height="187.06px" viewBox="0 0 187.059 187.06" style="enable-background:new 0 0 187.059 187.06;"
	 xml:space="preserve">
<g>
	<path d="M73.746,82.797c-2.07-2.305-3.249-4.88-4.098-7.076c-1.659-4.433-1.958-7.538-1.958-7.538s0.743,3.054,2.914,7.115
		c1.102,1.981,2.567,4.25,4.637,6.016c1.035,0.893,2.189,1.659,3.456,2.107c0.612,0.32,1.297,0.369,1.921,0.548l2.281,0.368
		c3.111,0.523,6.509,1.291,9.377,3.456c1.425,1.072,2.558,2.54,3.325,4.086c0.365,0.779,0.578,1.57,0.828,2.338
		c0.121,0.768,0.23,1.521,0.341,2.217c0.012,0.048,0.012,0.072,0.012,0.121c3.501,1.937,5.785,7.465,5.273,13.811
		c-0.621,7.685-5.018,13.604-9.828,13.213c-4.807-0.396-8.205-6.93-7.602-14.602c0.462-5.87,3.151-10.668,6.537-12.471
		c-0.012-0.414-0.012-0.871-0.012-1.34c-0.107-0.401-0.131-0.9-0.274-1.346c-0.308-0.895-0.755-1.796-1.559-2.594
		c-1.599-1.638-4.29-2.792-7.146-3.659l-2.229-0.655c-0.816-0.356-1.678-0.572-2.387-1.047
		C76.001,85.062,74.781,83.951,73.746,82.797z M117.429,93.48H99.85c-0.487,0-0.914,0.305-1.09,0.762
		c-0.165,0.45-0.013,0.962,0.371,1.254c3.58,2.917,5.584,8.817,5.078,15.053c-0.694,8.683-5.663,15.217-11.566,15.217
		c-0.191,0-0.393,0-0.618-0.024c-6.104-0.5-10.317-7.935-9.587-16.971c0.423-5.456,2.667-10.333,5.979-13.055
		c0.365-0.305,0.512-0.792,0.354-1.255c-0.269-0.804-0.269-0.804-15.942-0.84c-0.642,0-1.154,0.511-1.16,1.15
		c0,0.634,0.511,1.151,1.147,1.151c3.839,0.006,9.009,0.036,12.121,0.061c-2.664,3.19-4.396,7.697-4.795,12.617
		c-0.828,10.303,4.302,18.84,11.691,19.424c0.268,0.037,0.536,0.037,0.804,0.037c7.104,0,13.059-7.453,13.855-17.342
		c0.47-5.846-1.004-11.302-3.915-14.943h14.852c0.64,0,1.151-0.523,1.151-1.163C118.581,93.979,118.069,93.48,117.429,93.48z
		 M90.847,82.018c1.035,1.255,2.265,2.457,3.772,3.325c0.718,0.511,1.57,0.743,2.393,1.123l2.223,0.716
		c2.874,0.929,5.571,2.195,7.143,3.967c0.292,0.323,0.512,0.67,0.719,1.023h5.688c-0.043-0.122-0.073-0.226-0.11-0.341
		c-0.779-1.675-1.899-3.258-3.337-4.418c-2.861-2.351-6.253-3.188-9.365-3.742l-2.283-0.387c-0.627-0.216-1.321-0.268-1.93-0.6
		c-1.255-0.496-2.415-1.333-3.438-2.274c-2.083-1.933-3.557-4.372-4.652-6.54c-2.183-4.372-2.898-7.688-2.898-7.688
		s0.305,3.364,1.945,8.166C87.617,76.721,88.777,79.506,90.847,82.018z M32.647,135.812V61.385c0-1.406,1.142-2.542,2.545-2.542
		h116.672c1.406,0,2.533,1.147,2.533,2.542v74.428c0,1.4-1.139,2.527-2.533,2.527H35.198
		C33.789,138.352,32.647,137.213,32.647,135.812z M37.728,133.279h111.603V63.918H37.728V133.279z M187.059,45.528
		c0,1.416-1.133,2.54-2.539,2.54h-14.9v95.216c0,5.662-4.609,10.278-10.278,10.278H27.715c-5.66,0-10.27-4.616-10.27-10.278V48.068
		h-14.9c-1.416,0-2.54-1.142-2.54-2.54c0-1.394,1.142-2.53,2.54-2.53h181.98C185.926,42.999,187.059,44.141,187.059,45.528z
		 M164.553,48.068H22.502v95.216c0,2.874,2.338,5.212,5.212,5.212h131.626c2.874,0,5.2-2.338,5.2-5.212V48.068H164.553z
		 M2.539,38.565H184.52c1.406,0,2.539-1.142,2.539-2.545c0-1.389-1.133-2.524-2.539-2.524H2.539C1.129,33.497,0,34.638,0,36.021
		C0,37.424,1.135,38.565,2.539,38.565z"/>
</g>
<g>
</g>
<g>
</g>
<g>
</g>
<g>
</g>
<g>
</g>
<g>
</g>
<g>
</g>
<g>
</g>
<g>
</g>
<g>
</g>
<g>
</g>
<g>
</g>
<g>
</g>
<g>
</g>
<g>
</g>
</svg>
