<?xml version="1.0" encoding="iso-8859-1"?>
<!-- Generator: Adobe Illustrator 16.0.0, SVG Export Plug-In . SVG Version: 6.00 Build 0)  -->
<!DOCTYPE svg PUBLIC "-//W3C//DTD SVG 1.1//EN" "http://www.w3.org/Graphics/SVG/1.1/DTD/svg11.dtd">
<svg version="1.1" id="Capa_1" xmlns="http://www.w3.org/2000/svg" xmlns:xlink="http://www.w3.org/1999/xlink" x="0px" y="0px"
	 width="137.315px" height="137.314px" viewBox="0 0 137.315 137.314" style="enable-background:new 0 0 137.315 137.314;"
	 xml:space="preserve">
<g>
	<g>
		<path d="M98.812,10.299C93.728,6.424,89.32,5.341,85.664,7.12C79.917,9.921,79.66,18.414,79.65,19.53
			c0.174,5.297-0.942,7.853-2.049,8.481c-0.826,0.476-2.438,0.137-4.03-0.892c-2.366-1.521-3.559-3.71-3.482-4.64
			C71.423,7.628,61.466,1.078,54.451,0.296C44.748-0.809,36.83,1.188,30.872,6.162c-9.095,7.59-9.987,19.36-10.03,20.055
			c-0.329,24.449,18.625,24.859,28.805,25.067c1.986,0.043,3.803,0.071,5.274,0.269c6.665,0.908,7.529,6.653,8.159,16.032
			c0.248,3.693,0.476,7.176,1.598,9.855c6.369,15.168,7.591,55.858,7.595,56.269c0.061,2.003,1.715,3.605,3.71,3.605h0.105
			c2.045-0.053,3.665-1.756,3.604-3.808c-0.047-1.729-1.274-42.496-8.165-58.929c-0.645-1.537-0.847-4.558-1.042-7.479
			c-0.561-8.406-1.419-21.123-14.58-22.883c-1.702-0.242-3.803-0.296-6.107-0.34c-12.75-0.273-21.751-1.686-21.542-17.341
			c0.005-0.093,0.76-9.198,7.43-14.708c4.346-3.606,10.402-4.985,17.938-4.148c3.808,0.422,9.992,3.88,9.072,14.145
			c-0.42,4.651,3.141,9.144,6.85,11.541c3.996,2.577,8.372,2.999,11.705,1.11c4.099-2.326,6.058-7.437,5.813-15.004
			c0.042-2.232,0.846-5.198,1.844-5.68c0.463-0.234,2.22-0.027,5.394,2.408c10.922,8.328,16.29,19.809,14.371,30.693
			c-0.816,4.634-4.286,14.227-6.579,20.568c-1.064,2.974-1.927,5.352-2.249,6.468c-3.189,10.983-1.177,33.741,0.148,48.811
			c0.406,4.597,0.738,8.153,0.738,9.833c0,2.053,1.658,3.711,3.71,3.711c2.047,0,3.704-1.658,3.704-3.711
			c0-1.8-0.333-5.586-0.761-10.483c-1.13-12.723-3.228-36.433-0.415-46.085c0.303-1.046,1.105-3.245,2.101-6.021
			c2.525-6.987,5.976-16.542,6.896-21.8C118.409,34.518,111.984,20.351,98.812,10.299z"/>
	</g>
</g>
<g>
</g>
<g>
</g>
<g>
</g>
<g>
</g>
<g>
</g>
<g>
</g>
<g>
</g>
<g>
</g>
<g>
</g>
<g>
</g>
<g>
</g>
<g>
</g>
<g>
</g>
<g>
</g>
<g>
</g>
</svg>
