<?xml version="1.0" encoding="iso-8859-1"?>
<!-- Generator: Adobe Illustrator 16.0.0, SVG Export Plug-In . SVG Version: 6.00 Build 0)  -->
<!DOCTYPE svg PUBLIC "-//W3C//DTD SVG 1.1//EN" "http://www.w3.org/Graphics/SVG/1.1/DTD/svg11.dtd">
<svg version="1.1" id="Capa_1" xmlns="http://www.w3.org/2000/svg" xmlns:xlink="http://www.w3.org/1999/xlink" x="0px" y="0px"
	 width="159.049px" height="159.049px" viewBox="0 0 159.049 159.049" style="enable-background:new 0 0 159.049 159.049;"
	 xml:space="preserve">
<g>
	<path d="M41.309,91.483c2.962,0,5.355,2.399,5.355,5.359c0,2.965-2.399,5.352-5.355,5.352s-5.355-2.398-5.355-5.352
		C35.954,93.882,38.347,91.483,41.309,91.483z M117.74,38.215c-1.729,0-3.118,1.397-3.118,3.118c0,1.72,1.389,3.117,3.118,3.117
		c19.339,0,35.073,15.731,35.073,35.073c0,19.34-15.734,35.074-35.073,35.074S82.667,98.864,82.667,79.524
		c0-1.717-1.4-3.117-3.118-3.117c-0.012,0-0.012,0-0.024,0c-0.012,0-0.012,0-0.024,0c-1.714,0-3.117,1.4-3.117,3.117
		c0,19.34-15.731,35.074-35.074,35.074S6.235,98.864,6.235,79.524c0-19.342,15.731-35.073,35.074-35.073
		c1.726,0,3.118-1.397,3.118-3.117c0-1.721-1.392-3.118-3.118-3.118C18.539,38.215,0,56.748,0,79.524
		c0,22.773,18.539,41.31,41.309,41.31c17.248,0,32.041-10.626,38.215-25.666c6.175,15.04,20.972,25.666,38.216,25.666
		c22.773,0,41.309-18.536,41.309-41.31C159.049,56.748,140.514,38.215,117.74,38.215z M117.74,102.212
		c2.959,0,5.358-2.405,5.358-5.353c0-2.978-2.399-5.364-5.358-5.364s-5.358,2.411-5.358,5.364
		C112.382,99.807,114.781,102.212,117.74,102.212z"/>
</g>
<g>
</g>
<g>
</g>
<g>
</g>
<g>
</g>
<g>
</g>
<g>
</g>
<g>
</g>
<g>
</g>
<g>
</g>
<g>
</g>
<g>
</g>
<g>
</g>
<g>
</g>
<g>
</g>
<g>
</g>
</svg>
