<?xml version="1.0" encoding="iso-8859-1"?>
<!-- Generator: Adobe Illustrator 16.0.0, SVG Export Plug-In . SVG Version: 6.00 Build 0)  -->
<!DOCTYPE svg PUBLIC "-//W3C//DTD SVG 1.1//EN" "http://www.w3.org/Graphics/SVG/1.1/DTD/svg11.dtd">
<svg version="1.1" id="Capa_1" xmlns="http://www.w3.org/2000/svg" xmlns:xlink="http://www.w3.org/1999/xlink" x="0px" y="0px"
	 width="214.369px" height="214.37px" viewBox="0 0 214.369 214.37" style="enable-background:new 0 0 214.369 214.37;"
	 xml:space="preserve">
<g>
	<g>
		<path d="M58.171,190.872c0,0-40.018-55.26-8.899-142.286c0,0,12.702-56.522,72.415-47.638c0,0,52.087,1.909,55.26,87.657
			l-0.64,92.737c0,0-21.599,5.724-30.501-19.053c0,0-4.445,25.41,2.546,39.372c0,0-12.708-29.222-10.797-51.453
			c0,0-10.79,40.657-3.799,54.632c0,0-10.176-48.269-6.363-66.067c0,0,29.849-18.413,19.059-66.685c0,0-15.887-24.137-26.67-27.946
			c0,0-15.245,17.795-24.786,19.689c0,0,4.445-4.451,7.626-9.52c0,0-19.686,14.602-29.855,17.147c0,0-18.42,43.823,20.329,66.694
			c0,0-6.991,55.904-20.329,65.428c0,0,1.909-10.802,0.642-26.682c0,0-5.717,35.572-17.79,37.473c0,0,10.793-13.336,8.257-40.006
			C63.889,174.345,55.625,183.88,58.171,190.872z"/>
	</g>
</g>
<g>
</g>
<g>
</g>
<g>
</g>
<g>
</g>
<g>
</g>
<g>
</g>
<g>
</g>
<g>
</g>
<g>
</g>
<g>
</g>
<g>
</g>
<g>
</g>
<g>
</g>
<g>
</g>
<g>
</g>
</svg>
