<?xml version="1.0" encoding="iso-8859-1"?>
<!-- Generator: Adobe Illustrator 16.0.0, SVG Export Plug-In . SVG Version: 6.00 Build 0)  -->
<!DOCTYPE svg PUBLIC "-//W3C//DTD SVG 1.1//EN" "http://www.w3.org/Graphics/SVG/1.1/DTD/svg11.dtd">
<svg version="1.1" id="Capa_1" xmlns="http://www.w3.org/2000/svg" xmlns:xlink="http://www.w3.org/1999/xlink" x="0px" y="0px"
	 width="187.059px" height="187.059px" viewBox="0 0 187.059 187.059" style="enable-background:new 0 0 187.059 187.059;"
	 xml:space="preserve">
<g>
	<path d="M131.745,94.979h-7.167v-7.161c0-3.678-2.989-6.67-6.668-6.67h-9.407c-3.678,0-6.665,2.993-6.665,6.67v7.161h-7.164
		c-3.678,0-6.674,2.983-6.674,6.668v9.407c0,3.678,2.987,6.668,6.674,6.668h7.164v7.154c0,3.69,2.987,6.661,6.665,6.661h9.407
		c3.679,0,6.668-2.983,6.668-6.661v-7.154h7.167c3.666,0,6.674-2.99,6.674-6.668v-9.407
		C138.419,97.975,135.423,94.979,131.745,94.979z M133.931,111.054c0,1.206-0.979,2.198-2.197,2.198h-9.414
		c-1.23,0-2.241,1.011-2.241,2.234v9.414c0,1.206-0.98,2.192-2.18,2.192h-9.408c-1.199,0-2.186-0.975-2.186-2.192v-9.414
		c0-1.224-1.005-2.234-2.247-2.234h-9.401c-1.212,0-2.189-0.98-2.189-2.198v-9.401c0-1.206,0.978-2.192,2.189-2.192h9.401
		c1.242,0,2.247-1.005,2.247-2.247v-9.401c0-1.196,0.975-2.201,2.186-2.201h9.408c1.199,0,2.192,0.986,2.192,2.201v9.401
		c0,1.242,0.998,2.247,2.24,2.247h9.414c1.199,0,2.192,0.975,2.192,2.192v9.401H133.931z M152.07,106.354
		c0-13.43-6.868-25.301-17.28-32.279l0.012-8.235c-0.024-9.216-7.526-16.7-16.727-16.7c-0.013,0-0.013,0-0.024,0l-18.913,0.018
		c7.453-4.731,12.422-13.037,12.422-22.496C111.56,11.971,99.601,0,84.892,0c-14.706,0-26.67,11.971-26.67,26.661
		c0,9.484,4.99,17.796,12.464,22.53l-19.004,0.024c-9.216,0-16.699,7.514-16.693,16.736v56.38c0,1.229,1.005,2.241,2.247,2.241
		h19.184v45.754c0,9.225,7.179,16.732,16.009,16.732h24.941c8.827,0,16.005-7.496,16.005-16.732v-25.112
		C134.711,145.104,152.07,127.726,152.07,106.354z M62.7,26.655c0-12.239,9.95-22.192,22.183-22.192
		c12.236,0,22.189,9.953,22.189,22.192c0,12.233-9.953,22.186-22.189,22.186C72.65,48.841,62.7,38.888,62.7,26.655z M97.354,182.553
		H86.886c0.143-0.293,0.238-0.609,0.238-0.956v-40.938c0-1.242-1.005-2.229-2.241-2.229c-1.233,0-2.238,0.986-2.238,2.229v40.938
		c0,0.347,0.101,0.663,0.244,0.956H72.421c-6.354,0-11.523-5.48-11.523-12.227v-47.959c0-0.018,0.006-0.03,0.006-0.049
		c0-0.012-0.006-0.023-0.006-0.049v-38.23c0-1.239-1.005-2.244-2.244-2.244c-1.242,0-2.241,1.004-2.241,2.244v36.026h-16.94V65.921
		c0-3.264,1.267-6.342,3.571-8.656c2.314-2.314,5.383-3.592,8.649-3.592l66.375-0.073h0.012c6.734,0,12.227,5.492,12.239,12.227
		v5.672c-5.164-2.542-10.961-4.019-17.099-4.019c-21.428,0-38.849,17.428-38.849,38.843c0,19.961,15.132,36.443,34.525,38.6v25.355
		C108.887,177.072,103.711,182.553,97.354,182.553z M113.21,140.721c-18.953,0-34.374-15.418-34.374-34.367
		c0-18.953,15.421-34.38,34.374-34.38c18.949,0,34.367,15.427,34.367,34.38C147.577,125.314,132.159,140.721,113.21,140.721z"/>
</g>
<g>
</g>
<g>
</g>
<g>
</g>
<g>
</g>
<g>
</g>
<g>
</g>
<g>
</g>
<g>
</g>
<g>
</g>
<g>
</g>
<g>
</g>
<g>
</g>
<g>
</g>
<g>
</g>
<g>
</g>
</svg>
