<?xml version="1.0" encoding="iso-8859-1"?>
<!-- Generator: Adobe Illustrator 16.0.0, SVG Export Plug-In . SVG Version: 6.00 Build 0)  -->
<!DOCTYPE svg PUBLIC "-//W3C//DTD SVG 1.1//EN" "http://www.w3.org/Graphics/SVG/1.1/DTD/svg11.dtd">
<svg version="1.1" id="Capa_1" xmlns="http://www.w3.org/2000/svg" xmlns:xlink="http://www.w3.org/1999/xlink" x="0px" y="0px"
	 width="166.083px" height="166.083px" viewBox="0 0 166.083 166.083" style="enable-background:new 0 0 166.083 166.083;"
	 xml:space="preserve">
<g>
	<path d="M165.17,51.089c-2.601-11.834-10.431-20.651-22.658-25.502c-6.363-2.526-25.1-5.711-36.06,2.856
		c-1.103-1.517-2.156-3.051-3.478-4.409c-8.067-8.442-18.934-13.088-30.606-13.088c-10.964,0-21.364,4.177-29.289,11.767
		c-8.175,7.818-12.806,18.338-13.049,29.66c-0.219,9.795,3.054,19.068,8.966,26.674L1.371,115.034
		c-1.775,1.698-1.833,4.53-0.137,6.309c0.88,0.913,2.046,1.375,3.218,1.375c1.105,0,2.219-0.401,3.081-1.229l37.634-35.987
		c2.402,2.034,4.972,3.764,7.709,5.225c6.147,6.771,7.943,10.681,8.93,15.09c0.18,0.84,0.697,3.567,0.746,4.457
		c1.689,39.773,15.278,44.098,19.68,44.475c1.022,0.256,2.024,0.39,3.011,0.39c1.945,0,3.781-0.523,5.462-1.546
		c7.313-4.494,9.414-17.562,11.283-29.106c0.646-3.97,1.249-7.722,1.931-9.804c0.311-0.975,0.608-1.729,0.871-2.302
		c0.311,0.597,0.56,1.182,0.639,1.571c0.244,1.674,0.42,3.824,0.615,6.247c0.999,12.337,2.667,32.906,17.379,34.514
		c1.777,0.39,4.438,0.146,7.16-1.498c6.759-4.099,11.71-15.485,14.688-33.819l0.432-2.85c1.018-6.93,2.418-16.44,7.947-22.262
		C161.851,85.659,168.598,66.701,165.17,51.089z M49.247,29.152c6.26-5.992,14.465-9.295,23.121-9.295
		c9.209,0,17.795,3.678,24.177,10.33c6.162,6.442,9.475,14.909,9.273,23.812c-0.188,8.948-3.86,17.278-10.327,23.465
		c-6.247,5.992-14.449,9.279-23.123,9.279c-9.222,0-17.802-3.678-24.174-10.314c-6.168-6.467-9.459-14.928-9.262-23.87
		C39.133,43.639,42.793,35.321,49.247,29.152z M147.183,88.12c-7.49,7.891-9.188,19.461-10.31,27.121l-0.407,2.722
		c-4.324,26.549-11.26,27.968-10.931,28.12c-0.316-0.116-0.657-0.178-0.998-0.201c-7.545-0.652-8.848-16.764-9.627-26.391
		c-0.214-2.655-0.402-4.993-0.664-6.832c-0.378-2.515-3.318-10.053-9.073-10.534c-4.152-0.354-7.525,2.947-9.742,9.827
		c-0.896,2.729-1.51,6.625-2.241,11.144c-1.229,7.685-3.312,20.581-7.148,22.92c-0.243,0.134-0.63,0.414-1.738,0.061
		c-0.481-0.158-0.786-0.183-1.16-0.183c-2.844-0.377-10.477-7.538-11.691-35.986c-0.045-1.121-0.694-4.872-0.95-6.029
		c-0.703-3.117-1.781-5.918-3.322-8.719c1.721,0.207,3.422,0.523,5.194,0.523c10.967,0,21.363-4.178,29.279-11.752
		c8.185-7.834,12.843-18.377,13.074-29.718c0.127-6.296-1.225-12.346-3.703-17.945c6.442-6.192,21.659-4.993,28.193-2.381
		c9.48,3.757,15.277,10.181,17.25,19.117C159.422,66.458,152.973,82.055,147.183,88.12z"/>
</g>
<g>
</g>
<g>
</g>
<g>
</g>
<g>
</g>
<g>
</g>
<g>
</g>
<g>
</g>
<g>
</g>
<g>
</g>
<g>
</g>
<g>
</g>
<g>
</g>
<g>
</g>
<g>
</g>
<g>
</g>
</svg>
