<?xml version="1.0" encoding="iso-8859-1"?>
<!-- Generator: Adobe Illustrator 16.0.0, SVG Export Plug-In . SVG Version: 6.00 Build 0)  -->
<!DOCTYPE svg PUBLIC "-//W3C//DTD SVG 1.1//EN" "http://www.w3.org/Graphics/SVG/1.1/DTD/svg11.dtd">
<svg version="1.1" id="Capa_1" xmlns="http://www.w3.org/2000/svg" xmlns:xlink="http://www.w3.org/1999/xlink" x="0px" y="0px"
	 width="197.337px" height="197.337px" viewBox="0 0 197.337 197.337" style="enable-background:new 0 0 197.337 197.337;"
	 xml:space="preserve">
<g>
	<g>
		<path d="M133.151,176.116c1.571-3.866,3.945-11.637,1.133-18.699c-2.808-7.045-9.889-11.046-13.671-12.781
			c1.571-3.867,3.934-11.648,1.127-18.693c-2.801-7.052-9.877-11.064-13.68-12.788c1.255-3.081,2.963-8.628,2.208-14.337
			c0.925-5.66-0.597-11.234-1.727-14.34c3.846-1.61,11.043-5.383,14.081-12.34c3.051-6.953,0.932-14.809-0.512-18.724
			c3.854-1.599,11.052-5.377,14.103-12.328c3.026-6.96,0.907-14.809-0.523-18.724c3.849-1.604,11.04-5.383,14.097-12.34
			l-4.044-1.771c-2.423,5.568-8.646,8.741-11.837,10.071l-0.073-0.134l-0.121,0.045c-1.219-3.249-3.105-9.959-0.67-15.534
			l-4.031-1.763c-3.045,6.951-0.92,14.803,0.523,18.718c-3.86,1.596-11.052,5.374-14.09,12.34
			c-3.045,6.957-0.938,14.809,0.511,18.725c-3.86,1.595-11.055,5.367-14.09,12.333c-3.045,6.966-0.923,14.809,0.512,18.725
			c-0.975,0.405-2.165,0.98-3.45,1.684c-1.26-0.743-2.433-1.361-3.392-1.79c1.577-3.864,3.946-11.64,1.135-18.688
			c-2.801-7.057-9.882-11.067-13.676-12.793c1.574-3.873,3.949-11.648,1.142-18.699C81.32,24.433,74.248,20.429,70.451,18.7
			c1.571-3.858,3.952-11.633,1.142-18.7l-4.104,1.635c2.25,5.636,0.143,12.303-1.166,15.506l-0.137-0.042l-0.076,0.131
			c-3.172-1.434-9.252-4.813-11.508-10.455l-4.098,1.644c2.801,7.055,9.883,11.055,13.676,12.79
			c-1.571,3.867-3.942,11.649-1.129,18.7c2.813,7.045,9.889,11.061,13.679,12.781c-1.571,3.866-3.946,11.648-1.135,18.693
			C78.4,78.435,85.473,82.45,89.27,84.17c-1.248,3.075-2.95,8.619-2.207,14.319c-0.923,5.66,0.584,11.25,1.726,14.355
			c-3.848,1.602-11.042,5.383-14.084,12.343c-3.044,6.967-0.922,14.815,0.511,18.725c-3.854,1.596-11.049,5.383-14.093,12.336
			c-3.036,6.967-0.91,14.81,0.524,18.725c-3.846,1.596-11.049,5.364-14.097,12.337l4.04,1.766
			c2.424-5.571,8.641-8.738,11.847-10.065l0.061,0.134l0.131-0.036c1.206,3.245,3.087,9.962,0.661,15.515l4.028,1.772
			c3.044-6.96,0.926-14.809-0.515-18.725c3.852-1.596,11.049-5.383,14.09-12.336c3.042-6.961,0.923-14.81-0.511-18.719
			c3.854-1.596,11.049-5.377,14.093-12.336c3.042-6.954,0.917-14.803-0.533-18.719c0.98-0.401,2.17-0.975,3.456-1.681
			c1.267,0.743,2.438,1.358,3.404,1.79c-1.577,3.861-3.946,11.637-1.132,18.694c2.804,7.051,9.879,11.063,13.679,12.8
			c-1.57,3.859-3.945,11.642-1.145,18.693c2.825,7.051,9.889,11.052,13.683,12.781c-1.571,3.866-3.934,11.648-1.133,18.699
			l4.098-1.644c-2.246-5.627-0.14-12.294,1.176-15.503l0.128,0.042l0.066-0.128c3.179,1.432,9.262,4.811,11.521,10.455l4.104-1.638
			C144.026,181.858,136.969,177.846,133.151,176.116z M98.474,108.655c-2.509-1.803-5.008-4.244-6.281-7.417
			c-0.347-0.877-0.56-1.778-0.722-2.688c0.186-0.91,0.43-1.796,0.816-2.655c1.373-3.145,3.952-5.507,6.515-7.222
			c2.506,1.803,5.015,4.248,6.278,7.414c0.356,0.88,0.563,1.778,0.73,2.694c-0.191,0.904-0.435,1.8-0.828,2.664
			C103.622,104.575,101.034,106.938,98.474,108.655z M119.427,33.764c2.441-5.559,8.634-8.735,11.849-10.062l0.062,0.131
			l0.134-0.037c1.206,3.255,3.081,9.975,0.657,15.531c-2.441,5.55-8.641,8.729-11.85,10.059l-0.061-0.131l-0.146,0.043
			C118.866,46.055,116.99,39.36,119.427,33.764z M105.848,64.825c2.438-5.551,8.646-8.738,11.837-10.065l0.073,0.131l0.146-0.043
			c1.199,3.243,3.093,9.95,0.646,15.524c-2.436,5.568-8.635,8.744-11.835,10.071l-0.061-0.131l-0.158,0.043
			C105.3,77.106,103.418,70.409,105.848,64.825z M104.133,85.817l0.064,0.131l0.143-0.043c0.244,0.661,0.511,1.471,0.767,2.375
			c-0.682-0.715-1.428-1.346-2.146-1.945L104.133,85.817z M92.519,88.055c0.292-0.889,0.584-1.69,0.853-2.338l0.131,0.052
			l0.07-0.131l1.16,0.548C93.977,86.771,93.216,87.37,92.519,88.055z M67.096,38.261c-2.25-5.635-0.149-12.297,1.16-15.5
			l0.131,0.043l0.07-0.125c3.172,1.428,9.259,4.808,11.521,10.452c2.247,5.629,0.137,12.282-1.172,15.494l-0.131-0.052l-0.067,0.134
			C75.438,47.276,69.34,43.891,67.096,38.261z M79.655,69.742c-2.259-5.636-0.155-12.288,1.154-15.506l0.137,0.042l0.073-0.131
			c3.157,1.422,9.252,4.795,11.505,10.464c2.25,5.629,0.149,12.282-1.166,15.5l-0.131-0.042l-0.07,0.131
			C88.003,78.772,81.899,75.387,79.655,69.742z M77.84,163.548c-2.433,5.561-8.631,8.751-11.834,10.066l-0.063-0.129l-0.131,0.037
			c-1.197-3.246-3.094-9.98-0.661-15.533c2.433-5.56,8.632-8.732,11.847-10.06l0.058,0.116l0.144-0.043
			C78.389,151.267,80.27,157.989,77.84,163.548z M91.413,132.493c-2.43,5.561-8.634,8.744-11.834,10.066l-0.073-0.122l-0.137,0.036
			c-1.206-3.245-3.087-9.949-0.648-15.533c2.436-5.56,8.641-8.744,11.834-10.078l0.067,0.135l0.137-0.049
			C91.97,120.212,93.858,126.91,91.413,132.493z M93.136,111.517l-0.07-0.134l-0.131,0.036c-0.244-0.646-0.512-1.449-0.761-2.35
			c0.679,0.712,1.416,1.327,2.125,1.948L93.136,111.517z M104.758,109.264c-0.292,0.889-0.588,1.692-0.856,2.338l-0.125-0.048
			l-0.073,0.133l-1.172-0.547C103.305,110.555,104.061,109.958,104.758,109.264z M104.758,132.713
			c-2.25-5.632-0.155-12.294,1.172-15.497l0.131,0.037l0.063-0.128c3.167,1.431,9.253,4.816,11.512,10.455
			c2.247,5.632,0.152,12.288-1.163,15.503l-0.128-0.043l-0.072,0.128C113.105,141.749,107.008,138.376,104.758,132.713z
			 M117.295,164.194c-2.24-5.633-0.146-12.282,1.176-15.497l0.128,0.048l0.072-0.133c3.173,1.431,9.256,4.816,11.515,10.448
			c2.247,5.639,0.141,12.3-1.163,15.503l-0.14-0.049l-0.067,0.135C125.649,173.218,119.554,169.833,117.295,164.194z"/>
	</g>
</g>
<g>
</g>
<g>
</g>
<g>
</g>
<g>
</g>
<g>
</g>
<g>
</g>
<g>
</g>
<g>
</g>
<g>
</g>
<g>
</g>
<g>
</g>
<g>
</g>
<g>
</g>
<g>
</g>
<g>
</g>
</svg>
