<?xml version="1.0" encoding="iso-8859-1"?>
<!-- Generator: Adobe Illustrator 16.0.0, SVG Export Plug-In . SVG Version: 6.00 Build 0)  -->
<!DOCTYPE svg PUBLIC "-//W3C//DTD SVG 1.1//EN" "http://www.w3.org/Graphics/SVG/1.1/DTD/svg11.dtd">
<svg version="1.1" id="Capa_1" xmlns="http://www.w3.org/2000/svg" xmlns:xlink="http://www.w3.org/1999/xlink" x="0px" y="0px"
	 width="167.305px" height="167.305px" viewBox="0 0 167.305 167.305" style="enable-background:new 0 0 167.305 167.305;"
	 xml:space="preserve">
<g>
	<path d="M143.896,83.652c0-18.015-27.906-32.15-45.413-39.263c17.507-7.127,45.413-21.264,45.413-39.269
		c0-2.832-2.302-5.121-5.127-5.121c-2.838,0-5.121,2.289-5.121,5.121c0,4.762-4.5,9.925-11.216,14.888H44.797
		c-6.591-4.832-11.143-9.989-11.143-14.888C33.654,2.289,31.368,0,28.536,0c-2.831,0-5.127,2.289-5.127,5.121
		c0,18.005,27.897,32.142,45.395,39.269c-17.497,7.112-45.395,21.248-45.395,39.263c0,18.012,27.897,32.15,45.395,39.263
		c-17.497,7.124-45.395,21.264-45.395,39.27c0,2.831,2.296,5.12,5.127,5.12c2.832,0,5.118-2.289,5.118-5.12
		c0-3.94,3.105-8.172,7.968-12.325h84.134c4.786,4.062,7.892,8.275,7.892,12.325c0,2.831,2.289,5.12,5.115,5.12
		c2.837,0,5.127-2.289,5.127-5.12c0-18.006-27.9-32.146-45.401-39.27C115.989,115.803,143.896,101.664,143.896,83.652z
		 M124.623,96.836H42.614c-3.696-2.99-6.497-6.047-7.9-9.079h97.874C131.169,90.752,128.355,93.815,124.623,96.836z M112.231,105.05
		c-9.006,5.036-19.473,9.469-28.582,12.482c-7.843-2.618-18.831-7.13-28.506-12.482H112.231z M45.178,68.545h77.034
		c4.92,3.56,8.671,7.313,10.388,11.003H34.72C36.428,75.935,40.203,72.181,45.178,68.545z M108.566,60.346H58.62
		c8.132-4.235,17.092-7.925,25.023-10.559C90.533,52.089,99.841,55.831,108.566,60.346z M109.102,28.202
		c-8.244,4.32-17.378,8.12-25.458,10.781c-6.991-2.332-16.493-6.181-25.334-10.781H109.102z M53.569,141.658
		c9.323-5.383,20.454-10.157,30.075-13.348c8.263,2.752,20.003,7.605,30.031,13.348H53.569z"/>
</g>
<g>
</g>
<g>
</g>
<g>
</g>
<g>
</g>
<g>
</g>
<g>
</g>
<g>
</g>
<g>
</g>
<g>
</g>
<g>
</g>
<g>
</g>
<g>
</g>
<g>
</g>
<g>
</g>
<g>
</g>
</svg>
