<?xml version="1.0" encoding="iso-8859-1"?>
<!-- Generator: Adobe Illustrator 16.0.0, SVG Export Plug-In . SVG Version: 6.00 Build 0)  -->
<!DOCTYPE svg PUBLIC "-//W3C//DTD SVG 1.1//EN" "http://www.w3.org/Graphics/SVG/1.1/DTD/svg11.dtd">
<svg version="1.1" id="Capa_1" xmlns="http://www.w3.org/2000/svg" xmlns:xlink="http://www.w3.org/1999/xlink" x="0px" y="0px"
	 width="132.61px" height="132.611px" viewBox="0 0 132.61 132.611" style="enable-background:new 0 0 132.61 132.611;"
	 xml:space="preserve">
<g>
	<path d="M121.553,27.837c-0.975-2.201-2.74-3.866-4.975-4.725L57.86,0.558c-4.491-1.72-9.864,0.685-11.585,5.157L10.876,97.854
		c-0.859,2.24-0.798,4.688,0.176,6.88c0.971,2.199,2.737,3.867,4.975,4.726l58.717,22.555c1.029,0.39,2.113,0.597,3.209,0.597
		c3.685,0,7.052-2.309,8.379-5.754l35.408-92.142C122.588,32.465,122.539,30.027,121.553,27.837z M115.908,32.465l-35.396,92.144
		c-0.529,1.383-2.149,2.107-3.531,1.571l-58.709-22.554c-0.679-0.256-1.215-0.768-1.513-1.425c-0.295-0.664-0.313-1.419-0.052-2.095
		L52.106,7.959c0.405-1.071,1.416-1.754,2.554-1.754c0.332,0,0.661,0.064,0.975,0.183l58.708,22.545
		c0.683,0.262,1.219,0.773,1.517,1.428C116.151,31.041,116.17,31.784,115.908,32.465z M82.149,33.723l-25.866,67.365
		c-0.475,1.224-1.659,1.99-2.914,1.99c-0.372,0-0.746-0.072-1.121-0.2c-1.61-0.628-2.408-2.43-1.79-4.031l25.87-67.355
		c0.614-1.601,2.411-2.393,4.024-1.79C81.979,30.319,82.777,32.133,82.149,33.723z M101.727,49.244
		c-1.662,4.041-6.284,5.992-10.327,4.351c-4.056-1.65-6.004-6.272-4.36-10.318c1.645-4.046,6.272-6.007,10.327-4.36
		C101.397,40.558,103.353,45.17,101.727,49.244z M51.53,29.634c1.653-4.055,6.275-6.004,10.334-4.36
		c4.046,1.659,5.994,6.272,4.351,10.327c-1.645,4.04-6.272,5.998-10.318,4.345C51.85,38.305,49.893,33.692,51.53,29.634z
		 M91.399,76.079c-1.662,4.05-6.271,6.011-10.327,4.36s-6.004-6.278-4.366-10.315c1.662-4.059,6.278-6.016,10.333-4.363
		C91.095,67.411,93.037,72.036,91.399,76.079z M45.582,66.808c-4.046-1.653-6.004-6.271-4.363-10.321
		c1.653-4.052,6.271-6.004,10.324-4.356c4.055,1.659,6.007,6.271,4.359,10.318C54.255,66.503,49.631,68.452,45.582,66.808z
		 M81.084,102.945c-1.649,4.043-6.271,5.997-10.327,4.354c-4.049-1.662-6.001-6.278-4.359-10.321c1.65-4.05,6.277-6.004,10.327-4.36
		C80.768,94.25,82.723,98.895,81.084,102.945z M45.587,89.298c-1.644,4.049-6.272,6.004-10.318,4.359
		c-4.046-1.649-6.004-6.271-4.366-10.314c1.653-4.049,6.275-6.004,10.327-4.354C45.283,80.633,47.229,85.255,45.587,89.298z"/>
</g>
<g>
</g>
<g>
</g>
<g>
</g>
<g>
</g>
<g>
</g>
<g>
</g>
<g>
</g>
<g>
</g>
<g>
</g>
<g>
</g>
<g>
</g>
<g>
</g>
<g>
</g>
<g>
</g>
<g>
</g>
</svg>
