<?xml version="1.0" encoding="iso-8859-1"?>
<!-- Generator: Adobe Illustrator 16.0.0, SVG Export Plug-In . SVG Version: 6.00 Build 0)  -->
<!DOCTYPE svg PUBLIC "-//W3C//DTD SVG 1.1//EN" "http://www.w3.org/Graphics/SVG/1.1/DTD/svg11.dtd">
<svg version="1.1" id="Capa_1" xmlns="http://www.w3.org/2000/svg" xmlns:xlink="http://www.w3.org/1999/xlink" x="0px" y="0px"
	 width="166.02px" height="166.02px" viewBox="0 0 166.02 166.02" style="enable-background:new 0 0 166.02 166.02;"
	 xml:space="preserve">
<g>
	<path d="M162.982,91.995L126.934,79.78c-1.687-33.527-29.483-60.283-63.427-60.283c-8.443,0-16.48,1.69-23.833,4.676h-0.012
		c-0.006,0-0.006,0.013-0.019,0.013C16.422,33.645,0,56.434,0,83.006c0,9.098,1.958,17.732,5.419,25.568
		c0.012,0.013,0.012,0.037,0.012,0.049c0,0.013,0.013,0.013,0.024,0.025c9.865,22.273,32.163,37.874,58.063,37.874
		c20.228,0,39.04-9.529,51.024-25.685l33.259,12.051c2.283,0.84,4.865-0.347,5.699-2.673c0.84-2.308-0.359-4.865-2.673-5.693
		l-36.475-13.214c-1.948-0.719-4.092,0-5.236,1.724c-0.207,0.335-0.487,0.614-0.706,0.943c-3.35-6.68-7.198-16.849-6.004-22.213
		c0.523-2.399-0.987-4.786-3.386-5.322c-2.424-0.523-4.786,0.987-5.322,3.386c-2.515,11.362,7.148,29.021,8.27,31.006
		c0.104,0.158,0.279,0.244,0.383,0.39c-9.173,9.341-21.382,15.077-34.574,16.112c-0.6-2.838-3.41-19.376,12.674-24.467
		c2.351-0.742,3.647-3.251,2.914-5.59c-0.743-2.35-3.249-3.616-5.587-2.91c-5.599,1.766-9.584,4.652-12.535,8.025
		c-3.385-4.025-8.735-7.538-16.06-5.895c-2.402,0.536-3.924,2.911-3.386,5.322c0.53,2.399,2.917,3.922,5.325,3.386
		c5.273-1.169,8.181,3.714,9.097,5.59c-2.11,5.857-2.153,11.923-1.428,16.55c-19.092-1.644-35.393-13.152-43.778-29.41
		c10.656-7.404,19.963-19.534,25.894-33.956c5.91-14.453,7.526-29.654,4.981-42.6c5.55-1.9,11.454-2.978,17.634-2.978
		c18.812,0,35.436,9.563,45.239,24.067c-3.312,1.267-13.152,5.362-21.793,12.115c-2.04-1.358-3.623-2.905-4.329-4.938
		c-1.946-5.587,1.44-12.288,1.546-12.471c1.142-2.177,0.32-4.862-1.851-6.016c-2.171-1.166-4.871-0.338-6.037,1.845
		c-0.21,0.398-5.298,10.169-2.113,19.491c1.16,3.331,3.23,6.086,6.043,8.354c-4.484,5.078-7.139,10.47-7.757,16.09
		c-0.268,2.455,1.477,4.652,3.934,4.921c0.17,0.024,0.344,0.024,0.499,0.024c2.232,0,4.177-1.688,4.421-3.958
		c0.548-4.921,3.541-9.819,8.894-14.544c9.398-8.27,22.539-12.888,22.685-12.934c0.092-0.024,0.146-0.098,0.231-0.137
		c3.179,6.929,4.993,14.592,4.993,22.682c0,1.912,1.218,3.605,3.032,4.227l38.995,13.213c2.326,0.768,4.847-0.451,5.639-2.789
		C166.556,95.325,165.321,92.786,162.982,91.995z M32.641,70.606C27.66,82.763,20.097,93,11.478,99.514
		C9.81,94.315,8.912,88.767,8.912,83.019c0-20.685,11.566-38.73,28.576-47.977C39.177,45.86,37.631,58.456,32.641,70.606z"/>
</g>
<g>
</g>
<g>
</g>
<g>
</g>
<g>
</g>
<g>
</g>
<g>
</g>
<g>
</g>
<g>
</g>
<g>
</g>
<g>
</g>
<g>
</g>
<g>
</g>
<g>
</g>
<g>
</g>
<g>
</g>
</svg>
