<?xml version="1.0" encoding="iso-8859-1"?>
<!-- Generator: Adobe Illustrator 16.0.0, SVG Export Plug-In . SVG Version: 6.00 Build 0)  -->
<!DOCTYPE svg PUBLIC "-//W3C//DTD SVG 1.1//EN" "http://www.w3.org/Graphics/SVG/1.1/DTD/svg11.dtd">
<svg version="1.1" id="Capa_1" xmlns="http://www.w3.org/2000/svg" xmlns:xlink="http://www.w3.org/1999/xlink" x="0px" y="0px"
	 width="193.67px" height="193.67px" viewBox="0 0 193.67 193.67" style="enable-background:new 0 0 193.67 193.67;"
	 xml:space="preserve">
<g>
	<path d="M184.638,114.763c0.938,1.006,0.907,2.582-0.109,3.52c-0.481,0.457-1.09,0.677-1.705,0.677
		c-0.657,0-1.321-0.269-1.814-0.786l-4.519-4.779c-0.055,0.061-0.121,0.104-0.17,0.158l2.6,3.123
		c0.883,1.061,0.737,2.631-0.329,3.508c-0.45,0.39-1.017,0.578-1.589,0.578c-0.706,0-1.431-0.311-1.924-0.907l-2.558-3.062
		c-0.213,0.146-0.427,0.292-0.64,0.433l1.632,2.052c0.865,1.077,0.683,2.648-0.39,3.501c-0.456,0.359-1.005,0.549-1.559,0.549
		c-0.725,0-1.455-0.323-1.948-0.938l-2.132-2.685c-4.585,2.033-9.48,2.807-14.193,2.807c-13.226,0-25.124-5.889-25.331-5.986
		c-1.23-0.627-1.717-2.131-1.108-3.349c0.621-1.229,2.089-1.711,3.355-1.114c0.292,0.146,30.598,15.107,45.133-5.054
		c0.81-1.114,2.362-1.364,3.489-0.561c0.962,0.688,1.235,1.937,0.785,2.99L184.638,114.763z M156.152,96.197
		c0.457-0.104,11.473-2.165,14.706,7.161c0.365,1.029,1.321,1.687,2.356,1.687c0.268,0,0.548-0.049,0.815-0.134
		c1.304-0.451,1.991-1.869,1.541-3.173c-3.751-10.79-15.016-11.557-20.411-10.421c-1.346,0.274-2.21,1.589-1.948,2.935
		C153.479,95.576,154.771,96.44,156.152,96.197z M192.81,78.271c-25.647-22.21-63.37,9.167-64.959,10.513
		c-1.054,0.892-1.182,2.469-0.305,3.51c0.493,0.588,1.199,0.893,1.912,0.893c0.578,0,1.145-0.195,1.613-0.594
		c0.365-0.305,36.023-29.992,58.48-10.543c1.035,0.904,2.618,0.786,3.514-0.256C193.96,80.752,193.851,79.175,192.81,78.271z
		 M63.448,112.065c-0.304,0.152-30.583,15.15-45.145-5.054c-0.804-1.114-2.356-1.364-3.483-0.56
		c-0.962,0.688-1.236,1.941-0.785,2.989l-5.015,5.315c-0.941,1.005-0.904,2.582,0.106,3.52c0.481,0.451,1.096,0.676,1.708,0.676
		c0.661,0,1.321-0.268,1.814-0.785l4.509-4.779c0.055,0.055,0.119,0.104,0.173,0.158l-2.606,3.117
		c-0.886,1.06-0.743,2.631,0.311,3.508c0.469,0.389,1.035,0.584,1.604,0.584c0.709,0,1.422-0.305,1.912-0.901l2.588-3.087
		c0.213,0.141,0.426,0.292,0.642,0.438l-1.632,2.04c-0.861,1.084-0.682,2.654,0.387,3.507c0.46,0.366,1.008,0.548,1.559,0.548
		c0.728,0,1.453-0.328,1.946-0.938l2.137-2.673c4.588,2.034,9.478,2.801,14.191,2.801c13.226,0,25.124-5.888,25.328-5.985
		c1.23-0.64,1.723-2.131,1.105-3.355C66.173,111.944,64.663,111.476,63.448,112.065z M18.1,101.738
		c-0.451,1.304,0.237,2.729,1.541,3.173c0.268,0.098,0.548,0.134,0.816,0.134c1.035,0,1.994-0.651,2.356-1.687
		c3.23-9.332,14.242-7.271,14.702-7.161c1.367,0.243,2.67-0.621,2.938-1.951c0.274-1.346-0.6-2.661-1.945-2.938
		C33.106,90.188,21.841,90.942,18.1,101.738z M62.608,92.593c0.466,0.393,1.032,0.594,1.608,0.594c0.703,0,1.416-0.305,1.909-0.893
		c0.889-1.053,0.752-2.624-0.301-3.51c-1.589-1.346-39.318-32.711-64.959-10.513c-1.042,0.904-1.16,2.475-0.256,3.516
		c0.904,1.042,2.481,1.16,3.517,0.256C26.548,62.606,62.246,92.294,62.608,92.593z"/>
</g>
<g>
</g>
<g>
</g>
<g>
</g>
<g>
</g>
<g>
</g>
<g>
</g>
<g>
</g>
<g>
</g>
<g>
</g>
<g>
</g>
<g>
</g>
<g>
</g>
<g>
</g>
<g>
</g>
<g>
</g>
</svg>
