<?xml version="1.0" encoding="iso-8859-1"?>
<!-- Generator: Adobe Illustrator 16.0.0, SVG Export Plug-In . SVG Version: 6.00 Build 0)  -->
<!DOCTYPE svg PUBLIC "-//W3C//DTD SVG 1.1//EN" "http://www.w3.org/Graphics/SVG/1.1/DTD/svg11.dtd">
<svg version="1.1" id="Capa_1" xmlns="http://www.w3.org/2000/svg" xmlns:xlink="http://www.w3.org/1999/xlink" x="0px" y="0px"
	 width="138.211px" height="138.211px" viewBox="0 0 138.211 138.211" style="enable-background:new 0 0 138.211 138.211;"
	 xml:space="preserve">
<g>
	<g>
		<path d="M109.757,40.654C109.757,18.237,91.514,0,69.103,0C46.691,0,28.454,18.237,28.454,40.654
			c0,20.907,15.938,37.969,36.258,40.192c-0.298,0.639-0.493,1.32-0.493,2.063v20.351H47.958c-2.701,0-4.88,2.186-4.88,4.871
			c0,2.691,2.18,4.877,4.88,4.877h16.261v20.326c0,2.697,2.183,4.877,4.877,4.877s4.875-2.18,4.875-4.877v-20.326h16.258
			c2.697,0,4.865-2.186,4.865-4.877c0-2.686-2.18-4.871-4.865-4.871H73.971V82.91c0-0.743-0.192-1.425-0.49-2.063
			C93.815,78.624,109.757,61.549,109.757,40.654z M69.108,71.536c-17.035,0-30.891-13.853-30.891-30.881
			c0-17.035,13.856-30.896,30.891-30.896c17.028,0,30.894,13.862,30.894,30.896C100.002,57.683,86.137,71.536,69.108,71.536z"/>
	</g>
</g>
<g>
</g>
<g>
</g>
<g>
</g>
<g>
</g>
<g>
</g>
<g>
</g>
<g>
</g>
<g>
</g>
<g>
</g>
<g>
</g>
<g>
</g>
<g>
</g>
<g>
</g>
<g>
</g>
<g>
</g>
</svg>
