<?xml version="1.0" encoding="iso-8859-1"?>
<!-- Generator: Adobe Illustrator 16.0.0, SVG Export Plug-In . SVG Version: 6.00 Build 0)  -->
<!DOCTYPE svg PUBLIC "-//W3C//DTD SVG 1.1//EN" "http://www.w3.org/Graphics/SVG/1.1/DTD/svg11.dtd">
<svg version="1.1" id="Capa_1" xmlns="http://www.w3.org/2000/svg" xmlns:xlink="http://www.w3.org/1999/xlink" x="0px" y="0px"
	 width="125px" height="124.999px" viewBox="0 0 125 124.999" style="enable-background:new 0 0 125 124.999;" xml:space="preserve"
	>
<g>
	<g>
		<path d="M112.11,26.067c-6.477-2.919-13.729-3.144-20.399-0.611c-4.726,1.787-8.704,4.857-11.688,8.78
			c-2.904-6.807-9.659-11.595-17.515-11.595c-7.857,0-14.608,4.788-17.518,11.595c-2.981-3.923-6.959-6.993-11.687-8.78
			c-6.663-2.533-13.914-2.309-20.397,0.611C1.897,31.024-3.022,44.004,1.924,55.002c3.014,6.684,9.619,10.648,16.506,10.648
			c2.472,0,4.993-0.501,7.381-1.587c0.525-0.24,0.894-0.64,1.181-1.099c2.498-1.743,4.14-4.629,4.14-7.902
			c0-5.321-4.319-9.642-9.646-9.642c-5.33,0-9.64,4.321-9.64,9.642c0,1.218,0.252,2.37,0.663,3.443
			c-2.337-1.257-4.321-3.213-5.486-5.812c-3.677-8.186-0.017-17.841,8.164-21.527c5.122-2.309,10.86-2.484,16.104-0.49
			c5.262,1.995,9.434,5.918,11.738,11.045l0.506,0.706c0.268,6.635,3.926,12.361,9.311,15.555v41.573
			c0,1.555,1.256,2.802,2.801,2.802c1.542,0,2.802-1.247,2.802-2.802V60.248c1.3,0.285,2.658,0.451,4.046,0.451
			c1.391,0,2.733-0.167,4.046-0.451v39.308c0,1.555,1.262,2.802,2.805,2.802c1.544,0,2.802-1.247,2.802-2.802V57.983
			c5.387-3.194,9.042-8.92,9.309-15.555l0.509-0.706c2.298-5.127,6.462-9.045,11.733-11.045c5.253-1.989,10.977-1.814,16.104,0.49
			c8.179,3.686,11.845,13.341,8.162,21.527c-1.346,2.999-3.76,5.171-6.575,6.348c0.556-1.215,0.873-2.561,0.873-3.979
			c0-5.321-4.317-9.642-9.642-9.642c-5.323,0-9.642,4.321-9.642,9.642c0,4.085,2.55,7.558,6.145,8.958l0.056,0.043
			c2.401,1.073,4.908,1.587,7.378,1.587c6.887,0,13.498-3.964,16.507-10.648C128.028,44.004,123.109,31.019,112.11,26.067z
			 M62.508,55.109c-7.407,0-13.432-6.025-13.432-13.431c0-7.409,6.025-13.434,13.432-13.434s13.434,6.024,13.434,13.434
			C75.942,49.084,69.916,55.109,62.508,55.109z"/>
	</g>
</g>
<g>
</g>
<g>
</g>
<g>
</g>
<g>
</g>
<g>
</g>
<g>
</g>
<g>
</g>
<g>
</g>
<g>
</g>
<g>
</g>
<g>
</g>
<g>
</g>
<g>
</g>
<g>
</g>
<g>
</g>
</svg>
