<?xml version="1.0" encoding="iso-8859-1"?>
<!-- Generator: Adobe Illustrator 16.0.0, SVG Export Plug-In . SVG Version: 6.00 Build 0)  -->
<!DOCTYPE svg PUBLIC "-//W3C//DTD SVG 1.1//EN" "http://www.w3.org/Graphics/SVG/1.1/DTD/svg11.dtd">
<svg version="1.1" id="Capa_1" xmlns="http://www.w3.org/2000/svg" xmlns:xlink="http://www.w3.org/1999/xlink" x="0px" y="0px"
	 width="153.544px" height="153.544px" viewBox="0 0 153.544 153.544" style="enable-background:new 0 0 153.544 153.544;"
	 xml:space="preserve">
<g>
	<g>
		<path d="M90.703,5.297c0,0-46.454-24.712-71.156,32.615c0,0-26.028,71.489,24.049,115.632c0,0-16.144-21.745-12.518-32.613
			c0,0,4.947,10.211,13.507,13.5c0,0-22.066-23.06-10.87-51.388c0,0,9.885-21.741,10.212-26.033c0,0,9.55,14.169,39.864,19.445
			c0,0,16.146,2.638,24.71,15.813c0,0-3.292-17.139-27.016-27.666c0,0,25.04-1.324,34.261,28.651c0,0-5.938,38.878,4.602,49.74
			l13.852,7.912c0,0-15.497-8.241-1.988-45.801c0,0,18.785-47.754,0.657-72.14C132.874,32.966,115.747,3.319,90.703,5.297z"/>
	</g>
</g>
<g>
</g>
<g>
</g>
<g>
</g>
<g>
</g>
<g>
</g>
<g>
</g>
<g>
</g>
<g>
</g>
<g>
</g>
<g>
</g>
<g>
</g>
<g>
</g>
<g>
</g>
<g>
</g>
<g>
</g>
</svg>
