<?xml version="1.0" encoding="iso-8859-1"?>
<!-- Generator: Adobe Illustrator 16.0.0, SVG Export Plug-In . SVG Version: 6.00 Build 0)  -->
<!DOCTYPE svg PUBLIC "-//W3C//DTD SVG 1.1//EN" "http://www.w3.org/Graphics/SVG/1.1/DTD/svg11.dtd">
<svg version="1.1" id="Capa_1" xmlns="http://www.w3.org/2000/svg" xmlns:xlink="http://www.w3.org/1999/xlink" x="0px" y="0px"
	 width="171.92px" height="171.92px" viewBox="0 0 171.92 171.92" style="enable-background:new 0 0 171.92 171.92;"
	 xml:space="preserve">
<g>
	<path d="M145.012,20.741c-11.697-8.799-26.013-10.026-42.563-3.723c-5.596-3.13-26.905-13.591-50.506-6.099
		C32.003,17.255,16.041,34.633,4.511,62.568c-8.847,21.394-4.627,55.648,12.197,99.076c0.375,0.975,1.215,1.693,2.231,1.931
		c1.035,0.231,2.089-0.085,2.838-0.81c1.017-0.98,24.341-23.974,25.571-58c15.688-3.964,35.795-13.633,54.06-36.075
		c0.779,10.852,4.865,28.58,22.213,39.546c17.385,10.973,24.144,17.623,31.755,49.152c0.329,1.34,1.498,2.313,2.887,2.375
		c0.085,0,0.164,0.012,0.243,0c1.285-0.037,2.43-0.865,2.85-2.107c0.256-0.755,6.29-18.742,10.084-55.654
		C173.887,78.335,167.292,37.501,145.012,20.741z M165.241,101.349c-2.04,19.845-4.774,34.222-6.832,43.172
		c-6.766-22.73-14.505-30.859-31.451-41.57c-21.159-13.365-19.601-39.448-19.333-42.566c2.856-4.101,5.663-8.443,8.366-13.292
		c0.847-1.51,0.293-3.404-1.205-4.241c-1.504-0.816-3.397-0.299-4.244,1.212C89.485,81.91,63.229,95.029,44.583,99.333
		c-0.079-0.006-0.149-0.049-0.234-0.049c-0.582,0.025-1.075,0.201-1.516,0.433c-12.34,2.558-20.974,1.291-21.835,1.146
		c-1.672-0.287-3.307,0.87-3.587,2.562c-0.28,1.699,0.855,3.307,2.558,3.587c0.137,0.013,3.635,0.561,9.401,0.365
		c3.212-0.109,7.146-0.462,11.573-1.224c-1.407,23.248-14.072,41.181-20.231,48.506C5.981,115.032,2.358,84.081,10.265,64.949
		c10.787-26.113,25.428-42.292,43.498-48.062c24.162-7.718,46.524,6.086,46.749,6.235c0.859,0.536,1.912,0.63,2.832,0.256
		c15.027-6.077,27.778-5.267,37.917,2.35C161.386,40.857,167.469,79.803,165.241,101.349z"/>
</g>
<g>
</g>
<g>
</g>
<g>
</g>
<g>
</g>
<g>
</g>
<g>
</g>
<g>
</g>
<g>
</g>
<g>
</g>
<g>
</g>
<g>
</g>
<g>
</g>
<g>
</g>
<g>
</g>
<g>
</g>
</svg>
