<?xml version="1.0" encoding="iso-8859-1"?>
<!-- Generator: Adobe Illustrator 16.0.0, SVG Export Plug-In . SVG Version: 6.00 Build 0)  -->
<!DOCTYPE svg PUBLIC "-//W3C//DTD SVG 1.1//EN" "http://www.w3.org/Graphics/SVG/1.1/DTD/svg11.dtd">
<svg version="1.1" id="Capa_1" xmlns="http://www.w3.org/2000/svg" xmlns:xlink="http://www.w3.org/1999/xlink" x="0px" y="0px"
	 width="143.411px" height="143.411px" viewBox="0 0 143.411 143.411" style="enable-background:new 0 0 143.411 143.411;"
	 xml:space="preserve">
<g>
	<g>
		<path d="M118.365,50.841l-1.534-2.393c-6.802-10.507-15.271-23.568,1.857-43.285c1.126-1.303,0.986-3.267-0.311-4.402
			c-1.303-1.13-3.258-0.98-4.402,0.311c-20.198,23.258-9.043,40.48-2.381,50.769l1.474,2.319
			c28.826,45.934,13.603,76.452,9.59,83.017H74.789v-27.413l-0.059-0.292l1.035-0.305l16.088-6.93
			c1.577-0.676,2.308-2.509,1.626-4.092c-0.683-1.583-2.527-2.32-4.099-1.632l-16.09,6.93c-0.779,0.341-2.445,0.341-3.237,0
			l-16.087-6.93c-1.571-0.694-3.422,0.036-4.095,1.632c-0.679,1.583,0.048,3.416,1.625,4.092l16.087,6.93l1.035,0.305l-0.055,0.292
			v27.413H21.064c-14.666-46.04-6.558-58.09,4.588-74.687c2.027-3.017,4.128-6.153,6.18-9.614c18.6-31.362-2.137-51.804-2.35-52.008
			c-1.242-1.19-3.218-1.142-4.409,0.101c-1.184,1.239-1.148,3.215,0.101,4.405c0.173,0.165,17.409,17.168,1.303,44.32
			c-1.988,3.349-4.028,6.387-5.998,9.31C8.636,76.632-0.717,90.558,15.827,141.256c0.417,1.278,1.614,2.149,2.969,2.149
			l105.567,0.006c0.993,0,1.931-0.475,2.515-1.278C127.95,140.671,152.715,105.586,118.365,50.841z"/>
		<circle cx="71.677" cy="66.161" r="4.546"/>
	</g>
</g>
<g>
</g>
<g>
</g>
<g>
</g>
<g>
</g>
<g>
</g>
<g>
</g>
<g>
</g>
<g>
</g>
<g>
</g>
<g>
</g>
<g>
</g>
<g>
</g>
<g>
</g>
<g>
</g>
<g>
</g>
</svg>
