<?xml version="1.0" encoding="iso-8859-1"?>
<!-- Generator: Adobe Illustrator 16.0.0, SVG Export Plug-In . SVG Version: 6.00 Build 0)  -->
<!DOCTYPE svg PUBLIC "-//W3C//DTD SVG 1.1//EN" "http://www.w3.org/Graphics/SVG/1.1/DTD/svg11.dtd">
<svg version="1.1" id="Capa_1" xmlns="http://www.w3.org/2000/svg" xmlns:xlink="http://www.w3.org/1999/xlink" x="0px" y="0px"
	 width="152.93px" height="152.93px" viewBox="0 0 152.93 152.93" style="enable-background:new 0 0 152.93 152.93;"
	 xml:space="preserve">
<g>
	<g>
		<path d="M121.062,15.788c0,0-38.044-36.074-83.016,5.437c0,0-24.206,19.768-19.263,78.567c0,0-3.459,29.652-18.784,31.146
			c0,0,16.307,0.493,22.241-9.4c0,0,0.493,19.76-19.77,24.712c0,0,20.263-1.483,27.187-12.849c0,0,1.978,11.365-12.847,15.316
			c0,0,29.155,0.99,41.511-12.355c0,0-16.307-22.742-10.874-35.093c0,0,13.841-34.093,35.586-38.542c0,0-8.404,12.846-15.81,16.801
			c0,0,36.076-5.428,52.886-17.78c0,0,2.955-0.499,2.955,5.433c0,0,2.464,19.271,8.897,27.182c0,0,1.49,46.446-29.653,57.313
			c0,0,45.959-2.955,50.408-56.832C152.695,94.85,157.64,17.766,121.062,15.788z"/>
	</g>
</g>
<g>
</g>
<g>
</g>
<g>
</g>
<g>
</g>
<g>
</g>
<g>
</g>
<g>
</g>
<g>
</g>
<g>
</g>
<g>
</g>
<g>
</g>
<g>
</g>
<g>
</g>
<g>
</g>
<g>
</g>
</svg>
