<?xml version="1.0" encoding="iso-8859-1"?>
<!-- Generator: Adobe Illustrator 16.0.0, SVG Export Plug-In . SVG Version: 6.00 Build 0)  -->
<!DOCTYPE svg PUBLIC "-//W3C//DTD SVG 1.1//EN" "http://www.w3.org/Graphics/SVG/1.1/DTD/svg11.dtd">
<svg version="1.1" id="Capa_1" xmlns="http://www.w3.org/2000/svg" xmlns:xlink="http://www.w3.org/1999/xlink" x="0px" y="0px"
	 width="179.709px" height="179.709px" viewBox="0 0 179.709 179.709" style="enable-background:new 0 0 179.709 179.709;"
	 xml:space="preserve">
<g>
	<g>
		<path d="M128.435,4.439c-14.45-5.635-26.451-5.909-35.664-0.797c-14.31,7.937-17.869,26.962-19.208,34.126
			c-1.666,8.924-7.858,25.334-30.641,35.104c-7.664,3.279-31.313,17.455-13.975,62.051l0.785,1.973
			c3.647,9.073,7.408,18.475-5.797,36.365c-1.023,1.389-0.73,3.337,0.655,4.359c1.376,1.023,3.34,0.73,4.357-0.646
			c15.277-20.703,10.452-32.735,6.567-42.404l-0.761-1.925c-14.897-38.307,2.469-50.558,10.625-54.044
			C70.825,67.69,77.794,49.048,79.685,38.91c2.031-10.845,5.699-24.037,16.105-29.818c7.515-4.165,17.731-3.778,30.373,1.16
			c27.036,10.543,31.895,39.153,14.443,85.05c-6.723,17.671-29.216,52.13-53.122,55.582c-3.937,0.572-8.568,0.22-13.494-0.14
			c-9.816-0.756-19.979-1.522-27.118,4.804c-4.832,4.293-7.396,11.125-7.825,20.917c-0.076,1.711,1.261,3.178,2.981,3.245h0.137
			c1.666,0,3.036-1.304,3.118-2.978c0.35-8.025,2.22-13.433,5.724-16.52c5.164-4.592,13.986-3.928,22.508-3.264
			c5.039,0.383,10.251,0.779,14.854,0.115c28.032-4.056,51.603-42.588,58.063-59.552C170,35.573,149.643,12.714,128.435,4.439z"/>
		<path d="M58.117,93.833c-7.733,1.584-11.055,6.729-11.417,7.308c-6.26,10.321-4.89,19.662-2.631,25.696
			c3.666,9.797,11.561,16.252,17.327,18.091c4.253,1.364,8.205,2.034,11.847,2.034c5.176,0,9.721-1.371,13.588-4.092
			c8.796-6.199,11.365-17.684,12.103-23.255l0.889,0.012c26.664,0,34.738-25.836,37.868-35.837
			c5.444-17.421,5.535-30.82,0.256-39.835c-4.299-7.347-10.704-8.948-10.845-8.948v0.006c-5.906-2.29-10.997-2.146-15.113,0.453
			l-0.39,0.256c-0.292-3.19-1.054-5.934-2.265-8.05c-1.443-2.5-3.544-4.177-6.077-4.826l-1.583-0.317
			c-6.869-0.922-10.172,4.391-10.979,7.332l-0.006,1.608c1.659,6.348-0.977,12.111-2.792,14.522
			c-8.126,10.793-7.258,21.181-5.105,27.985c-6.05-2.764-12.236-3.973-16.082,0.107c-2.32,2.469-3.404,5.575-3.13,8.966
			c0.298,3.738,2.208,7.551,4.652,11.009C64.669,93.255,61.302,93.183,58.117,93.833z M84.754,102.097
			C80.781,99.046,70.35,89.56,69.796,82.544c-0.131-1.665,0.329-2.992,1.446-4.189c1.453-1.528,6.701-0.789,17.16,5.91l1.065,0.429
			c3.397,2.721,7.176,3.94,11.164,3.629c11.941-0.908,21.525-15.524,21.934-16.148c0.926-1.44,0.518-3.374-0.92-4.302
			c-1.431-0.922-3.361-0.53-4.305,0.91c-2.283,3.517-9.828,12.769-17.178,13.323c-3.245,0.231-6.125-1.172-8.731-4.089
			c-0.393-0.554-9.515-13.686,1.458-28.278c2.969-3.934,5.721-11.144,4.08-18.861c0.46-1.011,1.58-2.506,3.9-2.171l0.804,0.155
			c0.59,0.152,1.449,0.518,2.259,1.927c1.687,2.919,2.027,8.288,1.041,14.499c-1.163,3.44-1.389,6.354-1.406,6.585
			c-0.116,1.602,0.998,3.023,2.575,3.297c1.663,0.287,3.112-0.703,3.538-2.244c0.578-2.107,1.035-4.165,1.37-6.162
			c0.828-2.274,2.155-4.683,4.28-6.028c2.356-1.479,5.554-1.465,9.969,0.225c0.176,0.042,4.414,1.096,7.392,6.321
			c2.917,5.121,5.115,15.29-0.926,34.644c-4.883,15.622-13.329,33.231-35.344,31.307c-0.813-0.049-1.69,0.195-2.339,0.768
			s-1.017,1.376-1.062,2.229c-0.006,0.141-0.654,15.162-9.776,21.568c-4.908,3.458-11.603,3.848-19.921,1.187
			c-4.415-1.406-10.613-6.911-13.387-14.346c-1.772-4.731-2.844-12.087,2.125-20.265c0.018-0.037,2.183-3.386,7.334-4.434
			c0.983-0.194,2.012-0.311,3.078-0.311c5.383,0,11.743,2.546,18.587,7.466c1.404,0.999,3.3,0.694,4.323-0.663
			C86.362,105.062,86.1,103.144,84.754,102.097z"/>
	</g>
</g>
<g>
</g>
<g>
</g>
<g>
</g>
<g>
</g>
<g>
</g>
<g>
</g>
<g>
</g>
<g>
</g>
<g>
</g>
<g>
</g>
<g>
</g>
<g>
</g>
<g>
</g>
<g>
</g>
<g>
</g>
</svg>
