<?xml version="1.0" encoding="iso-8859-1"?>
<!-- Generator: Adobe Illustrator 16.0.0, SVG Export Plug-In . SVG Version: 6.00 Build 0)  -->
<!DOCTYPE svg PUBLIC "-//W3C//DTD SVG 1.1//EN" "http://www.w3.org/Graphics/SVG/1.1/DTD/svg11.dtd">
<svg version="1.1" id="Capa_1" xmlns="http://www.w3.org/2000/svg" xmlns:xlink="http://www.w3.org/1999/xlink" x="0px" y="0px"
	 width="127.823px" height="127.824px" viewBox="0 0 127.823 127.824" style="enable-background:new 0 0 127.823 127.824;"
	 xml:space="preserve">
<g>
	<path d="M94.698,45.629H82.191V33.122c0-5.775-4.688-10.476-10.467-10.476H56.1c-5.775,0-10.47,4.701-10.47,10.476v12.508H33.128
		c-5.778,0-10.482,4.688-10.482,10.47v15.625c0,5.778,4.704,10.467,10.482,10.467h12.501v12.508c0,5.778,4.695,10.479,10.47,10.479
		h15.625c5.778,0,10.467-4.701,10.467-10.479V82.191h12.507c5.773,0,10.479-4.688,10.479-10.467V56.099
		C105.166,50.318,100.459,45.629,94.698,45.629z M98.931,71.724c0,2.332-1.906,4.232-4.244,4.232H79.062
		c-1.717,0-3.117,1.406-3.117,3.117v15.625c0,2.338-1.9,4.244-4.232,4.244H56.087c-2.332,0-4.235-1.906-4.235-4.244V79.074
		c0-1.711-1.404-3.117-3.118-3.117H33.116c-2.338,0-4.248-1.9-4.248-4.232V56.099c0-2.332,1.909-4.235,4.248-4.235h15.619
		c1.714,0,3.118-1.404,3.118-3.118V33.122c0-2.338,1.903-4.241,4.235-4.241h15.625c2.332,0,4.232,1.903,4.232,4.241v15.625
		c0,1.714,1.4,3.118,3.117,3.118h15.625c2.338,0,4.244,1.903,4.244,4.235V71.724z M63.912,0C28.671,0,0,28.67,0,63.912
		c0,35.244,28.671,63.912,63.912,63.912c35.244,0,63.911-28.668,63.911-63.912C127.823,28.67,99.156,0,63.912,0z M63.912,121.588
		c-31.807,0-57.677-25.867-57.677-57.677c0-31.812,25.87-57.676,57.677-57.676c31.81,0,57.677,25.864,57.677,57.676
		C121.589,95.721,95.722,121.588,63.912,121.588z"/>
</g>
<g>
</g>
<g>
</g>
<g>
</g>
<g>
</g>
<g>
</g>
<g>
</g>
<g>
</g>
<g>
</g>
<g>
</g>
<g>
</g>
<g>
</g>
<g>
</g>
<g>
</g>
<g>
</g>
<g>
</g>
</svg>
