<?xml version="1.0" encoding="iso-8859-1"?>
<!-- Generator: Adobe Illustrator 16.0.0, SVG Export Plug-In . SVG Version: 6.00 Build 0)  -->
<!DOCTYPE svg PUBLIC "-//W3C//DTD SVG 1.1//EN" "http://www.w3.org/Graphics/SVG/1.1/DTD/svg11.dtd">
<svg version="1.1" id="Capa_1" xmlns="http://www.w3.org/2000/svg" xmlns:xlink="http://www.w3.org/1999/xlink" x="0px" y="0px"
	 width="168.112px" height="168.111px" viewBox="0 0 168.112 168.111" style="enable-background:new 0 0 168.112 168.111;"
	 xml:space="preserve">
<g>
	<path d="M84.64,61.306C66.557,62.59,51.68,74.004,50.033,87.843c-0.689,5.757,0.397,10.292,3.215,13.461
		c2.619,2.938,6.578,4.511,11.453,4.511c0,0,0,0,0.006,0c1.732,0,3.559-0.205,5.389-0.598c-0.675,2.406-2.465,6.149-7.261,8.382
		c-1.144,0.537-1.636,1.895-1.102,3.031c0.385,0.816,1.203,1.31,2.066,1.31c0.325,0,0.65-0.066,0.959-0.209
		c8.641-4.028,10.046-11.793,10.272-14.05c0.194-0.094,0.402-0.14,0.598-0.232c3.221-1.379,5.47-3.479,7.454-5.329
		c2.101-1.959,3.522-3.272,5.282-3.142c14.875,1.741,24.062,0.148,28.388-4.892c2.307-2.687,3.128-6.304,2.438-10.747
		C117.429,67.807,102.875,60.045,84.64,61.306z M113.302,87.12c-1.63,1.894-4.65,3.113-8.946,3.645
		c0.531-2.474,1.177-7.464-1.318-10.67c-1.029-1.311-3.029-2.856-6.633-2.689c-1.267,0.063-2.219,1.128-2.177,2.375
		c0.056,1.233,1.056,2.186,2.278,2.186c0.02,0,0.065,0,0.102,0c2.032-0.125,2.626,0.679,2.831,0.942
		c1.344,1.733,0.83,5.827,0.186,8.005c-0.013,0.044,0,0.098-0.013,0.158c-3.119,0.045-6.659-0.136-10.703-0.607
		c-3.806-0.402-6.421,1.998-8.933,4.341c-1.797,1.663-3.647,3.387-6.142,4.465c-2.996,1.285-6.235,1.985-9.121,1.985h-0.005
		c-2.465,0-5.861-0.524-8.052-2.971c-1.917-2.172-2.622-5.486-2.102-9.898c0.432-3.606,1.978-7.004,4.361-10.05
		c1.315-0.615,5.417-2.016,7.881-0.605c1.434,0.824,2.276,2.65,2.496,5.417c0.093,1.193,1.092,2.101,2.267,2.101
		c0.061,0,0.124-0.01,0.187-0.01c1.254-0.104,2.189-1.204,2.087-2.457c-0.348-4.356-1.953-7.388-4.78-8.997
		c-1.247-0.722-2.6-1.053-3.931-1.182c5.339-3.698,12.254-6.186,19.835-6.73c1.209-0.096,2.396-0.124,3.567-0.124
		c13.888,0,24.892,6.021,26.167,14.307C115.187,83.147,114.725,85.468,113.302,87.12z M31.631,124.336h104.84
		c1.27,0,2.287-1.024,2.287-2.267V55.178c0-1.261-1.023-2.276-2.287-2.276H31.631c-1.261,0-2.282,1.025-2.282,2.276v66.887
		C29.349,123.312,30.37,124.336,31.631,124.336z M33.91,57.451h100.291v62.325H33.91V57.451z M165.825,38.652H2.279
		C1.02,38.652,0,39.672,0,40.92c0,1.25,1.02,2.287,2.279,2.287h13.393v85.561c0,5.089,4.148,9.236,9.24,9.236h118.29
		c5.09,0,9.236-4.147,9.236-9.236V43.207h13.396c1.26,0,2.277-1.037,2.277-2.287C168.112,39.672,167.082,38.652,165.825,38.652z
		 M147.886,128.768c0,2.583-2.102,4.674-4.685,4.674H24.917c-2.582,0-4.678-2.091-4.678-4.674V43.207h127.648V128.768z
		 M0.005,32.381c0-1.267,1.021-2.273,2.283-2.273h163.537c1.27,0,2.282,1.021,2.282,2.273c0,1.256-1.025,2.288-2.282,2.288H2.279
		C1.025,34.668,0.005,33.637,0.005,32.381z"/>
</g>
<g>
</g>
<g>
</g>
<g>
</g>
<g>
</g>
<g>
</g>
<g>
</g>
<g>
</g>
<g>
</g>
<g>
</g>
<g>
</g>
<g>
</g>
<g>
</g>
<g>
</g>
<g>
</g>
<g>
</g>
</svg>
