<?xml version="1.0" encoding="iso-8859-1"?>
<!-- Generator: Adobe Illustrator 16.0.0, SVG Export Plug-In . SVG Version: 6.00 Build 0)  -->
<!DOCTYPE svg PUBLIC "-//W3C//DTD SVG 1.1//EN" "http://www.w3.org/Graphics/SVG/1.1/DTD/svg11.dtd">
<svg version="1.1" id="Capa_1" xmlns="http://www.w3.org/2000/svg" xmlns:xlink="http://www.w3.org/1999/xlink" x="0px" y="0px"
	 width="156.071px" height="156.072px" viewBox="0 0 156.071 156.072" style="enable-background:new 0 0 156.071 156.072;"
	 xml:space="preserve">
<g>
	<path d="M152.302,106.408h-22.693c-0.828,0-1.626,0.335-2.211,0.908c-0.584,0.584-0.907,1.388-0.907,2.21
		c0,5.852-5.584,10.607-12.446,10.607h-3.081H93.919c0.92-1.754,1.498-3.757,1.511-5.907c0-3.385-1.304-6.618-3.593-8.914
		c-0.049-0.049-0.115-0.092-0.158-0.128c2.277-2.21,3.751-5.383,3.763-8.951c0-3.373-1.303-6.625-3.593-8.914
		c-0.085-0.073-0.176-0.134-0.255-0.207c2.325-2.217,3.836-5.42,3.848-9.03c0-3.38-1.303-6.622-3.593-8.909
		c-2.07-2.077-4.773-3.224-7.611-3.224h-0.651h-5.919c-0.18-0.037-0.374-0.119-0.572-0.119H39.357V54.026H63.4
		c0.131,0.006,0.256,0.046,0.387,0.046H81.51c0.938,6.527,5.188,9.259,13.993,9.259h16.854c1.724,0,3.117-1.397,3.117-3.118
		c0-1.72-1.394-3.117-3.117-3.117H95.503c-7.575,0-7.953-1.565-7.953-6.104c0-1.724-1.4-3.118-3.117-3.118
		c-0.085,0-0.134,0.037-0.226,0.042c-0.201-0.042-0.408-0.131-0.651-0.131H63.614c-2.67-0.119-4.808-2.688-4.808-5.879
		c0-3.255,2.208-5.9,4.945-5.931c0.024,0,0.036,0.006,0.048,0.006h50.257c6.862,0,12.446,4.99,12.446,11.119v5.349
		c0,0.834,0.334,1.629,0.907,2.214c0.597,0.578,1.388,0.904,2.21,0.904c0,0,0.012,0,0.024,0l23.334-0.192
		c1.723-0.015,3.105-1.431,3.093-3.145c-0.012-1.714-1.406-3.09-3.117-3.09c0,0-0.013,0-0.031,0l-20.186,0.167V47.1
		c0-9.566-8.378-17.354-18.681-17.354H83.671c-0.036,0-0.061-0.019-0.097-0.019H63.799c-6.177,0-11.229,5.462-11.229,12.173
		c0,2.143,0.561,4.134,1.453,5.879H11.226C5.039,47.779,0,53.216,0,59.899c0,6.698,5.039,12.148,11.226,12.148h27.803
		c-0.95,1.778-1.535,3.812-1.535,6.01c0,3.635,1.507,6.862,3.86,9.091c-2.353,2.217-3.86,5.443-3.86,9.073
		c0,3.567,1.464,6.771,3.766,8.987c-2.29,2.223-3.766,5.407-3.766,8.981c0,6.698,5.051,12.154,11.229,12.154h0.487h61.753h3.075
		c9.128,0,16.745-5.931,18.353-13.737l19.899,0.012c1.711,0,3.117-1.406,3.117-3.117C155.42,107.791,154.02,106.408,152.302,106.408
		z M84.226,72.196c1.492,0,2.563,0.755,3.203,1.392c1.12,1.127,1.766,2.759,1.766,4.488c-0.013,3.251-2.266,5.882-5.023,5.882
		H49.316c-0.082,0-0.131,0.042-0.207,0.042h-0.387c-2.749,0-4.993-2.648-4.993-5.906c0-3.245,2.238-5.891,4.993-5.891h8.756h26.088
		L84.226,72.196L84.226,72.196z M33.122,65.848H21.038V54.044h12.084V65.848z M6.242,59.929c0-3.245,2.219-5.885,4.984-5.885h3.577
		v11.804h-3.577C8.473,65.848,6.242,63.2,6.242,59.929z M43.729,96.251c0-3.246,2.238-5.889,4.993-5.889h34.845
		c0.013,0,0.024,0,0.037,0h0.633c1.486,0,2.558,0.756,3.203,1.389c1.127,1.133,1.766,2.765,1.766,4.494
		c-0.012,3.215-2.223,5.833-4.956,5.869h-0.013H57.491c-0.012,0-0.024,0-0.037,0h-8.72c-0.049,0-0.098,0.013-0.137,0.013
		C45.9,102.03,43.729,99.449,43.729,96.251z M43.729,114.226c0-3.19,2.171-5.76,4.844-5.852c0.052,0,0.101,0.013,0.137,0.013h28.373
		c0.073,0,0.125-0.036,0.174-0.036h6.896c0.024,0,0.055-0.013,0.098-0.013c1.461,0.013,2.521,0.755,3.166,1.388
		c1.127,1.121,1.766,2.753,1.766,4.482c-0.012,3.252-2.265,5.895-5.029,5.895H49.298c-0.076,0-0.131,0.036-0.207,0.036h-0.387
		C45.967,120.145,43.729,117.49,43.729,114.226z"/>
</g>
<g>
</g>
<g>
</g>
<g>
</g>
<g>
</g>
<g>
</g>
<g>
</g>
<g>
</g>
<g>
</g>
<g>
</g>
<g>
</g>
<g>
</g>
<g>
</g>
<g>
</g>
<g>
</g>
<g>
</g>
</svg>
