<?xml version="1.0" encoding="iso-8859-1"?>
<!-- Generator: Adobe Illustrator 16.0.0, SVG Export Plug-In . SVG Version: 6.00 Build 0)  -->
<!DOCTYPE svg PUBLIC "-//W3C//DTD SVG 1.1//EN" "http://www.w3.org/Graphics/SVG/1.1/DTD/svg11.dtd">
<svg version="1.1" id="Capa_1" xmlns="http://www.w3.org/2000/svg" xmlns:xlink="http://www.w3.org/1999/xlink" x="0px" y="0px"
	 width="187.071px" height="187.071px" viewBox="0 0 187.071 187.071" style="enable-background:new 0 0 187.071 187.071;"
	 xml:space="preserve">
<g>
	<path d="M50.923,114.147l-0.572-4.281c2.25-0.858,13.947-4.476,13.947-4.476c3.672-0.688,1.397,8.446,1.397,8.446
		C63.674,117.673,50.923,114.147,50.923,114.147z M53.523,121.966l1.41,4.316c13.244-3.769,13.542-4.177,12.395-7.246
		C65.458,114.044,53.523,121.966,53.523,121.966z M67.864,106.122c-1.571,4.749,0.332,10.54,2.152,13.45
		c2.707,4.312,5.605-0.633,5.605-0.633c3.568-6.851-1.528-13.7-1.528-13.7C70.141,100.386,67.864,106.122,67.864,106.122z
		 M75.042,99.691c0,0-1.199-1.468,3.934-9.134c0,0,4.159-0.39,2.25-3.483c0,0-4.028-4.308-5.112-0.584c0,0-0.298,1.446-0.03,2.481
		l-4.08,6.98c0,0-3.989,1.596-1.994,3.959C70.016,99.911,74.997,103.704,75.042,99.691z M83.047,83.035l3.343-4.588
		c0,0,4.034,0.73,2.188-2.637c0,0-3.3-4.21-4.372-1.455c0,0-0.174,1.428,0.188,2.277l-3.145,4.266c0,0-4.999,0.356-1.06,3.852
		C80.191,84.743,84.295,87.799,83.047,83.035z M90.049,74.604c0.947-0.305,1.796-2.107,2.476-3.118
		c2.487-3.666-0.548-3.19-1.127-2.73C85.492,73.472,88.622,75.067,90.049,74.604z M94.778,115.718
		c1.065,0.165,3.994,2.729,3.647-2.338c-0.095-1.395,0.648-4.152-5.347-1.486c-2.606,1.157-8.741,1.827-11.441-0.158
		c0,0,0.975-2.594,11.822-4.189c0,0,4.953,2.74,5.608-0.645c0.256-1.37,0.807-5.127-3.118-4.555
		c-0.98,0.146-2.502,0.926-3.264,2.229c0,0-13.335,4.725-12.531,1.479c0,0,7.222-6.017,12.708-6.077c0,0,5.373,1.121,4.016-4.067
		c-0.106-0.396-0.506-4.805-5.706,0.249c-2.128,2.077-7.615,5.018-11.487,5.48c-1.726,0.207-5.331-1.485-2.566,6.431
		c0,0,1.452,6.089,1.245,7.928c0,0-1.184,5.943,3.175,4.251c0,0,6.921-1.389,11.305,1.181c0,0,5.623,3.587,4.363-1.705
		c-0.305-1.303-0.853-2.983-5.243-1.656c-2.32,0.7-9.94,0.365-9.597-1.474C82.605,115.347,86.17,114.208,94.778,115.718z
		 M106.584,121.43c-1.948,0.42-4.104-0.231-4.542-0.822c-0.231-0.329-0.67-0.712-0.877-0.992c-2.256-3.057-2.96,3.446-2.96,3.446
		c0.917,1.4,1.912,0.037,2.509-0.115c0.651-0.141,1.925,0.554,2.546,0.779c2.782,1.035,2.502,1.357,3.202,1.973
		c1.803,1.656,2.497-2.789,2.497-2.789C109.623,120.151,106.584,121.43,106.584,121.43z M116.089,123.47
		c-1.431,0.566-3.117,0.322-3.501-0.061c-0.207-0.207-0.597-0.476-0.768-0.652c-2.046-2.021-1.814,2.923-1.814,2.923
		c0.865,0.962,1.432-0.183,1.876-0.365c0.475-0.183,1.51,0.177,1.997,0.292c2.204,0.445,2.034,0.701,2.631,1.097
		c1.559,1.047,1.559-2.362,1.559-2.362C118.214,122.154,116.089,123.47,116.089,123.47z M122.891,112.521
		c-0.305-2.155-2.24-0.372-2.24-0.372c-1.37,0.883-3.222,1.048-3.702,0.768c-0.269-0.14-0.707-0.316-0.95-0.444
		c-2.582-1.498-1.267,3.282-1.267,3.282c1.108,0.73,1.449-0.536,1.894-0.804c0.444-0.317,1.62-0.177,2.155-0.207
		c2.43-0.085,2.29,0.207,3.002,0.462C123.634,115.834,122.891,112.521,122.891,112.521z M122.934,98.814
		c-1.797,1.084-4.178,1.34-4.805,1.005c-0.329-0.152-0.919-0.329-1.224-0.469c-3.294-1.675-1.735,3.909-1.735,3.909
		c1.4,0.804,1.912-0.683,2.466-1.022c0.591-0.385,2.101-0.269,2.808-0.305c3.13-0.184,2.953,0.152,3.86,0.408
		c2.375,0.676,1.534-3.197,1.534-3.197C125.503,96.635,122.934,98.814,122.934,98.814z M113.66,89.974
		c0.476-0.497,1.949-0.816,2.619-1.032c2.978-1.023,2.898-0.643,3.848-0.631c2.467,0.024,0.621-3.492,0.621-3.492
		c-0.974-2.338-2.886,0.424-2.886,0.424c-1.438,1.528-3.678,2.426-4.36,2.283c-0.365-0.082-0.98-0.095-1.309-0.149
		c-3.617-0.718-0.64,4.241-0.64,4.241C113.125,92.025,113.198,90.46,113.66,89.974z M125.071,85.461
		c0.463-0.505,1.584-0.648,2.235-0.892c0.7-0.244,1.431-1.06,0.895-1.885c-0.938-1.376-3.209,0.886-3.885,0.755
		c-0.39-0.079-0.651-0.405-0.986-0.429c-2.472-0.256-1.145,3.273-0.28,3.909C124.34,87.891,124.609,85.936,125.071,85.461z
		 M129.401,98.364c-0.359-0.141-0.555-0.523-0.896-0.609c-2.375-0.693-1.583,2.57-0.853,3.35c0.719,0.767,1.583-0.256,2.119-0.634
		c0.561-0.426,1.687-0.371,2.375-0.463c0.73-0.109,1.613-0.779,1.193-1.681C132.683,96.793,130.052,98.607,129.401,98.364z
		 M126.527,112.034c-0.359-0.128-0.555-0.493-0.896-0.609c-2.375-0.693-1.583,2.582-0.853,3.374
		c0.719,0.755,1.596-0.256,2.119-0.651c0.561-0.414,1.687-0.348,2.375-0.438c0.73-0.128,1.613-0.78,1.205-1.693
		C129.808,110.487,127.178,112.302,126.527,112.034z M122.136,123.573c-0.365-0.128-0.561-0.5-0.889-0.597
		c-2.388-0.683-1.584,2.569-0.865,3.349c0.719,0.768,1.596-0.231,2.132-0.646c0.548-0.414,1.674-0.341,2.362-0.45
		c0.743-0.109,1.619-0.779,1.218-1.681C125.43,122.026,122.782,123.829,122.136,123.573z M109.775,100.294
		c-1.267,1.267-5.023,2.162-5.839,1.876c-0.433-0.14-1.09-0.305-1.492-0.421c-4.263-1.485-0.694,5.396-0.694,5.396
		c1.852,0.749,1.997-1.175,2.533-1.692c0.585-0.549,2.338-0.683,3.13-0.865c3.55-0.768,3.459-0.292,4.567-0.134
		c2.935,0.427,0.736-4.226,0.736-4.226C111.614,97.165,109.775,100.294,109.775,100.294z M101.622,95.733
		c0.5-0.627,2.223-0.986,2.99-1.254c3.422-1.225,3.386-0.743,4.524-0.725c2.965,0.036,0.152-4.296,0.152-4.296
		c-1.486-2.862-2.887,0.472-2.887,0.472c-1.096,1.419-4.701,2.795-5.547,2.612c-0.445-0.085-1.114-0.134-1.531-0.237
		c-4.431-0.908,0.023,5.449,0.023,5.449C101.262,98.248,101.166,96.33,101.622,95.733z M112.089,115.371
		c1.376-1.468,0.651-3.702-0.335-4.396c-1.431-0.98-2.691,0.986-2.691,0.986s-5.499,1.278-6.314,0.073
		c-0.779-1.176-1.894-0.98-2.302-0.365c-0.956,1.559-0.913,3.55,0.194,4.141c1.34,0.7,2.059-0.67,2.71-0.975
		c1.364-0.651,4.878-0.986,6.041,0C110.409,115.688,111.486,116.011,112.089,115.371z M32.659,135.818V61.391
		c0-1.406,1.136-2.542,2.539-2.542h116.666c1.412,0,2.545,1.147,2.545,2.542v74.428c0,1.4-1.139,2.527-2.545,2.527H35.198
		C33.795,138.357,32.659,137.219,32.659,135.818z M37.734,133.285h111.602V63.924H37.734V133.285z M187.065,45.534
		c0,1.416-1.139,2.54-2.539,2.54h-14.9v95.216c0,5.662-4.615,10.278-10.272,10.278H27.721c-5.666,0-10.281-4.616-10.281-10.278
		V48.074H2.536c-1.4,0-2.536-1.142-2.536-2.54c0-1.394,1.136-2.53,2.536-2.53h181.99C185.926,43.004,187.065,44.146,187.065,45.534z
		 M164.566,48.074H22.521v95.216c0,2.874,2.333,5.212,5.207,5.212h131.626c2.874,0,5.213-2.338,5.213-5.212V48.074z M2.545,38.571
		h181.992c1.4,0,2.533-1.142,2.533-2.545c0-1.389-1.145-2.524-2.533-2.524H2.545c-1.404,0-2.54,1.142-2.54,2.524
		C0.006,37.43,1.142,38.571,2.545,38.571z"/>
</g>
<g>
</g>
<g>
</g>
<g>
</g>
<g>
</g>
<g>
</g>
<g>
</g>
<g>
</g>
<g>
</g>
<g>
</g>
<g>
</g>
<g>
</g>
<g>
</g>
<g>
</g>
<g>
</g>
<g>
</g>
</svg>
