<?xml version="1.0" encoding="iso-8859-1"?>
<!-- Generator: Adobe Illustrator 16.0.0, SVG Export Plug-In . SVG Version: 6.00 Build 0)  -->
<!DOCTYPE svg PUBLIC "-//W3C//DTD SVG 1.1//EN" "http://www.w3.org/Graphics/SVG/1.1/DTD/svg11.dtd">
<svg version="1.1" id="Capa_1" xmlns="http://www.w3.org/2000/svg" xmlns:xlink="http://www.w3.org/1999/xlink" x="0px" y="0px"
	 width="140.248px" height="140.247px" viewBox="0 0 140.248 140.247" style="enable-background:new 0 0 140.248 140.247;"
	 xml:space="preserve">
<g>
	<path d="M136.843,95.615l-20.394-0.011c-0.749,0-1.459,0.306-1.986,0.819c-0.523,0.526-0.815,1.237-0.815,1.982
		c0,5.253-5.018,9.545-11.185,9.545h-2.769H84.38c0.826-1.589,1.345-3.385,1.354-5.321c0-3.031-1.171-5.948-3.228-8
		c-0.045-0.05-0.099-0.088-0.135-0.12c2.041-1.986,3.362-4.832,3.376-8.033c0-3.043-1.173-5.953-3.23-8.011
		c-0.065-0.076-0.159-0.121-0.229-0.197c2.092-1.98,3.446-4.87,3.46-8.109c0.009-3.036-1.173-5.951-3.218-8.005
		c-1.862-1.866-4.309-2.897-6.855-2.897h-0.582h-5.309c-0.172-0.033-0.331-0.107-0.514-0.107H10.083
		c-2.465,0-4.479-2.386-4.479-5.313c0-2.916,2.009-5.288,4.479-5.288h46.893c0.117,0.005,0.23,0.041,0.348,0.041h15.931
		c0.828,5.866,4.656,8.32,12.568,8.32h15.147c1.542,0,2.801-1.256,2.801-2.802s-1.259-2.802-2.801-2.802H85.823
		c-6.807,0-7.144-1.406-7.144-5.486c0-1.548-1.256-2.801-2.805-2.801c-0.07,0-0.121,0.033-0.199,0.039
		c-0.187-0.039-0.373-0.118-0.582-0.118H57.167c-2.4-0.106-4.319-2.415-4.319-5.283c0-2.924,1.989-5.302,4.443-5.33
		c0.011,0,0.021,0.006,0.037,0.006h45.159c6.178,0,11.184,4.484,11.184,9.992v4.807c0,0.752,0.312,1.464,0.815,1.989
		c0.538,0.52,1.247,0.812,1.986,0.812c0.005,0,0.018,0,0.021,0l20.975-0.172c1.542-0.014,2.792-1.286,2.779-2.827
		c-0.011-1.54-1.27-2.777-2.802-2.777c-0.005,0-0.015,0-0.015,0l-18.158,0.15v-1.983c0-8.597-7.527-15.596-16.786-15.596H75.182
		c-0.029,0-0.051-0.016-0.084-0.016H57.328c-5.557,0-10.085,4.908-10.085,10.938c0,1.926,0.503,3.715,1.312,5.283H10.083
		C4.524,42.933,0,47.82,0,53.826c0,6.019,4.524,10.917,10.083,10.917h24.992c-0.854,1.598-1.38,3.425-1.38,5.402
		c0,3.265,1.357,6.165,3.465,8.168c-2.108,1.992-3.465,4.892-3.465,8.152c0,3.213,1.317,6.086,3.379,8.077
		c-2.057,1.998-3.379,4.859-3.379,8.072c0,6.019,4.528,10.921,10.085,10.921h0.437h55.505h2.757c8.203,0,15.049-5.329,16.499-12.345
		l17.865,0.011c1.55,0,2.802-1.263,2.802-2.802C139.645,96.862,138.393,95.615,136.843,95.615z M75.67,64.871
		c1.343,0,2.308,0.678,2.875,1.25c1.018,1.013,1.587,2.484,1.587,4.034c-0.011,2.915-2.033,5.285-4.515,5.285H44.303
		c-0.07,0-0.124,0.033-0.193,0.044h-0.346c-2.472,0-4.482-2.387-4.482-5.313c0-2.921,2.005-5.294,4.482-5.294h7.868h23.447
		L75.67,64.871L75.67,64.871z M39.287,86.477c0-2.922,2.005-5.285,4.481-5.285h31.321c0.009,0,0.014,0,0.027,0h0.559
		c1.351,0,2.309,0.667,2.892,1.247c1.009,1.013,1.578,2.484,1.578,4.033c-0.013,2.895-1.999,5.249-4.447,5.28
		c-0.012,0-0.012,0-0.022,0H51.643c-0.011,0-0.016,0-0.03,0h-7.839c-0.042,0-0.082,0.011-0.122,0.011
		C41.224,91.664,39.287,89.354,39.287,86.477z M39.287,102.63c0-2.855,1.946-5.176,4.354-5.253c0.046,0,0.084,0.012,0.124,0.012
		h25.496c0.055,0,0.108-0.033,0.162-0.033h6.197c0.027,0,0.058-0.012,0.08-0.012c1.334,0.012,2.28,0.68,2.86,1.242
		c1.005,1.018,1.574,2.479,1.574,4.038c-0.011,2.917-2.038,5.286-4.515,5.286H44.303c-0.07,0-0.124,0.033-0.193,0.045h-0.346
		C41.287,107.951,39.287,105.563,39.287,102.63z"/>
</g>
<g>
</g>
<g>
</g>
<g>
</g>
<g>
</g>
<g>
</g>
<g>
</g>
<g>
</g>
<g>
</g>
<g>
</g>
<g>
</g>
<g>
</g>
<g>
</g>
<g>
</g>
<g>
</g>
<g>
</g>
</svg>
