<?xml version="1.0" encoding="iso-8859-1"?>
<!-- Generator: Adobe Illustrator 16.0.0, SVG Export Plug-In . SVG Version: 6.00 Build 0)  -->
<!DOCTYPE svg PUBLIC "-//W3C//DTD SVG 1.1//EN" "http://www.w3.org/Graphics/SVG/1.1/DTD/svg11.dtd">
<svg version="1.1" id="Capa_1" xmlns="http://www.w3.org/2000/svg" xmlns:xlink="http://www.w3.org/1999/xlink" x="0px" y="0px"
	 width="152.788px" height="152.789px" viewBox="0 0 152.788 152.789" style="enable-background:new 0 0 152.788 152.789;"
	 xml:space="preserve">
<g>
	<g>
		<path d="M124.718,70.988c-2.168-1.863-9.384-3.361-16.952-4.47l0.194-0.986v-33.22c0-7.209-5.62-13.07-12.55-13.07
			c-2.308,0-4.457,0.691-6.32,1.839v-7.986C89.09,5.873,83.391,0,76.382,0c-6.497,0-11.81,5.063-12.553,11.56
			c-1.915-1.184-4.141-1.927-6.534-1.927c-7.009,0-12.708,5.867-12.708,13.095v7.45c-1.894-1.16-4.077-1.863-6.433-1.863
			c-7.003,0-12.702,5.867-12.702,13.082V65.97v33.88v7.745c0,26.609,20.944,45.193,50.942,45.193
			c29.995,0,50.941-18.584,50.941-45.193v-31.42C127.336,74.169,125.771,71.885,124.718,70.988z M95.417,25.477
			c3.495,0,6.32,3.069,6.32,6.835v33.22l0.036,0.183c-2.722-0.332-5.328-0.612-7.562-0.831c-1.875-0.131-3.538-0.037-5.103,0.158
			V32.306C89.096,28.546,91.934,25.477,95.417,25.477z M121.101,107.595c0,22.932-18.377,38.959-44.706,38.959
			c-26.327,0-44.707-16.027-44.707-38.959V99.85V65.97V41.397c0-3.766,2.898-6.847,6.467-6.847c3.504,0,6.333,2.974,6.433,6.646
			v29.642l0.037,0.183v2.691c0,1.708,1.397,3.121,3.118,3.121c1.723,0,3.118-1.413,3.118-3.121v-32.33l-0.037-0.378V22.704
			c0-3.767,2.904-6.859,6.473-6.859c3.416,0,6.159,2.85,6.384,6.402v51.429c0,1.72,1.397,3.121,3.118,3.121
			c1.72,0,3.117-1.4,3.117-3.121V67.31l0.088-0.417V22.698l-0.088-0.886v-8.756c0-3.766,2.898-6.856,6.467-6.856
			c3.56,0,6.473,3.078,6.473,6.856v19.218v34.942c-1.97,1.303-3.528,3.005-4.402,5.395c-2.408,6.579,1.154,13.96,8.184,16.529
			l19.894,5.511c1.65,0.433,3.373-0.523,3.83-2.186c0.45-1.663-0.512-3.374-2.18-3.837l-19.656-5.413
			c-3.55-1.321-5.456-5.103-4.226-8.461c0.42-1.16,1.534-4.214,9.365-3.69c11.344,1.124,24.904,3.218,26.914,4.558l0.505,0.511
			v31.438h0.019V107.595z"/>
	</g>
</g>
<g>
</g>
<g>
</g>
<g>
</g>
<g>
</g>
<g>
</g>
<g>
</g>
<g>
</g>
<g>
</g>
<g>
</g>
<g>
</g>
<g>
</g>
<g>
</g>
<g>
</g>
<g>
</g>
<g>
</g>
</svg>
