<?xml version="1.0" encoding="iso-8859-1"?>
<!-- Generator: Adobe Illustrator 16.0.0, SVG Export Plug-In . SVG Version: 6.00 Build 0)  -->
<!DOCTYPE svg PUBLIC "-//W3C//DTD SVG 1.1//EN" "http://www.w3.org/Graphics/SVG/1.1/DTD/svg11.dtd">
<svg version="1.1" id="Capa_1" xmlns="http://www.w3.org/2000/svg" xmlns:xlink="http://www.w3.org/1999/xlink" x="0px" y="0px"
	 width="182.504px" height="182.504px" viewBox="0 0 182.504 182.504" style="enable-background:new 0 0 182.504 182.504;"
	 xml:space="preserve">
<g>
	<path d="M71.581,59.863c-5.307-6.366-14.809-8.153-21.994-4.226c-5.593,3.105-9.091,8.991-9.091,15.387
		c0,2.113-1.708,3.836-3.833,3.836c-2.134,0-3.842-1.723-3.842-3.836c0-9.176,5.002-17.652,13.058-22.104
		c10.336-5.688,23.992-3.124,31.594,6.028c1.358,1.635,1.142,4.049-0.487,5.395C75.353,61.696,72.927,61.492,71.581,59.863z
		 M182.504,98.142c0,2.119-1.718,3.83-3.837,3.83h-30.025c-18.298,25.471-56.927,49.949-58.943,51.228
		c-0.63,0.385-1.328,0.585-2.04,0.585c-0.704,0-1.422-0.188-2.037-0.585c-2.021-1.278-40.916-25.896-59.192-51.636H3.833
		c-2.119,0-3.833-1.723-3.833-3.83c0-2.131,1.708-3.849,3.833-3.849h17.908c-1.814-3.431-3.249-6.847-3.998-10.178
		c-1.291-3.885-1.994-8.275-1.994-12.684c0-15.387,8.373-29.587,21.866-37.031c6.248-3.458,13.314-5.273,20.414-5.273
		c11.155,0,21.738,4.363,29.624,12.102c7.876-7.739,18.438-12.102,29.593-12.102c7.131,0,14.182,1.814,20.417,5.273
		c13.506,7.466,21.885,21.656,21.885,37.031c0,4.409-0.707,8.787-2.083,13.046c-0.749,3.346-2.204,6.784-4.056,10.255h25.271
		C180.775,94.312,182.504,96.03,182.504,98.142z M30.583,93.885h37.031c1.285,0,2.476,0.652,3.2,1.718l8.104,12.136l25.103-38.143
		c0.798-1.215,2.223-1.875,3.659-1.708c1.443,0.161,2.667,1.142,3.154,2.5l8.708,23.924h24.965c2.655-4.195,4.665-8.321,5.542-12.27
		c1.229-3.839,1.814-7.42,1.814-11.03c0-12.602-6.869-24.223-17.915-30.315c-5.09-2.825-10.875-4.302-16.714-4.302
		c-10.321,0-20.034,4.57-26.631,12.538c-0.731,0.88-1.809,1.391-2.957,1.391c-1.139,0-2.219-0.511-2.953-1.391
		c-6.622-7.961-16.349-12.538-26.676-12.538c-5.831,0-11.591,1.477-16.703,4.302c-11.043,6.104-17.902,17.72-17.902,30.315
		c0,3.599,0.579,7.179,1.708,10.644C26.013,85.617,27.983,89.736,30.583,93.885z M138.942,101.997h-22.091
		c-1.607,0-3.057-1.023-3.605-2.533l-7.015-19.254l-24.07,36.608c-0.709,1.071-1.921,1.717-3.193,1.729c-0.012,0-0.012,0-0.019,0
		c-1.275,0-2.475-0.652-3.19-1.705l-10.184-15.26H36.063c15.975,19.729,43.848,38.715,51.59,43.793
		C95.362,140.309,122.983,121.495,138.942,101.997z"/>
</g>
<g>
</g>
<g>
</g>
<g>
</g>
<g>
</g>
<g>
</g>
<g>
</g>
<g>
</g>
<g>
</g>
<g>
</g>
<g>
</g>
<g>
</g>
<g>
</g>
<g>
</g>
<g>
</g>
<g>
</g>
</svg>
