<?xml version="1.0" encoding="iso-8859-1"?>
<!-- Generator: Adobe Illustrator 16.0.0, SVG Export Plug-In . SVG Version: 6.00 Build 0)  -->
<!DOCTYPE svg PUBLIC "-//W3C//DTD SVG 1.1//EN" "http://www.w3.org/Graphics/SVG/1.1/DTD/svg11.dtd">
<svg version="1.1" id="Capa_1" xmlns="http://www.w3.org/2000/svg" xmlns:xlink="http://www.w3.org/1999/xlink" x="0px" y="0px"
	 width="187.021px" height="187.021px" viewBox="0 0 187.021 187.021" style="enable-background:new 0 0 187.021 187.021;"
	 xml:space="preserve">
<g>
	<g>
		<path d="M128.414,92.665c-1.114-1.377-2.527-3.246-2.947-4.33c-0.67-1.869-1.169-7.861-1.169-7.861
			c-0.207-7.091-1.949-10.159-1.949-10.159c-2.995-4.795-3.556-13.716-3.556-13.716l-0.134-15.077
			c-1.041-10.291-8.635-10.363-8.635-10.363c-7.663-1.154-8.723-3.617-8.723-3.617c-1.629-2.332-0.697-6.813-0.697-6.813
			c1.346-1.1,1.863-4.01,1.863-4.01c2.229-1.702,2.138-4.229,1.117-4.199c-0.849,0.021-0.648-0.661-0.648-0.661
			C104.337,0.56,94.299,0,94.299,0h-1.535c0,0-10.02,0.572-8.634,11.858c0,0,0.186,0.682-0.648,0.661
			c-1.029-0.031-1.129,2.484,1.114,4.199c0,0,0.518,2.91,1.867,4.01c0,0,0.916,4.481-0.701,6.813c0,0-1.06,2.469-8.716,3.617
			c0,0-7.6,0.073-8.641,10.363l-0.131,15.077c0,0-0.563,8.933-3.562,13.716c0,0-1.732,3.068-1.945,10.159
			c0,0-0.505,5.992-1.178,7.861c-0.405,1.096-1.833,2.953-2.941,4.33c-2.183,2.728-5.849,8.396-3.891,9.023
			c0,0,1.519,0.146,3.535-3.848c0,0-0.037,1.534-1.665,6.004c-0.311,0.84-1.666,5.06,0.523,3.543c0,0,1.005-0.693,2.332-5.06
			c0,0-0.703,7.337,0.076,7.702c1.023,0.5,1.589-0.938,2.049-7.38c0,0,0.475-2.07,0.694,5.858c0.012,0.396,0.624,2.436,1.446,0.706
			c0.697-1.455,0.387-5.328,0.387-6.625c0,0,0.91,5.005,1.744,5.005c0,0,0.987,1.17,0.594-5.041
			c-0.076-1.018,0.28-3.105,0.323-3.727l0.107-2.388c0,0-0.25-2.728-0.25-3.86c0-0.28,0.968-4.007,3.55-7.928
			c0,0,5.355-9.505,5.017-15.72c0,0-0.079-5.931,2.083-9.292c0,0,1.529,16.791,0.494,21.507c0,0-4.813,11.579-3.767,20.22
			c0.786,6.424,2.296,20.167,3.83,25.592c0.792,2.802,0.323,9.883,0.965,11.643c0.286,0.768,0.131,1.462-0.481,3.222
			c-2.183,6.083-1.9,10.364,3.544,26.513c0,0,1.674,3.574,0.84,10.004c0,0-3.486,7.143-1.249,7.295c0,0,0.177,0.475,0.917,0.092
			c0,0,1.2,1.235,2.502,0.572c0,0,1.203,0.949,2.226,0.104c0,0,0.841,0.938,2.04,0.182c0,0,1.577,1.048,2.506-0.097
			c0,0,1.671,0.39-1.303-7.149c0,0-1.142-7.964-1.76-9.523c-1.184-2.983-0.353-11.1-0.091-12.854
			c0.405-2.904,0.192-7.879-0.563-11.722c-0.542-2.753,0.935-7.952,1.48-11.149c1.139-6.734,3.333-23.918,3.06-27.151l0.911,0.316
			c0.654,0,1.087-0.316,1.087-0.316c-0.277,3.245,1.918,20.417,3.065,27.151c0.542,3.197,2.021,8.396,1.479,11.149
			c-0.755,3.843-0.968,8.817-0.562,11.722c0.262,1.754,1.104,9.877-0.095,12.854c-0.627,1.56-1.757,9.523-1.757,9.523
			c-2.975,7.527-1.303,7.149-1.303,7.149c0.929,1.145,2.512,0.097,2.512,0.097c1.196,0.756,2.04-0.182,2.04-0.182
			c1.022,0.858,2.226-0.104,2.226-0.104c1.303,0.663,2.499-0.572,2.499-0.572c0.743,0.383,0.914-0.092,0.914-0.092
			c2.229-0.146-1.242-7.295-1.242-7.295c-0.838-6.43,0.84-10.004,0.84-10.004c5.443-16.148,5.724-20.43,3.544-26.513
			c-0.627-1.747-0.768-2.454-0.481-3.222c0.646-1.76,0.171-8.841,0.963-11.643c1.534-5.419,3.044-19.162,3.83-25.592
			c1.053-8.641-3.764-20.22-3.764-20.22c-1.035-4.716,0.493-21.507,0.493-21.507c2.162,3.361,2.083,9.292,2.083,9.292
			c-0.354,6.208,5.018,15.72,5.018,15.72c2.581,3.934,3.55,7.66,3.55,7.928c0,1.139-0.25,3.86-0.25,3.86l0.104,2.388
			c0.043,0.621,0.384,2.709,0.323,3.727c-0.39,6.198,0.59,5.041,0.59,5.041c0.853,0,1.748-5.005,1.748-5.005
			c0,1.291-0.311,5.163,0.39,6.625c0.834,1.717,1.431-0.311,1.443-0.706c0.219-7.929,0.694-5.858,0.694-5.858
			c0.462,6.431,1.028,7.88,2.058,7.38c0.773-0.377,0.067-7.702,0.067-7.702c1.327,4.341,2.332,5.06,2.332,5.06
			c2.186,1.517,0.834-2.715,0.523-3.543c-1.626-4.47-1.662-6.004-1.662-6.004c2.009,4.006,3.531,3.848,3.531,3.848
			C134.26,101.062,130.575,95.393,128.414,92.665z M90.466,80.903c0,0,0.192-0.487,2.287,1.19h1.184h0.101h1.184
			c2.095-1.689,2.296-1.19,2.296-1.19l-1.498,1.97v0.88c-0.085,0.703-0.828,0.91-0.828,0.91h-1.154h-0.119h-1.16
			c0,0-0.74-0.194-0.822-0.91v-0.88L90.466,80.903z M90.466,84.344c0,0,0.192-0.49,2.287,1.172h1.184h0.101h1.184
			c2.095-1.674,2.296-1.172,2.296-1.172l-1.498,1.964v0.874c-0.085,0.697-0.828,0.911-0.828,0.911h-1.154h-0.119h-1.16
			c0,0-0.74-0.201-0.822-0.911v-0.874L90.466,84.344z M85.22,101.933l-1.732,0.085c-0.475,0.243-0.862,1.108-1.349,1.692
			c-0.566,0.713,0,3.623,0,3.623l-3.501-0.072c0,0,0.383-2.966-0.911-3.721c0,0-1.422-1.145,0.043-2.838
			c0,0-0.006-2.631,2.088-1.852c0.323,0.135,0.6,0.28,0.709,1.34c0,0,1.391,0.986,2.207-0.828c0,0,0.518-0.657,1.498,0.28
			l1.297,0.986C85.577,100.642,86.605,101.299,85.22,101.933z M110.22,100.702c1.455,1.687,0.042,2.838,0.042,2.838
			c-1.303,0.755-0.913,3.714-0.913,3.714l-3.501,0.073c0,0,0.578-2.91,0-3.623c-0.476-0.591-0.865-1.443-1.334-1.687l-1.729-0.085
			c-1.382-0.64-0.365-1.291-0.365-1.291l1.304-0.999c0.98-0.938,1.491-0.268,1.491-0.268c0.822,1.802,2.211,0.828,2.211,0.828
			c0.115-1.072,0.384-1.218,0.7-1.34C110.226,98.071,110.22,100.702,110.22,100.702z M109.556,91.685
			c0.158,1.235,0.657,3.306-3.507,4.371c0,0-2.004,0.701-0.749,1.895c0,0,0.396,0.438-1.522,0.554c0,0-1.827,2.362-2.893,1.297
			c-0.594-0.597-1.105-1.022-3.157,0.944c0,0-1.452,1.145-3.118,0.279c0,0-1.294-0.603,0.749-1.224c0,0,6.013-1.06,5.169-5.517
			c-0.667-3.544-4.415-0.98-5.642-0.273l-0.855,0.225l0.101,0.019h-0.183l0.094-0.019l-0.846-0.225
			c-1.224-0.707-4.972-3.271-5.645,0.273c-0.84,4.457,5.169,5.517,5.169,5.517c2.052,0.634,0.749,1.224,0.749,1.224
			c-1.659,0.865-3.118-0.279-3.118-0.279c-2.046-1.967-2.558-1.541-3.151-0.944c-1.065,1.065-2.88-1.297-2.88-1.297
			c-1.945-0.116-1.541-0.554-1.541-0.554c1.26-1.182-0.746-1.895-0.746-1.895c-4.186-1.065-3.681-3.136-3.504-4.371
			c0.436-3.197,3.255-4.808,5.148-5.593c4.448-1.86,6.61,0.728,8.102,2.208c0.405,0.396,1.258,0.932,2.083,0.979h0.374
			c0.828-0.048,1.69-0.584,2.095-0.979c1.489-1.474,3.647-4.062,8.09-2.208C106.298,86.883,109.111,88.487,109.556,91.685z"/>
	</g>
</g>
<g>
</g>
<g>
</g>
<g>
</g>
<g>
</g>
<g>
</g>
<g>
</g>
<g>
</g>
<g>
</g>
<g>
</g>
<g>
</g>
<g>
</g>
<g>
</g>
<g>
</g>
<g>
</g>
<g>
</g>
</svg>
