<?xml version="1.0" encoding="iso-8859-1"?>
<!-- Generator: Adobe Illustrator 16.0.0, SVG Export Plug-In . SVG Version: 6.00 Build 0)  -->
<!DOCTYPE svg PUBLIC "-//W3C//DTD SVG 1.1//EN" "http://www.w3.org/Graphics/SVG/1.1/DTD/svg11.dtd">
<svg version="1.1" id="Capa_1" xmlns="http://www.w3.org/2000/svg" xmlns:xlink="http://www.w3.org/1999/xlink" x="0px" y="0px"
	 width="140.078px" height="140.078px" viewBox="0 0 140.078 140.078" style="enable-background:new 0 0 140.078 140.078;"
	 xml:space="preserve">
<g>
	<path d="M85.856,36.099c-1.073-0.229-2.222-0.021-3.163,0.566c-0.928,0.605-1.587,1.551-1.828,2.651
		c-0.594,2.808-2.91,13.957-4.661,27.59h-1.979V10.862c0-2.315-1.873-4.186-4.183-4.186c-2.32,0-4.18,1.871-4.18,4.186v56.044
		h-1.983c-1.749-13.639-4.058-24.782-4.658-27.59c-0.241-1.1-0.895-2.046-1.824-2.651c-0.931-0.594-2.075-0.802-3.166-0.566
		C22.815,42.979,0,71.333,0,103.513c0,7.864,1.39,15.756,4.148,23.42c0.493,1.368,1.653,2.381,3.059,2.688
		c0.717,0.153,17.806,3.781,32.022,3.781c0.017,0,0.017,0,0.017,0c9.362,0,15.532-1.614,18.835-4.92
		c8.875-8.865,8.838-32.427,6.75-53.204h10.421c-2.091,20.777-2.129,44.346,6.747,53.204c3.301,3.306,9.466,4.92,18.845,4.92
		c14.217,0,31.312-3.628,32.022-3.781c1.423-0.307,2.585-1.324,3.081-2.688c2.741-7.664,4.131-15.545,4.131-23.42
		C140.083,71.333,117.276,42.974,85.856,36.099z M52.173,122.572c-0.577,0.575-3.217,2.46-12.927,2.46c0,0,0,0-0.017,0
		c-10.377,0-22.89-2.163-27.954-3.148c-1.929-6.05-2.909-12.214-2.909-18.37c0-26.851,18.069-50.681,43.549-58.191
		C57.199,72,61.48,113.259,52.173,122.572z M128.834,121.894c-5.089,0.975-17.589,3.142-27.973,3.142
		c-9.721,0-12.368-1.889-12.948-2.464c-9.291-9.302-5.023-50.555,0.253-77.245c25.489,7.51,43.539,31.335,43.539,58.193
		C131.721,109.669,130.759,115.833,128.834,121.894z"/>
</g>
<g>
</g>
<g>
</g>
<g>
</g>
<g>
</g>
<g>
</g>
<g>
</g>
<g>
</g>
<g>
</g>
<g>
</g>
<g>
</g>
<g>
</g>
<g>
</g>
<g>
</g>
<g>
</g>
<g>
</g>
</svg>
