<?xml version="1.0" encoding="iso-8859-1"?>
<!-- Generator: Adobe Illustrator 16.0.0, SVG Export Plug-In . SVG Version: 6.00 Build 0)  -->
<!DOCTYPE svg PUBLIC "-//W3C//DTD SVG 1.1//EN" "http://www.w3.org/Graphics/SVG/1.1/DTD/svg11.dtd">
<svg version="1.1" id="Capa_1" xmlns="http://www.w3.org/2000/svg" xmlns:xlink="http://www.w3.org/1999/xlink" x="0px" y="0px"
	 width="168.067px" height="168.066px" viewBox="0 0 168.067 168.066" style="enable-background:new 0 0 168.067 168.066;"
	 xml:space="preserve">
<g>
	<g>
		<path d="M74.913,42.315l-0.074,0.074c-0.631,0.348-0.979,0.774-0.979,1.149c0,1.042,2.554,2.202,5.977,2.202
			c1.038,0,2.041-0.112,2.931-0.309v-2.269c-0.84,0.167-1.759,0.268-2.705,0.268C77.928,43.42,76.1,42.999,74.913,42.315z"/>
		<path d="M75.352,39.341c-0.572,0.342-0.919,0.712-0.919,1.06c0,0.979,2.407,2.068,5.624,2.068c0.953,0,1.878-0.103,2.708-0.28
			v-1.998c-0.757,0.132-1.575,0.209-2.412,0.209C78.48,40.411,76.538,40.042,75.352,39.341z"/>
		<path d="M79.004,33.541c-0.974,0.331-1.609,0.854-1.609,1.357c0,0.807,1.576,1.699,3.849,1.699c0.534,0,1.048-0.057,1.524-0.153
			V34.87l-0.594,0.055C80.684,34.908,79.463,34.348,79.004,33.541z"/>
		<path d="M77.395,36.471c-1.52,0.372-2.22,0.949-2.22,1.33l0.354,0.542l0.191,0.126c0.796,0.525,2.433,1.006,4.639,1.006
			c0.846,0,1.67-0.077,2.408-0.218v-1.855c-0.481,0.096-1.001,0.131-1.524,0.131C79.636,37.532,78.259,37.117,77.395,36.471z"/>
		<path d="M76.956,53.003c-2.194-0.045-4.043-1.323-4.936-3.172c-0.016,0.61,0.086,1.245,0.299,1.833
			c0.434,1.177,1.272,2.089,2.353,2.588c1.001,0.449,2.122,0.481,3.149,0.096c1.17-0.443,1.865-1.463,2.347-2.426
			c-0.839,0.587-1.871,1.082-3.116,1.082H76.956z"/>
		<path d="M76.368,55.552c-0.705,0-1.411-0.151-2.085-0.454c-0.872-0.397-1.595-1.048-2.15-1.833l0.161,0.583
			c0.406,1.223,1.223,2.18,2.244,2.639c0.852,0.38,1.793,0.391,2.649,0.039c0.635-0.273,1.104-0.754,1.48-1.294l0.027-0.09
			l0.073-0.211l-0.604,0.301C77.581,55.445,76.977,55.552,76.368,55.552z"/>
		<path d="M75.903,57.713c-0.593,0-1.186-0.123-1.753-0.375c-0.577-0.262-1.092-0.648-1.541-1.135
			c0.399,1.177,1.106,2.055,1.973,2.44c0.657,0.298,1.333,0.276,1.979-0.049c0.561-0.273,0.967-0.796,1.298-1.373l-0.308,0.163
			C77.019,57.598,76.458,57.713,75.903,57.713z"/>
		<path d="M73.186,44.436l-0.017,0.184c0,2.628,2.871,4.762,6.395,4.762c1.13,0,2.241-0.229,3.204-0.643v-2.355
			c-0.914,0.186-1.909,0.298-2.931,0.298C76.576,46.671,73.993,45.751,73.186,44.436z"/>
		<path d="M90.272,35.699l0.184-0.153l0.334-0.643c0-0.514-0.64-1.032-1.614-1.357c-0.454,0.812-1.67,1.378-3.166,1.378
			l-0.596-0.055v1.574c0.481,0.101,0.995,0.153,1.524,0.153C88.448,36.597,89.637,36.197,90.272,35.699z"/>
		<path d="M72.52,46.189l-0.135,1.12c0,2.618,2.017,4.703,4.596,4.763h0.078c1.569,0,2.779-0.99,3.661-1.828l-1.155,0.08
			C76.223,50.307,73.405,48.565,72.52,46.189z"/>
		<path d="M93.892,55.098c-0.668,0.303-1.368,0.454-2.079,0.454c-0.607,0-1.215-0.118-1.793-0.342l-0.603-0.297l0.07,0.207
			l0.027,0.09c0.371,0.556,0.842,1.037,1.482,1.294c0.854,0.353,1.795,0.347,2.643-0.039c1.025-0.459,1.834-1.417,2.244-2.64
			l0.149-0.566C95.484,54.061,94.764,54.701,93.892,55.098z"/>
		<path d="M91.221,53.003h-0.104c-1.247,0-2.274-0.494-3.124-1.082c0.476,0.963,1.182,1.983,2.348,2.426
			c1.033,0.386,2.145,0.353,3.151-0.096c1.08-0.5,1.915-1.412,2.35-2.588c0.225-0.583,0.317-1.223,0.305-1.833
			C95.26,51.691,93.405,52.958,91.221,53.003z"/>
		<path d="M92.28,57.713c-0.56,0-1.116-0.115-1.652-0.339l-0.309-0.164c0.328,0.582,0.738,1.1,1.293,1.373
			c0.636,0.331,1.317,0.348,1.979,0.049c0.87-0.375,1.575-1.264,1.976-2.448c-0.448,0.495-0.963,0.886-1.536,1.137
			C93.465,57.585,92.869,57.713,92.28,57.713z"/>
		<path d="M115.408,83.272c-0.996-1.236-2.275-2.917-2.643-3.89c-0.607-1.68-1.057-7.064-1.057-7.064
			c-0.191-6.373-1.751-9.131-1.751-9.131c-2.689-4.309-3.189-12.32-3.189-12.32l-0.121-13.554C105.712,28.066,98.882,28,98.882,28
			c-6.889-1.037-7.841-3.25-7.841-3.25c-1.456-2.096-0.624-6.124-0.624-6.124c1.209-0.987,1.675-3.603,1.675-3.603
			c2.003-1.53,1.91-3.795,0.99-3.772c-0.75,0.019-0.58-0.594-0.58-0.594C93.755,0.503,84.741,0,84.741,0h-1.38
			c0,0-9.015,0.515-7.759,10.657c0,0,0.168,0.613-0.582,0.594c-0.926-0.022-1.015,2.232,0.99,3.772c0,0,0.464,2.616,1.676,3.603
			c0,0,0.829,4.027-0.628,6.124c0,0-0.959,2.219-7.844,3.25c0,0-6.824,0.066-7.76,9.314l-0.123,13.554c0,0-0.5,8.023-3.194,12.32
			c0,0-1.563,2.758-1.749,9.131c0,0-0.455,5.384-1.064,7.064c-0.365,0.985-1.642,2.653-2.64,3.89
			c-1.955,2.452-5.257,7.546-3.502,8.11c0,0,1.373,0.131,3.185-3.459c0,0-0.036,1.379-1.497,5.396
			c-0.273,0.754-1.492,4.552,0.47,3.185c0,0,0.909-0.625,2.096-4.548c0,0-0.64,6.594,0.061,6.922
			c0.924,0.448,1.432-0.843,1.849-6.627c0,0,0.428-1.863,0.624,5.259c0.011,0.357,0.558,2.188,1.305,0.635
			c0.627-1.308,0.348-4.787,0.348-5.953c0,0,0.812,4.498,1.569,4.498c0,0,0.892,1.051,0.532-4.531
			c-0.063-0.914,0.248-2.79,0.292-3.349l0.084-2.145c0,0-0.225-2.451-0.225-3.469c0-0.252,0.88-3.603,3.199-7.126
			c0,0,4.814-8.542,4.506-14.125c0,0-0.068-5.329,1.871-8.351c0,0,1.379,15.089,0.443,19.328c0,0-4.331,10.404-3.379,18.169
			c0.706,5.772,2.068,18.123,3.444,22.998c0.714,2.52,0.289,8.881,0.877,10.463c0.25,0.689,0.122,1.312-0.439,2.895
			c-1.951,5.467-1.702,9.313,3.188,23.825c0,0,1.503,3.212,0.747,8.99c0,0-3.126,6.419-1.121,6.556c0,0,0.17,0.427,0.833,0.082
			c0,0,1.079,1.111,2.25,0.515c0,0,1.08,0.854,2.005,0.093c0,0,0.75,0.842,1.833,0.164c0,0,1.417,0.941,2.256-0.088
			c0,0,1.502,0.351-1.171-6.422c0,0-1.025-7.157-1.587-8.559c-1.07-2.684-0.311-9.977-0.082-11.553
			c0.376-2.609,0.178-7.081-0.5-10.532c-0.488-2.475,0.848-7.147,1.335-10.021c1.023-6.052,3-21.494,2.753-24.399l0.818,0.284
			c0.595,0,0.978-0.284,0.978-0.284c-0.246,2.917,1.724,18.348,2.749,24.399c0.481,2.873,1.822,7.546,1.335,10.021
			c-0.678,3.451-0.878,7.923-0.503,10.532c0.236,1.576,0.998,8.875-0.082,11.553c-0.563,1.401-1.584,8.559-1.584,8.559
			c-2.673,6.762-1.171,6.422-1.171,6.422c0.834,1.029,2.252,0.088,2.252,0.088c1.083,0.678,1.835-0.164,1.835-0.164
			c0.925,0.771,2.003-0.093,2.003-0.093c1.168,0.597,2.246-0.515,2.246-0.515c0.668,0.345,0.832-0.082,0.832-0.082
			c1.997-0.132-1.122-6.556-1.122-6.556c-0.747-5.778,0.756-8.99,0.756-8.99c4.892-14.512,5.138-18.358,3.185-23.825
			c-0.563-1.57-0.689-2.205-0.438-2.895c0.579-1.582,0.153-7.943,0.864-10.463c1.386-4.87,2.741-17.221,3.449-22.998
			c0.944-7.765-3.384-18.169-3.384-18.169c-0.936-4.239,0.443-19.328,0.443-19.328c1.938,3.021,1.871,8.351,1.871,8.351
			c-0.317,5.578,4.51,14.125,4.51,14.125c2.316,3.535,3.195,6.884,3.195,7.126c0,1.022-0.225,3.469-0.225,3.469l0.088,2.145
			c0.038,0.559,0.351,2.435,0.29,3.349c-0.355,5.582,0.536,4.531,0.536,4.531c0.757,0,1.565-4.498,1.565-4.498
			c0,1.16-0.28,4.64,0.35,5.953c0.756,1.544,1.293-0.277,1.303-0.635c0.196-7.122,0.625-5.259,0.625-5.259
			c0.416,5.774,0.925,7.075,1.85,6.627c0.7-0.339,0.061-6.922,0.061-6.922c1.186,3.901,2.094,4.548,2.094,4.548
			c1.965,1.367,0.744-2.441,0.471-3.185c-1.461-4.018-1.499-5.396-1.499-5.396c1.816,3.601,3.179,3.459,3.179,3.459
			C120.668,90.818,117.353,85.725,115.408,83.272z M96.951,53.494c0.055,0.695-0.085,1.604-0.394,2.69
			c-0.448,1.575-1.391,2.779-2.577,3.307l-1.313,0.279l-1.461-0.347c-1.476-0.733-2.14-2.572-2.534-3.801
			c-0.514-0.782-0.842-1.627-1.08-2.251l-0.252-0.621l-0.038-0.187l-0.619-1.333l-0.283-0.621l-0.037-0.142l-0.489-0.47l-0.115-0.14
			l-0.339-0.118v0.069c0,0.733-0.594,1.321-1.315,1.321c-0.734,0-1.324-0.588-1.324-1.321V49.74l-0.336,0.118l-0.113,0.14
			l-0.485,0.47l-0.039,0.142l-0.274,0.621l-0.629,1.333l-0.038,0.187l-0.247,0.621c-0.241,0.624-0.572,1.48-1.083,2.251
			c-0.397,1.229-1.058,3.067-2.536,3.801l-1.459,0.347l-1.315-0.273c-1.193-0.534-2.129-1.738-2.584-3.312
			c-0.191-0.677-0.287-1.388-0.282-2.113l0.02-0.102c-0.389-1.226-0.471-2.335-0.25-3.294l0.025-0.06
			c-0.119-0.941-0.011-1.902,0.341-2.791l-0.03-0.533c0-1.021,0.261-2.005,0.759-2.887l0.044-0.049l0.218-1.209
			c0.247-0.722,0.667-1.384,1.246-1.978l-0.214-0.791c0-0.46,0.214-1.091,1.086-1.699l-0.346-0.911c0-0.887,0.885-1.636,2.454-2.106
			l-0.236-0.802c0-0.982,0.892-1.817,2.388-2.276c0.189-1.053,1.573-1.825,3.333-1.825l0.465,0.465l-0.465,0.465
			c-1.395,0-2.438,0.585-2.438,1.125c0,0.539,1.043,1.127,2.438,1.127l0.684-0.069c0.187-0.503,0.668-0.862,1.239-0.862
			c0.567,0,1.054,0.359,1.237,0.862l0.678,0.069c1.349,0,2.343-0.555,2.427-1.063V32.83l0.004-0.011
			c-0.017-0.525-1.051-1.114-2.431-1.114L85.57,31.24l0.464-0.465c1.761,0,3.146,0.783,3.338,1.825
			c1.475,0.46,2.376,1.305,2.376,2.276l-0.229,0.802c1.559,0.465,2.455,1.22,2.455,2.106l-0.35,0.914
			c0.887,0.599,1.083,1.248,1.083,1.696l-0.214,0.78c0.893,0.919,1.401,2.022,1.467,3.182c0.517,0.882,0.799,1.893,0.799,2.93
			l-0.025,0.539l0.01,0.022c0.383,1,0.476,2.084,0.284,3.143l0,0c0.149,0.824,0.114,1.664-0.055,2.477L96.951,53.494z"/>
		<path d="M95.008,44.676l-0.094-0.123c-0.884,1.265-3.414,2.129-6.571,2.129c-1.025,0-2.015-0.112-2.93-0.298v2.355
			c0.968,0.413,2.079,0.643,3.206,0.643C92.114,49.377,94.964,47.27,95.008,44.676z"/>
		<path d="M94.325,43.538c0-0.392-0.393-0.828-1.078-1.204c-1.182,0.67-3.008,1.086-5.127,1.086c-0.942,0-1.866-0.105-2.701-0.268
			v2.263c0.897,0.197,1.905,0.314,2.931,0.314C91.766,45.729,94.325,44.57,94.325,43.538z"/>
		<path d="M93.489,40.971l0.025-0.043l0.017-0.019l0.216-0.509c0-0.348-0.331-0.729-0.916-1.06c-1.177,0.701-3.128,1.06-5.016,1.06
			c-0.834,0-1.652-0.078-2.406-0.209v1.989c0.828,0.186,1.748,0.289,2.701,0.289C90.712,42.479,92.789,41.769,93.489,40.971z"/>
		<path d="M93.005,37.801c0-0.395-0.771-0.969-2.221-1.33c-0.863,0.646-2.239,1.062-3.851,1.062c-0.525,0-1.044-0.052-1.525-0.131
			v1.855c0.743,0.142,1.558,0.218,2.406,0.218C90.987,39.475,93.005,38.484,93.005,37.801z"/>
		<path d="M95.792,47.309l-0.141-1.103c-0.883,2.364-3.701,4.101-7.027,4.101l-1.161-0.073c0.899,0.859,2.156,1.865,3.738,1.827
			C93.774,52.011,95.792,49.926,95.792,47.309z"/>
	</g>
</g>
<g>
</g>
<g>
</g>
<g>
</g>
<g>
</g>
<g>
</g>
<g>
</g>
<g>
</g>
<g>
</g>
<g>
</g>
<g>
</g>
<g>
</g>
<g>
</g>
<g>
</g>
<g>
</g>
<g>
</g>
</svg>
