<?xml version="1.0" encoding="iso-8859-1"?>
<!-- Generator: Adobe Illustrator 16.0.0, SVG Export Plug-In . SVG Version: 6.00 Build 0)  -->
<!DOCTYPE svg PUBLIC "-//W3C//DTD SVG 1.1//EN" "http://www.w3.org/Graphics/SVG/1.1/DTD/svg11.dtd">
<svg version="1.1" id="Capa_1" xmlns="http://www.w3.org/2000/svg" xmlns:xlink="http://www.w3.org/1999/xlink" x="0px" y="0px"
	 width="185.404px" height="185.405px" viewBox="0 0 185.404 185.405" style="enable-background:new 0 0 185.404 185.405;"
	 xml:space="preserve">
<g>
	<g>
		<path d="M86.089,76.982c11.835,8.752,19.592,0.742,21.935-4.336c4.492-9.732,1.575-14.356-1.686-17.164
			c-4.17-3.581-7.562-1.226-9.543,0.107c-4.334,2.909-3.825-7.415-3.825-7.415h-4.234c-0.107,9.007,1.378,9.964,3.178,11.024
			c4.225,2.481,3.45,4.694,3.174,6.464c-1.33,8.596-9.647,6.406-13.245,5.946c-6.941-0.907-6.78,11.115-6.78,11.115h4.129
			C79.518,72.433,84.292,75.661,86.089,76.982z"/>
		<path d="M137.059,37.543h-20.284c-2.217-6.506-7.709-6.66-7.709-6.66c-7.597-1.13-8.651-3.584-8.651-3.584
			c-1.61-2.315-0.691-6.752-0.691-6.752c1.336-1.089,1.85-3.967,1.85-3.967c2.217-1.705,2.106-4.186,1.089-4.159
			c-0.826,0.022-0.64-0.66-0.64-0.66C103.406,0.577,93.466,0,93.466,0h-1.517c0,0-9.945,0.577-8.559,11.762
			c0,0,0.185,0.682-0.644,0.66c-1.02-0.027-1.115,2.454,1.093,4.159c0,0,0.513,2.878,1.849,3.967c0,0,0.92,4.438-0.688,6.752
			c0,0-1.055,2.454-8.651,3.584c0,0-5.497,0.147-7.711,6.66h-20.29c-1.546,0-2.802,1.253-2.802,2.802v52.301
			c0,1.538,1.256,2.802,2.802,2.802h7.262c-1.514,2.446-2.617,4.947-1.349,5.346c0,0,1.512,0.148,3.513-3.819
			c0,0-0.041,1.526-1.648,5.953c-0.308,0.833-1.647,5.036,0.521,3.52c0,0,0.999-0.69,2.309-5.007c0,0-0.7,7.267,0.073,7.639
			c1.018,0.492,1.574-0.941,2.033-7.315c0,0,0.472-2.053,0.69,5.794c0.01,0.406,0.609,2.424,1.438,0.701
			c0.696-1.444,0.388-5.271,0.388-6.556c0,0,0.896,4.969,1.729,4.969c0,0,0.987,1.153,0.583-5.012
			c-0.065-1.008,0.282-3.076,0.325-3.678l0.096-2.364l-0.017-0.196h7.123c-0.159,1.739-0.225,3.457-0.028,5.077
			c0.777,6.369,2.273,19.989,3.798,25.357c0.79,2.779,0.32,9.795,0.962,11.546c0.282,0.755,0.138,1.455-0.481,3.185
			c-2.15,6.029-1.877,10.276,3.518,26.275c0,0,1.662,3.547,0.825,9.922c0,0-3.446,7.086-1.238,7.228c0,0,0.178,0.472,0.92,0.099
			c0,0,1.193,1.231,2.482,0.569c0,0,1.193,0.947,2.212,0.11c0,0,0.825,0.94,2.018,0.175c0,0,1.564,1.05,2.49-0.094
			c0,0,1.653,0.367-1.293-7.085c0,0-1.125-7.902-1.748-9.45c-1.181-2.95-0.345-11.01-0.093-12.745
			c0.413-2.883,0.194-7.813-0.556-11.622c-0.538-2.726,0.936-7.878,1.475-11.053c1.125-6.677,3.311-23.705,3.036-26.917l0.906,0.312
			c0.658,0,1.074-0.312,1.074-0.312c-0.277,3.212,1.91,20.24,3.033,26.917c0.536,3.162,2.008,8.316,1.477,11.053
			c-0.753,3.819-0.974,8.75-0.558,11.622c0.263,1.746,1.089,9.795-0.099,12.745c-0.613,1.537-1.748,9.45-1.748,9.45
			c-2.95,7.452-1.289,7.085-1.289,7.085c0.922,1.123,2.492,0.094,2.492,0.094c1.19,0.766,2.012-0.175,2.012-0.175
			c1.028,0.837,2.223-0.11,2.223-0.11c1.279,0.662,2.472-0.569,2.472-0.569c0.745,0.373,0.919-0.099,0.919-0.099
			c2.223-0.142-1.242-7.228-1.242-7.228c-0.826-6.375,0.827-9.922,0.827-9.922c5.396-15.999,5.668-20.246,3.515-26.275
			c-0.609-1.74-0.761-2.43-0.484-3.185c0.647-1.745,0.176-8.755,0.965-11.546c1.522-5.368,3.021-18.999,3.797-25.357
			c0.196-1.62,0.131-3.349-0.022-5.077h7.125l-0.016,0.196l0.104,2.364c0.043,0.602,0.378,2.681,0.317,3.678
			c-0.393,6.165,0.579,5.012,0.579,5.012c0.832,0,1.741-4.969,1.741-4.969c0,1.285-0.308,5.111,0.383,6.556
			c0.821,1.723,1.434-0.295,1.444-0.701c0.219-7.847,0.689-5.794,0.689-5.794c0.459,6.374,1.018,7.808,2.026,7.315
			c0.775-0.372,0.075-7.639,0.075-7.639c1.308,4.316,2.311,5.007,2.311,5.007c2.167,1.517,0.818-2.687,0.523-3.52
			c-1.606-4.421-1.652-5.953-1.652-5.953c1.997,3.968,3.515,3.819,3.515,3.819c1.268-0.398,0.151-2.91-1.348-5.346h7.256
			c1.545,0,2.801-1.264,2.801-2.802V40.345C139.859,38.796,138.604,37.543,137.059,37.543z M134.257,89.846H51.144V43.147h83.113
			V89.846z"/>
	</g>
</g>
<g>
</g>
<g>
</g>
<g>
</g>
<g>
</g>
<g>
</g>
<g>
</g>
<g>
</g>
<g>
</g>
<g>
</g>
<g>
</g>
<g>
</g>
<g>
</g>
<g>
</g>
<g>
</g>
<g>
</g>
</svg>
