<?xml version="1.0" encoding="iso-8859-1"?>
<!-- Generator: Adobe Illustrator 16.0.0, SVG Export Plug-In . SVG Version: 6.00 Build 0)  -->
<!DOCTYPE svg PUBLIC "-//W3C//DTD SVG 1.1//EN" "http://www.w3.org/Graphics/SVG/1.1/DTD/svg11.dtd">
<svg version="1.1" id="Capa_1" xmlns="http://www.w3.org/2000/svg" xmlns:xlink="http://www.w3.org/1999/xlink" x="0px" y="0px"
	 width="168.099px" height="168.1px" viewBox="0 0 168.099 168.1" style="enable-background:new 0 0 168.099 168.1;"
	 xml:space="preserve">
<g>
	<g>
		<path d="M114.977,84.494c-0.975-1.234-2.239-2.875-2.6-3.85c-0.607-1.652-1.051-6.96-1.051-6.96
			c-0.187-6.262-1.733-8.988-1.733-8.988c-2.655-4.24-3.154-12.153-3.154-12.153l-0.119-13.357c-0.923-9.116-7.65-9.19-7.65-9.19
			c-6.785-1.014-7.732-3.192-7.732-3.192h-0.07c-0.683-1.095-4.618-7.628-2.655-10.553c0,0,2.688-3.669,2.733-5.669
			c0,0,0.665-3.378-2.825-7.146c-1.683-1.809-3.896-3.483-9.281-3.434c-2.106,0.017-5.31,0.572-7.765,3.256
			c-1.49,1.62-2.566,3.647-2.197,6.941c0.079,0.719,1.116,1.519,0.422,2.919l-1.442,3.19c0,0-0.01,0.824,1.261,0.824
			c0,0,0.327,0.033,0.241,0.745v1.025c0,0,0.048,0.315,0.605,0.481l-0.043,0.315c0,0-0.293,0.342,0.229,1.042
			c0.198,0.257,0.499,0.577,0.327,1.242c0,0-0.214,1.283,0.294,1.592c0,0,0.583,0.673,2.893,0.348
			c0.808-0.118,2.299-0.534,3.203,0.577c0,0,0.159,1.338,0.315,2.309H77.16c0,0-0.948,2.189-7.732,3.198
			c0,0-6.726,0.068-7.651,9.185l-0.117,13.357c0,0-0.493,7.913-3.149,12.154c0,0-1.542,2.724-1.728,8.992
			c0,0-0.446,5.308-1.048,6.96c-0.357,0.974-1.623,2.616-2.599,3.844c-1.926,2.402-5.182,7.431-3.445,7.983
			c0,0,1.349,0.131,3.144-3.398c0,0-0.035,1.357-1.473,5.303c-0.275,0.75-1.475,4.504,0.465,3.151c0,0,0.892-0.617,2.068-4.475
			c0,0-0.63,6.5,0.059,6.839c0.914,0.438,1.412-0.837,1.823-6.539c0,0,0.417-1.833,0.616,5.188c0.004,0.355,0.549,2.167,1.282,0.624
			c0.621-1.281,0.347-4.723,0.347-5.872c0,0,0.802,4.444,1.542,4.444c0,0,0.88,1.033,0.527-4.477
			c-0.063-0.897,0.248-2.741,0.29-3.283l0.086-2.113c0,0-0.224-2.429-0.224-3.424c0-0.252,0.866-3.549,3.149-7.029
			c0,0,4.747-8.427,4.437-13.924c0,0-0.068-5.255,1.844-8.224c0,0,1.361,14.871,0.439,19.05c0,0-4.272,10.246-3.331,17.907
			c0.695,5.69,2.033,17.866,3.396,22.659c0.7,2.487,0.282,8.758,0.857,10.326c0.248,0.668,0.126,1.291-0.43,2.845
			c-1.923,5.396-1.678,9.188,3.149,23.481c0,0,1.483,3.162,0.733,8.865c0,0-3.082,6.331-1.102,6.458c0,0,0.161,0.414,0.817,0.085
			c0,0,1.064,1.096,2.218,0.499c0,0,1.064,0.849,1.979,0.098c0,0,0.733,0.832,1.802,0.164c0,0,1.4,0.93,2.225-0.088
			c0,0,1.479,0.353-1.155-6.324c0,0-1.001-7.064-1.557-8.444c-1.053-2.648-0.313-9.839-0.084-11.398
			c0.369-2.565,0.176-6.976-0.493-10.38c-0.476-2.451,0.835-7.059,1.317-9.888c1.008-5.959,2.959-21.171,2.71-24.056l0.814,0.279
			c0.587,0,0.959-0.279,0.959-0.279c-0.241,2.885,1.701,18.097,2.711,24.056c0.477,2.829,1.789,7.437,1.313,9.888
			c-0.665,3.394-0.865,7.814-0.492,10.38c0.234,1.56,0.974,8.756-0.088,11.398c-0.554,1.38-1.557,8.444-1.557,8.444
			c-2.636,6.659-1.154,6.324-1.154,6.324c0.825,1.018,2.221,0.088,2.221,0.088c1.06,0.668,1.798-0.164,1.798-0.164
			c0.909,0.761,1.98-0.098,1.98-0.098c1.157,0.597,2.217-0.499,2.217-0.499c0.662,0.345,0.821-0.085,0.821-0.085
			c1.975-0.127-1.101-6.458-1.101-6.458c-0.748-5.703,0.738-8.865,0.738-8.865c4.821-14.304,5.069-18.09,3.146-23.481
			c-0.558-1.542-0.684-2.177-0.432-2.845c0.58-1.564,0.159-7.83,0.864-10.326c1.364-4.787,2.699-16.969,3.395-22.659
			c0.935-7.661-3.338-17.907-3.338-17.907c-0.925-4.179,0.436-19.05,0.436-19.05c1.909,2.963,1.852,8.224,1.852,8.224
			c-0.313,5.497,4.437,13.924,4.437,13.924c2.278,3.48,3.146,6.777,3.146,7.029c0,1-0.219,3.424-0.219,3.424l0.088,2.113
			c0.037,0.542,0.346,2.386,0.289,3.283c-0.354,5.499,0.525,4.477,0.525,4.477c0.746,0,1.543-4.444,1.543-4.444
			c0,1.149-0.273,4.575,0.347,5.872c0.737,1.527,1.278-0.269,1.284-0.624c0.196-7.021,0.612-5.188,0.612-5.188
			c0.41,5.702,0.914,6.977,1.824,6.539c0.688-0.339,0.058-6.839,0.058-6.839c1.172,3.854,2.063,4.475,2.063,4.475
			c1.938,1.346,0.738-2.408,0.466-3.151c-1.434-3.945-1.476-5.303-1.476-5.303c1.789,3.546,3.144,3.398,3.144,3.398
			C120.152,91.92,116.891,86.896,114.977,84.494z M75.573,22.141c-0.666,0.722-2.218,1.144-3.675,0.883
			c-0.287-0.044-0.751-0.61-0.353-1.742l-0.325-1.07l-0.13-0.605l0.684,0.085c1.267,0.285,4.118-0.364,4.97-1.357l-0.14-1.278
			c-1.242-0.651-3.396,1.368-5.631,0.775c0,0-0.774-0.112-0.219-0.865l0.348-0.524l-0.212-0.23l0.175-0.32l0.546-0.903l-1.349-1.557
			c0,0-0.481-0.314,0.086-0.678l0.582-0.676l-0.235-0.908l-0.426-1.138l0.733-2.124l0.063-1.406
			c0.443-2.331,1.476-4.298,8.341-4.897c0,0,4.888-0.818,7.6,2.47c0,0,4.742,5.059,0.75,9.929c0,0-2.061,2.145-4.304,2.068
			l-0.628-0.602c0,0-0.947-1.381-1.401-0.547c0,0-0.793,1.226-0.462,2.919c0,0,0.327,2.033-0.579,2.454
			C80.405,20.292,76.112,21.591,75.573,22.141z"/>
		<path d="M72.122,10.732l-0.208,0.897l0.684,0.931c-0.063,0.542-0.107,0.717,0.101,0.867c0.556,0.408,0.919-0.336,1.001-0.604
			C74.127,11.405,72.732,10.614,72.122,10.732z"/>
	</g>
</g>
<g>
</g>
<g>
</g>
<g>
</g>
<g>
</g>
<g>
</g>
<g>
</g>
<g>
</g>
<g>
</g>
<g>
</g>
<g>
</g>
<g>
</g>
<g>
</g>
<g>
</g>
<g>
</g>
<g>
</g>
</svg>
