<?xml version="1.0" encoding="iso-8859-1"?>
<!-- Generator: Adobe Illustrator 16.0.0, SVG Export Plug-In . SVG Version: 6.00 Build 0)  -->
<!DOCTYPE svg PUBLIC "-//W3C//DTD SVG 1.1//EN" "http://www.w3.org/Graphics/SVG/1.1/DTD/svg11.dtd">
<svg version="1.1" id="Capa_1" xmlns="http://www.w3.org/2000/svg" xmlns:xlink="http://www.w3.org/1999/xlink" x="0px" y="0px"
	 width="155.884px" height="155.884px" viewBox="0 0 155.884 155.884" style="enable-background:new 0 0 155.884 155.884;"
	 xml:space="preserve">
<g>
	<path d="M153.301,65.979c-0.322-0.131-0.896-0.393-1.692-0.761c-7.368-3.304-29.752-13.369-49.749-13.369
		c-1.139,0-2.253,0.03-3.409,0.101c-9.067,0.637-13.707,2.131-20.503,4.503c-6.622-2.313-11.28-3.849-20.514-4.503
		c-20.782-1.23-45.337,9.77-53.131,13.269c-0.792,0.356-1.364,0.618-1.69,0.749c-0.454,0.125-0.886,0.322-1.26,0.618
		c-0.81,0.63-1.309,1.595-1.352,2.63c-0.125,3.462,23.27,32.479,53.6,34.599c10.878,0.737,16.197-0.475,24.341-2.88
		c6.564,1.942,11.313,3.1,18.608,3.1c1.741,0,3.629-0.086,5.748-0.22c30.312-2.119,53.707-31.143,53.585-34.599
		C155.834,67.657,154.745,66.366,153.301,65.979z M56.98,58.858c8.635,0.6,12.456,1.939,19.839,4.527
		c0.718,0.25,1.945,0.125,2.7-0.137c6.954-2.439,10.784-3.785,19.382-4.385c15.284-0.94,32.979,5.486,43.367,9.847
		c-42.253,10.96-86.448,10.981-128.731,0.048c9.733-4.071,25.982-9.983,40.529-9.983C55.053,58.77,56.036,58.81,56.98,58.858z
		 M101.818,96.897c-10.151,0.706-14.906-0.536-22.884-2.91c-0.331-0.092-0.648-0.135-0.986-0.135c-0.322,0-0.654,0.049-0.986,0.135
		c-7.974,2.374-12.763,3.629-22.871,2.91c-17.314-1.206-32.042-12.666-40.398-20.959c21.071,5.285,42.575,8.093,64.106,8.093
		c21.688,0,43.31-2.838,64.512-8.193C133.968,84.146,119.184,95.691,101.818,96.897z"/>
</g>
<g>
</g>
<g>
</g>
<g>
</g>
<g>
</g>
<g>
</g>
<g>
</g>
<g>
</g>
<g>
</g>
<g>
</g>
<g>
</g>
<g>
</g>
<g>
</g>
<g>
</g>
<g>
</g>
<g>
</g>
</svg>
