<?xml version="1.0" encoding="iso-8859-1"?>
<!-- Generator: Adobe Illustrator 16.0.0, SVG Export Plug-In . SVG Version: 6.00 Build 0)  -->
<!DOCTYPE svg PUBLIC "-//W3C//DTD SVG 1.1//EN" "http://www.w3.org/Graphics/SVG/1.1/DTD/svg11.dtd">
<svg version="1.1" id="Capa_1" xmlns="http://www.w3.org/2000/svg" xmlns:xlink="http://www.w3.org/1999/xlink" x="0px" y="0px"
	 width="153.464px" height="153.464px" viewBox="0 0 153.464 153.464" style="enable-background:new 0 0 153.464 153.464;"
	 xml:space="preserve">
<g>
	<path d="M134.261,24.191C116.957-2.142,81.149,0.014,81.082,0.06l-2.414-0.012c-43.772,0-55.558,11.377-61.126,31.037
		c-0.74,2.6-1.376,9.66-1.376,10.022c-0.32,1.352-3.462,8.193-5.9,13.269c-3.197,4.29-0.019,9.77,2.177,12.108
		c0.917,1.19,0.767,2.643,0.63,3.285c-1.528,1.939-3.136,3.033-3.117,3.033c-2.862,1.534-3.611,3.501-3.748,4.865
		c-0.204,2.381,1.267,4.055,1.982,4.743c2.771,3.38,6.859,8.848,7.566,10.809c-0.095,0.438-1.361,1.504-2.481,1.997
		c-0.962,0.354-3.891,1.425-4.031,4.195c-0.048,0.969,0.295,1.882,0.98,2.648l-1.084,1.37c-2.177,2.515-2.919,4.944-2.189,7.191
		c0.755,2.375,3.017,3.721,4.339,4.019c7.733,2.979,17.598,1.164,25.333-0.864c3.629-0.944,7.079-1.851,9.74-1.851
		c1.516,0,2.63,0.279,3.176,0.548c0.478,0.834,0.405,3.849,0.012,4.555c-3.654,3.593-14.118,6.388-23.833,6.388
		c-3.267,0-6.104-0.342-8.193-1.048c-1.851-0.627-3.446-1.163-5.029-1.163c-0.134,0-0.664,0.03-0.795,0.055
		c-1.696,0.189-3.005,1.139-3.589,2.57c-1.042,2.562,0.81,5.419,2.183,7.088c1.668,1.729,0.904,4.316,0.91,4.316
		c0,0,0.006,0,0.006-0.006c-2.98,6.521-1.848,10.875-0.91,12.879c0.935,2.021,2.469,3.465,4.177,3.945
		c3.31,0.926,6.795,1.413,10.336,1.413c7.508,0,14.41-2.174,18.444-5.81c2.226-1.899,18.8-6.15,33.305-9.127
		c8.288-2.966,7.806-17.251,7.624-20.168c-1.014-10.595,4.421-17.914,4.439-18.401c0.858,0.201,2.886,2.618,3.909,4.445
		c1.534,4.293,5.072,6.175,5.486,6.375c0.305,0.146,0.639,0.256,0.962,0.299c1.229,0.171,2.46,0.243,3.678,0.243
		c15.192,0,29.069-12.087,29.825-12.757C164.597,65.524,134.451,24.443,134.261,24.191z M10.441,80.241l1.9-2.496
		c0.131,0.237,0.101,0.785-0.098,1.005c0.006,0,0.067-0.08,0.299-0.226L10.441,80.241z M100.479,105.012
		c-0.561-0.414-1.626-1.388-2.266-3.093c-1.011-1.925-4.725-8.159-9.499-8.159c-1.425,0-3.449,0.523-4.99,2.837
		c-0.286,0.384-7.002,9.243-5.748,22.28c0.317,5.151-0.718,12.818-3.075,13.683c-7.319,1.479-31.527,6.631-35.792,10.479
		c-2.886,2.6-8.36,4.22-14.279,4.22c-2.971,0-5.879-0.39-8.409-1.084c-0.499-0.359-1.976-2.966,0.566-8.579
		c0.712-1.992,1.172-5.84-0.715-9.067c9.085,2.734,30.153,0.354,37.667-7.045c1.945-1.918,2.363-5.657,2.119-8.275
		c-0.244-2.637-1.172-4.555-2.688-5.577c-4.338-2.93-11.042-1.772-18.313,0.121c-7.231,1.876-15.287,3.489-21.504,1.072
		c-0.012,0-0.04-0.013-0.052-0.013c-0.143,0-0.436,0.165-0.585,0.165c0-0.006,0.073-0.476,1.023-1.571l2.898-3.685
		c0.487-0.761,0.667-2.246,0.411-3.105c-0.03-0.133-0.073-0.249-0.125-0.383c3.385-1.942,5.849-5.279,4.491-9.109
		c-1.321-3.715-7.42-11.253-8.723-12.842c0.061-0.037,0.131-0.086,0.204-0.135c0.308-0.176,2.95-1.918,5.325-5.136
		c0.167-0.223,0.305-0.478,0.399-0.752c0.718-1.949,1.224-6.132-1.626-9.816c-1.142-1.208-2.469-3.641-1.641-4.85
		c1.422-2.865,6.074-12.416,6.747-15.545c0.243-2.761,0.792-7.733,1.227-9.265C27.631,18.278,34.616,6.271,78.649,6.271h2.631
		c0.268-0.04,19.352-1.148,35.165,9.045c-11.399,0.344-20.344,2.707-26.769,7.073c-0.347-0.034-0.669-0.046-1.011,0.042
		c-3.412,0.828-13.609,2.101-15.904-2.95c-0.709-1.571-2.555-2.238-4.125-1.546c-1.565,0.718-2.259,2.557-1.547,4.128
		c2.731,6.004,9.307,7.383,14.751,7.383c0.219,0,0.399-0.024,0.625-0.031c-2.427,3.584-4.028,7.819-4.713,12.763
		c-0.237,1.696,0.947,3.267,2.667,3.51c0.131,0.012,0.283,0.024,0.426,0.024c1.525,0,2.868-1.129,3.078-2.694
		c3.2-22.98,30.439-21.866,39.342-21.528c0.329,0.012,0.5,0.012,0.773,0.024c1.827,1.863,3.568,3.897,5.115,6.248
		c0.262,0.344,23.285,31.837,4.427,59.616c-0.201-0.104-0.39-0.22-0.615-0.268c-0.883-0.201-21.477-5.128-19.4-28.646
		c0.146-1.714-1.12-3.236-2.831-3.386c-1.675-0.049-3.245,1.129-3.38,2.837c-0.499,5.618,0.128,10.364,1.426,14.404
		c-4.421-0.213-10.413,1.397-15.613,8.136c-1.047,1.369-0.791,3.318,0.572,4.371c0.572,0.433,1.242,0.646,1.912,0.646
		c0.926,0,1.857-0.414,2.467-1.213c5.991-7.781,11.959-5.571,12.641-5.291c0.408,0.177,0.84,0.244,1.267,0.244
		c5.328,8.281,13.615,11.982,17.458,13.328c-0.457,0.512-0.805,1.023-1.291,1.535C128.056,94.204,114.13,106.522,100.479,105.012z
		 M34.877,76.101c-0.755,1.9-3.748,6.899-7.307,3.562c-1.285-1.2-0.874-2.436-0.094-6.178c0.387-1.826-2.731-4.016-4.092-7.039
		c-1.072-2.396-0.923-5.867,1.997-6.174C29.714,59.824,38.744,66.407,34.877,76.101z"/>
</g>
<g>
</g>
<g>
</g>
<g>
</g>
<g>
</g>
<g>
</g>
<g>
</g>
<g>
</g>
<g>
</g>
<g>
</g>
<g>
</g>
<g>
</g>
<g>
</g>
<g>
</g>
<g>
</g>
<g>
</g>
</svg>
