<?xml version="1.0" encoding="iso-8859-1"?>
<!-- Generator: Adobe Illustrator 16.0.0, SVG Export Plug-In . SVG Version: 6.00 Build 0)  -->
<!DOCTYPE svg PUBLIC "-//W3C//DTD SVG 1.1//EN" "http://www.w3.org/Graphics/SVG/1.1/DTD/svg11.dtd">
<svg version="1.1" id="Capa_1" xmlns="http://www.w3.org/2000/svg" xmlns:xlink="http://www.w3.org/1999/xlink" x="0px" y="0px"
	 width="243.427px" height="243.427px" viewBox="0 0 243.427 243.427" style="enable-background:new 0 0 243.427 243.427;"
	 xml:space="preserve">
<g>
	<g>
		<path d="M130.403,1.469c0,0-7.739-3.821-14.629,0.861c0,0-6.205,1.796-5.1,13.643c0,0,0.685,1.934,1.385,2.762
			c0,0-0.414,4.271,2.338,7.444c0,0,0.822,5.371,3.857,4.823l1.242-0.274c0,0,0.691,2.205,0.344,3.584c0,0-6.269,3.79-7.44,5.3
			c0,0-8.147,1.778-9.509,3.042c-2.487,2.296-6.409,3.236-5.581,12.334c0,0-1.653,3.723,0.542,8.96c0,0-5.23,8.543-4.957,19.163
			c0,0-6.068,3.446-7.718,14.882l-5.103,16.407c0,0-2.344,1.376-2.344,4.415c0,0-7.301,5.657-7.444,7.033
			c-0.131,1.37-0.411,0.542-0.411,0.542s-4.545,3.026-3.167,4.694c0,0,2.198,0.816,4.683-2.484c0,0,1.239,6.479-3.443,11.716
			c0,0-1.428,2.204,0.953,1.735c0,0,2.49-2.563,3.318-4.128c0,0-0.457,5.236-1.196,5.875c0,0-0.268,2.661,1.933,1.108l2.393-7.075
			c0,0,0.542,1.93-0.186,6.07c0,0,1.001,2.107,2.019-0.56l1.099-5.511c0,0,0.554,5.328,1.376,5.413c0,0,1.474,0.737,1.197-2.387
			l0.088-5.061c0,0,0.189-1.474,1.011-3.215c0,0,2.119-4.415,2.208-8.549c0,0,11.393-15.534,12.035-17.552
			c0,0,4.695-4.415,5.791-10.571c0,0,1.285-4.783,1.011-6.975c0,0,2.85-4.695,3.029-7.179c0,0,0.542,4.229-0.554,7.179
			c0,0-2.85,3.303-1.653,10.835c0,0-1.589,5.194-1.833,6.979c-1.267,9.027-0.643,30.412,2.021,36.392c0,0,3.857,14.528,9.551,21.227
			c0,0,0.088,11.667,3.13,16.728c0,0-2.487,14.797,3.581,26.749c0,0,4.683,7.076,3.86,17.366c0,0-4.415,5.603-5.24,7.441
			l-1.284,1.559c0,0-2.481,0.28-3.304,2.576c0,0-2.021,3.86-0.368,5.425l1.285,0.64c0,0,2.208,1.656,4.229-0.64
			c0,0,4.408,0.085,5.236-3.221c0,0,2.941-5.603,6.065-5.243c0,0,4.043-0.822,3.3-4.585c0,0-0.45-7.075-1.461-9.006v-19.102
			c0,0,3.117-10.485-3.77-21.233c0,0,0.183-23.254-1.656-29.13c0,0,1.285-11.125,0.646-14.054c0,0,7.91,17.549,9.554,19.662
			c0,0,0.561,4.969,1.748,6.345c0,0-0.177,8.829,3.403,11.496l2.576,3.574l0.177,12.318c0,0-0.555,4.312,2.85,9.743
			c0,0,3.264,4.293,5.321,16.732c0.092,0.548-0.45,8.086,3.033,9.195l5.693,7.355c0,0-0.365,4.402,3.495,4.402
			c0,0,2.575,2.393,4.043,1.297c0,0,3.13-2.473,2.204-7.715c0,0-0.268-3.41-3.952-6.893l-6.332-8.185c0,0-0.086-3.678-1.285-5.699
			c0,0-0.183-3.41,0.548-5.974c0,0,4.598-23.443-4.773-36.486c0,0-1.742-6.436-0.743-12.684c0,0-0.268-19.941-4.506-26.287
			c0,0-0.828-3.951-0.725-6.241c0,0,1.011-10.017-1.937-13.323c0,0-2.021-4.141-0.913-6.99c0,0,0.456-5.699-0.548-8.171
			c0,0-0.561-3.218,0.548-4.959c0,0,0.456-1.291,0.548-2.673c0,0,3.221-3.306,3.397-4.503c0,0,0.372,5.325,1.754,7.164
			c0,0,0.45,3.13-0.104,4.141c0,0-2.106,8.55,0.554,15.713c0,0,2.022,5.794,2.394,6.902c0,0,0,3.767,2.289,6.513
			c0,0,0.372,6.802,1.468,7.727c0,0-0.28,5.512,1.474,7.989c0,0,0,5.882-1.011,7.812c0,0-0.743,2.569,1.559,1.2
			c0,0,1.114-3.045,1.297-4.513c0,0,0.549-1.005,0.731,0.463c0,0-0.269,5.413-0.731,6.241c0,0,0.372,2.021,2.021,0.84
			c0,0,1.097-4.141,1.005-6.155c0,0,0.731-1.383,1.011,1.564c0,0-0.377,5.597,1.285,6.15c0,0,1.103,0.371,1.011-1.931l-0.268-6.99
			c0,0,0.815-0.268,0.913,1.846c0,0,0.92,5.869,1.931,6.059c0,0,2.484,0.645-0.177-10.291l-0.463-3.945c0,0,2.575,2.946,5.328,2.203
			c0,0,1.839-0.182-1.748-3.025c0,0-1.65-1.193-2.204-3.222c0,0-2.85-3.3-4.683-4.78c0,0-1.564-12.123-0.646-16.361
			c0,0,0.646-14.054-3.13-19.668c0,0-0.542-3.577,0.561-6.707c0,0,1.278-12.492-1.285-16.45c0,0,1.833-13.968-0.742-18.015
			c0,0-3.118-13.229-12.318-11.578c0,0-1.005-2.296-6.516-1.196c0,0-2.68-5.879-7.539-6.61c0,0-2.106-9.009-1.193-11.036
			C135.074,20.013,139.416,6.258,130.403,1.469z"/>
	</g>
</g>
<g>
</g>
<g>
</g>
<g>
</g>
<g>
</g>
<g>
</g>
<g>
</g>
<g>
</g>
<g>
</g>
<g>
</g>
<g>
</g>
<g>
</g>
<g>
</g>
<g>
</g>
<g>
</g>
<g>
</g>
</svg>
