<?xml version="1.0" encoding="iso-8859-1"?>
<!-- Generator: Adobe Illustrator 16.0.0, SVG Export Plug-In . SVG Version: 6.00 Build 0)  -->
<!DOCTYPE svg PUBLIC "-//W3C//DTD SVG 1.1//EN" "http://www.w3.org/Graphics/SVG/1.1/DTD/svg11.dtd">
<svg version="1.1" id="Capa_1" xmlns="http://www.w3.org/2000/svg" xmlns:xlink="http://www.w3.org/1999/xlink" x="0px" y="0px"
	 width="169.092px" height="169.092px" viewBox="0 0 169.092 169.092" style="enable-background:new 0 0 169.092 169.092;"
	 xml:space="preserve">
<g>
	<g>
		<path d="M147.55,26.172C128.655-2.593,89.49,0.064,89.49,0.064C34.888-0.465,25.216,14.572,19.979,33.092
			c-0.779,2.737-1.528,11.311-1.528,11.311c-0.667,2.944-7.396,16.581-7.396,16.581c-2.868,3.857,2.463,9.587,2.463,9.587
			c2.67,3.461,1.136,7.59,1.136,7.59c-2.396,3.264-5.127,4.999-5.127,4.999c-4.725,2.527-1.132,5.389-1.132,5.389
			s8.062,9.792,9.459,13.72c1.464,4.128-4.996,6.855-4.996,6.855c-3.261,1.2-2.262,2.162-1.602,2.473
			c2.107,0.992,1.464,1.997,1.464,1.997l-3.13,3.928c-4.926,5.724,1.065,7.179,1.065,7.179c17.199,6.656,35.68-8.02,45.014-1.717
			c2.156,1.438,1.982,8.562,0.131,10.382c-7.441,7.325-30.479,10.327-40.201,7.058c-2.274-0.768-3.982-1.358-5.343-1.193
			c-3.261,0.39,0.536,5.066,0.536,5.066c3.593,3.727,1.729,8.92,1.729,8.92c-3.998,8.787-0.725,13.768,1.464,14.383
			c11.316,3.209,23.848,0.998,29.697-4.263C48.236,159.231,83.1,152.15,83.1,152.15c7.456-2.661,6.391-19.442,6.391-19.442
			c-1.328-13.854,5.845-23.17,5.845-23.17c4.275-6.394,10.656,5.584,10.656,5.584c1.334,3.732,4.543,5.328,4.543,5.328
			c17.561,2.393,35.42-13.316,35.42-13.316C181.113,70.909,147.55,26.172,147.55,26.172z M35.866,86.412
			c-0.865,2.167-4.296,7.922-8.391,4.092c-1.474-1.395-0.999-2.795-0.101-7.106c0.436-2.101-3.136-4.6-4.694-8.086
			c-1.236-2.737-1.075-6.741,2.292-7.097C29.95,67.709,40.305,75.269,35.866,86.412z"/>
		<path d="M47.901,123.61c-1.166,0.286-2.469,0.719-3.928,1.248v5.736c1.291-0.438,2.6-0.938,3.928-1.486V123.61z"/>
		<path d="M42.363,125.443c-1.321,0.493-2.761,1.041-4.32,1.626v5.242c1.416-0.341,2.85-0.719,4.32-1.181V125.443z"/>
		<path d="M36.447,127.666c-0.588,0.219-1.172,0.42-1.796,0.646c-0.725,0.262-1.51,0.486-2.332,0.693v4.348
			c1.339-0.176,2.719-0.407,4.128-0.699V127.666z"/>
		<path d="M13.537,128.53c-1.148-0.322-2.274-0.706-3.398-1.15c-1.297-0.523-1.769,1.619-1.702,3.945
			c1.111,0.384,2.844,0.907,5.1,1.4V128.53z"/>
		<path d="M49.335,123.318h0.155v5.097c1.766-0.785,3.553-1.675,5.367-2.68l-0.371-0.633
			C53.356,123.386,51.685,122.965,49.335,123.318z"/>
		<path d="M30.723,129.353c-1.303,0.244-2.688,0.42-4.128,0.518v3.977c1.321-0.055,2.707-0.141,4.128-0.305V129.353z"/>
		<path d="M19.261,129.663c-1.37-0.158-2.75-0.39-4.125-0.713v4.074c1.251,0.225,2.63,0.426,4.125,0.584V129.663z"/>
		<path d="M24.993,129.955c-1.342,0.03-2.725-0.012-4.122-0.134v3.909c1.297,0.092,2.679,0.134,4.122,0.134V129.955z"/>
		<path d="M20.871,138.937c1.364,0.177,2.725,0.329,4.122,0.427v-3.903l-0.25,0.006c-1.361,0-2.646-0.049-3.873-0.134V138.937z"/>
		<path d="M32.319,139.198c1.285-0.127,2.648-0.353,4.128-0.645v-4.281c-1.41,0.286-2.789,0.506-4.128,0.682V139.198z"/>
		<path d="M38.049,138.2c1.346-0.305,2.773-0.664,4.32-1.121v-4.292c-1.47,0.444-2.911,0.84-4.32,1.163V138.2z"/>
		<path d="M43.973,136.604c1.233-0.383,2.542-0.815,3.928-1.297v-4.469c-1.328,0.535-2.637,1.017-3.928,1.442V136.604z"/>
		<path d="M49.484,134.741l0.475-0.17c2.095-0.768,6.309-3.416,5.462-7.308c-2.009,1.103-3.991,2.064-5.937,2.905V134.741
			L49.484,134.741z"/>
		<path d="M26.595,139.442c1.297,0.036,2.661,0.018,4.128-0.092v-4.195c-1.428,0.128-2.801,0.226-4.128,0.274V139.442z"/>
		<path d="M13.537,137.999v-3.653c-2.076-0.414-3.754-0.901-4.962-1.285c0.173,1.255,0.493,2.405,0.904,2.978
			C10.322,137.226,11.597,137.677,13.537,137.999z"/>
		<path d="M15.141,138.212c0.853,0.116,1.802,0.207,2.862,0.359l1.264,0.152v-3.514c-1.483-0.14-2.868-0.347-4.125-0.554V138.212z"
			/>
	</g>
</g>
<g>
</g>
<g>
</g>
<g>
</g>
<g>
</g>
<g>
</g>
<g>
</g>
<g>
</g>
<g>
</g>
<g>
</g>
<g>
</g>
<g>
</g>
<g>
</g>
<g>
</g>
<g>
</g>
<g>
</g>
</svg>
