<?xml version="1.0" encoding="iso-8859-1"?>
<!-- Generator: Adobe Illustrator 16.0.0, SVG Export Plug-In . SVG Version: 6.00 Build 0)  -->
<!DOCTYPE svg PUBLIC "-//W3C//DTD SVG 1.1//EN" "http://www.w3.org/Graphics/SVG/1.1/DTD/svg11.dtd">
<svg version="1.1" id="Capa_1" xmlns="http://www.w3.org/2000/svg" xmlns:xlink="http://www.w3.org/1999/xlink" x="0px" y="0px"
	 width="133.977px" height="133.977px" viewBox="0 0 133.977 133.977" style="enable-background:new 0 0 133.977 133.977;"
	 xml:space="preserve">
<g>
	<path d="M124.232,24.824c-6.388-7.212-15.68-11.691-24.229-11.691c-7.179,0-12.671,3.075-15.064,8.454
		c-3.501,7.895-3.318,15.445-1.771,22.768h-8.178V12.466c0-1.714-1.403-3.118-3.118-3.118c-1.717,0-3.117,1.404-3.117,3.118v31.889
		h-2.378V12.466c0-1.714-1.395-3.118-3.118-3.118c-1.72,0-3.118,1.404-3.118,3.118v44.527h-8.717
		c0.898-6.248,0.569-12.663-2.387-19.342c-2.39-5.367-7.876-8.449-15.064-8.449c-8.549,0-17.826,4.485-24.226,11.691
		c-5.398,6.104-11.402,16.962-9.326,34.06c4.202,34.611,33.384,45.9,42.971,45.9c5.538,0,5.894-3.52,5.913-4.25
		c0.024-1.364-0.56-2.898-1.629-5.693c-2.381-6.241-6.814-17.859-3.41-29.112c0.773-2.558,1.629-5.066,2.469-7.544
		c1.236-3.63,2.445-7.308,3.404-11.043H60.14v58.301c0,1.717,1.397,3.117,3.118,3.117c1.723,0,3.118-1.4,3.118-3.117V63.21h2.378
		v58.301c0,1.717,1.4,3.117,3.117,3.117c1.715,0,3.118-1.4,3.118-3.117V50.596h9.779c0.767,2.549,1.613,5.082,2.466,7.594
		c0.847,2.475,1.699,4.996,2.473,7.538c3.409,11.271-1.023,22.877-3.41,29.118c-1.065,2.789-1.656,4.329-1.632,5.693
		c0.018,0.713,0.39,4.263,5.918,4.263c9.585,0,38.764-11.308,42.972-45.912C135.636,41.786,129.632,30.922,124.232,24.824z
		 M40.837,72.255c-0.868,2.545-1.735,5.121-2.533,7.746c-4.022,13.286,0.91,26.207,3.55,33.131c0.173,0.463,0.372,0.962,0.548,1.437
		c-8.199-0.804-32.211-10.936-35.792-40.383c-1.796-14.791,3.255-24.034,7.812-29.17c5.246-5.913,12.732-9.597,19.555-9.597
		c4.606,0,8.025,1.732,9.365,4.765C48.096,50.907,44.735,60.802,40.837,72.255z M68.753,56.993h-2.378v-6.391h2.378V56.993z
		 M127.374,58.128c-3.58,29.447-27.602,39.58-35.786,40.39c0.177-0.475,0.372-0.974,0.536-1.431
		c2.648-6.936,7.575-19.857,3.55-33.144c-0.791-2.624-1.675-5.2-2.526-7.742c-0.987-2.887-1.937-5.675-2.729-8.406
		c0-0.106,0.067-0.18,0.067-0.298c0-0.648-0.256-1.224-0.604-1.72c-1.918-7.34-2.49-14.297,0.756-21.638
		c1.339-3.023,4.768-4.756,9.364-4.756c6.826,0,14.31,3.672,19.564,9.582C124.11,34.104,129.176,43.338,127.374,58.128z"/>
</g>
<g>
</g>
<g>
</g>
<g>
</g>
<g>
</g>
<g>
</g>
<g>
</g>
<g>
</g>
<g>
</g>
<g>
</g>
<g>
</g>
<g>
</g>
<g>
</g>
<g>
</g>
<g>
</g>
<g>
</g>
</svg>
