<?xml version="1.0" encoding="iso-8859-1"?>
<!-- Generator: Adobe Illustrator 16.0.0, SVG Export Plug-In . SVG Version: 6.00 Build 0)  -->
<!DOCTYPE svg PUBLIC "-//W3C//DTD SVG 1.1//EN" "http://www.w3.org/Graphics/SVG/1.1/DTD/svg11.dtd">
<svg version="1.1" id="Capa_1" xmlns="http://www.w3.org/2000/svg" xmlns:xlink="http://www.w3.org/1999/xlink" x="0px" y="0px"
	 width="114.588px" height="114.588px" viewBox="0 0 114.588 114.588" style="enable-background:new 0 0 114.588 114.588;"
	 xml:space="preserve">
<g>
	<path d="M14.913,51.984c-12.108,23.662-9.508,35.037-4.159,49.693c0.591,1.619-0.244,3.41-1.866,4
		c-0.353,0.135-0.709,0.189-1.072,0.189c-1.267,0-2.469-0.785-2.923-2.046c-5.739-15.704-8.768-28.82,4.458-54.675
		c14.964-29.234,3.105-40.785,2.594-41.254c-1.254-1.163-1.346-3.13-0.195-4.391c1.154-1.272,3.081-1.388,4.36-0.249
		C16.776,3.843,32.233,18.146,14.913,51.984z M105.233,49.146c-14.937-29.155-3.166-40.718-2.594-41.248
		c1.267-1.157,1.376-3.105,0.244-4.384c-1.163-1.291-3.13-1.4-4.409-0.262c-0.657,0.59-16.124,14.894,1.2,48.731
		c12.104,23.662,9.511,35.037,4.158,49.693c-0.59,1.619,0.244,3.41,1.863,4c0.354,0.135,0.713,0.189,1.072,0.189
		c1.278,0,2.466-0.785,2.935-2.046C115.426,88.117,118.471,75.001,105.233,49.146z M85.924,66.422
		c2.491,3.574,6.479,13.207,2.856,20.148c-1.596,3.045-5.268,6.686-13.737,6.686c-1.693,0-3.544-0.14-5.541-0.426
		c0.663,4.933,0.968,12.288-2.229,16.319c-1.547,1.942-3.715,2.972-6.263,2.972c-1.599,0-3.301-0.384-5.194-1.176
		c-5.979-2.509-7.87-13.158-6.235-22c1.851-10.035,7.693-16.191,15.658-16.459c0.024,0,0.646-0.012,0.67-0.012
		c0.585,0,1.912-0.013,2.259-0.256c-0.036,0,0.372-1.291-1.522-5.523l-0.608-1.291c-1.151-2.436-2.734-5.814-3.246-9.219
		c-4.195,1.973-10.043,4.232-14.809,4.232c-1.251,0-2.356-0.146-3.297-0.402c0.338,1.814,1.06,3.885,2.5,5.912
		c2.277,3.234,3.748,12.154,1.023,17.416c-2.344,4.523-7.152,5.656-12.97,2.521c-7.812-4.22-9.003-10.778-8.659-28.357
		c0.019-0.749-0.188-1.747-0.387-2.874c-0.648-3.745-1.546-8.859,1.458-12.446c2.75-3.27,7.651-4.104,15.189-2.466
		c2.083,0.432,4.762,0.688,7.356,0.688c5.258,0,9.535-1.042,11.749-2.85c1.218-0.992,7.562-5.931,13.365-5.931
		c2.515,0,4.688,0.926,6.26,2.698c2.527,2.85,3.373,7.678,2.569,14.796C83.264,56.94,83.94,63.572,85.924,66.422z M80.81,69.983
		c-3.958-5.699-3.502-15.953-2.862-21.556c0.804-7.039-0.444-9.304-1.022-9.949c-0.269-0.305-0.664-0.615-1.608-0.615
		c-2.825,0-7.173,2.71-9.413,4.537c-4.29,3.501-10.912,4.256-15.686,4.256c-3.014,0-6.168-0.311-8.674-0.84
		c-2.07-0.451-3.861-0.676-5.325-0.676c-1.315,0-3.039,0.183-3.772,1.066c-1.148,1.364-0.536,4.823-0.101,7.368
		c0.274,1.589,0.499,3.009,0.475,4.067C32.453,75.567,34,78.113,38.201,80.372c1.596,0.864,2.594,1.047,3.142,1.047
		c0.463,0,0.88-0.073,1.328-0.943c1.51-2.911,0.563-9.341-0.572-10.942c-5.761-8.142-3.474-16.617-3.374-16.971
		c0.38-1.333,1.571-2.253,2.956-2.277c1.428-0.049,2.606,0.865,3.023,2.18c0.207,0.646,0.548,1.718,3.267,1.718
		c5.468,0,14.218-4.5,17.129-6.235c0.493-0.292,1.047-0.427,1.595-0.427c0.847,0,1.663,0.329,2.26,0.956
		c1.004,1.06,1.156,2.673,0.335,3.879c-1.468,2.211,1.139,7.733,2.393,10.395l0.646,1.406c2.351,5.262,2.679,8.914,1.022,11.509
		c-1.924,2.983-5.468,3.032-7.38,3.044c-7.492,0.244-9.669,8.025-10.272,11.351c-1.468,7.971,0.828,14.419,2.511,15.138
		c3.374,1.419,3.647,0.719,4.156,0.085c2.046-2.558,1.364-10.681,0.219-15.637c-0.234-1.035,0.073-2.144,0.828-2.898
		c0.756-0.767,1.857-1.096,2.905-0.847c9.097,2.059,15.106,1.279,16.928-2.204C85.279,79.799,82.777,72.809,80.81,69.983z"/>
</g>
<g>
</g>
<g>
</g>
<g>
</g>
<g>
</g>
<g>
</g>
<g>
</g>
<g>
</g>
<g>
</g>
<g>
</g>
<g>
</g>
<g>
</g>
<g>
</g>
<g>
</g>
<g>
</g>
<g>
</g>
</svg>
