<?xml version="1.0" encoding="iso-8859-1"?>
<!-- Generator: Adobe Illustrator 16.0.0, SVG Export Plug-In . SVG Version: 6.00 Build 0)  -->
<!DOCTYPE svg PUBLIC "-//W3C//DTD SVG 1.1//EN" "http://www.w3.org/Graphics/SVG/1.1/DTD/svg11.dtd">
<svg version="1.1" id="Capa_1" xmlns="http://www.w3.org/2000/svg" xmlns:xlink="http://www.w3.org/1999/xlink" x="0px" y="0px"
	 width="186.814px" height="186.814px" viewBox="0 0 186.814 186.814" style="enable-background:new 0 0 186.814 186.814;"
	 xml:space="preserve">
<g>
	<path d="M60.466,76.656c-0.734-12.982,6.972-25.861,14.443-32.346c18.374-15.941,35.904-39.695,37.067-42.24
		c0.549-1.626,2.266-2.448,3.916-1.9c1.644,0.542,2.49,2.387,1.948,4.02c-1.06,3.178-19.93,28.43-38.849,44.834
		c-6.366,5.523-12.924,16.41-12.31,27.286c0.487,8.592,5.325,16.1,14.404,22.323c7.87,5.401,25.343,8.981,38.709-4.378
		c2.447-2.436,9.23-11.6-5.584-27.261c-9.079-9.584-7.515-21.635,5.225-40.261c5.376-7.867,13.426-19.753,13.426-19.753l5.158,3.507
		c0,0-8.062,11.886-13.433,19.771c-13.481,19.717-10.784,27.249-5.852,32.455c14.863,15.698,12.58,28.869,5.474,35.963
		c-8.141,8.147-17.585,11.021-26.162,11.021c-8.306,0-15.789-2.691-20.478-5.9C66.826,96.397,61.072,87.281,60.466,76.656z
		 M133.472,107.631c-1.206-4.208-4.646-5.347-5.036-5.462c-0.979-0.316-2.033-0.098-2.831,0.535
		c-10.863,8.604-21.994,12.222-33.125,10.778C72.918,110.919,59.625,93.395,59.5,93.218c-0.816-1.096-2.25-1.541-3.535-1.078
		c-0.469,0.165-4.64,1.766-6.418,7.009c-2.144,6.327,0.289,14.912,7.216,25.495c2.171,3.312,4.801,6.467,7.587,9.804
		c9.292,11.131,19.829,23.748,19.175,49.17c-0.042,1.724,1.315,3.16,3.035,3.196c0.024,0,0.058,0,0.083,0
		c1.69,0,3.075-1.339,3.118-3.025c0.709-27.779-11.119-41.948-20.627-53.335c-2.667-3.19-5.188-6.211-7.158-9.22
		c-7.538-11.526-7.353-17.439-6.573-19.936c0.262-0.846,0.649-1.485,1.042-1.967c4.676,5.353,17.403,17.987,35.174,20.338
		c12.133,1.59,24.177-1.93,35.807-10.504c0.037,0.115,0.067,0.219,0.098,0.348c0.444,1.894,0.134,7.842-12.392,22.049
		c-8.348,9.48-7.781,30.811,1.31,49.65c0.755,1.553,2.618,2.204,4.165,1.438c1.547-0.743,2.21-2.606,1.449-4.165
		c-7.935-16.429-8.921-35.226-2.247-42.819C130.823,123.152,135.292,113.988,133.472,107.631z M97.555,91.312
		c-1.689,0.311-2.819,1.937-2.512,3.623c0.274,1.498,1.583,2.563,3.06,2.563c0.189,0,0.375-0.03,0.561-0.055
		c8.041-1.449,13.101-4.804,15.049-9.968c3.472-9.183-4.992-20.045-5.352-20.502c-1.072-1.358-3.021-1.59-4.379-0.518
		c-1.346,1.065-1.583,3.026-0.518,4.378c1.87,2.362,6.278,9.572,4.415,14.449C106.746,88.25,103.281,90.277,97.555,91.312z"/>
</g>
<g>
</g>
<g>
</g>
<g>
</g>
<g>
</g>
<g>
</g>
<g>
</g>
<g>
</g>
<g>
</g>
<g>
</g>
<g>
</g>
<g>
</g>
<g>
</g>
<g>
</g>
<g>
</g>
<g>
</g>
</svg>
