<?xml version="1.0" encoding="iso-8859-1"?>
<!-- Generator: Adobe Illustrator 16.0.0, SVG Export Plug-In . SVG Version: 6.00 Build 0)  -->
<!DOCTYPE svg PUBLIC "-//W3C//DTD SVG 1.1//EN" "http://www.w3.org/Graphics/SVG/1.1/DTD/svg11.dtd">
<svg version="1.1" id="Capa_1" xmlns="http://www.w3.org/2000/svg" xmlns:xlink="http://www.w3.org/1999/xlink" x="0px" y="0px"
	 width="135.386px" height="135.386px" viewBox="0 0 135.386 135.386" style="enable-background:new 0 0 135.386 135.386;"
	 xml:space="preserve">
<g>
	<path d="M72.883,135.386c-2.348,0-5.006-0.646-7.88-1.888c-8.89-3.885-11.691-21.604-9.17-35.804
		c2.898-16.344,11.926-26.366,24.168-26.78l1.108-0.024c1.948-0.024,4.627-0.049,5.395-1.303c0.39-0.621,1.352-3.312-2.289-11.792
		l-1.023-2.302c-2.186-4.808-5.37-11.883-5.468-18.401c-6.832,3.568-17.902,8.513-26.601,8.524c-3.435,0-6.041-0.761-8.004-1.915
		c0.204,4.141,1.34,9.56,4.981,14.916c3.529,5.185,5.629,19.787,1.547,27.964c-3.349,6.723-10.282,8.232-18.825,3.465
		c-12.096-6.759-13.947-17.744-13.381-47.273c0.024-1.248-0.317-3.254-0.667-5.397c-1.023-6.074-2.426-14.386,1.982-19.848
		c4.028-4.99,11.691-6.175,23.346-3.55c3.617,0.807,8.253,1.26,12.738,1.26c9.39,0,16.831-1.927,20.965-5.438
		C77.749,8.168,87.844,0,96.801,0c3.611,0,6.68,1.358,8.908,3.934c3.824,4.46,5.066,12.315,3.775,24.012
		c-1.571,14.292-0.335,26.071,3.318,31.515c3.94,5.864,10.255,21.592,4.628,32.76c-4.64,9.237-15.612,12.446-32.869,9.237
		c1.23,7.77,2.637,22.42-2.868,29.605C79.539,133.9,76.494,135.386,72.883,135.386L72.883,135.386z M82.424,27.553
		c0.847,0,1.669,0.362,2.266,1.011c0.999,1.108,1.15,2.768,0.329,4.028c-3.118,4.844,1.229,14.44,3.812,20.152l1.084,2.42
		c3.617,8.406,4.201,14.105,1.839,17.917c-2.582,4.202-7.587,4.251-10.571,4.287l-0.962,0.043
		C67.098,77.843,63.083,92.58,61.968,98.875c-2.396,13.506,1.029,26.72,5.456,28.662c4.484,1.942,7.554,1.918,9.404-0.487
		c4.08-5.328,2.637-20.611,0.768-28.99c-0.244-1.072,0.073-2.205,0.828-2.996c0.755-0.804,1.851-1.145,2.898-0.877
		c16.404,3.836,27.048,2.119,30.616-4.957c3.97-7.897-0.883-21.08-4.226-26.067c-6.248-9.289-5.444-26.512-4.409-35.947
		c1.321-11.989-0.487-16.922-2.229-18.955c-1.047-1.215-2.399-1.775-4.256-1.775c-5.693,0-13.646,5.468-17.044,8.354
		c-6.723,5.699-17.26,6.884-24.917,6.884c-4.896,0-10.02-0.518-14.054-1.422c-8.917-1.988-14.909-1.495-17.26,1.41
		c-2.542,3.136-1.47,9.484-0.624,14.559c0.426,2.558,0.807,4.777,0.768,6.634c-0.597,30.531,1.872,36.852,10.096,41.443
		c2.463,1.376,4.552,2.07,6.248,2.07c1.242,0,2.837-0.316,4.07-2.801c2.981-5.968,1.069-18.073-1.102-21.264
		c-9.055-13.287-5.492-27.036-5.331-27.624c0.381-1.382,1.571-2.344,2.956-2.369c1.334,0,2.606,0.91,3.023,2.262
		c0.648,2.104,2.07,4.521,7.468,4.521c11.573-0.019,29.53-11.037,29.707-11.137C81.334,27.708,81.876,27.553,82.424,27.553z"/>
</g>
<g>
</g>
<g>
</g>
<g>
</g>
<g>
</g>
<g>
</g>
<g>
</g>
<g>
</g>
<g>
</g>
<g>
</g>
<g>
</g>
<g>
</g>
<g>
</g>
<g>
</g>
<g>
</g>
<g>
</g>
</svg>
