<?xml version="1.0" encoding="iso-8859-1"?>
<!-- Generator: Adobe Illustrator 16.0.0, SVG Export Plug-In . SVG Version: 6.00 Build 0)  -->
<!DOCTYPE svg PUBLIC "-//W3C//DTD SVG 1.1//EN" "http://www.w3.org/Graphics/SVG/1.1/DTD/svg11.dtd">
<svg version="1.1" id="Capa_1" xmlns="http://www.w3.org/2000/svg" xmlns:xlink="http://www.w3.org/1999/xlink" x="0px" y="0px"
	 width="187.071px" height="187.071px" viewBox="0 0 187.071 187.071" style="enable-background:new 0 0 187.071 187.071;"
	 xml:space="preserve">
<g>
	<path d="M84.451,87.406c-1.988-2.396-5.587-3.057-8.248-1.583c-2.11,1.166-3.419,3.374-3.419,5.77c0,1.413-1.133,2.533-2.536,2.533
		c-1.404,0-2.539-1.133-2.539-2.533c0-4.244,2.313-8.159,6.043-10.211c4.725-2.612,11.073-1.425,14.589,2.777
		c0.898,1.078,0.755,2.673-0.316,3.571C86.944,88.627,85.355,88.49,84.451,87.406z M133.365,103.169
		c0,1.418-1.139,2.532-2.533,2.532h-12.373c-8.038,10.888-24.244,21.173-25.097,21.696c-0.414,0.256-0.88,0.39-1.349,0.39
		c-0.466,0-0.935-0.134-1.346-0.39c-0.861-0.536-17.135-10.852-25.191-21.885h-9.228c-1.403,0-2.539-1.133-2.539-2.533
		c0-1.395,1.136-2.533,2.539-2.533h6.205c-0.494-1.096-0.911-2.191-1.154-3.245c-0.554-1.675-0.874-3.63-0.874-5.608
		c0-6.881,3.754-13.234,9.788-16.584c6.972-3.82,16.002-2.725,21.787,2.47c5.8-5.194,14.839-6.284,21.775-2.47
		c6.04,3.35,9.785,9.703,9.785,16.584c0,1.979-0.316,3.952-0.926,5.852c-0.231,1.048-0.646,2.119-1.145,3.197h9.329
		C132.226,100.642,133.365,101.762,133.365,103.169z M68.189,100.446h15.269c0.849,0,1.641,0.414,2.116,1.127l2.707,4.062
		l9.962-15.15c0.529-0.804,1.452-1.239,2.423-1.132c0.95,0.125,1.754,0.755,2.083,1.657l3.501,9.62h9.505
		c0.956-1.546,1.681-3.093,1.991-4.536c0.518-1.626,0.756-3.057,0.756-4.512c0-5.048-2.747-9.694-7.167-12.142
		c-5.676-3.118-13.205-1.711-17.37,3.292c-0.478,0.584-1.19,0.916-1.952,0.916c-0.755,0-1.464-0.338-1.952-0.916
		c-2.649-3.194-6.546-5.015-10.687-5.015c-2.356,0-4.616,0.581-6.698,1.723c-4.415,2.436-7.164,7.094-7.164,12.129
		c0,1.443,0.237,2.887,0.688,4.274C66.518,97.316,67.236,98.863,68.189,100.446z M111.882,105.701h-7.423
		c-1.065,0-2.016-0.651-2.381-1.675l-2.384-6.539l-9.283,14.127c-0.469,0.719-1.267,1.15-2.106,1.15c0,0,0,0-0.006,0
		c-0.85,0-1.641-0.42-2.11-1.139l-4.077-6.107H71.998c5.961,6.76,14.91,13.378,20.009,16.739
		C97.077,118.896,105.958,112.369,111.882,105.701z M32.659,135.818V61.391c0-1.406,1.136-2.542,2.539-2.542h116.666
		c1.412,0,2.545,1.147,2.545,2.542v74.428c0,1.4-1.139,2.527-2.545,2.527H35.198C33.795,138.357,32.659,137.219,32.659,135.818z
		 M37.734,133.285h111.602V63.924H37.734V133.285z M187.065,45.534c0,1.416-1.139,2.54-2.539,2.54h-14.9v95.216
		c0,5.662-4.615,10.278-10.272,10.278H27.721c-5.666,0-10.281-4.616-10.281-10.278V48.074H2.536c-1.4,0-2.536-1.142-2.536-2.54
		c0-1.394,1.136-2.53,2.536-2.53h181.99C185.926,43.004,187.065,44.146,187.065,45.534z M164.566,48.074H22.515v95.216
		c0,2.874,2.332,5.212,5.206,5.212h131.632c2.874,0,5.2-2.338,5.2-5.212V48.074H164.566z M2.545,38.571h181.992
		c1.4,0,2.533-1.142,2.533-2.545c0-1.389-1.145-2.524-2.533-2.524H2.545c-1.404,0-2.54,1.142-2.54,2.524
		C0.006,37.43,1.142,38.571,2.545,38.571z"/>
</g>
<g>
</g>
<g>
</g>
<g>
</g>
<g>
</g>
<g>
</g>
<g>
</g>
<g>
</g>
<g>
</g>
<g>
</g>
<g>
</g>
<g>
</g>
<g>
</g>
<g>
</g>
<g>
</g>
<g>
</g>
</svg>
