<?xml version="1.0" encoding="iso-8859-1"?>
<!-- Generator: Adobe Illustrator 16.0.0, SVG Export Plug-In . SVG Version: 6.00 Build 0)  -->
<!DOCTYPE svg PUBLIC "-//W3C//DTD SVG 1.1//EN" "http://www.w3.org/Graphics/SVG/1.1/DTD/svg11.dtd">
<svg version="1.1" id="Capa_1" xmlns="http://www.w3.org/2000/svg" xmlns:xlink="http://www.w3.org/1999/xlink" x="0px" y="0px"
	 width="114.587px" height="114.587px" viewBox="0 0 114.587 114.587" style="enable-background:new 0 0 114.587 114.587;"
	 xml:space="preserve">
<g>
	<path d="M75.915,33.445c-1.955-0.353-3.837-0.53-5.59-0.53c-10.742,0-15.875,6.284-18.518,13.189
		c-3.599-3.77-5.812-10.145-6.424-12.745c-0.387-1.681-2.059-2.716-3.748-2.319c-1.681,0.383-2.725,2.07-2.317,3.75
		c0.131,0.536,3.084,12.519,10.638,17.841c-0.505,2.49-0.819,4.854-1.05,6.747l-0.149,1.187
		c-1.321,10.23-11.329,12.781-21.96,14.006c-8.747,1.011-10.245,5.827-10.473,7.843c-0.569,4.907,3.653,9.597,7.892,11.118
		c8.12,2.936,16.014,4.409,23.482,4.409c15.266,0,28.839-6.363,37.229-17.452c11.447-15.131,10.753-26.231,8.159-32.875
		C90.236,40.375,83.507,34.815,75.915,33.445z M79.933,76.733c-7.191,9.505-18.956,14.974-32.248,14.974
		c-6.741,0-13.923-1.364-21.367-4.031c-2.235-0.804-3.973-3.179-3.806-4.549c0.131-1.114,2.046-2.009,5.002-2.35
		c7.575-0.89,25.304-2.947,27.429-19.395l0.149-1.23c1.315-10.625,3.58-20.995,15.226-20.995c1.4,0,2.911,0.146,4.494,0.433
		c4.177,0.749,9.949,3.903,12.446,10.291C90.157,57.296,87.618,66.583,79.933,76.733z M14.913,55.111
		c-12.108,23.65-9.508,35.037-4.159,49.693c0.591,1.619-0.244,3.41-1.866,4c-0.353,0.135-0.709,0.189-1.072,0.189
		c-1.267,0-2.469-0.785-2.923-2.046c-5.739-15.716-8.768-28.82,4.458-54.675c14.964-29.234,3.105-40.785,2.594-41.254
		c-1.254-1.175-1.346-3.13-0.195-4.391c1.154-1.272,3.081-1.388,4.36-0.249C16.776,6.976,32.233,21.273,14.913,55.111z
		 M109.697,106.948c-0.463,1.261-1.656,2.046-2.935,2.046c-0.359,0-0.719-0.061-1.072-0.189c-1.619-0.59-2.454-2.381-1.863-4
		c5.353-14.656,7.946-26.043-4.159-49.693C82.344,21.255,97.798,6.958,98.468,6.379c1.278-1.139,3.252-1.029,4.408,0.262
		c1.133,1.278,1.023,3.233-0.243,4.384c-0.572,0.53-12.343,12.081,2.594,41.248C118.471,78.127,115.426,91.232,109.697,106.948z"/>
</g>
<g>
</g>
<g>
</g>
<g>
</g>
<g>
</g>
<g>
</g>
<g>
</g>
<g>
</g>
<g>
</g>
<g>
</g>
<g>
</g>
<g>
</g>
<g>
</g>
<g>
</g>
<g>
</g>
<g>
</g>
</svg>
