<?xml version="1.0" encoding="iso-8859-1"?>
<!-- Generator: Adobe Illustrator 16.0.0, SVG Export Plug-In . SVG Version: 6.00 Build 0)  -->
<!DOCTYPE svg PUBLIC "-//W3C//DTD SVG 1.1//EN" "http://www.w3.org/Graphics/SVG/1.1/DTD/svg11.dtd">
<svg version="1.1" id="Capa_1" xmlns="http://www.w3.org/2000/svg" xmlns:xlink="http://www.w3.org/1999/xlink" x="0px" y="0px"
	 width="137.332px" height="137.332px" viewBox="0 0 137.332 137.332" style="enable-background:new 0 0 137.332 137.332;"
	 xml:space="preserve">
<g>
	<g>
		<path d="M95.868,20.39c-17.324-17.321-17.324,0.581-17.324,0.581v29.834l-5.261-5.261v-5.237H64.04v5.237l-5.261,5.261V20.971
			c0,0,0-17.902-17.321-0.581c0,0-60.657,63.54-35.231,103.394c2.986,4.688,12.702,10.4,23.102-4.616
			c4.813-6.965,26.576,6.363,29.462-16.751V57.341l9.876-9.876l9.876,9.883v45.075c2.887,23.102,24.637,9.779,29.466,16.757
			c10.4,15.01,20.125,9.298,23.103,4.609C156.521,83.936,95.868,20.39,95.868,20.39z"/>
		<rect x="64.04" y="8.455" width="9.243" height="5.328"/>
		<rect x="64.04" y="19.068" width="9.243" height="5.319"/>
		<rect x="64.04" y="29.693" width="9.243" height="5.307"/>
	</g>
</g>
<g>
</g>
<g>
</g>
<g>
</g>
<g>
</g>
<g>
</g>
<g>
</g>
<g>
</g>
<g>
</g>
<g>
</g>
<g>
</g>
<g>
</g>
<g>
</g>
<g>
</g>
<g>
</g>
<g>
</g>
</svg>
