<?xml version="1.0" encoding="iso-8859-1"?>
<!-- Generator: Adobe Illustrator 16.0.0, SVG Export Plug-In . SVG Version: 6.00 Build 0)  -->
<!DOCTYPE svg PUBLIC "-//W3C//DTD SVG 1.1//EN" "http://www.w3.org/Graphics/SVG/1.1/DTD/svg11.dtd">
<svg version="1.1" id="Capa_1" xmlns="http://www.w3.org/2000/svg" xmlns:xlink="http://www.w3.org/1999/xlink" x="0px" y="0px"
	 width="132.756px" height="132.756px" viewBox="0 0 132.756 132.756" style="enable-background:new 0 0 132.756 132.756;"
	 xml:space="preserve">
<g>
	<path d="M93.088,122.185c0,2.704-0.578,5.285-1.577,7.709c0,0-15.716,2.91-19.083,0c-2.92-2.521-3.045-9.414-2.39-15.954h-7.326
		c0.648,6.54,0.53,13.434-2.384,15.954c-3.367,2.91-19.086,0-19.086,0c-0.996-2.424-1.583-5.005-1.583-7.709
		c0-10.875,8.854-19.948,20.651-22.188c0,0,0.837,3.336,1.571,7.812c0.17-0.031,0.344-0.104,0.524-0.104h0.837V89.73
		c0-1.729,1.397-3.118,3.117-3.118c1.721,0,3.118,1.389,3.118,3.118v17.976h0.847c0.183,0,0.344,0.072,0.515,0.104
		c0.742-4.477,1.583-7.812,1.583-7.812C84.24,102.237,93.088,111.31,93.088,122.185z M124.453,98.967v30.671
		c0,1.717-1.406,3.118-3.117,3.118c-1.724,0-3.118-1.401-3.118-3.118V98.967c0-20.161-8.878-30.258-29.374-33.597
		C82.992,73.539,75.198,79.5,66.378,79.5c-8.823,0-16.605-5.962-22.466-14.13c-20.508,3.328-29.374,13.412-29.374,33.597v30.671
		c0,1.717-1.397,3.118-3.118,3.118c-1.714,0-3.118-1.401-3.118-3.118V98.967c0-28.527,17.147-36.483,31.956-39.339
		c-4.665-8.485-7.408-18.231-7.408-26.114C32.851,15.034,47.885,0,66.366,0c18.478,0,33.518,15.034,33.518,33.515
		c0,7.882-2.734,17.622-7.41,26.114C107.373,62.484,124.453,70.488,124.453,98.967z M93.673,33.508
		c0-15.04-12.239-27.279-27.282-27.279c-15.041,0-27.28,12.239-27.28,27.279c0,15.333,12.483,39.75,27.28,39.75
		C81.19,73.258,93.673,48.841,93.673,33.508z M33.518,101.055c-1.714,0-3.118,1.4-3.118,3.118v25.459
		c0,1.711,1.403,3.117,3.118,3.117c1.72,0,3.118-1.406,3.118-3.117v-25.459C36.636,102.444,35.25,101.055,33.518,101.055z
		 M99.257,101.055c-1.724,0-3.118,1.4-3.118,3.118v25.459c0,1.711,1.395,3.117,3.118,3.117c1.711,0,3.117-1.406,3.117-3.117v-25.459
		C102.374,102.444,100.979,101.055,99.257,101.055z"/>
</g>
<g>
</g>
<g>
</g>
<g>
</g>
<g>
</g>
<g>
</g>
<g>
</g>
<g>
</g>
<g>
</g>
<g>
</g>
<g>
</g>
<g>
</g>
<g>
</g>
<g>
</g>
<g>
</g>
<g>
</g>
</svg>
