<?xml version="1.0" encoding="iso-8859-1"?>
<!-- Generator: Adobe Illustrator 16.0.0, SVG Export Plug-In . SVG Version: 6.00 Build 0)  -->
<!DOCTYPE svg PUBLIC "-//W3C//DTD SVG 1.1//EN" "http://www.w3.org/Graphics/SVG/1.1/DTD/svg11.dtd">
<svg version="1.1" id="Capa_1" xmlns="http://www.w3.org/2000/svg" xmlns:xlink="http://www.w3.org/1999/xlink" x="0px" y="0px"
	 width="168.1px" height="168.1px" viewBox="0 0 168.1 168.1" style="enable-background:new 0 0 168.1 168.1;" xml:space="preserve"
	>
<g>
	<path d="M90.662,79.057c0.71,0.864,0.592,2.123-0.263,2.843c-0.845,0.71-2.122,0.593-2.833-0.261
		c-2.786-3.338-7.765-4.279-11.544-2.219c-2.935,1.625-4.768,4.728-4.768,8.07c0,1.101-0.9,2.01-2.012,2.01
		c-1.107,0-2.01-0.909-2.01-2.01c0-4.815,2.621-9.263,6.847-11.595C79.498,72.934,86.663,74.271,90.662,79.057z M145.773,101.735
		c0,1.105-0.907,2.014-2.023,2.014h-15.758c-9.6,13.362-29.868,26.201-30.919,26.868c-0.332,0.207-0.7,0.311-1.073,0.311
		c-0.371,0-0.743-0.104-1.071-0.311c-0.179-0.12-0.983-0.624-2.156-1.412v23.868c0,8.286-6.461,15.026-14.392,15.026H55.969
		c-7.936,0-14.383-6.74-14.383-15.026v-41.127H24.345c-1.116,0-2.019-0.896-2.019-2.013V59.268
		c-0.005-8.281,6.721-15.035,15.001-15.045l17.079-0.011c-6.718-4.26-11.201-11.729-11.201-20.247C43.205,10.753,53.957,0,67.17,0
		c13.22,0,23.974,10.753,23.974,23.965c0,8.506-4.461,15.97-11.164,20.212l16.995-0.017c0.011,0,0.011,0,0.024,0
		c8.273,0,15.002,6.725,15.024,15.012v6.164c3.567,0.088,7.092,1.007,10.211,2.723c7.093,3.915,11.481,11.356,11.481,19.444
		c0,2.304-0.374,4.613-1.097,6.846c-0.388,1.751-1.148,3.557-2.123,5.373h13.254C144.866,99.722,145.773,100.619,145.773,101.735z
		 M67.174,43.902c10.996,0,19.942-8.949,19.942-19.937c0-10.999-8.946-19.948-19.942-19.948c-10.993,0-19.94,8.949-19.94,19.948
		C47.234,34.953,56.176,43.902,67.174,43.902z M120.297,71.582c-2.68-1.48-5.714-2.246-8.767-2.246
		c-5.417,0-10.517,2.396-13.976,6.572c-0.383,0.465-0.939,0.729-1.542,0.729c-0.598,0-1.169-0.264-1.55-0.729
		c-3.479-4.175-8.572-6.572-14.002-6.572c-3.054,0-6.08,0.785-8.764,2.257c-5.792,3.195-9.39,9.292-9.39,15.91
		c0,1.888,0.301,3.77,0.901,5.586c0.46,2.069,1.497,4.23,2.865,6.414h19.431c0.672,0,1.303,0.341,1.683,0.893l4.245,6.386
		l13.183-20.028c0.415-0.627,1.161-0.952,1.914-0.887c0.756,0.093,1.401,0.592,1.666,1.303l4.553,12.553h13.098
		c1.401-2.199,2.451-4.366,2.913-6.433c0.645-2.005,0.952-3.888,0.952-5.775C129.691,80.901,126.088,74.806,120.297,71.582z
		 M88.736,126.436c-7.058-5.006-18.413-13.798-24.873-22.905H52.009c-1.116,0-2.013-0.908-2.013-2.014
		c0-1.116,0.902-2.014,2.013-2.014h9.39c-0.945-1.793-1.704-3.595-2.096-5.341c-0.678-2.035-1.048-4.339-1.048-6.653
		c0-8.077,4.395-15.527,11.469-19.445c3.284-1.797,6.988-2.755,10.715-2.755c5.855,0,11.414,2.284,15.541,6.348
		c3.292-3.223,7.484-5.272,12.015-6.003v-6.459c-0.02-6.052-4.946-10.987-10.996-10.987c0,0-0.014,0-0.024,0l-59.647,0.068
		c-2.935,0-5.699,1.146-7.772,3.226c-2.075,2.08-3.215,4.837-3.21,7.778v48.662h15.224V75.549c0-1.103,0.903-2.006,2.01-2.006
		c1.111,0,2.015,0.903,2.015,2.006v34.367c0,0.022,0.004,0.027,0.004,0.043c0,0.018-0.004,0.028-0.004,0.04v43.102
		c0,6.064,4.648,11,10.352,11h9.41c-0.124-0.279-0.214-0.564-0.214-0.871v-36.78c0-1.107,0.903-2.009,2.012-2.009
		c1.111,0,2.013,0.901,2.013,2.009v36.78c0,0.317-0.084,0.592-0.212,0.871h9.406c5.715,0,10.361-4.936,10.361-11v-26.651h0.016
		V126.436z M122.923,103.749h-11.59c-0.854,0-1.606-0.53-1.904-1.318l-3.666-10.107l-12.638,19.213
		c-0.375,0.569-1.01,0.902-1.677,0.902c0,0,0,0-0.011,0c-0.665,0-1.295-0.339-1.674-0.887l-5.346-8.021h-15.49
		c8.389,10.369,23.011,20.323,27.072,22.993C100.039,123.854,114.535,113.977,122.923,103.749z"/>
</g>
<g>
</g>
<g>
</g>
<g>
</g>
<g>
</g>
<g>
</g>
<g>
</g>
<g>
</g>
<g>
</g>
<g>
</g>
<g>
</g>
<g>
</g>
<g>
</g>
<g>
</g>
<g>
</g>
<g>
</g>
</svg>
