<?xml version="1.0" encoding="iso-8859-1"?>
<!-- Generator: Adobe Illustrator 16.0.0, SVG Export Plug-In . SVG Version: 6.00 Build 0)  -->
<!DOCTYPE svg PUBLIC "-//W3C//DTD SVG 1.1//EN" "http://www.w3.org/Graphics/SVG/1.1/DTD/svg11.dtd">
<svg version="1.1" id="Capa_1" xmlns="http://www.w3.org/2000/svg" xmlns:xlink="http://www.w3.org/1999/xlink" x="0px" y="0px"
	 width="155.883px" height="155.882px" viewBox="0 0 155.883 155.882" style="enable-background:new 0 0 155.883 155.882;"
	 xml:space="preserve">
<g>
	<path d="M59.976,63.138c0.499,0.697,0.335,1.678-0.369,2.177c-0.274,0.186-0.587,0.292-0.904,0.292
		c-0.487,0-0.968-0.231-1.273-0.648c-8.242-11.597-5.562-31.04-5.444-31.85c0.125-0.855,0.929-1.428,1.766-1.315
		c0.853,0.125,1.44,0.91,1.321,1.757C55.056,33.728,52.461,52.565,59.976,63.138z M97.366,65.602c0.48,0,0.968-0.231,1.272-0.648
		c8.245-11.597,5.56-31.04,5.443-31.849c-0.128-0.855-0.932-1.428-1.76-1.315c-0.858,0.131-1.437,0.91-1.333,1.757
		c0.03,0.188,2.637,19.004-4.89,29.599c-0.499,0.701-0.335,1.684,0.377,2.183C96.745,65.501,97.043,65.602,97.366,65.602z
		 M55.567,144.629c0.305,0.311,0.697,0.463,1.096,0.463s0.798-0.152,1.105-0.463l4.938-4.913c0.292-0.299,0.454-0.688,0.454-1.103
		v-7.197c0-0.865-0.697-1.553-1.559-1.553c-0.859,0-1.559,0.688-1.559,1.553v6.552l-4.476,4.469
		C54.955,143.035,54.955,144.033,55.567,144.629z M63.385,75.725c-0.834,0.219-1.333,1.06-1.124,1.905
		c0.034,0.116,2.85,11.436-0.804,22.713c-0.262,0.822,0.183,1.699,0.999,1.961c0.161,0.055,0.322,0.079,0.481,0.079
		c0.654,0,1.27-0.414,1.482-1.078c3.934-12.166,0.987-23.954,0.862-24.448C65.063,76.005,64.201,75.505,63.385,75.725z
		 M120.931,147.302v7.021c0,0.864-0.693,1.559-1.559,1.559h-18.9c-0.329,0-0.658-0.109-0.926-0.311l-11.558-8.701
		c-0.377-0.286-0.597-0.707-0.608-1.176l-0.841-18.4c-0.024-0.652,0.342-1.23,0.914-1.492l1.437-0.646
		c0-0.036-0.012-0.062-0.012-0.098c0.651-7.052-1.803-16.063-2.996-18.364c-9.782-18.768-3.179-34.404-2-36.886
		c-0.006-0.024-0.031-0.036-0.046-0.061c-0.21-0.804-3.846-14.322-5.797-24.786c-1.945,10.464-5.587,23.982-5.806,24.786
		c-0.024,0.101-0.088,0.167-0.131,0.268c1.367,2.98,7.484,18.313-2.095,36.679c-1.196,2.301-3.666,11.312-3.005,18.364
		c0,0.036-0.006,0.062-0.006,0.098l1.434,0.646c0.579,0.262,0.941,0.864,0.911,1.492l-0.831,18.4
		c-0.019,0.457-0.247,0.89-0.615,1.176l-11.548,8.701c-0.268,0.201-0.6,0.311-0.935,0.311H36.511c-0.861,0-1.559-0.694-1.559-1.559
		v-7.021c0-0.432,0.18-0.846,0.505-1.15l14.066-12.928l0.149-6.691c0.006-0.426,0.201-0.834,0.511-1.12l2.171-1.955
		C41.894,84.53,47.137,72.647,49.88,69.325c-18.892-32.604,5.139-68.29,5.386-68.659C55.561,0.25,56.039,0,56.55,0h42.971
		c0.512,0,0.999,0.25,1.291,0.667c0.243,0.369,24.345,36.161,5.315,68.796c2.771,3.504,7.728,15.604-2.594,53.983l2.174,1.942
		c0.316,0.298,0.512,0.693,0.512,1.133l0.152,6.691l14.065,12.928C120.748,146.457,120.931,146.871,120.931,147.302z M51.247,15.369
		c4.406,1.927,20.451,9.244,26.787,16.675c6.332-7.42,22.384-14.748,26.792-16.675c-2.503-6.205-5.14-10.638-6.144-12.251H57.394
		C56.377,4.731,53.752,9.165,51.247,15.369z M66.187,128.226l-9.648-4.336l-3.76,3.386l-0.149,6.686
		c-0.006,0.408-0.192,0.822-0.505,1.108l-14.048,12.921v4.774H54.9l10.537-7.929L66.187,128.226z M76.118,34.885
		c0-0.061,0.024-0.116,0.024-0.173c-5.164-6.902-21.479-14.422-26.019-16.417c-4.694,13.006-7.943,32.129,2.792,50.099
		c0.113,0.113,0.226,0.195,0.308,0.344c0.436,0.718,0.222,1.653-0.475,2.106c-0.255,0.195-9.002,7.597,2.208,50.275l0.244-0.214
		c0.454-0.414,1.108-0.523,1.684-0.268l6.945,3.118c-0.25-7.234,2.021-15.796,3.419-18.475c9.682-18.572,1.912-34.194,1.833-34.361
		c-0.268-0.53-0.195-1.142,0.125-1.589c0-0.131-0.006-0.256,0.024-0.387C69.304,68.676,76.541,41.79,76.118,34.885z M92.068,123.756
		l6.941-3.118c0.572-0.256,1.218-0.14,1.681,0.268l0.244,0.214c11.313-43.081,2.302-50.218,2.204-50.275
		c-0.664-0.484-0.877-1.44-0.396-2.144c0.127-0.219,0.328-0.374,0.535-0.487c10.607-17.915,7.374-36.961,2.697-49.919
		c-4.548,1.988-20.867,9.502-26.021,16.417c0,0.07,0.03,0.125,0.024,0.183c-0.427,6.896,6.816,33.782,6.884,34.062
		c0.061,0.231,0.061,0.46,0.012,0.691c0.152,0.398,0.165,0.868-0.055,1.272c-0.073,0.149-7.846,15.789,1.839,34.361
		C90.041,107.96,92.312,116.522,92.068,123.756z M117.819,147.991l-14.054-12.921c-0.311-0.286-0.487-0.688-0.499-1.108
		l-0.152-6.686l-3.757-3.386l-9.646,4.336l0.736,16.599l10.535,7.928h16.83v-4.762H117.819z M95.844,137.968v-6.552
		c0-0.865-0.694-1.553-1.559-1.553c-0.858,0-1.56,0.688-1.56,1.553v7.197c0,0.401,0.165,0.804,0.457,1.103l4.933,4.913
		c0.311,0.311,0.706,0.463,1.114,0.463c0.401,0,0.791-0.152,1.096-0.463c0.609-0.608,0.609-1.595,0-2.204L95.844,137.968z
		 M93.427,102.292c0.821-0.262,1.266-1.157,0.998-1.96c-3.653-11.277-0.847-22.598-0.804-22.713
		c0.201-0.834-0.298-1.693-1.126-1.894c-0.828-0.22-1.693,0.28-1.9,1.12c-0.134,0.487-3.081,12.281,0.865,24.448
		c0.207,0.651,0.815,1.077,1.473,1.077C93.116,102.371,93.274,102.347,93.427,102.292z"/>
</g>
<g>
</g>
<g>
</g>
<g>
</g>
<g>
</g>
<g>
</g>
<g>
</g>
<g>
</g>
<g>
</g>
<g>
</g>
<g>
</g>
<g>
</g>
<g>
</g>
<g>
</g>
<g>
</g>
<g>
</g>
</svg>
