<?xml version="1.0" encoding="iso-8859-1"?>
<!-- Generator: Adobe Illustrator 16.0.0, SVG Export Plug-In . SVG Version: 6.00 Build 0)  -->
<!DOCTYPE svg PUBLIC "-//W3C//DTD SVG 1.1//EN" "http://www.w3.org/Graphics/SVG/1.1/DTD/svg11.dtd">
<svg version="1.1" id="Capa_1" xmlns="http://www.w3.org/2000/svg" xmlns:xlink="http://www.w3.org/1999/xlink" x="0px" y="0px"
	 width="147.918px" height="147.918px" viewBox="0 0 147.918 147.918" style="enable-background:new 0 0 147.918 147.918;"
	 xml:space="preserve">
<g>
	<path d="M147.248,104.84c0,1.717-1.4,3.117-3.117,3.117l-19.894-0.006c-1.62,7.855-9.225,13.786-18.358,13.786h-3.081h-61.75H40.56
		c-6.187,0-11.222-5.45-11.222-12.142c0-2.192,0.584-4.227,1.531-6.004h-3.434c-6.187,0-11.222-5.353-11.222-11.929
		c0-2.034,0.529-3.928,1.376-5.603h-6.366C5.045,86.061,0,80.672,0,74.044c0-6.634,5.045-12.035,11.223-12.035h1.203
		c-0.865-1.702-1.401-3.629-1.401-5.7c0-6.634,5.036-12.032,11.223-12.032h23.656c-0.917-1.766-1.482-3.77-1.482-5.931
		c0-6.71,5.044-12.167,11.222-12.167H75.42c0.028,0,0.046,0.013,0.07,0.013h30.413c10.29,0,18.681,7.788,18.681,17.36v2.207
		l20.186-0.161c0.007,0,0.019,0,0.031,0c1.704,0,3.099,1.376,3.117,3.093c0.013,1.721-1.376,3.13-3.093,3.143l-23.334,0.186
		c-0.013,0-0.024,0-0.024,0c-0.828,0-1.626-0.323-2.21-0.91c-0.591-0.585-0.908-1.376-0.908-2.208v-5.343
		c0-6.129-5.59-11.125-12.445-11.125h-50.26c-0.006,0-0.019-0.006-0.024-0.006c-2.731,0.018-4.957,2.67-4.957,5.925
		c0,3.267,2.231,5.931,4.987,5.931h19.778c0.195,0,0.362,0.073,0.545,0.109c0.109-0.012,0.204-0.067,0.322-0.067
		c1.715,0,3.118,1.397,3.118,3.118c0,4.54,0.387,6.104,7.943,6.104h16.86c1.724,0,3.118,1.397,3.118,3.117
		c0,1.721-1.395,3.118-3.118,3.118h-16.86c-8.799,0-13.049-2.731-13.978-9.259H55.643H22.259c-2.75,0-4.987,2.6-4.987,5.797
		c0,3.032,2.031,5.456,4.588,5.699h53.56c1.723,0,3.118,1.397,3.118,3.118c0,0.012-0.006,0.03-0.006,0.042s0.006,0.034,0.006,0.045
		c0,1.721-1.395,3.118-3.118,3.118H22.259c-0.286,0-0.56-0.07-0.84-0.095H11.223c-2.743,0-4.987,2.6-4.987,5.8
		c0,3.182,2.232,5.775,4.987,5.775h15.469c0.25-0.012,0.487-0.073,0.737-0.073h47.974c1.72,0,3.117,1.389,3.117,3.118
		c0,0.013-0.006,0.024-0.006,0.036c0,0.013,0.006,0.024,0.006,0.037c0,1.717-1.397,3.117-3.117,3.117H27.079
		c-2.576,0.207-4.64,2.606-4.64,5.603c0,3.142,2.229,5.693,4.99,5.693h47.974c1.72,0,3.117,1.394,3.117,3.117
		c0,0.019-0.012,0.036-0.012,0.055c0,0.024,0.012,0.037,0.012,0.062c0,1.717-1.397,3.117-3.117,3.117H40.548
		c-2.743,0-4.99,2.643-4.99,5.883c0,3.251,2.235,5.906,4.99,5.906h0.487h61.75h3.081c6.869,0,12.446-4.762,12.446-10.607
		c0-0.828,0.329-1.656,0.913-2.229c0.579-0.585,1.377-0.938,2.205-0.938l22.7,0.006C145.848,101.723,147.248,103.117,147.248,104.84
		z"/>
</g>
<g>
</g>
<g>
</g>
<g>
</g>
<g>
</g>
<g>
</g>
<g>
</g>
<g>
</g>
<g>
</g>
<g>
</g>
<g>
</g>
<g>
</g>
<g>
</g>
<g>
</g>
<g>
</g>
<g>
</g>
</svg>
