<?xml version="1.0" encoding="iso-8859-1"?>
<!-- Generator: Adobe Illustrator 16.0.0, SVG Export Plug-In . SVG Version: 6.00 Build 0)  -->
<!DOCTYPE svg PUBLIC "-//W3C//DTD SVG 1.1//EN" "http://www.w3.org/Graphics/SVG/1.1/DTD/svg11.dtd">
<svg version="1.1" id="Capa_1" xmlns="http://www.w3.org/2000/svg" xmlns:xlink="http://www.w3.org/1999/xlink" x="0px" y="0px"
	 width="170.886px" height="170.886px" viewBox="0 0 170.886 170.886" style="enable-background:new 0 0 170.886 170.886;"
	 xml:space="preserve">
<g>
	<g>
		<path d="M155.274,164.894c-0.347-0.146-34.104-14.991-42.91-36.997c-0.639-1.589-2.454-2.362-4.024-1.741
			c-2.18,0.84-53.256,20.009-88.26-19.814C21.347,94.99,31.759,13.399,70.136,6.677c8.108-1.41,35.84,0.204,39.823,3.471
			c1.108,8.631-0.146,10.494-0.097,10.494c-1.857,1.06-9.39,1.821-15.303,1.939c-1.077,0.019-2.063,0.594-2.618,1.517
			c-0.554,0.91-0.591,2.058-0.109,3.011c1.425,2.78,2.637,6.068,2.917,7.725c-7.39,2.109-20.691,3.251-28.82,1.516l-0.286-0.055
			c-2.819-0.643-5.008-1.616-6.02-3.044c-1.004-1.407-2.95-1.714-4.351-0.721c-1.41,1.001-1.723,2.962-0.725,4.351
			c1.76,2.457,4.67,4.052,8.15,5.081c1.209,5.626,4.445,23.514-0.143,36.833l-0.088,1.513c-2.594,4.549-4.189,9.739-4.189,15.329
			c0,1.717,1.397,3.118,3.118,3.118c1.714,0,3.117-1.401,3.117-3.118c0-13.801,11.216-25.023,25.023-25.023
			c13.798,0,25.021,11.223,25.021,25.023c0,1.717,1.406,3.118,3.117,3.118c1.724,0,3.118-1.401,3.118-3.118
			c0-6.637-2.119-12.784-5.663-17.847c2.204-4.208,12.203-20.724,32.334-16.036c1.692,0.387,3.354-0.654,3.744-2.332
			c0.39-1.684-0.651-3.355-2.332-3.754c-21.446-4.963-33.673,10.269-38.033,17.229c-5.596-5.246-13.049-8.506-21.293-8.506
			c-7.128,0-13.619,2.481-18.883,6.515c1.327-10.717-0.192-21.693-1.333-27.69c11.073,1.105,24.35-1.416,28.625-2.837
			c1.218-0.399,2.186-1.31,2.685-2.524c0.944-2.326,0.013-5.992-1.267-9.228c4.513-0.283,10.778-0.944,13.604-2.558
			c3.489-1.97,4.445-7.283,3.118-17.196c-0.128-0.98-0.646-2.408-2.375-3.675c-7.24-5.304-37.513-5.891-44.64-4.643
			C23.354,8.552,14.125,103.077,13.75,107.096c-0.076,0.834,0.186,1.681,0.731,2.302c33.11,38.897,81.217,27.268,93.298,23.528
			c11.125,22.792,43.586,37.071,45.018,37.704l1.235,0.256c1.2,0,2.351-0.706,2.862-1.882
			C157.57,167.403,156.852,165.576,155.274,164.894z"/>
	</g>
</g>
<g>
</g>
<g>
</g>
<g>
</g>
<g>
</g>
<g>
</g>
<g>
</g>
<g>
</g>
<g>
</g>
<g>
</g>
<g>
</g>
<g>
</g>
<g>
</g>
<g>
</g>
<g>
</g>
<g>
</g>
</svg>
