<?xml version="1.0" encoding="iso-8859-1"?>
<!-- Generator: Adobe Illustrator 16.0.0, SVG Export Plug-In . SVG Version: 6.00 Build 0)  -->
<!DOCTYPE svg PUBLIC "-//W3C//DTD SVG 1.1//EN" "http://www.w3.org/Graphics/SVG/1.1/DTD/svg11.dtd">
<svg version="1.1" id="Capa_1" xmlns="http://www.w3.org/2000/svg" xmlns:xlink="http://www.w3.org/1999/xlink" x="0px" y="0px"
	 width="168.1px" height="168.1px" viewBox="0 0 168.1 168.1" style="enable-background:new 0 0 168.1 168.1;" xml:space="preserve"
	>
<g>
	<path d="M124.566,80.739c-0.673-0.886-1.942-1.053-2.829-0.365l-6.172,4.727l-0.603-0.788c-0.821-1.069-1.989-1.759-3.338-1.942
		c-1.341-0.175-2.648,0.168-3.721,0.99L87.56,98.929l-0.373-0.485c-0.662-0.895-1.95-1.059-2.817-0.379
		c-0.881,0.667-1.052,1.931-0.375,2.817l4.036,5.298l-4.89,3.736l-1.994-2.633c-0.679-0.896-1.951-1.056-2.829-0.375
		c-0.876,0.672-1.053,1.941-0.37,2.816l6.455,8.482c0.391,0.524,0.998,0.804,1.598,0.804c0.424,0,0.856-0.131,1.225-0.41
		c0.882-0.673,1.059-1.938,0.378-2.824l-2.013-2.648l4.892-3.743l4.027,5.298c0.395,0.514,0.998,0.788,1.604,0.788
		c0.427,0,0.855-0.12,1.22-0.4c0.887-0.673,1.056-1.942,0.383-2.823l-0.372-0.497l20.356-15.585
		c2.199-1.686,2.615-4.843,0.943-7.059l-0.615-0.799l6.184-4.745C125.075,82.89,125.25,81.618,124.566,80.739z M115.237,92.953
		l-3.612,2.754l-1.98-2.609c-0.677-0.9-1.952-1.059-2.818-0.386c-0.881,0.674-1.057,1.943-0.376,2.823l1.985,2.622l-1.089,0.832
		l-1.979-2.605c-0.676-0.892-1.95-1.05-2.825-0.383c-0.882,0.673-1.051,1.938-0.372,2.825l1.98,2.614l-1.084,0.832l-1.98-2.616
		c-0.678-0.892-1.959-1.05-2.823-0.372c-0.885,0.668-1.057,1.927-0.376,2.812l1.985,2.627l-4.991,3.819l-4.865-6.402l20.348-15.567
		c0.211-0.165,0.485-0.246,0.747-0.198c0.263,0.033,0.495,0.176,0.659,0.378l3.647,4.794
		C115.751,91.985,115.674,92.62,115.237,92.953z M136.66,95.585c0-12.08-6.178-22.747-15.524-29.018l0.01-7.401
		c-0.032-8.282-6.762-15.007-15.03-15.007c0,0-0.022,0-0.033,0l-16.978,0.017c6.687-4.253,11.15-11.717,11.15-20.217
		C100.255,10.753,89.502,0,76.291,0C63.075,0,52.324,10.753,52.324,23.959c0,8.523,4.483,15.992,11.2,20.246l-17.078,0.022
		c-8.287,0-15.011,6.752-15.006,15.04v50.666c0,1.104,0.896,2.004,2.007,2.004h17.241v41.136c0,8.286,6.448,15.026,14.383,15.026
		h22.414c7.929,0,14.378-6.74,14.378-15.026v-22.576C121.064,130.398,136.66,114.781,136.66,95.585z M56.354,23.954
		c0-10.999,8.951-19.948,19.947-19.948c10.999,0,19.948,8.949,19.948,19.948c0,10.993-8.949,19.937-19.948,19.937
		C65.299,43.891,56.354,34.947,56.354,23.954z M87.494,164.063h-9.413c0.124-0.275,0.214-0.56,0.214-0.872v-36.788
		c0-1.105-0.892-2.003-2.005-2.003c-1.111,0-2.015,0.897-2.015,2.003v36.788c0,0.312,0.091,0.597,0.22,0.872h-9.412
		c-5.722,0-10.367-4.938-10.367-11v-43.104c0-0.01,0.012-0.021,0.012-0.038c0-0.016-0.012-0.021-0.012-0.043V75.511
		c0-1.102-0.892-2.005-2.006-2.005c-1.111,0-2.014,0.903-2.014,2.005v32.386H35.475V59.24c-0.006-2.927,1.133-5.699,3.203-7.778
		c2.074-2.079,4.826-3.223,7.772-3.228l59.65-0.065h0.015c6.052,0,10.987,4.935,11.004,10.987v5.097
		c-4.641-2.284-9.855-3.611-15.365-3.611c-19.261,0-34.916,15.661-34.916,34.906c0,17.937,13.604,32.75,31.031,34.688v22.796
		C97.859,159.125,93.206,164.063,87.494,164.063z M101.743,126.458c-17.032,0-30.901-13.854-30.901-30.885
		c0-17.031,13.869-30.894,30.901-30.894c17.029,0,30.884,13.863,30.884,30.894C132.627,112.614,118.772,126.458,101.743,126.458z"/>
</g>
<g>
</g>
<g>
</g>
<g>
</g>
<g>
</g>
<g>
</g>
<g>
</g>
<g>
</g>
<g>
</g>
<g>
</g>
<g>
</g>
<g>
</g>
<g>
</g>
<g>
</g>
<g>
</g>
<g>
</g>
</svg>
