<?xml version="1.0" encoding="iso-8859-1"?>
<!-- Generator: Adobe Illustrator 16.0.0, SVG Export Plug-In . SVG Version: 6.00 Build 0)  -->
<!DOCTYPE svg PUBLIC "-//W3C//DTD SVG 1.1//EN" "http://www.w3.org/Graphics/SVG/1.1/DTD/svg11.dtd">
<svg version="1.1" id="Capa_1" xmlns="http://www.w3.org/2000/svg" xmlns:xlink="http://www.w3.org/1999/xlink" x="0px" y="0px"
	 width="153.499px" height="153.498px" viewBox="0 0 153.499 153.498" style="enable-background:new 0 0 153.499 153.498;"
	 xml:space="preserve">
<g>
	<g>
		<path d="M21.222,141.939c0,0-18.773-57.17,14.126-70.046c0,0,31.396,23.878,66.391,4.85c0,0,34.927-22.709,36.474,58.061
			c0,0,13.956-21.068,11.204-49.177c0,0,3.185,6.979,4.08,11.089c0,0,1.205-66.588-54.048-74.705c0,0,14.809-5.8,22.786,0.024
			c0,0-31.834-18.222-57.257-3.961c0,0-2.569-4.545,4.439-6.515c0,0-36.882-0.213-38.49,24.15c0,0-36.797,3.915-30.117,50.156
			l4.056-4.671C4.866,81.194,5.359,121.59,21.222,141.939z"/>
	</g>
</g>
<g>
</g>
<g>
</g>
<g>
</g>
<g>
</g>
<g>
</g>
<g>
</g>
<g>
</g>
<g>
</g>
<g>
</g>
<g>
</g>
<g>
</g>
<g>
</g>
<g>
</g>
<g>
</g>
<g>
</g>
</svg>
