<?xml version="1.0" encoding="iso-8859-1"?>
<!-- Generator: Adobe Illustrator 16.0.0, SVG Export Plug-In . SVG Version: 6.00 Build 0)  -->
<!DOCTYPE svg PUBLIC "-//W3C//DTD SVG 1.1//EN" "http://www.w3.org/Graphics/SVG/1.1/DTD/svg11.dtd">
<svg version="1.1" id="Capa_1" xmlns="http://www.w3.org/2000/svg" xmlns:xlink="http://www.w3.org/1999/xlink" x="0px" y="0px"
	 width="143.318px" height="143.318px" viewBox="0 0 143.318 143.318" style="enable-background:new 0 0 143.318 143.318;"
	 xml:space="preserve">
<g>
	<g>
		<path d="M125.212,131.924c0,0,5.504-33.923-3.021-54.498c0,0-4.573-16.568-4.549-21.209c0,0-47.821,31.609-66.366,28.894
			c0,0,24.567-16.472,28.583-25.072c0,0-37.865,26.356-50.442,24.317c0,0,12.614-8.568,15.284-13.189
			c0,0-29.825,5.846-30.616,36.315l-3.41,25.148c0,0-6.36-30.689-8.455-37.796c-6.512-21.878,2.436-59.311,12.182-66.861
			c0,0,18.015-31.073,82.233-21.537c0,0,34.075,1.659,45.815,47.638c2.74,10.735-1.583,34.812-5.085,43.946
			c-3.489,9.048-12.525,40.682-12.525,40.682L125.212,131.924z"/>
	</g>
</g>
<g>
</g>
<g>
</g>
<g>
</g>
<g>
</g>
<g>
</g>
<g>
</g>
<g>
</g>
<g>
</g>
<g>
</g>
<g>
</g>
<g>
</g>
<g>
</g>
<g>
</g>
<g>
</g>
<g>
</g>
</svg>
