<?xml version="1.0" encoding="iso-8859-1"?>
<!-- Generator: Adobe Illustrator 16.0.0, SVG Export Plug-In . SVG Version: 6.00 Build 0)  -->
<!DOCTYPE svg PUBLIC "-//W3C//DTD SVG 1.1//EN" "http://www.w3.org/Graphics/SVG/1.1/DTD/svg11.dtd">
<svg version="1.1" id="Capa_1" xmlns="http://www.w3.org/2000/svg" xmlns:xlink="http://www.w3.org/1999/xlink" x="0px" y="0px"
	 width="206.315px" height="206.315px" viewBox="0 0 206.315 206.315" style="enable-background:new 0 0 206.315 206.315;"
	 xml:space="preserve">
<g>
	<g>
		<path d="M79.538,90.274l1.535,0.131c5.675-4.707,9.228-8.537,10.543-11.393c0.624-1.333,0.712-2.743,0.792-4.004
			c0.07-1.022,0.131-1.994,0.548-2.594l0.886-1.108c0.542-0.499,1.218-0.861,1.939-1.022l0.112,0.611
			c0.286,1.179,0.85,2.299,1.647,3.249l0.161,0.18c1.047,1.16,2.408,1.958,3.903,2.332c0.207,1.428,0.815,2.801,1.766,3.934h0.006
			l0.168,0.177c0.867,0.959,1.981,1.702,3.242,2.137l0.098,0.037c-0.241,0.581-0.627,1.105-1.108,1.528l-1.272,0.843
			c-0.609,0.341-1.678,0.292-2.816,0.247c-1.279-0.043-2.731-0.098-4.135,0.338c-2.999,0.917-7.353,3.849-12.933,8.692L84.5,96.129
			l0.006,0.012l1.547,0.112c5.276-4.558,9.478-7.419,12.147-8.244c1.054-0.329,2.238-0.28,3.404-0.229
			c1.452,0.049,2.831,0.104,3.891-0.506c0.648-0.301,1.228-0.676,1.76-1.153c1.097-0.999,1.814-2.302,2.089-3.767l-0.188-0.837
			l-0.725-0.448l-0.938-0.213c-0.886-0.311-1.687-0.846-2.313-1.54l-0.14-0.144c-0.805-0.953-1.27-2.188-1.315-3.446l-0.953-1.06
			c-1.31-0.155-2.53-0.807-3.416-1.778l-0.131-0.143c-0.563-0.667-0.975-1.474-1.172-2.332l-0.143-1.346l-0.332-0.779l-0.792-0.32
			c-1.635,0.024-3.2,0.643-4.402,1.727l-1.254,1.553c-0.709,1.017-0.798,2.29-0.877,3.635c-0.082,1.111-0.152,2.259-0.605,3.23
			c-1.16,2.5-4.601,6.187-9.959,10.62L79.538,90.274L79.538,90.274z"/>
		<path d="M100.777,71.368l0.155,0.167c1.078,1.193,2.523,1.948,4.089,2.159c0.063,1.583,0.676,3.105,1.741,4.29
			c0.762,0.855,1.729,1.474,2.801,1.852c2.326,0.791,4.896,0.262,6.711-1.383l1.254-1.553c0.706-1.017,0.804-2.289,0.889-3.647
			c0.073-1.118,0.146-2.247,0.591-3.224c1.163-2.494,4.609-6.175,9.956-10.607l0.146-1.547l-1.541-0.143
			c-5.681,4.713-9.225,8.537-10.553,11.393c-0.614,1.333-0.706,2.731-0.791,3.991c-0.067,1.035-0.128,2.007-0.548,2.618L114.8,76.83
			c-1.225,1.111-2.96,1.473-4.53,0.935c-0.719-0.241-1.383-0.679-1.895-1.239c-0.919-1.023-1.321-2.363-1.15-3.718l-0.268-0.889
			l-0.855-0.368c-1.355,0.061-2.658-0.476-3.568-1.486c-0.53-0.572-0.88-1.245-1.041-1.994c-0.387-1.623,0.131-3.306,1.36-4.421
			l1.285-0.822c0.603-0.35,1.668-0.313,2.795-0.277c1.291,0.058,2.733,0.112,4.141-0.316c3.002-0.929,7.355-3.849,12.933-8.699
			l0.122-1.541v-0.012l-1.559-0.119c-5.273,4.57-9.475,7.432-12.136,8.257c-1.047,0.316-2.234,0.268-3.397,0.229
			c-1.459-0.061-2.844-0.11-3.897,0.499c-0.648,0.286-1.236,0.667-1.76,1.16c-1.814,1.653-2.594,4.153-2.024,6.543
			C99.617,69.605,100.095,70.564,100.777,71.368z"/>
		<path d="M152.516,41.777h-22.572c-2.466-7.24-8.58-7.41-8.58-7.41c-8.451-1.258-9.627-3.988-9.627-3.988
			c-1.79-2.576-0.767-7.515-0.767-7.515c1.485-1.211,2.058-4.414,2.058-4.414c2.467-1.897,2.345-4.658,1.212-4.628
			c-0.919,0.024-0.712-0.734-0.712-0.734C115.068,0.643,104.007,0,104.007,0h-1.69c0,0-11.063,0.643-9.523,13.088
			c0,0,0.207,0.758-0.715,0.734c-1.136-0.03-1.242,2.731,1.214,4.628c0,0,0.573,3.203,2.058,4.414c0,0,1.023,4.938-0.767,7.515
			c0,0-1.172,2.73-9.627,3.988c0,0-6.117,0.164-8.58,7.41H53.799c-1.72,0-3.118,1.395-3.118,3.118v58.199
			c0,1.712,1.397,3.118,3.118,3.118h8.081c-1.684,2.722-2.911,5.505-1.501,5.949c0,0,1.684,0.164,3.909-4.25
			c0,0-0.046,1.698-1.833,6.625c-0.344,0.925-1.833,5.602,0.579,3.915c0,0,1.111-0.768,2.569-5.571c0,0-0.779,8.086,0.083,8.5
			c1.132,0.548,1.75-1.047,2.262-8.142c0,0,0.524-2.283,0.768,6.449c0.012,0.45,0.679,2.697,1.602,0.779
			c0.773-1.607,0.432-5.864,0.432-7.295c0,0,0.996,5.529,1.924,5.529c0,0,1.099,1.284,0.648-5.578
			c-0.073-1.12,0.313-3.422,0.362-4.092l0.106-2.631l-0.019-0.219h7.925c-0.177,1.937-0.25,3.848-0.03,5.65
			c0.865,7.088,2.53,22.244,4.226,28.217c0.88,3.094,0.356,10.9,1.072,12.849c0.313,0.841,0.152,1.62-0.536,3.544
			c-2.393,6.71-2.089,11.436,3.915,29.24c0,0,1.848,3.945,0.917,11.039c0,0-3.833,7.886-1.376,8.044c0,0,0.198,0.524,1.023,0.11
			c0,0,1.328,1.369,2.761,0.633c0,0,1.328,1.054,2.463,0.122c0,0,0.917,1.047,2.244,0.194c0,0,1.741,1.17,2.771-0.104
			c0,0,1.839,0.408-1.437-7.885c0,0-1.251-8.793-1.945-10.517c-1.315-3.282-0.384-12.251-0.104-14.182
			c0.459-3.209,0.216-8.695-0.618-12.933c-0.6-3.033,1.042-8.77,1.641-12.301c1.251-7.429,3.684-26.378,3.379-29.952l1.008,0.347
			c0.731,0,1.193-0.347,1.193-0.347c-0.307,3.574,2.119,22.523,3.377,29.952c0.597,3.52,2.234,9.256,1.645,12.301
			c-0.841,4.25-1.084,9.736-0.621,12.933c0.292,1.942,1.211,10.899-0.104,14.182c-0.688,1.711-1.946,10.517-1.946,10.517
			c-3.288,8.293-1.434,7.885-1.434,7.885c1.026,1.248,2.765,0.104,2.765,0.104c1.327,0.853,2.24-0.194,2.24-0.194
			c1.146,0.932,2.473-0.122,2.473-0.122c1.425,0.736,2.752-0.633,2.752-0.633c0.828,0.414,1.023-0.11,1.023-0.11
			c2.472-0.158-1.376-8.044-1.376-8.044c-0.914-7.094,0.913-11.039,0.913-11.039c6.004-17.805,6.309-22.53,3.909-29.24
			c-0.676-1.937-0.847-2.703-0.536-3.544c0.719-1.942,0.195-9.743,1.072-12.849c1.692-5.973,3.361-21.141,4.237-28.217
			c0.207-1.803,0.135-3.727-0.036-5.65h7.928l-0.018,0.219l0.115,2.631c0.049,0.67,0.42,2.983,0.359,4.092
			c-0.444,6.862,0.651,5.578,0.651,5.578c0.913,0,1.925-5.529,1.925-5.529c0,1.431-0.342,5.688,0.426,7.295
			c0.913,1.918,1.596-0.329,1.607-0.779c0.244-8.732,0.768-6.449,0.768-6.449c0.512,7.095,1.133,8.689,2.265,8.142
			c0.853-0.414,0.073-8.5,0.073-8.5c1.455,4.804,2.569,5.571,2.569,5.571c2.412,1.687,0.914-2.99,0.585-3.915
			c-1.79-4.921-1.839-6.625-1.839-6.625c2.223,4.414,3.909,4.25,3.909,4.25c1.413-0.444,0.183-3.239-1.498-5.949h8.074
			c1.717,0,3.118-1.406,3.118-3.118V44.896C155.634,43.172,154.233,41.777,152.516,41.777z M149.399,99.978H56.911V48.013h92.488
			V99.978z"/>
	</g>
</g>
<g>
</g>
<g>
</g>
<g>
</g>
<g>
</g>
<g>
</g>
<g>
</g>
<g>
</g>
<g>
</g>
<g>
</g>
<g>
</g>
<g>
</g>
<g>
</g>
<g>
</g>
<g>
</g>
<g>
</g>
</svg>
