<?xml version="1.0" encoding="iso-8859-1"?>
<!-- Generator: Adobe Illustrator 16.0.0, SVG Export Plug-In . SVG Version: 6.00 Build 0)  -->
<!DOCTYPE svg PUBLIC "-//W3C//DTD SVG 1.1//EN" "http://www.w3.org/Graphics/SVG/1.1/DTD/svg11.dtd">
<svg version="1.1" id="Capa_1" xmlns="http://www.w3.org/2000/svg" xmlns:xlink="http://www.w3.org/1999/xlink" x="0px" y="0px"
	 width="253.509px" height="253.51px" viewBox="0 0 253.509 253.51" style="enable-background:new 0 0 253.509 253.51;"
	 xml:space="preserve">
<g>
	<path d="M102.974,250.392c0,1.724-1.404,3.118-3.118,3.118c-18.682,0-33.883-20.101-33.883-44.81
		c0-6.887,1.203-13.701,3.504-19.882c-7.901-7.307-12.376-17.506-12.376-28.326c0-5.151,1.005-10.157,2.987-14.888
		c0.655-1.596,2.469-2.326,4.071-1.682c1.589,0.658,2.338,2.484,1.678,4.08c-1.666,3.958-2.494,8.16-2.494,12.482
		c0,9.719,4.308,18.84,11.834,25.015c1.072,0.89,1.428,2.362,0.898,3.629c-2.527,5.956-3.861,12.714-3.861,19.559
		c0,21.264,12.397,38.587,27.642,38.587C101.57,247.274,102.974,248.663,102.974,250.392z M61.409,87.325
		c7.621,0,14.76,2.996,20.116,8.446c0.584,0.597,1.392,0.919,2.22,0.919c0.852,0.314,1.671-0.353,2.244-0.959
		c2.999-3.148,6.424-5.86,10.163-8.062c3.169-1.857,6.604-3.355,10.221-4.451c1.315-0.399,2.208-1.617,2.208-2.987V67.054
		c0-0.81-0.317-1.589-0.886-2.174c-6.211-6.388-9.758-15.539-9.758-25.1c0-18.499,12.927-33.551,28.82-33.551
		c15.887,0,28.813,15.052,28.813,33.551c0,9.566-3.556,18.718-9.749,25.1c-0.578,0.585-0.895,1.364-0.895,2.174V80.23
		c0,1.37,0.907,2.582,2.21,2.987c3.605,1.09,7.039,2.594,10.218,4.451c3.721,2.195,7.148,4.901,10.169,8.062
		c0.591,0.612,1.638,1.1,2.253,0.959c0.834,0,1.638-0.335,2.211-0.919c5.34-5.438,12.488-8.446,20.124-8.446
		c1.711,0,3.118-1.395,3.118-3.118c0-1.72-1.407-3.118-3.118-3.118c-8.269,0-16.063,2.883-22.274,8.168
		c-2.855-2.661-5.979-4.993-9.322-6.963c-2.94-1.723-6.083-3.176-9.347-4.317v-9.682c6.777-7.478,10.644-17.789,10.644-28.509
		C161.81,17.848,146.088,0,126.761,0c-19.33,0-35.055,17.848-35.055,39.787c0,10.714,3.867,21.026,10.644,28.503v9.688
		c-3.279,1.148-6.409,2.594-9.353,4.323c-3.349,1.964-6.479,4.302-9.322,6.957c-6.214-5.285-14.008-8.168-22.259-8.168
		c-1.714,0-3.118,1.397-3.118,3.118C58.292,85.937,59.683,87.325,61.409,87.325z M196.409,160.504c0-5.14-1.005-10.145-2.983-14.888
		c-0.657-1.596-2.49-2.326-4.067-1.681c-1.59,0.657-2.339,2.472-1.681,4.067c1.668,3.982,2.496,8.178,2.496,12.482
		c0,9.719-4.311,18.84-11.837,25.027c-1.071,0.889-1.431,2.35-0.901,3.629c2.527,5.943,3.867,12.701,3.867,19.559
		c0,21.263-12.398,38.574-27.651,38.574c-1.711,0-3.117,1.4-3.117,3.117c0,1.724,1.406,3.118,3.117,3.118
		c18.682,0,33.886-20.101,33.886-44.81c0-6.887-1.199-13.713-3.513-19.882C191.921,181.524,196.409,171.324,196.409,160.504z
		 M126.755,118.477c-1.714,0-3.118,1.397-3.118,3.118v98.492c0,1.729,1.404,3.117,3.118,3.117c1.714,0,3.117-1.389,3.117-3.117
		v-98.492C129.873,119.874,128.469,118.477,126.755,118.477z M126.755,100.015c-1.714,0-3.118,1.397-3.118,3.117v7.682
		c0,1.72,1.404,3.118,3.118,3.118c1.714,0,3.117-1.397,3.117-3.118v-7.682C129.873,101.418,128.469,100.015,126.755,100.015z
		 M126.755,227.838c-1.714,0-3.118,1.407-3.118,3.118v7.678c0,1.717,1.404,3.118,3.118,3.118c1.714,0,3.117-1.401,3.117-3.118
		v-7.678C129.873,229.245,128.469,227.838,126.755,227.838z M177.947,118.714c-10.035,32.553-31.834,27.146-32.766,26.891
		c-1.675-0.445-3.361,0.523-3.824,2.174c-0.457,1.662,0.506,3.373,2.174,3.83c0.079,0.029,2.351,0.627,5.84,0.627
		c8.969,0,25.988-3.934,34.543-31.682c0.512-1.644-0.414-3.392-2.058-3.897C180.2,116.132,178.452,117.076,177.947,118.714z
		 M172.125,179.454c0.706-1.571,0-3.416-1.571-4.117c-1.559-0.706-3.41,0-4.104,1.571c-8.531,19.041-25.526,19.448-26.317,19.448
		c-1.711,0.013-3.118,1.407-3.118,3.118c0,1.724,1.407,3.118,3.118,3.118C141.028,202.593,161.889,202.337,172.125,179.454z
		 M108.317,145.616c-0.91,0.231-22.627,5.895-32.747-26.896c-0.505-1.644-2.238-2.57-3.897-2.058
		c-1.647,0.505-2.569,2.253-2.058,3.897c8.555,27.742,25.589,31.688,34.543,31.688c3.492,0,5.76-0.597,5.843-0.627
		c1.665-0.457,2.63-2.18,2.17-3.842C111.697,146.115,109.989,145.147,108.317,145.616z M113.375,196.356
		c-0.168,0-17.683-0.219-26.309-19.448c-0.703-1.571-2.554-2.29-4.113-1.571c-1.571,0.701-2.277,2.546-1.571,4.117
		c10.257,22.883,31.106,23.139,31.993,23.139c1.72,0,3.117-1.395,3.117-3.118C116.492,197.764,115.094,196.356,113.375,196.356z"/>
</g>
<g>
</g>
<g>
</g>
<g>
</g>
<g>
</g>
<g>
</g>
<g>
</g>
<g>
</g>
<g>
</g>
<g>
</g>
<g>
</g>
<g>
</g>
<g>
</g>
<g>
</g>
<g>
</g>
<g>
</g>
</svg>
