<?xml version="1.0" encoding="iso-8859-1"?>
<!-- Generator: Adobe Illustrator 16.0.0, SVG Export Plug-In . SVG Version: 6.00 Build 0)  -->
<!DOCTYPE svg PUBLIC "-//W3C//DTD SVG 1.1//EN" "http://www.w3.org/Graphics/SVG/1.1/DTD/svg11.dtd">
<svg version="1.1" id="Capa_1" xmlns="http://www.w3.org/2000/svg" xmlns:xlink="http://www.w3.org/1999/xlink" x="0px" y="0px"
	 width="155.906px" height="155.906px" viewBox="0 0 155.906 155.906" style="enable-background:new 0 0 155.906 155.906;"
	 xml:space="preserve">
<g>
	<path d="M153.6,71.607c-1.517-0.585-3.222-0.076-4.165,1.239c-4.762,6.674-9.554,10.053-14.285,10.053
		c-6.376,0-11.545-6.345-12.994-8.774c-11.442-19.202-18.603-26.007-28.425-26.936c-6.631-0.612-11.706,0.131-15.789,2.153
		c-4.092-2.016-9.204-2.758-15.783-2.153c-9.49,0.911-16.392,7.432-28.394,26.887c-1.878,3.045-7.027,8.812-13.07,8.812
		c-4.701,0-9.484-3.374-14.239-10.041c-0.95-1.315-2.652-1.839-4.165-1.239c-1.517,0.575-2.457,2.091-2.266,3.718
		c0.043,0.334,4.159,33.6,38.286,33.6c6.159,0,13.006-1.121,20.326-3.312c7.048-2.125,14.005-6.845,19.324-12.971
		c3.778,4.373,10.254,10.248,19.327,12.971c7.318,2.204,14.157,3.312,20.313,3.312c34.136,0,38.245-33.266,38.288-33.6
		C156.047,73.698,155.115,72.183,153.6,71.607z M117.576,101.812c-5.469,0-11.612-1.011-18.273-3.015
		c-6.924-2.088-13.835-7.307-18.451-13.975c-0.655-0.949-1.75-1.521-2.923-1.521c-1.172,0-2.25,0.572-2.926,1.534
		c-4.606,6.655-11.508,11.874-18.438,13.962c-6.652,2.004-12.812,3.015-18.279,3.015c-14.529,0-22.375-7.204-26.564-14.218
		c2.914,1.602,5.895,2.417,8.954,2.417c11.287,0,18.35-10.948,19.117-12.19C51.56,58.75,56.952,54.835,62.795,54.299
		c5.894-0.588,10.257,0.155,13.137,2.101c1.188,0.804,2.752,0.798,3.949,0.006c2.898-1.945,7.246-2.706,13.149-2.106
		c6.047,0.566,11.728,4.588,22.986,23.492c2.704,4.548,9.755,12.251,19.096,12.251c3.075,0,6.09-0.816,8.994-2.436
		C139.947,94.608,132.123,101.812,117.576,101.812z"/>
</g>
<g>
</g>
<g>
</g>
<g>
</g>
<g>
</g>
<g>
</g>
<g>
</g>
<g>
</g>
<g>
</g>
<g>
</g>
<g>
</g>
<g>
</g>
<g>
</g>
<g>
</g>
<g>
</g>
<g>
</g>
</svg>
