<?xml version="1.0" encoding="iso-8859-1"?>
<!-- Generator: Adobe Illustrator 16.0.0, SVG Export Plug-In . SVG Version: 6.00 Build 0)  -->
<!DOCTYPE svg PUBLIC "-//W3C//DTD SVG 1.1//EN" "http://www.w3.org/Graphics/SVG/1.1/DTD/svg11.dtd">
<svg version="1.1" id="Capa_1" xmlns="http://www.w3.org/2000/svg" xmlns:xlink="http://www.w3.org/1999/xlink" x="0px" y="0px"
	 width="182.747px" height="182.746px" viewBox="0 0 182.747 182.746" style="enable-background:new 0 0 182.747 182.746;"
	 xml:space="preserve">
<g>
	<g>
		<path d="M137.383,142.76c-1.692-1.242-4.037-1.078-5.529,0.383c-13.64,13.385-31.676,20.752-50.789,20.752
			c-39.981,0-72.531-32.534-72.531-72.521s32.55-72.522,72.531-72.522c39.987,0,72.534,32.535,72.534,72.522
			c0,10.698-2.284,21.008-6.783,30.646c-0.847,1.82-0.311,3.988,1.29,5.2l26.908,20.344c1.876,1.431,4.543,1.06,5.968-0.821
			c1.431-1.882,1.06-4.562-0.822-5.975l-24.217-18.315c4.092-9.853,6.175-20.289,6.175-31.079c0-44.694-36.364-81.059-81.059-81.059
			C36.361,10.314,0,46.679,0,91.373s36.361,81.059,81.059,81.059c20.131,0,39.202-7.325,54.096-20.691l22.116,16.308
			c1.888,1.388,4.566,1.005,5.955-0.901c1.412-1.9,1.011-4.561-0.901-5.968L137.383,142.76z"/>
		<path d="M180.945,156.868l-43.61-30.866c1.547-2.515,2.996-5.121,4.227-7.886c7.148-16.154,7.568-34.126,1.175-50.606
			c-9.785-25.289-34.58-42.286-61.677-42.286c-1.952,0-3.885,0.101-5.818,0.268l0.006-0.219l-5.252,0.892l-0.423,0.101
			c-1.507,0.268-3.018,0.63-4.534,1.008c-0.584,0.146-1.172,0.25-1.757,0.414c-2.046,0.572-4.074,1.239-6.098,2.013
			c-1.952,0.761-3.848,1.61-5.699,2.533l-1.547,0.84c-1.327,0.706-2.63,1.428-3.897,2.207l-1.535,1.018
			c-1.26,0.828-2.481,1.684-3.666,2.588l-1.215,0.959c-1.331,1.053-2.594,2.152-3.824,3.3l-0.648,0.615
			c-9.247,8.875-15.674,20.24-18.523,32.757l-0.195,0.84c-0.317,1.498-0.572,3.011-0.779,4.54c-0.113,0.654-0.219,1.303-0.292,1.957
			c-0.088,0.643-0.101,1.297-0.143,1.946c-0.5,5.782-0.274,11.596,0.779,17.351l0.448,3.008l0.207-0.085
			c0.703,3.094,1.571,6.162,2.731,9.176c9.782,25.295,34.58,42.277,61.692,42.277c8.163,0,16.185-1.498,23.851-4.469
			c10.942-4.244,20.308-11.18,27.486-20.076l43.599,30.859c0.743,0.523,1.607,0.779,2.466,0.779c1.34,0,2.655-0.627,3.489-1.803
			C183.32,160.887,182.87,158.232,180.945,156.868z M101.853,145.079c-6.686,2.595-13.67,3.897-20.776,3.897
			c-23.614,0-45.194-14.809-53.719-36.827c-1.16-2.983-1.988-6.065-2.643-9.134c27.447-10.937,46.914-37.799,49.818-68.851
			c2.171-0.249,4.335-0.42,6.531-0.42c23.596,0,45.193,14.809,53.725,36.839c5.56,14.346,5.176,30.007-1.035,44.061
			C127.543,128.73,116.206,139.538,101.853,145.079z"/>
	</g>
</g>
<g>
</g>
<g>
</g>
<g>
</g>
<g>
</g>
<g>
</g>
<g>
</g>
<g>
</g>
<g>
</g>
<g>
</g>
<g>
</g>
<g>
</g>
<g>
</g>
<g>
</g>
<g>
</g>
<g>
</g>
</svg>
