<?xml version="1.0" encoding="iso-8859-1"?>
<!-- Generator: Adobe Illustrator 16.0.0, SVG Export Plug-In . SVG Version: 6.00 Build 0)  -->
<!DOCTYPE svg PUBLIC "-//W3C//DTD SVG 1.1//EN" "http://www.w3.org/Graphics/SVG/1.1/DTD/svg11.dtd">
<svg version="1.1" id="Capa_1" xmlns="http://www.w3.org/2000/svg" xmlns:xlink="http://www.w3.org/1999/xlink" x="0px" y="0px"
	 width="155.876px" height="155.876px" viewBox="0 0 155.876 155.876" style="enable-background:new 0 0 155.876 155.876;"
	 xml:space="preserve">
<g>
	<path d="M33.417,54.875c0-7.45,6.056-13.497,13.518-13.497c7.453,0,13.506,6.046,13.506,13.497c0,7.472-6.046,13.518-13.506,13.518
		C39.479,68.393,33.417,62.347,33.417,54.875z M146.295,4.378v105.616c0,2.43-1.961,4.396-4.396,4.396H90.141v37.089
		c0,1.175-0.463,2.283-1.285,3.105c-0.821,0.822-1.942,1.291-3.105,1.291h-0.006l-71.581-0.14c-2.42,0-4.384-1.961-4.384-4.385
		L9.581,4.402c0-1.166,0.466-2.29,1.291-3.112C11.694,0.469,12.812,0,13.978,0h127.927C144.322-0.013,146.295,1.951,146.295,4.378z
		 M137.515,8.774H18.371l0.152,116.425h8.449v-6.15c0-2.424,1.964-4.378,4.394-4.378c2.426,0,4.39,1.954,4.39,4.378v6.15h9.858
		v-6.15c0-2.424,1.964-4.378,4.396-4.378c2.426,0,4.39,1.954,4.39,4.378v6.15h12.145c2.426,0,4.39,1.954,4.39,4.396
		c0,2.423-1.964,4.39-4.39,4.39H54.4v6.15c0,2.436-1.964,4.396-4.39,4.396c-2.433,0-4.396-1.96-4.396-4.396v-6.15h-9.858v6.15
		c0,2.436-1.964,4.396-4.39,4.396c-2.43,0-4.394-1.96-4.394-4.396v-6.15h-8.442l0.012,12.958l62.806,0.134v-37.083
		c0-2.43,1.961-4.396,4.396-4.396h51.758V8.774H137.515z"/>
</g>
<g>
</g>
<g>
</g>
<g>
</g>
<g>
</g>
<g>
</g>
<g>
</g>
<g>
</g>
<g>
</g>
<g>
</g>
<g>
</g>
<g>
</g>
<g>
</g>
<g>
</g>
<g>
</g>
<g>
</g>
</svg>
