<?xml version="1.0" encoding="iso-8859-1"?>
<!-- Generator: Adobe Illustrator 16.0.0, SVG Export Plug-In . SVG Version: 6.00 Build 0)  -->
<!DOCTYPE svg PUBLIC "-//W3C//DTD SVG 1.1//EN" "http://www.w3.org/Graphics/SVG/1.1/DTD/svg11.dtd">
<svg version="1.1" id="Capa_1" xmlns="http://www.w3.org/2000/svg" xmlns:xlink="http://www.w3.org/1999/xlink" x="0px" y="0px"
	 width="133.962px" height="133.962px" viewBox="0 0 133.962 133.962" style="enable-background:new 0 0 133.962 133.962;"
	 xml:space="preserve">
<g>
	<path d="M133.962,88.049c0,18.828-15.674,34.148-34.939,34.148c-14.334,0-26.646-8.488-32.042-20.581
		c-5.379,12.093-17.707,20.581-32.044,20.581C15.665,122.197,0,106.877,0,88.049c0-1.717,1.397-3.117,3.118-3.117
		c1.717,0,3.118,1.4,3.118,3.117c0,15.394,12.87,27.913,28.701,27.913c15.832,0,28.695-12.52,28.695-27.913v-3.982
		c-6.159,8.787-16.304,14.59-27.815,14.59c-18.782,0-34.062-15.308-34.062-34.142c0-1.721,1.403-3.118,3.118-3.118
		c1.726,0,3.118,1.397,3.118,3.118c0,15.387,12.482,27.906,27.827,27.906c15.296,0,27.755-12.458,27.815-27.782v-4.046
		c-5.76,8.397-14.94,13.902-25.334,13.902c-17.433,0-31.6-15.318-31.6-34.148c0-1.72,1.392-3.118,3.118-3.118
		c1.714,0,3.118,1.397,3.118,3.118c0,15.39,11.372,27.912,25.364,27.912c13.898,0,25.179-12.342,25.334-27.574v-3.617
		c-4.932,5.998-12.303,9.864-20.569,9.864c-14.809,0-26.862-12.267-26.862-27.343c0-1.721,1.397-3.118,3.118-3.118
		c1.714,0,3.118,1.397,3.118,3.118c0,11.636,9.24,21.108,20.627,21.108c11.168,0,20.24-9.143,20.569-20.49v-5.325
		c0-1.72,1.403-3.118,3.117-3.118c0.089,0,0.144,0.037,0.231,0.042c0.089-0.006,0.138-0.042,0.231-0.042
		c1.705,0,3.118,1.397,3.118,3.118v5.325c0.329,11.347,9.401,20.49,20.569,20.49c11.374,0,20.617-9.472,20.617-21.108
		c0-1.721,1.413-3.118,3.118-3.118c1.729,0,3.117,1.397,3.117,3.118c0,15.076-12.044,27.343-26.853,27.343
		c-8.27,0-15.638-3.86-20.569-9.864v3.623c0.146,15.232,11.447,27.568,25.331,27.568c13.992,0,25.367-12.516,25.367-27.906
		c0-1.72,1.4-3.117,3.117-3.117c1.729,0,3.118,1.397,3.118,3.117c0,18.831-14.176,34.143-31.603,34.143
		c-10.4,0-19.583-5.505-25.331-13.896v3.985c0.024,15.354,12.495,27.848,27.815,27.848c15.345,0,27.827-12.519,27.827-27.912
		c0-1.72,1.389-3.118,3.117-3.118c1.718,0,3.118,1.397,3.118,3.118c0,18.828-15.284,34.148-34.062,34.148
		c-11.521,0-21.653-5.815-27.815-14.603v3.982c0,15.394,12.86,27.913,28.692,27.913c15.831,0,28.704-12.52,28.704-27.913
		c0-1.717,1.4-3.117,3.117-3.117C132.573,84.932,133.962,86.332,133.962,88.049z"/>
</g>
<g>
</g>
<g>
</g>
<g>
</g>
<g>
</g>
<g>
</g>
<g>
</g>
<g>
</g>
<g>
</g>
<g>
</g>
<g>
</g>
<g>
</g>
<g>
</g>
<g>
</g>
<g>
</g>
<g>
</g>
</svg>
