<?xml version="1.0" encoding="iso-8859-1"?>
<!-- Generator: Adobe Illustrator 16.0.0, SVG Export Plug-In . SVG Version: 6.00 Build 0)  -->
<!DOCTYPE svg PUBLIC "-//W3C//DTD SVG 1.1//EN" "http://www.w3.org/Graphics/SVG/1.1/DTD/svg11.dtd">
<svg version="1.1" id="Capa_1" xmlns="http://www.w3.org/2000/svg" xmlns:xlink="http://www.w3.org/1999/xlink" x="0px" y="0px"
	 width="121.553px" height="121.553px" viewBox="0 0 121.553 121.553" style="enable-background:new 0 0 121.553 121.553;"
	 xml:space="preserve">
<g>
	<g>
		<path d="M8.484,112.51c0,0-44.171-118.099,69.061-106.794c0,0,28.192-11.018,39.615,16.517c0,0-12.184-6.415-17.524,0
			c0,0,38.228,4.064,13.713,80.791c-1.729,5.419-5.328,9.645-14.724,14.991c0,0,4.811-24.795,5.072-28.448
			c0,0-5.072,11.009-8.634,11.617c0,0,8.372-18.973,6.862-36.412c0,0-10.157,9.182-15.235,11.617c0,0,8.562-25.011-5.072-25.392
			c0,0-17.013,19.888-24.877,18.061c0,0,6.104-7.653,6.609-14.084c0,0-8.644,6.431-11.429,6.12c0,0,3.754-7.192,1.839-10.857
			c0,0-11.929,19.649-20.944,17.902c0,0,8.187-13.552,8.96-19.973c0,0-14.672,6.421-16.38,20.892c0,0-8.756-5.511-6.211-13.46
			C19.161,55.604,5.448,75.189,8.484,112.51z"/>
	</g>
</g>
<g>
</g>
<g>
</g>
<g>
</g>
<g>
</g>
<g>
</g>
<g>
</g>
<g>
</g>
<g>
</g>
<g>
</g>
<g>
</g>
<g>
</g>
<g>
</g>
<g>
</g>
<g>
</g>
<g>
</g>
</svg>
