<?xml version="1.0" encoding="iso-8859-1"?>
<!-- Generator: Adobe Illustrator 16.0.0, SVG Export Plug-In . SVG Version: 6.00 Build 0)  -->
<!DOCTYPE svg PUBLIC "-//W3C//DTD SVG 1.1//EN" "http://www.w3.org/Graphics/SVG/1.1/DTD/svg11.dtd">
<svg version="1.1" id="Capa_1" xmlns="http://www.w3.org/2000/svg" xmlns:xlink="http://www.w3.org/1999/xlink" x="0px" y="0px"
	 width="155.888px" height="155.889px" viewBox="0 0 155.888 155.889" style="enable-background:new 0 0 155.888 155.889;"
	 xml:space="preserve">
<g>
	<path d="M151.9,1.75H3.979C1.778,1.75,0,3.525,0,5.721v106c0,2.204,1.778,3.971,3.979,3.971H32.61v34.477
		c0,2.204,1.778,3.97,3.979,3.97h82.685c2.204,0,3.982-1.766,3.982-3.97v-34.477h28.655c2.198,0,3.977-1.767,3.977-3.971v-106
		C155.882,3.525,154.104,1.75,151.9,1.75z M147.942,107.738h-28.655c-2.204,0-3.982,1.778-3.982,3.982v34.477H95.892v-34.318
		c0-2.21-1.778-3.988-3.971-3.988c-2.204,0-3.982,1.778-3.982,3.988v34.318h-20v-34.318c0-2.21-1.778-3.988-3.979-3.988
		c-2.195,0-3.97,1.778-3.97,3.988v34.318H40.56v-34.477c0-2.204-1.775-3.982-3.976-3.982H7.949V9.7H147.93L147.942,107.738
		L147.942,107.738z M38.453,56.103c0-6.753,5.475-12.221,12.233-12.221c6.747,0,12.227,5.468,12.227,12.221
		c0,6.759-5.48,12.233-12.227,12.233C43.915,68.335,38.453,62.861,38.453,56.103z M92.981,56.103c0-6.753,5.48-12.221,12.239-12.221
		c6.747,0,12.215,5.468,12.215,12.221c0,6.759-5.468,12.233-12.215,12.233C98.461,68.335,92.981,62.861,92.981,56.103z"/>
</g>
<g>
</g>
<g>
</g>
<g>
</g>
<g>
</g>
<g>
</g>
<g>
</g>
<g>
</g>
<g>
</g>
<g>
</g>
<g>
</g>
<g>
</g>
<g>
</g>
<g>
</g>
<g>
</g>
<g>
</g>
</svg>
