<?xml version="1.0" encoding="iso-8859-1"?>
<!-- Generator: Adobe Illustrator 16.0.0, SVG Export Plug-In . SVG Version: 6.00 Build 0)  -->
<!DOCTYPE svg PUBLIC "-//W3C//DTD SVG 1.1//EN" "http://www.w3.org/Graphics/SVG/1.1/DTD/svg11.dtd">
<svg version="1.1" id="Capa_1" xmlns="http://www.w3.org/2000/svg" xmlns:xlink="http://www.w3.org/1999/xlink" x="0px" y="0px"
	 width="145.834px" height="145.834px" viewBox="0 0 145.834 145.834" style="enable-background:new 0 0 145.834 145.834;"
	 xml:space="preserve">
<g>
	<path d="M142.27,123.536L130.131,110.7c-0.963-1.019-2.561-1.068-3.578-0.105l-3.413,3.224l-11.323-11.233h4.027
		c1.4,0,2.528-1.134,2.528-2.534V37.166l4.837-5.116l3.372,3.176c0.48,0.46,1.082,0.712,1.804,0.695
		c0.68-0.021,1.303-0.31,1.763-0.796l12.122-12.849c0.463-0.481,0.71-1.138,0.695-1.808c-0.019-0.673-0.312-1.305-0.794-1.765
		l-19.1-18.011c-1.018-0.969-2.626-0.911-3.578,0.107l-12.115,12.838c-0.468,0.481-0.711,1.137-0.7,1.81
		c0.022,0.674,0.312,1.305,0.799,1.77l3.376,3.171L98.039,33.954H47.702c-0.08-0.118-0.124-0.252-0.225-0.358L34.999,20.389
		l3.367-3.171c0.487-0.465,0.78-1.096,0.796-1.77c0.017-0.673-0.229-1.329-0.694-1.81L26.347,0.8
		c-0.947-1.018-2.556-1.07-3.576-0.107L3.676,18.704c-0.486,0.46-0.78,1.092-0.796,1.765c-0.017,0.67,0.23,1.327,0.696,1.808
		l12.121,12.849c0.459,0.486,1.09,0.775,1.765,0.796c0.755,0.047,1.327-0.229,1.808-0.695l3.369-3.176l2.596,2.747
		c-0.411,0.452-0.672,1.034-0.672,1.685v63.573c0,1.401,1.13,2.534,2.531,2.534h6.103l-10.563,11.179l-3.349-3.167
		c-1.021-0.975-2.624-0.914-3.581,0.104L3.564,123.542c-0.46,0.487-0.71,1.144-0.695,1.812c0.022,0.667,0.31,1.302,0.796,1.763
		l19.096,18.024c0.488,0.465,1.116,0.694,1.737,0.694c0.672,0,1.345-0.273,1.844-0.793l12.12-12.832
		c0.958-1.022,0.919-2.613-0.101-3.584l-3.362-3.18l9.116-9.663v7.338c0,1.4,1.133,2.534,2.533,2.534H96.25
		c1.401,0,2.532-1.134,2.532-2.534v-10.418l12.046,12.743l-3.371,3.18c-1.014,0.971-1.052,2.562-0.106,3.584l12.129,12.832
		c0.49,0.52,1.158,0.793,1.836,0.793c0.619,0,1.247-0.229,1.74-0.694l19.098-18.024c0.481-0.461,0.771-1.096,0.793-1.763
		C142.98,124.68,142.728,124.023,142.27,123.536z M116.267,22.014c0.458-0.487,0.71-1.144,0.688-1.816
		c-0.011-0.67-0.304-1.305-0.799-1.771l-3.365-3.171l8.641-9.149l5.692,5.369l-2.676,2.839c-0.952,1.016-0.91,2.616,0.107,3.576
		c0.499,0.465,1.116,0.695,1.746,0.695c0.668,0,1.346-0.265,1.84-0.796l2.675-2.834l6.035,5.691l-8.64,9.163l-3.377-3.176
		c-0.48-0.465-1.218-0.78-1.806-0.695c-0.678,0.017-1.308,0.307-1.766,0.793l-6.812,7.218h-9.444L116.267,22.014z M21.013,26.627
		l-3.374,3.177l-8.64-9.163l6.035-5.691l2.673,2.834c0.498,0.531,1.172,0.793,1.845,0.793c0.621,0,1.251-0.227,1.737-0.693
		c1.018-0.96,1.065-2.56,0.112-3.575l-2.678-2.84l5.694-5.368l8.64,9.149l-3.369,3.171c-0.487,0.465-0.779,1.1-0.796,1.771
		c-0.016,0.672,0.229,1.323,0.696,1.816l11.267,11.928h-9.443l-6.817-7.223C23.637,25.713,22.021,25.656,21.013,26.627z
		 M29.597,123.805c-0.958,1.022-0.919,2.615,0.103,3.583l3.357,3.174l-8.649,9.148l-6.032-5.689l3.014-3.184
		c0.958-1.014,0.917-2.617-0.101-3.58c-1.015-0.968-2.617-0.914-3.582,0.099l-3.021,3.189l-5.694-5.367l8.654-9.155l3.36,3.169
		c0.496,0.459,1.167,0.706,1.816,0.694c0.674-0.016,1.306-0.306,1.766-0.787l15.588-16.504h3.948v5.822L29.597,123.805z
		 M82.383,120.586v-20.438c0-1.401-1.128-2.527-2.529-2.527c-1.4,0-2.532,1.126-2.532,2.527v20.432h-11.7v-20.432
		c0-1.401-1.133-2.527-2.534-2.527c-1.4,0-2.533,1.126-2.533,2.527v20.432H49.198v-20.53c0-1.4-1.132-2.527-2.533-2.527H29.637
		V39.016h83.055c0.079,0.088,0.115,0.195,0.191,0.274c0.121,0.118,0.29,0.181,0.424,0.263v57.971H96.26
		c-1.401,0-2.534,1.127-2.534,2.527v6.129c0,0.044,0,0.094,0,0.132v14.27L82.383,120.586L82.383,120.586z M131.167,130.545
		l-3.021-3.189c-0.961-1.007-2.571-1.062-3.59-0.099c-1.013,0.963-1.05,2.566-0.104,3.58l3.021,3.184l-6.035,5.689l-8.646-9.148
		l3.354-3.174c1.023-0.968,1.062-2.565,0.104-3.583L98.8,105.321v-2.731h6.001c0.11,0.182,0.199,0.361,0.345,0.524l16.17,16.033
		c0.965,0.958,2.517,0.98,3.524,0.045l3.367-3.169l8.651,9.155L131.167,130.545z M62.46,66.696c0,4.058-3.289,7.341-7.333,7.341
		c-4.064,0-7.347-3.283-7.347-7.341c0-4.046,3.283-7.33,7.347-7.33C59.171,59.366,62.46,62.649,62.46,66.696z M95.16,66.696
		c0,4.058-3.288,7.341-7.332,7.341s-7.339-3.283-7.339-7.341c0-4.046,3.286-7.33,7.339-7.33
		C91.872,59.366,95.16,62.649,95.16,66.696z"/>
</g>
<g>
</g>
<g>
</g>
<g>
</g>
<g>
</g>
<g>
</g>
<g>
</g>
<g>
</g>
<g>
</g>
<g>
</g>
<g>
</g>
<g>
</g>
<g>
</g>
<g>
</g>
<g>
</g>
<g>
</g>
</svg>
