<?xml version="1.0" encoding="iso-8859-1"?>
<!-- Generator: Adobe Illustrator 16.0.0, SVG Export Plug-In . SVG Version: 6.00 Build 0)  -->
<!DOCTYPE svg PUBLIC "-//W3C//DTD SVG 1.1//EN" "http://www.w3.org/Graphics/SVG/1.1/DTD/svg11.dtd">
<svg version="1.1" id="Capa_1" xmlns="http://www.w3.org/2000/svg" xmlns:xlink="http://www.w3.org/1999/xlink" x="0px" y="0px"
	 width="183.054px" height="183.054px" viewBox="0 0 183.054 183.054" style="enable-background:new 0 0 183.054 183.054;"
	 xml:space="preserve">
<g>
	<g>
		<path d="M87.072,72.85c0.798-1.267,1.888-2.339,2.691-3.471c1.111-0.956,2.159-1.878,3.182-2.777
			c11.247,4.385,28.235,0.874,43.215-10.096c19.632-14.364,28.247-35.99,19.241-48.277c-9.018-12.297-32.217-10.62-51.843,3.748
			c-16.258,11.907-24.78,28.738-22.161,41.15l-0.238,0.219c-1.477,1.72-3.029,3.529-4.619,5.389
			c-1.309,2.187-2.771,4.351-3.879,6.814c-2.122,5.014-3.306,10.763-2.919,16.386c0.743,11.304,5.906,21.011,11.088,29.493
			l3.852,6.192c0.825,1.918,2.146,3.653,2.67,5.718c1.495,3.982,2.031,8.323,2.064,12.604c0.066,8.604-2.338,16.788-4.813,23.517
			c-5.188,13.529-10.976,21.592-10.976,21.592s6.798-7.137,13.962-20.223c3.465-6.582,7.188-14.687,8.461-24.417
			c0.634-4.841,0.725-10.077-0.457-15.351c-0.358-2.686-1.613-5.164-2.444-7.825l-3.017-6.704c-3.885-8.658-6.653-17.47-6.016-24.64
			C84.384,78.342,85.593,75.401,87.072,72.85z"/>
		<path d="M171.495,77.958c-5.492-7.478-19.595-6.46-31.529,2.28c-9.889,7.24-15.07,17.482-13.476,25.026l-0.14,0.128
			c-0.907,1.048-1.845,2.144-2.813,3.276c-0.804,1.321-1.681,2.648-2.362,4.146c-1.279,3.032-1.997,6.54-1.76,9.962
			c0.45,6.887,3.586,12.77,6.734,17.938l2.338,3.77c0.5,1.157,1.315,2.204,1.62,3.471c0.92,2.423,1.248,5.06,1.255,7.66
			c0.048,5.249-1.426,10.229-2.923,14.315c-3.161,8.227-6.668,13.122-6.668,13.122s4.128-4.348,8.488-12.3
			c2.101-4.001,4.366-8.933,5.146-14.846c0.371-2.947,0.426-6.125-0.28-9.328c-0.213-1.645-0.975-3.148-1.485-4.762l-1.827-4.08
			c-2.369-5.268-4.05-10.619-3.653-14.979c0.14-2.167,0.901-3.964,1.79-5.517c0.493-0.761,1.157-1.431,1.644-2.106
			c0.67-0.591,1.322-1.146,1.937-1.693c6.845,2.655,17.166,0.524,26.275-6.132C171.715,98.574,176.97,85.433,171.495,77.958z"/>
		<path d="M29.986,45.634c-9.882,7.237-15.07,17.476-13.466,25.021l-0.146,0.131c-0.904,1.047-1.845,2.146-2.81,3.276
			c-0.797,1.321-1.684,2.649-2.362,4.147c-1.273,3.041-2.003,6.54-1.766,9.962c0.448,6.884,3.599,12.771,6.741,17.941l2.338,3.764
			c0.499,1.168,1.309,2.222,1.62,3.482c0.925,2.424,1.242,5.061,1.254,7.66c0.049,5.236-1.416,10.229-2.917,14.304
			c-3.163,8.232-6.68,13.134-6.68,13.134s4.135-4.342,8.495-12.3c2.101-4.001,4.363-8.933,5.142-14.857
			c0.369-2.935,0.429-6.114-0.274-9.329c-0.219-1.632-0.971-3.154-1.489-4.749l-1.827-4.092c-2.372-5.255-4.056-10.61-3.657-14.977
			c0.143-2.165,0.892-3.964,1.79-5.511c0.494-0.761,1.148-1.422,1.641-2.104c0.667-0.585,1.315-1.139,1.934-1.69
			c6.838,2.664,17.165,0.524,26.262-6.135c11.935-8.741,17.178-21.884,11.704-29.356C56.039,35.876,41.921,36.89,29.986,45.634z"/>
	</g>
</g>
<g>
</g>
<g>
</g>
<g>
</g>
<g>
</g>
<g>
</g>
<g>
</g>
<g>
</g>
<g>
</g>
<g>
</g>
<g>
</g>
<g>
</g>
<g>
</g>
<g>
</g>
<g>
</g>
<g>
</g>
</svg>
