<?xml version="1.0" encoding="iso-8859-1"?>
<!-- Generator: Adobe Illustrator 16.0.0, SVG Export Plug-In . SVG Version: 6.00 Build 0)  -->
<!DOCTYPE svg PUBLIC "-//W3C//DTD SVG 1.1//EN" "http://www.w3.org/Graphics/SVG/1.1/DTD/svg11.dtd">
<svg version="1.1" id="Capa_1" xmlns="http://www.w3.org/2000/svg" xmlns:xlink="http://www.w3.org/1999/xlink" x="0px" y="0px"
	 width="206.315px" height="206.315px" viewBox="0 0 206.315 206.315" style="enable-background:new 0 0 206.315 206.315;"
	 xml:space="preserve">
<g>
	<g>
		<path d="M152.516,41.777h-22.572c-2.466-7.24-8.58-7.41-8.58-7.41c-8.451-1.258-9.627-3.988-9.627-3.988
			c-1.79-2.576-0.767-7.515-0.767-7.515c1.485-1.211,2.058-4.414,2.058-4.414c2.467-1.897,2.345-4.658,1.212-4.628
			c-0.919,0.024-0.712-0.734-0.712-0.734C115.068,0.643,104.007,0,104.007,0h-1.69c0,0-11.063,0.643-9.523,13.088
			c0,0,0.207,0.758-0.715,0.734c-1.136-0.03-1.242,2.731,1.214,4.628c0,0,0.573,3.203,2.058,4.414c0,0,1.023,4.938-0.767,7.515
			c0,0-1.172,2.73-9.627,3.988c0,0-6.117,0.164-8.58,7.41H53.799c-1.72,0-3.118,1.395-3.118,3.118v58.199
			c0,1.712,1.397,3.118,3.118,3.118h8.081c-1.684,2.722-2.911,5.505-1.501,5.949c0,0,1.684,0.164,3.909-4.25
			c0,0-0.046,1.698-1.833,6.625c-0.344,0.925-1.833,5.602,0.579,3.915c0,0,1.111-0.768,2.569-5.571c0,0-0.779,8.086,0.083,8.5
			c1.132,0.548,1.75-1.047,2.262-8.142c0,0,0.524-2.283,0.768,6.449c0.012,0.45,0.679,2.697,1.602,0.779
			c0.773-1.607,0.432-5.864,0.432-7.295c0,0,0.996,5.529,1.924,5.529c0,0,1.099,1.284,0.648-5.578
			c-0.073-1.12,0.313-3.422,0.362-4.092l0.106-2.631l-0.019-0.219h7.925c-0.177,1.937-0.25,3.848-0.03,5.65
			c0.865,7.088,2.53,22.244,4.226,28.217c0.88,3.094,0.356,10.9,1.072,12.849c0.313,0.841,0.152,1.62-0.536,3.544
			c-2.393,6.71-2.089,11.436,3.915,29.24c0,0,1.848,3.945,0.917,11.039c0,0-3.833,7.886-1.376,8.044c0,0,0.198,0.524,1.023,0.11
			c0,0,1.328,1.369,2.761,0.633c0,0,1.328,1.054,2.463,0.122c0,0,0.917,1.047,2.244,0.194c0,0,1.741,1.17,2.771-0.104
			c0,0,1.839,0.408-1.437-7.885c0,0-1.251-8.793-1.945-10.517c-1.315-3.282-0.384-12.251-0.104-14.182
			c0.459-3.209,0.216-8.695-0.618-12.933c-0.6-3.033,1.042-8.77,1.641-12.301c1.251-7.429,3.684-26.378,3.379-29.952l1.008,0.347
			c0.731,0,1.193-0.347,1.193-0.347c-0.307,3.574,2.119,22.523,3.377,29.952c0.597,3.52,2.234,9.256,1.645,12.301
			c-0.841,4.25-1.084,9.736-0.621,12.933c0.292,1.942,1.211,10.899-0.104,14.182c-0.688,1.711-1.946,10.517-1.946,10.517
			c-3.288,8.293-1.434,7.885-1.434,7.885c1.026,1.248,2.765,0.104,2.765,0.104c1.327,0.853,2.24-0.194,2.24-0.194
			c1.146,0.932,2.473-0.122,2.473-0.122c1.425,0.736,2.752-0.633,2.752-0.633c0.828,0.414,1.023-0.11,1.023-0.11
			c2.472-0.158-1.376-8.044-1.376-8.044c-0.914-7.094,0.913-11.039,0.913-11.039c6.004-17.805,6.309-22.53,3.909-29.24
			c-0.676-1.937-0.847-2.703-0.536-3.544c0.719-1.942,0.195-9.743,1.072-12.849c1.692-5.973,3.361-21.141,4.237-28.217
			c0.207-1.803,0.135-3.727-0.036-5.65h7.928l-0.018,0.219l0.115,2.631c0.049,0.67,0.42,2.983,0.359,4.092
			c-0.444,6.862,0.651,5.578,0.651,5.578c0.913,0,1.925-5.529,1.925-5.529c0,1.431-0.342,5.688,0.426,7.295
			c0.913,1.918,1.596-0.329,1.607-0.779c0.244-8.732,0.768-6.449,0.768-6.449c0.512,7.095,1.133,8.689,2.265,8.142
			c0.853-0.414,0.073-8.5,0.073-8.5c1.455,4.804,2.569,5.571,2.569,5.571c2.412,1.687,0.914-2.99,0.585-3.915
			c-1.79-4.921-1.839-6.625-1.839-6.625c2.223,4.414,3.909,4.25,3.909,4.25c1.413-0.444,0.183-3.239-1.498-5.949h8.074
			c1.717,0,3.118-1.406,3.118-3.118V44.896C155.634,43.172,154.233,41.777,152.516,41.777z M149.399,99.978h-45.443
			c0.03-0.88,0.542-4.253,0.167-4.804l0.064-0.116l1.278,0.222c1.233,0,2.326-0.548,3.038-1.404c0.677,0.563,1.56,0.914,2.546,0.914
			c1.863,0,3.422-1.242,3.787-2.877l0.81,0.083c2.162,0,3.892-1.632,3.892-3.636l-0.043-0.475c1.054-0.648,1.748-1.763,1.748-3.029
			c0-0.935-0.39-1.791-1.011-2.439c1.242-0.53,2.106-1.571,2.106-2.786c0-0.81-0.39-1.535-0.999-2.095
			c0.542-0.63,0.89-1.416,0.89-2.277c0-0.606-0.183-1.166-0.451-1.659c0.365-0.472,0.572-1.035,0.572-1.62
			c0-0.81-0.39-1.54-0.998-2.095c0.542-0.636,0.889-1.428,0.889-2.283c0-1.839-1.467-3.343-3.361-3.59
			c-0.651-1.172-1.942-1.991-3.452-1.991c-0.7,0-1.37,0.207-1.937,0.511c-0.591-0.304-1.236-0.511-1.942-0.511
			c-1.352,0-2.521,0.648-3.233,1.617c-0.566-0.968-1.522-1.617-2.606-1.617c-1.104,0-2.063,0.655-2.64,1.647
			c-0.739-0.98-2-1.647-3.434-1.647c-1.042,0-1.982,0.362-2.719,0.91c-0.712-0.56-1.623-0.91-2.625-0.91
			c-1.285,0-2.42,0.582-3.175,1.428c-0.715-0.579-1.644-0.941-2.661-0.941c-2.284,0-4.135,1.739-4.135,3.885
			c0,0.804,0.274,1.559,0.725,2.189c-0.67,0.661-1.087,1.565-1.087,2.548c0,0.618,0.17,1.172,0.444,1.69l-0.451,1.224
			c0,0.88,0.618,1.659,1.577,2.155c-0.959,0.5-1.577,1.273-1.577,2.165c0,0.743,0.445,1.428,1.167,1.934
			c-0.231,0.505-0.375,1.059-0.375,1.653c0,2.095,1.629,3.778,3.675,3.921l1.334,1.023c1.839,1.172,3.666,1.608,4.083,0.953
			c0.393-0.63-0.642-1.988-2.326-3.136c0.694-0.712,1.129-1.689,1.129-2.761c0-0.974-0.381-1.873-0.965-2.545l0.298-1.035
			c0-0.886-0.624-1.659-1.571-2.158c0.947-0.497,1.571-1.276,1.571-2.156l-0.435-1.23c0.268-0.502,0.435-1.072,0.435-1.687
			c0-0.719-0.225-1.41-0.618-1.973l0.262-0.298c0.725,0.572,1.641,0.929,2.67,0.929c1.154,0,2.189-0.436,2.941-1.172
			c0.676,0.423,1.492,0.694,2.402,0.694c1.428,0,2.695-0.652,3.434-1.647c0.575,0.983,1.535,1.647,2.64,1.647
			c1.084,0,2.046-0.652,2.606-1.611c0.706,0.959,1.882,1.611,3.228,1.611c0.706,0,1.363-0.201,1.948-0.511l1.412,0.447l0.549,0.755
			c-0.536,0.548-0.877,1.215-0.877,1.97l0.438,1.428c-0.359,0.548-0.561,1.172-0.561,1.851c0,0.922,0.384,1.766,0.986,2.414
			c-0.536,0.542-0.877,1.215-0.877,1.958c0,0.779,0.378,1.482,0.938,2.046c-1.2,0.609-2.034,1.787-2.034,3.179l0.061,0.487
			c-0.853,0.511-1.437,1.315-1.681,2.262l-0.815-0.079c-1.23,0-2.326,0.554-3.032,1.395c-0.67-0.566-1.568-0.91-2.539-0.91
			c-1.422,0-2.658,0.73-3.337,1.802l-1.279-0.216c-2.143,0-3.885,1.638-3.885,3.642c0,0.715,0.231,1.376,0.612,1.942
			c-0.332,0.493,0.231,3.538,0.38,4.798H56.904V48.01h92.488v51.968H149.399z"/>
	</g>
</g>
<g>
</g>
<g>
</g>
<g>
</g>
<g>
</g>
<g>
</g>
<g>
</g>
<g>
</g>
<g>
</g>
<g>
</g>
<g>
</g>
<g>
</g>
<g>
</g>
<g>
</g>
<g>
</g>
<g>
</g>
</svg>
