<?xml version="1.0" encoding="iso-8859-1"?>
<!-- Generator: Adobe Illustrator 16.0.0, SVG Export Plug-In . SVG Version: 6.00 Build 0)  -->
<!DOCTYPE svg PUBLIC "-//W3C//DTD SVG 1.1//EN" "http://www.w3.org/Graphics/SVG/1.1/DTD/svg11.dtd">
<svg version="1.1" id="Capa_1" xmlns="http://www.w3.org/2000/svg" xmlns:xlink="http://www.w3.org/1999/xlink" x="0px" y="0px"
	 width="172.862px" height="172.862px" viewBox="0 0 172.862 172.862" style="enable-background:new 0 0 172.862 172.862;"
	 xml:space="preserve">
<g>
	<g>
		<path d="M67.031,1.737h20.782c0,0-2.557,50.606,18.706,36.37c9.73-6.503,26.372-18.058,46.765-0.518
			c16.033,13.786,30.307,36.419,8.312,84.171c-11.473,24.898-49.566,64.222-107.559,21.306
			c-8.823-6.528-32.212-22.341-33.771,28.059H0.001c0,0-0.792-58.961,33.253-54.559c17.646,2.283,58.419,13.055,64.953-29.101
			c1.352-8.723,5.158-19.491-15.588-31.693C73.784,50.578,66.507,45.901,67.031,1.737z"/>
	</g>
</g>
<g>
</g>
<g>
</g>
<g>
</g>
<g>
</g>
<g>
</g>
<g>
</g>
<g>
</g>
<g>
</g>
<g>
</g>
<g>
</g>
<g>
</g>
<g>
</g>
<g>
</g>
<g>
</g>
<g>
</g>
</svg>
