<?xml version="1.0" encoding="iso-8859-1"?>
<!-- Generator: Adobe Illustrator 16.0.0, SVG Export Plug-In . SVG Version: 6.00 Build 0)  -->
<!DOCTYPE svg PUBLIC "-//W3C//DTD SVG 1.1//EN" "http://www.w3.org/Graphics/SVG/1.1/DTD/svg11.dtd">
<svg version="1.1" id="Capa_1" xmlns="http://www.w3.org/2000/svg" xmlns:xlink="http://www.w3.org/1999/xlink" x="0px" y="0px"
	 width="187.021px" height="187.021px" viewBox="0 0 187.021 187.021" style="enable-background:new 0 0 187.021 187.021;"
	 xml:space="preserve">
<g>
	<g>
		<path d="M128.425,92.665c-1.108-1.377-2.533-3.246-2.941-4.33c-0.676-1.869-1.175-7.861-1.175-7.861
			c-0.213-7.091-1.948-10.159-1.948-10.159c-2.996-4.795-3.55-13.71-3.55-13.71l-0.135-15.083
			c-1.041-10.291-8.64-10.363-8.64-10.363c-7.667-1.154-8.727-3.617-8.727-3.617c-1.625-2.332-0.693-6.813-0.693-6.813
			c1.346-1.1,1.863-4.01,1.863-4.01c2.229-1.702,2.125-4.223,1.102-4.199c-0.834,0.021-0.646-0.661-0.646-0.661
			C104.33,0.56,94.298,0,94.298,0h-1.534c0,0-10.032,0.572-8.634,11.858c0,0,0.186,0.682-0.648,0.661
			c-1.029-0.024-1.129,2.484,1.102,4.199c0,0,0.518,2.91,1.866,4.01c0,0,0.923,4.481-0.7,6.813c0,0-1.065,2.469-8.729,3.617
			c0,0-7.593,0.073-8.635,10.363l-0.137,15.083c0,0-0.558,8.927-3.556,13.71c0,0-1.739,3.068-1.946,10.159
			c0,0-0.505,5.992-1.184,7.861c-0.405,1.096-1.827,2.953-2.938,4.33c-2.174,2.728-5.849,8.396-3.897,9.023
			c0,0,1.528,0.146,3.543-3.848c0,0-0.039,1.534-1.665,6.004c-0.305,0.84-1.659,5.065,0.523,3.543c0,0,1.011-0.693,2.332-5.06
			c0,0-0.712,7.337,0.067,7.702c1.029,0.5,1.592-0.938,2.058-7.373c0,0,0.475-2.077,0.694,5.852
			c0.012,0.396,0.621,2.436,1.453,0.706c0.697-1.455,0.386-5.328,0.386-6.625c0,0,0.904,5.005,1.745,5.005
			c0,0,0.993,1.17,0.594-5.041c-0.07-1.018,0.274-3.105,0.323-3.727l0.095-2.388c0,0-0.25-2.728-0.25-3.86
			c0-0.28,0.98-4.007,3.559-7.928c0,0,5.358-9.505,5.015-15.72c0,0-0.076-5.931,2.083-9.292c0,0,1.534,16.791,0.493,21.507
			c0,0-4.82,11.579-3.76,20.22c0.786,6.424,2.302,20.167,3.833,25.592c0.794,2.802,0.319,9.883,0.974,11.643
			c0.28,0.768,0.137,1.462-0.487,3.222c-2.171,6.083-1.894,10.364,3.547,26.513c0,0,1.671,3.574,0.832,10.004
			c0,0-3.48,7.143-1.249,7.295c0,0,0.189,0.475,0.929,0.092c0,0,1.2,1.235,2.502,0.572c0,0,1.203,0.949,2.232,0.104
			c0,0,0.834,0.938,2.04,0.182c0,0,1.577,1.048,2.512-0.097c0,0,1.672,0.39-1.303-7.149c0,0-1.142-7.964-1.766-9.523
			c-1.19-2.983-0.347-11.1-0.091-12.854c0.417-2.904,0.198-7.879-0.557-11.722c-0.542-2.753,0.944-7.952,1.486-11.149
			c1.139-6.734,3.34-23.918,3.066-27.151l0.91,0.316c0.66,0,1.087-0.316,1.087-0.316c-0.274,3.245,1.918,20.417,3.06,27.151
			c0.536,3.197,2.027,8.396,1.485,11.149c-0.755,3.843-0.98,8.817-0.56,11.722c0.262,1.754,1.107,9.877-0.092,12.854
			c-0.627,1.56-1.763,9.523-1.763,9.523c-2.975,7.527-1.303,7.149-1.303,7.149c0.929,1.145,2.505,0.097,2.505,0.097
			c1.206,0.756,2.04-0.182,2.04-0.182c1.029,0.858,2.229-0.104,2.229-0.104c1.304,0.663,2.497-0.572,2.497-0.572
			c0.749,0.383,0.932-0.092,0.932-0.092c2.223-0.146-1.248-7.295-1.248-7.295c-0.835-6.43,0.834-10.004,0.834-10.004
			c5.449-16.148,5.724-20.43,3.55-26.513c-0.627-1.747-0.768-2.454-0.487-3.222c0.646-1.76,0.171-8.841,0.962-11.643
			c1.541-5.419,3.051-19.162,3.837-25.592c1.053-8.641-3.764-20.22-3.764-20.22c-1.041-4.716,0.493-21.507,0.493-21.507
			c2.156,3.361,2.083,9.292,2.083,9.292c-0.354,6.208,5.011,15.72,5.011,15.72c2.582,3.934,3.562,7.66,3.562,7.928
			c0,1.139-0.25,3.86-0.25,3.86l0.098,2.388c0.043,0.621,0.39,2.709,0.323,3.727c-0.396,6.211,0.597,5.041,0.597,5.041
			c0.84,0,1.741-5.005,1.741-5.005c0,1.291-0.311,5.163,0.39,6.625c0.841,1.717,1.438-0.311,1.449-0.706
			c0.22-7.929,0.694-5.852,0.694-5.852c0.463,6.424,1.029,7.873,2.058,7.373c0.78-0.377,0.067-7.702,0.067-7.702
			c1.321,4.341,2.332,5.06,2.332,5.06c2.187,1.522,0.828-2.715,0.523-3.543c-1.632-4.47-1.668-6.004-1.668-6.004
			c2.021,4.006,3.538,3.848,3.538,3.848C134.276,101.062,130.587,95.393,128.425,92.665z M104.044,71.861
			c-1.199,2.701-5.261,6.978-11.561,2.433c-0.959-0.685-3.504-2.369-3.61,3.069l-2.183,0.019c0,0-0.155-6.348,3.52-5.919
			c1.9,0.226,6.308,1.334,6.963-3.218c0.131-0.935,0.529-2.107-1.721-3.398c-0.953-0.548-1.748-1.047-1.748-5.812l2.241-0.024
			c0,0-0.213,5.456,2.059,3.897c1.041-0.704,2.812-1.97,5.041-0.11C104.793,64.28,106.364,66.685,104.044,71.861z"/>
	</g>
</g>
<g>
</g>
<g>
</g>
<g>
</g>
<g>
</g>
<g>
</g>
<g>
</g>
<g>
</g>
<g>
</g>
<g>
</g>
<g>
</g>
<g>
</g>
<g>
</g>
<g>
</g>
<g>
</g>
<g>
</g>
</svg>
