<?xml version="1.0" encoding="iso-8859-1"?>
<!-- Generator: Adobe Illustrator 16.0.0, SVG Export Plug-In . SVG Version: 6.00 Build 0)  -->
<!DOCTYPE svg PUBLIC "-//W3C//DTD SVG 1.1//EN" "http://www.w3.org/Graphics/SVG/1.1/DTD/svg11.dtd">
<svg version="1.1" id="Capa_1" xmlns="http://www.w3.org/2000/svg" xmlns:xlink="http://www.w3.org/1999/xlink" x="0px" y="0px"
	 width="155.904px" height="155.904px" viewBox="0 0 155.904 155.904" style="enable-background:new 0 0 155.904 155.904;"
	 xml:space="preserve">
<g>
	<path d="M134.946,100.062c-1.431-1.425-3.977-1.425-5.396,0l-5.352,5.347l-27.45-27.457l27.443-27.458l5.353,5.355
		c0.713,0.715,1.681,1.114,2.691,1.114s1.985-0.399,2.71-1.114l19.839-19.841c1.491-1.489,1.491-3.897,0-5.392L125.301,1.12
		c-0.712-0.716-1.687-1.115-2.703-1.115c-1.018,0-1.985,0.399-2.691,1.115l-19.851,19.841c-0.707,0.719-1.114,1.684-1.114,2.695
		c0,1.017,0.401,1.982,1.114,2.701l5.346,5.337L77.942,59.152l-27.447-27.44l5.343-5.355c1.489-1.492,1.489-3.897,0-5.396
		L35.998,1.129c-1.489-1.492-3.897-1.492-5.392,0L1.119,30.616c-1.492,1.489-1.492,3.903,0,5.392l19.838,19.854
		c1.428,1.428,3.967,1.428,5.395,0l5.337-5.35l27.447,27.44l-27.447,27.444l-5.337-5.347c-0.712-0.718-1.684-1.113-2.694-1.113
		s-1.982,0.389-2.701,1.113L1.119,119.901c-1.492,1.479-1.492,3.896,0,5.383l29.487,29.483c0.746,0.743,1.72,1.12,2.697,1.12
		c0.975,0,1.952-0.377,2.695-1.12l19.841-19.839c1.489-1.485,1.489-3.896,0-5.395l-5.343-5.347L77.937,96.75l27.465,27.456
		l-5.346,5.34c-1.479,1.486-1.479,3.897,0,5.396l19.851,19.845c0.7,0.712,1.681,1.113,2.691,1.113s1.984-0.389,2.703-1.113
		l29.484-29.496c1.491-1.48,1.491-3.903,0-5.389L134.946,100.062z M34.402,42.423c-1.428-1.425-3.961-1.425-5.396,0l-5.337,5.346
		L9.224,33.313l9.615-9.615l4.545,4.546c0.749,0.749,1.72,1.117,2.701,1.117c0.977,0,1.952-0.375,2.7-1.117
		c1.489-1.489,1.489-3.903,0-5.392l-4.545-4.545l9.091-9.091l14.446,14.44l-5.349,5.355c-1.492,1.492-1.492,3.903,0,5.395
		l30.141,30.135l-8.013,8.011L34.402,42.423z M42.412,126.903l5.353,5.347l-14.449,14.431l-9.076-9.085l5.075-5.065
		c1.489-1.486,1.489-3.903,0-5.396c-1.492-1.485-3.903-1.485-5.395,0l-5.075,5.078l-9.621-9.62l14.446-14.45l5.337,5.347
		c0.719,0.712,1.684,1.114,2.695,1.114c1.017,0,1.982-0.39,2.701-1.114L113.5,34.394c0.719-0.718,1.114-1.684,1.114-2.701
		s-0.39-1.982-1.114-2.7l-5.346-5.337l14.443-14.447l9.621,9.615l-4.543,4.545c-1.492,1.489-1.492,3.903,0,5.392
		c0.743,0.743,1.711,1.117,2.697,1.117c0.975,0,1.955-0.375,2.691-1.117l4.549-4.546l9.091,9.091l-14.449,14.45l-5.334-5.358
		c-0.719-0.716-1.693-1.114-2.71-1.114s-1.973,0.398-2.691,1.114l-79.092,79.086C40.924,122.994,40.924,125.394,42.412,126.903z
		 M137.607,131.684l-5.078-5.079c-1.48-1.479-3.903-1.479-5.383,0c-1.492,1.492-1.492,3.904,0,5.396l5.072,5.072l-9.621,9.621
		l-14.443-14.438l5.346-5.341c0.719-0.718,1.114-1.692,1.114-2.703c0-1.017-0.39-1.973-1.114-2.703L83.344,91.354l8.017-8.007
		l30.153,30.159c1.425,1.426,3.958,1.426,5.395,0l5.334-5.357l14.45,14.449L137.607,131.684z"/>
</g>
<g>
</g>
<g>
</g>
<g>
</g>
<g>
</g>
<g>
</g>
<g>
</g>
<g>
</g>
<g>
</g>
<g>
</g>
<g>
</g>
<g>
</g>
<g>
</g>
<g>
</g>
<g>
</g>
<g>
</g>
</svg>
