<?xml version="1.0" encoding="iso-8859-1"?>
<!-- Generator: Adobe Illustrator 16.0.0, SVG Export Plug-In . SVG Version: 6.00 Build 0)  -->
<!DOCTYPE svg PUBLIC "-//W3C//DTD SVG 1.1//EN" "http://www.w3.org/Graphics/SVG/1.1/DTD/svg11.dtd">
<svg version="1.1" id="Capa_1" xmlns="http://www.w3.org/2000/svg" xmlns:xlink="http://www.w3.org/1999/xlink" x="0px" y="0px"
	 width="159.374px" height="159.373px" viewBox="0 0 159.374 159.373" style="enable-background:new 0 0 159.374 159.373;"
	 xml:space="preserve">
<g>
	<path d="M145.5,42.763c-13.043-20.472-27.889-30.854-44.116-30.854c-10.516,0-18.429,4.527-21.696,6.759
		c-3.273-2.232-11.192-6.759-21.699-6.759c-16.243,0-31.076,10.382-44.116,30.854C8.168,51.729-5.066,79.395,2.052,99.452
		c3.124,8.799,9.648,14.913,19.376,18.146c5.361,1.791,13.859,2.862,22.712,2.862c2.731,0,6.61-0.14,10.827-0.578l22.347,26.079
		c0.816,0.957,1.976,1.504,3.218,1.504c1.215,0,2.394-0.547,3.203-1.497l21.607-25.21c0.194-0.236,0.305-0.511,0.426-0.779
		c3.764,0.365,7.191,0.481,9.664,0.481c8.72,0,17.141-1.071,22.505-2.862c9.743-3.245,16.259-9.353,19.376-18.146
		C164.45,79.383,151.206,51.723,145.5,42.763z M23.403,111.68c-7.925-2.643-12.994-7.325-15.476-14.31
		c-5.586-15.716,3.91-39.787,11.204-51.259c11.816-18.569,24.877-27.967,38.852-27.967c9.42,0,16.422,4.42,18.575,5.967v81.156
		c-4.104,5.456-16.505,8.963-32.431,8.963C36.042,114.225,28.098,113.25,23.403,111.68z M80.523,140.122L62.261,118.81
		c6.735-1.327,13.454-3.689,17.738-7.897c4.479,4.427,11.612,6.802,18.615,8.093L80.523,140.122z M151.431,97.363
		c-2.466,6.991-7.538,11.674-15.461,14.316c-4.7,1.57-12.567,2.545-20.538,2.545c-16.447,0-29.229-3.848-32.62-9.791V24.111
		c2.165-1.547,9.171-5.967,18.578-5.967c13.969,0,27.042,9.411,38.843,27.967C147.522,57.577,157.027,81.629,151.431,97.363z
		 M106.834,67.566c-5.176-0.368-10.103,4.726-10.151,4.777c-1.169,1.263-3.117,1.357-4.396,0.198
		c-1.272-1.167-1.376-3.118-0.219-4.396c0.286-0.304,6.723-7.325,15.217-6.79c5.084,0.387,9.542,3.456,13.269,9.098
		c0.938,1.428,0.548,3.361-0.901,4.308c-0.523,0.354-1.127,0.512-1.705,0.512c-1.011,0-2.003-0.493-2.612-1.41
		C112.759,69.941,109.897,67.816,106.834,67.566z M36.066,49.521c-1.34-1.065-1.583-3.011-0.523-4.366
		c0.28-0.347,6.896-8.199,15.201-8.254c4.753,0.131,8.966,2.756,12.535,7.831c0.983,1.416,0.648,3.349-0.755,4.338
		c-1.416,0.986-3.349,0.648-4.342-0.755c-2.369-3.358-4.911-5.093-7.581-5.179c-4.457,0.049-8.805,4.214-10.145,5.873
		c-0.618,0.779-1.522,1.179-2.451,1.179C37.32,50.194,36.647,49.969,36.066,49.521z M73.59,75.625
		c1.017,1.395,0.712,3.338-0.673,4.348c-1.385,1.012-3.337,0.719-4.348-0.669c-2.256-3.081-4.655-4.622-7.344-4.726
		c-4.944,0.012-10.007,4.664-11.566,6.54c-0.624,0.743-1.504,1.126-2.402,1.126c-0.697,0-1.413-0.23-1.988-0.719
		c-1.321-1.096-1.501-3.05-0.405-4.377c0.305-0.366,7.383-8.79,16.136-8.79c0.131,0,0.268,0,0.405,0.006
		C66.064,68.495,70.174,70.94,73.59,75.625z M20.246,70.821c-0.621,0.749-1.501,1.133-2.399,1.133c-0.697,0-1.416-0.229-1.982-0.704
		c-1.331-1.111-1.516-3.06-0.411-4.39c0.304-0.375,7.38-8.796,16.136-8.796c0.131,0,0.268,0.006,0.405,0.006
		c4.67,0.137,8.771,2.588,12.197,7.277c1.017,1.388,0.703,3.34-0.667,4.351c-1.397,1.017-3.337,0.704-4.359-0.673
		c-2.256-3.093-4.665-4.64-7.359-4.719c-0.079,0-0.143-0.006-0.229-0.006C25.815,64.288,20.31,70.751,20.246,70.821z M137.56,87.109
		c1.017,1.395,0.712,3.337-0.67,4.348c-1.389,1.018-3.337,0.713-4.348-0.663c-2.259-3.094-4.67-4.634-7.368-4.72
		c-5.894-0.383-11.496,6.467-11.557,6.534c-0.621,0.749-1.498,1.132-2.399,1.132c-0.7,0-1.419-0.23-1.985-0.712
		c-1.327-1.103-1.51-3.057-0.414-4.384c0.311-0.372,7.387-8.793,16.148-8.793c0.134,0,0.274,0,0.402,0
		C130.034,79.985,134.138,82.434,137.56,87.109z M98.687,50.897c-1.315-1.096-1.492-3.048-0.396-4.375
		c0.305-0.368,7.381-8.793,16.148-8.793c0.135,0,0.269,0,0.402,0.006c4.67,0.131,8.763,2.588,12.185,7.271
		c1.011,1.391,0.706,3.336-0.67,4.344c-1.376,1.011-3.331,0.713-4.354-0.667c-2.253-3.084-4.652-4.625-7.332-4.713
		c-0.079-0.006-0.158-0.006-0.231-0.006c-4.822,0-9.815,4.701-11.35,6.54c-0.621,0.743-1.492,1.123-2.399,1.123
		C99.978,51.616,99.284,51.385,98.687,50.897z M48.381,89.563c1.017,1.395,0.712,3.343-0.673,4.354
		c-1.392,1.01-3.337,0.706-4.348-0.677c-2.262-3.093-4.677-4.634-7.356-4.719c-6.117-0.134-11.518,6.46-11.56,6.534
		c-0.618,0.742-1.504,1.139-2.408,1.139c-0.691,0-1.41-0.244-1.982-0.719c-1.321-1.097-1.51-3.063-0.398-4.391
		c0.304-0.371,7.757-9.273,16.541-8.78C40.855,82.434,44.965,84.881,48.381,89.563z"/>
</g>
<g>
</g>
<g>
</g>
<g>
</g>
<g>
</g>
<g>
</g>
<g>
</g>
<g>
</g>
<g>
</g>
<g>
</g>
<g>
</g>
<g>
</g>
<g>
</g>
<g>
</g>
<g>
</g>
<g>
</g>
</svg>
