<?xml version="1.0" encoding="iso-8859-1"?>
<!-- Generator: Adobe Illustrator 16.0.0, SVG Export Plug-In . SVG Version: 6.00 Build 0)  -->
<!DOCTYPE svg PUBLIC "-//W3C//DTD SVG 1.1//EN" "http://www.w3.org/Graphics/SVG/1.1/DTD/svg11.dtd">
<svg version="1.1" id="Capa_1" xmlns="http://www.w3.org/2000/svg" xmlns:xlink="http://www.w3.org/1999/xlink" x="0px" y="0px"
	 width="140.083px" height="140.083px" viewBox="0 0 140.083 140.083" style="enable-background:new 0 0 140.083 140.083;"
	 xml:space="preserve">
<g>
	<path d="M110.854,0.093c-16.112,0-29.238,13.116-29.238,29.226v44.104c-1.812-3.036-3.887-5.955-6.499-8.565
		c-8.317-8.317-19.37-12.895-31.122-12.895c-11.757,0-22.812,4.578-31.127,12.895c-17.156,17.158-17.156,45.081,0,62.241
		c8.316,8.306,19.371,12.892,31.127,12.892s22.804-4.573,31.122-12.892c3.002-3.009,5.289-6.425,7.248-9.98
		c2.917,13.062,14.556,22.872,28.489,22.872c16.108,0,29.229-13.116,29.229-29.226V29.313
		C140.083,13.205,126.972,0.093,110.854,0.093z M110.854,8.862c11.281,0,20.46,9.176,20.46,20.462v36.336H90.386V29.325
		C90.386,18.033,99.573,8.862,110.854,8.862z M19.071,71.054c6.662-6.651,15.504-10.328,24.924-10.328
		c7.93,0,15.366,2.736,21.517,7.533L16.28,117.478C5.562,103.667,6.391,83.727,19.071,71.054z M68.918,120.905
		c-12.266,12.262-32.819,13.088-46.411,2.762l49.201-49.198C82.419,88.279,81.593,108.214,68.918,120.905z M110.854,131.224
		c-11.29,0-20.468-9.183-20.468-20.46V74.435h40.933v36.329C131.322,122.042,122.135,131.224,110.854,131.224z"/>
</g>
<g>
</g>
<g>
</g>
<g>
</g>
<g>
</g>
<g>
</g>
<g>
</g>
<g>
</g>
<g>
</g>
<g>
</g>
<g>
</g>
<g>
</g>
<g>
</g>
<g>
</g>
<g>
</g>
<g>
</g>
</svg>
