<?xml version="1.0" encoding="iso-8859-1"?>
<!-- Generator: Adobe Illustrator 16.0.0, SVG Export Plug-In . SVG Version: 6.00 Build 0)  -->
<!DOCTYPE svg PUBLIC "-//W3C//DTD SVG 1.1//EN" "http://www.w3.org/Graphics/SVG/1.1/DTD/svg11.dtd">
<svg version="1.1" id="Capa_1" xmlns="http://www.w3.org/2000/svg" xmlns:xlink="http://www.w3.org/1999/xlink" x="0px" y="0px"
	 width="150.106px" height="150.106px" viewBox="0 0 150.106 150.106" style="enable-background:new 0 0 150.106 150.106;"
	 xml:space="preserve">
<g>
	<g>
		<path d="M145.567,126.836c-0.755-0.713-1.814-1.005-2.831-0.768c-0.408,0.092-9.975,2.149-13.926-8.324
			c-0.914-2.252-22.342-55.496-28.521-65.132c-2.138-3.334-4.293-12.066-5.03-17.077c-1.011-6.872,0.019-28.476,0.024-28.695
			c0.086-1.72-1.242-3.188-2.972-3.261c-1.905-0.161-3.178,1.239-3.251,2.962c-0.062,0.911-1.072,22.438,0.024,29.898
			c0.511,3.452,2.691,14.446,5.955,19.546c5.857,9.143,27.767,63.537,27.949,64.036c4.207,11.07,13.64,13.007,19.339,12.422
			c0.92,1.061,1.79,2.399,1.474,3.472c-0.542,1.826-4.165,3.586-6.418,4.007c-3.781,0.693-12.179,0.2-16.52-0.049
			c-7.739-0.438-15.454-13.043-17.731-17.763c-4.007-9.157-26.634-17.402-30.973-18.895c-8.62-3.507-5.837-12.988-1.946-23.236
			c0.548-1.425,1.035-2.73,1.376-3.79c8.43-26.196-17.802-50.138-18.922-51.143c-1.023-0.928-2.545-1.065-3.729-0.329
			c-1.185,0.733-1.732,2.155-1.358,3.492c0.511,1.827,0.109,6.625-0.25,10.866c-0.475,5.599-0.968,11.393-0.045,15.183
			c2.813,11.548,2.253,21.367,2.016,24.113c-0.35,3.958-1.321,10.022-2.265,15.893c-1.035,6.461-2.107,13.135-2.457,17.622
			c-0.597,7.873,1.188,13.701,5.312,17.33c4.248,3.744,9.715,3.945,12.529,3.721c1.178,1.449,1.464,2.441,1.303,2.893
			c-0.523,1.437-4.777,2.916-8.281,3.275c-3.349,0.39-12.963,1.169-17.314,0.079c-13.183-3.343-15.731-19.394-17.591-31.115
			c-0.423-2.691-0.81-5.103-1.27-7.046C17.799,94.88,8.641,81.203,6.808,78.506c-2.07-5.791,1.939-9.895,8.235-15.441
			c2.54-2.232,4.932-4.342,6.299-6.622c8.421-14.042-5.52-47.228-7.133-50.97c-0.688-1.589-2.527-2.311-4.098-1.625
			C8.528,4.526,7.804,6.365,8.485,7.945c4.034,9.347,13.262,35.694,7.505,45.291c-0.871,1.446-2.91,3.249-5.063,5.146
			c-5.867,5.163-13.898,12.239-9.812,22.7l0.335,0.639c4.028,5.889,10.796,16.746,11.755,20.752
			c0.423,1.809,0.779,4.062,1.178,6.583c2.006,12.678,5.051,31.828,22.21,36.182c6.253,1.577,18.237,0.231,19.528,0.085
			c1.872-0.176,11.305-1.425,13.469-7.35c1.172-3.239-0.07-6.771-3.702-10.491c-0.731-0.743-1.836-1.054-2.838-0.883
			c-0.058,0.024-5.568,1.035-9.054-2.077c-2.558-2.265-3.629-6.369-3.188-12.147c0.326-4.231,1.373-10.784,2.396-17.104
			c1.005-6.254,1.946-12.16,2.314-16.344c0.691-7.942-0.119-17.713-2.177-26.119c-0.673-2.801-0.213-8.312,0.198-13.174
			c0.125-1.455,0.244-2.855,0.338-4.186c6.717,8.019,16.767,23.339,11.786,38.852c-0.326,0.992-0.773,2.177-1.272,3.492
			c-3.1,8.162-9.548,25.127,5.575,31.289c10.108,3.507,25.324,10.649,27.498,15.674c1.018,2.106,10.272,20.647,23.334,21.396
			c2.716,0.158,6.796,0.39,10.632,0.39c2.673,0,5.225-0.115,7.075-0.45c2.595-0.475,9.67-2.898,11.29-8.379
			C150.5,135.215,150.359,131.354,145.567,126.836z"/>
	</g>
</g>
<g>
</g>
<g>
</g>
<g>
</g>
<g>
</g>
<g>
</g>
<g>
</g>
<g>
</g>
<g>
</g>
<g>
</g>
<g>
</g>
<g>
</g>
<g>
</g>
<g>
</g>
<g>
</g>
<g>
</g>
</svg>
