<?xml version="1.0" encoding="iso-8859-1"?>
<!-- Generator: Adobe Illustrator 16.0.0, SVG Export Plug-In . SVG Version: 6.00 Build 0)  -->
<!DOCTYPE svg PUBLIC "-//W3C//DTD SVG 1.1//EN" "http://www.w3.org/Graphics/SVG/1.1/DTD/svg11.dtd">
<svg version="1.1" id="Capa_1" xmlns="http://www.w3.org/2000/svg" xmlns:xlink="http://www.w3.org/1999/xlink" x="0px" y="0px"
	 width="148.202px" height="148.203px" viewBox="0 0 148.202 148.203" style="enable-background:new 0 0 148.202 148.203;"
	 xml:space="preserve">
<g>
	<g>
		<path d="M141.343,31.736c-2.917-12.577-11.417-21.793-24.606-26.677c-8.786-3.245-30.184-6.214-39.604,4.859
			C46.763-8.078,30.749,1.725,19.98,13.292c-23.769,25.532-12.894,51.253-2.731,62.42c7.347,8.087,9.472,12.763,10.662,18.104
			c0.268,1.175,0.874,4.646,0.904,5.389c1.878,44.476,17.043,48.287,20.669,48.555c1.057,0.305,2.098,0.444,3.105,0.444
			c1.848,0,3.599-0.493,5.188-1.467c7.532-4.616,9.853-18.986,11.893-31.64c0.742-4.579,1.434-8.902,2.243-11.417
			c1.403-4.354,2.563-5.347,2.552-5.498c1.011,0.45,2.716,3.708,2.904,4.992c0.28,1.918,0.481,4.402,0.706,7.186
			c1.163,14.285,2.898,35.828,18.091,37.388c1.078,0.231,3.642,0.469,6.79-1.431c7.161-4.348,12.464-16.801,15.746-37.017
			l0.493-3.233c1.182-8.104,2.819-19.211,9.512-26.25C136.441,71.742,145.775,50.859,141.343,31.736z M124.22,75.529
			c-8.062,8.477-9.938,21.215-11.167,29.654l-0.475,3.13c-3.782,23.255-9.408,30.275-12.416,32.395
			c-1.59,1.12-2.582,0.962-2.473,1.005l-0.706-0.141c-10.181-0.889-11.679-19.418-12.665-31.7c-0.244-2.947-0.457-5.571-0.749-7.599
			c-0.299-2.047-3.197-9.853-8.525-10.297c-5.729-0.384-8.217,7.252-9.033,9.797c-0.956,2.978-1.659,7.307-2.469,12.337
			c-1.559,9.633-3.909,24.198-9.006,27.328c-0.686,0.427-1.714,0.864-3.565,0.268l-0.941-0.146h-0.082
			c-0.155,0-13.149-1.571-14.885-42.612c-0.061-1.431-0.815-5.468-1.041-6.491c-1.638-7.318-4.923-12.994-12.133-20.922
			c-2.414-2.643-22.776-26.631,2.683-53.972C36.269,4.999,53.528-3.508,92.721,28.679c1.334,1.087,3.288,0.904,4.391-0.43
			c1.096-1.333,0.901-3.285-0.427-4.39c-5.023-4.113-9.736-7.611-14.157-10.538c7.222-7.252,24.266-5.279,32.065-2.387
			c11.296,4.177,18.256,11.651,20.697,22.229C139.011,49.293,131.259,68.143,124.22,75.529z"/>
	</g>
</g>
<g>
</g>
<g>
</g>
<g>
</g>
<g>
</g>
<g>
</g>
<g>
</g>
<g>
</g>
<g>
</g>
<g>
</g>
<g>
</g>
<g>
</g>
<g>
</g>
<g>
</g>
<g>
</g>
<g>
</g>
</svg>
