<?xml version="1.0" encoding="iso-8859-1"?>
<!-- Generator: Adobe Illustrator 16.0.0, SVG Export Plug-In . SVG Version: 6.00 Build 0)  -->
<!DOCTYPE svg PUBLIC "-//W3C//DTD SVG 1.1//EN" "http://www.w3.org/Graphics/SVG/1.1/DTD/svg11.dtd">
<svg version="1.1" id="Capa_1" xmlns="http://www.w3.org/2000/svg" xmlns:xlink="http://www.w3.org/1999/xlink" x="0px" y="0px"
	 width="187.071px" height="187.071px" viewBox="0 0 187.071 187.071" style="enable-background:new 0 0 187.071 187.071;"
	 xml:space="preserve">
<g>
	<path d="M109.118,70.634c-3.331-1.229-10.644-2.24-14.721,1.267c-8.555-4.728-15.36-4.037-21.001,1.994
		c-9.097,9.789-4.896,19.684-0.974,24.001c2.378,2.605,3.057,4.061,3.431,5.748c0.067,0.292,0.256,1.291,0.28,1.644
		c0.685,16.228,6.43,18.298,8.491,18.505c0.457,0.122,0.91,0.177,1.355,0.177c0.91,0,1.784-0.243,2.576-0.736
		c3.221-1.961,4.089-7.387,4.862-12.167c0.064-0.371,0.119-0.73,0.18-1.083c0.433,5.224,1.337,13.122,7.557,13.81
		c0.658,0.122,1.912,0.177,3.35-0.693c2.959-1.791,4.993-6.382,6.247-14.078l0.171-1.139c0.39-2.668,0.913-6.346,2.983-8.507
		c3.507-3.678,6.339-11.725,4.811-18.311C117.57,76.126,114.233,72.521,109.118,70.634z M110.213,95.874
		c-3.172,3.336-3.86,8.116-4.323,11.283l-0.152,1.047c-1.418,8.677-3.488,10.303-3.896,10.559c-0.03-0.012-0.055-0.012-0.092-0.012
		c-2.39-0.207-2.913-6.747-3.157-9.889c-0.101-1.072-0.167-2.022-0.28-2.753c-0.17-1.212-1.521-4.64-4.302-4.884
		c-2.234-0.127-3.681,1.334-4.676,4.464c-0.375,1.157-0.63,2.733-0.932,4.561c-0.347,2.198-1.288,7.989-2.579,8.61
		c-0.244-0.086-0.283-0.109-0.487-0.109c-0.024,0-0.052,0-0.082,0c-0.031-0.013-3.529-1.193-4.059-13.677
		c-0.019-0.475-0.298-2.095-0.405-2.558c-0.63-2.825-1.927-5.072-4.622-8.037c-0.768-0.841-7.183-8.409,0.938-17.117
		c2.231-2.39,6.695-7.203,18.968,1.632l-4.896,2.463c-0.81,0.405-1.34,1.203-1.397,2.119c-0.055,0.911,0.387,1.766,1.135,2.277
		l5.039,3.298l-4.223,4.598c-0.94,1.028-0.88,2.636,0.155,3.567c1.029,0.95,2.634,0.896,3.58-0.14l6.232-6.777
		c0.512-0.548,0.743-1.291,0.652-2.034c-0.092-0.728-0.5-1.404-1.127-1.802l-3.849-2.53l4.567-2.29
		c0.767-0.387,1.303-1.148,1.388-1.988c0.098-0.85-0.243-1.69-0.913-2.232c-1.114-0.911-2.204-1.753-3.255-2.521
		c2.47-0.792,6.251-0.305,8.181,0.405c3.502,1.297,5.657,3.586,6.406,6.829C114.963,87.354,112.417,93.554,110.213,95.874z
		 M35.198,138.357h116.666c1.412,0,2.545-1.139,2.545-2.521V61.391c0-1.4-1.139-2.536-2.545-2.536H35.198
		c-1.403,0-2.539,1.148-2.539,2.536v74.44C32.659,137.219,33.795,138.357,35.198,138.357z M37.734,63.93h111.602v69.355H37.734
		V63.93z M184.526,43.011H2.536c-1.4,0-2.536,1.142-2.536,2.523c0,1.41,1.136,2.54,2.536,2.54h14.903v95.204
		c0,5.675,4.615,10.291,10.281,10.291h131.632c5.657,0,10.272-4.616,10.272-10.291V48.074h14.9c1.412,0,2.539-1.136,2.539-2.54
		C187.065,44.152,185.926,43.011,184.526,43.011z M164.566,143.29c0,2.874-2.339,5.212-5.213,5.212H27.727
		c-2.874,0-5.207-2.338-5.207-5.212V48.074h142.045V143.29L164.566,143.29z M0.006,36.032c0-1.403,1.136-2.53,2.54-2.53h181.992
		c1.4,0,2.533,1.148,2.533,2.53c0,1.41-1.145,2.533-2.533,2.533H2.545C1.142,38.578,0.006,37.436,0.006,36.032z"/>
</g>
<g>
</g>
<g>
</g>
<g>
</g>
<g>
</g>
<g>
</g>
<g>
</g>
<g>
</g>
<g>
</g>
<g>
</g>
<g>
</g>
<g>
</g>
<g>
</g>
<g>
</g>
<g>
</g>
<g>
</g>
</svg>
