<?xml version="1.0" encoding="iso-8859-1"?>
<!-- Generator: Adobe Illustrator 16.0.0, SVG Export Plug-In . SVG Version: 6.00 Build 0)  -->
<!DOCTYPE svg PUBLIC "-//W3C//DTD SVG 1.1//EN" "http://www.w3.org/Graphics/SVG/1.1/DTD/svg11.dtd">
<svg version="1.1" id="Capa_1" xmlns="http://www.w3.org/2000/svg" xmlns:xlink="http://www.w3.org/1999/xlink" x="0px" y="0px"
	 width="148.204px" height="148.204px" viewBox="0 0 148.204 148.204" style="enable-background:new 0 0 148.204 148.204;"
	 xml:space="preserve">
<g>
	<path d="M141.341,31.737C138.43,19.163,129.924,9.944,116.734,5.06c-8.786-3.245-30.184-6.205-39.598,4.859
		c-30.37-18-46.384-8.19-57.153,3.373C-3.785,38.825,7.09,64.545,17.253,75.712c7.353,8.087,9.472,12.763,10.662,18.104
		c0.271,1.181,0.88,4.646,0.904,5.395c1.885,44.47,17.05,48.287,20.673,48.556c1.053,0.304,2.101,0.438,3.102,0.438
		c1.848,0,3.599-0.486,5.188-1.461c7.532-4.622,9.853-18.986,11.892-31.646c0.743-4.579,1.434-8.896,2.238-11.417
		c1.416-4.354,2.57-5.347,2.558-5.492c1.011,0.45,2.719,3.702,2.898,4.986c0.28,1.918,0.487,4.402,0.706,7.191
		c1.166,14.285,2.898,35.829,18.091,37.388c1.078,0.231,3.636,0.475,6.79-1.437c7.167-4.348,12.464-16.788,15.752-37.011
		l0.487-3.239c1.182-8.104,2.825-19.211,9.512-26.25C136.439,71.743,145.773,50.863,141.341,31.737z M124.218,75.536
		c-8.062,8.465-9.938,21.203-11.167,29.643l-0.476,3.142c-3.781,23.242-9.407,30.263-12.415,32.395
		c-1.59,1.12-2.582,0.95-2.473,0.992c-0.231-0.079-0.469-0.128-0.706-0.14c-10.182-0.889-11.679-19.418-12.666-31.7
		c-0.243-2.947-0.45-5.571-0.742-7.587c-0.305-2.059-3.2-9.865-8.531-10.309c-5.748-0.463-8.217,7.264-9.033,9.797
		c-0.956,2.978-1.659,7.319-2.469,12.337c-1.559,9.633-3.909,24.198-9,27.328c-0.685,0.433-1.708,0.876-3.565,0.268
		c-0.305-0.098-0.624-0.134-0.935-0.134c-0.03,0-0.058,0-0.088,0c-0.143,0-13.149-1.571-14.882-42.624
		c-0.064-1.431-0.819-5.468-1.05-6.479c-1.632-7.331-4.917-12.994-12.127-20.934c-2.411-2.643-22.77-26.622,2.683-53.969
		C35.892,5.407,52.402-2.947,88.962,25.66l-19.738,9.877c-0.989,0.499-1.65,1.479-1.708,2.606c-0.073,1.108,0.463,2.174,1.397,2.777
		l18.253,12.02l-15.19,16.521c-1.172,1.266-1.087,3.245,0.18,4.402c1.267,1.162,3.243,1.09,4.409-0.184l17.664-19.217
		c0.628-0.67,0.908-1.596,0.805-2.49c-0.122-0.907-0.628-1.717-1.389-2.223l-16.788-11.04l19.242-9.633
		c0.943-0.475,1.583-1.406,1.698-2.454c0.122-1.047-0.304-2.088-1.12-2.746c-5.018-4.116-9.73-7.611-14.151-10.546
		c7.216-7.252,24.26-5.273,32.06-2.387c11.296,4.178,18.255,11.655,20.697,22.238C139.009,49.304,131.257,68.144,124.218,75.536z"/>
</g>
<g>
</g>
<g>
</g>
<g>
</g>
<g>
</g>
<g>
</g>
<g>
</g>
<g>
</g>
<g>
</g>
<g>
</g>
<g>
</g>
<g>
</g>
<g>
</g>
<g>
</g>
<g>
</g>
<g>
</g>
</svg>
