<?xml version="1.0" encoding="iso-8859-1"?>
<!-- Generator: Adobe Illustrator 16.0.0, SVG Export Plug-In . SVG Version: 6.00 Build 0)  -->
<!DOCTYPE svg PUBLIC "-//W3C//DTD SVG 1.1//EN" "http://www.w3.org/Graphics/SVG/1.1/DTD/svg11.dtd">
<svg version="1.1" id="Capa_1" xmlns="http://www.w3.org/2000/svg" xmlns:xlink="http://www.w3.org/1999/xlink" x="0px" y="0px"
	 width="187.059px" height="187.059px" viewBox="0 0 187.059 187.059" style="enable-background:new 0 0 187.059 187.059;"
	 xml:space="preserve">
<g>
	<path d="M127.644,84.371c-2.941-1.087-9.408-1.973-13.013,1.126c-7.562-4.183-13.566-3.571-18.557,1.766
		c-8.044,8.646-4.33,17.396-0.868,21.196c2.095,2.313,2.704,3.604,3.021,5.072c0.073,0.268,0.231,1.15,0.256,1.442
		c0.608,14.353,5.675,16.18,7.502,16.355c0.396,0.116,0.804,0.152,1.188,0.152c0.804,0,1.57-0.213,2.277-0.651
		c2.843-1.735,3.61-6.527,4.292-10.759c0.049-0.323,0.098-0.652,0.146-0.957c0.39,4.61,1.182,11.601,6.674,12.215
		c0.597,0.11,1.681,0.146,2.972-0.633c2.594-1.577,4.408-5.639,5.517-12.428l0.146-0.992c0.341-2.375,0.815-5.608,2.643-7.526
		c3.093-3.252,5.59-10.364,4.25-16.191C135.103,89.233,132.18,86.046,127.644,84.371z M128.612,106.682
		c-2.801,2.947-3.41,7.161-3.818,9.975l-0.127,0.925c-1.255,7.654-3.094,9.109-3.453,9.329c-0.024-0.013-0.049-0.013-0.073-0.013
		c-2.112-0.177-2.569-5.955-2.788-8.731c-0.092-0.95-0.152-1.79-0.244-2.448c-0.152-1.071-1.352-4.092-3.806-4.299
		c-2.021-0.073-3.252,1.169-4.128,3.934c-0.329,1.023-0.561,2.424-0.828,4.031c-0.311,1.937-1.139,7.069-2.277,7.611
		c-0.207-0.073-0.244-0.098-0.427-0.098c-0.012,0-0.036,0-0.073,0c-0.024,0-3.117-1.047-3.58-12.087
		c-0.013-0.408-0.268-1.845-0.365-2.253c-0.548-2.49-1.693-4.493-4.08-7.118c-0.67-0.736-6.348-7.404,0.828-15.135
		c1.973-2.119,5.919-6.366,16.758,1.44l-4.312,2.174c-0.719,0.365-1.182,1.071-1.242,1.882c-0.049,0.804,0.341,1.564,1.011,1.99
		l4.445,2.941l-3.739,4.05c-0.828,0.913-0.779,2.325,0.135,3.166c0.913,0.847,2.338,0.779,3.178-0.128l5.518-5.998
		c0.438-0.48,0.646-1.145,0.578-1.79c-0.079-0.646-0.45-1.218-0.999-1.595l-3.397-2.229l4.025-2.022
		c0.682-0.358,1.15-1.014,1.229-1.76c0.085-0.749-0.219-1.498-0.804-1.979c-0.986-0.81-1.948-1.553-2.886-2.226
		c2.191-0.691,5.517-0.268,7.222,0.368c3.099,1.16,5.005,3.179,5.662,6.034C132.801,99.155,130.56,104.636,128.612,106.682z
		 M152.074,106.365c0-13.442-6.875-25.312-17.275-32.291l0.013-8.235c-0.037-9.216-7.526-16.7-16.733-16.7c-0.013,0-0.013,0-0.024,0
		l-18.9,0.018c7.44-4.731,12.409-13.037,12.409-22.496C111.562,11.965,99.603,0,84.895,0C70.189,0,58.224,11.965,58.224,26.661
		c0,9.484,4.996,17.796,12.465,22.53l-19.004,0.024c-9.222,0-16.712,7.514-16.7,16.736v56.38c0,1.229,0.999,2.229,2.241,2.229
		h19.178v45.778c0,9.219,7.176,16.721,15.999,16.721h24.941c8.829,0,16.015-7.502,16.015-16.721v-25.124
		C134.713,145.104,152.074,127.726,152.074,106.365z M62.709,26.655c0-12.239,9.962-22.198,22.198-22.198
		c12.239,0,22.198,9.959,22.198,22.198c0,12.233-9.959,22.186-22.198,22.186C72.652,48.841,62.709,38.888,62.709,26.655z
		 M97.362,182.564H86.889c0.137-0.305,0.243-0.621,0.243-0.968v-40.938c0-1.229-0.999-2.229-2.237-2.229
		c-1.236,0-2.241,0.999-2.241,2.229v40.938c0,0.347,0.101,0.663,0.244,0.968H72.424c-6.36,0-11.536-5.492-11.536-12.238v-47.965
		c0-0.012,0.012-0.024,0.012-0.043c0-0.018-0.012-0.023-0.012-0.049V84.027c0-1.228-0.999-2.232-2.231-2.232
		c-1.236,0-2.241,1.004-2.241,2.232v36.038h-16.94V65.921c-0.006-3.258,1.261-6.342,3.559-8.656
		c2.314-2.314,5.383-3.586,8.656-3.592l66.381-0.073h0.012c6.734,0,12.228,5.492,12.239,12.227v5.672
		c-5.157-2.542-10.96-4.019-17.092-4.019c-21.428,0-38.855,17.428-38.855,38.843c0,19.961,15.144,36.443,34.532,38.6v25.367
		C108.895,177.072,103.719,182.564,97.362,182.564z M113.218,140.721c-18.952,0-34.379-15.418-34.379-34.367
		c0-18.953,15.427-34.38,34.379-34.38c18.949,0,34.367,15.427,34.367,34.38C147.585,125.314,132.167,140.721,113.218,140.721z"/>
</g>
<g>
</g>
<g>
</g>
<g>
</g>
<g>
</g>
<g>
</g>
<g>
</g>
<g>
</g>
<g>
</g>
<g>
</g>
<g>
</g>
<g>
</g>
<g>
</g>
<g>
</g>
<g>
</g>
<g>
</g>
</svg>
