<?xml version="1.0" encoding="iso-8859-1"?>
<!-- Generator: Adobe Illustrator 16.0.0, SVG Export Plug-In . SVG Version: 6.00 Build 0)  -->
<!DOCTYPE svg PUBLIC "-//W3C//DTD SVG 1.1//EN" "http://www.w3.org/Graphics/SVG/1.1/DTD/svg11.dtd">
<svg version="1.1" id="Capa_1" xmlns="http://www.w3.org/2000/svg" xmlns:xlink="http://www.w3.org/1999/xlink" x="0px" y="0px"
	 width="158.157px" height="158.157px" viewBox="0 0 158.157 158.157" style="enable-background:new 0 0 158.157 158.157;"
	 xml:space="preserve">
<g>
	<g>
		<path d="M115.481,17.292c-2.456-0.353-8.06-0.495-11.436-0.55l-0.203-6.427C103.477,6.991,100.77,0.578,92.971,0L64.987,0.006
			c-7.588,0.572-10.293,6.985-10.679,10.533l-0.191,6.203c-3.374,0.055-8.978,0.186-11.432,0.55
			c-25.842,3.732-30.52,51.456-30.707,53.483c-0.07,0.786,0.191,1.557,0.723,2.146c0.533,0.583,1.282,0.914,2.069,0.914h14.168
			c0.668,5.614,2.78,11.266,6.378,16.191c1.289,1.763,2.729,3.376,4.277,4.799c4.755,20.12,1.16,27.705-0.624,30.024
			c-11.882,15.547-14.204,29.494-14.299,30.076c-0.241,1.52,0.808,2.953,2.332,3.199l0.442,0.033c1.349,0,2.542-0.985,2.761-2.363
			c0.016-0.126,2.18-13.106,13.214-27.542c4.291-5.619,5.257-15.496,2.869-28.749c2.881,1.477,5.935,2.462,9.056,2.824
			c0.918,0.108,1.835,0.154,2.743,0.154c5.442,0,10.58-1.885,14.693-5.43c2.757-2.376,4.849-5.352,6.297-8.666
			c1.453,3.314,3.546,6.29,6.301,8.666c4.117,3.545,9.249,5.43,14.693,5.43c0.907,0,1.821-0.057,2.741-0.154
			c3.13-0.362,6.183-1.348,9.05-2.824c-2.383,13.265-1.42,23.13,2.87,28.749c10.986,14.361,13.196,27.416,13.219,27.547
			c0.219,1.373,1.411,2.358,2.759,2.358l0.447-0.038c1.516-0.247,2.566-1.675,2.326-3.194c-0.099-0.587-2.419-14.529-14.3-30.076
			c-1.775-2.319-5.371-9.909-0.623-30.02c1.556-1.428,2.993-3.036,4.279-4.804c3.607-4.926,5.718-10.566,6.381-16.187h14.161
			c0.799,0,1.537-0.341,2.068-0.913c0.537-0.583,0.799-1.36,0.725-2.146C145.999,68.733,141.315,21.023,115.481,17.292z
			 M129.41,68.22c-0.389-7.335-3.316-14.17-8.67-18.794c-1.159-1.004-2.933-0.881-3.95,0.295c-1.013,1.179-0.87,2.938,0.303,3.951
			c8.572,7.397,9.137,22.224,1.242,33.037c-4.155,5.691-10.043,9.347-16.155,10.058c-4.881,0.515-9.538-0.854-13.154-3.95
			c-8.57-7.388-9.128-22.197-1.227-33.018c0.909-1.256,0.635-3.005-0.602-3.913c-1.242-0.906-2.999-0.638-3.913,0.599
			c-1.821,2.49-3.139,5.196-4.205,7.954c-1.063-2.757-2.38-5.463-4.202-7.954c-0.914-1.252-2.679-1.516-3.913-0.599
			c-1.248,0.908-1.518,2.667-0.604,3.913c7.901,10.821,7.351,25.618-1.231,33.018c-3.609,3.097-8.276,4.465-13.146,3.95
			c-6.112-0.711-12.004-4.366-16.148-10.058c-7.902-10.812-7.346-25.628,1.237-33.037c1.17-1.013,1.303-2.772,0.297-3.951
			c-1.004-1.177-2.785-1.286-3.951-0.295c-5.356,4.619-8.276,11.464-8.668,18.794H17.93c1.424-10.239,7.368-42.77,25.552-45.398
			c2.636-0.375,10.54-0.504,13.365-0.515c1.51-0.005,2.739-1.212,2.788-2.714l0.261-8.673c0.021-0.208,0.605-4.979,5.3-5.335
			l27.562-0.005c4.744,0.348,5.463,4.849,5.496,5.117l0.271,8.897c0.055,1.513,1.288,2.708,2.791,2.714
			c2.825,0.011,10.73,0.128,13.362,0.515c18.178,2.629,24.137,35.149,25.56,45.398H129.41z"/>
		<path d="M77.84,131.234c2.26,0,4.09,1.83,4.09,4.089c0,2.253-1.83,4.082-4.09,4.082c-2.255,0-4.084-1.829-4.084-4.082
			C73.756,133.064,75.585,131.234,77.84,131.234z"/>
	</g>
</g>
<g>
</g>
<g>
</g>
<g>
</g>
<g>
</g>
<g>
</g>
<g>
</g>
<g>
</g>
<g>
</g>
<g>
</g>
<g>
</g>
<g>
</g>
<g>
</g>
<g>
</g>
<g>
</g>
<g>
</g>
</svg>
