<?xml version="1.0" encoding="iso-8859-1"?>
<!-- Generator: Adobe Illustrator 16.0.0, SVG Export Plug-In . SVG Version: 6.00 Build 0)  -->
<!DOCTYPE svg PUBLIC "-//W3C//DTD SVG 1.1//EN" "http://www.w3.org/Graphics/SVG/1.1/DTD/svg11.dtd">
<svg version="1.1" id="Capa_1" xmlns="http://www.w3.org/2000/svg" xmlns:xlink="http://www.w3.org/1999/xlink" x="0px" y="0px"
	 width="155.858px" height="155.858px" viewBox="0 0 155.858 155.858" style="enable-background:new 0 0 155.858 155.858;"
	 xml:space="preserve">
<g>
	<path d="M127.422,22.073c-13.019,0-23.906,8.093-27.279,19.05c-5.419-5.103-12.879-7.964-22.201-7.964s-16.767,2.855-22.204,7.964
		c-3.374-10.958-14.261-19.05-27.279-19.05C12.757,22.073,0,33.783,0,48.187c0,14.392,12.769,26.101,28.458,26.101
		c1.546,0,2.813-1.011,3.273-2.387c1.821-1.261,3.087-3.264,3.087-5.645c0-3.854-3.129-6.984-6.984-6.984
		c-3.767,0-6.79,3.002-6.927,6.729C12.797,63.27,7.003,56.35,7.003,48.193c0-10.531,9.633-19.105,21.455-19.105
		c11.828,0,21.461,8.574,21.461,19.105c0,0.237,0.095,0.435,0.137,0.654c-2.536,5.045-3.995,11.106-3.995,18.231
		c0,20.709,22.591,41.016,28.363,45.858v17.342c0,1.941,1.559,3.507,3.505,3.507c1.945,0,3.507-1.565,3.507-3.507v-17.342
		c5.772-4.848,28.363-25.154,28.363-45.858c0-7.125-1.449-13.186-3.994-18.231c0.049-0.219,0.134-0.423,0.134-0.654
		c0-10.531,9.633-19.105,21.458-19.105s21.458,8.574,21.458,19.105c0,8.156-5.809,15.076-13.907,17.808
		c-0.134-3.727-3.166-6.729-6.924-6.729c-3.854,0-6.984,3.13-6.984,6.984c0,2.381,1.267,4.384,3.088,5.645
		c0.456,1.382,1.723,2.387,3.27,2.387c15.704,0,28.461-11.709,28.461-26.101C155.883,33.783,143.113,22.073,127.422,22.073z
		 M78.364,106.317c-0.143-0.019-0.279-0.086-0.423-0.086s-0.28,0.067-0.423,0.086c-6.747-5.949-24.43-23.072-24.43-39.245
		c0-23.413,15.576-26.905,24.853-26.905c9.28,0,24.856,3.499,24.856,26.905C102.798,83.209,85.114,100.368,78.364,106.317z"/>
</g>
<g>
</g>
<g>
</g>
<g>
</g>
<g>
</g>
<g>
</g>
<g>
</g>
<g>
</g>
<g>
</g>
<g>
</g>
<g>
</g>
<g>
</g>
<g>
</g>
<g>
</g>
<g>
</g>
<g>
</g>
</svg>
