<?xml version="1.0" encoding="iso-8859-1"?>
<!-- Generator: Adobe Illustrator 16.0.0, SVG Export Plug-In . SVG Version: 6.00 Build 0)  -->
<!DOCTYPE svg PUBLIC "-//W3C//DTD SVG 1.1//EN" "http://www.w3.org/Graphics/SVG/1.1/DTD/svg11.dtd">
<svg version="1.1" id="Capa_1" xmlns="http://www.w3.org/2000/svg" xmlns:xlink="http://www.w3.org/1999/xlink" x="0px" y="0px"
	 width="155.887px" height="155.886px" viewBox="0 0 155.887 155.886" style="enable-background:new 0 0 155.887 155.886;"
	 xml:space="preserve">
<g>
	<path d="M149.237,130.335c-0.578,1.564-2.058,2.539-3.642,2.539c-0.438,0-0.889-0.073-1.327-0.238
		c-1.997-0.719-3.032-2.953-2.302-4.963c4.067-11.154,6.966-20.928,5.919-32.966c-9.28,3.8-18.353,6.765-27.091,8.95
		c-0.621,0.348-1.285,0.536-1.948,0.536c-0.079,0-0.134-0.055-0.22-0.055c-15.076,3.544-29.228,4.976-42.033,4.976
		c-34.97,0-60.146-10.176-68.616-14.134c-0.965,11.898,1.915,21.629,5.943,32.692c0.731,2.016-0.304,4.244-2.301,4.963
		c-0.436,0.158-0.889,0.238-1.328,0.238c-1.583,0-3.06-0.975-3.641-2.539c-7.794-21.386-11.935-39.232,6.092-74.435
		c5.163-10.083,8.43-19.54,9.685-28.095c0.316-2.107,2.238-3.489,4.387-3.27c2.116,0.317,3.581,2.284,3.27,4.402
		c-1.392,9.39-4.902,19.65-10.452,30.482c-5.517,10.784-8.771,19.687-10.449,27.542c1.72,0.857,8.123,3.842,18.231,6.904
		c-1.279-3.488-1.482-6.436-1.489-6.668c-0.131-2.131,1.501-3.963,3.635-4.079c2.055-0.256,3.952,1.485,4.089,3.623
		c0,0.073,0.548,7.155,5.212,10.139c19.498,4.402,47.091,6.947,78.882-0.591c3.952-3.209,4.476-9.475,4.476-9.535
		c0.134-2.145,1.931-3.782,4.092-3.636c2.132,0.122,3.764,1.948,3.636,4.079c-0.007,0.22-0.214,2.856-1.304,6.084
		c5.913-1.797,11.898-3.849,18.03-6.418c-1.681-7.825-4.933-16.697-10.425-27.438c-5.852-11.448-9.456-22.232-10.656-32.066
		c-0.268-2.119,1.236-4.061,3.361-4.317c2.156-0.274,4.044,1.242,4.312,3.368c1.103,8.933,4.421,18.852,9.87,29.496
		C161.172,91.103,157.031,108.956,149.237,130.335z M77.945,80.319c3.319,0,6.011-2.691,6.011-6.011
		c0-3.324-2.691-6.016-6.011-6.016c-3.324,0-6.016,2.691-6.016,6.016C71.93,77.633,74.621,80.319,77.945,80.319z"/>
</g>
<g>
</g>
<g>
</g>
<g>
</g>
<g>
</g>
<g>
</g>
<g>
</g>
<g>
</g>
<g>
</g>
<g>
</g>
<g>
</g>
<g>
</g>
<g>
</g>
<g>
</g>
<g>
</g>
<g>
</g>
</svg>
