<?xml version="1.0" encoding="iso-8859-1"?>
<!-- Generator: Adobe Illustrator 16.0.0, SVG Export Plug-In . SVG Version: 6.00 Build 0)  -->
<!DOCTYPE svg PUBLIC "-//W3C//DTD SVG 1.1//EN" "http://www.w3.org/Graphics/SVG/1.1/DTD/svg11.dtd">
<svg version="1.1" id="Capa_1" xmlns="http://www.w3.org/2000/svg" xmlns:xlink="http://www.w3.org/1999/xlink" x="0px" y="0px"
	 width="197.812px" height="197.812px" viewBox="0 0 197.812 197.812" style="enable-background:new 0 0 197.812 197.812;"
	 xml:space="preserve">
<g>
	<path d="M196.929,140.68c0,1.711-1.395,3.118-3.117,3.118l-27.821-0.019c-1.681,10.559-11.765,18.646-23.906,18.646h-4.178h-83.5
		h-0.655c-7.761,0-14.078-6.888-14.078-15.32c0-3.49,1.118-6.644,2.92-9.226h-6.592c-7.764,0-14.081-6.734-14.081-15.028
		c0-3.245,0.986-6.223,2.634-8.689H14.078C6.321,114.162,0,107.367,0,99.012c0-8.369,6.321-15.177,14.078-15.177h3.492
		c-1.666-2.481-2.664-5.517-2.664-8.805c0-8.366,6.317-15.177,14.081-15.177h33.896c-1.742-2.555-2.813-5.685-2.813-9.109
		c0-8.461,6.318-15.357,14.078-15.357h26.744c0.033,0,0.064,0.024,0.095,0.024h41.11c13.323,0,24.15,10.026,24.15,22.372v4.08
		l28.424-0.219c0.012,0,0.024,0,0.024,0c1.711,0,3.105,1.379,3.117,3.093c0.024,1.708-1.363,3.13-3.081,3.142l-31.566,0.244
		c-0.012,0-0.023,0-0.023,0c-0.828,0-1.62-0.326-2.205-0.911c-0.59-0.584-0.925-1.385-0.925-2.201v-7.219
		c0-8.905-8.038-16.139-17.927-16.139H74.142c-0.012,0-0.037-0.012-0.049-0.012c-4.296,0.037-7.794,4.104-7.794,9.109
		c0,5.021,3.516,9.109,7.843,9.109h26.744c0.268,0,0.499,0.101,0.743,0.137c0.137-0.012,0.279-0.085,0.423-0.085
		c1.72,0,3.117,1.41,3.117,3.118c0,6.64,1.075,9.353,11.847,9.353h22.798c1.711,0,3.118,1.389,3.118,3.118
		c0,1.708-1.407,3.118-3.118,3.118h-22.798c-11.739,0-16.977-3.604-17.893-12.541H74.135H28.987c-4.314,0-7.846,4.028-7.846,8.948
		c0,4.515,2.968,8.199,6.786,8.805h72.952c1.714,0,3.117,1.41,3.117,3.118c0,0.024-0.012,0.049-0.012,0.061
		c0,0.034,0.012,0.046,0.012,0.07c0,1.72-1.403,3.117-3.117,3.117H28.987c-0.387,0-0.743-0.094-1.129-0.131H14.084
		c-4.32,0-7.843,4.016-7.843,8.948c0,4.92,3.511,8.915,7.843,8.915h20.901c0.344-0.025,0.667-0.116,1.017-0.116h64.877
		c1.714,0,3.117,1.407,3.117,3.118c0,0.03-0.012,0.042-0.012,0.066c0,0.012,0.012,0.037,0.012,0.049
		c0,1.729-1.403,3.117-3.117,3.117H35.034c-3.851,0.555-6.877,4.221-6.877,8.689c0,4.848,3.517,8.793,7.846,8.793h64.871
		c1.727,0,3.118,1.4,3.118,3.117c0,0.037-0.013,0.049-0.013,0.086c0,0.024,0.013,0.049,0.013,0.072c0,1.73-1.392,3.118-3.118,3.118
		H53.74c-4.32,0-7.843,4.067-7.843,9.061c0,5.005,3.517,9.085,7.843,9.085h0.655h83.5h4.177c9.89,0,17.915-6.917,17.915-15.441
		c0-0.828,0.341-1.663,0.913-2.241c0.585-0.585,1.389-0.962,2.204-0.962l30.701,0.012
		C195.535,137.563,196.929,138.951,196.929,140.68z M160.668,112.415l-7.271,5.942l5.968,7.295c1.948,2.388,1.607,5.932-0.768,7.904
		l-10.474,8.549c-1.011,0.828-2.253,1.267-3.531,1.267c-0.207,0-0.396-0.012-0.609-0.036c-1.485-0.158-2.837-0.896-3.775-2.059
		l-5.942-7.271l-7.295,5.968c-0.999,0.816-2.259,1.267-3.55,1.267c-1.687,0-3.288-0.755-4.36-2.059l-8.519-10.437
		c-0.962-1.176-1.406-2.648-1.254-4.141c0.158-1.498,0.889-2.838,2.046-3.775l7.282-5.967l-5.968-7.295
		c-0.949-1.157-1.394-2.619-1.242-4.117c0.159-1.497,0.89-2.85,2.059-3.787l10.425-8.516c1.157-0.953,2.643-1.428,4.116-1.251
		c1.498,0.143,2.85,0.871,3.793,2.03l5.956,7.298l7.294-5.97c2.326-1.9,6.047-1.501,7.923,0.837l8.524,10.4
		c0.962,1.188,1.406,2.673,1.23,4.165C162.568,110.137,161.843,111.477,160.668,112.415z M123.433,110.917l9.493-7.758l-5.578-6.822
		l-9.499,7.772L123.433,110.917z M148.576,122.303l-9.481,7.758l5.584,6.819l9.487-7.758L148.576,122.303z M156.285,107.958
		l-7.782-9.487l-32.76,26.793l7.745,9.498L156.285,107.958z"/>
</g>
<g>
</g>
<g>
</g>
<g>
</g>
<g>
</g>
<g>
</g>
<g>
</g>
<g>
</g>
<g>
</g>
<g>
</g>
<g>
</g>
<g>
</g>
<g>
</g>
<g>
</g>
<g>
</g>
<g>
</g>
</svg>
