<?xml version="1.0" encoding="iso-8859-1"?>
<!-- Generator: Adobe Illustrator 16.0.0, SVG Export Plug-In . SVG Version: 6.00 Build 0)  -->
<!DOCTYPE svg PUBLIC "-//W3C//DTD SVG 1.1//EN" "http://www.w3.org/Graphics/SVG/1.1/DTD/svg11.dtd">
<svg version="1.1" id="Capa_1" xmlns="http://www.w3.org/2000/svg" xmlns:xlink="http://www.w3.org/1999/xlink" x="0px" y="0px"
	 width="185.822px" height="185.822px" viewBox="0 0 185.822 185.822" style="enable-background:new 0 0 185.822 185.822;"
	 xml:space="preserve">
<g>
	<g>
		<path d="M81.257,185.811H81.22c-1.921-0.019-3.446-1.59-3.428-3.501c0.256-21.971-1.559-37.802-5.233-45.73
			c-1.416-3.032-4.022-5.565-6.534-7.988c-3.069-2.972-5.974-5.761-6.945-9.555c-0.67-1.783-1.105-3.988-1.188-6.204
			c-0.155-5.14,1.553-10.175,4.823-14.176c0.591-0.719,1.434-1.175,2.369-1.255c0.911-0.085,1.851,0.207,2.558,0.811
			c1.163,0.992,2.344,1.796,3.522,2.393c2.469,1.261,5.23,1.937,7.992,1.937l0.667-0.024c4.159-0.128,8.181-1.766,11.268-4.604
			c1.249-1.156,3.182-1.205,4.503-0.158c3.124,2.473,7.039,3.849,11.021,3.849l0.646-0.019c2.953-0.104,5.87-0.956,8.439-2.479
			c0.877-0.523,1.687-1.156,2.448-1.814c0.706-0.615,1.638-0.907,2.563-0.834c0.925,0.079,1.79,0.523,2.387,1.254
			c2.989,3.648,4.664,8.057,4.822,12.739c0.067,2.234-0.213,4.457-0.834,6.606c-0.682,3.775-3.635,7.002-6.747,10.412
			c-2.466,2.704-5.041,5.505-6.394,8.701c-3.495,8.117-5.2,24.083-4.962,46.15c0.018,1.912-1.517,3.482-3.435,3.501h-0.043
			c-1.899,0-3.452-1.528-3.471-3.422c-0.25-23.364,1.607-39.829,5.517-48.976c1.846-4.28,4.933-7.66,7.666-10.644
			c2.43-2.667,4.726-5.176,5.128-7.331c0.493-1.778,0.669-3.264,0.633-4.786c-0.067-2.034-0.561-3.995-1.443-5.784l-0.273,0.164
			c-3.599,2.137-7.66,3.324-11.795,3.465l-0.768,0.023h-0.006c-4.664,0-9.207-1.303-13.098-3.727
			c-3.946,2.851-8.687,4.482-13.597,4.641l-0.786,0.012c-3.918,0-7.764-0.913-11.207-2.679c-0.578-0.292-1.154-0.621-1.714-0.98
			c-1.035,2.101-1.547,4.433-1.471,6.802c0.049,1.474,0.335,2.959,0.865,4.365c0.6,2.235,2.801,4.366,5.145,6.632
			c2.844,2.739,6.074,5.852,8.02,10.06c4.165,9.006,6.135,25.397,5.867,48.725C84.707,184.294,83.166,185.811,81.257,185.811z"/>
		<path d="M79.174,95.965c-3.333,0-6.646-0.804-9.639-2.326c-6.914-3.507-11.365-10.51-11.643-18.255
			c-0.067-2.232,0.213-4.458,0.832-6.604c0.685-3.785,3.635-7.008,6.759-10.424c2.469-2.707,5.033-5.499,6.384-8.705
			c3.492-8.12,5.2-24.079,4.963-46.146C76.812,1.589,78.346,0.018,80.261,0c2.077,0.066,3.499,1.507,3.504,3.422
			c0.25,23.364-1.61,39.832-5.52,48.972c-1.845,4.284-4.933,7.664-7.664,10.638c-2.433,2.667-4.725,5.176-5.13,7.338
			c-0.493,1.778-0.667,3.27-0.63,4.783c0.174,5.212,3.185,9.934,7.855,12.312c2.153,1.097,4.552,1.656,6.978,1.547
			c4.29-0.128,8.251-2.174,10.882-5.565c0.63-0.815,1.589-1.303,2.618-1.346c0.971-0.033,2.019,0.387,2.713,1.16
			c2.861,3.209,6.898,4.874,11.253,4.819c2.411-0.079,4.785-0.785,6.874-2.027c4.488-2.688,7.173-7.6,6.997-12.833
			c-0.049-1.482-0.335-2.965-0.865-4.369c-0.603-2.231-2.801-4.378-5.151-6.634c-2.838-2.737-6.064-5.849-8.014-10.06
			c-4.165-9.003-6.138-25.395-5.869-48.722c0.018-1.921,1.254-3.404,3.507-3.422c1.918,0.019,3.446,1.589,3.429,3.504
			c-0.256,21.967,1.559,37.798,5.23,45.73c1.419,3.029,4.024,5.556,6.527,7.979c3.075,2.962,5.979,5.764,6.954,9.566
			c0.67,1.777,1.107,3.979,1.188,6.198c0.255,7.755-3.739,15.034-10.383,19.017c-3.093,1.839-6.625,2.874-10.187,3.008
			c-5.018,0.207-9.983-1.455-13.899-4.555c-3.696,3.355-8.467,5.311-13.548,5.486L79.174,95.965z"/>
	</g>
</g>
<g>
</g>
<g>
</g>
<g>
</g>
<g>
</g>
<g>
</g>
<g>
</g>
<g>
</g>
<g>
</g>
<g>
</g>
<g>
</g>
<g>
</g>
<g>
</g>
<g>
</g>
<g>
</g>
<g>
</g>
</svg>
