<?xml version="1.0" encoding="iso-8859-1"?>
<!-- Generator: Adobe Illustrator 16.0.0, SVG Export Plug-In . SVG Version: 6.00 Build 0)  -->
<!DOCTYPE svg PUBLIC "-//W3C//DTD SVG 1.1//EN" "http://www.w3.org/Graphics/SVG/1.1/DTD/svg11.dtd">
<svg version="1.1" id="Capa_1" xmlns="http://www.w3.org/2000/svg" xmlns:xlink="http://www.w3.org/1999/xlink" x="0px" y="0px"
	 width="122.333px" height="122.333px" viewBox="0 0 122.333 122.333" style="enable-background:new 0 0 122.333 122.333;"
	 xml:space="preserve">
<g>
	<g>
		<path d="M101.165,6.049c-15.031,0-34.178,8.356-39.998,11.068c-5.828-2.712-24.97-11.068-40.004-11.068
			C7.518,6.049,0,12.99,0,25.587c0,35.817,27.406,90.697,61.167,90.697c33.76,0,61.166-54.875,61.166-90.697
			C122.333,12.979,114.812,6.049,101.165,6.049z M61.167,108.507c-28.445,0-53.399-51.686-53.399-82.931
			c0-5.485,1.524-11.773,13.396-11.773c12.877,0,30.142,7.341,36.119,10.071v44.748c0,2.144,1.738,3.879,3.885,3.879
			c2.144,0,3.886-1.74,3.886-3.879V23.874c5.968-2.73,23.233-10.071,36.112-10.071c11.798,0,13.396,5.945,13.396,11.773
			C114.561,56.833,89.608,108.507,61.167,108.507z"/>
	</g>
</g>
<g>
</g>
<g>
</g>
<g>
</g>
<g>
</g>
<g>
</g>
<g>
</g>
<g>
</g>
<g>
</g>
<g>
</g>
<g>
</g>
<g>
</g>
<g>
</g>
<g>
</g>
<g>
</g>
<g>
</g>
</svg>
