<?xml version="1.0" encoding="iso-8859-1"?>
<!-- Generator: Adobe Illustrator 16.0.0, SVG Export Plug-In . SVG Version: 6.00 Build 0)  -->
<!DOCTYPE svg PUBLIC "-//W3C//DTD SVG 1.1//EN" "http://www.w3.org/Graphics/SVG/1.1/DTD/svg11.dtd">
<svg version="1.1" id="Capa_1" xmlns="http://www.w3.org/2000/svg" xmlns:xlink="http://www.w3.org/1999/xlink" x="0px" y="0px"
	 width="136.501px" height="136.5px" viewBox="0 0 136.501 136.5" style="enable-background:new 0 0 136.501 136.5;"
	 xml:space="preserve">
<g>
	<g>
		<path d="M133.954,112.347c-0.655-0.657-1.401-1.177-2.182-1.582c-3.059-1.937-8.815-1.86-13.56-1.362L77.051,68.253l41.162-41.154
			c4.744,0.498,10.501,0.58,13.56-1.363c0.794-0.399,1.519-0.925,2.182-1.581c2.31-2.309,3.033-5.587,2.199-8.513
			c-0.389-1.354-1.116-2.638-2.199-3.707c-1.894-1.896-4.433-2.726-6.893-2.49c0.224-2.476-0.599-5.026-2.498-6.919
			c-1.064-1.064-2.353-1.787-3.704-2.191c-2.917-0.835-6.199-0.113-8.51,2.191c-0.655,0.667-1.182,1.401-1.579,2.192
			c-1.938,3.053-1.862,8.812-1.363,13.56L68.254,59.433L27.083,18.278c0.517-4.747,0.584-10.512-1.342-13.56
			c-0.4-0.791-0.926-1.524-1.583-2.192c-2.3-2.298-5.582-3.026-8.512-2.191c-1.349,0.399-2.636,1.122-3.702,2.191
			C10.043,4.42,9.226,6.97,9.455,9.43c-2.47-0.23-5.021,0.61-6.913,2.506c-1.06,1.069-1.792,2.342-2.197,3.707
			c-0.824,2.926-0.119,6.197,2.197,8.513c0.667,0.656,1.4,1.175,2.197,1.581c3.058,1.937,8.802,1.854,13.554,1.349l41.152,41.163
			l-41.152,41.15c-4.759-0.499-10.512-0.58-13.561,1.362c-0.796,0.398-1.522,0.925-2.197,1.58c-2.297,2.311-3.021,5.588-2.197,8.521
			c0.399,1.349,1.123,2.638,2.197,3.699c1.894,1.904,4.443,2.726,6.903,2.49c-0.229,2.473,0.6,5.025,2.5,6.916
			c1.064,1.062,2.348,1.795,3.703,2.194c2.918,0.837,6.196,0.121,8.512-2.194c0.656-0.667,1.181-1.4,1.581-2.194
			c1.938-3.053,1.856-8.805,1.344-13.549l41.175-41.154l41.147,41.149c-0.498,4.744-0.581,10.506,1.364,13.56
			c0.375,0.793,0.925,1.521,1.579,2.194c2.298,2.31,5.584,3.031,8.511,2.188c1.35-0.393,2.638-1.11,3.703-2.188
			c1.9-1.893,2.719-4.442,2.489-6.906c2.469,0.229,5.019-0.597,6.9-2.494c1.074-1.067,1.803-2.354,2.213-3.705
			C136.987,117.928,136.264,114.64,133.954,112.347z"/>
	</g>
</g>
<g>
</g>
<g>
</g>
<g>
</g>
<g>
</g>
<g>
</g>
<g>
</g>
<g>
</g>
<g>
</g>
<g>
</g>
<g>
</g>
<g>
</g>
<g>
</g>
<g>
</g>
<g>
</g>
<g>
</g>
</svg>
