<?xml version="1.0" encoding="iso-8859-1"?>
<!-- Generator: Adobe Illustrator 16.0.0, SVG Export Plug-In . SVG Version: 6.00 Build 0)  -->
<!DOCTYPE svg PUBLIC "-//W3C//DTD SVG 1.1//EN" "http://www.w3.org/Graphics/SVG/1.1/DTD/svg11.dtd">
<svg version="1.1" id="Capa_1" xmlns="http://www.w3.org/2000/svg" xmlns:xlink="http://www.w3.org/1999/xlink" x="0px" y="0px"
	 width="187.059px" height="187.06px" viewBox="0 0 187.059 187.06" style="enable-background:new 0 0 187.059 187.06;"
	 xml:space="preserve">
<g>
	<path d="M122.234,107.534c-1.571-1.071-3.453-1.162-5.262-1.242c-1.254-0.049-2.557-0.115-3.556-0.512
		c-1.645-0.65-4.543-2.466-9.365-6.972c4.677-4.348,7.478-5.979,9.036-6.552c0.938-0.354,2.107-0.329,3.355-0.305
		c1.662,0.013,3.428,0.061,4.78-0.742c0.907-0.427,1.698-0.963,2.387-1.596c2.436-2.277,3.44-5.712,2.624-8.942
		c-0.384-1.482-1.139-2.886-2.198-4.027c-1.254-1.34-2.861-2.256-4.615-2.667c-0.28-1.778-1.096-3.456-2.351-4.796
		c-1.06-1.135-2.399-1.984-3.836-2.45c-3.19-1.023-6.655-0.269-9.098,2.006c-0.693,0.648-1.284,1.404-1.644,2.046
		c-1.072,1.583-1.163,3.462-1.242,5.276c-0.061,1.251-0.109,2.555-0.499,3.553c-0.634,1.559-2.333,4.369-6.735,9.109
		c-4.348-4.665-6.104-7.502-6.74-9.109c-0.387-0.999-0.457-2.302-0.518-3.553c-0.082-1.814-0.162-3.693-1.13-5.078
		c-0.459-0.84-1.06-1.596-1.744-2.238c-2.421-2.232-5.986-2.999-9.079-2.012c-1.458,0.466-2.807,1.327-3.867,2.469
		c-1.254,1.352-2.064,2.999-2.35,4.789c-1.751,0.411-3.368,1.34-4.616,2.667c-1.06,1.136-1.806,2.533-2.186,4.022
		c-0.819,3.237,0.192,6.659,2.618,8.936c0.679,0.646,1.483,1.169,2.168,1.485c1.291,0.755,2.734,0.877,4.08,0.877l1.796-0.024
		c0.798,0,1.72,0.037,2.469,0.316c1.607,0.598,4.42,2.277,9.039,6.553c-4.886,4.578-7.776,6.351-9.359,6.978
		c-1.011,0.39-2.305,0.463-3.553,0.512c-1.814,0.085-3.699,0.171-5.063,1.12c-0.855,0.476-1.607,1.06-2.25,1.754
		c-2.277,2.448-3.044,5.931-2.009,9.098c0.475,1.473,1.328,2.812,2.451,3.848c1.346,1.267,3.005,2.07,4.801,2.363
		c0.399,1.741,1.315,3.349,2.67,4.615c1.132,1.047,2.518,1.803,4.013,2.18c0.743,0.183,1.492,0.268,2.234,0.268
		c2.494,0,4.945-1.022,6.695-2.898c0.648-0.682,1.178-1.485,1.479-2.155c0.923-1.559,0.896-3.312,0.871-5.017
		c-0.024-1.23-0.049-2.412,0.308-3.35c0.578-1.583,2.262-4.457,6.783-9.292c4.457,4.774,6.198,7.66,6.795,9.28
		c0.354,0.949,0.329,2.143,0.317,3.361c-0.043,1.686-0.073,3.458,0.736,4.798c0.408,0.889,0.944,1.681,1.602,2.387
		c1.729,1.839,4.177,2.898,6.692,2.898c0.755,0,1.51-0.098,2.234-0.28c1.485-0.377,2.886-1.133,4.024-2.191
		c1.346-1.255,2.247-2.862,2.661-4.604c1.79-0.293,3.446-1.108,4.799-2.351c1.126-1.048,1.96-2.388,2.46-3.86
		c1.035-3.167,0.256-6.649-2.01-9.098C123.64,108.466,122.879,107.888,122.234,107.534z M105.452,81.528
		c0.719-1.802,0.798-3.617,0.871-5.212c0.055-1.011,0.104-2.253,0.48-2.825c0.214-0.387,0.476-0.731,0.786-1.011
		c1.102-1.023,2.673-1.352,4.073-0.904c0.646,0.207,1.23,0.587,1.705,1.084c0.828,0.904,1.212,2.109,1.072,3.324
		c-0.104,0.743,0.134,1.477,0.651,2.046c0.518,0.548,1.248,0.893,1.991,0.792c1.218-0.082,2.411,0.393,3.233,1.291
		c0.48,0.523,0.815,1.12,0.979,1.781c0.378,1.449-0.085,2.987-1.169,4.016c-0.298,0.283-0.651,0.511-1.267,0.818
		c-0.316,0.192-1.521,0.18-2.326,0.144c-1.497-0.012-3.36-0.058-5.199,0.624c-2.887,1.06-6.504,3.678-10.9,7.782
		c-0.012-0.024-0.024-0.024-0.036-0.049l-2.594-2.582c-0.11-0.109-0.171-0.183-0.28-0.28
		C101.652,87.955,104.307,84.365,105.452,81.528z M82.45,116.376c-0.661,1.839-0.636,3.702-0.612,5.2
		c0.012,0.792,0.036,1.991-0.274,2.545c-0.188,0.396-0.417,0.762-0.685,1.048c-1.035,1.096-2.582,1.528-4.022,1.175
		c-0.654-0.171-1.272-0.499-1.784-0.974c-0.886-0.828-1.352-2.004-1.291-3.24c0.042-0.755-0.25-1.485-0.804-1.997
		c-0.548-0.499-1.303-0.767-2.046-0.651c-1.197,0.141-2.42-0.244-3.304-1.072c-0.499-0.462-0.886-1.064-1.099-1.717
		c-0.459-1.418-0.125-2.978,0.904-4.062c0.292-0.304,0.63-0.56,1.203-0.907c0.387-0.256,1.635-0.316,2.634-0.371
		c1.595-0.061,3.41-0.141,5.212-0.865c2.886-1.156,6.564-3.896,11.097-8.159c0.107,0.098,0.183,0.171,0.287,0.28l2.588,2.594
		c0.006,0,0.006,0,0.012,0.013C86.216,109.757,83.528,113.435,82.45,116.376z M121.479,116.692
		c-0.214,0.652-0.598,1.255-1.097,1.717c-0.895,0.828-2.046,1.225-3.312,1.072c-0.736-0.115-1.498,0.152-2.04,0.651
		c-0.554,0.512-0.846,1.242-0.81,1.997c0.073,1.23-0.401,2.412-1.278,3.24c-0.524,0.475-1.121,0.803-1.797,0.974
		c-1.419,0.372-2.989-0.097-4-1.169c-0.28-0.305-0.512-0.658-0.822-1.279c-0.188-0.34-0.164-1.534-0.152-2.325
		c0.03-1.498,0.061-3.361-0.627-5.2c-1.358-3.715-5.134-8.537-11.533-14.785l-2.551-2.545c-6.26-6.418-11.098-10.193-14.803-11.557
		c-1.495-0.557-2.975-0.63-4.226-0.63l-1.796,0.013c-1.06,0-1.397-0.101-1.708-0.269c-0.399-0.194-0.768-0.42-1.062-0.718
		c-1.09-1.004-1.532-2.536-1.172-3.998c0.158-0.667,0.487-1.264,0.962-1.787c0.792-0.831,1.994-1.428,3.243-1.291
		c0.74,0.106,1.482-0.243,1.994-0.794c0.512-0.56,0.755-1.303,0.654-2.043c-0.143-1.208,0.238-2.426,1.072-3.325
		c0.469-0.493,1.063-0.88,1.717-1.084c1.4-0.441,2.987-0.112,4.052,0.91c0.317,0.28,0.573,0.631,0.911,1.185
		c0.268,0.387,0.316,1.641,0.374,2.649c0.073,1.598,0.144,3.413,0.877,5.215c1.449,3.629,5.276,8.452,11.664,14.712l2.558,2.545
		c6.271,6.418,11.101,10.242,14.735,11.691c1.809,0.73,3.617,0.815,5.213,0.877c1.004,0.066,2.253,0.127,2.837,0.486
		c0.378,0.22,0.719,0.475,1.005,0.779C121.6,113.715,121.941,115.274,121.479,116.692z M35.198,138.352h116.666
		c1.418,0,2.545-1.139,2.545-2.521V61.394c0-1.404-1.139-2.533-2.545-2.533H35.198c-1.41,0-2.533,1.142-2.533,2.533v74.431
		C32.647,137.213,33.789,138.352,35.198,138.352z M37.728,63.924h111.603v69.355H37.728V63.924z M184.52,43.005H2.539
		C1.129,43.005,0,44.141,0,45.528c0,1.392,1.135,2.546,2.539,2.546h14.9v95.21c0,5.662,4.61,10.278,10.276,10.278h131.626
		c5.656,0,10.266-4.616,10.266-10.278v-95.21h14.9c1.419,0,2.539-1.154,2.539-2.546C187.046,44.141,185.926,43.005,184.52,43.005z
		 M164.553,143.284c0,2.874-2.338,5.2-5.212,5.2H27.715c-2.875,0-5.2-2.326-5.2-5.2v-95.21h142.039V143.284L164.553,143.284z
		 M0,36.026c0-1.409,1.135-2.53,2.539-2.53H184.52c1.406,0,2.539,1.135,2.539,2.53c0,1.397-1.133,2.545-2.539,2.545H2.539
		C1.135,38.572,0,37.424,0,36.026z"/>
</g>
<g>
</g>
<g>
</g>
<g>
</g>
<g>
</g>
<g>
</g>
<g>
</g>
<g>
</g>
<g>
</g>
<g>
</g>
<g>
</g>
<g>
</g>
<g>
</g>
<g>
</g>
<g>
</g>
<g>
</g>
</svg>
