<?xml version="1.0" encoding="iso-8859-1"?>
<!-- Generator: Adobe Illustrator 16.0.0, SVG Export Plug-In . SVG Version: 6.00 Build 0)  -->
<!DOCTYPE svg PUBLIC "-//W3C//DTD SVG 1.1//EN" "http://www.w3.org/Graphics/SVG/1.1/DTD/svg11.dtd">
<svg version="1.1" id="Capa_1" xmlns="http://www.w3.org/2000/svg" xmlns:xlink="http://www.w3.org/1999/xlink" x="0px" y="0px"
	 width="143.125px" height="143.125px" viewBox="0 0 143.125 143.125" style="enable-background:new 0 0 143.125 143.125;"
	 xml:space="preserve">
<g>
	<g>
		<path d="M138.247,96.555c-1.291-1.382-2.782-2.539-4.201-3.312c-2.959-2.01-6.644-2.192-10.564-2.362
			c-3.063-0.129-6.224-0.28-8.921-1.358c-5.718-2.277-13.969-8.573-24.052-18.255c9.815-9.359,17.694-15.202,23.388-17.297
			c2.601-0.956,5.633-0.91,8.556-0.849c3.471,0.07,7.051,0.131,9.657-1.434c1.754-0.816,3.343-1.875,4.72-3.166
			c4.804-4.516,6.808-11.287,5.188-17.692c-0.749-2.953-2.234-5.69-4.317-7.922c-2.91-3.111-6.771-5.066-10.924-5.596
			c-0.25-4.184-1.942-8.172-4.847-11.29c-2.083-2.235-4.726-3.913-7.624-4.847c-6.277-2.052-13.165-0.518-18.006,3.992
			c-1.382,1.291-2.539,2.786-3.312,4.202c-2.009,2.956-2.186,6.646-2.356,10.564c-0.134,3.06-0.292,6.229-1.363,8.921
			C87,34.534,81.021,42.441,71.577,52.335C62.23,42.529,56.12,34.479,53.875,28.853c-1.072-2.691-1.218-5.855-1.361-8.921
			c-0.173-3.918-0.347-7.614-2.208-10.315c-0.922-1.666-2.088-3.161-3.477-4.458c-4.783-4.473-11.828-5.985-17.984-3.985
			c-2.911,0.935-5.55,2.612-7.633,4.847c-2.917,3.118-4.601,7.106-4.85,11.29c-4.153,0.551-8.043,2.521-10.93,5.602
			c-2.076,2.232-3.568,4.975-4.32,7.932c-1.61,6.396,0.387,13.167,5.2,17.688c1.37,1.285,2.959,2.345,4.433,3.005
			c2.387,1.422,5.218,1.614,7.925,1.614l4.046-0.049c2.046,0,4.421,0.106,6.516,0.88c5.617,2.064,13.643,8.031,23.395,17.302
			C42.464,81.046,34.36,87.208,28.572,89.528c-2.695,1.078-5.849,1.218-8.917,1.358c-3.922,0.17-7.618,0.354-10.318,2.21
			c-1.666,0.92-3.16,2.089-4.457,3.483c-4.509,4.816-6.031,11.715-3.985,17.975c0.935,2.917,2.618,5.56,4.85,7.643
			c3.112,2.91,7.097,4.597,11.287,4.847c0.536,4.153,2.487,8.013,5.599,10.93c2.232,2.077,4.978,3.568,7.931,4.317
			c1.468,0.378,2.957,0.555,4.427,0.555c4.96,0,9.786-2.034,13.266-5.755c1.282-1.37,2.344-2.959,3.005-4.433
			c1.72-2.893,1.656-6.479,1.595-9.949c-0.055-2.93-0.113-5.949,0.846-8.544c2.104-5.729,8.294-14.011,17.859-23.991
			c11.904,12.428,16.325,19.845,17.848,23.985c0.956,2.601,0.907,5.626,0.858,8.556c-0.066,3.471-0.134,7.051,1.432,9.663
			c0.815,1.754,1.875,3.343,3.166,4.72c3.477,3.708,8.178,5.748,13.237,5.748c1.498,0,2.99-0.189,4.458-0.561
			c2.953-0.743,5.687-2.234,7.928-4.317c3.111-2.917,5.066-6.777,5.59-10.93c4.22-0.256,8.184-1.942,11.289-4.841
			c2.235-2.089,3.922-4.731,4.848-7.63C144.288,108.283,142.765,101.384,138.247,96.555z M95.063,31.148
			c1.461-3.666,1.649-7.539,1.802-10.949c0.134-3.005,0.262-5.849,1.432-7.584c0.603-1.09,1.37-2.076,2.265-2.923
			c3.173-2.95,7.673-3.948,11.825-2.605c1.906,0.615,3.623,1.708,4.987,3.166c2.43,2.6,3.556,6.104,3.105,9.639
			c-0.116,0.911,0.183,1.839,0.822,2.515c0.639,0.673,1.516,1.108,2.46,0.983c3.544-0.174,6.978,1.166,9.396,3.754
			c1.363,1.464,2.35,3.267,2.837,5.206c1.06,4.204-0.249,8.655-3.397,11.612c-0.901,0.828-1.937,1.519-3.361,2.208
			c-1.376,0.804-3.928,0.758-6.637,0.709c-3.331-0.055-7.125-0.131-10.82,1.23c-6.516,2.399-15.175,8.741-25.685,18.779
			c-0.633-0.63-1.229-1.215-1.875-1.863l-5.846-5.849c-0.841-0.825-1.602-1.604-2.405-2.408
			C86.026,46.219,92.487,37.587,95.063,31.148z M47.866,111.998c-1.355,3.695-1.285,7.471-1.224,10.808
			c0.052,2.722,0.101,5.279-0.874,6.93c-0.53,1.157-1.221,2.192-2.043,3.075c-2.975,3.16-7.42,4.451-11.612,3.41
			c-1.945-0.494-3.748-1.48-5.206-2.838c-2.588-2.43-3.958-5.852-3.76-9.402c0.058-0.925-0.311-1.826-0.983-2.459
			c-0.673-0.634-1.604-0.944-2.515-0.822c-3.559,0.444-7.039-0.676-9.627-3.111c-1.483-1.383-2.554-3.057-3.179-5
			c-1.349-4.116-0.35-8.641,2.6-11.801c0.853-0.907,1.839-1.68,3.179-2.436c1.486-1.011,4.323-1.145,7.334-1.278
			c3.416-0.152,7.283-0.335,10.948-1.796c6.652-2.662,15.256-9.135,26.214-19.675c0.804,0.804,1.589,1.577,2.417,2.43l5.842,5.846
			c0.661,0.651,1.2,1.206,1.827,1.833C56.844,96.512,50.307,105.36,47.866,111.998z M136.311,112.625
			c-0.615,1.906-1.705,3.623-3.179,4.999c-2.563,2.405-6.132,3.532-9.627,3.105c-0.975-0.128-1.846,0.183-2.515,0.815
			c-0.677,0.64-1.042,1.529-0.98,2.461c0.194,3.543-1.17,6.978-3.758,9.395c-1.461,1.371-3.264,2.352-5.206,2.838
			c-4.189,1.066-8.665-0.256-11.611-3.397c-0.828-0.901-1.517-1.937-2.205-3.361c-0.815-1.376-0.761-3.934-0.718-6.644
			c0.061-3.343,0.128-7.13-1.225-10.814c-2.892-7.867-11.49-18.821-25.531-32.54l-5.794-5.797
			c-13.728-14.06-24.686-22.658-32.559-25.55c-3.011-1.118-6.08-1.261-8.674-1.261l-4.046,0.049c-1.732,0-3.647-0.085-5.032-0.889
			c-1.154-0.53-2.189-1.224-3.072-2.046c-3.157-2.968-4.466-7.414-3.413-11.612c0.493-1.942,1.48-3.745,2.838-5.206
			c2.277-2.436,5.367-3.772,8.716-3.772l0.679,0.021c0.91,0.128,1.82-0.314,2.457-0.987c0.636-0.673,0.928-1.601,0.819-2.515
			c-0.451-3.529,0.679-7.039,3.105-9.639c1.364-1.452,3.084-2.548,4.999-3.167c4.041-1.315,8.668-0.323,11.804,2.6
			c0.91,0.853,1.677,1.839,2.433,3.179c1.014,1.485,1.145,4.323,1.275,7.334c0.158,3.41,0.338,7.283,1.802,10.948
			c3.112,7.794,11.822,18.725,25.864,32.468l5.803,5.8c13.78,14.072,24.71,22.779,32.492,25.885
			c3.666,1.462,7.532,1.65,10.954,1.797c3.002,0.134,5.846,0.268,7.581,1.431c1.09,0.603,2.076,1.37,2.923,2.266
			C136.658,103.978,137.663,108.496,136.311,112.625z"/>
	</g>
</g>
<g>
</g>
<g>
</g>
<g>
</g>
<g>
</g>
<g>
</g>
<g>
</g>
<g>
</g>
<g>
</g>
<g>
</g>
<g>
</g>
<g>
</g>
<g>
</g>
<g>
</g>
<g>
</g>
<g>
</g>
</svg>
