<?xml version="1.0" encoding="iso-8859-1"?>
<!-- Generator: Adobe Illustrator 16.0.0, SVG Export Plug-In . SVG Version: 6.00 Build 0)  -->
<!DOCTYPE svg PUBLIC "-//W3C//DTD SVG 1.1//EN" "http://www.w3.org/Graphics/SVG/1.1/DTD/svg11.dtd">
<svg version="1.1" id="Capa_1" xmlns="http://www.w3.org/2000/svg" xmlns:xlink="http://www.w3.org/1999/xlink" x="0px" y="0px"
	 width="130.168px" height="130.168px" viewBox="0 0 130.168 130.168" style="enable-background:new 0 0 130.168 130.168;"
	 xml:space="preserve">
<g>
	<g>
		<path d="M112.078,34.293l-0.729-0.684l-0.306-0.29C89.068,11.902,63.146,12.941,45.12,17.702
			C-2.445,30.255-0.005,69.472,0.03,69.816c0.494,8.088,3.524,14.484,8.988,19.017c9.497,7.863,23.388,7.551,27.825,7.223
			c2.834,4.515,8.528,7.469,16.172,7.924l0.975,0.054c0.369,2.711,1.411,4.958,3.133,6.665c4.169,4.132,11.458,4.597,20.71,4.597
			c1.288,0,2.638-0.011,3.996-0.016l4.491-0.022c17.581,0,28.991-4.323,34.89-13.199C142.739,69.565,119.669,41.976,112.078,34.293z
			 M102.481,33.22c-17.373,3.387-23.77,20.898-25.928,29.308c-5.603-6.216-0.334-16.618-0.065-17.122
			c0.711-1.368,0.169-3.063-1.199-3.781c-1.346-0.695-3.053-0.181-3.773,1.187c-0.21,0.389-4.945,9.609-2.344,17.916
			c0.481,1.532,1.248,2.883,2.134,4.143h-4.933l-0.033-0.07c-2.287-3.761-2.849-7.601-1.696-11.772
			c3.614-13.083,22.548-24.383,26.871-26.812C95.23,28.027,98.896,30.348,102.481,33.22z M35.977,77.423
			c-3.644,0.871-12.324,1.983-16.559-1.713c-2.229-1.953-3.073-5.253-2.477-9.806c0.189-1.526-0.885-2.933-2.426-3.135
			c-1.52-0.219-2.942,0.887-3.145,2.424c-0.829,6.528,0.621,11.486,4.354,14.741c3.553,3.104,8.516,3.935,12.858,3.935
			c2.405,0,4.597-0.257,6.271-0.536c-0.129,1.816-0.145,3.749-0.021,5.838l0.138,1.357c-4.823,0.164-15.386-0.214-22.401-6.029
			c-4.219-3.502-6.556-8.553-6.959-15.065c-0.023-0.345-2.174-34.937,40.941-46.32c7.358-1.937,16.153-3.218,25.388-2.342
			c-1.676,1.297-3.744,2.955-5.993,4.87l-0.185-0.038c-1.468-0.081-36.781-0.186-43.892,22.993
			c-0.453,1.478,0.364,3.048,1.856,3.498l0.817,0.125c1.193,0,2.302-0.782,2.68-1.985c4.285-13.965,22.501-17.719,32.246-18.699
			c-4.56,4.46-8.752,9.374-10.457,13.713c-5.288,0.121-13.079,2.501-15.485,11.196c-1.566,5.641,0.878,11.409,5.769,14.681
			C37.858,72.897,36.72,74.961,35.977,77.423z M38.924,57.959c2.218-8.005,11.425-7.058,11.822-7.025
			c1.389,0.197,2.848-0.832,3.1-2.32c1.091-6.583,15.906-19.437,24.983-25.992l0.583-0.635c1.871,0.421,3.74,0.952,5.612,1.587
			C77.32,28.378,62.753,38.89,59.251,51.551c-1.282,4.619-0.908,9.084,0.919,13.335h-5.512l-0.448-0.006
			c-4.041,0-7.454,0.865-10.31,2.437C40.021,65.604,37.887,61.707,38.924,57.959z M116.532,98.961
			c-4.777,7.201-14.652,10.697-30.215,10.697l-4.524,0.022c-9.459,0.044-17.626,0.114-20.724-2.955
			c-0.455-0.448-0.978-1.19-1.314-2.408c8.503,0.357,15.666,0.416,19.026,0.416c1.285,0,2.013-0.005,2.046-0.005
			c1.545-0.021,2.791-1.286,2.769-2.84c-0.014-1.549-1.466-2.873-2.834-2.764c-0.121-0.005-12.808,0.126-27.429-0.738
			c-5.951-0.351-12.902-2.971-12.902-9.209l-0.046-0.794c-0.392-6.567,0.822-11.382,3.645-14.337
			c2.33-2.446,5.696-3.639,10.576-3.582h37.072c1.538,0,2.802-1.261,2.802-2.805c0-1.547-1.264-2.801-2.802-2.801h-9.953
			c1.702-7.36,7.88-26.293,26.388-26.621C114.962,45.21,135.723,70.014,116.532,98.961z"/>
		<path d="M13.103,52.629c-1.513,0.35-2.442,1.844-2.101,3.354c0.348,1.494,1.819,2.49,3.349,2.112
			c0.053-0.011,5.486-1.176,8.759,1.702c2.232,1.964,3.138,5.526,2.685,10.61c-0.135,1.532,1.004,2.9,2.538,3.037l0.252,0.012
			c1.443,0,2.662-1.096,2.791-2.557c0.625-6.977-0.93-12.137-4.599-15.337C21.311,50.808,13.416,52.569,13.103,52.629z"/>
		<path d="M99.219,83.19c-3.708,0.26-6.648,2.188-8.657,4.038c-3.376-3.425-6.878-5.313-10.416-5.592
			c-4.391-5.078-8.965-7.617-13.745-7.212c-7.208,0.498-11.553,7.316-11.732,7.596c-0.817,1.302-0.416,3.036,0.889,3.857
			c1.302,0.816,3.037,0.432,3.856-0.893c0.036-0.042,3.042-4.678,7.358-4.979c2.182-0.147,4.409,0.826,6.701,2.823
			c-4.306,2.135-6.794,6.052-6.923,6.271c-0.819,1.302-0.429,3.025,0.871,3.852c1.308,0.821,3.036,0.434,3.857-0.869
			c0.033-0.042,3.054-4.717,7.4-5.001c2.68-0.153,5.52,1.449,8.46,4.618c-0.242,1.121,0.196,2.309,1.229,2.943
			c1.309,0.82,3.045,0.433,3.857-0.887c0.033-0.049,3.043-4.676,7.362-4.984c2.988-0.148,6.146,1.68,9.422,5.598
			c0.562,0.656,1.351,1.006,2.149,1.006c0.635,0,1.287-0.212,1.801-0.65c1.182-0.999,1.341-2.764,0.347-3.95
			C108.827,85.412,104.051,82.896,99.219,83.19z"/>
		<path d="M87.826,84.192c1.297,0.815,3.031,0.421,3.857-0.892c0.027-0.042,3.048-4.685,7.362-4.986
			c2.903-0.191,6.144,1.686,9.422,5.593c0.557,0.668,1.345,1.013,2.148,1.013c0.63,0,1.283-0.214,1.792-0.651
			c1.191-0.996,1.345-2.757,0.351-3.945c-4.506-5.373-9.272-7.863-14.104-7.584c-7.211,0.498-11.557,7.316-11.742,7.601
			C86.107,81.643,86.509,83.376,87.826,84.192z"/>
		<path d="M104.686,47.765c-5.547-0.507-13.662,1.642-14.654,4.586c-0.502,1.472,0.297,3.054,1.751,3.546
			c1.095,0.368,2.249,0.033,2.977-0.777c1.401-0.821,7.82-3.141,13.135-0.887c4.015,1.713,6.542,5.801,7.484,12.16
			c0.196,1.389,1.4,2.396,2.76,2.396l0.415-0.038c1.527-0.22,2.587-1.647,2.357-3.175C118.787,51.142,109.831,48.226,104.686,47.765
			z"/>
	</g>
</g>
<g>
</g>
<g>
</g>
<g>
</g>
<g>
</g>
<g>
</g>
<g>
</g>
<g>
</g>
<g>
</g>
<g>
</g>
<g>
</g>
<g>
</g>
<g>
</g>
<g>
</g>
<g>
</g>
<g>
</g>
</svg>
