<?xml version="1.0" encoding="iso-8859-1"?>
<!-- Generator: Adobe Illustrator 16.0.0, SVG Export Plug-In . SVG Version: 6.00 Build 0)  -->
<!DOCTYPE svg PUBLIC "-//W3C//DTD SVG 1.1//EN" "http://www.w3.org/Graphics/SVG/1.1/DTD/svg11.dtd">
<svg version="1.1" id="Capa_1" xmlns="http://www.w3.org/2000/svg" xmlns:xlink="http://www.w3.org/1999/xlink" x="0px" y="0px"
	 width="140.099px" height="140.099px" viewBox="0 0 140.099 140.099" style="enable-background:new 0 0 140.099 140.099;"
	 xml:space="preserve">
<g>
	<path d="M107.487,12.138c-1.544-1.352-3.896-1.166-5.237,0.369c-1.346,1.546-1.182,3.889,0.351,5.239
		c0.493,0.427,3.754,3.341,7.969,8.455c-33.436-9.934-65.655-3.904-81.324,0.367c4.339-5.324,7.746-8.383,8.25-8.821
		c1.541-1.351,1.715-3.693,0.359-5.239c-1.333-1.535-3.686-1.726-5.245-0.369c-0.514,0.46-51.821,46.047-24.705,114.381
		c0.583,1.461,1.979,2.342,3.45,2.342c0.46,0,0.919-0.088,1.368-0.257c1.915-0.756,2.846-2.917,2.091-4.827
		c-6.261-15.753-8.1-30.122-7.346-42.85c1.854-0.997,29.63-15.596,46.11-5.878c7.646,4.515,11.848,13.965,12.586,28.055v6.035
		c-0.395,6.316-3.044,11.552-4.957,13.204c-1.534,1.353-1.702,3.694-0.352,5.259c0.742,0.831,1.764,1.27,2.801,1.27
		c0.875,0,1.744-0.301,2.454-0.911c0.247-0.221,0.492-0.51,0.759-0.769c0.658,0.992,1.742,1.68,3.02,1.68
		c1.346,0,2.471-0.756,3.131-1.827c0.295,0.323,0.585,0.65,0.888,0.916c0.71,0.61,1.568,0.911,2.451,0.911
		c1.046,0,2.068-0.426,2.802-1.27c1.35-1.552,1.186-3.896-0.355-5.259c-2.011-1.745-4.938-7.475-5.047-14.287
		c0-0.142,0.023-0.279,0.023-0.426c0-0.321-0.04-0.597-0.04-0.925c0.158-16.104,4.416-26.771,12.712-31.656
		c16.688-9.836,45.029,5.28,46.184,5.921c0.761,12.723-1.089,27.075-7.344,42.812c-0.753,1.915,0.176,4.084,2.081,4.826
		c0.447,0.175,0.92,0.258,1.377,0.258c1.485,0,2.867-0.887,3.447-2.343C159.307,58.185,107.996,12.598,107.487,12.138z
		 M82.689,68.63c-5.724,3.374-9.939,8.651-12.672,15.683c-2.74-7.031-6.933-12.309-12.669-15.683
		c-16.165-9.521-39.073-0.979-48.885,3.519c2.332-14.558,7.918-26.531,13.613-35.541c0.01-0.005,0.032,0,0.042-0.005
		c0.485-0.192,49.365-18.531,95.837-0.02c0.029,0.014,0.049,0.006,0.082,0.02c5.696,9.015,11.289,21.012,13.619,35.589
		C121.878,67.701,98.891,59.082,82.689,68.63z"/>
</g>
<g>
</g>
<g>
</g>
<g>
</g>
<g>
</g>
<g>
</g>
<g>
</g>
<g>
</g>
<g>
</g>
<g>
</g>
<g>
</g>
<g>
</g>
<g>
</g>
<g>
</g>
<g>
</g>
<g>
</g>
</svg>
