<?xml version="1.0" encoding="iso-8859-1"?>
<!-- Generator: Adobe Illustrator 16.0.0, SVG Export Plug-In . SVG Version: 6.00 Build 0)  -->
<!DOCTYPE svg PUBLIC "-//W3C//DTD SVG 1.1//EN" "http://www.w3.org/Graphics/SVG/1.1/DTD/svg11.dtd">
<svg version="1.1" id="Capa_1" xmlns="http://www.w3.org/2000/svg" xmlns:xlink="http://www.w3.org/1999/xlink" x="0px" y="0px"
	 width="156.139px" height="156.139px" viewBox="0 0 156.139 156.139" style="enable-background:new 0 0 156.139 156.139;"
	 xml:space="preserve">
<g>
	<path d="M104.73,69.037c18.578-35.621,3.892-64.919,3.246-66.149c-0.792-1.525-2.667-2.131-4.202-1.34
		c-1.522,0.786-2.131,2.67-1.339,4.202c0.134,0.268,13.847,27.623-3.246,60.407c-2.454,4.701-6.388,19.549-6.095,32.251
		l-11.746-5.272c-1.127-0.506-2.438-0.299-3.35,0.518C58.56,19.294,73.618,6.112,74.103,5.725c1.392-0.923,1.814-2.786,0.932-4.223
		C74.136,0.019,72.215-0.44,70.75,0.46c-2.14,1.297-20.186,15.104,2.025,97.874l-3.684,3.312c-0.636,0.572-1.005,1.383-1.029,2.235
		l-0.268,11.679l-24.75,22.755c-0.642,0.591-1.001,1.425-1.001,2.29v12.416c0,1.717,1.4,3.117,3.118,3.117h33.408
		c0.673,0,1.337-0.219,1.873-0.633l20.404-15.369c0.743-0.566,1.188-1.426,1.23-2.351l1.467-32.534
		c0.067-1.279-0.657-2.467-1.826-2.984l-2.314-1.041C98.318,88.884,102.636,73.068,104.73,69.037z M95.969,136.069L77.57,149.934
		h-29.25v-7.922l24.722-22.736c0.624-0.572,0.98-1.383,0.999-2.217l0.268-11.661l6.363-5.729l16.61,7.465L95.969,136.069z
		 M78.623,131.77l7.81-7.806v-11.43c0-1.717,1.4-3.118,3.118-3.118c1.729,0,3.117,1.401,3.117,3.118v12.72
		c0,0.835-0.329,1.627-0.907,2.211l-8.726,8.714c-0.609,0.614-1.406,0.913-2.204,0.913s-1.602-0.305-2.208-0.913
		C77.408,134.967,77.408,132.995,78.623,131.77z M88.954,57.464c6.436-19.902,1.461-39.756,1.425-39.954
		c-0.421-1.671,0.584-3.367,2.24-3.79c1.656-0.438,3.374,0.572,3.794,2.244c0.219,0.88,5.462,21.817-1.534,43.428
		c-0.421,1.315-1.656,2.159-2.979,2.159c-0.316,0-0.633-0.052-0.955-0.149C89.319,60.865,88.418,59.105,88.954,57.464z"/>
</g>
<g>
</g>
<g>
</g>
<g>
</g>
<g>
</g>
<g>
</g>
<g>
</g>
<g>
</g>
<g>
</g>
<g>
</g>
<g>
</g>
<g>
</g>
<g>
</g>
<g>
</g>
<g>
</g>
<g>
</g>
</svg>
