<?xml version="1.0" encoding="iso-8859-1"?>
<!-- Generator: Adobe Illustrator 16.0.0, SVG Export Plug-In . SVG Version: 6.00 Build 0)  -->
<!DOCTYPE svg PUBLIC "-//W3C//DTD SVG 1.1//EN" "http://www.w3.org/Graphics/SVG/1.1/DTD/svg11.dtd">
<svg version="1.1" id="Capa_1" xmlns="http://www.w3.org/2000/svg" xmlns:xlink="http://www.w3.org/1999/xlink" x="0px" y="0px"
	 width="119.531px" height="119.531px" viewBox="0 0 119.531 119.531" style="enable-background:new 0 0 119.531 119.531;"
	 xml:space="preserve">
<g>
	<path d="M119.531,59.771C119.531,26.813,92.728,0,59.764,0C26.801,0,0,26.808,0,59.771c0,13.652,4.522,26.533,13.062,37.236
		c0.021,0.011,0.021,0.011,0.021,0.023c11.421,14.302,28.438,22.5,46.681,22.5c18.223,0,35.251-8.198,46.682-22.5
		c0.022-0.013,0-0.013,0.022-0.023C115.009,86.305,119.531,73.424,119.531,59.771z M59.764,9.089
		c27.94,0,50.693,22.739,50.693,50.688c0,9.756-2.736,19.031-7.911,27.151c-0.122-0.113-0.248-0.207-0.346-0.327
		c-0.531-0.547-1.093-1.03-1.658-1.532c-1.007-0.941-2.012-1.882-3.075-2.748c-0.668-0.547-1.355-1.039-2.047-1.548
		c-1.007-0.755-2.012-1.506-3.086-2.194c-0.742-0.481-1.488-0.941-2.236-1.39c-1.059-0.618-2.134-1.224-3.23-1.779
		c-0.804-0.405-1.593-0.793-2.408-1.159c-1.121-0.513-2.26-0.975-3.403-1.412c-0.814-0.323-1.636-0.635-2.457-0.908
		c-1.201-0.399-2.438-0.733-3.671-1.056c-0.816-0.219-1.615-0.447-2.423-0.624c-1.392-0.295-2.792-0.509-4.193-0.701
		c-0.689-0.108-1.4-0.241-2.11-0.327c-2.101-0.229-4.259-0.362-6.426-0.362c-2.161,0-4.32,0.134-6.426,0.362
		c-0.712,0.076-1.391,0.219-2.08,0.327c-1.413,0.192-2.834,0.406-4.214,0.711c-0.806,0.176-1.578,0.396-2.374,0.603
		c-1.272,0.34-2.517,0.668-3.743,1.078c-0.819,0.263-1.599,0.574-2.405,0.876c-1.183,0.448-2.337,0.93-3.492,1.444
		c-0.782,0.355-1.557,0.733-2.342,1.139c-1.108,0.574-2.197,1.182-3.278,1.816c-0.744,0.434-1.479,0.869-2.202,1.341
		c-1.076,0.71-2.135,1.483-3.172,2.254c-0.656,0.492-1.299,0.963-1.95,1.489c-1.097,0.896-2.146,1.87-3.189,2.845
		c-0.514,0.486-1.046,0.941-1.545,1.438c-0.117,0.126-0.241,0.231-0.357,0.345c-5.18-8.12-7.914-17.396-7.914-27.151
		C9.072,31.828,31.827,9.089,59.764,9.089z M22.66,94.239c0.229-0.241,0.443-0.504,0.672-0.742c0.6-0.637,1.22-1.245,1.86-1.841
		c0.712-0.657,1.417-1.302,2.162-1.927c0.656-0.552,1.331-1.061,2.003-1.587c0.782-0.579,1.578-1.148,2.38-1.695
		c0.689-0.459,1.401-0.909,2.106-1.336c0.846-0.503,1.726-0.975,2.587-1.434c0.728-0.372,1.44-0.75,2.182-1.083
		c0.93-0.427,1.871-0.799,2.802-1.171c0.743-0.285,1.476-0.591,2.218-0.843c1.007-0.34,2.034-0.602,3.065-0.876
		c0.727-0.196,1.417-0.416,2.144-0.58c1.171-0.251,2.367-0.427,3.55-0.591c0.614-0.099,1.224-0.229,1.849-0.296
		c1.813-0.196,3.663-0.307,5.522-0.307c1.861,0,3.688,0.11,5.517,0.307c0.607,0.076,1.242,0.209,1.86,0.296
		c1.182,0.164,2.353,0.345,3.524,0.591c0.733,0.154,1.438,0.384,2.167,0.58c1.028,0.274,2.058,0.554,3.053,0.876
		c0.767,0.252,1.489,0.558,2.232,0.843c0.93,0.372,1.872,0.732,2.782,1.16c0.742,0.344,1.471,0.722,2.199,1.104
		c0.863,0.448,1.738,0.92,2.569,1.423c0.723,0.427,1.418,0.877,2.109,1.336c0.813,0.559,1.635,1.121,2.413,1.718
		c0.655,0.504,1.312,1.018,1.948,1.537c0.775,0.646,1.526,1.325,2.255,2.025c0.599,0.563,1.19,1.11,1.755,1.708
		c0.245,0.257,0.478,0.541,0.721,0.804c-9.605,10.353-22.921,16.208-37.105,16.208C45.564,110.447,32.246,104.581,22.66,94.239z
		 M69.778,94.426c0,5.525-4.487,10.013-10.015,10.013c-5.522,0-10.012-4.487-10.012-10.013c0-5.55,4.489-10.037,10.012-10.037
		C65.291,84.389,69.778,88.876,69.778,94.426z"/>
</g>
<g>
</g>
<g>
</g>
<g>
</g>
<g>
</g>
<g>
</g>
<g>
</g>
<g>
</g>
<g>
</g>
<g>
</g>
<g>
</g>
<g>
</g>
<g>
</g>
<g>
</g>
<g>
</g>
<g>
</g>
</svg>
