<?xml version="1.0" encoding="iso-8859-1"?>
<!-- Generator: Adobe Illustrator 16.0.0, SVG Export Plug-In . SVG Version: 6.00 Build 0)  -->
<!DOCTYPE svg PUBLIC "-//W3C//DTD SVG 1.1//EN" "http://www.w3.org/Graphics/SVG/1.1/DTD/svg11.dtd">
<svg version="1.1" id="Capa_1" xmlns="http://www.w3.org/2000/svg" xmlns:xlink="http://www.w3.org/1999/xlink" x="0px" y="0px"
	 width="106.552px" height="106.552px" viewBox="0 0 106.552 106.552" style="enable-background:new 0 0 106.552 106.552;"
	 xml:space="preserve">
<g>
	<path d="M103.157,78.969l-20.389-0.006c-0.753,0-1.467,0.301-1.986,0.817c-0.531,0.523-0.815,1.239-0.815,1.984
		c0,5.258-5.023,9.538-11.185,9.538h-2.769H50.698c0.83-1.576,1.343-3.383,1.348-5.308c0.008-3.031-1.163-5.954-3.209-8.001
		c-0.049-0.054-0.105-0.087-0.149-0.12c2.043-1.992,3.354-4.849,3.367-8.044c0.006-3.031-1.163-5.953-3.21-8.011
		c-0.075-0.066-0.163-0.114-0.241-0.191c2.096-1.998,3.443-4.876,3.451-8.115c0.006-3.031-1.163-5.951-3.21-7.999
		c-0.119-0.122-0.248-0.198-0.364-0.305c1.518-1.401,2.64-3.267,3.181-5.4c0.17,0,0.304,0.021,0.477,0.021h15.143
		c1.546,0,2.802-1.256,2.802-2.801c0-1.546-1.256-2.802-2.802-2.802H52.133c-6.808,0-7.151-1.406-7.151-5.486
		c0-0.493-0.161-0.93-0.38-1.334c-0.383-1.087-1.396-1.877-2.618-1.877H22.066c-1.699-0.761-2.914-2.679-2.914-4.953
		c0-2.925,1.989-5.302,4.443-5.33c0.01,0,0.021,0.006,0.038,0.006h45.16c6.178,0,11.186,4.485,11.186,9.992v4.807
		c0,0.752,0.295,1.464,0.819,1.989c0.526,0.521,1.237,0.812,1.982,0.812c0,0,0.01,0,0.021,0l20.969-0.172
		c1.549-0.011,2.791-1.286,2.782-2.827c-0.014-1.539-1.266-2.776-2.802-2.776c-0.005,0-0.019,0-0.023,0l-18.146,0.15v-1.967
		c0-8.597-7.535-15.596-16.788-15.596H41.492c-0.028,0-0.049-0.016-0.086-0.016H23.633c-5.559,0-10.085,4.908-10.085,10.938
		c0,2.017,0.542,3.882,1.423,5.507h-4.886C4.524,26.095,0,30.981,0,36.987c0,3.325,1.405,6.265,3.578,8.272
		C1.405,47.258,0,50.196,0,53.518c0,3.262,1.354,6.167,3.46,8.165C1.354,63.668,0,66.576,0,69.836c0,3.223,1.316,6.084,3.374,8.082
		C1.316,79.91,0,82.777,0,85.982c0,6.021,4.524,10.92,10.085,10.92h0.437h55.492h2.769c8.196,0,15.036-5.327,16.487-12.341
		l17.877,0.005c1.543,0,2.802-1.251,2.802-2.802C105.948,80.216,104.712,78.969,103.157,78.969z M10.078,58.826
		c-2.47,0-4.48-2.392-4.48-5.309c0-2.916,2.006-5.288,4.48-5.288h31.318c0.01,0,0.016-0.005,0.026-0.005h0.556
		c1.357,0,2.321,0.675,2.893,1.256c1.009,1.006,1.581,2.478,1.573,4.032c-0.005,2.922-2.028,5.275-4.503,5.275H10.624
		c-0.059,0-0.107,0.038-0.166,0.043L10.078,58.826L10.078,58.826z M10.078,31.698h29.52c0.621,3.968,2.657,6.331,6.437,7.415
		c-0.701,1.853-2.276,3.156-4.102,3.156H10.617c-0.056,0-0.105,0.026-0.164,0.032h-0.375c-2.47,0-4.48-2.381-4.48-5.308
		C5.603,34.076,7.608,31.698,10.078,31.698z M5.603,69.83c0-2.922,2.005-5.291,4.482-5.291h31.316c0.011,0,0.016-0.007,0.03-0.007
		h0.553c1.351,0,2.319,0.68,2.891,1.26c1.01,1.013,1.583,2.474,1.576,4.038c-0.007,2.9-2.008,5.253-4.461,5.275c0,0,0,0-0.005,0
		h-0.583H17.945h-7.86c-0.049,0-0.096,0.011-0.141,0.011C7.534,75.013,5.603,72.697,5.603,69.83z M5.603,85.989
		c0-2.856,1.938-5.166,4.337-5.26c0.049,0,0.096,0.012,0.138,0.012h25.489c0.07,0,0.124-0.032,0.191-0.032h6.182
		c0.017,0,0.038-0.012,0.054-0.012c1.347,0.012,2.305,0.679,2.872,1.259c1.008,1.008,1.578,2.474,1.573,4.033
		c-0.007,2.916-2.023,5.269-4.505,5.269H10.617c-0.068,0-0.122,0.045-0.191,0.05h-0.348C7.608,91.303,5.603,88.905,5.603,85.989z"/>
</g>
<g>
</g>
<g>
</g>
<g>
</g>
<g>
</g>
<g>
</g>
<g>
</g>
<g>
</g>
<g>
</g>
<g>
</g>
<g>
</g>
<g>
</g>
<g>
</g>
<g>
</g>
<g>
</g>
<g>
</g>
</svg>
