<?xml version="1.0" encoding="iso-8859-1"?>
<!-- Generator: Adobe Illustrator 16.0.0, SVG Export Plug-In . SVG Version: 6.00 Build 0)  -->
<!DOCTYPE svg PUBLIC "-//W3C//DTD SVG 1.1//EN" "http://www.w3.org/Graphics/SVG/1.1/DTD/svg11.dtd">
<svg version="1.1" id="Capa_1" xmlns="http://www.w3.org/2000/svg" xmlns:xlink="http://www.w3.org/1999/xlink" x="0px" y="0px"
	 width="187.059px" height="187.059px" viewBox="0 0 187.059 187.059" style="enable-background:new 0 0 187.059 187.059;"
	 xml:space="preserve">
<g>
	<g>
		<path d="M118.373,103.686c1.534-7.039,3.118-30.954-7.727-40.355c-3.161-2.74-10.645-7.989-12.767-10.802
			c-0.398-0.53-0.666-1.339-0.828-2.262c1.173-2.743,2.938-6.293,2.938-6.293c1.571-2.037,4.274-1.4,5.735-1.233
			c4.165,0.411,5.176-0.837,5.176-0.837c0.901-0.572,0.421-2.886,0.421-2.886c-0.372-1.184,0.164-1.791,0.499-2.256
			c0.896-1.303,0.341-1.884,0.341-1.884l-0.109-0.554c1.005-0.354,1.06-0.904,1.06-0.904l-0.067-1.851
			c-0.177-1.267,0.384-1.355,0.384-1.355c2.302-0.097,2.217-1.583,2.217-1.583c0.073-0.816-2.801-5.636-2.801-5.636
			c-1.353-2.469,0.462-4.003,0.56-5.294c0.451-5.949-1.632-9.539-4.421-12.353C104.393,0.67,98.574-0.097,94.79,0.009
			c-9.715,0.28-13.576,3.44-16.475,6.814c-6.043,7.03-4.615,13.058-4.615,13.058c0.231,3.593,5.325,10.026,5.325,10.026
			c4.068,5.593,2.208,10.013,2.208,10.013l0.07,0.013c0.036,3.498-0.561,7.514-3.069,9.971c-8.181,7.989-15.019,21.787-7.2,43.528
			c3.373,9.365,16.623,31.006,11.792,37.984c-5.836,8.415-17.354,19.96-5.568,40.59c0,0-0.606,6.352-1.093,15.053h32.814
			c0.104-1.967,2.387-10.583,2.314-12.763c-0.323-9.463,0.188-21.349,1.314-26.841c2.016-9.986,6.54-21.617,5.889-40.273
			C118.465,105.836,118.416,104.685,118.373,103.686z M91.072,112.625l0.88,0.328c0.743,1.669,1.364,3.338,1.839,5.006l-0.447,0.804
			l-0.17,0.024l-0.636-0.469c-0.46-1.602-1.06-3.222-1.775-4.816L91.072,112.625z M89.209,109.093l-0.38,0.128l-0.487-0.256
			c-0.987-1.65-1.827-3.172-2.594-4.64l0.28-0.896l0.88,0.28c0.755,1.462,1.596,2.966,2.481,4.464L89.209,109.093z M83.166,58.478
			c1.546-2.917,2.874-4.463,2.926-4.527l0.922-0.073l0.061,0.922c-0.013,0.019-1.291,1.495-2.737,4.278l-0.584,0.356l-0.308-0.076
			L83.166,58.478z M84.694,99.034l-0.344,0.859l-0.268,0.066l-0.597-0.401c-0.706-1.632-1.349-3.301-1.909-4.933l0.405-0.828
			l0.834,0.396C83.367,95.783,83.997,97.426,84.694,99.034z M79.969,79.004L79.32,79.67h-0.021l-0.648-0.648l-0.024-1.4
			c0-1.318,0.064-2.633,0.171-3.903l0.697-0.593l0.605,0.697c-0.119,1.242-0.158,2.515-0.158,3.785L79.969,79.004z M79.661,83.58
			l0.743,0.563c0.231,1.672,0.56,3.374,0.965,5.075l-0.478,0.792l-0.158,0.012L80.1,89.523c-0.414-1.732-0.755-3.504-0.999-5.2
			L79.661,83.58z M80.864,68.747l-0.648,0.512l-0.131-0.012l-0.496-0.779c0.375-1.72,0.853-3.456,1.446-5.106l0.84-0.393l0.387,0.84
			C81.695,65.413,81.22,67.076,80.864,68.747z M82.667,141.817l-0.828,0.292l-1.023-0.487c-0.448-0.572-0.369-1.4,0.207-1.851
			c14.172-11.332,1.656-30.349,1.531-30.537C62.18,75.144,80.23,53.746,80.41,53.521l1.852-0.131l0.131,1.851
			c-0.697,0.813-16.94,20.253,2.362,52.599C84.874,107.973,98.699,128.999,82.667,141.817z M93.362,133.779
			c-0.719,1.632-1.684,3.179-2.875,4.579l-0.499,0.231l-0.426-0.146l-0.073-0.92c1.108-1.321,2.006-2.746,2.667-4.269l0.874-0.341
			L93.362,133.779z M94.802,128.567l-0.654,0.572H94.06l-0.561-0.73c0.112-0.853,0.168-1.736,0.168-2.631
			c0-0.804-0.049-1.619-0.144-2.447l0.585-0.719l0.73,0.584c0.088,0.883,0.131,1.742,0.131,2.582
			C94.97,126.728,94.909,127.671,94.802,128.567z"/>
	</g>
</g>
<g>
</g>
<g>
</g>
<g>
</g>
<g>
</g>
<g>
</g>
<g>
</g>
<g>
</g>
<g>
</g>
<g>
</g>
<g>
</g>
<g>
</g>
<g>
</g>
<g>
</g>
<g>
</g>
<g>
</g>
</svg>
