<?xml version="1.0" encoding="iso-8859-1"?>
<!-- Generator: Adobe Illustrator 16.0.0, SVG Export Plug-In . SVG Version: 6.00 Build 0)  -->
<!DOCTYPE svg PUBLIC "-//W3C//DTD SVG 1.1//EN" "http://www.w3.org/Graphics/SVG/1.1/DTD/svg11.dtd">
<svg version="1.1" id="Capa_1" xmlns="http://www.w3.org/2000/svg" xmlns:xlink="http://www.w3.org/1999/xlink" x="0px" y="0px"
	 width="161.599px" height="161.6px" viewBox="0 0 161.599 161.6" style="enable-background:new 0 0 161.599 161.6;"
	 xml:space="preserve">
<g>
	<path d="M150.704,69.897v87.154c0,2.503-2.034,4.549-4.543,4.549c-2.496,0-4.536-2.027-4.536-4.549V69.897
		c0-33.545-27.292-60.831-60.831-60.831c-33.545,0-60.831,27.285-60.831,60.831v83.976c0,2.502-2.028,4.536-4.533,4.536
		c-2.509,0-4.534-2.016-4.534-4.536V69.897C10.896,31.355,42.252,0,80.793,0C119.344,0,150.704,31.355,150.704,69.897z"/>
	<path d="M102.112,63.555c0.036,0,0.085,0,0.109,0c13.664,0,23.395-9.651,23.797-10.062c1.76-1.778,1.741-4.646-0.037-6.406
		c-1.79-1.763-4.658-1.738-6.411,0.04c-0.073,0.073-7.575,7.377-17.349,7.377c-0.024,0-0.055,0-0.073,0
		c-5.821-0.027-11.466-2.734-16.821-7.864V32.306c0-2.5-2.027-4.54-4.533-4.54c-2.505,0-4.539,2.025-4.539,4.54v14.346
		c-5.325,5.088-10.93,7.794-16.724,7.853c-0.049,0-0.106,0-0.155,0c-9.822,0-17.29-7.316-17.378-7.401
		c-1.763-1.754-4.625-1.754-6.396,0.012c-1.772,1.757-1.778,4.606-0.024,6.379c0.411,0.411,10.132,10.062,23.799,10.062
		c0.049,0,0.088,0,0.125,0c5.854-0.031,11.459-1.946,16.76-5.398v18.13c-5.325,5.087-10.93,7.791-16.724,7.846
		c-0.049,0-0.104,0-0.155,0c-9.819,0-17.291-7.316-17.379-7.396c-1.763-1.754-4.625-1.76-6.396,0.012
		c-1.772,1.75-1.778,4.6-0.024,6.373c0.411,0.408,10.132,10.064,23.8,10.064c0.052,0,0.088,0,0.125,0
		c5.855-0.023,11.46-1.948,16.76-5.4v22.079c-5.318,5.085-10.93,7.8-16.724,7.854c-0.049,0-0.104,0-0.149,0
		c-9.818,0-17.302-7.318-17.391-7.41c-1.756-1.735-4.612-1.741-6.396,0c-1.772,1.766-1.778,4.615-0.024,6.382
		c0.399,0.42,10.132,10.077,23.8,10.077c0.052,0,0.088,0,0.125,0c5.855-0.03,11.46-1.942,16.76-5.413v7.929
		c0,2.49,2.028,4.536,4.54,4.536c2.499,0,4.533-2.016,4.533-4.536v-7.929c5.325,3.471,10.915,5.383,16.784,5.413
		c0.037,0,0.086,0,0.11,0c13.664,0,23.395-9.657,23.796-10.077c1.76-1.778,1.741-4.64-0.036-6.406
		c-1.79-1.753-4.658-1.717-6.406,0.049c-0.079,0.073-7.581,7.398-17.354,7.398c-0.024,0-0.049,0-0.073,0
		c-5.827-0.036-11.466-2.733-16.821-7.886V87.781c5.325,3.477,10.915,5.383,16.784,5.406c0.037,0,0.086,0,0.11,0
		c13.664,0,23.395-9.656,23.796-10.064c1.76-1.778,1.741-4.646-0.036-6.412c-1.79-1.763-4.658-1.727-6.406,0.04
		c-0.079,0.082-7.581,7.383-17.354,7.383c-0.024,0-0.049,0-0.067,0c-5.827-0.024-11.472-2.734-16.827-7.871V58.151
		C90.64,61.628,96.242,63.524,102.112,63.555z"/>
	<path d="M80.799,71.83c-4.95,0-8.966,4.01-8.966,8.967c0,4.938,4.016,8.969,8.966,8.969c4.951,0,8.964-4.024,8.964-8.969
		C89.763,75.84,85.75,71.83,80.799,71.83z"/>
</g>
<g>
</g>
<g>
</g>
<g>
</g>
<g>
</g>
<g>
</g>
<g>
</g>
<g>
</g>
<g>
</g>
<g>
</g>
<g>
</g>
<g>
</g>
<g>
</g>
<g>
</g>
<g>
</g>
<g>
</g>
</svg>
