<?xml version="1.0" encoding="iso-8859-1"?>
<!-- Generator: Adobe Illustrator 16.0.0, SVG Export Plug-In . SVG Version: 6.00 Build 0)  -->
<!DOCTYPE svg PUBLIC "-//W3C//DTD SVG 1.1//EN" "http://www.w3.org/Graphics/SVG/1.1/DTD/svg11.dtd">
<svg version="1.1" id="Capa_1" xmlns="http://www.w3.org/2000/svg" xmlns:xlink="http://www.w3.org/1999/xlink" x="0px" y="0px"
	 width="155.864px" height="155.863px" viewBox="0 0 155.864 155.863" style="enable-background:new 0 0 155.864 155.863;"
	 xml:space="preserve">
<g>
	<path d="M100.736,92.695c-1.011,4.024-0.335,9.432,0.354,14.668c0.45,3.574,0.925,7.265,0.925,10.814
		c0,20.782-16.501,37.686-36.793,37.686c-20.283,0-36.788-16.903-36.788-37.686c0-2.332,1.891-4.226,4.229-4.226
		c2.323,0,4.22,1.894,4.22,4.226c0,16.124,12.714,29.24,28.351,29.24c15.646,0,28.36-13.122,28.36-29.24
		c0-3.008-0.427-6.271-0.871-9.742c-0.779-6.017-1.57-12.239-0.152-17.805c1.2-4.762,5.328-9.651,10.133-15.327
		c7.258-8.61,16.288-19.324,16.288-31.521c0-26.095-22.079-35.341-40.974-35.341c-22.685,0-41.135,18.998-41.135,42.362
		c0,2.338-1.891,4.223-4.22,4.223c-2.338,0-4.229-1.891-4.229-4.223C28.433,22.791,50.667,0,77.999,0
		c29.569,0,49.431,17.598,49.431,43.79c0,15.283-10.145,27.304-18.304,36.964C105.181,85.412,101.448,89.827,100.736,92.695z
		 M66.832,119.615c-3.249,0.109-6.336-1.023-8.781-3.337c-2.719-2.569-4.278-6.199-4.278-9.95c0-2.338-1.888-4.226-4.22-4.226
		s-4.223,1.888-4.223,4.226c0,6.053,2.506,11.923,6.89,16.076c3.885,3.678,8.811,5.668,13.969,5.668
		c0.359,0,0.715-0.006,1.084-0.029c4.098-0.22,9.965-1.048,13.506-5.712c4.308-5.657,3.504-14.468,0.785-26.841
		c-0.929-4.293-1.166-8.976-0.578-12.228c0.496-2.847,5.44-7.398,9.788-11.426c7.124-6.567,14.468-13.363,14.468-21.418
		c0-14.895-11.46-24.898-28.497-24.898c-15.756,0-28.583,12.827-28.583,28.585c0,2.339,1.888,4.22,4.213,4.22
		c2.338,0,4.235-1.891,4.235-4.22c0-11.112,9.027-20.14,20.134-20.14c9.706,0,20.058,4.32,20.058,16.453
		c0,4.366-6.247,10.126-11.752,15.214c-5.849,5.401-11.375,10.507-12.376,16.14c-0.773,4.329-0.539,10.132,0.648,15.496
		c1.656,7.562,3.233,16.66,0.74,19.918C73.682,117.728,72.479,119.305,66.832,119.615z"/>
</g>
<g>
</g>
<g>
</g>
<g>
</g>
<g>
</g>
<g>
</g>
<g>
</g>
<g>
</g>
<g>
</g>
<g>
</g>
<g>
</g>
<g>
</g>
<g>
</g>
<g>
</g>
<g>
</g>
<g>
</g>
</svg>
