<?xml version="1.0" encoding="iso-8859-1"?>
<!-- Generator: Adobe Illustrator 16.0.0, SVG Export Plug-In . SVG Version: 6.00 Build 0)  -->
<!DOCTYPE svg PUBLIC "-//W3C//DTD SVG 1.1//EN" "http://www.w3.org/Graphics/SVG/1.1/DTD/svg11.dtd">
<svg version="1.1" id="Capa_1" xmlns="http://www.w3.org/2000/svg" xmlns:xlink="http://www.w3.org/1999/xlink" x="0px" y="0px"
	 width="155.885px" height="155.885px" viewBox="0 0 155.885 155.885" style="enable-background:new 0 0 155.885 155.885;"
	 xml:space="preserve">
<g>
	<path d="M86.116,112.276c-4.07,0-6.753,1.535-8.366,2.984c-2.241-2.016-5.058-3.076-8.27-3.076
		c-10.97,0-23.894,12.289-24.436,12.807c-0.451,0.438-0.707,1.035-0.719,1.668c-0.006,0.627,0.238,1.23,0.688,1.681
		c9.758,9.761,20.462,14.711,31.804,14.711c19.409,0,33.512-14.413,34.096-15.028c0.444-0.462,0.688-1.102,0.651-1.741
		c-0.036-0.646-0.341-1.248-0.815-1.662C101.068,116.417,92.787,112.276,86.116,112.276z M75.901,120.167
		c0.469,0.664,1.23,1.09,2.083,0.975c0.812-0.067,1.546-0.555,1.909-1.285c0.012-0.036,1.589-2.923,6.236-2.923
		c3.327,0,9.015,1.559,17.722,8.147c-4.152,0.67-10.559,1.577-14.985,1.577c-1.218,0-2.63-0.219-4.195-0.451
		c-2.207-0.334-4.683-0.699-7.438-0.699c-2.884,0-5.432,0.511-7.484,0.913c-1.422,0.28-2.658,0.529-3.574,0.529
		c-5.958,0-11.14-0.896-14.383-1.613c4.256-3.41,11.621-8.495,17.701-8.495C72.206,116.855,74.306,117.939,75.901,120.167z
		 M55.125,130.745c3.105,0.486,6.877,0.889,11.037,0.889c1.385,0,2.901-0.305,4.497-0.627c3.878-0.779,9.246-0.792,13.311-0.177
		c1.82,0.274,3.477,0.512,4.89,0.512c3.495,0,7.971-0.499,11.825-1.042c-5.565,3.77-14.032,8.081-23.866,8.081
		C69.273,138.368,62.021,135.738,55.125,130.745z M148.558,48.541c0.889,0.941,0.84,2.418-0.092,3.298
		c-0.463,0.423-1.035,0.642-1.613,0.642c-0.621,0-1.236-0.244-1.687-0.731l-0.98-1.035c0.396,0.92,0.322,1.998-0.487,2.677
		c-0.438,0.362-0.962,0.536-1.485,0.536c-0.67,0-1.34-0.28-1.803-0.834l-0.743-0.88c0.792,1.005,0.634,2.463-0.384,3.249
		c-0.42,0.344-0.932,0.511-1.442,0.511c-0.688,0-1.37-0.298-1.827-0.886l-1.534-1.927c-3.653,1.564-7.538,2.152-11.289,2.152
		c-10.693,0-20.296-4.753-20.46-4.832c-1.15-0.581-1.613-1.985-1.023-3.133c0.585-1.15,1.998-1.62,3.13-1.035
		c0.244,0.113,24.271,11.953,35.75-3.945c0.755-1.048,2.21-1.273,3.264-0.524c0.792,0.587,0.95,1.559,0.706,2.463L148.558,48.541z
		 M125.564,34.225c-1.321,0.241-2.509-0.557-2.764-1.814c-0.256-1.267,0.56-2.503,1.826-2.765
		c4.457-0.922,13.677-0.292,16.751,8.574c0.427,1.224-0.219,2.551-1.425,2.975c-0.268,0.094-0.523,0.131-0.767,0.131
		c-0.969,0-1.876-0.597-2.211-1.565C134.442,32.484,125.899,34.155,125.564,34.225z M155.316,22.571
		c-0.847,0.971-2.32,1.09-3.294,0.237c-17.763-15.384-46.126,8.217-46.418,8.461c-0.433,0.368-0.975,0.548-1.51,0.548
		c-0.658,0-1.315-0.28-1.784-0.831c-0.834-0.978-0.707-2.454,0.28-3.291c1.297-1.078,31.736-26.399,52.494-8.418
		C156.053,20.125,156.156,21.596,155.316,22.571z M32.687,55.318c-3.742,0-7.621-0.581-11.274-2.152l-1.547,1.934
		c-0.463,0.581-1.142,0.88-1.821,0.88c-0.511,0-1.029-0.168-1.458-0.512c-0.999-0.798-1.166-2.25-0.374-3.261l-0.749,0.892
		c-0.463,0.554-1.124,0.834-1.796,0.834c-0.53,0-1.06-0.174-1.495-0.536c-0.813-0.679-0.88-1.751-0.493-2.67l-0.968,1.029
		c-0.454,0.487-1.071,0.731-1.696,0.731c-0.578,0-1.145-0.213-1.601-0.643c-0.935-0.88-0.978-2.356-0.095-3.297l3.979-4.223
		c-0.244-0.904-0.095-1.881,0.709-2.469c1.041-0.749,2.502-0.523,3.264,0.523c11.508,15.944,35.515,4.056,35.758,3.949
		c1.154-0.594,2.563-0.131,3.136,1.026c0.584,1.157,0.125,2.563-1.029,3.139C52.982,50.565,43.379,55.318,32.687,55.318z
		 M31.271,29.646c1.251,0.262,2.07,1.492,1.821,2.75c-0.262,1.249-1.467,2.064-2.749,1.821c-0.369-0.067-8.912-1.663-11.405,5.525
		c-0.338,0.965-1.242,1.571-2.207,1.571c-0.256,0-0.512-0.037-0.761-0.131c-1.221-0.417-1.87-1.745-1.44-2.969
		C17.589,29.354,26.799,28.717,31.271,29.646z M3.861,22.808c-0.974,0.858-2.445,0.733-3.294-0.237
		c-0.84-0.975-0.733-2.451,0.238-3.294c20.776-18.005,51.209,7.334,52.495,8.418c0.986,0.837,1.111,2.313,0.28,3.291
		c-0.459,0.545-1.12,0.831-1.787,0.831c-0.53,0-1.06-0.18-1.504-0.548C50.014,31.025,21.617,7.436,3.861,22.808z M59.498,99.891
		c-0.947-0.871-1.029-2.332-0.167-3.289c0.335-0.377,3.267-3.653,7.243-3.336c1.492,0.121,3.65,0.834,5.456,3.604
		c0.076,0,3.169,3.021,7.061,2.844c2.113-0.073,4.022-1.084,5.848-3.1c0.013-0.104,2.363-3.629,5.962-3.629
		c2.253,0,4.231,1.321,5.882,3.927c0.682,1.09,0.371,2.533-0.712,3.228c-1.078,0.694-2.533,0.384-3.222-0.718
		c-0.706-1.109-1.431-1.76-1.948-1.76c-0.755,0-1.852,1.126-2.259,1.76c-2.923,3.3-6.028,4.865-9.445,4.962
		c-0.106,0-0.207,0-0.313,0c-5.818,0-10.257-4.372-10.443-4.561c-0.929-1.327-1.571-1.839-2.226-1.888
		c-1.154-0.262-2.838,1.176-3.419,1.814C61.93,100.676,60.432,100.743,59.498,99.891z"/>
</g>
<g>
</g>
<g>
</g>
<g>
</g>
<g>
</g>
<g>
</g>
<g>
</g>
<g>
</g>
<g>
</g>
<g>
</g>
<g>
</g>
<g>
</g>
<g>
</g>
<g>
</g>
<g>
</g>
<g>
</g>
</svg>
