<?xml version="1.0" encoding="iso-8859-1"?>
<!-- Generator: Adobe Illustrator 16.0.0, SVG Export Plug-In . SVG Version: 6.00 Build 0)  -->
<!DOCTYPE svg PUBLIC "-//W3C//DTD SVG 1.1//EN" "http://www.w3.org/Graphics/SVG/1.1/DTD/svg11.dtd">
<svg version="1.1" id="Capa_1" xmlns="http://www.w3.org/2000/svg" xmlns:xlink="http://www.w3.org/1999/xlink" x="0px" y="0px"
	 width="177.517px" height="177.516px" viewBox="0 0 177.517 177.516" style="enable-background:new 0 0 177.517 177.516;"
	 xml:space="preserve">
<g>
	<path d="M153.108,119.797l0.335-0.889c7.459-19.613,24.935-65.526,1.363-92.93c-9.834-11.451-22.883-21.756-51.137-19.705
		c-4.798-2.101-28.281-11.38-51.033-2.487C37.786,9.589,26.523,21.856,19.198,40.2c-0.319,0.768-31.322,77.43,27.977,136.342
		c0.637,0.634,1.483,0.975,2.363,0.975c0.155,0,0.326-0.012,0.487-0.03c1.041-0.152,1.952-0.785,2.457-1.711
		c0.411-0.755,9.944-18.578,0.174-32.973c-7.706-11.345-14.571-24.515-6.716-49.347c1.684-5.31,6.704-17.707,10.763-26.351
		c3.504,6.604,11.861,15.195,31.806,20.036c9.883,2.387,19.888,0.749,29.125-2.646c-4.312,14.154-10.09,47.12,15.332,79.155
		c3.203,4.007,15.461,9.506,17.891,10.565c1.431,0.627,3.093,0.183,4.03-1.054c0.932-1.242,0.89-2.972-0.109-4.165
		C154.637,168.833,140.924,151.814,153.108,119.797z M146.83,117.411c-8.172,21.477-5.724,37.064-2.345,46.24
		c-3.068-1.662-5.51-3.227-6.259-4.164c-29.016-36.541-14.614-73.152-12.203-78.603c9.104-4.457,17.104-10.074,22.999-14.215
		l-1.925-2.743l-2.387-2.427c-11.983,8.412-34.275,24.077-54.626,19.123C61.037,73.578,60.891,58.887,60.9,58.309
		c0.055-1.528-0.919-2.901-2.378-3.349c-1.452-0.438-3.035,0.155-3.839,1.458c-4.177,6.841-12.732,27.404-15.141,35.016
		c-8.771,27.693-0.703,42.989,7.551,55.144c4.963,7.307,3.124,16.355,1.315,21.616C-2.915,113.039,25.09,43.494,25.394,42.739
		c6.622-16.581,16.593-27.571,29.624-32.687C61.217,7.62,67.546,6.755,73.48,6.755c15.348,0,27.949,5.873,28.138,5.952
		c0.536,0.256,1.114,0.35,1.699,0.313c25.848-2.04,37.601,7.103,46.399,17.327c20.958,24.375,4.476,67.674-2.558,86.167
		L146.83,117.411z"/>
</g>
<g>
</g>
<g>
</g>
<g>
</g>
<g>
</g>
<g>
</g>
<g>
</g>
<g>
</g>
<g>
</g>
<g>
</g>
<g>
</g>
<g>
</g>
<g>
</g>
<g>
</g>
<g>
</g>
<g>
</g>
</svg>
