<?xml version="1.0" encoding="iso-8859-1"?>
<!-- Generator: Adobe Illustrator 16.0.0, SVG Export Plug-In . SVG Version: 6.00 Build 0)  -->
<!DOCTYPE svg PUBLIC "-//W3C//DTD SVG 1.1//EN" "http://www.w3.org/Graphics/SVG/1.1/DTD/svg11.dtd">
<svg version="1.1" id="Capa_1" xmlns="http://www.w3.org/2000/svg" xmlns:xlink="http://www.w3.org/1999/xlink" x="0px" y="0px"
	 width="155.9px" height="155.9px" viewBox="0 0 155.9 155.9" style="enable-background:new 0 0 155.9 155.9;" xml:space="preserve"
	>
<g>
	<path d="M129.726,94.631c-16.13-31.493-3.429-43.988-2.795-44.554c0.481-0.438,0.749-1.011,0.907-1.599
		c4.135-5.118,6.717-11.548,6.717-18.624C134.555,13.393,121.17,0,104.7,0c-1.857,0-3.361,1.51-3.361,3.367
		c0,1.863,1.504,3.367,3.361,3.367c12.744,0,23.12,10.37,23.12,23.12c0,12.745-10.376,23.108-23.12,23.108
		c-12.745,0-23.111-10.363-23.111-23.108c0-1.857-1.51-3.367-3.374-3.367c-0.101,0-0.173,0.049-0.274,0.061
		c-0.101-0.012-0.174-0.061-0.274-0.061c-1.866,0-3.367,1.51-3.367,3.367c0,12.745-10.382,23.108-23.133,23.108
		c-12.738,0-23.102-10.363-23.102-23.108c0-12.75,10.364-23.12,23.102-23.12c1.863,0,3.368-1.504,3.368-3.367
		C54.534,1.51,53.03,0,51.167,0C34.711,0,21.33,13.393,21.33,29.854c0,7.101,2.594,13.542,6.741,18.664
		c0.161,0.572,0.429,1.126,0.898,1.559c0.56,0.518,13.375,12.979-2.795,44.554c-14.292,27.919-11.015,42.082-4.813,59.047
		c0.5,1.357,1.784,2.204,3.164,2.204c0.386,0,0.779-0.067,1.166-0.2c1.732-0.64,2.643-2.576,2-4.318
		c-3.118-8.536-5.267-16.1-4.628-25.209c7.179,3.289,26.862,10.961,53.837,10.961c10.129,0,21.303-1.12,33.219-3.934
		c0.055,0,0.098,0.049,0.152,0.049c0.481,0,0.95-0.177,1.419-0.39c6.82-1.687,13.901-3.995,21.153-6.917
		c0.694,9.219-1.449,16.842-4.603,25.452c-0.64,1.741,0.268,3.685,2.009,4.317c0.384,0.134,0.773,0.207,1.163,0.207
		c1.376,0,2.661-0.853,3.16-2.211C140.729,136.713,144.017,122.55,129.726,94.631z M118.461,123.828
		c0.706-2.307,0.87-4.152,0.877-4.311c0.121-1.852-1.291-3.435-3.148-3.544c-1.729-0.055-3.446,1.291-3.568,3.13
		c-0.006,0.061-0.396,4.828-3.355,7.295c-25.008,5.906-46.694,3.909-62.039,0.457c-3.492-2.247-3.937-7.588-3.949-7.74
		c-0.119-1.851-1.69-3.251-3.553-3.154c-1.86,0.11-3.273,1.693-3.163,3.557c0.006,0.17,0.164,2.24,1.017,4.786
		c-7.082-2.174-11.797-4.299-13.5-5.14c1.325-6.138,3.772-13.043,8.096-21.458c9.526-18.605,9.864-31.725,7.818-40.219
		c3.458,1.41,7.225,2.217,11.186,2.217c11.804,0,21.93-6.924,26.774-16.873c4.85,9.949,14.97,16.873,26.758,16.873
		c3.977,0,7.739-0.813,11.204-2.217c-2.04,8.494-1.698,21.613,7.825,40.226c4.286,8.385,6.734,15.24,8.067,21.366
		C127.266,120.942,122.833,122.489,118.461,123.828z M82.7,109.312c0,2.624-2.129,4.756-4.753,4.756s-4.759-2.132-4.759-4.756
		c0-2.631,2.135-4.75,4.759-4.75S82.7,106.693,82.7,109.312z M99.085,43.099c0-2.241,1.827-4.073,4.073-4.073
		c2.247,0,4.074,1.826,4.074,4.073c0,2.25-1.827,4.07-4.074,4.07C100.913,47.169,99.085,45.349,99.085,43.099z M52.726,39.025
		c2.25,0,4.077,1.826,4.077,4.073c0,2.25-1.827,4.07-4.077,4.07c-2.244,0-4.074-1.82-4.074-4.07
		C48.646,40.852,50.476,39.025,52.726,39.025z"/>
</g>
<g>
</g>
<g>
</g>
<g>
</g>
<g>
</g>
<g>
</g>
<g>
</g>
<g>
</g>
<g>
</g>
<g>
</g>
<g>
</g>
<g>
</g>
<g>
</g>
<g>
</g>
<g>
</g>
<g>
</g>
</svg>
