<?xml version="1.0" encoding="iso-8859-1"?>
<!-- Generator: Adobe Illustrator 16.0.0, SVG Export Plug-In . SVG Version: 6.00 Build 0)  -->
<!DOCTYPE svg PUBLIC "-//W3C//DTD SVG 1.1//EN" "http://www.w3.org/Graphics/SVG/1.1/DTD/svg11.dtd">
<svg version="1.1" id="Capa_1" xmlns="http://www.w3.org/2000/svg" xmlns:xlink="http://www.w3.org/1999/xlink" x="0px" y="0px"
	 width="170.649px" height="170.649px" viewBox="0 0 170.649 170.649" style="enable-background:new 0 0 170.649 170.649;"
	 xml:space="preserve">
<g>
	<g>
		<path d="M165.002,97.959l-0.853-1.912c-3.27-7.222-6.649-14.705-6.49-31.055v-34.23c0-1.72-1.401-3.118-3.118-3.118
			s-3.117,1.397-3.117,3.118v34.2c-0.183,17.695,3.653,26.177,7.039,33.655l0.846,1.875c5.572,12.562,6.583,22.578,2.93,28.996
			c-3.788,6.638-11.601,7.679-11.497,7.691H25.312c-15.208-0.433-19.147-9.286-19.074-14.45c0.037-2.935,1.248-4.804,2.058-4.804
			c7.669,0,21.032-1.455,27.41-2.723c19.592-3.836,57.859-24.076,68.582-43.083c3.233-5.712,4.494-18.91,3.86-40.347l-0.042-1.416
			c0-1.72-1.395-3.118-3.118-3.118c-1.717,0-3.117,1.397-3.117,3.118l0.042,1.595c0.768,26.208-1.589,34.486-3.057,37.095
			c-9.59,17.013-45.802,36.389-64.353,40.036c-6.104,1.188-18.882,2.594-26.208,2.594c-4.713,0-8.199,4.598-8.293,10.955
			c-0.137,9.669,7.663,20.276,25.215,20.775l125.865-0.018c0.451-0.055,11.064-1.291,16.515-10.748
			C172.401,124.35,171.531,112.683,165.002,97.959z"/>
		<path d="M115.083,110.491c2.984,0.445,5.742,0.67,8.288,0.67c8.165,0,14.084-2.313,17.67-6.904
			c7.594-9.756,1.06-25.633,0.78-26.306c-0.658-1.583-2.503-2.332-4.074-1.672c-1.595,0.661-2.338,2.497-1.675,4.08
			c1.522,3.632,4.513,14.325,0.049,20.049c-3.215,4.116-9.979,5.443-20.106,3.909c-1.692-0.28-3.288,0.913-3.544,2.605
			C112.209,108.64,113.385,110.235,115.083,110.491z"/>
	</g>
</g>
<g>
</g>
<g>
</g>
<g>
</g>
<g>
</g>
<g>
</g>
<g>
</g>
<g>
</g>
<g>
</g>
<g>
</g>
<g>
</g>
<g>
</g>
<g>
</g>
<g>
</g>
<g>
</g>
<g>
</g>
</svg>
