<?xml version="1.0" encoding="iso-8859-1"?>
<!-- Generator: Adobe Illustrator 16.0.0, SVG Export Plug-In . SVG Version: 6.00 Build 0)  -->
<!DOCTYPE svg PUBLIC "-//W3C//DTD SVG 1.1//EN" "http://www.w3.org/Graphics/SVG/1.1/DTD/svg11.dtd">
<svg version="1.1" id="Capa_1" xmlns="http://www.w3.org/2000/svg" xmlns:xlink="http://www.w3.org/1999/xlink" x="0px" y="0px"
	 width="199.908px" height="199.908px" viewBox="0 0 199.908 199.908" style="enable-background:new 0 0 199.908 199.908;"
	 xml:space="preserve">
<g>
	<g>
		<path d="M132.534,84.47l-0.024,0.067c-3.13-1.23-9.804-1.644-9.919-1.644c-7.106,0-12.857,5.236-14.678,13.359
			c-1.416,6.345-0.329,12.507,3.303,18.834l1.827,3.093c1.559,2.601,3.008,5.049,4.201,7.637c3.166,6.936,2.618,13.639-1.607,19.881
			c-1.151,1.687-2.862,3.13-4.677,4.652l-0.56,0.463c-1.222,1.028-2.5,1.979-3.791,2.953c-1.827,1.363-3.653,2.728-5.325,4.286
			c-5.2,4.823-7.956,11.503-8.443,20.381c-0.459,8.354,3.617,15.168,11.192,18.693c2.902,1.352,6.318,2.782,10.124,2.782
			c0.858,0,1.717-0.072,2.605-0.219c6.888-1.224,12.191-5.724,15.717-13.384c0.968-2.095,1.626-4.287,2.161-6.198
			c1.839-6.534,5.14-12.775,10.096-19.084l2.887-3.653c3.062-3.843,6.223-7.812,9.073-11.996c4.408-6.454,7.039-13.815,7.83-21.842
			c0.883-9.006-2.095-17.274-8.854-24.558C149.723,92.593,142.155,87.85,132.534,84.47z M151.538,141.861
			c-2.733,3.994-5.821,7.873-8.805,11.624l-2.923,3.689c-5.456,6.966-9.121,13.914-11.18,21.239
			c-0.475,1.675-1.035,3.593-1.814,5.273c-2.716,5.852-6.247,8.981-11.155,9.852c-3.154,0.555-6.145-0.748-9.006-2.076
			c-5.295-2.466-7.925-6.856-7.608-12.701c0.398-7.289,2.469-12.416,6.467-16.137c1.522-1.406,3.179-2.637,4.819-3.873
			c1.395-1.035,2.776-2.07,4.092-3.185l0.53-0.444c1.967-1.65,4.201-3.508,5.839-5.938c5.45-8.067,6.187-17.031,2.125-25.964
			c-1.327-2.904-2.965-5.608-4.53-8.232l-1.771-3.002c-2.862-4.987-3.696-9.56-2.625-14.376c1.176-5.316,4.391-8.471,8.635-8.471
			c2.106,0,6.284,0.804,7.508,1.127l0.311,0.109c8.659,3.039,15.418,7.252,20.648,12.866c5.571,6.011,7.922,12.44,7.197,19.692
			C157.621,129.908,155.343,136.283,151.538,141.861z"/>
		<path d="M131.614,74.04c5.42-4.92,7.965-16.216,5.2-23.035c-2.758-6.838-9.048-7.88-13.883-2.259
			c-0.755,0.871-1.455,1.796-2.059,2.795c-0.712,1.175-1.291,2.46-1.681,3.203c-1.888,5.389-2.453,10.291-1.011,15.26
			C120.234,77.084,126.274,78.886,131.614,74.04z"/>
		<path d="M148.968,81.414c1.894-1.364,3.349-3.416,4.348-6.126c1.212-3.124,1.596-6.345,0.725-9.578
			c-1.303-4.969-5.486-6.455-9.365-3.404c-4.354,3.446-6.388,11.271-4.293,16.496C141.984,82.808,145.54,83.879,148.968,81.414z"/>
		<path d="M161.567,90.632c4.019-2.351,6.539-9.066,5.097-13.646c-0.993-3.179-3.666-4.317-6.461-2.729
			c-2.32,1.31-3.678,3.501-4.756,5.979c-0.815,2.479-1.254,5.012-0.523,7.594C155.891,91.18,158.656,92.355,161.567,90.632z"/>
		<path d="M173.751,94.359c0.146-1.327,0.48-2.667,0.401-3.977c-0.158-2.861-2.271-4.268-4.841-3.446
			c-3.416,1.103-6.363,5.907-5.925,9.682c0.348,2.783,2.302,4.214,4.811,3.374C170.829,99.115,172.454,97.001,173.751,94.359z"/>
		<path d="M176.424,101.861c-0.694-2.283-2.734-3.154-4.555-1.735c-1.108,0.871-1.937,2.161-2.983,3.355
			c-0.062,1.711-0.335,3.361-0.086,4.89c0.451,2.562,2.595,3.36,4.677,1.979C175.864,108.753,177.283,104.674,176.424,101.861z"/>
		<path d="M107.078,133.305c-0.487-8.878-3.248-15.54-8.448-20.38c-1.69-1.56-3.517-2.947-5.344-4.306
			c-1.278-0.944-2.557-1.899-3.778-2.941l-0.529-0.432c-1.83-1.528-3.556-2.978-4.716-4.671c-4.226-6.26-4.762-12.945-1.607-19.875
			c1.184-2.594,2.655-5.054,4.202-7.654l1.827-3.093c3.641-6.339,4.722-12.501,3.312-18.834C90.18,43.015,84.411,37.76,77.287,37.76
			c-0.076,0-6.741,0.402-9.864,1.656l-0.04-0.073c-9.621,3.386-17.196,8.135-23.139,14.522c-6.759,7.277-9.739,15.534-8.854,24.546
			c0.792,8.043,3.422,15.393,7.831,21.842c2.85,4.189,6.013,8.159,9.073,12.002l2.887,3.653c4.959,6.302,8.257,12.55,10.096,19.095
			c0.536,1.9,1.178,4.093,2.159,6.199c3.528,7.643,8.829,12.13,15.731,13.372c0.88,0.158,1.732,0.226,2.594,0.226
			c3.803,0,7.219-1.438,10.12-2.789C103.455,148.479,107.532,141.654,107.078,133.305z M84.237,148.418
			c-4.908-0.877-8.449-4.007-11.155-9.853c-0.779-1.681-1.352-3.586-1.814-5.273c-2.07-7.337-5.736-14.285-11.192-21.238
			l-2.923-3.69c-2.987-3.751-6.08-7.63-8.793-11.63c-3.802-5.572-6.092-11.947-6.771-18.925c-0.706-7.246,1.644-13.688,7.201-19.68
			c5.246-5.639,12.005-9.858,20.651-12.891l0.28-0.098c1.218-0.311,5.444-1.139,7.578-1.139c4.202,0,7.414,3.179,8.598,8.47
			c1.071,4.823,0.237,9.389-2.625,14.382L81.5,69.856c-1.565,2.625-3.194,5.34-4.534,8.251c-4.052,8.908-3.325,17.89,2.119,25.964
			c1.653,2.418,3.885,4.287,5.87,5.949l0.49,0.408c1.324,1.114,2.7,2.144,4.074,3.173c1.671,1.235,3.321,2.472,4.832,3.879
			c4.022,3.744,6.08,8.859,6.479,16.148c0.316,5.852-2.314,10.248-7.608,12.701C90.384,147.669,87.355,148.991,84.237,148.418z"/>
		<path d="M81.708,24.881c1.434-4.969,0.877-9.87-1.011-15.265c-0.387-0.743-0.956-2.022-1.672-3.191
			c-0.612-1.011-1.315-1.948-2.07-2.813c-4.819-5.608-11.106-4.561-13.88,2.271c-2.768,6.826-0.219,18.109,5.2,23.029
			C73.63,33.759,79.667,31.958,81.708,24.881z"/>
		<path d="M50.936,36.305c3.434,2.466,6.981,1.382,8.585-2.612c2.095-5.237,0.061-13.067-4.296-16.502
			c-3.879-3.038-8.062-1.571-9.365,3.398c-0.868,3.251-0.487,6.46,0.728,9.584C47.587,32.889,49.039,34.947,50.936,36.305z"/>
		<path d="M38.334,45.512c2.917,1.723,5.678,0.548,6.64-2.813c0.722-2.576,0.292-5.091-0.536-7.587
			c-1.075-2.472-2.433-4.676-4.753-5.986c-2.786-1.583-5.468-0.432-6.46,2.747C31.797,36.439,34.337,43.162,38.334,45.512z"/>
		<path d="M30.589,41.828c-2.57-0.822-4.683,0.585-4.838,3.446c-0.082,1.31,0.256,2.661,0.399,3.989
			c1.297,2.636,2.923,4.737,5.557,5.614c2.505,0.859,4.481-0.584,4.807-3.373C36.949,47.747,34.005,42.917,30.589,41.828z"/>
		<path d="M28.043,55.011c-1.833-1.431-3.863-0.548-4.558,1.729c-0.865,2.813,0.563,6.887,2.957,8.488
			c2.083,1.383,4.235,0.579,4.676-1.973c0.25-1.528-0.024-3.19-0.073-4.883C29.971,57.154,29.155,55.863,28.043,55.011z"/>
	</g>
</g>
<g>
</g>
<g>
</g>
<g>
</g>
<g>
</g>
<g>
</g>
<g>
</g>
<g>
</g>
<g>
</g>
<g>
</g>
<g>
</g>
<g>
</g>
<g>
</g>
<g>
</g>
<g>
</g>
<g>
</g>
</svg>
