<?xml version="1.0" encoding="iso-8859-1"?>
<!-- Generator: Adobe Illustrator 16.0.0, SVG Export Plug-In . SVG Version: 6.00 Build 0)  -->
<!DOCTYPE svg PUBLIC "-//W3C//DTD SVG 1.1//EN" "http://www.w3.org/Graphics/SVG/1.1/DTD/svg11.dtd">
<svg version="1.1" id="Capa_1" xmlns="http://www.w3.org/2000/svg" xmlns:xlink="http://www.w3.org/1999/xlink" x="0px" y="0px"
	 width="187.064px" height="187.064px" viewBox="0 0 187.064 187.064" style="enable-background:new 0 0 187.064 187.064;"
	 xml:space="preserve">
<g>
	<path d="M107.911,47.483c0,0.792-0.676,1.425-1.51,1.425c-0.841,0-1.514-0.64-1.514-1.425c0-0.8,0.673-1.443,1.514-1.443
		C107.229,46.04,107.911,46.683,107.911,47.483z M80.666,46.04c-0.85,0-1.51,0.648-1.51,1.443c0,0.792,0.661,1.425,1.51,1.425
		c0.828,0,1.51-0.64,1.51-1.425C82.176,46.683,81.487,46.04,80.666,46.04z M83.677,63.476v11.359c0,0.554,0.444,1.004,1.004,1.004
		c0.548,0,0.999-0.45,0.999-1.004V63.476c0-4.323,3.504-7.839,7.837-7.839s7.843,3.516,7.843,7.839v11.789
		c0,0.558,0.45,1.005,1.005,1.005c0.554,0,1.005-0.447,1.005-1.005V63.476c0-5.431-4.421-9.846-9.853-9.846
		C88.091,53.63,83.677,58.045,83.677,63.476z M98.491,68.932c-0.006,0.006-0.91,0.883-2.076,0.883h-0.006
		c-0.648,0-1.273-0.292-1.888-0.846V66.84c0.603,0.283,1.227,0.432,1.881,0.432c0.006,0,0.006,0,0.006,0
		c2.021,0,3.449-1.416,3.504-1.479c0.387-0.384,0.387-1.014,0-1.406C99.521,64,98.89,63.994,98.485,64.38
		c-0.012,0.006-0.971,0.971-2.101,0.889c-0.643-0.006-1.267-0.299-1.875-0.847v-1.595c0.603,0.286,1.221,0.429,1.881,0.435
		c0.006,0,0.006,0,0.006,0c2.022,0,3.456-1.415,3.505-1.477c0.387-0.387,0.387-1.017,0-1.409c-0.387-0.387-1.023-0.393-1.422-0.006
		c-0.013,0.006-0.965,0.892-2.101,0.886c-0.648-0.006-1.267-0.302-1.878-0.844v-1.771c0-0.555-0.441-1.002-1.002-1.002
		c-0.548,0-0.998,0.447-0.998,1.002v1.771c-0.612,0.542-1.233,0.837-1.87,0.844c-0.006,0-0.018,0-0.018,0
		c-1.166,0-2.064-0.862-2.083-0.886c-0.386-0.386-1.022-0.386-1.421,0c-0.387,0.393-0.393,1.029-0.015,1.422
		c0.063,0.061,1.492,1.477,3.504,1.477h0.021c0.648,0,1.27-0.149,1.875-0.435v1.595c-0.612,0.542-1.233,0.834-1.87,0.846
		c-1.206-0.055-2.082-0.864-2.104-0.889c-0.387-0.387-1.02-0.387-1.419,0c-0.387,0.393-0.396,1.029-0.015,1.418
		c0.064,0.064,1.492,1.48,3.504,1.48h0.021c0.648,0,1.27-0.149,1.875-0.43v2.125c-0.605,0.542-1.236,0.844-1.869,0.85
		c-1.206,0.037-2.076-0.868-2.104-0.886c-0.387-0.387-1.021-0.393-1.422-0.006c-0.387,0.386-0.393,1.029-0.013,1.421
		c0.064,0.061,1.492,1.477,3.505,1.477h0.018c0.648,0,1.272-0.149,1.878-0.436v0.387c0,0.554,0.447,1.001,0.999,1.001
		c0.56,0,1.001-0.448,1.001-1.001v-0.387c0.606,0.286,1.23,0.429,1.885,0.436c0.006,0,0.006,0,0.006,0
		c2.019,0,3.446-1.422,3.504-1.477c0.387-0.396,0.387-1.029-0.013-1.421C99.521,68.533,98.878,68.539,98.491,68.932z M93.529,74.312
		c-0.673,0-1.208,0.542-1.208,1.209s0.536,1.218,1.208,1.218c0.661,0,1.197-0.545,1.197-1.218S94.189,74.312,93.529,74.312z
		 M62.364,41.951c-6.734,5.051-12.62-0.85-12.863-1.105c-0.387-0.393-1.023-0.398-1.428-0.018c-0.387,0.386-0.399,1.017-0.024,1.416
		c0.055,0.058,3.702,3.748,8.717,3.748c2.083,0,4.408-0.637,6.795-2.433c0.438-0.335,0.536-0.959,0.207-1.41
		C63.436,41.708,62.8,41.619,62.364,41.951z M73.413,33.222c-2.07-0.231-3.778,0.231-5.063,1.364
		c-2.183,1.928-2.238,5.075-2.238,5.207c0,0.554,0.436,1.011,0.999,1.017h0.012c0.548,0,0.983-0.441,0.99-0.993
		c0-0.024,0.082-2.411,1.565-3.727c0.843-0.742,2.021-1.035,3.504-0.874c0.524,0.052,1.047-0.338,1.118-0.886
		C74.366,33.776,73.961,33.277,73.413,33.222z M44.718,41.625c-1.172-0.298-2.412-0.752-2.987-1.065
		c0.101-0.298,0.244-0.643,0.463-0.834c0.405-0.369,0.441-1.005,0.085-1.416c-0.377-0.411-1.001-0.45-1.428-0.076
		c-1.008,0.904-1.203,2.427-1.227,2.594c-0.024,0.25,0.037,0.5,0.18,0.707c0.73,1.017,3.331,1.769,4.415,2.043
		c0.094,0.021,0.165,0.033,0.25,0.033c0.445,0,0.856-0.302,0.975-0.755C45.58,42.313,45.254,41.766,44.718,41.625z M137.565,40.846
		c-0.243,0.256-6.107,6.175-12.866,1.105c-0.438-0.332-1.071-0.244-1.406,0.198c-0.329,0.445-0.244,1.075,0.194,1.41
		c2.399,1.796,4.713,2.433,6.796,2.433c5.029,0,8.677-3.69,8.713-3.748c0.39-0.398,0.384-1.035-0.024-1.422
		C138.589,40.435,137.943,40.447,137.565,40.846z M113.635,33.222c-0.548,0.061-0.943,0.554-0.895,1.108
		c0.061,0.548,0.554,0.944,1.108,0.886c1.491-0.162,2.673,0.125,3.507,0.868c1.511,1.321,1.571,3.715,1.571,3.739
		c0.006,0.545,0.45,0.987,0.998,0.987h0.013c0.561-0.006,0.999-0.463,0.986-1.017c0-0.131-0.067-3.285-2.234-5.207
		C117.41,33.454,115.705,32.991,113.635,33.222z M142.583,43.604c0.085,0,0.164-0.006,0.25-0.034
		c1.077-0.274,3.672-1.026,4.408-2.043c0.146-0.207,0.219-0.457,0.183-0.707c-0.024-0.167-0.219-1.689-1.224-2.594
		c-0.414-0.368-1.048-0.335-1.419,0.076c-0.378,0.411-0.347,1.047,0.073,1.416c0.219,0.198,0.371,0.536,0.463,0.828
		c-0.591,0.326-1.803,0.773-2.99,1.072c-0.536,0.137-0.858,0.682-0.725,1.218C141.725,43.297,142.133,43.604,142.583,43.604z
		 M150.444,41.51c0.036,0.304-0.079,0.608-0.299,0.828c-0.311,0.298-7.685,7.331-18.389,8.263c-2.74,0.234-5.262,0.354-7.532,0.354
		c-3.587,0-6.583-0.311-9.073-0.911c-0.036,0.088-0.073,0.167-0.128,0.25c0.384,1.215,0.591,2.476,0.591,3.767
		c0,3.479-1.431,6.759-3.994,9.109c0.742,1.985,1.139,4.177,1.139,6.394c0,3.888-1.194,7.605-3.289,10.312
		c1.656,2.536,16.039,25.955,3.502,47.396c1.899,2.344,5.419,10.625-1.79,37.436l1.534,1.383c0.194,0.188,0.329,0.444,0.335,0.725
		l0.098,4.664l9.755,8.981c0.207,0.194,0.328,0.463,0.328,0.743v4.859c0,0.56-0.438,1.004-0.998,1.004h-13.104
		c-0.219,0-0.414-0.066-0.603-0.201l-7.995-6.021c-0.243-0.177-0.387-0.457-0.393-0.762l-0.582-12.744
		c-0.018-0.408,0.213-0.792,0.593-0.956l1.048-0.476c0-0.023-0.013-0.061-0.013-0.097c0.454-4.908-1.267-11.174-2.094-12.769
		c-6.835-13.11-2.122-23.986-1.373-25.539c-0.012-0.018-0.037-0.029-0.042-0.055c-0.144-0.56-2.762-10.278-4.092-17.572
		c-1.328,7.288-3.946,17.013-4.089,17.572c-0.024,0.08-0.076,0.129-0.113,0.207c0.911,1.967,5.225,12.611-1.428,25.38
		c-0.84,1.596-2.558,7.861-2.095,12.763c0,0.049-0.012,0.073-0.012,0.109l1.035,0.463c0.387,0.165,0.618,0.549,0.597,0.957
		l-0.573,12.744c-0.012,0.299-0.155,0.584-0.393,0.761l-8.001,6.022c-0.18,0.146-0.387,0.213-0.603,0.213H64.803
		c-0.548,0-0.999-0.45-0.999-1.004v-4.859c0-0.28,0.125-0.549,0.332-0.743l9.764-8.976l0.113-4.67
		c0.006-0.274,0.131-0.536,0.334-0.725l1.535-1.383c-7.307-27.176-3.583-35.316-1.708-37.539
		c-11.822-20.344,0.536-42.43,3.224-46.768c-2.369-2.731-3.735-6.64-3.735-10.835c0-2.217,0.387-4.415,1.142-6.394
		c-2.539-2.345-3.992-5.63-3.992-9.109c0-1.297,0.195-2.558,0.594-3.767c-0.024-0.03-0.045-0.067-0.058-0.101
		c-2.375,0.512-5.188,0.768-8.503,0.768c-2.277,0-4.795-0.119-7.539-0.354c-10.702-0.925-18.076-7.964-18.389-8.263
		c-0.216-0.219-0.335-0.518-0.298-0.828c1.078-10.022,12.458-22.685,12.93-23.215c1.729-1.355,5.782-0.697,6.978-0.463
		c0.162,0.033,0.338,0.113,0.463,0.226c2.643,2.289,2.305,5.145,2.292,5.264c-0.03,0.229-0.137,0.448-0.311,0.603l-2.262,2.113
		c-0.183,0.177-0.427,0.268-0.682,0.268h-3.791c-2.025,3.538-2.856,6.168-3.154,8.007c1.857-1.428,4.271-2.231,6.802-2.231
		c3.306,0,6.323,1.346,8.238,3.559c1.27-3.495,4.631-5.979,8.516-5.979c2.208,0,4.336,0.813,5.992,2.208
		c0.018-0.006,0.018-0.024,0.033-0.037c1.09-1.142,2.332-2.131,3.696-2.938c0.947-0.554,1.945-1.02,3.005-1.388v-3.124
		c-2.095-2.408-3.422-6.89-3.422-11.594C81.944,5.736,87.007,0,93.218,0c6.214,0,11.277,5.736,11.277,12.793
		c0,4.628-1.363,9.21-3.422,11.594v3.124c1.047,0.365,2.059,0.828,2.999,1.388c1.354,0.792,2.597,1.784,3.711,2.938
		c0.122,0.125,0.177,0.274,0.226,0.429c1.699-1.644,4.025-2.6,6.418-2.6c3.897,0,7.258,2.484,8.531,5.979
		c1.93-2.213,4.926-3.559,8.227-3.559c2.539,0,4.944,0.804,6.808,2.231c-0.299-1.839-1.133-4.476-3.154-8.007h-3.8
		c-0.244,0-0.499-0.091-0.676-0.268l-2.266-2.113c-0.158-0.162-0.28-0.375-0.311-0.609c-0.012-0.122-0.341-2.975,2.29-5.264
		c0.128-0.113,0.286-0.186,0.45-0.225c1.413-0.311,6.126-1.221,7.733,0.024c0.061,0.045,0.122,0.101,0.164,0.158
		C138.868,18.562,149.372,31.511,150.444,41.51z M79.244,81.195c-0.685,1.105-2.558,4.223-4.314,8.61
		c2.956,1.285,14.285,6.427,18.66,11.64c4.372-5.213,15.722-10.361,18.663-11.64c-1.76-4.387-3.629-7.505-4.317-8.61H79.244z
		 M85.448,167.927l-6.771-3.045l-2.682,2.411l-0.106,4.664c-0.006,0.274-0.131,0.53-0.323,0.719l-9.752,8.97v3.428h11.752
		l7.365-5.547L85.448,167.927z M92.345,103.284c-0.013-0.049,0.012-0.098,0.012-0.14C88.764,98.303,77.268,93.03,74.211,91.69
		c-3.273,9.024-5.575,22.347,1.915,34.854c0.088,0.072,0.155,0.134,0.219,0.237c0.286,0.463,0.143,1.065-0.32,1.364
		c-0.155,0.127-6.32,5.242,1.535,35.043l0.255-0.238c0.305-0.268,0.731-0.334,1.096-0.164l4.92,2.204
		c-0.198-5.017,1.385-11.021,2.35-12.872c6.735-12.909,1.331-23.778,1.279-23.882c-0.18-0.359-0.131-0.755,0.088-1.048
		c0-0.091-0.006-0.176,0.018-0.268C87.604,126.733,92.618,108.082,92.345,103.284z M111.468,172.651
		c-0.183-0.177-0.317-0.433-0.323-0.706l-0.109-4.664l-2.68-2.412l-6.771,3.045l0.523,11.594l7.368,5.535h11.752v-3.416
		L111.468,172.651z M112.972,91.69c-3.063,1.339-14.553,6.625-18.146,11.454c0,0.048,0.024,0.104,0.018,0.14
		c-0.298,4.798,4.729,23.443,4.783,23.626c0.049,0.158,0.037,0.328,0,0.475c0.113,0.256,0.125,0.561-0.024,0.828
		c-0.058,0.115-5.456,10.984,1.272,23.882c0.966,1.863,2.549,7.867,2.356,12.885l4.917-2.204c0.372-0.165,0.798-0.109,1.091,0.158
		l0.268,0.237c7.916-30.05,1.583-34.994,1.522-35.05c-0.438-0.311-0.579-0.919-0.274-1.382c0.092-0.14,0.22-0.249,0.371-0.329
		C118.519,113.952,116.241,100.678,112.972,91.69z M148.386,41.22c-1.236-8.872-10.412-20.544-11.429-21.824
		c-0.646-0.329-3.252-0.173-5.761,0.344c-1.193,1.154-1.419,2.417-1.438,3.005l1.675,1.559h3.982c0.365,0,0.688,0.186,0.877,0.493
		c3.58,6.062,4.037,9.959,3.812,12.157c-0.049,0.414-0.341,0.755-0.73,0.861c-0.408,0.113-0.828-0.036-1.071-0.375
		c-1.547-2.101-4.214-3.361-7.112-3.361c-3.478,0-6.54,1.784-7.801,4.545c-0.188,0.417-0.646,0.643-1.096,0.569
		c-0.45-0.082-0.792-0.462-0.816-0.922c-0.243-3.706-3.33-6.61-7.051-6.61c-2.21,0-4.317,1.023-5.675,2.731
		c-0.354,0.436-0.969,0.511-1.413,0.167c-0.322-0.255-0.438-0.667-0.347-1.041c-0.25-0.012-0.493-0.112-0.683-0.305
		c-0.968-1.017-2.07-1.891-3.261-2.594c-1.022-0.594-2.118-1.081-3.279-1.428c-0.417-0.131-0.709-0.518-0.709-0.962v-4.238
		c0-0.262,0.11-0.512,0.292-0.7c1.815-1.869,3.142-6.284,3.142-10.507C102.495,6.841,98.33,2,93.225,2
		c-5.109,0-9.262,4.841-9.262,10.787c0,4.348,1.26,8.573,3.139,10.507c0.18,0.188,0.286,0.438,0.286,0.7v4.238
		c0,0.444-0.295,0.831-0.706,0.962c-1.166,0.353-2.262,0.834-3.285,1.428c-1.19,0.709-2.302,1.583-3.261,2.594
		c-0.043,0.037-0.095,0.062-0.131,0.092c0.219,0.42,0.131,0.943-0.244,1.254c-0.436,0.338-1.066,0.262-1.416-0.167
		c-1.352-1.708-3.48-2.731-5.675-2.731c-3.714,0-6.808,2.905-7.051,6.61c-0.024,0.459-0.368,0.84-0.822,0.922
		c-0.469,0.073-0.904-0.158-1.093-0.569c-1.227-2.719-4.369-4.545-7.8-4.545c-2.904,0-5.559,1.26-7.094,3.361
		c-0.25,0.332-0.673,0.481-1.075,0.375c-0.399-0.106-0.691-0.447-0.734-0.861c-0.237-2.192,0.225-6.083,3.815-12.157
		c0.167-0.308,0.499-0.493,0.861-0.493h3.982l1.678-1.559c-0.024-0.579-0.229-1.845-1.428-2.993
		c-1.988-0.35-4.388-0.436-4.963,0.006c0.012,0.006-10.899,12.154-12.239,21.461c1.571,1.374,8.111,6.622,16.791,7.377
		c7.039,0.611,12.34,0.423,16.206-0.548c-0.822-1.26-1.278-2.688-1.278-4.208c0-0.558,0.444-1.005,0.999-1.005
		s1.004,0.447,1.004,1.005c0,3.839,3.995,6.957,8.909,6.957c4.908,0,8.905-3.118,8.905-6.957v-4.11c0-0.554,0.448-1.005,0.996-1.005
		c0.557,0,1.005,0.451,1.005,1.005v4.11c0,4.944-4.89,8.963-10.906,8.963c-3.011,0-5.742-1.008-7.712-2.63
		c-0.5,1.236-0.767,2.54-0.767,3.885c0,3.124,1.391,6.062,3.809,8.05c0.344,0.28,0.463,0.761,0.286,1.172
		c-0.816,1.909-1.233,4.083-1.233,6.287c0,3.778,1.203,7.255,3.315,9.633h28.515c0.037-0.07,0.062-0.137,0.116-0.201
		c1.985-2.375,3.142-5.812,3.142-9.432c0-2.21-0.438-4.378-1.242-6.287c-0.177-0.411-0.061-0.886,0.28-1.172
		c2.424-1.988,3.812-4.926,3.812-8.05c0-1.203-0.243-2.369-0.651-3.499c-1.924,1.391-4.445,2.244-7.191,2.244
		c-6.022,0-10.908-4.019-10.908-8.963v-4.11c0-0.554,0.447-1.005,1.001-1.005c0.557,0,0.999,0.451,0.999,1.005v4.11
		c0,3.839,3.997,6.957,8.908,6.957c4.908,0,8.915-3.118,8.915-6.957c0-0.558,0.444-1.005,0.998-1.005
		c0.549,0,0.999,0.447,0.999,1.005c0,1.519-0.463,2.953-1.278,4.208c3.854,0.977,9.17,1.166,16.196,0.548
		C140.281,47.842,146.815,42.594,148.386,41.22z M77.59,102.353c0.088-0.548-0.292-1.054-0.84-1.139
		c-0.548-0.073-1.06,0.304-1.147,0.853c-0.083,0.566-1.939,14.005,3.766,22.006c0.192,0.28,0.5,0.42,0.816,0.42
		c0.207,0,0.398-0.061,0.587-0.188c0.448-0.316,0.554-0.938,0.237-1.395C75.776,115.56,77.578,102.492,77.59,102.353z
		 M111.564,102.066c-0.085-0.549-0.608-0.914-1.145-0.853c-0.548,0.085-0.913,0.591-0.847,1.139
		c0.019,0.128,1.827,13.201-3.409,20.563c-0.317,0.45-0.214,1.071,0.231,1.4c0.17,0.127,0.383,0.182,0.59,0.182
		c0.311,0,0.615-0.133,0.816-0.414C113.495,116.059,111.644,102.627,111.564,102.066z M78.071,179.295
		c0.186,0.195,0.441,0.292,0.697,0.292c0.262,0,0.518-0.097,0.712-0.292l3.422-3.41c0.183-0.188,0.292-0.444,0.292-0.712v-4.987
		c0-0.548-0.447-1.005-0.996-1.005c-0.563,0-0.999,0.45-0.999,1.005v4.561l-3.13,3.118
		C77.679,178.266,77.679,178.887,78.071,179.295z M83.451,131.666c-0.536,0.127-0.858,0.676-0.715,1.211
		c0.024,0.092,1.982,7.929-0.56,15.783c-0.171,0.523,0.125,1.096,0.648,1.267c0.104,0.03,0.198,0.043,0.304,0.043
		c0.417,0,0.822-0.269,0.953-0.688c2.725-8.409,0.682-16.557,0.6-16.903C84.538,131.854,83.99,131.525,83.451,131.666z
		 M105.854,174.746v-4.561c0-0.548-0.438-1.005-1.002-1.005c-0.548,0-0.999,0.45-0.999,1.005v4.987c0,0.268,0.113,0.523,0.296,0.712
		l3.422,3.41c0.195,0.195,0.45,0.292,0.713,0.292c0.255,0,0.511-0.097,0.7-0.292c0.383-0.384,0.383-1.029,0-1.431L105.854,174.746z
		 M104.31,132.89c0.131-0.536-0.18-1.084-0.719-1.218c-0.548-0.141-1.084,0.183-1.221,0.719c-0.094,0.347-2.125,8.488,0.605,16.903
		c0.132,0.414,0.524,0.682,0.947,0.682c0.101,0,0.201-0.013,0.305-0.042c0.536-0.165,0.818-0.737,0.648-1.268
		C102.334,140.83,104.304,132.969,104.31,132.89z"/>
</g>
<g>
</g>
<g>
</g>
<g>
</g>
<g>
</g>
<g>
</g>
<g>
</g>
<g>
</g>
<g>
</g>
<g>
</g>
<g>
</g>
<g>
</g>
<g>
</g>
<g>
</g>
<g>
</g>
<g>
</g>
</svg>
