<?xml version="1.0" encoding="iso-8859-1"?>
<!-- Generator: Adobe Illustrator 16.0.0, SVG Export Plug-In . SVG Version: 6.00 Build 0)  -->
<!DOCTYPE svg PUBLIC "-//W3C//DTD SVG 1.1//EN" "http://www.w3.org/Graphics/SVG/1.1/DTD/svg11.dtd">
<svg version="1.1" id="Capa_1" xmlns="http://www.w3.org/2000/svg" xmlns:xlink="http://www.w3.org/1999/xlink" x="0px" y="0px"
	 width="168.438px" height="168.438px" viewBox="0 0 168.438 168.438" style="enable-background:new 0 0 168.438 168.438;"
	 xml:space="preserve">
<g>
	<g>
		<path d="M41.738,53.597c1.958,1.284,4.29,1.872,6.485,2.807l6.08,1.814c7.824,2.345,15.144,5.505,19.473,9.944
			c2.18,2.208,3.41,4.652,4.238,7.06c0.381,1.228,0.469,2.549,0.755,3.703c0,1.26,0,2.469,0.019,3.632
			c-9.198,4.883-16.493,17.926-17.759,33.893c-1.69,20.91,7.572,38.696,20.66,39.756c13.104,1.035,25.075-15.047,26.756-35.944
			c1.389-17.312-4.786-32.353-14.37-37.638l-0.013-0.279c-0.298-1.934-0.603-3.979-0.907-6.05c-0.676-2.101-1.278-4.271-2.265-6.379
			c-2.083-4.195-5.143-8.211-9.046-11.118c-7.8-5.892-17.034-7.992-25.504-9.39l-6.208-0.986c-1.711-0.536-3.586-0.646-5.24-1.483
			c-3.434-1.254-6.576-3.361-9.389-5.742c-5.642-4.807-9.639-10.988-12.626-16.392c-5.913-11.006-7.901-19.336-7.901-19.336
			s0.816,8.461,5.325,20.508c2.344,5.946,5.532,12.955,11.167,19.278C34.275,48.372,37.627,51.396,41.738,53.597z"/>
		<path d="M150.344,74.293h-47.854c-1.327,0-2.497,0.834-2.947,2.077c-0.438,1.245-0.049,2.636,0.968,3.464
			c9.768,7.898,15.205,23.937,13.854,40.901c-1.906,23.638-15.448,41.461-31.49,41.461c-0.545,0-1.093-0.012-1.666-0.061
			c-16.629-1.358-28.104-21.647-26.12-46.175c1.179-14.863,7.258-28.149,16.261-35.533c0.999-0.825,1.392-2.177,0.978-3.398
			c-0.728-2.183-0.728-2.183-43.404-2.302h-0.006c-1.714,0-3.112,1.392-3.118,3.112c-0.006,1.714,1.391,3.118,3.111,3.124
			c10.464,0.031,24.542,0.083,33.003,0.119c-7.231,8.695-11.983,21.007-13.043,34.392c-2.265,28.016,11.715,51.258,31.825,52.878
			c0.728,0.062,1.458,0.085,2.177,0.085c19.336,0,35.539-20.295,37.701-47.19c1.278-15.923-2.729-30.793-10.656-40.7h40.426
			c1.711,0,3.118-1.397,3.118-3.117C153.462,75.7,152.079,74.293,150.344,74.293z"/>
		<path d="M78.032,43.123c2.807,3.386,6.162,6.658,10.263,9.045c1.942,1.391,4.293,2.022,6.479,3.039l6.083,1.964
			c7.83,2.536,15.149,5.967,19.473,10.781c0.804,0.886,1.376,1.833,1.949,2.773h15.49l-0.316-0.886
			c-2.095-4.545-5.151-8.902-9.061-12.053c-7.794-6.384-17.025-8.665-25.489-10.175l-6.224-1.066
			c-1.692-0.584-3.58-0.706-5.224-1.613c-3.44-1.361-6.583-3.642-9.396-6.223c-5.648-5.212-9.639-11.898-12.632-17.765
			C63.519,9.021,61.533,0,61.533,0s0.819,9.17,5.319,22.222C69.209,28.674,72.396,36.27,78.032,43.123z"/>
	</g>
</g>
<g>
</g>
<g>
</g>
<g>
</g>
<g>
</g>
<g>
</g>
<g>
</g>
<g>
</g>
<g>
</g>
<g>
</g>
<g>
</g>
<g>
</g>
<g>
</g>
<g>
</g>
<g>
</g>
<g>
</g>
</svg>
