<?xml version="1.0" encoding="iso-8859-1"?>
<!-- Generator: Adobe Illustrator 16.0.0, SVG Export Plug-In . SVG Version: 6.00 Build 0)  -->
<!DOCTYPE svg PUBLIC "-//W3C//DTD SVG 1.1//EN" "http://www.w3.org/Graphics/SVG/1.1/DTD/svg11.dtd">
<svg version="1.1" id="Capa_1" xmlns="http://www.w3.org/2000/svg" xmlns:xlink="http://www.w3.org/1999/xlink" x="0px" y="0px"
	 width="157.026px" height="157.026px" viewBox="0 0 157.026 157.026" style="enable-background:new 0 0 157.026 157.026;"
	 xml:space="preserve">
<g>
	<g>
		<path d="M124.252,68.217v-5.683c0-6.476-5.122-11.762-11.418-11.762c-2.19,0-4.205,0.668-5.944,1.754V29.043
			c0-6.471-5.056-11.743-11.283-11.743c-2.068,0-4.006,0.615-5.68,1.653v-7.18C89.927,5.292,84.805,0,78.507,0
			c-5.838,0-10.619,4.55-11.285,10.389C65.494,9.324,63.5,8.66,61.344,8.66c-6.292,0-11.414,5.267-11.414,11.765v6.698
			c-1.711-1.048-3.663-1.683-5.782-1.683c-6.292,0-11.414,5.273-11.414,11.762v22.077V89.73v6.96
			c0,18.818,11.706,33.148,29.826,38.407c-0.69,2.03-1.131,3.869-1.131,5.315c0,9.175,7.435,16.613,16.621,16.613
			s16.613-7.438,16.613-16.613c0-1.381-0.401-3.143-1.059-5.063c18.615-5.039,30.689-19.529,30.689-38.648V68.463L124.252,68.217z
			 M91.524,130.091c-4.81-10.539-13.466-23.289-13.466-23.289s-8.523,12.554-13.362,23.049c-8.194-2.299-14.89-6.643-19.49-12.54
			l33.466-14.096c1.426-0.604,2.091-2.245,1.497-3.669c-0.592-1.422-2.235-2.089-3.669-1.499L42.16,112.516
			c-2.444-4.663-3.812-9.981-3.812-15.814V89.74V59.294V37.212c0-3.39,2.605-6.15,5.811-6.15c3.149,0,5.692,2.669,5.776,5.965
			v28.045l0.033,0.156v6.629c0,1.535,1.262,2.803,2.802,2.803c1.554,0,2.801-1.268,2.801-2.803V37.201l-0.033-0.347V20.413
			c0-3.39,2.62-6.161,5.822-6.161c3.077,0,5.524,2.558,5.732,5.754v46.216l0.081,0.375v4.499c0,1.542,1.261,2.802,2.802,2.802
			c1.545,0,2.801-1.259,2.801-2.802V20.402l-0.079-0.796v-7.86c0-3.385,2.604-6.17,5.811-6.17c3.205,0,5.816,2.769,5.816,6.17
			v17.269V60.49v11.086c0,1.554,1.253,2.802,2.802,2.802c1.543,0,2.802-1.248,2.802-2.802V60.49V29.015
			c0-3.384,2.545-6.147,5.68-6.147c3.142,0,5.682,2.758,5.682,6.147v52.54c0,1.537,1.257,2.802,2.801,2.802
			c1.542,0,2.801-1.265,2.801-2.802v-1.97l0.122-0.623V62.523c0-3.39,2.603-6.159,5.81-6.159c3.197,0,5.817,2.758,5.817,6.159
			v15.611l0.051,0.257V96.69C118.698,113.271,108.006,125.812,91.524,130.091z"/>
	</g>
</g>
<g>
</g>
<g>
</g>
<g>
</g>
<g>
</g>
<g>
</g>
<g>
</g>
<g>
</g>
<g>
</g>
<g>
</g>
<g>
</g>
<g>
</g>
<g>
</g>
<g>
</g>
<g>
</g>
<g>
</g>
</svg>
