<?xml version="1.0" encoding="iso-8859-1"?>
<!-- Generator: Adobe Illustrator 16.0.0, SVG Export Plug-In . SVG Version: 6.00 Build 0)  -->
<!DOCTYPE svg PUBLIC "-//W3C//DTD SVG 1.1//EN" "http://www.w3.org/Graphics/SVG/1.1/DTD/svg11.dtd">
<svg version="1.1" id="Capa_1" xmlns="http://www.w3.org/2000/svg" xmlns:xlink="http://www.w3.org/1999/xlink" x="0px" y="0px"
	 width="156.077px" height="156.077px" viewBox="0 0 156.077 156.077" style="enable-background:new 0 0 156.077 156.077;"
	 xml:space="preserve">
<g>
	<path d="M152.302,106.394l-22.707-0.007c-0.828,0-1.626,0.341-2.21,0.913c-0.585,0.585-0.907,1.383-0.907,2.205
		c0,5.846-5.584,10.613-12.435,10.613h-3.081H93.919c0.919-1.754,1.497-3.758,1.497-5.906c0.013-3.374-1.29-6.619-3.58-8.915
		c-2.07-2.076-4.78-3.233-7.614-3.233h-6.896c-0.083,0-0.159-0.049-0.244-0.049H11.225c-2.749,0-4.99-2.648-4.99-5.906
		c0-3.246,2.232-5.876,4.99-5.876H83.58c1.714,0,3.117-1.407,3.117-3.118c0-1.723-1.403-3.117-3.117-3.117h-5.675
		c-0.262-0.079-0.524-0.164-0.816-0.164H11.231c-2.75,0-4.99-2.649-4.99-5.906c0-3.216,2.201-5.822,4.92-5.864
		c0.024,0,0.046,0.006,0.07,0.006h65.857c0.043,0,0.079-0.019,0.125-0.024h6.366c1.721,0,3.117-1.397,3.117-3.117
		c0-1.721-1.396-3.118-3.117-3.118H11.231c-0.024,0-0.046,0.006-0.07,0.006c-2.719-0.042-4.92-2.67-4.92-5.894
		c0-3.246,2.235-5.886,4.99-5.886h52.12c0.149,0.006,0.292,0.052,0.441,0.052h17.729c0.935,6.528,5.188,9.253,13.993,9.253h16.854
		c1.718,0,3.118-1.397,3.118-3.118c0-1.72-1.4-3.117-3.118-3.117H95.514c-7.575,0-7.952-1.565-7.952-6.104
		c0-1.72-1.4-3.118-3.118-3.118c-0.085,0-0.143,0.037-0.216,0.042c-0.219-0.049-0.42-0.131-0.648-0.131H63.595
		c-2.658-0.131-4.79-2.7-4.79-5.879c0-3.255,2.213-5.9,4.945-5.931c0.012,0,0.024,0.006,0.042,0.006h50.256
		c6.869,0,12.446,4.99,12.446,11.119v5.349c0,0.838,0.342,1.629,0.914,2.214c0.584,0.578,1.376,0.904,2.204,0.904
		c0,0,0.012,0,0.024,0l23.346-0.192c1.717-0.012,3.105-1.428,3.093-3.145c-0.012-1.714-1.412-3.09-3.117-3.09
		c-0.013,0-0.024,0-0.024,0l-20.204,0.167v-2.208c0-9.566-8.391-17.354-18.682-17.354H83.665c-0.024,0-0.049-0.019-0.085-0.019
		H63.793c-6.184,0-11.222,5.462-11.222,12.173c0,2.143,0.554,4.134,1.458,5.879H11.225C5.039,47.788,0,53.226,0,59.908
		c0,3.593,1.479,6.793,3.772,9.019C1.479,71.146,0,74.34,0,77.927c0,3.629,1.522,6.874,3.878,9.097C1.528,89.239,0,92.479,0,96.108
		c0,6.698,5.039,12.142,11.225,12.142h27.779c-0.932,1.767-1.504,3.775-1.504,5.943c0,6.698,5.039,12.147,11.222,12.147h0.487
		h61.753h3.081c9.109,0,16.728-5.925,18.347-13.73l19.899,0.006c1.717,0,3.118-1.395,3.118-3.117
		C155.408,107.775,154.031,106.394,152.302,106.394z M43.735,114.205c0-3.251,2.231-5.882,4.987-5.882H83.58
		c0.012,0,0.012,0,0.024,0h0.63c1.501,0,2.561,0.755,3.206,1.395c1.127,1.12,1.766,2.758,1.754,4.494
		c0,3.251-2.247,5.875-5.018,5.875H49.334c-0.076,0-0.137,0.037-0.213,0.043h-0.393C45.967,120.124,43.735,117.47,43.735,114.205z"
		/>
</g>
<g>
</g>
<g>
</g>
<g>
</g>
<g>
</g>
<g>
</g>
<g>
</g>
<g>
</g>
<g>
</g>
<g>
</g>
<g>
</g>
<g>
</g>
<g>
</g>
<g>
</g>
<g>
</g>
<g>
</g>
</svg>
