<?xml version="1.0" encoding="iso-8859-1"?>
<!-- Generator: Adobe Illustrator 16.0.0, SVG Export Plug-In . SVG Version: 6.00 Build 0)  -->
<!DOCTYPE svg PUBLIC "-//W3C//DTD SVG 1.1//EN" "http://www.w3.org/Graphics/SVG/1.1/DTD/svg11.dtd">
<svg version="1.1" id="Capa_1" xmlns="http://www.w3.org/2000/svg" xmlns:xlink="http://www.w3.org/1999/xlink" x="0px" y="0px"
	 width="137.303px" height="137.303px" viewBox="0 0 137.303 137.303" style="enable-background:new 0 0 137.303 137.303;"
	 xml:space="preserve">
<g>
	<g>
		<path d="M112.087,63.792c-1.938-1.674-8.438-3.021-15.235-4.016l0.176-0.886V29.037c0-6.479-5.056-11.746-11.283-11.746
			c-2.068,0-4.006,0.621-5.68,1.652v-7.176C80.065,5.277,74.943,0,68.645,0C62.807,0,58.026,4.55,57.36,10.389
			c-1.728-1.064-3.721-1.732-5.878-1.732c-6.292,0-11.414,5.272-11.414,11.768v6.695c-1.711-1.042-3.663-1.674-5.782-1.674
			c-6.292,0-11.414,5.272-11.414,11.757v22.083v30.445v6.961c0,23.912,18.816,40.612,45.778,40.612
			c26.969,0,45.781-16.7,45.781-40.612V68.454C114.44,66.651,113.034,64.6,112.087,63.792z M80.076,29.037
			c0-3.385,2.55-6.143,5.682-6.143c3.129,0,5.679,2.758,5.679,6.143V58.89l0.032,0.164c-2.446-0.298-4.786-0.549-6.808-0.747
			c-1.685-0.118-3.166-0.033-4.572,0.142L80.076,29.037L80.076,29.037z M108.836,96.69c0,20.606-16.515,35.01-40.176,35.01
			c-23.662,0-40.175-14.403-40.175-35.01v-6.961V59.284V37.201c0-3.385,2.605-6.153,5.811-6.153c3.149,0,5.692,2.673,5.776,5.972
			v26.639l0.033,0.163v2.419c0,1.534,1.262,2.804,2.802,2.804c1.554,0,2.801-1.27,2.801-2.804V37.188l-0.033-0.338V20.402
			c0-3.384,2.62-6.164,5.822-6.164c3.077,0,5.524,2.56,5.732,5.753v46.217c0,1.547,1.262,2.805,2.802,2.805
			c1.54,0,2.803-1.258,2.803-2.805v-5.721l0.079-0.375V20.397l-0.079-0.796v-7.869c0-3.385,2.604-6.161,5.811-6.161
			c3.205,0,5.816,2.76,5.816,6.161v17.27v31.401c-1.765,1.16-3.166,2.689-3.957,4.837c-2.169,5.917,1.032,12.55,7.35,14.859
			l17.883,4.947c1.488,0.394,3.03-0.471,3.449-1.96c0.402-1.486-0.467-3.031-1.97-3.446l-17.664-4.87
			c-3.185-1.183-4.894-4.586-3.786-7.604c0.369-1.042,1.4-3.797,8.414-3.315c10.188,1.014,22.369,2.897,24.181,4.1l0.454,0.46
			v28.258h0.021V96.69z M74.226,90.77l-6.186,1.4l-1.412-6.194c-1.137-4.99-6.271-8.23-11.258-7.079
			c-2.455,0.546-4.55,2.022-5.882,4.157c-1.336,2.123-1.76,4.64-1.219,7.092l1.412,6.194l-6.196,1.401
			c-5.049,1.148-8.236,6.193-7.092,11.261c0.979,4.322,4.755,7.332,9.177,7.332c0.694,0,1.394-0.076,2.078-0.229l6.191-1.412
			l1.412,6.194c0.983,4.312,4.747,7.321,9.163,7.321c0.7,0,1.406-0.076,2.09-0.229c2.454-0.559,4.541-2.035,5.884-4.159
			c1.341-2.122,1.766-4.65,1.215-7.092l-1.406-6.193l6.192-1.412c2.451-0.558,4.542-2.036,5.883-4.158
			c1.341-2.123,1.77-4.651,1.209-7.102C84.357,92.871,79.268,89.608,74.226,90.77z M54.231,86.03
			c0.544-0.843,1.385-1.455,2.384-1.675l0.846-0.098c1.774,0,3.305,1.214,3.705,2.965l1.405,6.186l-7.424,1.685l-1.407-6.185
			C53.516,87.913,53.69,86.896,54.231,86.03z M67.641,120.832c-0.536,0.843-1.391,1.456-2.385,1.686
			c-2.022,0.427-4.086-0.843-4.55-2.867l-1.407-6.194l7.419-1.685l1.412,6.183C68.366,118.949,68.193,119.968,67.641,120.832z
			 M77.154,103.661l-30.738,6.982c-1.996,0.438-4.09-0.887-4.547-2.878c-0.46-2.048,0.817-4.094,2.878-4.564l30.727-6.972
			l0.844-0.098c1.756,0,3.328,1.247,3.704,2.965C80.481,101.155,79.202,103.201,77.154,103.661z"/>
	</g>
</g>
<g>
</g>
<g>
</g>
<g>
</g>
<g>
</g>
<g>
</g>
<g>
</g>
<g>
</g>
<g>
</g>
<g>
</g>
<g>
</g>
<g>
</g>
<g>
</g>
<g>
</g>
<g>
</g>
<g>
</g>
</svg>
