<?xml version="1.0" encoding="iso-8859-1"?>
<!-- Generator: Adobe Illustrator 16.0.0, SVG Export Plug-In . SVG Version: 6.00 Build 0)  -->
<!DOCTYPE svg PUBLIC "-//W3C//DTD SVG 1.1//EN" "http://www.w3.org/Graphics/SVG/1.1/DTD/svg11.dtd">
<svg version="1.1" id="Capa_1" xmlns="http://www.w3.org/2000/svg" xmlns:xlink="http://www.w3.org/1999/xlink" x="0px" y="0px"
	 width="116.266px" height="116.266px" viewBox="0 0 116.266 116.266" style="enable-background:new 0 0 116.266 116.266;"
	 xml:space="preserve">
<g>
	<g>
		<path d="M98.994,61.537v-5.334c0-5.37-4.238-9.749-9.45-9.749c-2.484,0-4.756,1.023-6.442,2.661v-23.55
			c0-5.373-4.178-9.745-9.316-9.745c-2.387,0-4.543,0.974-6.199,2.526V9.754C67.586,4.378,63.349,0,58.139,0
			c-5.206,0-9.447,4.378-9.447,9.754v0.673c-1.671-1.546-3.839-2.508-6.259-2.508c-5.2,0-9.448,4.378-9.448,9.751v8.145
			c-1.677-1.559-3.863-2.542-6.302-2.542c-5.207,0-9.441,4.369-9.441,9.736v20.216v27.857v6.37
			c0,19.376,13.375,28.813,40.892,28.813c27.514,0,40.892-9.438,40.892-28.813V61.61L98.994,61.537z M58.145,113.172
			c-25.769,0-37.78-8.171-37.78-25.684V81.12V53.255V33.042c0-3.653,2.837-6.628,6.33-6.628c3.447,0,6.235,2.911,6.303,6.503v25.635
			l0.027,0.055v6.145c0,0.87,0.697,1.559,1.559,1.559c0.865,0,1.559-0.688,1.559-1.559v-31.71l-0.027-0.25V17.692
			c0-3.663,2.838-6.628,6.336-6.628c3.374,0,6.08,2.798,6.26,6.29v42.277l0.07,0.164v4.293c0,0.864,0.697,1.559,1.559,1.559
			c0.861,0,1.559-0.694,1.559-1.559V17.704l-0.07-0.685v-7.24c0-3.659,2.837-6.634,6.324-6.634c3.498,0,6.336,2.986,6.336,6.634
			v15.813v28.799v10.154c0,0.864,0.688,1.559,1.559,1.559c0.853,0,1.559-0.694,1.559-1.559V54.391V25.592
			c0-3.656,2.771-6.631,6.199-6.631c3.422,0,6.192,2.98,6.192,6.631v48.074c0,0.865,0.706,1.559,1.559,1.559
			c0.871,0,1.559-0.693,1.559-1.559v-2.119l0.128-0.28v-15.04c0-3.656,2.838-6.631,6.327-6.631c3.495,0,6.332,2.98,6.332,6.631
			v14.297l0.049,0.11V87.5C95.925,105.013,83.917,113.172,58.145,113.172z"/>
		<path d="M55.812,63.924c-0.861,0-1.559,0.706-1.559,1.559c0,0.864,0.697,1.559,1.559,1.559h4.172c0.867,0,1.562-0.694,1.562-1.559
			c0-0.853-0.694-1.559-1.562-1.559h-0.53V50.863h0.53c0.867,0,1.562-0.697,1.562-1.559s-0.694-1.559-1.562-1.559h-4.172
			c-0.861,0-1.559,0.697-1.559,1.559s0.697,1.559,1.559,1.559h0.524v13.062H55.812z"/>
		<path d="M46.055,69.221c0-0.853-0.691-1.559-1.559-1.559h-4.165c-0.861,0-1.559,0.706-1.559,1.559
			c0,0.865,0.697,1.559,1.559,1.559h0.405l5.492,27.877h-0.56c-0.862,0-1.559,0.693-1.559,1.559c0,0.853,0.697,1.559,1.559,1.559
			h4.491c0.865,0,1.559-0.706,1.559-1.559c0-0.865-0.694-1.559-1.559-1.559h-0.755L43.909,70.78h0.587
			C45.352,70.78,46.055,70.086,46.055,69.221z"/>
		<path d="M55.812,98.011c-0.861,0-1.559,0.694-1.559,1.559c0,0.858,0.697,1.559,1.559,1.559h4.172c0.867,0,1.562-0.7,1.562-1.559
			c0-0.864-0.694-1.559-1.562-1.559h-0.46V70.792h0.46c0.867,0,1.562-0.7,1.562-1.559c0-0.865-0.694-1.56-1.562-1.56h-4.172
			c-0.861,0-1.559,0.694-1.559,1.56c0,0.858,0.697,1.559,1.559,1.559h0.594v27.219H55.812z"/>
		<path d="M55.812,43.891c-0.861,0-1.559,0.7-1.559,1.559c0,0.861,0.697,1.559,1.559,1.559h4.172c0.867,0,1.562-0.697,1.562-1.559
			c0-0.859-0.694-1.559-1.562-1.559h-0.53V30.83h0.53c0.867,0,1.562-0.7,1.562-1.559c0-0.862-0.694-1.559-1.562-1.559h-4.172
			c-0.861,0-1.559,0.697-1.559,1.559c0,0.859,0.697,1.559,1.559,1.559h0.524v13.067h-0.524V43.891z"/>
		<path d="M55.812,23.857c-0.861,0-1.559,0.7-1.559,1.559c0,0.862,0.697,1.559,1.559,1.559h4.172c0.867,0,1.562-0.697,1.562-1.559
			c0-0.859-0.694-1.559-1.562-1.559h-0.53V10.79h0.53c0.867,0,1.562-0.7,1.562-1.559c0-0.861-0.694-1.559-1.562-1.559h-4.172
			c-0.861,0-1.559,0.697-1.559,1.559c0,0.858,0.697,1.559,1.559,1.559h0.524v13.067H55.812z"/>
		<path d="M40.273,63.924c-0.858,0-1.559,0.706-1.559,1.559c0,0.864,0.701,1.559,1.559,1.559h4.174c0.865,0,1.559-0.694,1.559-1.559
			c0-0.853-0.694-1.559-1.559-1.559h-0.523V50.863h0.523c0.865,0,1.559-0.697,1.559-1.559s-0.694-1.559-1.559-1.559h-4.174
			c-0.858,0-1.559,0.697-1.559,1.559s0.701,1.559,1.559,1.559h0.533v13.062H40.273z"/>
		<path d="M40.273,43.891c-0.858,0-1.559,0.7-1.559,1.559c0,0.861,0.701,1.559,1.559,1.559h4.174c0.865,0,1.559-0.697,1.559-1.559
			c0-0.859-0.694-1.559-1.559-1.559h-0.523V30.83h0.523c0.865,0,1.559-0.7,1.559-1.559c0-0.862-0.694-1.559-1.559-1.559h-4.174
			c-0.858,0-1.559,0.697-1.559,1.559c0,0.859,0.701,1.559,1.559,1.559h0.533v13.067h-0.533V43.891z"/>
		<path d="M24.03,63.924c-0.864,0-1.559,0.706-1.559,1.559c0,0.864,0.694,1.559,1.559,1.559h4.174c0.859,0,1.559-0.694,1.559-1.559
			c0-0.853-0.7-1.559-1.559-1.559h-0.533V50.863h0.533c0.859,0,1.559-0.697,1.559-1.559s-0.7-1.559-1.559-1.559H24.03
			c-0.864,0-1.559,0.697-1.559,1.559s0.694,1.559,1.559,1.559h0.524v13.062H24.03z"/>
		<path d="M24.03,43.891c-0.864,0-1.559,0.7-1.559,1.559c0,0.861,0.694,1.559,1.559,1.559h4.174c0.859,0,1.559-0.697,1.559-1.559
			c0-0.859-0.7-1.559-1.559-1.559h-0.533V34.3h0.533c0.859,0,1.559-0.697,1.559-1.559c0-0.858-0.7-1.559-1.559-1.559H24.03
			c-0.864,0-1.559,0.701-1.559,1.559c0,0.862,0.694,1.559,1.559,1.559h0.524v9.59H24.03z"/>
		<path d="M40.273,23.857c-0.858,0-1.559,0.7-1.559,1.559c0,0.862,0.701,1.559,1.559,1.559h4.174c0.865,0,1.559-0.697,1.559-1.559
			c0-0.859-0.694-1.559-1.559-1.559h-0.523v-6.646h0.523c0.865,0,1.559-0.697,1.559-1.559c0-0.861-0.694-1.559-1.559-1.559h-4.174
			c-0.858,0-1.559,0.697-1.559,1.559c0,0.862,0.701,1.559,1.559,1.559h0.533v6.646H40.273z"/>
		<path d="M75.855,50.863c0.864,0,1.559-0.697,1.559-1.559s-0.694-1.559-1.559-1.559h-4.178c-0.852,0-1.559,0.697-1.559,1.559
			s0.707,1.559,1.559,1.559h0.524v13.073h-0.524c-0.852,0-1.559,0.688-1.559,1.559c0,0.853,0.707,1.559,1.559,1.559h4.178
			c0.864,0,1.559-0.706,1.559-1.559c0-0.871-0.694-1.559-1.559-1.559h-0.536V50.863H75.855z"/>
		<path d="M91.236,60.161c0.853,0,1.559-0.7,1.559-1.559c0-0.865-0.706-1.559-1.559-1.559h-4.165c-0.864,0-1.559,0.693-1.559,1.559
			c0,0.858,0.694,1.559,1.559,1.559h0.524v13.067h-0.524c-0.864,0-1.559,0.694-1.559,1.559c0,0.865,0.694,1.56,1.559,1.56h4.165
			c0.853,0,1.559-0.694,1.559-1.56c0-0.864-0.706-1.559-1.559-1.559h-0.523V60.161H91.236z"/>
		<path d="M91.236,77.491h-4.165c-0.864,0-1.559,0.7-1.559,1.559l0.792,1.236L75.21,98.638h-1.438c-0.853,0-1.559,0.7-1.559,1.559
			c0,0.864,0.706,1.56,1.559,1.56h4.5c0.858,0,1.56-0.695,1.56-1.56c0-0.663-0.487-1.15-1.097-1.37l11.021-18.23h1.485
			c0.871,0,1.56-0.688,1.56-1.559C92.802,78.172,92.083,77.491,91.236,77.491z"/>
		<path d="M71.203,27.3h0.999v16.59h-0.524c-0.852,0-1.559,0.7-1.559,1.559c0,0.861,0.707,1.559,1.559,1.559h4.178
			c0.864,0,1.559-0.697,1.559-1.559c0-0.859-0.694-1.559-1.559-1.559h-0.536V27.3h1.011c0.865,0,1.559-0.7,1.559-1.559
			c0-0.861-0.693-1.559-1.559-1.559h-5.127c-0.864,0-1.559,0.697-1.559,1.559C69.645,26.6,70.339,27.3,71.203,27.3z"/>
		<path d="M78.462,104.636H36.178c-0.861,0-1.559,0.694-1.559,1.559s0.697,1.559,1.559,1.559h42.284
			c0.864,0,1.559-0.694,1.559-1.559S79.32,104.636,78.462,104.636z"/>
		<path d="M40,101.774c0.868,0,1.559-0.706,1.559-1.559c0-0.865-0.691-1.559-1.559-1.559H39.32v-0.098L28.284,70.561
			c0.554-0.244,0.999-0.694,0.999-1.34c0-0.853-0.7-1.559-1.559-1.559h-4.165c-0.868,0-1.559,0.706-1.559,1.559
			c0,0.865,0.691,1.559,1.559,1.559h1.458l10.982,27.877h-0.481c-0.868,0-1.559,0.693-1.559,1.559c0,0.853,0.691,1.559,1.559,1.559
			H40z"/>
		<path d="M64.359,101.774h4.481c0.864,0,1.559-0.706,1.559-1.559c0-0.779-0.597-1.357-1.352-1.474l5.212-27.949h0.901
			c0.864,0,1.559-0.7,1.559-1.559c0-0.865-0.694-1.56-1.559-1.56h-4.165c-0.864,0-1.559,0.694-1.559,1.56
			c0,0.858,0.694,1.559,1.559,1.559h0.098l-5.188,27.87h-1.534c-0.864,0-1.559,0.688-1.559,1.559
			C62.812,101.068,63.5,101.774,64.359,101.774z"/>
	</g>
</g>
<g>
</g>
<g>
</g>
<g>
</g>
<g>
</g>
<g>
</g>
<g>
</g>
<g>
</g>
<g>
</g>
<g>
</g>
<g>
</g>
<g>
</g>
<g>
</g>
<g>
</g>
<g>
</g>
<g>
</g>
</svg>
