<?xml version="1.0" encoding="iso-8859-1"?>
<!-- Generator: Adobe Illustrator 16.0.0, SVG Export Plug-In . SVG Version: 6.00 Build 0)  -->
<!DOCTYPE svg PUBLIC "-//W3C//DTD SVG 1.1//EN" "http://www.w3.org/Graphics/SVG/1.1/DTD/svg11.dtd">
<svg version="1.1" id="Capa_1" xmlns="http://www.w3.org/2000/svg" xmlns:xlink="http://www.w3.org/1999/xlink" x="0px" y="0px"
	 width="174.561px" height="174.562px" viewBox="0 0 174.561 174.562" style="enable-background:new 0 0 174.561 174.562;"
	 xml:space="preserve">
<g>
	<g>
		<path d="M45.193,46.499c0,0-19.857,19.729-1.267,49.648c5.432,8.579,9.262,20.143,13.682,38.374
			c3.154,13.122,14.852,54.589,45.846,34.763c0,0,52.062-57.634,31.042-107.915c-1.668-3.827-4.317-7.538-7.928-10.912l8.257-19.202
			c6.649-14.684-3.41-18.234-3.41-18.234c-7.928-5.005-16.685,14.035-21.513,27.036c-4.579-1.821-9.512-3.215-14.815-4.028
			l-0.292-19.851c0-16.151-9.292-16.151-9.292-16.151c-10.102-0.911-9.322,22.161-7.958,35.648
			c-2.728,0.292-5.456,0.679-8.318,1.328c-4.542-6.954-11.959-18.094-15.345-22.715c-5.943-8.281-16.075,0-16.075,0
			c-7.611,7.575,2.497,24.506,7.69,32.074L45.193,46.499z"/>
	</g>
</g>
<g>
</g>
<g>
</g>
<g>
</g>
<g>
</g>
<g>
</g>
<g>
</g>
<g>
</g>
<g>
</g>
<g>
</g>
<g>
</g>
<g>
</g>
<g>
</g>
<g>
</g>
<g>
</g>
<g>
</g>
</svg>
