<?xml version="1.0" encoding="iso-8859-1"?>
<!-- Generator: Adobe Illustrator 16.0.0, SVG Export Plug-In . SVG Version: 6.00 Build 0)  -->
<!DOCTYPE svg PUBLIC "-//W3C//DTD SVG 1.1//EN" "http://www.w3.org/Graphics/SVG/1.1/DTD/svg11.dtd">
<svg version="1.1" id="Capa_1" xmlns="http://www.w3.org/2000/svg" xmlns:xlink="http://www.w3.org/1999/xlink" x="0px" y="0px"
	 width="206.315px" height="206.315px" viewBox="0 0 206.315 206.315" style="enable-background:new 0 0 206.315 206.315;"
	 xml:space="preserve">
<g>
	<g>
		<path d="M87.045,79.524c0,0,2.844,1.011,1.06,2.688c0,0-0.554,0.608,2.183,0.779c0,0,2.57,3.34,4.064,1.839
			c0.843-0.85,1.559-1.44,4.466,1.339c0,0,2.062,1.629,4.408,0.387c0,0,1.84-0.834-1.068-1.726c0,0-8.491-1.498-7.307-7.807
			c0.947-5.026,6.247-1.391,7.982-0.387c0.274,0.155,0.604,0.28,1.203,0.329c0.597-0.049,0.929-0.155,1.202-0.329
			c1.729-0.992,7.027-4.627,7.978,0.387c1.193,6.309-7.311,7.807-7.311,7.807c-2.898,0.904-1.06,1.726-1.06,1.726
			c2.342,1.23,4.412-0.387,4.412-0.387c2.898-2.78,3.616-2.189,4.457-1.339c1.498,1.501,4.079-1.839,4.079-1.839
			c2.734-0.171,2.168-0.779,2.168-0.779c-1.771-1.678,1.072-2.688,1.072-2.688c5.906-1.498,5.206-4.439,4.969-6.187
			c-0.634-4.513-4.604-6.802-7.295-7.925c-6.297-2.619-9.341,1.035-11.454,3.133c-0.587,0.573-1.784,1.333-2.962,1.388h-0.512
			c-1.172-0.055-2.375-0.815-2.956-1.388c-2.113-2.098-5.17-5.751-11.454-3.133c-2.688,1.124-6.665,3.413-7.289,7.925
			C81.839,75.085,81.127,78.026,87.045,79.524z"/>
		<polygon points="104.174,76.973 104.038,76.955 103.901,76.973 		"/>
		<path d="M80.959,90.132c1.845,1.053,1.285,5.236,1.285,5.236l4.963,0.119c0,0-0.804-4.128,0-5.124
			c0.679-0.843,1.224-2.046,1.903-2.402l2.457-0.119c1.952-0.898,0.505-1.845,0.505-1.845l-1.848-1.403
			c-1.395-1.34-2.119-0.387-2.119-0.387c-1.172,2.569-3.124,1.172-3.124,1.172c-0.167-1.501-0.554-1.727-1.005-1.909
			c-2.965-1.108-2.953,2.628-2.953,2.628C78.959,88.503,80.959,90.132,80.959,90.132z"/>
		<path d="M123.964,83.488c-0.444,0.17-0.834,0.396-1.005,1.903c0,0-1.948,1.404-3.117-1.172c0,0-0.731-0.947-2.126,0.387
			l-1.845,1.397c0,0-1.449,0.941,0.506,1.845l2.453,0.113c0.683,0.362,1.219,1.559,1.9,2.402c0.815,0.996,0,5.136,0,5.136
			l4.975-0.125c0,0-0.566-4.183,1.272-5.236c0,0,2.01-1.623-0.061-4.022C126.917,86.122,126.929,82.38,123.964,83.488z"/>
		<path d="M101.093,65.75v1.221c0.119,0.998,1.172,1.291,1.172,1.291h1.623h0.161h1.62c0,0,1.062-0.292,1.172-1.291V65.75
			c0,0,2.844-2.232,2.125-2.789c0,0-0.28-0.697-3.239,1.681h-1.689h-0.131h-1.689c-2.963-2.378-3.243-1.681-3.243-1.681
			C98.25,63.519,101.093,65.75,101.093,65.75z"/>
		<path d="M101.093,60.879v1.23c0.119,1.005,1.172,1.278,1.172,1.278h1.623h0.161h1.62c0,0,1.062-0.273,1.172-1.278v-1.23
			c0,0,2.844-2.231,2.125-2.779c0,0-0.28-0.703-3.239,1.678h-1.689h-0.131h-1.689c-2.963-2.381-3.243-1.678-3.243-1.678
			C98.25,58.642,101.093,60.879,101.093,60.879z"/>
		<path d="M152.516,41.777h-22.572c-2.466-7.24-8.58-7.41-8.58-7.41c-8.451-1.258-9.627-3.988-9.627-3.988
			c-1.79-2.576-0.767-7.515-0.767-7.515c1.485-1.211,2.058-4.414,2.058-4.414c2.467-1.897,2.345-4.658,1.212-4.628
			c-0.919,0.024-0.712-0.734-0.712-0.734C115.068,0.643,104.007,0,104.007,0h-1.69c0,0-11.063,0.643-9.523,13.088
			c0,0,0.207,0.758-0.715,0.734c-1.136-0.03-1.242,2.731,1.214,4.628c0,0,0.573,3.203,2.058,4.414c0,0,1.023,4.938-0.767,7.515
			c0,0-1.172,2.73-9.627,3.988c0,0-6.117,0.164-8.58,7.41H53.799c-1.72,0-3.118,1.395-3.118,3.118v58.199
			c0,1.712,1.397,3.118,3.118,3.118h8.081c-1.684,2.722-2.911,5.505-1.501,5.949c0,0,1.684,0.164,3.909-4.25
			c0,0-0.046,1.698-1.833,6.625c-0.344,0.925-1.833,5.602,0.579,3.915c0,0,1.111-0.768,2.569-5.571c0,0-0.779,8.086,0.083,8.5
			c1.132,0.548,1.75-1.047,2.262-8.142c0,0,0.524-2.283,0.768,6.449c0.012,0.45,0.679,2.697,1.602,0.779
			c0.773-1.607,0.432-5.864,0.432-7.295c0,0,0.996,5.529,1.924,5.529c0,0,1.099,1.284,0.648-5.578
			c-0.073-1.12,0.313-3.422,0.362-4.092l0.106-2.631l-0.019-0.219h7.925c-0.177,1.937-0.25,3.848-0.03,5.65
			c0.865,7.088,2.53,22.244,4.226,28.217c0.88,3.094,0.356,10.9,1.072,12.849c0.313,0.841,0.152,1.62-0.536,3.544
			c-2.393,6.71-2.089,11.436,3.915,29.24c0,0,1.848,3.945,0.917,11.039c0,0-3.833,7.886-1.376,8.044c0,0,0.198,0.524,1.023,0.11
			c0,0,1.328,1.369,2.761,0.633c0,0,1.328,1.054,2.463,0.122c0,0,0.917,1.047,2.244,0.194c0,0,1.741,1.17,2.771-0.104
			c0,0,1.839,0.408-1.437-7.885c0,0-1.251-8.793-1.945-10.517c-1.315-3.282-0.384-12.251-0.104-14.182
			c0.459-3.209,0.216-8.695-0.618-12.933c-0.6-3.033,1.042-8.77,1.641-12.301c1.251-7.429,3.684-26.378,3.379-29.952l1.008,0.347
			c0.731,0,1.193-0.347,1.193-0.347c-0.307,3.574,2.119,22.523,3.377,29.952c0.597,3.52,2.234,9.256,1.645,12.301
			c-0.841,4.25-1.084,9.736-0.621,12.933c0.292,1.942,1.211,10.899-0.104,14.182c-0.688,1.711-1.946,10.517-1.946,10.517
			c-3.282,8.293-1.434,7.885-1.434,7.885c1.026,1.248,2.765,0.104,2.765,0.104c1.327,0.853,2.24-0.194,2.24-0.194
			c1.146,0.932,2.473-0.122,2.473-0.122c1.425,0.736,2.758-0.633,2.758-0.633c0.822,0.414,1.018-0.11,1.018-0.11
			c2.472-0.158-1.376-8.044-1.376-8.044c-0.914-7.094,0.913-11.039,0.913-11.039c6.004-17.805,6.309-22.53,3.909-29.24
			c-0.676-1.937-0.847-2.703-0.536-3.544c0.719-1.942,0.195-9.743,1.072-12.849c1.692-5.973,3.361-21.141,4.237-28.217
			c0.207-1.803,0.135-3.727-0.036-5.65h7.928l-0.018,0.219l0.115,2.631c0.049,0.67,0.42,2.983,0.359,4.092
			c-0.444,6.862,0.651,5.578,0.651,5.578c0.913,0,1.925-5.529,1.925-5.529c0,1.431-0.342,5.688,0.426,7.295
			c0.913,1.918,1.596-0.329,1.607-0.779c0.244-8.732,0.768-6.449,0.768-6.449c0.512,7.095,1.133,8.689,2.265,8.142
			c0.853-0.414,0.073-8.5,0.073-8.5c1.455,4.804,2.569,5.571,2.569,5.571c2.412,1.687,0.914-2.99,0.585-3.915
			c-1.79-4.921-1.839-6.625-1.839-6.625c2.223,4.414,3.909,4.25,3.909,4.25c1.413-0.444,0.183-3.239-1.498-5.949h8.074
			c1.717,0,3.118-1.406,3.118-3.118V44.896C155.634,43.172,154.233,41.777,152.516,41.777z M149.399,99.978H56.911V48.013h92.488
			V99.978L149.399,99.978z"/>
	</g>
</g>
<g>
</g>
<g>
</g>
<g>
</g>
<g>
</g>
<g>
</g>
<g>
</g>
<g>
</g>
<g>
</g>
<g>
</g>
<g>
</g>
<g>
</g>
<g>
</g>
<g>
</g>
<g>
</g>
<g>
</g>
</svg>
