<?xml version="1.0" encoding="iso-8859-1"?>
<!-- Generator: Adobe Illustrator 16.0.0, SVG Export Plug-In . SVG Version: 6.00 Build 0)  -->
<!DOCTYPE svg PUBLIC "-//W3C//DTD SVG 1.1//EN" "http://www.w3.org/Graphics/SVG/1.1/DTD/svg11.dtd">
<svg version="1.1" id="Capa_1" xmlns="http://www.w3.org/2000/svg" xmlns:xlink="http://www.w3.org/1999/xlink" x="0px" y="0px"
	 width="187.059px" height="187.059px" viewBox="0 0 187.059 187.059" style="enable-background:new 0 0 187.059 187.059;"
	 xml:space="preserve">
<g>
	<g>
		<path d="M114.233,107.681c4.335-0.268,3.464-1.242,3.464-1.242c-2.837-2.655,1.675-4.25,1.675-4.25
			c9.377-2.388,8.257-7.039,7.892-9.816c-0.999-7.148-7.307-10.777-11.558-12.568c-9.979-4.141-14.82,1.647-18.17,4.957
			c-0.913,0.914-2.825,2.134-4.691,2.217h-0.819c-1.856-0.089-3.766-1.303-4.688-2.217c-3.346-3.31-8.193-9.097-18.161-4.957
			c-4.266,1.778-10.577,5.407-11.56,12.568c-0.387,2.777-1.498,7.429,7.885,9.816c0,0,4.515,1.595,1.69,4.25
			c0,0-0.898,0.975,3.455,1.242c0,0,4.071,5.31,6.446,2.91c1.342-1.34,2.469-2.289,7.079,2.144c0,0,3.273,2.569,6.99,0.634
			c0,0,2.923-1.34-1.684-2.753c0,0-13.481-2.387-11.572-12.373c1.488-7.965,9.907-2.204,12.632-0.621
			c0.436,0.243,0.959,0.438,1.921,0.512c0.941-0.073,1.462-0.269,1.912-0.512c2.746-1.583,11.144-7.344,12.653,0.621
			c1.888,9.986-11.594,12.373-11.594,12.373c-4.595,1.425-1.681,2.753-1.681,2.753c3.715,1.941,6.979-0.634,6.979-0.634
			c4.604-4.433,5.754-3.483,7.088-2.144C110.153,112.978,114.233,107.681,114.233,107.681z"/>
		<path d="M92.637,98.133c-0.106,0-0.131-0.024-0.219-0.024c-0.086,0-0.131,0.024-0.211,0.024H92.637z"/>
		<path d="M73.432,112.455l-2.923-2.217c-2.208-2.118-3.361-0.621-3.361-0.621c-1.863,4.08-4.957,1.863-4.957,1.863
			c-0.268-2.387-0.886-2.739-1.598-3.008c-4.713-1.741-4.689,4.165-4.689,4.165c-3.261,3.812-0.091,6.37-0.091,6.37
			c2.917,1.68,2.037,8.317,2.037,8.317l7.876,0.171c0,0-1.285-6.553,0-8.136c1.078-1.346,1.934-3.251,2.999-3.812
			c0.868-0.438,3.897-0.171,3.897-0.171C75.734,113.953,73.432,112.455,73.432,112.455z"/>
		<path d="M124.036,108.472c-0.706,0.269-1.314,0.621-1.583,2.996c0,0-3.105,2.204-4.969-1.863c0,0-1.145-1.498-3.349,0.633
			l-2.923,2.205c0,0-2.308,1.485,0.791,2.923c0,0,3.033-0.269,3.892,0.158c1.077,0.572,1.93,2.472,3.002,3.812
			c1.291,1.583,0,8.135,0,8.135l7.879-0.158c0,0-0.877-6.625,2.034-8.317c0,0,3.185-2.558-0.085-6.369
			C128.725,112.637,128.737,106.718,124.036,108.472z"/>
		<path d="M87.775,80.34v1.949c0.162,1.583,1.857,2.031,1.857,2.031h2.558h0.262h2.563c0,0,1.687-0.447,1.869-2.031V80.34
			c0,0,4.513-3.541,3.361-4.42c0,0-0.444-1.132-5.133,2.646h-2.686H92.22h-2.688c-4.688-3.767-5.124-2.646-5.124-2.646
			C83.266,76.793,87.775,80.34,87.775,80.34z"/>
		<path d="M87.775,72.61v1.946c0.162,1.595,1.857,2.033,1.857,2.033h2.558h0.262h2.563c0,0,1.687-0.438,1.869-2.033V72.61
			c0,0,4.513-3.522,3.361-4.409c0,0-0.444-1.136-5.133,2.643h-2.686H92.22h-2.688c-4.688-3.766-5.124-2.643-5.124-2.643
			C83.266,69.076,87.775,72.61,87.775,72.61z"/>
		<path d="M35.198,138.346h116.666c1.418,0,2.545-1.133,2.545-2.521V61.394c0-1.403-1.139-2.533-2.545-2.533H35.198
			c-1.41,0-2.533,1.142-2.533,2.533v74.431C32.647,137.213,33.789,138.346,35.198,138.346z M37.728,63.924h111.603v69.355H37.728
			V63.924z"/>
		<path d="M184.52,42.999H2.539C1.129,42.999,0,44.134,0,45.523c0,1.392,1.135,2.545,2.539,2.545h14.9v95.223
			c0,5.662,4.61,10.266,10.276,10.266h131.626c5.656,0,10.266-4.604,10.266-10.266V48.074h14.9c1.419,0,2.539-1.154,2.539-2.545
			C187.046,44.141,185.926,42.999,184.52,42.999z M164.553,143.291c0,2.874-2.338,5.2-5.212,5.2H27.715
			c-2.875,0-5.212-2.326-5.212-5.2V48.074h142.051V143.291L164.553,143.291z"/>
		<path d="M2.539,38.572H184.52c1.406,0,2.539-1.147,2.539-2.545c0-1.389-1.133-2.524-2.539-2.524H2.539
			C1.129,33.503,0,34.645,0,36.027C0,37.424,1.135,38.572,2.539,38.572z"/>
	</g>
</g>
<g>
</g>
<g>
</g>
<g>
</g>
<g>
</g>
<g>
</g>
<g>
</g>
<g>
</g>
<g>
</g>
<g>
</g>
<g>
</g>
<g>
</g>
<g>
</g>
<g>
</g>
<g>
</g>
<g>
</g>
</svg>
