<?xml version="1.0" encoding="iso-8859-1"?>
<!-- Generator: Adobe Illustrator 16.0.0, SVG Export Plug-In . SVG Version: 6.00 Build 0)  -->
<!DOCTYPE svg PUBLIC "-//W3C//DTD SVG 1.1//EN" "http://www.w3.org/Graphics/SVG/1.1/DTD/svg11.dtd">
<svg version="1.1" id="Capa_1" xmlns="http://www.w3.org/2000/svg" xmlns:xlink="http://www.w3.org/1999/xlink" x="0px" y="0px"
	 width="185.404px" height="185.405px" viewBox="0 0 185.404 185.405" style="enable-background:new 0 0 185.404 185.405;"
	 xml:space="preserve">
<g>
	<g>
		<path d="M83.166,56.323c0,0-4.354,4.32-0.285,10.884c1.191,1.882,2.032,4.403,3.009,8.41c0.675,2.873,3.248,11.962,10.046,7.615
			c0,0,11.397-12.644,6.798-23.659c-0.357-0.834-0.953-1.646-1.747-2.391l1.816-4.207c1.458-3.218-0.761-4.003-0.761-4.003
			c-1.735-1.092-3.649,3.083-4.706,5.935c-1.013-0.392-2.091-0.712-3.25-0.873l-0.072-4.356c0-3.535-2.028-3.535-2.028-3.535
			c-2.22-0.208-2.047,4.848-1.749,7.811c-0.588,0.068-1.192,0.145-1.816,0.299c-0.997-1.524-2.626-3.968-3.374-4.982
			c-1.289-1.817-3.53,0-3.53,0c-1.664,1.658,0.567,5.368,1.704,7.026L83.166,56.323z"/>
		<path d="M137.053,37.543h-20.278c-2.217-6.506-7.717-6.66-7.717-6.66c-7.589-1.13-8.644-3.584-8.644-3.584
			c-1.61-2.315-0.691-6.752-0.691-6.752c1.336-1.089,1.85-3.967,1.85-3.967c2.217-1.705,2.102-4.186,1.089-4.159
			c-0.826,0.022-0.64-0.66-0.64-0.66C103.402,0.577,93.466,0,93.466,0h-1.517c0,0-9.95,0.577-8.559,11.762
			c0,0,0.185,0.682-0.637,0.66c-1.026-0.027-1.118,2.454,1.086,4.159c0,0,0.522,2.878,1.849,3.967c0,0,0.92,4.438-0.688,6.752
			c0,0-1.055,2.454-8.657,3.584c0,0-5.486,0.147-7.706,6.66h-20.29c-1.546,0-2.802,1.253-2.802,2.802v52.301
			c0,1.538,1.256,2.802,2.802,2.802h7.256c-1.518,2.446-2.615,4.947-1.338,5.346c0,0,1.513,0.148,3.513-3.819
			c0,0-0.051,1.526-1.653,5.953c-0.315,0.833-1.641,5.036,0.525,3.52c0,0,1-0.69,2.309-5.007c0,0-0.701,7.267,0.068,7.639
			c1.018,0.492,1.574-0.941,2.033-7.315c0,0,0.472-2.053,0.69,5.794c0.01,0.406,0.605,2.424,1.443,0.701
			c0.691-1.444,0.375-5.271,0.375-6.556c0,0,0.897,4.969,1.737,4.969c0,0,0.987,1.153,0.583-5.012
			c-0.065-1.008,0.282-3.076,0.325-3.678l0.102-2.364l-0.023-0.196h7.123c-0.166,1.739-0.231,3.457-0.037,5.077
			c0.781,6.369,2.271,19.989,3.801,25.357c0.791,2.779,0.321,9.795,0.963,11.546c0.287,0.755,0.134,1.455-0.481,3.185
			c-2.145,6.029-1.872,10.276,3.523,26.275c0,0,1.655,3.547,0.818,9.922c0,0-3.439,7.086-1.235,7.228c0,0,0.177,0.472,0.919,0.099
			c0,0,1.193,1.231,2.475,0.569c0,0,1.193,0.947,2.22,0.11c0,0,0.822,0.94,2.015,0.175c0,0,1.566,1.05,2.481-0.094
			c0,0,1.655,0.367-1.288-7.085c0,0-1.119-7.902-1.742-9.45c-1.182-2.95-0.348-11.01-0.098-12.745
			c0.413-2.883,0.194-7.813-0.551-11.622c-0.543-2.726,0.932-7.878,1.467-11.053c1.127-6.677,3.319-23.705,3.045-26.917l0.906,0.312
			c0.655,0,1.063-0.312,1.063-0.312c-0.271,3.212,1.912,20.24,3.034,26.917c0.539,3.162,2.012,8.316,1.48,11.053
			c-0.756,3.819-0.975,8.75-0.563,11.622c0.269,1.746,1.095,9.795-0.094,12.745c-0.617,1.537-1.743,9.45-1.743,9.45
			c-2.943,7.452-1.29,7.085-1.29,7.085c0.93,1.123,2.5,0.094,2.5,0.094c1.19,0.766,2.002-0.175,2.002-0.175
			c1.027,0.837,2.22-0.11,2.22-0.11c1.282,0.662,2.474-0.569,2.474-0.569c0.756,0.373,0.92-0.099,0.92-0.099
			c2.223-0.142-1.237-7.228-1.237-7.228c-0.831-6.375,0.821-9.922,0.821-9.922c5.395-15.999,5.669-20.246,3.513-26.275
			c-0.603-1.74-0.753-2.43-0.481-3.185c0.645-1.745,0.177-8.755,0.963-11.546c1.521-5.368,3.021-18.999,3.799-25.357
			c0.196-1.62,0.13-3.349-0.023-5.077h7.125l-0.009,0.196l0.098,2.364c0.042,0.602,0.384,2.681,0.327,3.678
			c-0.405,6.165,0.579,5.012,0.579,5.012c0.832,0,1.741-4.969,1.741-4.969c0,1.285-0.317,5.111,0.383,6.556
			c0.821,1.723,1.424-0.295,1.434-0.701c0.219-7.847,0.691-5.794,0.691-5.794c0.457,6.374,1.026,7.808,2.035,7.315
			c0.775-0.372,0.075-7.639,0.075-7.639c1.312,4.316,2.311,5.007,2.311,5.007c2.167,1.517,0.818-2.687,0.513-3.52
			c-1.596-4.421-1.642-5.953-1.642-5.953c2.003,3.968,3.524,3.819,3.524,3.819c1.258-0.398,0.142-2.91-1.357-5.346h7.256
			c1.545,0,2.801-1.264,2.801-2.802V40.345C139.854,38.796,138.604,37.543,137.053,37.543z M134.251,89.846H51.144V43.147h83.107
			V89.846z"/>
	</g>
</g>
<g>
</g>
<g>
</g>
<g>
</g>
<g>
</g>
<g>
</g>
<g>
</g>
<g>
</g>
<g>
</g>
<g>
</g>
<g>
</g>
<g>
</g>
<g>
</g>
<g>
</g>
<g>
</g>
<g>
</g>
</svg>
