<?xml version="1.0" encoding="iso-8859-1"?>
<!-- Generator: Adobe Illustrator 16.0.0, SVG Export Plug-In . SVG Version: 6.00 Build 0)  -->
<!DOCTYPE svg PUBLIC "-//W3C//DTD SVG 1.1//EN" "http://www.w3.org/Graphics/SVG/1.1/DTD/svg11.dtd">
<svg version="1.1" id="Capa_1" xmlns="http://www.w3.org/2000/svg" xmlns:xlink="http://www.w3.org/1999/xlink" x="0px" y="0px"
	 width="193.392px" height="193.392px" viewBox="0 0 193.392 193.392" style="enable-background:new 0 0 193.392 193.392;"
	 xml:space="preserve">
<g>
	<g>
		<path d="M64.382,133.17H33.955c0.286,0.627,0.518,1.211,1.06,1.979c1.23,1.711,3.23,3.842,2.01,8.215
			c0,0-1.574,8.451,1.744,10.479c0,0,3.772,4.477,18.95,2.613c5.307-0.646,15.107-3.228,20.956,4.115
			c0,0,13.969,26.537,15.028,32.821c0,0,6.372-11.29,16.498-23.121C105.682,149.105,86.878,133.17,64.382,133.17z"/>
		<path d="M154.773,23.571C143.958,11.487,129.637,0.265,94.262,0.003C80.439-0.11,59.337,3.163,42.927,20.523
			c-9.932,10.485-17.254,23.723-15.171,45.379c0.463,4.695,7.158,10.133,2.445,19.212c0,0-10.12,17.798-9.77,20.776
			c0,0-0.183,5.413,8.205,5.583c0,0,2.095,0.269,1.492,4.89l-0.095,6.619h34.343c25.011,0,46.244,16.209,53.94,38.636
			c8.202-7.929,17.896-14.876,28.297-17.22c0,0-7.082-15.984,7.325-36.676c0,0,18.066-23.839,18.602-36.945
			C172.553,70.789,177.321,48.731,154.773,23.571z"/>
	</g>
</g>
<g>
</g>
<g>
</g>
<g>
</g>
<g>
</g>
<g>
</g>
<g>
</g>
<g>
</g>
<g>
</g>
<g>
</g>
<g>
</g>
<g>
</g>
<g>
</g>
<g>
</g>
<g>
</g>
<g>
</g>
</svg>
