<?xml version="1.0" encoding="iso-8859-1"?>
<!-- Generator: Adobe Illustrator 16.0.0, SVG Export Plug-In . SVG Version: 6.00 Build 0)  -->
<!DOCTYPE svg PUBLIC "-//W3C//DTD SVG 1.1//EN" "http://www.w3.org/Graphics/SVG/1.1/DTD/svg11.dtd">
<svg version="1.1" id="Capa_1" xmlns="http://www.w3.org/2000/svg" xmlns:xlink="http://www.w3.org/1999/xlink" x="0px" y="0px"
	 width="160.876px" height="160.876px" viewBox="0 0 160.876 160.876" style="enable-background:new 0 0 160.876 160.876;"
	 xml:space="preserve">
<g>
	<path d="M139.64,40.192c-8.251-7.082-17.136-8.635-22.445-8.842c2.016-17.783-12.981-30.028-13.67-30.583
		c-1.212-0.974-2.929-1.022-4.195-0.137c-1.267,0.889-1.803,2.512-1.315,3.982c3.41,10.214-3.903,18.73-6.868,21.65
		c-8.385-1.44-43.397-6.043-67.072,13.131C9.77,50.985,2.505,68.945,2.499,92.774c-0.006,15.175-0.018,43.404,17.595,66.701
		c0.676,0.901,1.717,1.4,2.789,1.4c0.481,0,0.965-0.098,1.428-0.305c1.483-0.657,2.32-2.253,2.013-3.86
		c-0.073-0.39-7.106-38.581,10.774-51.867c2.874,2.733,6.05,4.7,9.554,5.942c14.995,5.286,31.956-4.469,46.905-13.079l2.88-1.656
		c7.77-4.444,16.69-8.434,23.888-4.348c7.404,4.202,16.398,18.913,17.281,65.19c0.03,1.632,1.175,3.021,2.776,3.361
		c1.565,0.316,3.209-0.475,3.897-1.948c0.566-1.206,13.944-30.263,14.097-60.696C158.516,70.309,152.195,50.997,139.64,40.192z
		 M143.853,139.71c-2.204-29.959-8.816-47.702-20.063-54.096c-11.643-6.625-24.594,0.791-30.823,4.342l-2.898,1.674
		c-13.649,7.855-29.112,16.775-41.083,12.544c-6.854-2.411-12.239-8.927-16.493-19.875c-0.7-1.814-2.731-2.697-4.527-1.997
		c-1.808,0.694-2.7,2.728-1.994,4.53c1.918,4.981,4.107,9.194,6.564,12.689c-12.821,9.864-14.958,28.973-14.626,42.697
		c-8.418-18.364-8.412-37.887-8.406-49.444c0.006-21.579,6.384-37.703,18.956-47.906c13.125-10.65,30.765-13.055,44.04-13.055
		c10.866,0,18.825,1.613,18.989,1.644c1.041,0.207,2.125-0.049,2.953-0.722c0.499-0.411,9.487-7.949,11.191-19.062
		c3.295,4.999,6.169,12.166,3.916,20.401c-0.305,1.148-0.019,2.357,0.767,3.249c0.786,0.886,1.974,1.327,3.137,1.136
		c0.48-0.076,11.648-1.583,21.707,7.146c10.869,9.42,16.319,26.905,16.204,51.956C151.306,113.149,147.428,128.683,143.853,139.71z"
		/>
</g>
<g>
</g>
<g>
</g>
<g>
</g>
<g>
</g>
<g>
</g>
<g>
</g>
<g>
</g>
<g>
</g>
<g>
</g>
<g>
</g>
<g>
</g>
<g>
</g>
<g>
</g>
<g>
</g>
<g>
</g>
</svg>
