<?xml version="1.0" encoding="iso-8859-1"?>
<!-- Generator: Adobe Illustrator 16.0.0, SVG Export Plug-In . SVG Version: 6.00 Build 0)  -->
<!DOCTYPE svg PUBLIC "-//W3C//DTD SVG 1.1//EN" "http://www.w3.org/Graphics/SVG/1.1/DTD/svg11.dtd">
<svg version="1.1" id="Capa_1" xmlns="http://www.w3.org/2000/svg" xmlns:xlink="http://www.w3.org/1999/xlink" x="0px" y="0px"
	 width="119.301px" height="119.3px" viewBox="0 0 119.301 119.3" style="enable-background:new 0 0 119.301 119.3;"
	 xml:space="preserve">
<g>
	<path d="M77.721,95.552c0,1.094-0.174,2.156-0.514,3.141c-1.746,7.879-17.54,17.806-17.54,17.806s-15.805-9.927-17.56-17.806
		c-0.33-0.984-0.516-2.035-0.516-3.141c0-3.853,2.136-7.201,5.278-8.941c1.464-0.81,3.149-1.27,4.933-1.27
		c3.154,0,5.978,1.434,7.855,3.688c1.864-2.254,4.69-3.688,7.843-3.688c1.783,0,3.458,0.46,4.925,1.27
		C75.593,88.351,77.721,91.71,77.721,95.552z M111.839,88.936v27.562c0,1.544-1.262,2.802-2.802,2.802
		c-1.548,0-2.802-1.258-2.802-2.802V88.936c0-18.117-7.976-27.189-26.396-30.191c-5.258,7.341-12.262,12.697-20.19,12.697
		c-7.927,0-14.921-5.356-20.188-12.697c-18.429,2.991-26.397,12.052-26.397,30.191v27.562c0,1.544-1.256,2.802-2.802,2.802
		c-1.541,0-2.801-1.258-2.801-2.802V88.936c0-25.636,15.408-32.785,28.717-35.352c-4.192-7.625-6.658-16.383-6.658-23.466
		C29.521,13.51,43.031,0,59.64,0c16.604,0,30.122,13.51,30.122,30.118c0,7.083-2.459,15.835-6.662,23.466
		C96.49,56.151,111.839,63.344,111.839,88.936z M84.178,30.112c0-13.516-10.996-24.514-24.517-24.514
		c-13.516,0-24.514,10.999-24.514,24.514c0,13.778,11.217,35.721,24.514,35.721C72.963,65.833,84.178,43.891,84.178,30.112z
		 M30.121,90.813c-1.541,0-2.801,1.259-2.801,2.802v22.878c0,1.538,1.26,2.802,2.801,2.802c1.546,0,2.802-1.264,2.802-2.802V93.615
		C32.922,92.06,31.678,90.813,30.121,90.813z M89.196,90.813c-1.549,0-2.802,1.259-2.802,2.802v22.878
		c0,1.538,1.253,2.802,2.802,2.802c1.537,0,2.802-1.264,2.802-2.802V93.615C91.998,92.06,90.747,90.813,89.196,90.813z"/>
</g>
<g>
</g>
<g>
</g>
<g>
</g>
<g>
</g>
<g>
</g>
<g>
</g>
<g>
</g>
<g>
</g>
<g>
</g>
<g>
</g>
<g>
</g>
<g>
</g>
<g>
</g>
<g>
</g>
<g>
</g>
</svg>
