<?xml version="1.0" encoding="iso-8859-1"?>
<!-- Generator: Adobe Illustrator 16.0.0, SVG Export Plug-In . SVG Version: 6.00 Build 0)  -->
<!DOCTYPE svg PUBLIC "-//W3C//DTD SVG 1.1//EN" "http://www.w3.org/Graphics/SVG/1.1/DTD/svg11.dtd">
<svg version="1.1" id="Capa_1" xmlns="http://www.w3.org/2000/svg" xmlns:xlink="http://www.w3.org/1999/xlink" x="0px" y="0px"
	 width="168.066px" height="168.066px" viewBox="0 0 168.066 168.066" style="enable-background:new 0 0 168.066 168.066;"
	 xml:space="preserve">
<g>
	<g>
		<path d="M115.389,83.272c-0.999-1.236-2.274-2.917-2.643-3.89c-0.607-1.68-1.056-7.064-1.056-7.064
			c-0.187-6.373-1.746-9.131-1.746-9.131c-2.69-4.309-3.193-12.32-3.193-12.32l-0.122-13.554C105.7,28.066,98.869,28,98.869,28
			c-6.885-1.037-7.838-3.25-7.838-3.25c-1.462-2.096-0.627-6.124-0.627-6.124c1.214-0.987,1.675-3.603,1.675-3.603
			c2.008-1.53,1.915-3.795,1.003-3.772c-0.763,0.019-0.582-0.594-0.582-0.594C93.761,0.503,84.738,0,84.738,0h-1.379
			c0,0-9.003,0.515-7.758,10.657c0,0,0.161,0.613-0.584,0.594c-0.929-0.022-1.02,2.232,0.997,3.772c0,0,0.459,2.616,1.676,3.603
			c0,0,0.829,4.027-0.628,6.124c0,0-0.959,2.219-7.839,3.25c0,0-6.819,0.066-7.76,9.314l-0.117,13.554c0,0-0.512,8.023-3.201,12.32
			c0,0-1.552,2.758-1.748,9.131c0,0-0.446,5.384-1.053,7.064c-0.364,0.985-1.648,2.653-2.645,3.89
			c-1.961,2.452-5.255,7.546-3.495,8.11c0,0,1.359,0.131,3.175-3.459c0,0-0.033,1.379-1.497,5.396
			c-0.278,0.754-1.497,4.552,0.471,3.185c0,0,0.904-0.625,2.097-4.548c0,0-0.633,6.594,0.063,6.922
			c0.925,0.448,1.438-0.843,1.847-6.627c0,0,0.426-1.863,0.624,5.259c0.011,0.357,0.56,2.188,1.305,0.635
			c0.621-1.308,0.348-4.787,0.348-5.953c0,0,0.817,4.498,1.567,4.498c0,0,0.887,1.051,0.534-4.531
			c-0.075-0.914,0.252-2.79,0.29-3.349l0.09-2.145c0,0-0.219-2.451-0.219-3.469c0-0.252,0.875-3.603,3.196-7.126
			c0,0,4.807-8.542,4.497-14.125c0,0-0.065-5.329,1.872-8.351c0,0,1.379,15.089,0.448,19.328c0,0-4.331,10.404-3.383,18.169
			c0.705,5.772,2.062,18.123,3.437,22.998c0.715,2.52,0.294,8.881,0.872,10.463c0.252,0.689,0.119,1.312-0.437,2.895
			c-1.955,5.467-1.697,9.313,3.195,23.825c0,0,1.501,3.212,0.743,8.99c0,0-3.127,6.419-1.113,6.556c0,0,0.163,0.427,0.823,0.082
			c0,0,1.076,1.111,2.247,0.515c0,0,1.081,0.854,2,0.093c0,0,0.755,0.842,1.839,0.164c0,0,1.411,0.941,2.246-0.088
			c0,0,1.508,0.351-1.172-6.422c0,0-1.025-7.157-1.58-8.559c-1.07-2.684-0.318-9.977-0.082-11.553
			c0.362-2.609,0.166-7.081-0.512-10.532c-0.482-2.475,0.853-7.147,1.334-10.021c1.018-6.052,2.997-21.494,2.75-24.399l0.819,0.284
			c0.593,0,0.981-0.284,0.981-0.284c-0.246,2.917,1.725,18.348,2.755,24.399c0.483,2.873,1.816,7.546,1.336,10.021
			c-0.679,3.451-0.875,7.923-0.512,10.532c0.237,1.576,0.992,8.875-0.08,11.553c-0.562,1.401-1.583,8.559-1.583,8.559
			c-2.679,6.762-1.171,6.422-1.171,6.422c0.835,1.029,2.251,0.088,2.251,0.088c1.084,0.678,1.841-0.164,1.841-0.164
			c0.917,0.771,1.992-0.093,1.992-0.093c1.177,0.597,2.247-0.515,2.247-0.515c0.667,0.345,0.831-0.082,0.831-0.082
			c1.998-0.132-1.116-6.556-1.116-6.556c-0.755-5.778,0.744-8.99,0.744-8.99c4.892-14.512,5.144-18.358,3.197-23.825
			c-0.565-1.57-0.691-2.205-0.439-2.895c0.585-1.582,0.159-7.943,0.87-10.463c1.381-4.87,2.735-17.221,3.437-22.998
			c0.952-7.765-3.382-18.169-3.382-18.169c-0.93-4.239,0.449-19.328,0.449-19.328c1.937,3.021,1.871,8.351,1.871,8.351
			c-0.317,5.578,4.498,14.125,4.498,14.125c2.32,3.535,3.197,6.884,3.197,7.126c0,1.022-0.221,3.469-0.221,3.469l0.09,2.145
			c0.042,0.559,0.35,2.435,0.294,3.349c-0.354,5.57,0.532,4.531,0.532,4.531c0.753,0,1.568-4.498,1.568-4.498
			c0,1.16-0.284,4.64,0.347,5.953c0.761,1.544,1.294-0.277,1.307-0.635c0.196-7.122,0.622-5.259,0.622-5.259
			c0.406,5.774,0.92,7.075,1.84,6.627c0.7-0.339,0.065-6.922,0.065-6.922c1.194,3.901,2.101,4.548,2.101,4.548
			c1.965,1.367,0.747-2.441,0.471-3.185c-1.466-4.018-1.499-5.396-1.499-5.396c1.807,3.601,3.176,3.459,3.176,3.459
			C120.647,90.818,117.331,85.725,115.389,83.272z M89.326,54.206c-3.155,2.014-4.336-2.194-4.659-3.53
			c-0.45-1.849-0.837-3.026-1.384-3.887c-1.891-3.042,0.117-5.038,0.117-5.038l0.033-0.016c-0.527-0.769-1.552-2.484-0.784-3.255
			c0,0,1.037-0.838,1.629,0c0.349,0.47,1.095,1.6,1.56,2.3l0.84-0.128c-0.133-1.364-0.219-3.71,0.813-3.62c0,0,0.94,0,0.94,1.642
			l0.032,2.014c0.539,0.087,1.043,0.222,1.515,0.402c0.48-1.311,1.378-3.251,2.185-2.742c0,0,1.028,0.356,0.348,1.85l-0.829,1.957
			l0.813,1.105C94.617,48.356,89.326,54.206,89.326,54.206z"/>
	</g>
</g>
<g>
</g>
<g>
</g>
<g>
</g>
<g>
</g>
<g>
</g>
<g>
</g>
<g>
</g>
<g>
</g>
<g>
</g>
<g>
</g>
<g>
</g>
<g>
</g>
<g>
</g>
<g>
</g>
<g>
</g>
</svg>
