<?xml version="1.0" encoding="iso-8859-1"?>
<!-- Generator: Adobe Illustrator 16.0.0, SVG Export Plug-In . SVG Version: 6.00 Build 0)  -->
<!DOCTYPE svg PUBLIC "-//W3C//DTD SVG 1.1//EN" "http://www.w3.org/Graphics/SVG/1.1/DTD/svg11.dtd">
<svg version="1.1" id="Capa_1" xmlns="http://www.w3.org/2000/svg" xmlns:xlink="http://www.w3.org/1999/xlink" x="0px" y="0px"
	 width="213.973px" height="213.973px" viewBox="0 0 213.973 213.973" style="enable-background:new 0 0 213.973 213.973;"
	 xml:space="preserve">
<g>
	<g>
		<path d="M99.029,175.246c0,0,1.352,31.249,2.025,37.362l10.875,1.364c0,0,16.982-29.222,8.829-36.699
			C120.758,177.273,99.702,165.734,99.029,175.246z"/>
		<path d="M134.678,176.61c-13.579,1.388-1.687,35.998-1.687,35.998l11.545-0.67C143.86,176.762,143.008,175.745,134.678,176.61z"/>
		<path d="M139.787,156.053c-14.608-13.25-34.818-5.091-34.818-5.091c-14.602,6.625-1.863,15.979-1.863,15.979
			c10.692,6.953,26.293,6.016,34.647,3.397C150.139,166.429,139.787,156.053,139.787,156.053z"/>
		<path d="M91.889,145.013c0,0-4.415,2.04-20.054-15.631c0,0,1.705-10.521-7.125-7.806c0,0-13.25,7.136-4.765,12.227
			c0,0,3.397,1.693,6.11,1.693l14.602,14.614c0,0,1.367,10.875,8.488,7.477C89.165,157.587,101.742,147.735,91.889,145.013z"/>
		<path d="M55.881,114.427l-9.179-11.209c0,0,4.415-9.496-5.093-7.133c0,0-12.571,5.432-6.455,9.846c0,0,3.397,1.364,5.788,1.023
			l8.485,10.524c0,0-2.375,12.574,8.829,5.085C58.256,122.587,68.437,114.427,55.881,114.427z"/>
		<path d="M39.574,91.682c-0.143-2.542-4.046-5.785-6.116-8.169c-7.42-8.497-8.224-0.691-7.472,1.023
			C33.802,102.2,39.781,95.512,39.574,91.682z"/>
		<path d="M155.746,103.217c-3.446-0.088-7.922,0.186-7.471,11.892c0.243,6.187-5.548,24.808-9.853,22.761
			c-2.978-1.412-3.489-10.96,5.784-31.268c1.146-2.505,9.316-8.11-3.403-10.525c-3.478-0.661-9.834-4.308-7.148,12.233
			c1.181,7.213-1.146,22.801-7.807,28.19c0,0-5.772-4.074-2.722-31.932c0,0,9.992-10.461,2.04-14.264
			c-3.185-1.516-12.139-5.313-13.25,4.762c-0.28,2.509,0.679,6.79,3.398,9.502c0,0,3.051,36.005-4.421,31.932
			c0,0-10.181-21.732-6.783-35.33c0,0,6.211-12.577-7.478-12.577c-1.023,0-12.203-1.851-3.048,14.273
			c3.742,6.591,7.462,22.082,6.104,31.935c-0.606,4.384-7.133,12.227,14.273,10.521c0,0,15.972,0.354,20.38,2.04
			c0,0,13.926,6.796,12.568-5.084c0,0,1.022-18.012,10.205-27.183C157.11,115.122,169.685,103.567,155.746,103.217z"/>
		<path d="M171.207,76.218c-6.442-3.404-5.268,4.92-5.268,4.92c-0.164,5.1-3.228,10.02-4.926,10.714
			c-0.914,0.365-2.217,1.19-3.051,1.52c-9.006,3.568,6.619,9.508,6.619,9.508c4.079-1.357,1.327-4.682,1.363-6.284
			c0.043-1.696,2.595-4.39,3.568-5.772c4.372-6.223,4.933-5.325,6.954-6.622C181.723,80.812,171.207,76.218,171.207,76.218z"/>
		<path d="M180.554,54.708c-5.23-1.79-3.367,4.302-3.367,4.302c0.469,3.839-1.242,7.901-2.436,8.598
			c-0.652,0.386-1.522,1.172-2.113,1.507c-6.333,3.735,6.083,6.369,6.083,6.369c2.898-1.504,0.438-3.675,0.28-4.878
			c-0.171-1.272,1.425-3.592,1.997-4.758c2.539-5.167,3.075-4.558,4.445-5.785C188.98,56.906,180.554,54.708,180.554,54.708z"/>
		<path d="M157.257,57.369c2.496-2.256-0.378-3.958-0.792-5.194c-0.438-1.297,0.615-4.104,0.913-5.456
			c1.353-6.046,1.997-5.535,3.069-7.14c2.765-4.158-5.943-4.49-5.943-4.49c-5.504-0.646-2.338,5.328-2.338,5.328
			c1.297,3.927,0.512,8.585-0.493,9.614l-1.729,2.083C144.579,57.53,157.257,57.369,157.257,57.369z"/>
		<path d="M126.585,48.184c2.911-2.947-0.426-5.143-0.907-6.759c-0.518-1.696,0.688-5.355,1.06-7.128
			c1.565-7.879,2.339-7.206,3.574-9.289c3.216-5.431-6.923-5.849-6.923-5.849c-6.402-0.84-2.734,6.933-2.734,6.933
			c1.511,5.115,0.604,11.201-0.584,12.541c-0.634,0.722-1.425,2.058-2.007,2.712C111.81,48.409,126.585,48.184,126.585,48.184z"/>
		<path d="M84.68,22.451c-6.391,0.911-0.773,7.426-0.773,7.426c2.819,4.527,3.568,10.625,2.789,12.227
			c-0.405,0.868-0.837,2.372-1.212,3.157c-4.125,8.467,10.047,4.308,10.047,4.308c2.006-3.617-1.802-4.85-2.707-6.271
			c-0.947-1.498-0.755-5.353-0.886-7.146c-0.59-8.014,0.338-7.572,0.962-9.91C94.562,20.164,84.68,22.451,84.68,22.451z"/>
		<path d="M91.384,18.137c3.243-2.588-1.446-4.527-2.35-5.938c-0.947-1.495-0.576-4.332-0.707-6.122
			c-0.143-1.909-1.689-4.253-4.077-3.398c-4.022,1.422,0.113,8.485-0.661,10.089c-0.411,0.865-1.428,1.322-1.714,2.144
			C79.662,20.855,89.237,19.832,91.384,18.137z"/>
		<path d="M129.423,15.923c2.375-1.278,0.414-4.089-0.207-5.647c-0.657-1.659,0.231-4.372,0.408-6.156
			c0.201-1.899-0.913-4.481-3.392-4.077c-4.202,0.673-1.432,8.361-2.473,9.794c-0.572,0.779-1.632,1.047-2.082,1.796
			C118.432,17.077,127.018,17.22,129.423,15.923z"/>
		<path d="M161.354,31.892c2.375-1.278,0.414-4.098-0.207-5.656c-0.657-1.65,0.231-4.369,0.414-6.153
			c0.194-1.903-0.913-4.484-3.397-4.07c-4.202,0.673-1.432,8.366-2.473,9.794c-0.572,0.773-1.638,1.047-2.082,1.796
			C150.363,33.046,158.949,33.189,161.354,31.892z"/>
		<path d="M186.855,44.542c-0.657-1.644,0.231-4.356,0.414-6.141c0.201-1.909-0.913-4.488-3.392-4.077
			c-4.207,0.673-1.431,8.367-2.478,9.795c-0.573,0.779-1.633,1.047-2.07,1.796c-3.246,5.45,5.334,5.587,7.745,4.29
			C189.438,48.926,187.483,46.107,186.855,44.542z"/>
		<path d="M114.642,78.602c-6.421,9.569,12.888,5.225,12.888,5.225c3.062-4.073-1.596-5.681-2.527-7.365
			c-0.998-1.778-0.207-6.217-0.115-8.288c0.39-9.265,1.474-8.71,2.624-11.377c2.96-6.954-9.989-4.534-9.989-4.534
			c-8.229,0.74-1.689,7.307-1.689,7.307c2.289,3.955,2.052,13.81,0.855,15.625C116.026,76.188,115.241,77.716,114.642,78.602z"/>
		<path d="M88.726,53.771c-8.074,1.814-0.715,7.465-0.715,7.465c2.773,3.605,3.842,13.405,2.886,15.369
			c-0.524,1.06-1.102,2.683-1.577,3.635c-5.118,10.345,13.463,3.492,13.463,3.492c2.494-4.439-2.326-5.419-3.486-6.951
			c-1.203-1.635-1.011-6.138-1.185-8.202c-0.837-9.24,0.335-8.835,1.108-11.627C101.249,49.657,88.726,53.771,88.726,53.771z"/>
		<path d="M148.281,92.193c2.605-2.875-0.341-5.504-0.676-7.307c-0.743-3.784,0.742-12.72,3.909-14.946
			c2.771-1.946,4.25-4.415,3.044-6.287c-2.764-4.357-8.701-4.025-11.045-2.031c-3.386,2.887,0.682,7.301,0.682,7.301
			s-0.39,14.404-3.903,15.625c-3.397,1.19-3.708,4.034-2.381,5.438C141.139,93.371,146.102,94.574,148.281,92.193z"/>
	</g>
</g>
<g>
</g>
<g>
</g>
<g>
</g>
<g>
</g>
<g>
</g>
<g>
</g>
<g>
</g>
<g>
</g>
<g>
</g>
<g>
</g>
<g>
</g>
<g>
</g>
<g>
</g>
<g>
</g>
<g>
</g>
</svg>
