<?xml version="1.0" encoding="iso-8859-1"?>
<!-- Generator: Adobe Illustrator 16.0.0, SVG Export Plug-In . SVG Version: 6.00 Build 0)  -->
<!DOCTYPE svg PUBLIC "-//W3C//DTD SVG 1.1//EN" "http://www.w3.org/Graphics/SVG/1.1/DTD/svg11.dtd">
<svg version="1.1" id="Capa_1" xmlns="http://www.w3.org/2000/svg" xmlns:xlink="http://www.w3.org/1999/xlink" x="0px" y="0px"
	 width="187.022px" height="187.021px" viewBox="0 0 187.022 187.021" style="enable-background:new 0 0 187.022 187.021;"
	 xml:space="preserve">
<g>
	<g>
		<path d="M128.423,92.665c-1.108-1.377-2.533-3.246-2.94-4.33c-0.677-1.869-1.176-7.861-1.176-7.861
			c-0.213-7.091-1.948-10.159-1.948-10.159c-2.996-4.795-3.55-13.71-3.55-13.71l-0.135-15.083
			c-1.041-10.291-8.64-10.363-8.64-10.363c-7.663-1.154-8.724-3.617-8.724-3.617c-1.625-2.332-0.696-6.813-0.696-6.813
			c1.346-1.1,1.863-4.01,1.863-4.01c2.229-1.702,2.125-4.223,1.104-4.199c-0.837,0.021-0.648-0.661-0.648-0.661
			C104.329,0.56,94.297,0,94.297,0h-1.535c0,0-10.032,0.572-8.634,11.858c0,0,0.186,0.682-0.648,0.661
			c-1.029-0.024-1.129,2.484,1.102,4.199c0,0,0.518,2.91,1.866,4.01c0,0,0.923,4.481-0.7,6.813c0,0-1.065,2.469-8.729,3.617
			c0,0-7.593,0.073-8.635,10.363l-0.137,15.083c0,0-0.557,8.927-3.556,13.71c0,0-1.739,3.068-1.946,10.159
			c0,0-0.505,5.992-1.184,7.861c-0.405,1.096-1.827,2.953-2.938,4.33c-2.174,2.728-5.849,8.396-3.897,9.023
			c0,0,1.528,0.146,3.544-3.848c0,0-0.04,1.534-1.666,6.004c-0.305,0.84-1.659,5.065,0.523,3.543c0,0,1.011-0.693,2.333-5.06
			c0,0-0.712,7.337,0.067,7.702c1.029,0.5,1.592-0.938,2.058-7.373c0,0,0.475-2.077,0.694,5.852
			c0.013,0.396,0.621,2.436,1.453,0.706c0.697-1.455,0.387-5.328,0.387-6.625c0,0,0.904,5.005,1.745,5.005
			c0,0,0.992,1.17,0.593-5.041c-0.07-1.018,0.274-3.105,0.323-3.727l0.095-2.388c0,0-0.25-2.728-0.25-3.86
			c0-0.28,0.98-4.007,3.559-7.928c0,0,5.359-9.505,5.015-15.72c0,0-0.076-5.931,2.083-9.292c0,0,1.534,16.791,0.493,21.507
			c0,0-4.819,11.579-3.76,20.22c0.786,6.424,2.302,20.167,3.833,25.592c0.794,2.802,0.319,9.883,0.974,11.643
			c0.28,0.768,0.137,1.462-0.487,3.222c-2.17,6.083-1.894,10.364,3.547,26.513c0,0,1.671,3.574,0.832,10.004
			c0,0-3.48,7.143-1.249,7.295c0,0,0.189,0.475,0.929,0.092c0,0,1.2,1.235,2.502,0.572c0,0,1.203,0.949,2.232,0.104
			c0,0,0.834,0.938,2.04,0.182c0,0,1.577,1.048,2.512-0.097c0,0,1.672,0.39-1.303-7.149c0,0-1.142-7.964-1.766-9.523
			c-1.19-2.983-0.348-11.1-0.092-12.854c0.417-2.904,0.198-7.879-0.557-11.722c-0.542-2.753,0.944-7.952,1.486-11.149
			c1.139-6.734,3.34-23.918,3.066-27.151l0.911,0.316c0.66,0,1.087-0.316,1.087-0.316c-0.274,3.245,1.918,20.417,3.065,27.151
			c0.536,3.197,2.028,8.396,1.486,11.149c-0.755,3.843-0.98,8.817-0.558,11.722c0.262,1.754,1.105,9.877-0.098,12.854
			c-0.624,1.56-1.76,9.523-1.76,9.523c-2.974,7.527-1.303,7.149-1.303,7.149c0.929,1.145,2.506,0.097,2.506,0.097
			c1.205,0.756,2.04-0.182,2.04-0.182c1.028,0.858,2.231-0.104,2.231-0.104c1.303,0.663,2.493-0.572,2.493-0.572
			c0.749,0.383,0.932-0.092,0.932-0.092c2.223-0.146-1.248-7.295-1.248-7.295c-0.834-6.43,0.834-10.004,0.834-10.004
			c5.45-16.148,5.718-20.43,3.55-26.513c-0.627-1.747-0.767-2.454-0.486-3.222c0.645-1.76,0.17-8.841,0.962-11.643
			c1.54-5.419,3.051-19.162,3.836-25.592c1.054-8.641-3.763-20.22-3.763-20.22c-1.042-4.716,0.493-21.507,0.493-21.507
			c2.155,3.361,2.082,9.292,2.082,9.292c-0.354,6.208,5.012,15.72,5.012,15.72c2.581,3.934,3.562,7.66,3.562,7.928
			c0,1.139-0.249,3.86-0.249,3.86l0.097,2.388c0.043,0.621,0.391,2.709,0.323,3.727c-0.396,6.211,0.597,5.041,0.597,5.041
			c0.84,0,1.741-5.005,1.741-5.005c0,1.291-0.311,5.163,0.39,6.625c0.835,1.717,1.438-0.311,1.449-0.706
			c0.22-7.929,0.694-5.852,0.694-5.852c0.463,6.424,1.023,7.873,2.052,7.373c0.78-0.377,0.073-7.702,0.073-7.702
			c1.321,4.341,2.332,5.06,2.332,5.06c2.187,1.522,0.828-2.715,0.524-3.543c-1.632-4.47-1.669-6.004-1.669-6.004
			c2.021,4.006,3.538,3.848,3.538,3.848C134.275,101.062,130.585,95.393,128.423,92.665z M104.438,81.558
			c-0.968,1.228-3.395,2.905-6.262,0.25c0,0-1.51-1.666-0.369-3.1l0.417-0.968l-0.767,0.35c-0.871,0.648-2.107,2.47-2.737,7.396
			c1.428,0.356,2.457,1.297,2.457,2.43c0,1.199-1.209,2.21-2.816,2.479c-0.052,1.516-0.058,3.19-0.009,5.084l0.021,0.664h-1.711
			l0.021-0.664c0.043-1.906,0.037-3.568-0.006-5.084c-1.617-0.269-2.819-1.279-2.819-2.479c0-1.133,1.029-2.073,2.457-2.43
			c-0.63-4.92-1.873-6.734-2.737-7.396l-0.767-0.35l0.417,0.968c1.148,1.434-0.362,3.1-0.362,3.1c-2.868,2.655-5.3,0.978-6.272-0.25
			c-2.95-3.754,0.174-9.012,2.29-10.78c2.542-2.128,4.269-0.5,5.076,0.487C91,72.555,90.5,74.394,89.9,75.146l-0.816,1.291
			l1.209,0.545c1.571,1.108,2.658,3.653,3.242,7.563c0.582-3.91,1.666-6.455,3.236-7.563l1.209-0.545l-0.822-1.281
			c-0.606-0.755-1.102-2.594-0.055-3.885c0.804-0.987,2.523-2.612,5.063-0.487C104.274,72.546,107.398,77.804,104.438,81.558z"/>
	</g>
</g>
<g>
</g>
<g>
</g>
<g>
</g>
<g>
</g>
<g>
</g>
<g>
</g>
<g>
</g>
<g>
</g>
<g>
</g>
<g>
</g>
<g>
</g>
<g>
</g>
<g>
</g>
<g>
</g>
<g>
</g>
</svg>
