<?xml version="1.0" encoding="iso-8859-1"?>
<!-- Generator: Adobe Illustrator 16.0.0, SVG Export Plug-In . SVG Version: 6.00 Build 0)  -->
<!DOCTYPE svg PUBLIC "-//W3C//DTD SVG 1.1//EN" "http://www.w3.org/Graphics/SVG/1.1/DTD/svg11.dtd">
<svg version="1.1" id="Capa_1" xmlns="http://www.w3.org/2000/svg" xmlns:xlink="http://www.w3.org/1999/xlink" x="0px" y="0px"
	 width="137.302px" height="137.303px" viewBox="0 0 137.302 137.303" style="enable-background:new 0 0 137.302 137.303;"
	 xml:space="preserve">
<g>
	<g>
		<path d="M112.271,63.792c-1.942-1.674-8.445-3.021-15.239-4.016l0.186-0.886V29.037c0-6.479-5.069-11.746-11.285-11.746
			c-2.077,0-4.006,0.621-5.681,1.652v-7.176C80.251,5.277,75.132,0,68.832,0c-5.841,0-10.612,4.55-11.28,10.389
			c-1.721-1.064-3.721-1.732-5.872-1.732c-6.297,0-11.419,5.272-11.419,11.768v17.49c-1.776-1.172-3.886-1.886-6.16-1.886
			c-6.084,0-11.034,4.949-11.351,11.141l-0.063,0.296v0.32v18.145v23.801l0.369,1.312v5.648c0,23.912,18.824,40.612,45.782,40.612
			c26.955,0,45.777-16.7,45.777-40.612V68.454C114.622,66.651,113.215,64.6,112.271,63.792z M80.251,29.037
			c0-3.385,2.553-6.143,5.687-6.143c3.137,0,5.686,2.758,5.686,6.143V58.89l0.033,0.164c-2.452-0.298-4.794-0.549-6.808-0.747
			c-1.69-0.118-3.185-0.033-4.586,0.123V29.037H80.251z M28.297,47.779c0-3.391,2.607-6.16,5.811-6.16
			c3.203,0,5.815,2.759,5.815,6.16v18.145c0,3.384-2.604,6.152-5.811,6.152c-2.554,0-4.667-1.783-5.446-4.213v-8.579l-0.369-1.325
			V47.779z M109.018,96.69c0,20.606-16.52,35.01-40.175,35.01c-23.658,0-40.177-14.403-40.177-35.01V76.192
			c1.625,0.918,3.462,1.487,5.446,1.487c6.086,0,11.035-4.946,11.353-11.13l0.062-0.304v-0.317v-0.998l0.341-1.272V20.418
			c0-3.39,2.61-6.17,5.817-6.17c3.069,0,5.535,2.561,5.737,5.749v46.216c0,1.551,1.256,2.799,2.801,2.799
			c1.547,0,2.802-1.248,2.802-2.799v-5.715l0.077-0.38V20.402l-0.077-0.791v-7.869c0-3.382,2.605-6.161,5.812-6.161
			c3.197,0,5.811,2.765,5.811,6.161v17.27v31.401c-1.768,1.16-3.168,2.695-3.953,4.842c-2.162,5.918,1.033,12.55,7.346,14.859
			l17.888,4.951c1.472,0.39,3.039-0.475,3.442-1.963c0.405-1.494-0.472-3.031-1.963-3.448l-17.658-4.87
			c-3.192-1.182-4.902-4.579-3.8-7.594c0.378-1.051,1.386-3.796,8.417-3.324c10.193,1.014,22.375,2.896,24.187,4.1l0.453,0.461
			L109.018,96.69L109.018,96.69z"/>
	</g>
</g>
<g>
</g>
<g>
</g>
<g>
</g>
<g>
</g>
<g>
</g>
<g>
</g>
<g>
</g>
<g>
</g>
<g>
</g>
<g>
</g>
<g>
</g>
<g>
</g>
<g>
</g>
<g>
</g>
<g>
</g>
</svg>
