<?xml version="1.0" encoding="iso-8859-1"?>
<!-- Generator: Adobe Illustrator 16.0.0, SVG Export Plug-In . SVG Version: 6.00 Build 0)  -->
<!DOCTYPE svg PUBLIC "-//W3C//DTD SVG 1.1//EN" "http://www.w3.org/Graphics/SVG/1.1/DTD/svg11.dtd">
<svg version="1.1" id="Capa_1" xmlns="http://www.w3.org/2000/svg" xmlns:xlink="http://www.w3.org/1999/xlink" x="0px" y="0px"
	 width="155.888px" height="155.889px" viewBox="0 0 155.888 155.889" style="enable-background:new 0 0 155.888 155.889;"
	 xml:space="preserve">
<g>
	<path d="M122.011,33.371h-14.687V22.03c0-2.217-1.796-4.01-4.019-4.01H81.958V4.009C81.958,1.796,80.155,0,77.945,0
		c-2.214,0-4.01,1.79-4.01,4.009v14.011H52.568c-2.213,0-4.01,1.793-4.01,4.01v11.341H33.88c-2.213,0-4.01,1.796-4.01,4.01v98.127
		c0,2.217,1.796,4.013,4.01,4.013h23.592c2.134,9.353,10.482,16.368,20.472,16.368c9.992,0,18.322-7.016,20.472-16.368H122
		c2.217,0,4.019-1.79,4.019-4.013V37.381C126.018,35.161,124.228,33.371,122.011,33.371z M77.951,147.869
		c-7.182,0-13.019-5.846-13.019-13.02c0-5.114,6.969-22.188,13.019-35.561c6.053,13.385,13.019,30.446,13.019,35.561
		C90.969,142.023,85.124,147.869,77.951,147.869z M118.005,131.501H98.581c-1.242-6.491-5.285-16.928-9.164-26.024h9.566
		c2.204,0,4.006-1.791,4.006-4.008c0-2.222-1.79-4.012-4.006-4.012h-13.08c-2.131-4.738-3.817-8.33-4.335-9.414
		c-1.328-2.789-5.9-2.789-7.228,0c-0.518,1.084-2.213,4.676-4.338,9.414H56.925c-2.213,0-4.004,1.79-4.004,4.012
		c0,2.217,1.791,4.008,4.004,4.008h9.566c-3.885,9.097-7.925,19.546-9.155,26.024H37.902V41.369H52.58c2.213,0,4.003-1.787,4.003-4
		V26.024h42.74v11.345c0,2.213,1.79,4,4.007,4h14.687v90.132H118.005z M102.989,57.414c0,2.214-1.79,4.01-4.006,4.01H56.918
		c-2.213,0-4.003-1.796-4.003-4.01c0-2.213,1.79-4.01,4.003-4.01h42.064C101.199,53.398,102.989,55.201,102.989,57.414z
		 M102.989,79.445c0,2.21-1.79,4-4.006,4H56.918c-2.213,0-4.003-1.777-4.003-4c0-2.216,1.79-4.003,4.003-4.003h42.064
		C101.199,75.441,102.989,77.223,102.989,79.445z"/>
</g>
<g>
</g>
<g>
</g>
<g>
</g>
<g>
</g>
<g>
</g>
<g>
</g>
<g>
</g>
<g>
</g>
<g>
</g>
<g>
</g>
<g>
</g>
<g>
</g>
<g>
</g>
<g>
</g>
<g>
</g>
</svg>
