<?xml version="1.0" encoding="iso-8859-1"?>
<!-- Generator: Adobe Illustrator 16.0.0, SVG Export Plug-In . SVG Version: 6.00 Build 0)  -->
<!DOCTYPE svg PUBLIC "-//W3C//DTD SVG 1.1//EN" "http://www.w3.org/Graphics/SVG/1.1/DTD/svg11.dtd">
<svg version="1.1" id="Capa_1" xmlns="http://www.w3.org/2000/svg" xmlns:xlink="http://www.w3.org/1999/xlink" x="0px" y="0px"
	 width="187.059px" height="187.06px" viewBox="0 0 187.059 187.06" style="enable-background:new 0 0 187.059 187.06;"
	 xml:space="preserve">
<g>
	<path d="M92.394,93.84c-0.5,0.864-0.911,1.852-0.996,3.075c-0.219,2.43,0.716,5.407,2.031,8.33l1.025,2.277
		c0.28,0.907,0.694,1.723,0.828,2.643c0.384,1.79,0.365,3.55,0.146,5.188c-0.427,3.295-1.692,6.041-2.865,8.27
		c-2.433,4.433-4.728,6.844-4.728,6.844s1.958-2.733,3.717-7.307c0.841-2.271,1.666-5.061,1.632-7.959
		c-0.012-1.437-0.186-2.928-0.69-4.268c-0.168-0.688-0.637-1.291-0.911-1.943l-1.303-2.082c-1.751-2.874-3.504-6.156-3.754-9.998
		c-0.131-1.912,0.274-3.849,0.986-5.554c0.381-0.828,0.871-1.559,1.315-2.295c0.536-0.642,1.065-1.242,1.564-1.827
		c0.024-0.034,0.049-0.058,0.079-0.082c-0.889-4.205,1.998-9.889,7.496-13.911c6.644-4.859,14.492-5.432,17.543-1.267
		c3.032,4.153,0.128,11.472-6.516,16.331c-5.066,3.715-10.808,4.896-14.626,3.423c-0.347,0.292-0.694,0.614-1.078,0.919
		C93.036,93.048,92.662,93.414,92.394,93.84z M110.299,96.343c-3.35,2.447-5.104,5.925-4.562,8.47
		c-0.018,0.024-0.03,0.036-0.049,0.049c-0.311,0.354-0.627,0.719-0.949,1.108c-0.274,0.45-0.566,0.889-0.798,1.4
		c-0.427,1.035-0.67,2.217-0.597,3.373c0.146,2.326,1.205,4.324,2.277,6.065l0.791,1.278c0.159,0.39,0.438,0.755,0.549,1.182
		c0.316,0.815,0.426,1.705,0.426,2.582c0.013,1.777-0.487,3.458-0.986,4.847c-1.071,2.776-2.259,4.444-2.259,4.444
		s1.395-1.473,2.874-4.164c0.712-1.352,1.467-3.021,1.735-5.03c0.128-0.986,0.134-2.07-0.104-3.172
		c-0.073-0.548-0.329-1.06-0.493-1.608l-0.628-1.382c-0.804-1.771-1.382-3.587-1.242-5.06c0.056-0.725,0.311-1.352,0.615-1.876
		c0.158-0.256,0.384-0.475,0.561-0.706c0.219-0.189,0.438-0.378,0.646-0.572c2.313,0.907,5.809,0.164,8.89-2.083
		c4.037-2.953,5.821-7.41,3.958-9.919C119.116,93.036,114.336,93.377,110.299,96.343z M73.097,84.64
		c-3.349,2.447-5.103,5.9-4.552,8.457c-0.027,0.013-0.04,0.037-0.052,0.037c-0.316,0.371-0.636,0.73-0.953,1.127
		c-0.268,0.443-0.566,0.889-0.797,1.4c-0.432,1.028-0.673,2.223-0.6,3.379c0.144,2.326,1.203,4.312,2.277,6.064l0.792,1.279
		c0.161,0.39,0.435,0.742,0.548,1.175c0.316,0.828,0.411,1.712,0.417,2.595c0.019,1.766-0.478,3.465-0.977,4.84
		c-1.081,2.777-2.265,4.434-2.265,4.434s1.403-1.455,2.874-4.165c0.718-1.34,1.474-3.002,1.741-5.018
		c0.131-0.986,0.144-2.07-0.1-3.154c-0.067-0.548-0.332-1.071-0.5-1.607l-0.624-1.388c-0.804-1.778-1.376-3.594-1.233-5.066
		c0.049-0.73,0.299-1.34,0.606-1.863c0.167-0.256,0.387-0.476,0.561-0.725c0.231-0.189,0.435-0.378,0.648-0.561
		c2.314,0.895,5.818,0.164,8.89-2.082c4.034-2.966,5.818-7.408,3.967-9.938C81.899,81.333,77.125,81.677,73.097,84.64z
		 M32.647,135.812V61.385c0-1.406,1.142-2.53,2.545-2.53h116.672c1.406,0,2.533,1.136,2.533,2.53v74.428
		c0,1.4-1.139,2.527-2.533,2.527H35.198C33.789,138.352,32.647,137.213,32.647,135.812z M37.728,133.279h111.603V63.918H37.728
		V133.279z M187.059,45.528c0,1.404-1.133,2.546-2.539,2.546h-14.9v95.21c0,5.662-4.609,10.278-10.278,10.278H27.715
		c-5.66,0-10.27-4.616-10.27-10.278v-95.21h-14.9c-1.416,0-2.54-1.148-2.54-2.546c0-1.394,1.142-2.53,2.54-2.53h181.98
		C185.926,42.999,187.059,44.134,187.059,45.528z M164.553,48.074H22.502v95.21c0,2.874,2.338,5.2,5.212,5.2h131.626
		c2.874,0,5.2-2.326,5.2-5.2v-95.21H164.553z M2.539,38.565H184.52c1.406,0,2.539-1.147,2.539-2.545
		c0-1.389-1.133-2.524-2.539-2.524H2.539C1.129,33.497,0,34.638,0,36.021C0,37.418,1.135,38.565,2.539,38.565z"/>
</g>
<g>
</g>
<g>
</g>
<g>
</g>
<g>
</g>
<g>
</g>
<g>
</g>
<g>
</g>
<g>
</g>
<g>
</g>
<g>
</g>
<g>
</g>
<g>
</g>
<g>
</g>
<g>
</g>
<g>
</g>
</svg>
