<?xml version="1.0" encoding="iso-8859-1"?>
<!-- Generator: Adobe Illustrator 16.0.0, SVG Export Plug-In . SVG Version: 6.00 Build 0)  -->
<!DOCTYPE svg PUBLIC "-//W3C//DTD SVG 1.1//EN" "http://www.w3.org/Graphics/SVG/1.1/DTD/svg11.dtd">
<svg version="1.1" id="Capa_1" xmlns="http://www.w3.org/2000/svg" xmlns:xlink="http://www.w3.org/1999/xlink" x="0px" y="0px"
	 width="163.862px" height="163.861px" viewBox="0 0 163.862 163.861" style="enable-background:new 0 0 163.862 163.861;"
	 xml:space="preserve">
<g>
	<path d="M155.357,51.376c-2.813-12.16-11.046-21.093-23.797-25.818c-7.532-2.782-24.563-5.291-34.708,1.583
		c-0.292-0.718-0.597-1.443-1.108-2.082L80.619,6.584c-2.521-3.13-7.515-3.653-10.65-1.102L55.178,17.562L43.094,2.772
		c-1.285-1.559-3.099-2.533-5.112-2.734c-2.009-0.201-3.998,0.402-5.532,1.693L13.951,16.844c-1.559,1.279-2.539,3.087-2.743,5.097
		c-0.207,2.009,0.387,3.988,1.663,5.553l12.096,14.784l-14.8,12.093c-1.559,1.273-2.521,3.087-2.734,5.103
		c-0.192,2.016,0.402,3.982,1.693,5.535l15.113,18.505c1.422,1.729,3.504,2.728,5.742,2.758c1.607,2.813,3.461,5.383,5.504,7.624
		c7.066,7.77,9.113,12.264,10.263,17.391c0.262,1.193,0.844,4.512,0.88,5.2c1.796,42.916,16.48,46.667,20.021,46.947
		c1.035,0.286,2.034,0.427,3.02,0.427c1.793,0,3.504-0.481,5.063-1.432c7.295-4.494,9.533-18.371,11.518-30.61
		c0.707-4.408,1.389-8.573,2.162-10.991c1.284-3.981,2.351-5.017,2.351-5.212c0.943,0.512,2.509,3.508,2.703,4.707
		c0.268,1.851,0.463,4.25,0.676,6.941c1.127,13.816,2.808,34.647,17.549,36.151c1.042,0.238,3.544,0.451,6.625-1.412
		c6.942-4.214,12.075-16.24,15.241-35.762l0.476-3.111c1.15-7.807,2.722-18.499,9.158-25.265
		C150.62,90.066,159.643,69.869,155.357,51.376z M17.69,23.555c-0.298-0.378-0.311-0.762-0.286-0.962
		c0.018-0.207,0.119-0.597,0.481-0.914l18.52-15.125c0.372-0.305,0.764-0.323,0.965-0.292c0.207,0.018,0.6,0.11,0.892,0.469
		l12.084,14.796L29.789,38.32L17.69,23.555z M13.939,61.07c-0.308-0.377-0.32-0.767-0.295-0.968
		c0.012-0.207,0.107-0.597,0.463-0.895l59.795-48.884c0.308-0.244,0.624-0.304,0.844-0.304c0.398,0,0.779,0.17,1.035,0.499
		L90.909,29.01c0.317,0.377,0.323,0.78,0.299,0.98s-0.109,0.59-0.476,0.895L30.94,79.77c-0.84,0.7-1.477,0.292-1.875-0.183
		L13.939,61.07z M75.05,51.753L87.158,66.55c0.28,0.335,0.305,0.7,0.28,0.944c-0.024,0.201-0.109,0.608-0.487,0.907L68.452,83.526
		c-0.566,0.45-1.422,0.384-1.87-0.177L54.499,68.547L75.05,51.753z M138.66,93.58c-7.806,8.201-9.608,20.514-10.796,28.668
		l-0.456,3.008c-3.636,22.335-9.019,29.111-11.904,31.164c-1.486,1.053-2.436,0.92-2.326,0.962c-0.22-0.079-0.463-0.128-0.694-0.14
		c-9.73-0.841-11.168-18.664-12.117-30.465c-0.231-2.85-0.433-5.383-0.725-7.337c-0.299-2.083-3.021-9.597-8.306-10.041
		c-5.852-0.621-8.057,7.052-8.854,9.536c-0.91,2.867-1.596,7.051-2.375,11.892c-1.498,9.28-3.766,23.297-8.638,26.306
		c-0.648,0.389-1.632,0.791-3.346,0.243c-0.244-0.085-0.648-0.134-0.904-0.146c-0.131-0.006-12.69-1.212-14.374-41.022
		c-0.067-1.376-0.786-5.219-1.011-6.26c-1.589-7.094-4.768-12.574-11.74-20.24c-1.577-1.711-2.993-3.715-4.29-5.857l13.88-11.345
		l12.083,14.81c1.483,1.82,3.666,2.752,5.849,2.752c1.69,0,3.374-0.555,4.783-1.693l18.508-15.125
		c1.571-1.291,2.546-3.111,2.74-5.133c0.188-2.004-0.401-3.964-1.687-5.511L79.87,47.82l13.694-11.198
		c1.321,0.456,2.813,0.042,3.604-1.188c5.834-8.957,24.149-6.99,32.212-4.007c10.845,4.019,17.537,11.204,19.894,21.367
		C152.897,68.334,145.431,86.474,138.66,93.58z"/>
</g>
<g>
</g>
<g>
</g>
<g>
</g>
<g>
</g>
<g>
</g>
<g>
</g>
<g>
</g>
<g>
</g>
<g>
</g>
<g>
</g>
<g>
</g>
<g>
</g>
<g>
</g>
<g>
</g>
<g>
</g>
</svg>
