<?xml version="1.0" encoding="iso-8859-1"?>
<!-- Generator: Adobe Illustrator 16.0.0, SVG Export Plug-In . SVG Version: 6.00 Build 0)  -->
<!DOCTYPE svg PUBLIC "-//W3C//DTD SVG 1.1//EN" "http://www.w3.org/Graphics/SVG/1.1/DTD/svg11.dtd">
<svg version="1.1" id="Capa_1" xmlns="http://www.w3.org/2000/svg" xmlns:xlink="http://www.w3.org/1999/xlink" x="0px" y="0px"
	 width="155.874px" height="155.874px" viewBox="0 0 155.874 155.874" style="enable-background:new 0 0 155.874 155.874;"
	 xml:space="preserve">
<g>
	<path d="M151.461,37.03c-8.025-17.147-24.473-24.768-36.121-26.089c-4.03-0.448-7.843-0.561-11.387-0.329
		C81.375,12.077,72.099,26.885,68.064,42.05C56.41,33.507,50.22,13.802,50.144,13.586c-0.737-2.427-3.303-3.766-5.748-3.062
		c-2.433,0.742-3.812,3.309-3.063,5.748c0.332,1.111,8.199,26.256,24.792,35.448c-0.822,5.632-1.154,10.912-1.397,15.107
		l-0.149,2.527c-1.645,25.892-30.09,31.104-45.368,33.892c-16.148,2.96-18.956,11.283-19.193,15.973
		c-0.466,9.377,8.239,17.786,16.581,20.173c17.071,4.908,33.496,6.894,48.811,5.895c31.201-2.034,58.048-16.818,73.673-40.548
		C160.376,72.435,157.563,50.088,151.461,37.03z M131.374,99.678c-14.029,21.3-38.295,34.58-66.576,36.425
		c-14.249,0.926-29.617-0.926-45.668-5.565c-5.297-1.522-10.126-6.808-9.913-10.862c0.161-3.344,4.402-6.041,11.643-7.356
		c15.208-2.776,50.805-9.292,52.917-42.38l0.155-2.588c1.349-23.126,4.826-45.851,30.607-47.544
		c2.996-0.191,6.277-0.097,9.742,0.296c9.274,1.053,22.402,7.14,28.814,20.825C148.209,51.857,150.311,70.925,131.374,99.678z"/>
</g>
<g>
</g>
<g>
</g>
<g>
</g>
<g>
</g>
<g>
</g>
<g>
</g>
<g>
</g>
<g>
</g>
<g>
</g>
<g>
</g>
<g>
</g>
<g>
</g>
<g>
</g>
<g>
</g>
<g>
</g>
</svg>
