<?xml version="1.0" encoding="iso-8859-1"?>
<!-- Generator: Adobe Illustrator 16.0.0, SVG Export Plug-In . SVG Version: 6.00 Build 0)  -->
<!DOCTYPE svg PUBLIC "-//W3C//DTD SVG 1.1//EN" "http://www.w3.org/Graphics/SVG/1.1/DTD/svg11.dtd">
<svg version="1.1" id="Capa_1" xmlns="http://www.w3.org/2000/svg" xmlns:xlink="http://www.w3.org/1999/xlink" x="0px" y="0px"
	 width="164.681px" height="164.681px" viewBox="0 0 164.681 164.681" style="enable-background:new 0 0 164.681 164.681;"
	 xml:space="preserve">
<g>
	<g>
		<path d="M164.033,57.591c0-2.253-0.463-4.473-1.376-6.625c1.229-2.162,1.875-4.518,1.875-6.881c0-3.169-1.12-6.229-3.202-8.862
			c1.777-2.786,2.703-5.91,2.703-9.164c0-8.479-6.357-15.82-15.016-17.628c-4.969-7.474-15.516-10.631-24.125-6.759
			c-7.101-3.166-15.576-1.677-21.045,3.143C97.905-1.44,87.608-1.358,81.726,4.963c-6.509-5.599-17.327-6.588-25.047-1.918
			c-7.457-4.64-17.72-3.793-24.278,1.852c-3.206-1.915-6.884-2.95-10.613-2.95c-11.101,0-20.134,8.567-20.134,19.099
			c0,3.051,0.755,6.01,2.208,8.692c-2.408,3.154-3.711,6.92-3.711,10.829c0,2.29,0.469,4.549,1.391,6.741
			c-0.916,1.689-1.391,3.461-1.391,5.27c0,3.304,1.479,6.391,4.177,8.885c-2.698,2.487-4.177,5.58-4.177,8.887
			c0,3.315,1.467,6.415,4.177,8.933c-0.615,1.909-0.923,3.854-0.923,5.831c0,9.746,7.371,17.972,16.974,19.16
			c1.589,1.382,3.312,2.654,5.118,3.818c8.126,5.212,17.795,8.159,21.108,3.002c2.898-4.488-1.897-10.584-7.721-15.199
			c2.141-3.172,3.288-6.898,3.288-10.787c0-3.934-1.184-7.675-3.456-10.936c0.463-1.239,0.7-2.518,0.7-3.821
			c0-3.307-1.479-6.394-4.18-8.887c2.701-2.488,4.18-5.581,4.18-8.885c0-1.808-0.469-3.574-1.391-5.27
			c0.917-2.192,1.391-4.451,1.391-6.741c0-1.196-0.131-2.399-0.38-3.571c6.509,2.263,13.953,1.042,19.278-2.999
			c7.544,3.696,17.333,2.394,23.407-2.831c5.873,6.33,16.185,6.402,22.127,0.149c5.493,4.838,13.933,6.323,21.045,3.13
			c1.242,0.551,2.533,0.962,3.896,1.248l0.146,0.237c-1.754,2.476-2.68,5.255-2.68,8.15c0,1.988,0.463,3.952,1.364,5.846
			c-1.218,2.42-1.863,5.032-1.863,7.66c0,3.501,1.12,6.933,3.179,9.883c-1.754,2.466-2.68,5.249-2.68,8.141
			c0,2.701,0.828,5.331,2.375,7.688c-4.311,3.413-6.887,8.443-6.887,13.832l0.03,0.523c-2.533,1.955-4.512,4.543-5.699,7.404
			c-5.151-0.335-10.278,1.432-14.108,4.799c-3.039-1.827-6.552-2.813-10.133-2.813c-5.925,0-11.371,2.563-14.988,6.954
			c-12.166-2.716-23.16,6.399-23.16,17.664c0,2.936,0.773,5.828,2.253,8.445c-0.432,2.662,0.067,7.168,1.333,15.705
			c0.356,2.355,0.749,5.029,0.749,5.754c0,1.711,1.397,3.117,3.118,3.117s3.118-1.406,3.118-3.117c0-1.145-0.292-3.173-0.819-6.674
			c-0.584-3.939-1.799-12.13-1.531-13.481c0.703-1.054,0.703-2.43-0.006-3.483c-1.291-1.936-1.979-4.092-1.979-6.266
			c0-6.564,5.788-11.88,12.897-11.88c1.37,0,2.773,0.243,4.296,0.749c1.346,0.438,2.85-0.098,3.617-1.291
			c2.363-3.744,6.516-5.961,11.104-5.961c3.094,0,6.107,1.084,8.513,3.045c1.304,1.09,3.246,0.906,4.354-0.391
			c3.105-3.678,8.33-5.303,12.897-4.378c1.692,0.359,3.275-0.706,3.653-2.356c0.682-2.983,2.679-5.699,5.456-7.404
			c1.084-0.657,1.607-2.21,1.4-3.452l-0.128-1.206c0-4.274,2.569-8.221,6.698-10.333c0.907-0.46,1.522-1.334,1.674-2.338
			c0.128-0.996-0.207-2.006-0.938-2.704c-1.34-1.267-2.923-3.355-2.923-6.144c0-2.649,1.456-4.682,2.691-5.916
			c1.169-1.19,1.193-3.111,0.049-4.335c-2.095-2.201-3.239-4.962-3.239-7.767c0-2.07,0.609-4.067,1.814-5.949
			c0.646-1.017,0.651-2.32,0.013-3.343c-0.89-1.403-1.328-2.819-1.328-4.213c0-2.646,1.456-4.676,2.691-5.918
			c1.169-1.197,1.193-3.118,0.049-4.333c-0.694-0.736-1.315-1.564-1.802-2.463c-0.463-0.874-1.34-1.461-2.314-1.598
			c-1.692-0.222-3.288-0.734-4.749-1.532c-0.926-0.499-2.059-0.499-2.984,0c-6.101,3.322-13.578,1.458-17.257-3.599
			c-0.621-0.855-1.473-1.409-2.679-1.278c-1.048,0.049-1.997,0.624-2.533,1.528c-1.863,3.166-4.884,5.063-8.074,5.063
			c-3.236,0-6.271-1.939-8.156-5.176c-0.524-0.911-1.458-1.489-2.506-1.553c-1.023-0.083-2.052,0.399-2.682,1.233
			c-4.196,5.584-13.555,7.155-19.902,3.139c-1.203-0.78-2.795-0.612-3.83,0.386c-4.951,4.75-13.399,5.225-18.999,0.768
			c-1.327-1.075-3.559-0.505-4.64,0.804l-0.472,0.536c-1.142,1.035-1.354,2.743-0.505,4.028c1.34,2.012,2.013,4.189,2.013,6.46
			c0,1.845-0.484,3.684-1.452,5.474c-0.573,1.066-0.478,2.363,0.243,3.334c0.804,1.087,1.209,2.165,1.209,3.2
			c0,2.283-1.751,4.521-4.808,6.123c-1.02,0.542-1.662,1.601-1.662,2.755c0,1.154,0.643,2.214,1.662,2.759
			c3.057,1.607,4.808,3.839,4.808,6.122c0,0.883-0.256,1.732-0.779,2.619c-0.679,1.154-0.561,2.606,0.313,3.623
			c1.464,1.714,3.224,4.588,3.224,8.516c0,3.456-1.336,6.708-3.76,9.198c-0.648,0.651-0.968,1.571-0.874,2.479
			c0.094,0.919,0.584,1.747,1.346,2.265c5.182,3.532,7.821,6.941,8.43,8.494c-1.689,0.129-6.302-0.913-12.215-4.707
			c-1.82-1.175-3.535-2.478-5.093-3.885c-0.518-0.469-1.178-0.748-1.875-0.797c-6.872-0.469-12.254-6.199-12.254-13.059
			c0-1.863,0.417-3.721,1.26-5.522c0.643-1.38,0.186-3.018-1.065-3.879c-1.291-0.886-3.45-2.75-3.45-5.355
			c0-2.284,1.754-4.521,4.808-6.126c1.023-0.542,1.666-1.602,1.666-2.755c0-1.154-0.643-2.214-1.666-2.756
			c-3.054-1.607-4.808-3.842-4.808-6.123c0-1.035,0.405-2.113,1.209-3.2c0.725-0.971,0.819-2.269,0.244-3.334
			c-0.965-1.79-1.453-3.629-1.453-5.477c0-3.066,1.261-6.035,3.547-8.336c1.081-1.09,1.212-2.792,0.314-4.027
			c-1.547-2.125-2.363-4.595-2.363-7.152c0-7.094,6.235-12.863,13.898-12.863c3.297,0,6.415,1.1,9.021,3.176
			c1.303,1.041,3.194,0.877,4.29-0.381c4.777-5.443,13.749-6.317,19.634-1.689c1.129,0.877,2.707,0.892,3.83,0.012
			c6.266-4.82,16.523-3.517,20.95,2.375c0.63,0.834,1.647,1.31,2.683,1.236c1.047-0.064,1.982-0.648,2.505-1.553
			c1.875-3.242,4.92-5.176,8.151-5.176c3.19,0,6.211,1.894,8.086,5.063c0.523,0.91,1.485,1.477,2.533,1.528
			c1.169,0.161,2.046-0.433,2.667-1.279c3.696-5.062,11.277-6.884,17.257-3.61c0.926,0.505,2.058,0.518,2.983,0
			c6.516-3.553,14.712-1.066,17.976,4.874c0.475,0.874,1.352,1.468,2.326,1.599c6.345,0.822,11.118,5.849,11.118,11.703
			c0,3.343-1.559,5.843-2.861,7.344c-1.121,1.285-0.999,3.218,0.256,4.354c1.425,1.285,3.105,3.428,3.105,6.33
			c0,1.662-0.585,3.279-1.712,4.807c-0.725,0.977-0.821,2.298-0.225,3.364c0.949,1.742,1.437,3.532,1.437,5.328
			c0,3.334-1.559,5.84-2.861,7.35c-1.121,1.279-0.999,3.219,0.256,4.348c1.997,1.815,3.105,4.059,3.105,6.327
			c0,3.556-2.595,6.859-6.771,8.625c-0.95,0.399-1.645,1.239-1.852,2.244c-0.194,1.011,0.098,2.052,0.816,2.782
			c2.131,2.211,3.3,5.006,3.3,7.861c0,3.952-2.149,7.636-5.748,9.858c-1.071,0.651-1.602,2.119-1.406,3.361l0.14,1.291
			c0,6.552-5.797,11.874-12.908,11.874c-0.932,0-1.863-0.109-2.74-0.287c-1.681-0.358-3.276,0.719-3.66,2.363
			c-1.236,5.468-6.539,9.444-12.599,9.444c-3.142,0-6.089-1.054-8.513-3.051c-1.303-1.071-3.251-0.913-4.359,0.384
			c-3.373,3.994-8.537,5.863-14.435,3.909c-1.321-0.438-3.029,0.481-3.814,1.662c-0.7,1.054-0.862,2.119-0.152,3.167
			c0.563,1.734-0.305,9.985-0.673,13.505c-0.256,2.46-0.454,4.476-0.454,5.396c0,1.711,1.397,3.117,3.118,3.117
			s3.117-1.406,3.117-3.117c0-0.804,0.192-2.582,0.424-4.756c0.572-5.413,0.904-9.292,0.88-12.081
			c5.468,0.591,10.783-1.229,14.754-4.719c3.044,1.827,6.558,2.813,10.12,2.813c7.928,0,15.004-4.726,17.816-11.558
			c10.839,0.657,20.338-7.709,20.338-18.073L153,111.127c4.433-3.44,7.026-8.531,7.026-13.999c0-3.191-0.913-6.284-2.605-9.03
			c4.457-3.011,7.105-7.557,7.105-12.483c0-3.167-1.126-6.235-3.196-8.86C163.107,63.955,164.033,60.831,164.033,57.591z"/>
	</g>
</g>
<g>
</g>
<g>
</g>
<g>
</g>
<g>
</g>
<g>
</g>
<g>
</g>
<g>
</g>
<g>
</g>
<g>
</g>
<g>
</g>
<g>
</g>
<g>
</g>
<g>
</g>
<g>
</g>
<g>
</g>
</svg>
