<?xml version="1.0" encoding="iso-8859-1"?>
<!-- Generator: Adobe Illustrator 16.0.0, SVG Export Plug-In . SVG Version: 6.00 Build 0)  -->
<!DOCTYPE svg PUBLIC "-//W3C//DTD SVG 1.1//EN" "http://www.w3.org/Graphics/SVG/1.1/DTD/svg11.dtd">
<svg version="1.1" id="Capa_1" xmlns="http://www.w3.org/2000/svg" xmlns:xlink="http://www.w3.org/1999/xlink" x="0px" y="0px"
	 width="160.694px" height="160.695px" viewBox="0 0 160.694 160.695" style="enable-background:new 0 0 160.694 160.695;"
	 xml:space="preserve">
<g>
	<g>
		<path d="M157.631,51.043c-3.3-4.969-10.766-10.991-27.511-11.43l-1.205-0.012c-3.367,0-7.624,0.325-12.111,0.66
			c-8.769,0.667-18.377,1.172-22.822,0.119c-4.269-1.002-9.536-3.261-15.144-5.654c-11.277-4.825-24.049-10.3-37.698-10.3
			c-3.605,0-7.121,0.39-10.455,1.176C17.578,28.684,3.798,47.728,1.158,66.345c-1.571,11.076-4.214,57.938,12.863,67.767
			c2.396,1.364,5.751,2.155,9.216,2.155c6.829,0,12.623-2.91,15.938-7.959c7.152-10.984,13.393-17.926,50.001-22.334
			c25.447-3.045,33.813-9.98,39.915-15.017l0.535-0.438c2.168-1.79,5.688-3.921,9.414-6.198c8.477-5.14,18.085-10.979,20.716-17.763
			C161.133,62.954,161.419,56.743,157.631,51.043z M89.542,99.641l-1.132,0.146c-38.566,4.628-46.302,12.58-54.477,25.1
			c-3.017,4.634-8.488,5.133-10.708,5.133c-2.786,0-4.987-0.676-6.104-1.327C5.88,122.238,4.763,85.24,7.32,67.225
			C9.771,49.911,22.647,33.896,32.106,31.67c2.874-0.673,5.897-1.014,9.021-1.014c12.358,0,24.53,5.206,35.241,9.794
			c4.296,1.839,8.431,3.596,12.218,4.85C89.743,48.425,99.888,77.427,89.542,99.641z M153.929,64.287
			c-1.869,4.807-10.887,10.296-18.133,14.699c-3.934,2.388-7.648,4.641-10.145,6.711l-0.549,0.45
			c-4.804,3.958-11.155,9.207-28.314,12.367c7.368-19.845,1.852-42.356-1.06-51.578c5.621,0.579,13.799,0.137,21.52-0.457
			c4.384-0.335,8.524-0.648,11.654-0.648l1.042,0.012c14.084,0.374,20.002,4.908,22.493,8.649
			C155.067,58.472,154.617,62.524,153.929,64.287z"/>
	</g>
</g>
<g>
</g>
<g>
</g>
<g>
</g>
<g>
</g>
<g>
</g>
<g>
</g>
<g>
</g>
<g>
</g>
<g>
</g>
<g>
</g>
<g>
</g>
<g>
</g>
<g>
</g>
<g>
</g>
<g>
</g>
</svg>
