<?xml version="1.0" encoding="iso-8859-1"?>
<!-- Generator: Adobe Illustrator 16.0.0, SVG Export Plug-In . SVG Version: 6.00 Build 0)  -->
<!DOCTYPE svg PUBLIC "-//W3C//DTD SVG 1.1//EN" "http://www.w3.org/Graphics/SVG/1.1/DTD/svg11.dtd">
<svg version="1.1" id="Capa_1" xmlns="http://www.w3.org/2000/svg" xmlns:xlink="http://www.w3.org/1999/xlink" x="0px" y="0px"
	 width="206.315px" height="206.315px" viewBox="0 0 206.315 206.315" style="enable-background:new 0 0 206.315 206.315;"
	 xml:space="preserve">
<g>
	<g>
		<path d="M152.51,41.777h-22.566c-2.466-7.24-8.586-7.41-8.586-7.41c-8.445-1.258-9.621-3.988-9.621-3.988
			c-1.79-2.576-0.767-7.515-0.767-7.515c1.485-1.211,2.058-4.414,2.058-4.414c2.467-1.897,2.339-4.658,1.212-4.628
			c-0.919,0.024-0.712-0.734-0.712-0.734C115.062,0.643,104.007,0,104.007,0h-1.69c0,0-11.07,0.643-9.523,13.088
			c0,0,0.207,0.758-0.709,0.734c-1.142-0.03-1.242,2.731,1.208,4.628c0,0,0.582,3.203,2.058,4.414c0,0,1.023,4.938-0.767,7.515
			c0,0-1.172,2.73-9.633,3.988c0,0-6.104,0.164-8.573,7.41H53.799c-1.72,0-3.118,1.395-3.118,3.118v58.199
			c0,1.712,1.397,3.118,3.118,3.118h8.074c-1.69,2.722-2.911,5.505-1.489,5.949c0,0,1.684,0.164,3.909-4.25
			c0,0-0.058,1.698-1.839,6.625c-0.35,0.925-1.827,5.602,0.584,3.915c0,0,1.111-0.768,2.57-5.571c0,0-0.779,8.086,0.076,8.5
			c1.132,0.548,1.75-1.047,2.262-8.142c0,0,0.524-2.283,0.768,6.449c0.012,0.45,0.673,2.697,1.607,0.779
			c0.767-1.607,0.417-5.864,0.417-7.295c0,0,0.999,5.529,1.934,5.529c0,0,1.099,1.284,0.648-5.578
			c-0.073-1.12,0.313-3.422,0.362-4.092l0.112-2.631l-0.024-0.219h7.925c-0.183,1.937-0.256,3.848-0.045,5.65
			c0.874,7.088,2.533,22.244,4.235,28.217c0.88,3.094,0.356,10.9,1.072,12.849c0.319,0.841,0.149,1.62-0.536,3.544
			c-2.387,6.71-2.083,11.436,3.921,29.24c0,0,1.842,3.945,0.911,11.039c0,0-3.827,7.886-1.376,8.044c0,0,0.198,0.524,1.023,0.11
			c0,0,1.328,1.369,2.755,0.633c0,0,1.328,1.054,2.469,0.122c0,0,0.917,1.047,2.244,0.194c0,0,1.741,1.17,2.761-0.104
			c0,0,1.842,0.408-1.434-7.885c0,0-1.245-8.793-1.939-10.517c-1.315-3.282-0.387-12.251-0.109-14.182
			c0.459-3.209,0.216-8.695-0.612-12.933c-0.605-3.033,1.035-8.77,1.632-12.301c1.255-7.429,3.693-26.378,3.389-29.952l1.008,0.347
			c0.73,0,1.185-0.347,1.185-0.347c-0.305,3.574,2.128,22.523,3.373,29.952c0.604,3.52,2.241,9.256,1.65,12.301
			c-0.84,4.25-1.084,9.736-0.627,12.933c0.292,1.942,1.218,10.899-0.104,14.182c-0.688,1.711-1.948,10.517-1.948,10.517
			c-3.268,8.293-1.429,7.885-1.429,7.885c1.035,1.248,2.78,0.104,2.78,0.104c1.327,0.853,2.229-0.194,2.229-0.194
			c1.145,0.932,2.472-0.122,2.472-0.122c1.425,0.736,2.753-0.633,2.753-0.633c0.828,0.414,1.022-0.11,1.022-0.11
			c2.473-0.158-1.388-8.044-1.388-8.044c-0.914-7.094,0.925-11.039,0.925-11.039c6.004-17.805,6.309-22.53,3.909-29.24
			c-0.682-1.937-0.84-2.703-0.535-3.544c0.719-1.942,0.194-9.743,1.071-12.849c1.693-5.973,3.361-21.141,4.226-28.217
			c0.22-1.803,0.146-3.727-0.023-5.65h7.928l-0.013,0.219l0.11,2.631c0.049,0.67,0.426,2.983,0.365,4.092
			c-0.451,6.862,0.646,5.578,0.646,5.578c0.925,0,1.93-5.529,1.93-5.529c0,1.431-0.347,5.688,0.433,7.295
			c0.913,1.918,1.583-0.329,1.596-0.779c0.243-8.732,0.767-6.449,0.767-6.449c0.512,7.095,1.146,8.689,2.266,8.142
			c0.864-0.414,0.085-8.5,0.085-8.5c1.462,4.804,2.569,5.571,2.569,5.571c2.399,1.687,0.914-2.99,0.573-3.915
			c-1.784-4.921-1.827-6.625-1.827-6.625c2.229,4.414,3.909,4.25,3.909,4.25c1.413-0.444,0.171-3.239-1.498-5.949h8.074
			c1.717,0,3.118-1.406,3.118-3.118V44.896C155.627,43.172,154.233,41.777,152.51,41.777z M149.392,99.978H104.71
			c0.012-1.169,0.024-2.313,0.049-3.389c3.081-0.502,5.383-2.436,5.383-4.749c0-2.146-1.955-3.943-4.677-4.604
			c1.19-9.39,3.55-12.857,5.225-14.103l1.455-0.655c-0.085,0.728-0.384,1.339-0.804,1.857c-2.198,2.756,0.676,5.907,0.676,5.907
			c5.486,5.06,10.108,1.881,11.959-0.469c5.627-7.146-0.316-17.208-4.341-20.563c-4.859-4.043-8.166-0.956-9.688,0.929
			c-1.991,2.469-1.047,5.967,0.116,7.413c0.73,0.91,1.229,1.714,1.57,2.451c-0.676,0.131-1.467,0.423-2.313,1.014
			c-2.99,2.141-5.051,6.966-6.168,14.443c-1.111-7.478-3.182-12.321-6.175-14.443c-0.828-0.597-1.62-0.883-2.299-1.014
			c0.335-0.719,0.828-1.522,1.571-2.451c1.154-1.446,2.095-4.956,0.119-7.413c-1.535-1.897-4.826-4.984-9.691-0.929
			c-4.028,3.355-9.989,13.411-4.351,20.563c1.851,2.35,6.491,5.529,11.959,0.469c0,0,2.874-3.151,0.673-5.907
			c-0.393-0.518-0.712-1.114-0.792-1.851c0.399,0.073,0.898,0.231,1.458,0.648c1.659,1.239,4.021,4.713,5.224,14.103
			c-2.719,0.66-4.688,2.469-4.688,4.604c0,2.313,2.302,4.247,5.382,4.749c0.037,1.075,0.049,2.22,0.062,3.389H56.911V48.013h92.481
			V99.978L149.392,99.978z"/>
	</g>
</g>
<g>
</g>
<g>
</g>
<g>
</g>
<g>
</g>
<g>
</g>
<g>
</g>
<g>
</g>
<g>
</g>
<g>
</g>
<g>
</g>
<g>
</g>
<g>
</g>
<g>
</g>
<g>
</g>
<g>
</g>
</svg>
