<?xml version="1.0" encoding="iso-8859-1"?>
<!-- Generator: Adobe Illustrator 16.0.0, SVG Export Plug-In . SVG Version: 6.00 Build 0)  -->
<!DOCTYPE svg PUBLIC "-//W3C//DTD SVG 1.1//EN" "http://www.w3.org/Graphics/SVG/1.1/DTD/svg11.dtd">
<svg version="1.1" id="Capa_1" xmlns="http://www.w3.org/2000/svg" xmlns:xlink="http://www.w3.org/1999/xlink" x="0px" y="0px"
	 width="187.059px" height="187.059px" viewBox="0 0 187.059 187.059" style="enable-background:new 0 0 187.059 187.059;"
	 xml:space="preserve">
<g>
	<path d="M119.928,89.251c-1.193-0.244-2.362,0.511-2.63,1.69c-0.329,1.379-0.975,4.445-1.583,8.202V80.38
		c0-1.242-0.999-2.232-2.229-2.232c-1.242,0-2.241,0.99-2.241,2.232v18.739c-0.597-3.757-1.248-6.805-1.571-8.178
		c-0.28-1.19-1.455-1.945-2.643-1.69c-12.902,2.646-22.283,13.6-22.283,26.052c0,3.058,0.588,6.126,1.723,9.098
		c0.274,0.718,0.898,1.242,1.65,1.4c0.295,0.061,7.209,1.431,12.966,1.431h0.013c3.952,0,6.467-0.646,7.922-1.997
		c3.684-3.435,3.812-12.062,3.026-19.905h2.88c-0.779,7.843-0.639,16.483,3.026,19.905c1.449,1.37,3.971,1.997,7.922,1.997
		c5.761,0,12.678-1.382,12.971-1.431c0.755-0.158,1.376-0.683,1.662-1.4c1.145-2.972,1.711-6.04,1.711-9.098
		C142.233,102.852,132.856,91.897,119.928,89.251z M105.96,121.966c-0.049,0.036-0.901,0.791-4.859,0.791h-0.013
		c-3.937,0-8.643-0.743-10.832-1.126c-0.667-2.089-1.011-4.208-1.011-6.327c0-9.633,6.841-18.206,16.544-21.117
		C107.927,104.587,109.249,118.872,105.96,121.966z M136.729,121.631c-2.198,0.383-6.905,1.126-10.839,1.126
		c-3.988,0-4.829-0.755-4.854-0.791c-3.288-3.081-1.96-17.366,0.152-27.779c9.725,2.923,16.544,11.497,16.544,21.13
		C137.733,117.423,137.392,119.542,136.729,121.631z M152.074,106.365c0-13.442-6.875-25.312-17.275-32.291l0.013-8.235
		c-0.037-9.216-7.526-16.7-16.733-16.7c0,0-0.013,0-0.024,0l-18.9,0.018c7.44-4.731,12.409-13.037,12.409-22.496
		C111.562,11.965,99.603,0,84.895,0C70.189,0,58.224,11.965,58.224,26.661c0,9.484,4.996,17.796,12.465,22.53l-19.004,0.024
		c-9.222,0-16.712,7.514-16.7,16.736v56.38c0,1.229,0.999,2.229,2.235,2.229h19.184v45.778c0,9.219,7.17,16.721,15.999,16.721
		h24.941c8.829,0,16.015-7.502,16.015-16.721v-25.124C134.713,145.104,152.074,127.726,152.074,106.365z M62.709,26.655
		c0-12.239,9.962-22.198,22.198-22.198c12.239,0,22.198,9.959,22.198,22.198c0,12.233-9.959,22.186-22.198,22.186
		C72.652,48.841,62.709,38.888,62.709,26.655z M97.362,182.564H86.889c0.137-0.305,0.243-0.621,0.243-0.968v-40.938
		c0-1.229-0.999-2.229-2.237-2.229c-1.236,0-2.241,0.999-2.241,2.229v40.938c0,0.347,0.101,0.663,0.244,0.968H72.424
		c-6.36,0-11.536-5.492-11.536-12.238v-47.965c0-0.012,0.012-0.024,0.012-0.043c0-0.018-0.012-0.023-0.012-0.049V84.027
		c0-1.228-0.999-2.232-2.231-2.232c-1.236,0-2.241,1.004-2.241,2.232v36.038h-16.94V65.921c-0.006-3.258,1.261-6.342,3.559-8.656
		c2.314-2.314,5.383-3.586,8.656-3.592l66.381-0.073h0.012c6.734,0,12.228,5.492,12.239,12.227v5.672
		c-5.157-2.542-10.96-4.019-17.092-4.019c-21.434,0-38.855,17.428-38.855,38.843c0,19.961,15.144,36.443,34.532,38.6v25.367
		C108.895,177.072,103.719,182.564,97.362,182.564z M113.218,140.721c-18.952,0-34.379-15.418-34.379-34.367
		c0-18.953,15.427-34.38,34.379-34.38c18.949,0,34.367,15.427,34.367,34.38C147.585,125.314,132.167,140.721,113.218,140.721z"/>
</g>
<g>
</g>
<g>
</g>
<g>
</g>
<g>
</g>
<g>
</g>
<g>
</g>
<g>
</g>
<g>
</g>
<g>
</g>
<g>
</g>
<g>
</g>
<g>
</g>
<g>
</g>
<g>
</g>
<g>
</g>
</svg>
