<?xml version="1.0" encoding="iso-8859-1"?>
<!-- Generator: Adobe Illustrator 16.0.0, SVG Export Plug-In . SVG Version: 6.00 Build 0)  -->
<!DOCTYPE svg PUBLIC "-//W3C//DTD SVG 1.1//EN" "http://www.w3.org/Graphics/SVG/1.1/DTD/svg11.dtd">
<svg version="1.1" id="Capa_1" xmlns="http://www.w3.org/2000/svg" xmlns:xlink="http://www.w3.org/1999/xlink" x="0px" y="0px"
	 width="187.059px" height="187.059px" viewBox="0 0 187.059 187.059" style="enable-background:new 0 0 187.059 187.059;"
	 xml:space="preserve">
<g>
	<path d="M105.485,86.271c5.493,6.187,8.422,19.997,7.246,27.754c-0.462,3.13-1.57,5.236-3.281,6.284
		c-1.59,0.962-3.596,1.437-5.965,1.437c-8.756,0-20.81-6.405-25.34-11.922c-5.562-6.76-5.365-15.941,0.055-22.506
		c-1.242-4.396-1.16-9.664,1.976-15.269c0.606-1.081,1.97-1.452,3.051-0.862c1.083,0.618,1.47,1.964,0.865,3.051
		c-1.976,3.529-2.417,6.783-2.077,9.593c1.2-0.853,2.451-1.583,3.788-2.131c0.03-1.303,0.143-2.631,0.49-3.979
		c1.147-4.39,4.028-7.925,8.561-10.491c1.066-0.612,2.451-0.238,3.063,0.852c0.609,1.084,0.226,2.451-0.855,3.057
		c-3.428,1.936-5.587,4.53-6.421,7.681c-0.149,0.573-0.207,1.142-0.268,1.702c0.709-0.088,1.416-0.194,2.125-0.194
		c0.274,0,0.536,0.076,0.81,0.088c0.106-0.332,0.158-0.654,0.295-0.983c1.407-3.461,4.232-5.961,8.397-7.459
		c1.172-0.393,2.457,0.195,2.868,1.358c0.41,1.175-0.18,2.46-1.353,2.862c-2.962,1.062-4.832,2.67-5.76,4.902
		c-0.016,0.058-0.016,0.106-0.04,0.143C100.647,82.206,103.327,83.848,105.485,86.271z M143.433,65.839l-0.013,56.382
		c0,1.225-0.998,2.235-2.223,2.235l-19.192,0.116v45.754c0,9.23-7.18,16.732-16.009,16.732H81.056
		c-8.823,0-16.005-7.502-16.005-16.732v-45.754H45.863c-1.239,0-2.238-1.012-2.238-2.241v-56.38
		c-0.006-4.466,1.727-8.674,4.88-11.822c3.157-3.164,7.353-4.908,11.816-4.908l19.001-0.013
		c-7.471-4.74-12.464-13.052-12.464-22.529C66.859,11.971,78.824,0,93.526,0c14.706,0,26.676,11.971,26.676,26.667
		c0,9.466-4.969,17.771-12.422,22.49l18.901-0.012c0.012,0,0.023,0,0.036,0C135.907,49.139,143.409,56.629,143.433,65.839z
		 M93.526,48.841c12.239,0,22.195-9.959,22.195-22.186c0-12.239-9.956-22.192-22.195-22.192c-12.233,0-22.192,9.953-22.192,22.192
		C71.328,38.895,81.287,48.841,93.526,48.841z M138.952,65.851c-0.013-6.746-5.511-12.227-12.246-12.227h-0.012L60.31,53.685
		c-3.267,0.013-6.342,1.279-8.641,3.593c-2.308,2.326-3.581,5.386-3.574,8.662v54.139h16.943V84.045
		c0-1.233,1.001-2.238,2.244-2.238c1.233,0,2.238,1.005,2.238,2.238v38.237c0,0.024,0.012,0.036,0.012,0.049
		c0,0.012-0.012,0.024-0.012,0.049v47.946c0,6.758,5.176,12.238,11.524,12.238H91.52c-0.146-0.292-0.244-0.621-0.244-0.962v-40.931
		c0-1.242,1.001-2.235,2.238-2.235c1.239,0,2.244,0.993,2.244,2.235v40.931c0,0.354-0.1,0.67-0.244,0.962h10.471
		c6.363,0,11.539-5.48,11.539-12.238V84.045c0-1.239,0.992-2.244,2.234-2.244c1.236,0,2.247,1.004,2.247,2.244v36.044l16.934-0.098
		L138.952,65.851z"/>
</g>
<g>
</g>
<g>
</g>
<g>
</g>
<g>
</g>
<g>
</g>
<g>
</g>
<g>
</g>
<g>
</g>
<g>
</g>
<g>
</g>
<g>
</g>
<g>
</g>
<g>
</g>
<g>
</g>
<g>
</g>
</svg>
