<?xml version="1.0" encoding="iso-8859-1"?>
<!-- Generator: Adobe Illustrator 16.0.0, SVG Export Plug-In . SVG Version: 6.00 Build 0)  -->
<!DOCTYPE svg PUBLIC "-//W3C//DTD SVG 1.1//EN" "http://www.w3.org/Graphics/SVG/1.1/DTD/svg11.dtd">
<svg version="1.1" id="Capa_1" xmlns="http://www.w3.org/2000/svg" xmlns:xlink="http://www.w3.org/1999/xlink" x="0px" y="0px"
	 width="132.851px" height="132.851px" viewBox="0 0 132.851 132.851" style="enable-background:new 0 0 132.851 132.851;"
	 xml:space="preserve">
<g>
	<g>
		<path d="M9.074,119.676c0,0-5.769-29.696,7.422-37.938c0,0,8.25-6.599,6.32-17.047c0,0-3.017-20.894,12.655-24.463
			c0,0,17.323-5.505,32.721,1.921c0,0,14.577-13.196,37.124-1.374c0,0,11.01,3.85,7.989,28.87c0,0-0.832,5.772,6.873,11.557
			c0,0,9.352,8.521,1.368,40.701c0,0,15.549-22.068,10.175-59.667c-4.125-28.867-9.76-31.91-15.68-36.022
			C101.212,15.897,73.972,5.578,44.816,14.111C30.096,18.42,4.4,22.371,0,57.837c0,0,1.368-0.553,3.856-1.375
			C3.844,56.432-4.684,73.76,9.074,119.676z"/>
	</g>
</g>
<g>
</g>
<g>
</g>
<g>
</g>
<g>
</g>
<g>
</g>
<g>
</g>
<g>
</g>
<g>
</g>
<g>
</g>
<g>
</g>
<g>
</g>
<g>
</g>
<g>
</g>
<g>
</g>
<g>
</g>
</svg>
