<?xml version="1.0" encoding="iso-8859-1"?>
<!-- Generator: Adobe Illustrator 16.0.0, SVG Export Plug-In . SVG Version: 6.00 Build 0)  -->
<!DOCTYPE svg PUBLIC "-//W3C//DTD SVG 1.1//EN" "http://www.w3.org/Graphics/SVG/1.1/DTD/svg11.dtd">
<svg version="1.1" id="Capa_1" xmlns="http://www.w3.org/2000/svg" xmlns:xlink="http://www.w3.org/1999/xlink" x="0px" y="0px"
	 width="191.303px" height="191.303px" viewBox="0 0 191.303 191.303" style="enable-background:new 0 0 191.303 191.303;"
	 xml:space="preserve">
<g>
	<path d="M169.572,109.708c-1.681,1.771-4.086,2.813-7.185,3.117c-0.007,0.299,0.006,0.701,0.079,1.249l0.115,6.802
		c-0.091,0.864-0.518,3.087-3.209,4.828c0.555,1.699,0.67,4.628-2.144,8.562c-1.37,1.851-2.112,2.85-1.442,5.2
		c0.486,2.594,1.528,10.26-2.691,13.293c-1.517,1.431-6.735,4.877-20.509,3.166l-2.052-0.292
		c-6.211-0.926-11.661-1.346-15.187,3.081c-4.762,9.158-13.064,25.97-13.743,29.988c-0.256,1.523-1.577,2.601-3.069,2.601
		c-0.173,0-0.347-0.013-0.523-0.042c-1.689-0.287-2.844-1.9-2.554-3.594c1.072-6.326,13.301-29.702,14.696-32.345
		c6.363-8.099,15.717-6.698,21.307-5.853l1.887,0.269c12.069,1.468,15.461-1.511,15.497-1.547c0.214-0.262,0.354-0.347,0.64-0.523
		c0.591-0.634,0.73-4.019,0.226-6.796c-1.425-5.018,0.907-8.165,2.167-9.852c1.772-2.467,1.56-3.393,1.56-3.398
		c-1.699-2.106-1.2-4.542,0.049-5.814c0.353-0.354,0.772-0.609,1.229-0.762c0.938-0.311,1.413-0.651,1.62-0.834l-0.079-5.699
		c-0.335-2.399,0.066-4.549,1.211-6.028c1.121-1.449,2.533-1.729,2.947-1.778c3.77-0.104,5.066-1.236,5.115-2.277
		c-0.213-2.003-4.811-11.064-8.945-18.334c-3.909-7.487-1.175-13.11,0.628-16.815c0.633-1.315,1.229-2.558,1.314-3.398
		c2.07-21.37-6.223-33.122-13.676-40.992C130.103,9.276,111.421,6.146,98.013,6.235C64.267,6.479,51.616,17.47,42.395,27.751
		C22.13,50.375,26.075,69.995,26.115,70.202c0.459,10.001,12.602,27.992,17.253,34.135c14.69,21.105,7.675,37.553,7.38,38.253
		c-0.703,1.571-2.56,2.277-4.107,1.589c-1.571-0.694-2.277-2.527-1.599-4.098c0.244-0.566,5.812-14.097-6.713-32.078
		c-0.648-0.877-17.802-23.653-18.359-37.016c-0.131-0.387-4.558-22.427,17.795-47.401C48.611,11.49,63.414,0.25,97.976,0
		c14.675-0.034,35.123,3.373,51.417,20.611c8.361,8.823,17.665,22.007,15.357,45.876c-0.188,1.942-1.065,3.757-1.924,5.511
		c-1.626,3.349-3.161,6.516-0.756,11.131c6.698,11.795,9.986,19.126,9.682,21.696C171.776,104.849,171.752,107.419,169.572,109.708z
		 M96.186,83.172L83.785,93.304c-1.135,0.917-2.487,1.364-3.842,1.364c-1.778,0-3.529-0.768-4.737-2.244l-7.414-9.085l-9.103,7.444
		c-1.099,0.901-2.463,1.373-3.854,1.373c-1.839,0-3.562-0.804-4.719-2.214L39.989,77.561c-1.035-1.267-1.516-2.862-1.355-4.485
		c0.155-1.62,0.941-3.072,2.208-4.089l9.103-7.438l-7.456-9.112c-1.023-1.245-1.492-2.822-1.343-4.445
		c0.165-1.641,0.956-3.105,2.223-4.128l12.364-10.105c1.246-1.029,2.811-1.498,4.47-1.367c1.623,0.155,3.069,0.935,4.104,2.201
		l7.444,9.116l9.098-7.438c2.533-2.07,6.561-1.622,8.585,0.911L99.547,49.52c1.035,1.267,1.51,2.862,1.346,4.497
		c-0.162,1.626-0.953,3.078-2.22,4.089l-9.085,7.426l7.441,9.097C99.148,77.192,98.774,81.034,96.186,83.172z M54.74,57.588
		l12.172-9.971l-7.432-9.109l-12.178,10.15L54.74,57.588z M94.74,53.237L84.583,41.071l-39.82,32.723l10.065,12.078L94.74,53.237z
		 M92.228,78.352l-7.447-8.923l-12.176,9.971l7.432,9.085L92.228,78.352z"/>
</g>
<g>
</g>
<g>
</g>
<g>
</g>
<g>
</g>
<g>
</g>
<g>
</g>
<g>
</g>
<g>
</g>
<g>
</g>
<g>
</g>
<g>
</g>
<g>
</g>
<g>
</g>
<g>
</g>
<g>
</g>
</svg>
