<?xml version="1.0" encoding="iso-8859-1"?>
<!-- Generator: Adobe Illustrator 16.0.0, SVG Export Plug-In . SVG Version: 6.00 Build 0)  -->
<!DOCTYPE svg PUBLIC "-//W3C//DTD SVG 1.1//EN" "http://www.w3.org/Graphics/SVG/1.1/DTD/svg11.dtd">
<svg version="1.1" id="Capa_1" xmlns="http://www.w3.org/2000/svg" xmlns:xlink="http://www.w3.org/1999/xlink" x="0px" y="0px"
	 width="119.237px" height="119.237px" viewBox="0 0 119.237 119.237" style="enable-background:new 0 0 119.237 119.237;"
	 xml:space="preserve">
<g>
	<path d="M97.738,94.125c0.432,10.328-2.113,17.635-7.575,21.702c-3.435,2.558-7.41,3.41-11.216,3.41
		c-4.196,0-8.147-1.035-10.839-1.961c-7.904-2.733-14.767-1.51-21.416-0.329c-2.84,0.512-5.785,1.035-8.729,1.23
		c-8.272,0.561-13.542-1.431-15.631-5.955c-3.45-7.429,4.214-17.713,6.296-19.863c11.518-11.861,15.059-20.222,16.225-22.975
		C67.06,17.28,81.723,1.607,82.338,0.961c1.188-1.249,3.16-1.279,4.396-0.104c1.248,1.181,1.297,3.161,0.127,4.409
		c-0.146,0.146-14.619,15.765-36.178,66.366c-1.358,3.196-5.243,12.354-17.564,25.057c-2.582,2.673-6.58,9.748-5.112,12.896
		c0.859,1.852,4.29,2.752,9.551,2.362c2.606-0.183,5.258-0.646,8.056-1.157c7.091-1.26,15.114-2.697,24.545,0.566
		c3.215,1.103,11.186,3.264,16.295-0.541c3.708-2.765,5.413-8.294,5.065-16.453c-0.134-3.173-1.559-7.521-5.145-9.371
		c-3.544-1.791-8.471-0.73-14.268,3.068c-1.431,0.926-3.367,0.549-4.316-0.9c-0.932-1.438-0.549-3.368,0.907-4.312
		c9.815-6.467,16.568-5.407,20.532-3.397C94.194,82.039,97.463,87.652,97.738,94.125z"/>
</g>
<g>
</g>
<g>
</g>
<g>
</g>
<g>
</g>
<g>
</g>
<g>
</g>
<g>
</g>
<g>
</g>
<g>
</g>
<g>
</g>
<g>
</g>
<g>
</g>
<g>
</g>
<g>
</g>
<g>
</g>
</svg>
