<?xml version="1.0" encoding="iso-8859-1"?>
<!-- Generator: Adobe Illustrator 16.0.0, SVG Export Plug-In . SVG Version: 6.00 Build 0)  -->
<!DOCTYPE svg PUBLIC "-//W3C//DTD SVG 1.1//EN" "http://www.w3.org/Graphics/SVG/1.1/DTD/svg11.dtd">
<svg version="1.1" id="Capa_1" xmlns="http://www.w3.org/2000/svg" xmlns:xlink="http://www.w3.org/1999/xlink" x="0px" y="0px"
	 width="185.404px" height="185.405px" viewBox="0 0 185.404 185.405" style="enable-background:new 0 0 185.404 185.405;"
	 xml:space="preserve">
<g>
	<g>
		<path d="M91.561,74.373l0.56,1.193c0.314,0.829,0.429,1.743,0.429,2.64c0.014,1.792-0.492,3.508-1.006,4.914
			c-1.081,2.825-2.293,4.509-2.293,4.509s1.42-1.493,2.921-4.224c0.723-1.374,1.5-3.07,1.766-5.103
			c0.128-1.009,0.15-2.101-0.102-3.201c-0.073-0.561-0.337-1.069-0.512-1.63l-0.627-1.4c-0.811-1.804-1.388-3.642-1.259-5.145
			c0.056-0.743,0.314-1.366,0.614-1.894l0.566-0.733l0.663-0.577c2.341,0.914,5.9,0.178,9.024-2.107
			c4.099-2.999,5.894-7.521,4.024-10.093c-1.885-2.561-6.732-2.219-10.837,0.791c-3.388,2.481-5.176,5.995-4.627,8.596l-0.052,0.044
			l-0.963,1.127c-0.276,0.454-0.583,0.9-0.812,1.422c-0.439,1.048-0.69,2.246-0.608,3.417c0.153,2.363,1.234,4.383,2.314,6.17
			L91.561,74.373z"/>
		<path d="M103.109,66.556c-2.065,1.513-3.151,3.642-2.812,5.234l-0.033,0.021l-0.584,0.69l-0.494,0.862
			c-0.268,0.635-0.421,1.362-0.37,2.074c0.103,1.439,0.759,2.679,1.406,3.749l0.49,0.79l0.351,0.723
			c0.187,0.517,0.257,1.053,0.263,1.609c0.012,1.086-0.306,2.134-0.6,2.979c-0.658,1.727-1.392,2.741-1.392,2.741
			s0.848-0.909,1.762-2.572c0.438-0.829,0.914-1.86,1.063-3.1c0.085-0.61,0.103-1.283-0.057-1.947l-0.312-1.005l-0.377-0.845
			c-0.504-1.091-0.854-2.219-0.771-3.133l0.378-1.154l0.338-0.438l0.405-0.348c1.429,0.557,3.585,0.107,5.482-1.283
			c2.491-1.819,3.59-4.566,2.454-6.128C108.549,64.515,105.597,64.733,103.109,66.556z"/>
		<path d="M77.748,72.748l0.341,0.723c0.189,0.511,0.258,1.053,0.258,1.597c0.017,1.091-0.298,2.134-0.6,2.985
			c-0.667,1.721-1.396,2.741-1.396,2.741s0.856-0.903,1.77-2.567c0.438-0.829,0.91-1.866,1.071-3.11
			c0.08-0.604,0.096-1.283-0.061-1.947l-0.31-0.994l-0.379-0.856c-0.499-1.086-0.845-2.213-0.77-3.127l0.371-1.149L78.39,66.6
			l0.399-0.347c1.429,0.566,3.587,0.117,5.486-1.284c2.488-1.824,3.593-4.56,2.449-6.128c-1.144-1.571-4.09-1.357-6.585,0.471
			c-2.064,1.513-3.149,3.641-2.812,5.235L77.3,64.578l-0.588,0.678l-0.493,0.863c-0.271,0.628-0.422,1.361-0.369,2.078
			c0.099,1.434,0.754,2.673,1.405,3.743L77.748,72.748z"/>
		<path d="M137.059,37.543h-20.284c-2.217-6.506-7.709-6.66-7.709-6.66c-7.597-1.13-8.651-3.584-8.651-3.584
			c-1.61-2.315-0.691-6.752-0.691-6.752c1.336-1.089,1.85-3.967,1.85-3.967c2.217-1.705,2.106-4.186,1.089-4.159
			c-0.826,0.022-0.64-0.66-0.64-0.66C103.406,0.577,93.466,0,93.466,0h-1.517c0,0-9.945,0.577-8.559,11.762
			c0,0,0.185,0.682-0.644,0.66c-1.02-0.027-1.115,2.454,1.093,4.159c0,0,0.513,2.878,1.849,3.967c0,0,0.92,4.438-0.688,6.752
			c0,0-1.055,2.454-8.651,3.584c0,0-5.497,0.147-7.711,6.66h-20.29c-1.546,0-2.802,1.253-2.802,2.802v52.301
			c0,1.538,1.256,2.802,2.802,2.802h7.262c-1.514,2.446-2.617,4.947-1.349,5.346c0,0,1.512,0.148,3.513-3.819
			c0,0-0.041,1.526-1.648,5.953c-0.308,0.833-1.647,5.036,0.521,3.52c0,0,0.999-0.69,2.309-5.007c0,0-0.7,7.267,0.073,7.639
			c1.018,0.492,1.574-0.941,2.033-7.315c0,0,0.472-2.053,0.69,5.794c0.01,0.406,0.609,2.424,1.438,0.701
			c0.696-1.444,0.388-5.271,0.388-6.556c0,0,0.896,4.969,1.729,4.969c0,0,0.987,1.153,0.583-5.012
			c-0.065-1.008,0.282-3.076,0.325-3.678l0.096-2.364l-0.017-0.196h7.123c-0.159,1.739-0.225,3.457-0.028,5.077
			c0.777,6.369,2.273,19.989,3.798,25.357c0.79,2.779,0.32,9.795,0.962,11.546c0.282,0.755,0.138,1.455-0.481,3.185
			c-2.15,6.029-1.877,10.276,3.518,26.275c0,0,1.662,3.547,0.825,9.922c0,0-3.446,7.086-1.238,7.228c0,0,0.178,0.472,0.92,0.099
			c0,0,1.193,1.231,2.482,0.569c0,0,1.193,0.947,2.212,0.11c0,0,0.825,0.94,2.018,0.175c0,0,1.564,1.05,2.49-0.094
			c0,0,1.653,0.367-1.293-7.085c0,0-1.125-7.902-1.748-9.45c-1.181-2.95-0.345-11.01-0.093-12.745
			c0.413-2.883,0.194-7.813-0.556-11.622c-0.538-2.726,0.936-7.878,1.475-11.053c1.125-6.677,3.311-23.705,3.036-26.917l0.906,0.312
			c0.658,0,1.074-0.312,1.074-0.312c-0.277,3.212,1.904,20.24,3.033,26.917c0.536,3.162,2.008,8.316,1.477,11.053
			c-0.753,3.819-0.974,8.75-0.558,11.622c0.263,1.746,1.089,9.795-0.093,12.745c-0.619,1.537-1.749,9.45-1.749,9.45
			c-2.955,7.452-1.289,7.085-1.289,7.085c0.922,1.123,2.487,0.094,2.487,0.094c1.19,0.766,2.012-0.175,2.012-0.175
			c1.028,0.837,2.223-0.11,2.223-0.11c1.279,0.662,2.472-0.569,2.472-0.569c0.745,0.373,0.919-0.099,0.919-0.099
			c2.223-0.142-1.236-7.228-1.236-7.228c-0.818-6.375,0.821-9.922,0.821-9.922c5.396-15.999,5.668-20.246,3.515-26.275
			c-0.609-1.74-0.761-2.43-0.484-3.185c0.647-1.745,0.176-8.755,0.965-11.546c1.522-5.368,3.021-18.999,3.808-25.357
			c0.186-1.62,0.12-3.349-0.033-5.077h7.125l-0.016,0.196l0.104,2.364c0.043,0.602,0.378,2.681,0.322,3.678
			c-0.397,6.165,0.588,5.012,0.588,5.012c0.818,0,1.728-4.969,1.728-4.969c0,1.285-0.308,5.111,0.383,6.556
			c0.821,1.723,1.434-0.295,1.444-0.701c0.219-7.847,0.689-5.794,0.689-5.794c0.459,6.374,1.018,7.808,2.036,7.315
			c0.766-0.372,0.065-7.639,0.065-7.639c1.308,4.316,2.311,5.007,2.311,5.007c2.167,1.517,0.818-2.687,0.523-3.52
			c-1.606-4.421-1.652-5.953-1.652-5.953c1.997,3.968,3.515,3.819,3.515,3.819c1.268-0.398,0.163-2.91-1.348-5.346h7.256
			c1.545,0,2.801-1.264,2.801-2.802V40.345C139.859,38.796,138.604,37.543,137.059,37.543z M134.257,89.846H51.144V43.147h83.113
			V89.846z"/>
	</g>
</g>
<g>
</g>
<g>
</g>
<g>
</g>
<g>
</g>
<g>
</g>
<g>
</g>
<g>
</g>
<g>
</g>
<g>
</g>
<g>
</g>
<g>
</g>
<g>
</g>
<g>
</g>
<g>
</g>
<g>
</g>
</svg>
