<?xml version="1.0" encoding="iso-8859-1"?>
<!-- Generator: Adobe Illustrator 16.0.0, SVG Export Plug-In . SVG Version: 6.00 Build 0)  -->
<!DOCTYPE svg PUBLIC "-//W3C//DTD SVG 1.1//EN" "http://www.w3.org/Graphics/SVG/1.1/DTD/svg11.dtd">
<svg version="1.1" id="Capa_1" xmlns="http://www.w3.org/2000/svg" xmlns:xlink="http://www.w3.org/1999/xlink" x="0px" y="0px"
	 width="185.404px" height="185.405px" viewBox="0 0 185.404 185.405" style="enable-background:new 0 0 185.404 185.405;"
	 xml:space="preserve">
<g>
	<g>
		<path d="M81.619,57.322c0.658,0.722,1.434,1.423,2.389,1.941c0.453,0.294,0.992,0.423,1.506,0.642l1.415,0.427
			c1.809,0.537,3.519,1.277,4.52,2.295c0.506,0.518,0.796,1.083,0.987,1.642l0.172,0.859v0.835
			c-2.128,1.138-3.828,4.169-4.117,7.866c-0.385,4.854,1.754,8.988,4.798,9.223c3.037,0.241,5.819-3.491,6.206-8.336
			c0.323-4.025-1.11-7.513-3.338-8.747l-0.005-0.068l-0.203-1.401L95.42,63.01c-0.493-0.977-1.199-1.901-2.105-2.577
			c-1.805-1.368-3.957-1.854-5.916-2.186l-1.449-0.23l-1.214-0.348c-0.796-0.292-1.524-0.785-2.185-1.329
			c-1.305-1.114-2.23-2.547-2.925-3.814c-1.373-2.55-1.833-4.484-1.833-4.484s0.185,1.962,1.233,4.764
			C79.576,54.217,80.314,55.842,81.619,57.322z"/>
		<path d="M97.421,64.534l0.229,0.817c2.271,1.831,3.535,5.552,3.212,9.48c-0.443,5.486-3.584,9.63-7.313,9.63l-0.386-0.01
			c-3.854-0.32-6.517-5.021-6.058-10.712c0.273-3.458,1.681-6.544,3.771-8.265l0.229-0.791c-0.167-0.503-0.167-0.503-10.074-0.538
			h-0.005l-0.722,0.729l0.722,0.723c2.433,0.005,5.705,0.017,7.667,0.027c-1.683,2.011-2.785,4.875-3.032,7.983
			c-0.528,6.506,2.717,11.896,7.384,12.274l0.504,0.021c4.495,0,8.254-4.72,8.753-10.955c0.295-3.699-0.635-7.143-2.474-9.458h9.379
			l0.738-0.722l-0.738-0.726H98.108L97.421,64.534z"/>
		<path d="M92.435,56.816c0.647,0.79,1.429,1.543,2.381,2.101c0.453,0.331,0.998,0.474,1.509,0.714l1.414,0.451
			c1.815,0.585,3.512,1.384,4.524,2.5l0.453,0.632h3.601l-0.076-0.194c-0.485-1.059-1.193-2.068-2.101-2.796
			c-1.812-1.485-3.957-2.014-5.933-2.364l-1.444-0.249l-1.215-0.369c-0.797-0.317-1.519-0.84-2.179-1.445
			c-1.312-1.218-2.234-2.764-2.929-4.125c-1.368-2.766-1.827-4.857-1.827-4.857s0.186,2.124,1.233,5.155
			C90.383,53.461,91.123,55.231,92.435,56.816z"/>
		<path d="M137.059,37.543h-20.284c-2.217-6.506-7.709-6.66-7.709-6.66c-7.597-1.13-8.651-3.584-8.651-3.584
			c-1.61-2.315-0.691-6.752-0.691-6.752c1.336-1.089,1.85-3.967,1.85-3.967c2.217-1.705,2.106-4.186,1.089-4.159
			c-0.826,0.022-0.64-0.66-0.64-0.66C103.406,0.577,93.466,0,93.466,0h-1.517c0,0-9.945,0.577-8.559,11.762
			c0,0,0.185,0.682-0.644,0.66c-1.02-0.027-1.115,2.454,1.093,4.159c0,0,0.513,2.878,1.849,3.967c0,0,0.92,4.438-0.688,6.752
			c0,0-1.055,2.454-8.651,3.584c0,0-5.497,0.147-7.711,6.66h-20.29c-1.546,0-2.802,1.253-2.802,2.802v52.301
			c0,1.538,1.256,2.802,2.802,2.802h7.262c-1.514,2.446-2.617,4.947-1.349,5.346c0,0,1.512,0.148,3.513-3.819
			c0,0-0.041,1.526-1.648,5.953c-0.308,0.833-1.647,5.036,0.521,3.52c0,0,0.999-0.69,2.309-5.007c0,0-0.7,7.267,0.073,7.639
			c1.018,0.492,1.574-0.941,2.033-7.315c0,0,0.472-2.053,0.69,5.794c0.01,0.406,0.609,2.424,1.438,0.701
			c0.696-1.444,0.388-5.271,0.388-6.556c0,0,0.896,4.969,1.729,4.969c0,0,0.987,1.153,0.583-5.012
			c-0.065-1.008,0.282-3.076,0.325-3.678l0.096-2.364l-0.017-0.196h7.123c-0.159,1.739-0.225,3.457-0.028,5.077
			c0.777,6.369,2.273,19.989,3.798,25.357c0.79,2.779,0.32,9.795,0.962,11.546c0.282,0.755,0.138,1.455-0.481,3.185
			c-2.15,6.029-1.877,10.276,3.518,26.275c0,0,1.662,3.547,0.825,9.922c0,0-3.446,7.086-1.238,7.228c0,0,0.178,0.472,0.92,0.099
			c0,0,1.193,1.231,2.482,0.569c0,0,1.193,0.947,2.212,0.11c0,0,0.825,0.94,2.018,0.175c0,0,1.564,1.05,2.49-0.094
			c0,0,1.653,0.367-1.293-7.085c0,0-1.125-7.902-1.748-9.45c-1.181-2.95-0.345-11.01-0.093-12.745
			c0.413-2.883,0.194-7.813-0.556-11.622c-0.538-2.726,0.936-7.878,1.475-11.053c1.125-6.677,3.311-23.705,3.036-26.917l0.906,0.312
			c0.658,0,1.074-0.312,1.074-0.312c-0.277,3.212,1.904,20.24,3.033,26.917c0.536,3.162,2.008,8.316,1.477,11.053
			c-0.753,3.819-0.974,8.75-0.558,11.622c0.263,1.746,1.089,9.795-0.093,12.745c-0.619,1.537-1.749,9.45-1.749,9.45
			c-2.955,7.452-1.289,7.085-1.289,7.085c0.922,1.123,2.487,0.094,2.487,0.094c1.19,0.766,2.012-0.175,2.012-0.175
			c1.028,0.837,2.223-0.11,2.223-0.11c1.279,0.662,2.472-0.569,2.472-0.569c0.745,0.373,0.919-0.099,0.919-0.099
			c2.223-0.142-1.236-7.228-1.236-7.228c-0.818-6.375,0.821-9.922,0.821-9.922c5.396-15.999,5.668-20.246,3.515-26.275
			c-0.609-1.74-0.761-2.43-0.484-3.185c0.647-1.745,0.176-8.755,0.965-11.546c1.522-5.368,3.021-18.999,3.808-25.357
			c0.186-1.62,0.12-3.349-0.033-5.077h7.125l-0.016,0.196l0.104,2.364c0.043,0.602,0.378,2.681,0.322,3.678
			c-0.397,6.165,0.588,5.012,0.588,5.012c0.818,0,1.728-4.969,1.728-4.969c0,1.285-0.308,5.111,0.383,6.556
			c0.821,1.723,1.434-0.295,1.444-0.701c0.219-7.847,0.689-5.794,0.689-5.794c0.459,6.374,1.018,7.808,2.036,7.315
			c0.766-0.372,0.065-7.639,0.065-7.639c1.308,4.316,2.311,5.007,2.311,5.007c2.167,1.517,0.818-2.687,0.523-3.52
			c-1.606-4.421-1.652-5.953-1.652-5.953c1.997,3.968,3.515,3.819,3.515,3.819c1.268-0.398,0.163-2.91-1.348-5.346h7.256
			c1.545,0,2.801-1.264,2.801-2.802V40.345C139.859,38.796,138.604,37.543,137.059,37.543z M134.257,89.846H51.144V43.147h83.113
			V89.846z"/>
	</g>
</g>
<g>
</g>
<g>
</g>
<g>
</g>
<g>
</g>
<g>
</g>
<g>
</g>
<g>
</g>
<g>
</g>
<g>
</g>
<g>
</g>
<g>
</g>
<g>
</g>
<g>
</g>
<g>
</g>
<g>
</g>
</svg>
