<?xml version="1.0" encoding="iso-8859-1"?>
<!-- Generator: Adobe Illustrator 16.0.0, SVG Export Plug-In . SVG Version: 6.00 Build 0)  -->
<!DOCTYPE svg PUBLIC "-//W3C//DTD SVG 1.1//EN" "http://www.w3.org/Graphics/SVG/1.1/DTD/svg11.dtd">
<svg version="1.1" id="Capa_1" xmlns="http://www.w3.org/2000/svg" xmlns:xlink="http://www.w3.org/1999/xlink" x="0px" y="0px"
	 width="185.405px" height="185.405px" viewBox="0 0 185.405 185.405" style="enable-background:new 0 0 185.405 185.405;"
	 xml:space="preserve">
<g>
	<g>
		<path d="M73.605,69.486c6.13-4.32,15.562-2.213,18.475-1.412c-0.219,3.021-1.4,12.608-7.531,16.927
			c-0.562,0.392-0.69,1.167-0.296,1.721c0.392,0.561,1.161,0.69,1.718,0.296c6.81-4.796,8.223-14.575,8.523-18.277
			c3.603,0.963,13.263,2.915,20.067-1.896c0.563-0.391,0.689-1.16,0.302-1.718c-0.387-0.561-1.149-0.689-1.713-0.298
			c-6.117,4.32-15.544,2.208-18.476,1.401c0.219-3.001,1.416-12.596,7.536-16.922c0.559-0.392,0.685-1.166,0.298-1.724
			c-0.379-0.566-1.148-0.69-1.721-0.304c-6.798,4.796-8.215,14.569-8.523,18.29c-3.591-0.966-13.25-2.914-20.072,1.888
			c-0.558,0.385-0.688,1.16-0.294,1.718C72.288,69.738,73.057,69.883,73.605,69.486z"/>
		<path d="M102.737,52.917l7.179,10.197c0.391,0.561,1.155,0.684,1.718,0.297c0.564-0.385,0.69-1.16,0.302-1.721l-7.18-10.186
			c-0.389-0.566-1.159-0.689-1.719-0.309C102.477,51.601,102.351,52.373,102.737,52.917z"/>
		<path d="M106.469,65.177c0.564-0.38,0.689-1.154,0.303-1.718l-5.411-7.672c-0.394-0.561-1.162-0.689-1.724-0.297
			c-0.562,0.385-0.7,1.159-0.295,1.714l5.403,7.677C105.15,65.439,105.904,65.571,106.469,65.177z"/>
		<path d="M97.55,60.547c-0.566,0.394-0.69,1.166-0.31,1.722l2.038,2.897c0.383,0.566,1.162,0.695,1.727,0.314
			c0.561-0.405,0.687-1.171,0.299-1.737l-2.045-2.897C98.878,60.285,98.097,60.15,97.55,60.547z"/>
		<path d="M76.537,71.41c-0.383-0.567-1.148-0.684-1.726-0.304c-0.551,0.392-0.684,1.16-0.299,1.721l7.179,10.186
			c0.393,0.572,1.172,0.69,1.732,0.31c0.563-0.399,0.687-1.165,0.301-1.732L76.537,71.41z"/>
		<path d="M79.993,69.352c-0.565,0.386-0.689,1.16-0.313,1.726l5.425,7.664c0.386,0.566,1.159,0.689,1.721,0.304
			c0.558-0.386,0.689-1.16,0.294-1.721l-5.416-7.677C81.309,69.089,80.543,68.96,79.993,69.352z"/>
		<path d="M88.915,73.981c0.558-0.389,0.689-1.16,0.296-1.715l-2.033-2.909c-0.388-0.556-1.16-0.684-1.721-0.29
			c-0.562,0.392-0.691,1.158-0.299,1.718l2.031,2.893C87.591,74.244,88.359,74.379,88.915,73.981z"/>
		<path d="M137.047,37.543h-20.278c-2.218-6.506-7.717-6.66-7.717-6.66c-7.587-1.13-8.644-3.584-8.644-3.584
			c-1.611-2.315-0.691-6.752-0.691-6.752c1.335-1.089,1.849-3.967,1.849-3.967c2.219-1.705,2.102-4.186,1.089-4.159
			c-0.826,0.022-0.64-0.66-0.64-0.66C103.396,0.577,93.46,0,93.46,0h-1.52c0,0-9.948,0.577-8.558,11.762c0,0,0.186,0.682-0.642,0.66
			c-1.021-0.027-1.111,2.454,1.092,4.159c0,0,0.514,2.878,1.85,3.967c0,0,0.919,4.438-0.69,6.752c0,0-1.053,2.454-8.657,3.584
			c0,0-5.491,0.147-7.705,6.66H48.34c-1.55,0-2.801,1.253-2.801,2.802v52.301c0,1.538,1.25,2.802,2.801,2.802h7.256
			c-1.513,2.446-2.615,4.947-1.342,5.346c0,0,1.518,0.148,3.512-3.819c0,0-0.046,1.526-1.651,5.953
			c-0.31,0.833-1.643,5.036,0.531,3.52c0,0,0.999-0.69,2.304-5.007c0,0-0.7,7.267,0.073,7.639c1.018,0.492,1.573-0.941,2.028-7.315
			c0,0,0.476-2.053,0.689,5.794c0.012,0.406,0.61,2.424,1.45,0.701c0.69-1.444,0.376-5.271,0.376-6.556c0,0,0.896,4.969,1.737,4.969
			c0,0,0.987,1.153,0.583-5.012c-0.066-1.008,0.276-3.076,0.324-3.678l0.101-2.364l-0.021-0.196h7.123
			c-0.159,1.739-0.231,3.457-0.037,5.077c0.786,6.369,2.278,19.989,3.807,25.357c0.79,2.779,0.32,9.795,0.962,11.546
			c0.287,0.755,0.134,1.455-0.48,3.185c-2.15,6.029-1.873,10.276,3.523,26.275c0,0,1.655,3.547,0.819,9.922
			c0,0-3.445,7.086-1.237,7.228c0,0,0.183,0.472,0.919,0.099c0,0,1.193,1.231,2.475,0.569c0,0,1.199,0.947,2.22,0.11
			c0,0,0.824,0.94,2.022,0.175c0,0,1.56,1.05,2.475-0.094c0,0,1.657,0.367-1.282-7.085c0,0-1.125-7.902-1.749-9.45
			c-1.181-2.95-0.345-11.01-0.098-12.745c0.413-2.883,0.193-7.813-0.556-11.622c-0.54-2.726,0.93-7.878,1.471-11.053
			c1.122-6.677,3.319-23.705,3.046-26.917l0.905,0.312c0.651,0,1.064-0.312,1.064-0.312c-0.274,3.212,1.906,20.24,3.032,26.917
			c0.539,3.162,2.013,8.316,1.479,11.053c-0.756,3.819-0.975,8.75-0.562,11.622c0.267,1.746,1.096,9.795-0.085,12.745
			c-0.626,1.537-1.75,9.45-1.75,9.45c-2.938,7.452-1.283,7.085-1.283,7.085c0.93,1.123,2.489,0.094,2.489,0.094
			c1.19,0.766,2.009-0.175,2.009-0.175c1.021,0.837,2.213-0.11,2.213-0.11c1.289,0.662,2.481-0.569,2.481-0.569
			c0.745,0.373,0.92-0.099,0.92-0.099c2.212-0.142-1.237-7.228-1.237-7.228c-0.831-6.375,0.821-9.922,0.821-9.922
			c5.397-15.999,5.682-20.246,3.515-26.275c-0.602-1.74-0.757-2.43-0.483-3.185c0.647-1.745,0.176-8.755,0.965-11.546
			c1.52-5.368,3.021-18.999,3.807-25.357c0.187-1.62,0.12-3.349-0.02-5.077h7.111l-0.011,0.196l0.09,2.364
			c0.052,0.602,0.392,2.681,0.337,3.678c-0.403,6.165,0.579,5.012,0.579,5.012c0.835,0,1.741-4.969,1.741-4.969
			c0,1.285-0.317,5.111,0.383,6.556c0.821,1.723,1.423-0.295,1.434-0.701c0.219-7.847,0.689-5.794,0.689-5.794
			c0.459,6.374,1.028,7.808,2.036,7.315c0.776-0.372,0.076-7.639,0.076-7.639c1.315,4.316,2.31,5.007,2.31,5.007
			c2.167,1.517,0.822-2.687,0.524-3.52c-1.607-4.421-1.64-5.953-1.64-5.953c1.99,3.968,3.512,3.819,3.512,3.819
			c1.261-0.398,0.145-2.91-1.355-5.346h7.256c1.552,0,2.802-1.264,2.802-2.802V40.345C139.848,38.796,138.597,37.543,137.047,37.543
			z M134.245,89.846H51.137V43.147h83.108V89.846z"/>
	</g>
</g>
<g>
</g>
<g>
</g>
<g>
</g>
<g>
</g>
<g>
</g>
<g>
</g>
<g>
</g>
<g>
</g>
<g>
</g>
<g>
</g>
<g>
</g>
<g>
</g>
<g>
</g>
<g>
</g>
<g>
</g>
</svg>
