<?xml version="1.0" encoding="iso-8859-1"?>
<!-- Generator: Adobe Illustrator 16.0.0, SVG Export Plug-In . SVG Version: 6.00 Build 0)  -->
<!DOCTYPE svg PUBLIC "-//W3C//DTD SVG 1.1//EN" "http://www.w3.org/Graphics/SVG/1.1/DTD/svg11.dtd">
<svg version="1.1" id="Capa_1" xmlns="http://www.w3.org/2000/svg" xmlns:xlink="http://www.w3.org/1999/xlink" x="0px" y="0px"
	 width="168.108px" height="168.108px" viewBox="0 0 168.108 168.108" style="enable-background:new 0 0 168.108 168.108;"
	 xml:space="preserve">
<g>
	<g>
		<path d="M114.999,84.468c-0.976-1.232-2.24-2.874-2.596-3.859c-0.606-1.653-1.056-6.96-1.056-6.96
			c-0.186-6.271-1.732-8.991-1.732-8.991c-2.661-4.241-3.146-12.159-3.146-12.159l-0.122-13.369
			c-0.919-9.116-7.648-9.192-7.648-9.192c-5.255-0.783-6.979-2.255-7.521-2.895l0.083-0.011c0,0-4.95-7.59-2.802-10.78
			c0,0,2.687-3.672,2.732-5.669c0,0,0.667-3.387-2.823-7.157c-1.697-1.8-3.907-3.48-9.291-3.425c-2.113,0.016-5.311,0.58-7.77,3.261
			c-1.497,1.614-2.573,3.649-2.204,6.944c0.077,0.716,1.114,1.516,0.413,2.917l-1.434,3.19c0,0-0.021,0.821,1.261,0.832
			c0,0,0.331,0.033,0.242,0.744l0.005,1.024c0,0,0.044,0.317,0.605,0.481l-0.056,0.317c0,0-0.292,0.334,0.231,1.035
			c0.194,0.257,0.502,0.585,0.336,1.247l0.29,1.587c0,0,0.588,0.679,2.904,0.355c0.812-0.12,2.297-0.536,3.198,0.575
			c0,0,0.147,1.281,0.304,2.227h-0.231c0,0-0.941,2.2-7.725,3.202c0,0-6.731,0.071-7.662,9.198L61.668,52.5
			c0,0-0.493,7.912-3.15,12.159c0,0-1.541,2.725-1.732,8.996c0,0-0.448,5.302-1.053,6.955c-0.359,0.979-1.62,2.632-2.605,3.859
			c-1.929,2.407-5.19,7.43-3.447,7.993c0,0,1.346,0.126,3.149-3.403c0,0-0.038,1.352-1.476,5.302
			c-0.283,0.75-1.475,4.515,0.465,3.151c0,0,0.883-0.617,2.054-4.475c0,0-0.616,6.495,0.075,6.84
			c0.908,0.437,1.411-0.838,1.821-6.545c0,0,0.413-1.828,0.611,5.192c0.01,0.355,0.546,2.162,1.282,0.63
			c0.621-1.292,0.348-4.729,0.348-5.867c0,0,0.808,4.434,1.535,4.434c0,0,0.879,1.033,0.532-4.466
			c-0.065-0.908,0.254-2.757,0.287-3.305l0.091-2.113c0,0-0.219-2.424-0.219-3.414c0-0.251,0.861-3.546,3.149-7.037
			c0,0,4.749-8.416,4.443-13.927c0,0-0.075-5.253,1.837-8.235c0,0,1.36,14.878,0.437,19.053c0,0-4.275,10.265-3.333,17.926
			c0.695,5.696,2.028,17.866,3.396,22.671c0.7,2.484,0.284,8.755,0.85,10.325c0.247,0.673,0.119,1.297-0.423,2.856
			c-1.93,5.385-1.689,9.188,3.145,23.486c0,0,1.487,3.157,0.743,8.865c0,0-3.084,6.336-1.105,6.462c0,0,0.164,0.416,0.817,0.087
			c0,0,1.058,1.095,2.218,0.498c0,0,1.06,0.849,1.973,0.099c0,0,0.747,0.831,1.807,0.164c0,0,1.4,0.933,2.224-0.085
			c0,0,1.487,0.349-1.154-6.333c0,0-1.009-7.068-1.551-8.449c-1.054-2.638-0.321-9.839-0.09-11.398
			c0.369-2.571,0.172-6.977-0.498-10.38c-0.48-2.457,0.834-7.064,1.314-9.898c1.007-5.958,2.952-21.193,2.708-24.061l0.815,0.278
			c0.584,0,0.952-0.278,0.952-0.278c-0.239,2.867,1.716,18.095,2.731,24.061c0.471,2.834,1.781,7.436,1.3,9.898
			c-0.668,3.392-0.854,7.809-0.499,10.38c0.229,1.56,0.98,8.761-0.073,11.398c-0.562,1.381-1.564,8.449-1.564,8.449
			c-2.643,6.664-1.15,6.333-1.15,6.333c0.815,1.018,2.222,0.085,2.222,0.085c1.06,0.667,1.793-0.164,1.793-0.164
			c0.92,0.761,1.98-0.099,1.98-0.099c1.16,0.597,2.223-0.498,2.223-0.498c0.655,0.345,0.816-0.087,0.816-0.087
			c1.984-0.126-1.102-6.462-1.102-6.462c-0.75-5.708,0.744-8.865,0.744-8.865c4.81-14.31,5.062-18.102,3.146-23.486
			c-0.569-1.549-0.688-2.184-0.438-2.856c0.586-1.554,0.167-7.836,0.867-10.325c1.354-4.788,2.69-16.975,3.391-22.671
			c0.93-7.661-3.344-17.926-3.344-17.926c-0.919-4.175,0.438-19.053,0.438-19.053c1.915,2.971,1.85,8.235,1.85,8.235
			c-0.317,5.511,4.444,13.927,4.444,13.927c2.274,3.491,3.145,6.785,3.145,7.037c0,1.001-0.217,3.414-0.217,3.414l0.085,2.113
			c0.046,0.548,0.346,2.396,0.298,3.305c-0.357,5.489,0.513,4.466,0.513,4.466c0.749,0,1.556-4.434,1.556-4.434
			c0,1.139-0.275,4.564,0.346,5.867c0.742,1.521,1.279-0.274,1.283-0.63c0.188-7.021,0.603-5.188,0.603-5.188
			c0.412,5.702,0.921,6.977,1.822,6.54c0.69-0.345,0.06-6.84,0.06-6.84c1.182,3.852,2.068,4.475,2.068,4.475
			c1.938,1.357,0.744-2.406,0.473-3.151c-1.452-3.95-1.484-5.302-1.484-5.302c1.829,3.545,3.185,3.41,3.185,3.41
			C120.182,91.894,116.918,86.875,114.999,84.468z M72.51,8.986c-0.493-0.492-0.918-0.952-0.999-1.598
			c-0.171-1.56,0.169-2.243,0.931-3.075C74.473,2.092,77.13,1.599,79,1.566c5.025-0.043,6.818,1.429,8.22,2.928
			c2.306,2.501,2.481,4.689,2.459,5.478l0.022,0.285c0.057,2.894-2.078,5.176-4.748,5.307c-1.873,0.099-1.986-1.16-2.894-2.111
			l-0.37,0.033c-2.201,0.104-1.828-2.238-2.689-2.868C76.932,9.123,74.051,10.497,72.51,8.986z"/>
	</g>
</g>
<g>
</g>
<g>
</g>
<g>
</g>
<g>
</g>
<g>
</g>
<g>
</g>
<g>
</g>
<g>
</g>
<g>
</g>
<g>
</g>
<g>
</g>
<g>
</g>
<g>
</g>
<g>
</g>
<g>
</g>
</svg>
