<?xml version="1.0" encoding="iso-8859-1"?>
<!-- Generator: Adobe Illustrator 16.0.0, SVG Export Plug-In . SVG Version: 6.00 Build 0)  -->
<!DOCTYPE svg PUBLIC "-//W3C//DTD SVG 1.1//EN" "http://www.w3.org/Graphics/SVG/1.1/DTD/svg11.dtd">
<svg version="1.1" id="Capa_1" xmlns="http://www.w3.org/2000/svg" xmlns:xlink="http://www.w3.org/1999/xlink" x="0px" y="0px"
	 width="132.22px" height="132.22px" viewBox="0 0 132.22 132.22" style="enable-background:new 0 0 132.22 132.22;"
	 xml:space="preserve">
<g>
	<g>
		<path d="M126.728,0H82.691c-3.038,0-5.492,2.469-5.492,5.493c0,3.038,2.454,5.501,5.492,5.501h30.763L75.554,48.89
			c-0.597,0.6-0.983,1.278-1.245,2.015c-8.104-6.521-17.981-10.251-28.531-10.251c-12.236,0-23.732,4.758-32.382,13.399
			c-17.844,17.854-17.844,46.893,0,64.759c8.644,8.646,20.146,13.408,32.373,13.408c12.236,0,23.732-4.774,32.379-13.408
			c16.647-16.673,17.555-42.953,3.142-60.916c0.743-0.262,1.431-0.655,2.034-1.249l37.887-37.899V49.52
			c0,3.032,2.46,5.492,5.504,5.492c3.026,0,5.492-2.46,5.492-5.492V5.486C132.22,2.463,129.748,0,126.728,0z M70.381,111.054
			c-13.155,13.146-36.072,13.146-49.209,0c-13.567-13.566-13.567-35.646,0-49.219c6.567-6.573,15.308-10.188,24.612-10.188
			c9.283,0,18.03,3.608,24.597,10.188C83.946,75.408,83.946,97.488,70.381,111.054z"/>
	</g>
</g>
<g>
</g>
<g>
</g>
<g>
</g>
<g>
</g>
<g>
</g>
<g>
</g>
<g>
</g>
<g>
</g>
<g>
</g>
<g>
</g>
<g>
</g>
<g>
</g>
<g>
</g>
<g>
</g>
<g>
</g>
</svg>
