<?xml version="1.0" encoding="iso-8859-1"?>
<!-- Generator: Adobe Illustrator 16.0.0, SVG Export Plug-In . SVG Version: 6.00 Build 0)  -->
<!DOCTYPE svg PUBLIC "-//W3C//DTD SVG 1.1//EN" "http://www.w3.org/Graphics/SVG/1.1/DTD/svg11.dtd">
<svg version="1.1" id="Capa_1" xmlns="http://www.w3.org/2000/svg" xmlns:xlink="http://www.w3.org/1999/xlink" x="0px" y="0px"
	 width="119.301px" height="119.3px" viewBox="0 0 119.301 119.3" style="enable-background:new 0 0 119.301 119.3;"
	 xml:space="preserve">
<g>
	<path d="M73.957,110.414c-5.001,6.61-15.434,11.705-30.277,6.359c-3.126-1.116-5.486-6.107,0.999-6.851
		c3.916-0.455,12.121-1.424,13.084-8.849c0.102-0.75,0.213-1.647,0.347-2.595c-0.403-0.027-0.816-0.104-1.212-0.322
		C51.99,95.464,50.182,88.263,50,87.454c-0.353-1.505,0.579-2.999,2.08-3.365c1.513-0.345,3.004,0.574,3.374,2.079
		c0.343,1.423,1.822,5.719,4.101,7.042c1.52-3.458,4.422-6.216,10.66-5.1C76.343,89.205,83.894,97.259,73.957,110.414z
		 M111.839,88.936v27.562c0,1.544-1.262,2.802-2.802,2.802c-1.548,0-2.802-1.258-2.802-2.802V88.936
		c0-18.117-7.983-27.189-26.396-30.191c-5.258,7.341-12.262,12.697-20.19,12.697c-7.927,0-14.921-5.356-20.188-12.697
		c-18.424,2.991-26.397,12.052-26.397,30.191v27.562c0,1.544-1.256,2.802-2.802,2.802c-1.541,0-2.801-1.258-2.801-2.802V88.936
		c0-25.636,15.403-32.785,28.71-35.352c-4.186-7.625-6.651-16.383-6.651-23.466C29.521,13.51,43.031,0,59.64,0
		c16.604,0,30.122,13.51,30.122,30.118c0,7.083-2.459,15.835-6.662,23.466C96.49,56.151,111.839,63.344,111.839,88.936z
		 M84.178,30.112c0-13.516-10.996-24.514-24.517-24.514c-13.516,0-24.514,10.999-24.514,24.514
		c0,13.778,11.217,35.721,24.514,35.721C72.963,65.833,84.178,43.891,84.178,30.112z M30.121,90.813
		c-1.541,0-2.801,1.259-2.801,2.802v22.878c0,1.538,1.26,2.802,2.801,2.802c1.546,0,2.802-1.264,2.802-2.802V93.615
		C32.922,92.06,31.678,90.813,30.121,90.813z M89.196,90.813c-1.549,0-2.802,1.259-2.802,2.802v22.878
		c0,1.538,1.253,2.802,2.802,2.802c1.537,0,2.802-1.264,2.802-2.802V93.615C91.998,92.06,90.747,90.813,89.196,90.813z"/>
</g>
<g>
</g>
<g>
</g>
<g>
</g>
<g>
</g>
<g>
</g>
<g>
</g>
<g>
</g>
<g>
</g>
<g>
</g>
<g>
</g>
<g>
</g>
<g>
</g>
<g>
</g>
<g>
</g>
<g>
</g>
</svg>
