<?xml version="1.0" encoding="iso-8859-1"?>
<!-- Generator: Adobe Illustrator 16.0.0, SVG Export Plug-In . SVG Version: 6.00 Build 0)  -->
<!DOCTYPE svg PUBLIC "-//W3C//DTD SVG 1.1//EN" "http://www.w3.org/Graphics/SVG/1.1/DTD/svg11.dtd">
<svg version="1.1" id="Capa_1" xmlns="http://www.w3.org/2000/svg" xmlns:xlink="http://www.w3.org/1999/xlink" x="0px" y="0px"
	 width="168.1px" height="168.1px" viewBox="0 0 168.1 168.1" style="enable-background:new 0 0 168.1 168.1;" xml:space="preserve"
	>
<g>
	<path d="M125.989,94.14l0.004-34.973c-0.022-8.282-6.757-15.007-15.021-15.007c-0.004,0-0.018,0-0.037,0l-16.977,0.017
		c6.687-4.253,11.163-11.717,11.163-20.217C105.122,10.753,94.364,0,81.15,0C67.938,0,57.185,10.753,57.185,23.959
		c0,8.523,4.482,15.992,11.201,20.246l-17.08,0.022c-8.28,0-15.011,6.752-15,15.04v50.666c0,1.104,0.903,2.004,2.017,2.004h17.243
		v41.136c0,8.286,6.448,15.026,14.382,15.026h22.413c7.935,0,14.392-6.74,14.392-15.026V135.75c1.182,0.196,2.375,0.36,3.617,0.36
		c11.813,0,21.423-9.614,21.423-21.428C131.783,110.634,129.233,102.671,125.989,94.14z M61.202,23.954
		c0-10.999,8.944-19.948,19.942-19.948s19.95,8.949,19.95,19.948c0,10.993-8.957,19.937-19.95,19.937
		C70.151,43.891,61.202,34.947,61.202,23.954z M102.714,153.063c0,6.062-4.65,11-10.361,11h-9.411c0.132-0.275,0.22-0.56,0.22-0.872
		v-36.788c0-1.105-0.898-2.003-2.011-2.003c-1.108,0-2.011,0.897-2.011,2.003v36.788c0,0.312,0.084,0.597,0.219,0.872h-9.416
		c-5.71,0-10.356-4.938-10.356-11v-43.104c0-0.01,0.007-0.021,0.007-0.038c0-0.016-0.007-0.021-0.007-0.043V75.511
		c0-1.102-0.899-2.005-2.01-2.005c-1.109,0-2.011,0.903-2.011,2.005v32.386H40.348V59.24c-0.004-2.927,1.135-5.699,3.21-7.778
		c2.073-2.079,4.828-3.223,7.772-3.228l59.648-0.065c0.005,0,0.011,0,0.011,0c6.06,0,10.989,4.935,11.004,10.987l-0.005,24.896
		c-4.695-11.287-9.399-21.292-9.795-22.116c-0.663-1.415-2.975-1.415-3.643,0c-0.807,1.696-19.601,41.688-19.601,52.725
		c0,9.117,5.738,16.865,13.778,19.964v18.43h-0.014V153.063z M110.348,132.084c-9.586,0-17.393-7.82-17.393-17.401
		c0-7.579,11.253-33.697,17.393-47.09c6.146,13.404,17.396,39.521,17.396,47.09C127.754,124.279,119.946,132.084,110.348,132.084z
		 M112.373,123.017c0,1.111-0.901,2.008-2.02,2.008c-5.702,0-10.335-4.641-10.335-10.352c0-1.106,0.901-2.004,2.018-2.004
		s2.003,0.897,2.003,2.004c0,3.484,2.829,6.318,6.309,6.318C111.472,121.009,112.373,121.905,112.373,123.017z"/>
</g>
<g>
</g>
<g>
</g>
<g>
</g>
<g>
</g>
<g>
</g>
<g>
</g>
<g>
</g>
<g>
</g>
<g>
</g>
<g>
</g>
<g>
</g>
<g>
</g>
<g>
</g>
<g>
</g>
<g>
</g>
</svg>
