<?xml version="1.0" encoding="iso-8859-1"?>
<!-- Generator: Adobe Illustrator 16.0.0, SVG Export Plug-In . SVG Version: 6.00 Build 0)  -->
<!DOCTYPE svg PUBLIC "-//W3C//DTD SVG 1.1//EN" "http://www.w3.org/Graphics/SVG/1.1/DTD/svg11.dtd">
<svg version="1.1" id="Capa_1" xmlns="http://www.w3.org/2000/svg" xmlns:xlink="http://www.w3.org/1999/xlink" x="0px" y="0px"
	 width="206.315px" height="206.315px" viewBox="0 0 206.315 206.315" style="enable-background:new 0 0 206.315 206.315;"
	 xml:space="preserve">
<g>
	<g>
		<path d="M86.452,87.188c0,0-0.304-7.039-2.798-5.782c0,0-7.651,5.09-9.085,6.193l1.315,2.95
			C75.884,90.555,85.81,90.387,86.452,87.188z"/>
		<path d="M79.413,95.642l1.928,2.801c8.741-5.52,8.866-5.882,7.395-7.846C86.321,87.4,79.413,95.642,79.413,95.642z"/>
		<path d="M90.668,79.226c-3.885-2.67-4.29,1.958-4.29,1.958c-0.131,3.754,2.469,7.526,4.396,9.222
			c2.862,2.512,3.897-1.665,3.897-1.665C95.781,83.071,90.668,79.226,90.668,79.226z"/>
		<path d="M86.604,76.27c0,0,4.394,1.671,3.578-1.227c0,0-1.178-0.794,0.892-7.411c0,0,2.911-1.169,0.886-2.971
			c0,0-3.791-2.253-3.778,0.648c0,0,0.085,1.108,0.49,1.793l-1.452,5.888C87.195,72.99,84.677,74.984,86.604,76.27z"/>
		<path d="M90.717,63.175c0,0,3.605,1.321,1.69-1.839l1.428-4.01c0,0,3.057-0.338,1.023-2.362c0,0-3.273-2.339-3.461-0.131
			l0.624,1.601l-1.352,3.748C90.668,60.176,87.14,61.491,90.717,63.175z"/>
		<path d="M95.662,53.779c0.624-0.417,0.844-1.896,1.124-2.771c1.011-3.154-1.072-2.18-1.391-1.727
			C92.127,53.922,94.721,54.422,95.662,53.779z"/>
		<path d="M93.442,80.654c0,0,2.338,4.058,2.582,5.428c0,0,0.393,4.533,3.194,2.39c0,0,4.676-2.469,8.378-1.559
			c0,0,4.805,1.416,2.789-2.152c-0.499-0.883-1.254-1.964-4.141-0.073c-1.51,0.99-7.066,2.363-7.209,0.965
			c-0.097-0.953,2.226-2.53,8.726-3.285c0.821-0.101,3.465,1.12,2.149-2.463c-0.372-0.971-0.408-3.13-4.165,0.076
			c-1.635,1.388-5.907,3.167-8.27,2.311c0,0,0.144-2.083,7.614-5.542c0,0,4.145,0.929,3.9-1.653
			c-0.104-1.035-0.512-3.861-3.209-2.612c-0.666,0.311-1.595,1.202-1.875,2.302c0,0-8.598,6.223-8.705,3.732
			c0,0,3.934-5.861,7.855-7.069c0,0,4.107-0.344,2.033-3.785c-0.148-0.255-1.391-3.349-4.046,1.391
			c-1.093,1.942-4.42,5.249-7.109,6.391C92.727,75.978,89.777,75.508,93.442,80.654z"/>
		<path d="M117.473,83.969c-1.303,0.731-3.002,0.707-3.435,0.387l-0.858-0.524c-2.247-1.72-1.389,3.105-1.389,3.105
			c0.956,0.816,1.389-0.387,1.784-0.618l1.998,0.019c2.222,0.152,2.095,0.444,2.722,0.743c1.656,0.815,1.212-2.53,1.212-2.53
			C119.391,82.41,117.473,83.969,117.473,83.969z"/>
		<path d="M124.744,83.445c-0.896,0.7-2.174,0.898-2.527,0.688l-0.694-0.308c-1.899-1.023-0.676,2.487-0.676,2.487
			c0.835,0.493,0.999-0.441,1.279-0.661l1.479-0.228c1.687-0.134,1.626,0.091,2.149,0.252c1.327,0.399,0.603-2.043,0.603-2.043
			C125.998,82.036,124.744,83.445,124.744,83.445z"/>
		<path d="M127.326,74.099c-0.664-1.471-1.699,0.231-1.699,0.231c-0.779,0.91-2.07,1.428-2.479,1.327l-0.791-0.125
			c-2.174-0.524-0.207,2.64-0.207,2.64c0.949,0.298,0.932-0.688,1.175-0.974l1.522-0.618c1.711-0.572,1.687-0.341,2.247-0.305
			C128.568,76.34,127.326,74.099,127.326,74.099z"/>
		<path d="M124.452,64.229c-1.06,1.153-2.734,1.845-3.246,1.76l-0.974-0.113c-2.734-0.499-0.433,3.188-0.433,3.188
			c1.188,0.292,1.242-0.886,1.571-1.254l1.942-0.816c2.216-0.801,2.18-0.5,2.874-0.505c1.875-0.019,0.426-2.634,0.426-2.634
			C125.846,62.115,124.452,64.229,124.452,64.229z"/>
		<path d="M114.727,61.467c1.212-0.049,0.943-1.19,1.175-1.647l1.675-1.303c1.931-1.364,1.942-1.065,2.631-1.251
			c1.79-0.512-0.293-2.652-0.293-2.652c-1.199-1.464-1.979,0.929-1.979,0.929c-0.706,1.397-2.149,2.509-2.661,2.545l-0.975,0.179
			C111.548,58.529,114.727,61.467,114.727,61.467z"/>
		<path d="M122.009,55.648c1.139,0.427,0.907-1.047,1.139-1.482l1.432-1.117c0.444-0.329,0.804-1.072,0.231-1.541
			c-0.963-0.792-2.126,1.321-2.637,1.379l-0.804-0.125C119.555,53.119,121.254,55.375,122.009,55.648z"/>
		<path d="M129.627,63.687l1.619-0.828l0.512-1.474c-0.816-0.959-2.326,0.91-2.838,0.867l-0.779-0.255
			c-1.851,0.024-0.584,2.208,0.104,2.606C128.927,65.001,129.334,64.073,129.627,63.687z"/>
		<path d="M129.079,72.747c-1.881,0.006-0.603,2.183,0.098,2.594c0.683,0.399,1.09-0.518,1.395-0.91l1.607-0.831l0.512-1.471
			c-0.816-0.94-2.326,0.91-2.85,0.874L129.079,72.747z"/>
		<path d="M129.127,82.249l-0.755-0.256c-1.875,0.013-0.597,2.195,0.104,2.594c0.664,0.411,1.084-0.511,1.395-0.911l1.607-0.828
			l0.512-1.474C131.162,80.429,129.652,82.279,129.127,82.249z"/>
		<path d="M112.437,72.954l2.07-1.279c2.394-1.303,2.418-0.95,3.265-1.075c2.191-0.305-0.384-3.203-0.384-3.203
			c-1.432-1.945-2.101,0.679-2.101,0.679c-0.652,1.178-3.167,2.618-3.807,2.594h-1.162c-3.386-0.155,0.645,4.027,0.645,4.027
			C112.468,74.872,112.158,73.45,112.437,72.954z"/>
		<path d="M107.237,68.476c1.498-0.037,1.012-1.404,1.23-1.934l1.875-1.541c2.211-1.614,2.277-1.26,3.094-1.483
			c2.149-0.605-0.792-3.117-0.792-3.117c-1.687-1.766-1.979,0.947-1.979,0.947c-0.487,1.249-2.801,2.993-3.44,3.05l-1.142,0.149
			C102.701,64.84,107.237,68.476,107.237,68.476z"/>
		<path d="M118.983,75.365c-1.229-0.411-1.723,1.279-1.723,1.279s-3.685,2.088-4.524,1.388c-0.822-0.667-1.583-0.311-1.729,0.231
			c-0.365,1.321,0.092,2.752,1.023,2.95c1.114,0.213,1.333-0.916,1.729-1.291c0.841-0.755,3.307-1.732,4.342-1.278
			c0.914,0.398,1.766,0.393,2.034-0.18C120.822,77.079,119.848,75.651,118.983,75.365z"/>
		<path d="M152.51,41.777h-22.566c-2.466-7.24-8.586-7.41-8.586-7.41c-8.445-1.258-9.621-3.988-9.621-3.988
			c-1.79-2.576-0.767-7.515-0.767-7.515c1.485-1.211,2.058-4.414,2.058-4.414c2.467-1.897,2.339-4.658,1.212-4.628
			c-0.919,0.024-0.712-0.734-0.712-0.734C115.062,0.643,104.007,0,104.007,0h-1.69c0,0-11.07,0.643-9.523,13.088
			c0,0,0.207,0.758-0.709,0.734c-1.142-0.03-1.242,2.731,1.208,4.628c0,0,0.582,3.203,2.058,4.414c0,0,1.023,4.938-0.767,7.515
			c0,0-1.172,2.73-9.633,3.988c0,0-6.104,0.164-8.573,7.41H53.799c-1.72,0-3.118,1.395-3.118,3.118v58.199
			c0,1.712,1.397,3.118,3.118,3.118h8.074c-1.69,2.722-2.911,5.505-1.489,5.949c0,0,1.684,0.164,3.909-4.25
			c0,0-0.058,1.698-1.839,6.625c-0.35,0.925-1.827,5.602,0.584,3.915c0,0,1.111-0.768,2.57-5.571c0,0-0.779,8.086,0.076,8.5
			c1.132,0.548,1.75-1.047,2.262-8.142c0,0,0.524-2.283,0.768,6.449c0.012,0.45,0.673,2.697,1.607,0.779
			c0.767-1.607,0.423-5.864,0.423-7.295c0,0,0.992,5.529,1.927,5.529c0,0,1.099,1.284,0.648-5.578
			c-0.073-1.12,0.313-3.422,0.362-4.092l0.112-2.631l-0.024-0.219h7.925c-0.183,1.937-0.256,3.848-0.04,5.65
			c0.868,7.088,2.527,22.244,4.229,28.217c0.88,3.094,0.356,10.9,1.072,12.849c0.319,0.841,0.155,1.62-0.536,3.544
			c-2.387,6.71-2.083,11.436,3.921,29.24c0,0,1.842,3.945,0.911,11.039c0,0-3.827,7.886-1.376,8.044c0,0,0.198,0.524,1.023,0.11
			c0,0,1.328,1.369,2.755,0.633c0,0,1.328,1.054,2.469,0.122c0,0,0.917,1.047,2.244,0.194c0,0,1.741,1.17,2.761-0.104
			c0,0,1.842,0.408-1.434-7.885c0,0-1.245-8.793-1.939-10.517c-1.315-3.282-0.387-12.251-0.109-14.182
			c0.459-3.209,0.216-8.695-0.612-12.933c-0.605-3.033,1.035-8.77,1.632-12.301c1.255-7.429,3.693-26.378,3.389-29.952l1.008,0.347
			c0.73,0,1.185-0.347,1.185-0.347c-0.305,3.574,2.128,22.523,3.373,29.952c0.604,3.52,2.241,9.256,1.65,12.301
			c-0.84,4.25-1.084,9.736-0.627,12.933c0.298,1.942,1.218,10.899-0.104,14.182c-0.688,1.711-1.942,10.517-1.942,10.517
			c-3.273,8.293-1.435,7.885-1.435,7.885c1.035,1.248,2.78,0.104,2.78,0.104c1.327,0.853,2.229-0.194,2.229-0.194
			c1.145,0.932,2.472-0.122,2.472-0.122c1.425,0.736,2.753-0.633,2.753-0.633c0.84,0.414,1.022-0.11,1.022-0.11
			c2.473-0.158-1.376-8.044-1.376-8.044c-0.919-7.094,0.913-11.039,0.913-11.039c6.004-17.805,6.309-22.53,3.909-29.24
			c-0.669-1.937-0.84-2.703-0.535-3.544c0.719-1.942,0.194-9.743,1.071-12.849c1.693-5.973,3.361-21.141,4.226-28.217
			c0.22-1.803,0.146-3.727-0.023-5.65h7.928l-0.013,0.219l0.11,2.631c0.049,0.67,0.426,2.983,0.365,4.092
			c-0.451,6.862,0.646,5.578,0.646,5.578c0.925,0,1.937-5.529,1.937-5.529c0,1.431-0.354,5.688,0.426,7.295
			c0.913,1.918,1.583-0.329,1.596-0.779c0.243-8.732,0.767-6.449,0.767-6.449c0.512,7.095,1.146,8.689,2.266,8.142
			c0.864-0.414,0.085-8.5,0.085-8.5c1.462,4.804,2.569,5.571,2.569,5.571c2.412,1.687,0.914-2.99,0.585-3.915
			c-1.79-4.921-1.839-6.625-1.839-6.625c2.229,4.414,3.921,4.25,3.921,4.25c1.401-0.444,0.159-3.239-1.51-5.949h8.074
			c1.717,0,3.118-1.406,3.118-3.118V44.896C155.627,43.172,154.233,41.777,152.51,41.777z M149.392,99.978H56.911V48.013h92.481
			V99.978z"/>
	</g>
</g>
<g>
</g>
<g>
</g>
<g>
</g>
<g>
</g>
<g>
</g>
<g>
</g>
<g>
</g>
<g>
</g>
<g>
</g>
<g>
</g>
<g>
</g>
<g>
</g>
<g>
</g>
<g>
</g>
<g>
</g>
</svg>
