<?xml version="1.0" encoding="iso-8859-1"?>
<!-- Generator: Adobe Illustrator 16.0.0, SVG Export Plug-In . SVG Version: 6.00 Build 0)  -->
<!DOCTYPE svg PUBLIC "-//W3C//DTD SVG 1.1//EN" "http://www.w3.org/Graphics/SVG/1.1/DTD/svg11.dtd">
<svg version="1.1" id="Capa_1" xmlns="http://www.w3.org/2000/svg" xmlns:xlink="http://www.w3.org/1999/xlink" x="0px" y="0px"
	 width="187.059px" height="187.059px" viewBox="0 0 187.059 187.059" style="enable-background:new 0 0 187.059 187.059;"
	 xml:space="preserve">
<g>
	<path d="M110.314,104.758c2.484,3.568,6.783,16.867-10.981,12.86c0,0,3.602,15.601-5.35,11.831
		c-4.677-1.955-4.622-19.79,5.154-20.119c1.702-0.066,5.581,0.396,2.582-6.314c-0.947-2.131-3.44-6.588-1.714-9.164
		c0,0-13.481,8.014-15.476,1.711c0,0-1.266,4.531,1.809,8.891c1.745,2.46,2.6,13.566-4.914,9.523
		c-3.754-2.021-4.57-4.969-4.348-15.832c0.058-2.996-4.04-11.712,7.746-9.179c3.31,0.715,10.163,0.971,13.469-1.714
		c2.298-1.891,12.206-8.555,10.604,5.444C108.542,95.721,108.208,101.737,110.314,104.758z M143.433,65.839l-0.013,56.382
		c0,1.236-0.998,2.223-2.223,2.235l-19.192,0.128v45.754c-0.013,9.219-7.191,16.721-16.009,16.721H81.056
		c-8.83,0-16.005-7.502-16.005-16.721V124.56H45.863c-1.239,0-2.238-0.999-2.238-2.229v-56.38c-0.006-4.472,1.727-8.674,4.88-11.822
		c3.157-3.157,7.353-4.896,11.816-4.908l19.001-0.013c-7.471-4.74-12.464-13.052-12.464-22.529C66.859,11.965,78.824,0,93.526,0
		c14.706,0,26.676,11.965,26.676,26.667c0,9.466-4.969,17.771-12.422,22.49l18.901-0.012c0.012,0,0.023,0,0.036,0
		C135.907,49.139,143.409,56.629,143.433,65.839z M93.526,48.841c12.227,0,22.195-9.959,22.195-22.186
		c0-12.239-9.968-22.198-22.195-22.198c-12.233,0-22.192,9.959-22.192,22.198C71.328,38.888,81.287,48.841,93.526,48.841z
		 M138.952,65.851c-0.031-6.734-5.511-12.227-12.246-12.227h-0.012L60.31,53.697c-3.267,0.006-6.342,1.278-8.647,3.592
		c-2.308,2.314-3.574,5.38-3.574,8.656v54.145h16.943V84.045c0-1.227,1.002-2.232,2.238-2.232c1.233,0,2.244,1.005,2.244,2.232
		v38.237c0,0.024,0.006,0.036,0.006,0.049c0,0.024-0.006,0.036-0.006,0.049v47.958c0,6.746,5.169,12.239,11.524,12.239h10.467
		c-0.137-0.305-0.234-0.621-0.234-0.962v-40.943c0-1.225,1.002-2.223,2.238-2.223c1.233,0,2.244,0.998,2.244,2.223v40.943
		c0,0.341-0.101,0.657-0.244,0.962h10.477c6.363,0,11.526-5.493,11.526-12.239V84.045c0-1.227,1.005-2.232,2.235-2.232
		c1.235,0,2.234,1.005,2.234,2.232v36.057l16.939-0.098L138.952,65.851z"/>
</g>
<g>
</g>
<g>
</g>
<g>
</g>
<g>
</g>
<g>
</g>
<g>
</g>
<g>
</g>
<g>
</g>
<g>
</g>
<g>
</g>
<g>
</g>
<g>
</g>
<g>
</g>
<g>
</g>
<g>
</g>
</svg>
