<?xml version="1.0" encoding="iso-8859-1"?>
<!-- Generator: Adobe Illustrator 16.0.0, SVG Export Plug-In . SVG Version: 6.00 Build 0)  -->
<!DOCTYPE svg PUBLIC "-//W3C//DTD SVG 1.1//EN" "http://www.w3.org/Graphics/SVG/1.1/DTD/svg11.dtd">
<svg version="1.1" id="Capa_1" xmlns="http://www.w3.org/2000/svg" xmlns:xlink="http://www.w3.org/1999/xlink" x="0px" y="0px"
	 width="140.085px" height="140.085px" viewBox="0 0 140.085 140.085" style="enable-background:new 0 0 140.085 140.085;"
	 xml:space="preserve">
<g>
	<path d="M139.408,50.502c-0.438-0.544-1.023-0.908-1.662-1.069c-0.303-0.126-0.807-0.356-1.518-0.673
		c-7.19-3.234-29.084-12.991-47.766-11.923c-8.142,0.569-12.312,1.915-18.419,4.043c-5.949-2.08-10.13-3.462-18.439-4.043
		c-18.576-1.095-40.551,8.689-47.747,11.923c-0.712,0.317-1.226,0.547-1.518,0.673c-0.633,0.161-1.226,0.525-1.658,1.069
		c-0.728,0.9-0.882,2.183-0.422,3.248c0.953,2.159,20.274,26.789,46.373,29.513c4.58,12.018,13.052,19.984,23.043,20.072
		c0.057,0,0.117,0,0.161,0c7.447,0,14.369-4.422,19.513-12.466c1.472-2.293,2.676-4.87,3.745-7.562
		c26.269-2.529,45.754-27.393,46.724-29.562C140.285,52.674,140.132,51.392,139.408,50.502z M51.196,43.049
		c7.76,0.544,11.194,1.748,17.827,4.068c0.648,0.23,1.749,0.112,2.434-0.122c6.254-2.192,9.685-3.396,17.422-3.946
		c10.169-0.604,23.234,2.396,38.95,8.886c-37.938,9.817-77.615,9.817-115.55,0C27.998,45.446,41.109,42.428,51.196,43.049z
		 M12.258,58.346c10.16,2.561,20.435,4.448,30.786,5.636c0.105,4.438,0.638,8.675,1.567,12.616
		C30.767,74.202,19.101,65.154,12.258,58.346z M84.12,87.509c-3.953,6.188-9.02,9.587-14.272,9.587c-0.033,0-0.071,0-0.11,0
		C59,97.002,49.99,82.398,49.279,64.639c5.872,0.515,11.762,0.84,17.645,0.919v13.048c0,1.724,1.39,3.114,3.12,3.114
		c1.724,0,3.119-1.391,3.119-3.114V65.558c5.855-0.079,11.7-0.394,17.546-0.908C90.266,73.337,88.025,81.397,84.12,87.509z
		 M96.979,63.989c10.38-1.194,20.672-3.082,30.873-5.648c-6.891,6.851-18.649,15.96-32.586,18.28
		C96.267,72.615,96.821,68.371,96.979,63.989z"/>
</g>
<g>
</g>
<g>
</g>
<g>
</g>
<g>
</g>
<g>
</g>
<g>
</g>
<g>
</g>
<g>
</g>
<g>
</g>
<g>
</g>
<g>
</g>
<g>
</g>
<g>
</g>
<g>
</g>
<g>
</g>
</svg>
