<?xml version="1.0" encoding="iso-8859-1"?>
<!-- Generator: Adobe Illustrator 16.0.0, SVG Export Plug-In . SVG Version: 6.00 Build 0)  -->
<!DOCTYPE svg PUBLIC "-//W3C//DTD SVG 1.1//EN" "http://www.w3.org/Graphics/SVG/1.1/DTD/svg11.dtd">
<svg version="1.1" id="Capa_1" xmlns="http://www.w3.org/2000/svg" xmlns:xlink="http://www.w3.org/1999/xlink" x="0px" y="0px"
	 width="175.1px" height="175.1px" viewBox="0 0 175.1 175.1" style="enable-background:new 0 0 175.1 175.1;" xml:space="preserve"
	>
<g>
	<path d="M104.964,119.147c1.023,1.383,0.743,3.337-0.639,4.372c-9.213,6.899-18.115,9.353-26.141,9.353
		c-19.309,0-33.362-14.193-33.551-14.412c-1.193-1.242-1.175-3.216,0.073-4.409c1.23-1.199,3.215-1.157,4.396,0.062
		c0.986,1.01,24.502,24.637,51.483,4.408C101.962,117.485,103.929,117.777,104.964,119.147z M143.308,84.512
		c-7.897-0.868-14.358,0.846-19.205,5.13c-8.251,7.298-8.494,19.306-8.494,19.817c-0.024,1.705,1.352,3.117,3.068,3.142
		c0.013,0,0.037,0,0.049,0c1.687,0,3.081-1.364,3.118-3.057c0-0.109,0.243-9.804,6.411-15.247c3.489-3.048,8.361-4.257,14.365-3.578
		c1.777,0.146,3.257-1.047,3.446-2.75C146.261,86.25,145.032,84.698,143.308,84.512z M30.787,117.424
		c-5.109-1.316-10.309-3.265-12.446-4.616c0.372-1.364,1.078-3.203,2.223-4.25c1.279-1.151,1.395-3.118,0.231-4.396
		c-1.169-1.278-3.13-1.407-4.409-0.231c-3.714,3.35-4.469,8.994-4.548,9.633c-0.098,0.779,0.122,1.571,0.584,2.205
		c2.728,3.763,12.653,6.625,16.806,7.696c0.268,0.073,0.523,0.097,0.779,0.097c1.4,0,2.661-0.925,3.02-2.338
		C33.472,119.542,32.461,117.844,30.787,117.424z M175.063,105.501c-1.547,32.833-23.449,46.837-73.191,46.837
		c-0.013,0-0.013,0-0.013,0c-8.829,0-18.706-0.475-29.368-1.4c-41.625-3.592-70.342-30.944-71.542-32.102
		c-0.688-0.67-1.035-1.632-0.932-2.582c4.202-38.988,48.58-88.378,50.467-90.47c2.71-2.155,6.467-3.023,11.923-3.023
		c6.954,0,14.322,1.41,14.638,1.464c0.536,0.106,1.035,0.351,1.449,0.707c10.004,8.686,8.793,19.437,8.732,19.89
		c-0.091,0.725-0.426,1.392-0.962,1.891l-8.866,8.278c-0.578,0.545-1.339,0.843-2.137,0.843H59.905
		c-8.933,15.476-12.081,26.649-12.97,34.069c7.35-6.266,17.227-9.853,27.73-9.853c13.238,0,25.227,5.608,32.546,14.781
		c4.5-14.099,17.726-24.237,33.107-24.237c9.645,0,18.998,3.994,25.647,10.967C172.25,88.153,175.49,96.647,175.063,105.501z
		 M168.84,105.209c0.341-7.131-2.29-13.997-7.387-19.34c-5.479-5.742-13.188-9.033-21.147-9.033
		c-14.961,0-27.443,11.703-28.437,26.637c-0.097,1.432-1.145,2.606-2.545,2.862c-1.443,0.213-2.813-0.476-3.404-1.778
		c-4.975-10.924-17.524-18.276-31.273-18.276c-11.618,0-22.25,5.039-28.442,13.472c-0.755,1.048-2.083,1.498-3.325,1.176
		c-1.236-0.348-2.156-1.406-2.284-2.686c-0.907-8.488,0.919-23.553,14.821-47.114c0.56-0.95,1.583-1.535,2.691-1.535h15.923
		l7.039-6.573c-0.036-2.256-0.706-7.836-6.053-12.833c-2.046-0.353-7.568-1.203-12.616-1.203c-5.529,0-7.295,1.029-7.697,1.349
		c-0.049,0.128-43.257,48.229-48.299,85.021c5.614,4.956,31.676,26.359,66.627,29.373c10.492,0.908,20.192,1.371,28.838,1.371
		C159.024,146.104,167.841,126.448,168.84,105.209z"/>
</g>
<g>
</g>
<g>
</g>
<g>
</g>
<g>
</g>
<g>
</g>
<g>
</g>
<g>
</g>
<g>
</g>
<g>
</g>
<g>
</g>
<g>
</g>
<g>
</g>
<g>
</g>
<g>
</g>
<g>
</g>
</svg>
