<?xml version="1.0" encoding="iso-8859-1"?>
<!-- Generator: Adobe Illustrator 16.0.0, SVG Export Plug-In . SVG Version: 6.00 Build 0)  -->
<!DOCTYPE svg PUBLIC "-//W3C//DTD SVG 1.1//EN" "http://www.w3.org/Graphics/SVG/1.1/DTD/svg11.dtd">
<svg version="1.1" id="Capa_1" xmlns="http://www.w3.org/2000/svg" xmlns:xlink="http://www.w3.org/1999/xlink" x="0px" y="0px"
	 width="140.067px" height="140.067px" viewBox="0 0 140.067 140.067" style="enable-background:new 0 0 140.067 140.067;"
	 xml:space="preserve">
<g>
	<path d="M139.346,112.022c-0.816-0.99-2.194-1.4-3.394-1.022c-3.354,1.041-6.84,1.554-10.369,1.554
		c-10.073,0-19.48-4.312-26.121-11.787c0.747-2.593,1.043-5.264,1.043-7.825c0-16.793-26.389-85.152-27.505-88.061
		c-0.481-1.223-1.653-2.03-2.963-2.03c-1.3,0-2.481,0.815-2.953,2.03c-1.126,2.903-27.513,71.268-27.513,88.061
		c0,2.562,0.304,5.232,1.037,7.825c-6.651,7.486-16.088,11.793-26.129,11.793c-3.529,0-7.015-0.519-10.366-1.55
		c-1.205-0.393-2.573,0.014-3.396,1.019c-0.817,1.002-0.946,2.398-0.336,3.534c7.246,13.353,21.177,21.653,36.356,21.653
		c13.218,0,25.563-6.353,33.295-16.881c7.731,10.528,20.078,16.881,33.296,16.881c15.18,0,29.111-8.301,36.358-21.653
		C140.294,114.414,140.168,113.019,139.346,112.022z M70.026,14.966c8.744,23.21,24.123,66.484,24.123,77.982
		c0,2.172-0.221,4.535-0.985,6.822c-0.247,0.389-0.415,0.821-0.494,1.28c-2.331,5.347-8.219,9.927-22.643,9.927
		c-21.606,0-24.117-10.287-24.117-18.029C45.91,81.45,61.286,38.176,70.026,14.966z M36.721,130.841
		c-10.307,0-19.931-4.513-26.497-12.137c12.191,1.237,24.492-3.146,33.249-11.76c3.524,5.116,9.924,9.117,21.035,10.117
		C57.933,125.661,47.698,130.841,36.721,130.841z M103.324,130.841c-10.977,0-21.216-5.18-27.789-13.767
		c11.088-0.997,17.503-4.991,21.025-10.095c8.749,8.616,21.001,12.978,33.267,11.725
		C123.252,126.328,113.629,130.841,103.324,130.841z"/>
</g>
<g>
</g>
<g>
</g>
<g>
</g>
<g>
</g>
<g>
</g>
<g>
</g>
<g>
</g>
<g>
</g>
<g>
</g>
<g>
</g>
<g>
</g>
<g>
</g>
<g>
</g>
<g>
</g>
<g>
</g>
</svg>
