<?xml version="1.0" encoding="iso-8859-1"?>
<!-- Generator: Adobe Illustrator 16.0.0, SVG Export Plug-In . SVG Version: 6.00 Build 0)  -->
<!DOCTYPE svg PUBLIC "-//W3C//DTD SVG 1.1//EN" "http://www.w3.org/Graphics/SVG/1.1/DTD/svg11.dtd">
<svg version="1.1" id="Capa_1" xmlns="http://www.w3.org/2000/svg" xmlns:xlink="http://www.w3.org/1999/xlink" x="0px" y="0px"
	 width="134.905px" height="134.904px" viewBox="0 0 134.905 134.904" style="enable-background:new 0 0 134.905 134.904;"
	 xml:space="preserve">
<g>
	<g>
		<path d="M100.057,79.109c-5.59-14.688-16.733-47.853-13.75-59.145c0.597-2.244,6.369-8.379,11.387-12.687
			c1.729-1.498,1.949-4.104,0.438-5.837c-1.485-1.741-4.092-1.915-5.827-0.457c-2.91,2.488-12.482,11.055-14.011,16.867
			C73.879,34.6,91.289,79.511,93.292,84.589c0.64,1.583,2.149,2.618,3.849,2.618c8.238,0,14.937,6.698,14.937,14.931
			c0,8.245-6.686,14.943-14.937,14.943c-3.094,0-6.071-0.962-8.604-2.765c-0.919-0.646-2.07-0.907-3.19-0.694
			c-1.096,0.213-2.082,0.871-2.703,1.809c-4.993,7.751-8.392,11.21-15.189,11.21c-7.063,0-11.031-4.25-15.126-11.082
			c-0.605-0.986-1.592-1.693-2.712-1.912c-1.136-0.231-2.302,0-3.249,0.658c-2.558,1.82-5.538,2.77-8.619,2.77
			c-8.242,0-14.94-6.697-14.94-14.942s6.692-14.937,14.94-14.937c1.741,0,3.288-1.084,3.897-2.729
			c1.86-5.09,17.972-50.271,12.958-66.771c-1.79-5.873-13.006-14.422-16.404-16.903c-1.827-1.343-4.433-0.94-5.775,0.898
			c-1.358,1.839-0.947,4.427,0.892,5.778c6.537,4.777,12.778,10.681,13.375,12.642c3.361,11.061-6.74,44.213-11.91,59.004
			c-11.408,1.461-20.237,11.229-20.237,23.011c0,12.8,10.413,23.229,23.212,23.229c3.361,0,6.649-0.73,9.673-2.125
			c4.296,6.205,10.217,11.674,20.027,11.674c9.879,0,15.372-5.225,19.963-11.71c3.032,1.419,6.333,2.161,9.736,2.161
			c12.8,0,23.212-10.43,23.212-23.229C120.358,90.325,111.486,80.552,100.057,79.109z"/>
	</g>
</g>
<g>
</g>
<g>
</g>
<g>
</g>
<g>
</g>
<g>
</g>
<g>
</g>
<g>
</g>
<g>
</g>
<g>
</g>
<g>
</g>
<g>
</g>
<g>
</g>
<g>
</g>
<g>
</g>
<g>
</g>
</svg>
