<?xml version="1.0" encoding="iso-8859-1"?>
<!-- Generator: Adobe Illustrator 16.0.0, SVG Export Plug-In . SVG Version: 6.00 Build 0)  -->
<!DOCTYPE svg PUBLIC "-//W3C//DTD SVG 1.1//EN" "http://www.w3.org/Graphics/SVG/1.1/DTD/svg11.dtd">
<svg version="1.1" id="Capa_1" xmlns="http://www.w3.org/2000/svg" xmlns:xlink="http://www.w3.org/1999/xlink" x="0px" y="0px"
	 width="159.684px" height="159.684px" viewBox="0 0 159.684 159.684" style="enable-background:new 0 0 159.684 159.684;"
	 xml:space="preserve">
<g>
	<g>
		<path d="M126.038,100.735c9.143-0.568,7.275-2.609,7.275-2.609c-5.969-5.599,3.543-8.957,3.543-8.957
			c19.769-5.029,17.389-14.843,16.595-20.693c-2.083-15.092-15.385-22.739-24.372-26.482c-21.013-8.752-31.232,3.47-38.288,10.443
			c-1.947,1.923-5.962,4.473-9.886,4.662h-1.713c-3.917-0.189-7.941-2.739-9.884-4.662c-7.062-6.982-17.275-19.195-38.287-10.443
			c-8.983,3.743-22.286,11.39-24.37,26.482c-0.806,5.85-3.166,15.659,16.596,20.693c0,0,9.511,3.358,3.543,8.957
			c0,0-1.86,2.041,7.277,2.609c0,0,8.608,11.174,13.604,6.157c2.815-2.818,5.223-4.854,14.928,4.476c0,0,6.897,5.406,14.73,1.297
			c0,0,6.153-2.797-3.546-5.772c0,0-28.408-5.046-24.424-26.113c3.166-16.782,20.89-4.634,26.666-1.301
			c0.931,0.535,1.978,0.963,4.026,1.109c2.042-0.146,3.096-0.574,4.021-1.109c5.784-3.333,23.504-15.481,26.67,1.301
			c3.979,21.062-24.433,26.113-24.433,26.113c-9.684,2.981-3.537,5.772-3.537,5.772c7.833,4.099,14.728-1.297,14.728-1.297
			c9.702-9.33,12.109-7.294,14.919-4.476C117.429,111.916,126.038,100.735,126.038,100.735z"/>
		<polygon points="80.505,80.625 80.052,80.583 79.601,80.625 		"/>
		<path d="M40.036,110.799l-6.152-4.663c-4.662-4.477-7.087-1.302-7.087-1.302c-3.918,8.58-10.44,3.917-10.44,3.917
			c-0.56-5.028-1.854-5.777-3.357-6.347c-9.923-3.688-9.883,8.761-9.883,8.761c-6.897,8.026-0.191,13.423-0.191,13.423
			c6.159,3.545,4.294,17.532,4.294,17.532l16.59,0.378c0,0-2.695-13.834,0-17.153c2.282-2.814,4.074-6.848,6.342-8.024
			c1.823-0.94,8.21-0.371,8.21-0.371C44.884,113.972,40.036,110.799,40.036,110.799z"/>
		<path d="M156.56,111.175c0,0,0.049-12.459-9.883-8.76c-1.499,0.563-2.788,1.308-3.349,6.342c0,0-6.528,4.662-10.44-3.918
			c0,0-2.424-3.162-7.087,1.303l-6.159,4.662c0,0-4.855,3.168,1.673,6.161c0,0,6.396-0.574,8.221,0.372
			c2.258,1.166,4.059,5.206,6.341,8.017c2.686,3.326,0,17.155,0,17.155l16.59-0.367c0,0-1.863-13.986,4.291-17.526
			C156.757,124.599,163.471,119.192,156.56,111.175z"/>
		<path d="M70.25,43.113v4.102c0.369,3.357,3.911,4.287,3.911,4.287h5.416h0.551h5.406c0,0,3.545-0.93,3.923-4.287v-4.102
			c0,0,9.506-7.464,7.083-9.327c0,0-0.933-2.36-10.814,5.596h-5.663h-0.426h-5.66c-9.889-7.956-10.821-5.596-10.821-5.596
			C60.734,35.649,70.25,43.113,70.25,43.113z"/>
		<path d="M70.25,26.826v4.101c0.369,3.357,3.911,4.288,3.911,4.288h5.416h0.551h5.406c0,0,3.545-0.931,3.923-4.288v-4.101
			c0,0,9.506-7.464,7.083-9.324c0,0-0.933-2.359-10.814,5.597h-5.663h-0.426h-5.66c-9.889-7.956-10.821-5.597-10.821-5.597
			C60.734,19.367,70.25,26.826,70.25,26.826z"/>
	</g>
</g>
<g>
</g>
<g>
</g>
<g>
</g>
<g>
</g>
<g>
</g>
<g>
</g>
<g>
</g>
<g>
</g>
<g>
</g>
<g>
</g>
<g>
</g>
<g>
</g>
<g>
</g>
<g>
</g>
<g>
</g>
</svg>
