<?xml version="1.0" encoding="iso-8859-1"?>
<!-- Generator: Adobe Illustrator 16.0.0, SVG Export Plug-In . SVG Version: 6.00 Build 0)  -->
<!DOCTYPE svg PUBLIC "-//W3C//DTD SVG 1.1//EN" "http://www.w3.org/Graphics/SVG/1.1/DTD/svg11.dtd">
<svg version="1.1" id="Capa_1" xmlns="http://www.w3.org/2000/svg" xmlns:xlink="http://www.w3.org/1999/xlink" x="0px" y="0px"
	 width="113.216px" height="113.215px" viewBox="0 0 113.216 113.215" style="enable-background:new 0 0 113.216 113.215;"
	 xml:space="preserve">
<g>
	<path d="M93.401,23.047h-6.235V9.155C87.166,4.104,83.068,0,78.021,0H35.195c-5.045,0-9.14,4.104-9.14,9.155v13.893h-6.241
		c-7.426,0-13.469,6.041-13.469,13.46v63.251c0,7.41,6.043,13.457,13.469,13.457h73.587c7.423,0,13.47-6.047,13.47-13.457V36.507
		C106.877,29.082,100.836,23.047,93.401,23.047z M32.297,9.155c0-1.61,1.303-2.914,2.904-2.914h1.964v12.897
		c0,1.714,1.397,3.118,3.118,3.118c1.723,0,3.118-1.404,3.118-3.118V6.241h4.003v8.519c0,1.72,1.397,3.117,3.118,3.117
		s3.118-1.397,3.118-3.117V6.241h24.387c1.607,0,2.91,1.303,2.91,2.914v13.898H32.303V9.155H32.297z M12.586,48.335h46.396v41.047
		H12.586V48.335z M100.642,99.758c0,3.988-3.252,7.222-7.234,7.222H19.82c-3.992,0-7.234-3.245-7.234-7.222v-4.141H62.1
		c1.721,0,3.115-1.4,3.115-3.117V45.218c0-1.721-1.395-3.118-3.115-3.118H12.586v-5.587c0-3.997,3.249-7.23,7.234-7.23h73.581
		c4.001,0,7.234,3.249,7.234,7.23v63.245H100.642z"/>
</g>
<g>
</g>
<g>
</g>
<g>
</g>
<g>
</g>
<g>
</g>
<g>
</g>
<g>
</g>
<g>
</g>
<g>
</g>
<g>
</g>
<g>
</g>
<g>
</g>
<g>
</g>
<g>
</g>
<g>
</g>
</svg>
