<?xml version="1.0" encoding="iso-8859-1"?>
<!-- Generator: Adobe Illustrator 16.0.0, SVG Export Plug-In . SVG Version: 6.00 Build 0)  -->
<!DOCTYPE svg PUBLIC "-//W3C//DTD SVG 1.1//EN" "http://www.w3.org/Graphics/SVG/1.1/DTD/svg11.dtd">
<svg version="1.1" id="Capa_1" xmlns="http://www.w3.org/2000/svg" xmlns:xlink="http://www.w3.org/1999/xlink" x="0px" y="0px"
	 width="168.112px" height="168.111px" viewBox="0 0 168.112 168.111" style="enable-background:new 0 0 168.112 168.111;"
	 xml:space="preserve">
<g>
	<path d="M117.227,109.951c0.005,1.273-1.008,2.279-2.259,2.297c-0.062,0-0.122,0-0.164,0c-15.159,0-27.734-12.97-32.284-18.326
		c-4.517,5.439-17.012,18.616-32.235,18.725c-0.005,0-0.005,0-0.01,0c-1.251,0-2.271-1.028-2.283-2.271
		c-0.005-1.264,1.011-2.276,2.263-2.287c13.864-0.093,25.782-13.423,29.301-17.762c-3.563-4.285-15.588-17.393-29.366-17.393
		c-0.052,0-0.106-0.025-0.139,0c-1.25,0-2.271-1.015-2.283-2.266c-0.01-1.261,1.004-2.279,2.265-2.29
		c15.202-0.084,27.865,12.958,32.441,18.331c4.511-5.444,17.012-18.628,32.242-18.719c0.01,0,0.01,0,0.01,0
		c1.248,0,2.273,1.021,2.282,2.271c0.011,1.247-1.007,2.279-2.26,2.279c-13.871,0.09-25.79,13.421-29.303,17.765
		c3.562,4.279,15.581,17.391,29.359,17.391c0.058,0,0.107-0.022,0.151,0C116.192,107.695,117.215,108.696,117.227,109.951z
		 M114.014,76.302c-0.012,0-0.012,0-0.012,0c-1.262,0.006-2.275,1.034-2.265,2.29l0.126,23.101c0.005,1.247,1.036,2.249,2.282,2.249
		c0.005,0,0.005,0,0.011,0c1.27-0.012,2.265-1.045,2.254-2.282l-0.12-23.089C116.28,77.309,115.252,76.302,114.014,76.302z
		 M104.345,79.208c0,0-0.005,0-0.009,0c-1.266,0-2.273,1.037-2.273,2.287l0.099,17.396c0,1.252,1.025,2.255,2.277,2.255
		c0.01,0,0.01,0,0.01,0c1.26,0,2.266-1.04,2.26-2.288l-0.093-17.389C106.616,80.212,105.611,79.208,104.345,79.208z M95.838,84.674
		c-0.014,0-0.014,0-0.014,0c-1.27,0.012-2.273,1.04-2.265,2.298l0.033,6.556c0.005,1.248,1.022,2.261,2.278,2.261
		c0.009,0,0.009,0,0.009,0c1.266-0.012,2.278-1.04,2.265-2.291l-0.038-6.556C98.098,85.687,97.084,84.674,95.838,84.674z
		 M50.317,104.324c0,0,0.006,0,0.011,0c1.261-0.012,2.276-1.034,2.262-2.298l-0.133-23.076c-0.007-1.259-1.032-2.263-2.279-2.263
		c-0.007,0-0.007,0-0.011,0c-1.261,0-2.276,1.032-2.267,2.295l0.135,23.076C48.05,103.322,49.068,104.324,50.317,104.324z
		 M59.989,101.43c0,0,0.006,0,0.012,0c1.26-0.012,2.274-1.045,2.262-2.287l-0.1-17.401c-0.007-1.256-1.03-2.268-2.279-2.268
		c-0.007,0-0.007,0-0.011,0c-1.261,0.011-2.276,1.042-2.267,2.295l0.103,17.396C57.719,100.406,58.74,101.43,59.989,101.43z
		 M68.513,95.952c0.004,0,0.004,0,0.01,0c1.263-0.012,2.274-1.045,2.264-2.299l-0.033-6.556c-0.006-1.263-1.027-2.271-2.279-2.271
		c0,0-0.008,0-0.014,0c-1.258,0.011-2.274,1.035-2.264,2.293l0.033,6.556C66.236,94.931,67.251,95.952,68.513,95.952z
		 M29.349,122.054V55.169c0-1.264,1.021-2.284,2.282-2.284h104.84c1.27,0,2.287,1.032,2.287,2.284v66.885
		c0,1.258-1.023,2.271-2.287,2.271H31.631C30.37,124.336,29.349,123.312,29.349,122.054z M33.91,119.776h100.291V57.445H33.91
		V119.776z M168.107,40.92c0,1.272-1.025,2.281-2.282,2.281h-13.392v85.566c0,5.089-4.146,9.236-9.231,9.236H24.912
		c-5.092,0-9.24-4.147-9.24-9.236V43.202H2.279C1.02,43.202,0,42.176,0,40.92c0-1.253,1.02-2.274,2.279-2.274h163.546
		C167.082,38.646,168.107,39.672,168.107,40.92z M147.886,43.202H20.238v85.566c0,2.583,2.096,4.684,4.678,4.684h118.285
		c2.583,0,4.685-2.101,4.685-4.684V43.202z M2.288,34.663h163.546c1.26,0,2.277-1.026,2.277-2.287c0-1.248-1.03-2.269-2.277-2.269
		H2.288c-1.263,0-2.283,1.026-2.283,2.269C0.005,33.637,1.025,34.663,2.288,34.663z"/>
</g>
<g>
</g>
<g>
</g>
<g>
</g>
<g>
</g>
<g>
</g>
<g>
</g>
<g>
</g>
<g>
</g>
<g>
</g>
<g>
</g>
<g>
</g>
<g>
</g>
<g>
</g>
<g>
</g>
<g>
</g>
</svg>
