<?xml version="1.0" encoding="iso-8859-1"?>
<!-- Generator: Adobe Illustrator 16.0.0, SVG Export Plug-In . SVG Version: 6.00 Build 0)  -->
<!DOCTYPE svg PUBLIC "-//W3C//DTD SVG 1.1//EN" "http://www.w3.org/Graphics/SVG/1.1/DTD/svg11.dtd">
<svg version="1.1" id="Capa_1" xmlns="http://www.w3.org/2000/svg" xmlns:xlink="http://www.w3.org/1999/xlink" x="0px" y="0px"
	 width="157.466px" height="157.466px" viewBox="0 0 157.466 157.466" style="enable-background:new 0 0 157.466 157.466;"
	 xml:space="preserve">
<g>
	<path d="M157.466,101.656v22.487c0,1.918-1.547,3.465-3.459,3.465s-3.471-1.547-3.471-3.465v-22.487
		c0-5.724-4.652-10.382-10.376-10.382h-26.056c-3.281,7.428-4.523,16.836-3.513,28.241c0.164,1.912-1.236,3.58-3.143,3.751
		c-0.109,0.012-0.207,0.012-0.304,0.012c-1.778,0-3.289-1.357-3.453-3.154c-0.968-11.216-0.006-20.855,2.88-28.85H79.507
		c-2.388,7.794-3.581,17.043-2.601,28.241c0.161,1.912-1.242,3.58-3.142,3.751c-0.119,0.012-0.207,0.012-0.313,0.012
		c-1.769,0-3.279-1.352-3.446-3.154c-0.974-11.191,0.024-20.715,2.256-28.85H44.713c-1.689,8.244-2.414,17.536-1.464,28.241
		c0.161,1.912-1.242,3.58-3.142,3.751c-0.119,0.012-0.207,0.012-0.32,0.012c-1.763,0-3.273-1.352-3.44-3.154
		c-0.944-10.838-0.25-20.319,1.394-28.85H17.309c-5.724,0-10.376,4.658-10.376,10.388v22.481c0,1.918-1.559,3.465-3.471,3.465
		c-1.915,0-3.462-1.547-3.462-3.465v-22.481c0-9.548,7.758-17.306,17.291-17.306h21.955c11.679-41.957,50.089-54.202,50.57-54.352
		c1.814-0.548,3.757,0.475,4.299,2.302c0.561,1.827-0.475,3.766-2.302,4.314c-1.741,0.535-34.428,11.18-45.397,47.724h28.153
		c11.545-28.799,39.281-36.496,39.64-36.587c1.876-0.499,3.751,0.633,4.232,2.46c0.481,1.854-0.615,3.748-2.466,4.241
		c-1.291,0.35-23.383,6.671-33.904,29.897h27.742c1.12-1.899,2.325-3.727,3.732-5.374c9.298-10.93,21.439-11.935,21.939-11.977
		c1.814-0.095,3.567,1.291,3.727,3.196c0.134,1.915-1.285,3.562-3.191,3.718c-0.177,0.012-9.962,0.947-17.28,9.663
		c-0.195,0.226-0.311,0.555-0.5,0.779h21.909C149.708,84.339,157.466,92.108,157.466,101.656z M130.649,107.276
		c0-2.162-1.742-3.891-3.892-3.891s-3.896,1.729-3.896,3.891c0,2.149,1.747,3.891,3.896,3.891S130.649,109.426,130.649,107.276z
		 M138.005,99.915c-1.681,0-3.032,1.369-3.032,3.025s1.364,3.026,3.032,3.026s3.021-1.37,3.021-3.026S139.673,99.915,138.005,99.915
		z M128.493,117.53c-1.278,0-2.301,1.018-2.301,2.289c0,1.273,1.022,2.303,2.301,2.303c1.267,0,2.29-1.029,2.29-2.303
		C130.783,118.548,129.76,117.53,128.493,117.53z M92.153,97.759c-2.874,0-5.188,2.326-5.188,5.194c0,2.862,2.313,5.188,5.188,5.188
		c2.862,0,5.188-2.325,5.188-5.188C97.342,100.085,95.016,97.759,92.153,97.759z M86.71,114.638
		c-1.912-0.104-3.538,1.37-3.642,3.271c-0.098,1.911,1.376,3.538,3.276,3.635c1.912,0.104,3.531-1.376,3.629-3.27
		C90.083,116.361,88.622,114.724,86.71,114.638z M52.793,102.953c0-1.669-1.357-3.021-3.017-3.021c-1.671,0-3.023,1.364-3.023,3.021
		c0,1.668,1.358,3.026,3.023,3.026C51.436,105.979,52.793,104.615,52.793,102.953z M54.964,111.167c-3.58,0-6.491,2.911-6.491,6.491
		c0,3.568,2.911,6.485,6.491,6.485c3.571,0,6.491-2.917,6.491-6.485C61.455,114.078,58.535,111.167,54.964,111.167z M21.656,99.915
		c-2.39,0-4.323,1.948-4.323,4.322c0,2.388,1.945,4.324,4.323,4.324c2.387,0,4.32-1.943,4.32-4.324
		C25.977,101.863,24.043,99.915,21.656,99.915z M19.485,117.226c-2.146,0-3.891,1.742-3.891,3.892s1.744,3.896,3.891,3.896
		c2.149,0,3.897-1.747,3.897-3.896S21.635,117.226,19.485,117.226z"/>
</g>
<g>
</g>
<g>
</g>
<g>
</g>
<g>
</g>
<g>
</g>
<g>
</g>
<g>
</g>
<g>
</g>
<g>
</g>
<g>
</g>
<g>
</g>
<g>
</g>
<g>
</g>
<g>
</g>
<g>
</g>
</svg>
