<?xml version="1.0" encoding="iso-8859-1"?>
<!-- Generator: Adobe Illustrator 16.0.0, SVG Export Plug-In . SVG Version: 6.00 Build 0)  -->
<!DOCTYPE svg PUBLIC "-//W3C//DTD SVG 1.1//EN" "http://www.w3.org/Graphics/SVG/1.1/DTD/svg11.dtd">
<svg version="1.1" id="Capa_1" xmlns="http://www.w3.org/2000/svg" xmlns:xlink="http://www.w3.org/1999/xlink" x="0px" y="0px"
	 width="185.097px" height="185.098px" viewBox="0 0 185.097 185.098" style="enable-background:new 0 0 185.097 185.098;"
	 xml:space="preserve">
<g>
	<g>
		<path d="M162.258,112.43c-0.487-2.581-1.973-12.166,0.737-22.183c5.729-21.074,3.58-59.302-25.843-78.228
			C126.071,4.874,114.745,0.377,92.608,0.012L90.875,0C66.528,0,34.822,8.646,22.031,49.9c-0.268,0.916-6.479,22.74,3.285,53.128
			c0.076,1.406,0.113,7.745-4.189,12.275c-3.66,3.861-6.67,11.923-5.045,19.242c0.917,4.195,3.754,9.852,11.923,13.073l21.126,2.155
			c0.584,0.463,4.29,4.08,5.921,23.705c0.308,3.818,2.862,11.046,10.421,11.046c0.697,0,1.44-0.061,1.882-0.158
			c2.238-0.128,4.877-2.046,6.497-9.049c0.393,2.174,1.196,4.464,2.743,6.163c1.629,1.789,3.778,2.569,6.354,2.666l1.422,0.195
			c3.885,0,6.552-3.678,7.944-11.217c1.196,5.237,3.306,10.328,6.95,11.606c0.188,0.062,1.261,0.365,2.728,0.365
			c1.9,0,7.971-0.657,9.621-9.341c0.372,2.144,1.176,4.774,2.972,6.625c1.425,1.462,3.264,2.241,5.791,2.241h0.085
			c0.95,0,9.341-0.499,11.368-18.329c-0.262-4.115,0.323-15.867,6.083-16.672c0.999,0.128,3.642,0.451,6.967,0.451h0.012
			c13.378,0,21.799-4.908,23.522-13.238C168.597,136.36,173.018,125.668,162.258,112.43z M162.502,134.929
			c-1.577,7.362-10.449,8.909-17.61,8.909c-3.653,0-6.381-0.427-6.412-0.438l-0.371-0.061l-0.359,0.023
			c-10.741,0.779-12.678,15.028-12.13,22.768c-1.107,9.523-4.256,12.087-5.607,12.27l-0.944-0.383
			c-1.071-1.097-1.51-4.001-1.474-5.864c-0.268-9.621-1.814-11.868-3.105-12.738c-0.853-0.591-1.753-0.884-2.679-0.884
			c-4.701,0-5.499,6.656-5.797,9.171c-0.39,3.196-0.408,6.382-0.39,6.405c-0.64,4.75-2.789,4.75-3.605,4.75l-0.767-0.061
			c-1.65-1.048-3.629-8.879-4.178-16.532l-0.085-1.114l-0.771-0.816c-1.239-1.314-2.582-1.984-3.976-1.984
			c-4.683,0-5.663,6.338-5.639,11.246c-0.804,6.32-2.107,8.099-2.256,8.445l-0.536-0.23l-1.035,0.104
			c-0.855,0-1.23-0.293-1.522-0.615c-1.495-1.645-1.626-5.925-1.428-7.971c0.106-4.537-0.566-7.283-2.177-8.934
			c-0.911-0.932-2.131-1.455-3.41-1.455c-2.137,0-3.748,1.377-4.189,1.791l-0.91,0.877l-0.064,1.266
			c-0.46,11.351-2.363,14.663-2.923,15.394c-4.141,0.427-4.807-4.7-4.859-5.272c-2.013-24.248-7.408-29.362-11.299-29.362h-0.012
			l-20.07-1.948c-4.284-1.791-6.877-4.628-7.727-8.452c-1.215-5.48,1.367-11.356,3.486-13.604
			c6.854-7.209,5.885-17.062,5.849-17.487l-0.131-0.646c-9.301-28.631-3.422-49.604-3.373-49.76
			C39.66,14.145,68.647,6.259,90.894,6.259l1.647,0.012c22.88,0.381,32.915,5.642,41.264,11.019
			c26.597,17.113,28.442,52.044,23.193,71.35c-3.574,13.158-0.773,25.41-0.651,25.922l0.17,0.73l0.481,0.572
			C165.784,126.259,162.806,134.064,162.502,134.929z"/>
		<path d="M125.102,86.094c-1.918,0-3.848,0.195-5.76,0.587c-13.688,2.786-22.838,14.837-20.393,26.862
			c2.082,10.205,11.758,17.336,23.51,17.336c1.925,0,3.854-0.188,5.761-0.597c13.688-2.776,22.828-14.833,20.393-26.865
			C146.518,93.212,136.848,86.094,125.102,86.094z M126.978,124.176c-1.498,0.316-3.002,0.457-4.519,0.457
			c-8.756,0-15.911-5.072-17.391-12.337c-1.766-8.658,5.2-17.409,15.516-19.504c1.491-0.311,3.002-0.463,4.518-0.463
			c8.757,0,15.917,5.072,17.391,12.344C144.259,113.325,137.292,122.075,126.978,124.176z"/>
		<path d="M85.496,113.544c1.203-5.906-0.32-11.989-4.266-17.086c-3.848-4.969-9.572-8.445-16.112-9.77
			c-1.915-0.387-3.848-0.587-5.77-0.587c-11.758,0-21.431,7.124-23.513,17.33c-2.448,12.031,6.698,24.076,20.39,26.865
			c1.903,0.389,3.842,0.596,5.763,0.596C73.752,130.868,83.419,123.749,85.496,113.544z M79.385,112.302
			c-1.474,7.259-8.632,12.343-17.379,12.343c-1.51,0-3.017-0.158-4.527-0.463c-10.306-2.106-17.278-10.851-15.512-19.509
			c1.477-7.271,8.641-12.344,17.394-12.344c1.498,0,3.021,0.152,4.521,0.463c5.075,1.035,9.49,3.69,12.422,7.472
			C79.129,103.923,80.219,108.198,79.385,112.302z"/>
		<path d="M94.504,115.151l-2.007-1.687l-2.009,1.687c-1.035,0.883-10.169,8.738-11.299,15.613
			c-0.255,1.035-0.386,2.137-0.386,3.232c0,3.946,1.628,7.502,4.354,9.518c2.81,2.095,6.583,2.07,9.347,0.116
			c1.37,0.974,2.947,1.51,4.594,1.51c1.681,0,3.307-0.566,4.737-1.626c2.734-2.016,4.36-5.584,4.36-9.518
			c0-1.083-0.128-2.174-0.341-2.983C104.673,123.89,95.54,116.034,94.504,115.151z M98.14,138.51
			c-1.377,0.999-2.631-0.463-2.987-1.048l-2.661-4.268l-2.646,4.28c-0.368,0.572-1.665,2.003-2.98,1.035
			c-0.847-0.627-1.833-2.187-1.833-4.524c0-0.597,0.076-1.169,0.256-1.955c0.493-2.977,4.122-7.294,7.194-10.271
			c3.093,2.983,6.734,7.344,7.258,10.51c0.141,0.561,0.207,1.145,0.207,1.729C99.96,136.323,98.961,137.883,98.14,138.51z"/>
	</g>
</g>
<g>
</g>
<g>
</g>
<g>
</g>
<g>
</g>
<g>
</g>
<g>
</g>
<g>
</g>
<g>
</g>
<g>
</g>
<g>
</g>
<g>
</g>
<g>
</g>
<g>
</g>
<g>
</g>
<g>
</g>
</svg>
