<?xml version="1.0" encoding="iso-8859-1"?>
<!-- Generator: Adobe Illustrator 16.0.0, SVG Export Plug-In . SVG Version: 6.00 Build 0)  -->
<!DOCTYPE svg PUBLIC "-//W3C//DTD SVG 1.1//EN" "http://www.w3.org/Graphics/SVG/1.1/DTD/svg11.dtd">
<svg version="1.1" id="Capa_1" xmlns="http://www.w3.org/2000/svg" xmlns:xlink="http://www.w3.org/1999/xlink" x="0px" y="0px"
	 width="109.862px" height="109.862px" viewBox="0 0 109.862 109.862" style="enable-background:new 0 0 109.862 109.862;"
	 xml:space="preserve">
<g>
	<path d="M107.056,1.229H2.801C1.255,1.229,0,2.49,0,4.03v74.703c0,1.544,1.255,2.802,2.801,2.802h20.185v24.297
		c0,1.542,1.254,2.802,2.802,2.802H84.06c1.546,0,2.802-1.26,2.802-2.802V81.535h20.199c1.546,0,2.802-1.258,2.802-2.802V4.03
		C109.856,2.49,108.597,1.229,107.056,1.229z M104.254,75.933H84.06c-1.554,0-2.801,1.247-2.801,2.801v24.298H67.578V78.846
		c0-1.546-1.257-2.805-2.802-2.805c-1.549,0-2.802,1.259-2.802,2.805v24.186H47.876V78.846c0-1.546-1.26-2.805-2.801-2.805
		c-1.55,0-2.802,1.259-2.802,2.805v24.186H28.582V78.733c0-1.554-1.252-2.801-2.802-2.801H5.598V6.832h98.643L104.254,75.933
		L104.254,75.933z M65.521,39.532c0-4.752,3.864-8.613,8.624-8.613c4.756,0,8.613,3.861,8.613,8.613
		c0,4.775-3.857,8.624-8.613,8.624C69.385,48.156,65.521,44.308,65.521,39.532z M18.14,46.493c-0.118,1.204,0.235,2.375,0.996,3.294
		l5.727,7.016c0.853,1.04,2.12,1.63,3.475,1.63c1.025,0,2.03-0.351,2.833-1.006l4.345-3.558l3.542,4.323
		c0.881,1.071,2.174,1.653,3.479,1.653c0.99,0,1.989-0.34,2.834-1.008l7.021-5.734c1.913-1.568,2.186-4.392,0.618-6.304
		l-3.559-4.336l4.33-3.535c0.931-0.764,1.514-1.827,1.637-3.02c0.119-1.204-0.229-2.375-0.99-3.305l-5.716-6.978
		c-1.501-1.86-4.466-2.186-6.32-0.656l-4.345,3.56l-3.556-4.356c-0.764-0.93-1.839-1.499-3.037-1.616
		c-1.235-0.079-2.365,0.251-3.268,0.995l-7.004,5.722c-0.936,0.769-1.513,1.838-1.63,3.042c-0.119,1.193,0.234,2.353,0.995,3.273
		l3.56,4.344l-4.33,3.545C18.839,44.228,18.256,45.3,18.14,46.493z M47.964,49.489l-5.267,4.315l-2.844-3.48l5.272-4.312
		L47.964,49.489z M45.076,30.025l4.32,5.262L28.5,52.381l-4.319-5.271L45.076,30.025z M25.603,32.898l5.279-4.32l2.833,3.48
		l-5.271,4.32L25.603,32.898z"/>
</g>
<g>
</g>
<g>
</g>
<g>
</g>
<g>
</g>
<g>
</g>
<g>
</g>
<g>
</g>
<g>
</g>
<g>
</g>
<g>
</g>
<g>
</g>
<g>
</g>
<g>
</g>
<g>
</g>
<g>
</g>
</svg>
