<?xml version="1.0" encoding="iso-8859-1"?>
<!-- Generator: Adobe Illustrator 16.0.0, SVG Export Plug-In . SVG Version: 6.00 Build 0)  -->
<!DOCTYPE svg PUBLIC "-//W3C//DTD SVG 1.1//EN" "http://www.w3.org/Graphics/SVG/1.1/DTD/svg11.dtd">
<svg version="1.1" id="Capa_1" xmlns="http://www.w3.org/2000/svg" xmlns:xlink="http://www.w3.org/1999/xlink" x="0px" y="0px"
	 width="134.808px" height="134.808px" viewBox="0 0 134.808 134.808" style="enable-background:new 0 0 134.808 134.808;"
	 xml:space="preserve">
<g>
	<path d="M112.802,39.746c-0.921-1.973-4.15-1.973-5.058,0c-2.255,4.78-21.996,47.01-21.996,59.284
		c0,13.527,10.996,24.536,24.523,24.536c13.526,0,24.536-11.009,24.536-24.536C134.803,86.756,115.056,44.526,112.802,39.746z
		 M110.256,117.963c-10.425,0-18.923-8.498-18.923-18.934c0-8.208,11.98-36.181,18.923-51.428
		c6.959,15.248,18.943,43.22,18.943,51.428C129.2,109.476,120.712,117.963,110.256,117.963z M113.057,108.359
		c0,1.543-1.254,2.801-2.801,2.801c-6.682,0-12.126-5.438-12.126-12.125c0-1.543,1.263-2.802,2.802-2.802
		c1.555,0,2.801,1.259,2.801,2.802c0,3.6,2.928,6.522,6.523,6.522C111.816,105.558,113.057,106.805,113.057,108.359z M90.398,38.318
		v-3.47h17.543c1.555,0,2.802-1.256,2.802-2.801c0-1.541-1.247-2.803-2.802-2.803H90.398v-3.45c0-5.01-4.071-9.067-9.062-9.067
		L26.74,16.723v-2.679c0-1.541-1.257-2.802-2.802-2.802c-1.55,0-2.802,1.261-2.802,2.802l0.005,15.212L5.604,29.245V20.98
		c0-1.541-1.254-2.802-2.802-2.802C1.253,18.178,0,19.439,0,20.98l0.007,22.129c0,1.541,1.253,2.801,2.802,2.801
		c1.545,0,2.801-1.26,2.801-2.801v-8.266l15.537,0.011l0.006,15.201c0,1.543,1.256,2.801,2.802,2.801
		c1.545,0,2.801-1.258,2.801-2.801v-2.684H81.36C86.337,47.377,90.398,43.311,90.398,38.318z M26.733,22.315l54.597,0.005
		c1.91,0,3.46,1.546,3.46,3.464l0.01,12.518c0,1.915-1.549,3.46-3.459,3.46H70.562v-8.186c0-1.546-1.261-2.801-2.802-2.801
		c-1.541,0-2.801,1.255-2.801,2.801v8.186h-5.615v-8.186c0-1.546-1.256-2.801-2.801-2.801c-1.546,0-2.802,1.255-2.802,2.801v8.186
		h-5.603v-8.186c0-1.546-1.256-2.801-2.802-2.801c-1.547,0-2.802,1.255-2.802,2.801v8.186H26.74L26.733,22.315z"/>
</g>
<g>
</g>
<g>
</g>
<g>
</g>
<g>
</g>
<g>
</g>
<g>
</g>
<g>
</g>
<g>
</g>
<g>
</g>
<g>
</g>
<g>
</g>
<g>
</g>
<g>
</g>
<g>
</g>
<g>
</g>
</svg>
