<?xml version="1.0" encoding="iso-8859-1"?>
<!-- Generator: Adobe Illustrator 16.0.0, SVG Export Plug-In . SVG Version: 6.00 Build 0)  -->
<!DOCTYPE svg PUBLIC "-//W3C//DTD SVG 1.1//EN" "http://www.w3.org/Graphics/SVG/1.1/DTD/svg11.dtd">
<svg version="1.1" id="Capa_1" xmlns="http://www.w3.org/2000/svg" xmlns:xlink="http://www.w3.org/1999/xlink" x="0px" y="0px"
	 width="140.085px" height="140.085px" viewBox="0 0 140.085 140.085" style="enable-background:new 0 0 140.085 140.085;"
	 xml:space="preserve">
<g>
	<path d="M138.595,56.138c-0.295-0.175-0.831-0.544-1.575-1.048c-6.671-4.506-27.021-18.21-45.221-18.21
		c-1.04,0-2.062,0.049-3.123,0.145c-8.259,0.852-12.472,2.892-18.629,6.126c-6.009-3.155-10.226-5.25-18.647-6.137
		c-18.816-1.726-41.24,13.309-48.323,18.071c-0.74,0.499-1.272,0.862-1.562,1.054c-0.84,0.32-1.464,1.103-1.514,2.038
		c-0.15,2.934,20.682,41.885,47.886,44.731c9.892,1.028,14.771-0.645,22.161-3.918c5.956,2.631,10.271,4.213,16.911,4.213
		c1.606,0,3.347-0.099,5.257-0.295c27.203-2.847,48.022-41.798,47.869-44.731C140.037,57.241,139.429,56.458,138.595,56.138z
		 M72.34,84.932V73.687c3.995-0.055,7.997-0.241,11.995-0.553v10.407C80.45,84.319,76.453,84.791,72.34,84.932z M127.099,60.167
		c-7.157,2.242-14.358,4.051-21.576,5.454v-6.021C114.25,59.774,121.649,59.987,127.099,60.167z M100.932,66.485
		c-4,0.663-7.998,1.204-12,1.615v-8.758c4.181,0.052,8.187,0.106,12,0.175V66.485z M84.335,68.538
		c-3.998,0.334-8,0.504-11.995,0.569v-9.883c4.094,0.011,8.109,0.037,11.995,0.069V68.538z M67.745,69.123
		c-4.006-0.038-8.005-0.214-11.995-0.514v-9.322c3.882-0.033,7.9-0.057,11.995-0.068V69.123z M51.153,68.208
		c-4.011-0.403-8.01-0.935-11.998-1.607v-7.09c3.812-0.073,7.817-0.122,11.998-0.175V68.208z M34.563,65.758
		c-7.335-1.422-14.598-3.262-21.793-5.592c5.475-0.168,12.955-0.381,21.793-0.578V65.758z M34.563,70.458v6.036
		c-7.095-3.295-13.26-7.043-18.133-10.425C22.426,67.826,28.473,69.304,34.563,70.458z M39.156,71.251
		c3.987,0.652,7.986,1.188,11.998,1.577v9.67c-4.186-1.086-8.197-2.454-11.998-4.007V71.251z M55.75,83.143v-9.927
		c3.99,0.295,7.989,0.459,11.995,0.504v11.217c-4.123-0.142-8.164-0.618-12.067-1.396C55.692,83.4,55.75,83.274,55.75,83.143z
		 M88.932,72.718c4.002-0.399,8-0.93,12-1.587v7.376c-3.804,1.549-7.814,2.923-12,3.995V72.718z M105.523,70.299
		c6.167-1.171,12.312-2.665,18.435-4.421c-4.922,3.426-11.201,7.272-18.435,10.621V70.299z M48.326,41.484
		c0.892,0,1.774,0.036,2.633,0.112c7.823,0.818,11.306,2.651,18.025,6.186c0.668,0.353,1.85,0.145,2.527-0.194
		c6.329-3.33,9.812-5.168,17.623-5.975c14.245-1.323,31.087,8.115,40.401,14.054c-11.345-0.38-33.813-1.02-59.48-1.02
		c-25.649,0-48.101,0.62-59.451,1.02C19.339,50.086,34.713,41.484,48.326,41.484z M91.745,98.337
		c-9.204,0.975-13.509-0.72-20.761-3.955c-0.31-0.126-0.608-0.191-0.937-0.191c-0.325,0-0.637,0.065-0.935,0.191
		c-7.251,3.239-11.554,4.94-20.75,3.955C31.339,96.566,16.935,78.442,9.604,66.896c11.617,8.794,34.131,22.72,60.438,22.72
		c5.724,0,11.234-0.729,16.527-1.844c0.025,0,0.042,0.017,0.065,0.017c0.351,0,0.683-0.104,0.991-0.241
		c18.564-4.175,33.935-13.893,42.849-20.651C123.149,78.447,108.73,96.559,91.745,98.337z"/>
</g>
<g>
</g>
<g>
</g>
<g>
</g>
<g>
</g>
<g>
</g>
<g>
</g>
<g>
</g>
<g>
</g>
<g>
</g>
<g>
</g>
<g>
</g>
<g>
</g>
<g>
</g>
<g>
</g>
<g>
</g>
</svg>
