<?xml version="1.0" encoding="iso-8859-1"?>
<!-- Generator: Adobe Illustrator 16.0.0, SVG Export Plug-In . SVG Version: 6.00 Build 0)  -->
<!DOCTYPE svg PUBLIC "-//W3C//DTD SVG 1.1//EN" "http://www.w3.org/Graphics/SVG/1.1/DTD/svg11.dtd">
<svg version="1.1" id="Capa_1" xmlns="http://www.w3.org/2000/svg" xmlns:xlink="http://www.w3.org/1999/xlink" x="0px" y="0px"
	 width="161.027px" height="161.028px" viewBox="0 0 161.027 161.028" style="enable-background:new 0 0 161.027 161.028;"
	 xml:space="preserve">
<g>
	<path d="M52.932,45.188c5.511,5.967,7.937,12.684,5.438,14.988c-2.502,2.302-9-0.661-14.498-6.641
		c-5.514-5.967-7.931-12.681-5.438-14.988C40.934,36.24,47.418,39.214,52.932,45.188z M70.003,82.021
		c-6.628,3.977-14.358,6.314-22.646,6.314c-24.356,0-44.171-19.808-44.171-44.165C3.187,19.817,23.001,0,47.357,0
		c24.348,0,44.158,19.817,44.158,44.171c0,13.694-6.271,25.946-16.075,34.05c2.993,1.967,7.158,3.8,13.067,5.097
		c4.189,0.92,14.419,3.928,18.846,11.965c2.564,4.677,2.759,10.121,0.566,16.21c-0.463,1.267-1.668,2.058-2.947,2.058
		c-0.353,0-0.7-0.061-1.059-0.17c-1.62-0.597-2.461-2.375-1.876-4.007c1.596-4.384,1.534-8.014-0.146-11.07
		c-3.294-5.979-12.099-8.317-14.724-8.902C79.201,87.66,73.763,84.962,70.003,82.021z M47.364,82.094
		c6.564,0,12.745-1.681,18.136-4.634c-1.689-2.296-2.6-4.506-3.09-6.385c-1.498,0.557-3.151,0.855-4.926,0.855
		c-6.841,0-15.041-4.296-21.413-11.21c-4.564-4.957-7.751-10.714-8.96-16.206c-1.34-6.093-0.137-11.231,3.373-14.459
		c2.226-2.058,5.237-3.151,8.705-3.151c6.832,0,15.034,4.29,21.413,11.213c8.915,9.669,11.782,21.385,7.45,28.321
		c0,0.098,0.036,0.191,0.024,0.298c-0.024,0.286-0.192,3.541,2.651,7.246c8.848-6.954,14.56-17.716,14.56-29.812
		c0-20.914-17.017-37.936-37.923-37.936c-20.914,0-37.936,17.016-37.936,37.936C9.428,65.084,26.45,82.094,47.364,82.094z
		 M61.953,64.204c3.629-3.352,2.083-13.156-5.943-21.86c-5.148-5.587-11.758-9.204-16.821-9.204c-1.897,0-3.398,0.5-4.479,1.492
		c-1.787,1.653-2.338,4.771-1.507,8.54c0.971,4.436,3.623,9.161,7.45,13.32C47.732,64.173,58.02,67.833,61.953,64.204z
		 M114.606,146.548c1.984,3.604,2.155,7.781,0.475,12.422c-0.463,1.266-1.662,2.058-2.941,2.058c-0.353,0-0.712-0.067-1.06-0.183
		c-1.619-0.585-2.466-2.375-1.875-3.994c1.06-2.93,1.041-5.316-0.067-7.295c-2.21-4.001-8.25-5.59-10.053-5.998
		c-12.665-2.783-16.928-8.829-18.325-13.104c-0.941,0.256-1.891,0.499-2.95,0.499c-5.249,0-11.274-3.13-16.1-8.379
		c-3.404-3.69-5.778-7.989-6.677-12.093c-1.035-4.726-0.082-8.714,2.701-11.277c5.188-4.811,15.637-2.095,22.975,5.87
		c3.4,3.69,5.778,7.982,6.68,12.099c0.785,3.593,0.39,6.76-1.054,9.213v0.013c-0.024,0.433-0.311,7.903,14.091,11.063
		C103.561,138.169,111.232,140.428,114.606,146.548z M80.474,123.884c1.06-0.986,1.364-2.941,0.828-5.353
		c-0.655-2.996-2.545-6.363-5.17-9.213c-3.565-3.873-8.093-6.363-11.521-6.363c-1.148,0-2.034,0.28-2.646,0.841
		c-1.06,0.986-1.364,2.935-0.834,5.352c0.661,3.008,2.548,6.363,5.176,9.226C71.05,123.512,78.017,126.119,80.474,123.884z
		 M156.694,117.892c-0.457,1.267-1.656,2.059-2.935,2.059c-0.359,0-0.719-0.067-1.06-0.184c-1.626-0.584-2.467-2.374-1.882-4
		c1.06-2.923,1.041-5.31-0.061-7.295c-2.211-4.007-8.257-5.584-10.06-5.992c-12.659-2.782-16.928-8.828-18.322-13.104
		c-0.938,0.256-1.888,0.5-2.947,0.5c-5.255,0-11.277-3.131-16.1-8.373c-3.41-3.696-5.785-7.995-6.686-12.105
		c-1.035-4.713-0.073-8.71,2.709-11.271c5.188-4.802,15.631-2.095,22.975,5.873c3.397,3.689,5.772,7.985,6.68,12.102
		c0.786,3.599,0.384,6.766-1.054,9.207c0,0.013,0,0.013,0,0.024c-0.023,0.426-0.304,7.897,14.091,11.058
		c3.142,0.683,10.809,2.947,14.188,9.062C158.204,109.076,158.369,113.252,156.694,117.892z M122.084,82.8
		c1.06-0.98,1.363-2.935,0.828-5.353c-0.652-3.005-2.539-6.366-5.17-9.213c-3.562-3.866-8.093-6.369-11.527-6.369
		c-1.145,0-2.033,0.289-2.643,0.85c-1.06,0.978-1.363,2.932-0.834,5.35c0.651,3.005,2.552,6.366,5.176,9.219
		C112.664,82.435,119.617,85.042,122.084,82.8z"/>
</g>
<g>
</g>
<g>
</g>
<g>
</g>
<g>
</g>
<g>
</g>
<g>
</g>
<g>
</g>
<g>
</g>
<g>
</g>
<g>
</g>
<g>
</g>
<g>
</g>
<g>
</g>
<g>
</g>
<g>
</g>
</svg>
