<?xml version="1.0" encoding="iso-8859-1"?>
<!-- Generator: Adobe Illustrator 16.0.0, SVG Export Plug-In . SVG Version: 6.00 Build 0)  -->
<!DOCTYPE svg PUBLIC "-//W3C//DTD SVG 1.1//EN" "http://www.w3.org/Graphics/SVG/1.1/DTD/svg11.dtd">
<svg version="1.1" id="Capa_1" xmlns="http://www.w3.org/2000/svg" xmlns:xlink="http://www.w3.org/1999/xlink" x="0px" y="0px"
	 width="187.059px" height="187.059px" viewBox="0 0 187.059 187.059" style="enable-background:new 0 0 187.059 187.059;"
	 xml:space="preserve">
<g>
	<path d="M125.495,88.204c-1.225-0.219-2.412-0.344-3.514-0.344c-6.607,0-9.864,3.717-11.576,7.909
		c-1.973-2.301-3.209-5.882-3.567-7.398c-0.28-1.19-1.474-1.945-2.691-1.663c-1.206,0.287-1.949,1.489-1.675,2.691
		c0.201,0.85,1.991,7.788,6.552,11.125c-0.292,1.468-0.469,2.874-0.608,4.013l-0.104,0.725c-0.792,6.12-6.881,7.667-13.336,8.422
		c-5.635,0.646-6.616,3.793-6.759,5.127c-0.38,3.233,2.29,6.204,5.081,7.203c5.063,1.821,9.996,2.734,14.647,2.734
		c9.561,0,18.061-3.982,23.298-10.924c7.185-9.481,6.734-16.483,5.103-20.661C134.555,92.595,130.292,89.072,125.495,88.204z
		 M127.692,115.14c-6.643,8.774-19.296,11.551-32.865,6.667c-1.291-0.462-2.22-1.832-2.165-2.472
		c0.063-0.438,1.035-0.986,2.85-1.188c4.762-0.566,15.893-1.856,17.257-12.294l0.091-0.755c0.841-6.704,2.156-12.735,9.122-12.735
		c0.846,0,1.735,0.088,2.733,0.268c2.503,0.441,5.968,2.336,7.478,6.184C133.927,103.296,132.375,108.947,127.692,115.14z
		 M152.074,106.365c0-13.442-6.875-25.312-17.275-32.291l0.013-8.235c-0.037-9.216-7.526-16.7-16.733-16.7c-0.013,0-0.013,0-0.024,0
		l-18.9,0.018c7.44-4.731,12.409-13.037,12.409-22.496C111.562,11.965,99.603,0,84.895,0C70.189,0,58.224,11.965,58.224,26.661
		c0,9.484,4.996,17.796,12.465,22.53l-19.004,0.024c-9.222,0-16.712,7.514-16.7,16.736v56.38c0,1.229,0.999,2.229,2.241,2.229
		h19.178v45.778c0,9.219,7.176,16.721,15.999,16.721h24.941c8.829,0,16.015-7.502,16.015-16.721v-25.124
		C134.713,145.104,152.074,127.726,152.074,106.365z M62.709,26.655c0-12.239,9.962-22.198,22.198-22.198
		c12.239,0,22.198,9.959,22.198,22.198c0,12.233-9.959,22.186-22.198,22.186C72.652,48.841,62.709,38.888,62.709,26.655z
		 M97.362,182.564H86.889c0.137-0.305,0.243-0.621,0.243-0.968v-40.938c0-1.229-0.999-2.229-2.237-2.229
		c-1.236,0-2.241,0.999-2.241,2.229v40.938c0,0.347,0.101,0.663,0.244,0.968H72.424c-6.36,0-11.536-5.492-11.536-12.238v-47.965
		c0-0.012,0.012-0.024,0.012-0.043c0-0.018-0.012-0.023-0.012-0.049V84.027c0-1.228-0.999-2.232-2.231-2.232
		c-1.236,0-2.241,1.004-2.241,2.232v36.038h-16.94V65.921c-0.006-3.258,1.261-6.342,3.559-8.656
		c2.314-2.314,5.383-3.586,8.656-3.592l66.381-0.073h0.012c6.734,0,12.228,5.492,12.239,12.227v5.672
		c-5.157-2.542-10.96-4.019-17.092-4.019c-21.428,0-38.855,17.428-38.855,38.843c0,19.961,15.144,36.443,34.532,38.6v25.367
		C108.895,177.072,103.719,182.564,97.362,182.564z M113.218,140.721c-18.952,0-34.379-15.418-34.379-34.367
		c0-18.953,15.427-34.38,34.379-34.38c18.949,0,34.367,15.427,34.367,34.38C147.585,125.314,132.167,140.721,113.218,140.721z"/>
</g>
<g>
</g>
<g>
</g>
<g>
</g>
<g>
</g>
<g>
</g>
<g>
</g>
<g>
</g>
<g>
</g>
<g>
</g>
<g>
</g>
<g>
</g>
<g>
</g>
<g>
</g>
<g>
</g>
<g>
</g>
</svg>
