<?xml version="1.0" encoding="iso-8859-1"?>
<!-- Generator: Adobe Illustrator 16.0.0, SVG Export Plug-In . SVG Version: 6.00 Build 0)  -->
<!DOCTYPE svg PUBLIC "-//W3C//DTD SVG 1.1//EN" "http://www.w3.org/Graphics/SVG/1.1/DTD/svg11.dtd">
<svg version="1.1" id="Capa_1" xmlns="http://www.w3.org/2000/svg" xmlns:xlink="http://www.w3.org/1999/xlink" x="0px" y="0px"
	 width="155.884px" height="155.883px" viewBox="0 0 155.884 155.883" style="enable-background:new 0 0 155.884 155.883;"
	 xml:space="preserve">
<g>
	<path d="M155.365,54.933c-3.952-25.629-36.505-42.995-77.338-40.066c-40.542,2.88-73.895,28.388-77.582,59.32
		C-1.074,86.938,1.3,96.96,7.505,103.945c5.748,6.473,14.477,9.889,25.246,9.889c4.354,0,8.966-0.651,13.576-1.747
		c-1.2,5.456-5.015,15.484-17.403,21.251c-2.095,0.975-3.014,3.471-2.034,5.565c0.709,1.534,2.213,2.436,3.796,2.436
		c0.6,0,1.197-0.134,1.772-0.396c20.064-9.341,22.49-27.773,22.783-31.682c0.63-0.25,1.272-0.433,1.896-0.701
		c7.14-3.068,12.179-7.764,16.618-11.904c4.783-4.463,8.281-7.958,12.762-7.38c33.323,3.873,53.947,0.402,63.52-10.747
		C155.085,72.659,156.875,64.718,155.365,54.933z M143.68,73.073c-4.013,4.677-11.562,7.551-22.268,8.714
		c1.175-4.774,3.403-17.099-2.515-24.686c-2.198-2.813-6.376-6.138-14.219-5.724c-2.313,0.097-4.104,2.058-4,4.366
		s1.626,4.171,4.378,4c5.255-0.109,6.698,1.827,7.222,2.503c3.708,4.737,1.638,15.582,0.608,19.017
		c-0.109,0.353-0.085,0.688-0.097,1.053c-7.344,0.146-15.71-0.249-25.288-1.37c-8.117-0.889-13.68,4.17-19.471,9.572
		c-4.128,3.86-8.406,7.843-14.2,10.333c-6.908,2.966-14.395,4.604-21.081,4.604c-5.791,0-13.78-1.229-18.974-7.088
		C9.231,93.258,7.542,85.458,8.763,75.18c1.011-8.439,4.628-16.417,10.251-23.486c0.021-0.006,0.04-0.006,0.064-0.012
		c0.119-0.048,11.792-5.48,18.898-1.413c3.55,2.034,5.62,6.424,6.15,13.049c0.173,2.192,2.006,3.849,4.165,3.849
		c0.119,0,0.231-0.006,0.341-0.012c2.314-0.176,4.028-2.198,3.842-4.512c-0.761-9.548-4.247-16.154-10.339-19.656
		c-3.629-2.077-7.663-2.625-11.497-2.508c12.544-9.512,29.405-15.924,47.974-17.251c2.755-0.195,5.486-0.292,8.169-0.292
		c31.971,0,57.32,13.999,60.291,33.271C148.217,63.568,147.103,69.084,143.68,73.073z"/>
</g>
<g>
</g>
<g>
</g>
<g>
</g>
<g>
</g>
<g>
</g>
<g>
</g>
<g>
</g>
<g>
</g>
<g>
</g>
<g>
</g>
<g>
</g>
<g>
</g>
<g>
</g>
<g>
</g>
<g>
</g>
</svg>
