<?xml version="1.0" encoding="iso-8859-1"?>
<!-- Generator: Adobe Illustrator 16.0.0, SVG Export Plug-In . SVG Version: 6.00 Build 0)  -->
<!DOCTYPE svg PUBLIC "-//W3C//DTD SVG 1.1//EN" "http://www.w3.org/Graphics/SVG/1.1/DTD/svg11.dtd">
<svg version="1.1" id="Capa_1" xmlns="http://www.w3.org/2000/svg" xmlns:xlink="http://www.w3.org/1999/xlink" x="0px" y="0px"
	 width="206.315px" height="206.315px" viewBox="0 0 206.315 206.315" style="enable-background:new 0 0 206.315 206.315;"
	 xml:space="preserve">
<g>
	<g>
		<path d="M84.488,86.164c-0.019,1.011,0.119,2.01,0.387,2.975c0.63,2.214,1.958,3.916,3.629,4.652
			c0.606,0.268,1.23,0.399,1.86,0.399c0.691,0,1.388-0.167,2.043-0.5c2.083-1.035,3.011-3.617,3.581-5.331
			c0.715-1.102,1.178-2.295,1.522-3.179l0.347-0.892l0.064-0.244c0.359-0.685,0.648-1.361,0.877-1.909l0.386-0.886l0.058-0.186
			l0.685-0.66l0.161-0.207l0.475-0.155v0.101c0,1.022,0.828,1.863,1.857,1.863c1.023,0,1.854-0.841,1.854-1.863v-0.101l0.472,0.155
			l0.162,0.207l0.688,0.66l0.055,0.186l0.387,0.892c0.231,0.542,0.512,1.206,0.883,1.891l0.062,0.256l0.358,0.892
			c0.348,0.883,0.798,2.083,1.517,3.179c0.566,1.714,1.485,4.296,3.58,5.331c0.646,0.332,1.353,0.5,2.034,0.5
			c0.64,0,1.254-0.131,1.863-0.399c1.681-0.737,2.996-2.438,3.629-4.652c0.438-1.534,0.634-2.807,0.561-3.772v-0.024
			c0.243-1.148,0.28-2.326,0.079-3.492l-0.006-0.013c0.273-1.479,0.134-2.999-0.39-4.415l-0.024-0.024l0.036-0.755
			c0-1.458-0.39-2.892-1.12-4.134c-0.098-1.626-0.804-3.185-2.059-4.482l0.293-1.093c0-0.636-0.28-1.534-1.522-2.387l0.487-1.278
			c0-1.255-1.242-2.326-3.447-2.987l0.329-1.105c0-1.376-1.278-2.561-3.361-3.215c-0.256-1.474-2.21-2.582-4.686-2.582l-0.654,0.655
			l0.654,0.654c1.945,0,3.395,0.816,3.419,1.571l-0.012,0.024v0.082c-0.109,0.722-1.517,1.501-3.407,1.501l-0.959-0.101
			c-0.262-0.703-0.935-1.215-1.735-1.215c-0.798,0-1.477,0.512-1.738,1.215l-0.953,0.101c-1.958,0-3.438-0.84-3.438-1.596
			c0-0.743,1.474-1.583,3.438-1.583l0.648-0.654l-0.648-0.655c-2.475,0-4.433,1.108-4.701,2.582
			c-2.098,0.648-3.349,1.827-3.349,3.215l0.329,1.105c-2.208,0.661-3.447,1.732-3.447,2.987l0.487,1.278
			c-1.23,0.84-1.529,1.732-1.529,2.387l0.299,1.105c-0.816,0.834-1.416,1.757-1.745,2.78c-0.189,0.548-0.274,1.124-0.314,1.69
			l-0.061,0.076c-0.7,1.221-1.065,2.63-1.065,4.046l0.036,0.743c-0.493,1.257-0.636,2.606-0.475,3.934l-0.037,0.079
			c-0.326,1.354-0.189,2.913,0.356,4.634L84.488,86.164z M115.811,92.588c-0.914,0.405-1.876,0.387-2.783-0.07
			c-0.785-0.387-1.37-1.13-1.826-1.945l0.432,0.231c0.743,0.316,1.535,0.472,2.314,0.472c0.84,0,1.674-0.167,2.466-0.536
			c0.81-0.371,1.547-0.91,2.174-1.602C118.021,90.811,117.029,92.043,115.811,92.588z M119.02,85.854
			c-0.566,1.696-1.724,3.048-3.154,3.703c-1.188,0.536-2.521,0.563-3.721,0.052c-0.907-0.38-1.559-1.047-2.095-1.815l-0.036-0.137
			l-0.104-0.302l0.858,0.408c0.815,0.323,1.668,0.472,2.521,0.472c0.993,0,1.985-0.219,2.923-0.642
			c1.23-0.554,2.241-1.44,3.021-2.557L119.02,85.854z M119.416,80.185c0.013,0.874-0.128,1.739-0.426,2.582
			c-0.621,1.659-1.791,2.944-3.312,3.629c-1.407,0.648-2.984,0.686-4.427,0.131c-1.645-0.636-2.637-2.064-3.307-3.416
			c1.181,0.841,2.643,1.541,4.384,1.541l0.134-0.016C115.555,84.594,118.162,82.791,119.416,80.185z M118.904,76.644
			c0,3.678-2.85,6.622-6.467,6.695h-0.109c-2.21,0-3.928-1.388-5.151-2.566l1.62,0.098c4.694,0,8.658-2.448,9.9-5.779
			L118.904,76.644z M104.281,59.129l0.847,0.082c2.098,0,3.827-0.798,4.46-1.934c1.383,0.448,2.266,1.179,2.266,1.915l-0.463,0.901
			l-0.256,0.213c-0.907,0.7-2.569,1.272-4.704,1.272c-0.742,0-1.471-0.088-2.149-0.219V59.129z M104.281,62.7
			c0.686,0.127,1.428,0.188,2.149,0.188c2.256,0,4.205-0.594,5.423-1.492c2.033,0.5,3.117,1.312,3.117,1.879
			c0,0.953-2.837,2.351-7.295,2.351c-1.187,0-2.341-0.119-3.395-0.305V62.7z M104.281,66.661c1.072,0.167,2.22,0.28,3.395,0.28
			c2.655,0,5.383-0.511,7.052-1.495c0.828,0.472,1.291,1.008,1.291,1.507l-0.305,0.706l-0.024,0.024l-0.036,0.049
			c-0.975,1.124-3.897,2.128-7.563,2.128c-1.339,0-2.643-0.137-3.809-0.393V66.661z M104.281,70.802
			c1.185,0.231,2.481,0.38,3.809,0.38c2.984,0,5.554-0.587,7.216-1.529c0.956,0.518,1.517,1.142,1.517,1.69
			c0,1.452-3.593,3.093-8.422,3.093c-1.442,0-2.867-0.149-4.131-0.436L104.281,70.802L104.281,70.802z M104.281,75.329
			c1.285,0.262,2.701,0.411,4.132,0.411c4.438,0,8.001-1.215,9.256-2.987l0.127,0.174c-0.066,3.653-4.067,6.622-8.999,6.622
			c-1.583,0-3.146-0.317-4.509-0.911v-3.309H104.281z M91.829,92.519c-0.904,0.444-1.866,0.475-2.776,0.07
			c-1.227-0.545-2.22-1.778-2.78-3.437c0.63,0.679,1.358,1.229,2.177,1.602c0.792,0.362,1.625,0.539,2.463,0.539
			c0.786,0,1.571-0.149,2.32-0.469l0.43-0.231C93.193,91.389,92.614,92.12,91.829,92.519z M94.84,87.656l-0.042,0.125
			c-0.53,0.767-1.2,1.446-2.083,1.827c-1.211,0.511-2.527,0.484-3.729-0.052c-1.434-0.649-2.582-1.995-3.154-3.703L85.6,85.029
			c0.779,1.118,1.802,2.015,3.029,2.582c0.928,0.405,1.933,0.643,2.926,0.643c0.853,0,1.702-0.155,2.518-0.472l0.855-0.414
			L94.84,87.656z M95.263,57.283c0.648,1.136,2.368,1.934,4.472,1.934l0.84-0.082v2.22c-0.679,0.137-1.416,0.219-2.155,0.219
			c-3.194,0-5.414-1.26-5.414-2.396C93.007,58.474,93.899,57.737,95.263,57.283z M93.007,61.396
			c1.215,0.907,3.161,1.492,5.414,1.492c0.733,0,1.464-0.067,2.155-0.188v2.621c-1.053,0.186-2.207,0.305-3.397,0.305
			c-3.112,0-5.407-0.673-6.528-1.422l-0.268-0.174l-0.505-0.755C89.877,62.728,90.867,61.92,93.007,61.396z M90.133,65.446
			c1.671,0.965,4.402,1.488,7.045,1.488c1.178,0,2.326-0.118,3.397-0.292v2.798c-1.172,0.256-2.469,0.396-3.809,0.396
			c-4.54,0-7.925-1.535-7.925-2.908C88.842,66.448,89.32,65.912,90.133,65.446z M89.402,69.708l0.107-0.091
			c1.666,0.947,4.247,1.553,7.252,1.553c1.322,0,2.619-0.137,3.809-0.375v3.191c-1.267,0.283-2.688,0.438-4.135,0.438
			c-4.813,0-8.418-1.647-8.418-3.094C88.026,70.802,88.51,70.214,89.402,69.708z M87.076,72.592
			c1.135,1.863,4.777,3.154,9.359,3.154c1.434,0,2.844-0.144,4.135-0.405v3.304c-1.37,0.605-2.923,0.91-4.527,0.91
			c-4.957,0-8.991-3.005-8.991-6.695L87.076,72.592z M86.147,75.073c1.242,3.337,5.207,5.797,9.901,5.797l1.629-0.098
			c-1.236,1.19-2.944,2.566-5.146,2.566h-0.112c-3.623-0.073-6.458-3.017-6.458-6.695L86.147,75.073z M92.389,84.657l0.137,0.006
			c1.754,0,3.206-0.7,4.39-1.54c-0.673,1.352-1.666,2.786-3.303,3.416c-1.449,0.554-3.021,0.505-4.442-0.137
			c-1.513-0.679-2.698-1.963-3.304-3.617c-0.313-0.841-0.444-1.721-0.423-2.594C86.695,82.791,89.302,84.594,92.389,84.657z"/>
		<path d="M152.516,41.777h-22.572c-2.466-7.24-8.58-7.41-8.58-7.41c-8.451-1.258-9.627-3.988-9.627-3.988
			c-1.79-2.576-0.767-7.515-0.767-7.515c1.485-1.211,2.058-4.414,2.058-4.414c2.467-1.897,2.345-4.658,1.212-4.628
			c-0.919,0.024-0.712-0.734-0.712-0.734C115.068,0.643,104.007,0,104.007,0h-1.69c0,0-11.063,0.643-9.523,13.088
			c0,0,0.207,0.758-0.715,0.734c-1.136-0.03-1.242,2.731,1.214,4.628c0,0,0.573,3.203,2.058,4.414c0,0,1.023,4.938-0.767,7.515
			c0,0-1.172,2.73-9.627,3.988c0,0-6.117,0.164-8.58,7.41H53.799c-1.72,0-3.118,1.395-3.118,3.118v58.199
			c0,1.712,1.397,3.118,3.118,3.118h8.081c-1.684,2.722-2.911,5.505-1.501,5.949c0,0,1.684,0.164,3.909-4.25
			c0,0-0.046,1.698-1.833,6.625c-0.344,0.925-1.833,5.602,0.579,3.915c0,0,1.111-0.768,2.569-5.571c0,0-0.779,8.086,0.083,8.5
			c1.132,0.548,1.75-1.047,2.262-8.142c0,0,0.524-2.283,0.768,6.449c0.012,0.45,0.679,2.697,1.602,0.779
			c0.773-1.607,0.432-5.864,0.432-7.295c0,0,0.996,5.529,1.924,5.529c0,0,1.099,1.284,0.648-5.578
			c-0.073-1.12,0.313-3.422,0.362-4.092l0.106-2.631l-0.019-0.219h7.925c-0.177,1.937-0.25,3.848-0.03,5.65
			c0.865,7.088,2.53,22.244,4.226,28.217c0.88,3.094,0.356,10.9,1.072,12.849c0.313,0.841,0.152,1.62-0.536,3.544
			c-2.393,6.71-2.089,11.436,3.915,29.24c0,0,1.848,3.945,0.917,11.039c0,0-3.833,7.886-1.376,8.044c0,0,0.198,0.524,1.023,0.11
			c0,0,1.328,1.369,2.761,0.633c0,0,1.328,1.054,2.463,0.122c0,0,0.917,1.047,2.244,0.194c0,0,1.741,1.17,2.771-0.104
			c0,0,1.839,0.408-1.437-7.885c0,0-1.251-8.793-1.945-10.517c-1.315-3.282-0.384-12.251-0.104-14.182
			c0.459-3.209,0.216-8.695-0.618-12.933c-0.6-3.033,1.042-8.77,1.641-12.301c1.251-7.429,3.684-26.378,3.379-29.952l1.008,0.347
			c0.731,0,1.193-0.347,1.193-0.347c-0.307,3.574,2.119,22.523,3.377,29.952c0.597,3.52,2.234,9.256,1.645,12.301
			c-0.841,4.25-1.084,9.736-0.621,12.933c0.292,1.942,1.211,10.899-0.104,14.182c-0.688,1.711-1.946,10.517-1.946,10.517
			c-3.282,8.293-1.434,7.885-1.434,7.885c1.026,1.248,2.765,0.104,2.765,0.104c1.327,0.853,2.24-0.194,2.24-0.194
			c1.146,0.932,2.473-0.122,2.473-0.122c1.425,0.736,2.758-0.633,2.758-0.633c0.822,0.414,1.018-0.11,1.018-0.11
			c2.472-0.158-1.376-8.044-1.376-8.044c-0.914-7.094,0.913-11.039,0.913-11.039c6.004-17.805,6.309-22.53,3.909-29.24
			c-0.676-1.937-0.847-2.703-0.536-3.544c0.719-1.942,0.195-9.743,1.072-12.849c1.692-5.973,3.361-21.141,4.237-28.217
			c0.207-1.803,0.135-3.727-0.036-5.65h7.928l-0.018,0.219l0.115,2.631c0.049,0.67,0.42,2.983,0.359,4.092
			c-0.444,6.862,0.651,5.578,0.651,5.578c0.913,0,1.925-5.529,1.925-5.529c0,1.431-0.342,5.688,0.426,7.295
			c0.913,1.918,1.596-0.329,1.607-0.779c0.244-8.732,0.768-6.449,0.768-6.449c0.512,7.095,1.133,8.689,2.265,8.142
			c0.853-0.414,0.073-8.5,0.073-8.5c1.455,4.804,2.569,5.571,2.569,5.571c2.412,1.687,0.914-2.99,0.585-3.915
			c-1.79-4.921-1.839-6.625-1.839-6.625c2.223,4.414,3.909,4.25,3.909,4.25c1.413-0.444,0.183-3.239-1.498-5.949h8.074
			c1.717,0,3.118-1.406,3.118-3.118V44.896C155.634,43.172,154.233,41.777,152.516,41.777z M149.399,99.978H56.911V48.013h92.488
			V99.978L149.399,99.978z"/>
	</g>
</g>
<g>
</g>
<g>
</g>
<g>
</g>
<g>
</g>
<g>
</g>
<g>
</g>
<g>
</g>
<g>
</g>
<g>
</g>
<g>
</g>
<g>
</g>
<g>
</g>
<g>
</g>
<g>
</g>
<g>
</g>
</svg>
