<?xml version="1.0" encoding="iso-8859-1"?>
<!-- Generator: Adobe Illustrator 16.0.0, SVG Export Plug-In . SVG Version: 6.00 Build 0)  -->
<!DOCTYPE svg PUBLIC "-//W3C//DTD SVG 1.1//EN" "http://www.w3.org/Graphics/SVG/1.1/DTD/svg11.dtd">
<svg version="1.1" id="Capa_1" xmlns="http://www.w3.org/2000/svg" xmlns:xlink="http://www.w3.org/1999/xlink" x="0px" y="0px"
	 width="206.315px" height="206.315px" viewBox="0 0 206.315 206.315" style="enable-background:new 0 0 206.315 206.315;"
	 xml:space="preserve">
<g>
	<g>
		<path d="M92.145,74.4c-2.286,0.91-3.604,3.209-4.165,4.451c-1.261-0.512-3.785-1.279-6.086-0.375
			c-2.286,0.917-3.596,3.225-4.165,4.451c-1.251-0.505-3.784-1.278-6.086-0.368l0.539,1.343c1.833-0.737,3.994-0.064,5.048,0.381
			l-0.019,0.048l0.046,0.024c-0.469,1.023-1.571,3.005-3.407,3.748l0.53,1.334c2.295-0.91,3.604-3.215,4.168-4.451
			c1.257,0.511,3.784,1.278,6.083,0.374c2.29-0.91,3.604-3.224,4.165-4.457c1.26,0.512,3.787,1.282,6.086,0.368
			c2.29-0.913,3.605-3.218,4.165-4.46c0.993,0.405,2.776,0.953,4.615,0.725c1.857,0.323,3.69-0.188,4.713-0.563
			c0.524,1.255,1.754,3.593,4.014,4.573c2.265,0.983,4.816,0.305,6.107-0.165c0.523,1.267,1.76,3.605,4.024,4.585
			c2.253,0.983,4.805,0.304,6.096-0.165c0.523,1.255,1.76,3.593,4.024,4.585l0.572-1.315c-1.814-0.795-2.85-2.813-3.27-3.854
			l0.043-0.031l-0.013-0.04c1.06-0.393,3.239-1.008,5.066-0.216l0.572-1.315c-2.253-0.986-4.811-0.308-6.089,0.167
			c-0.524-1.254-1.767-3.604-4.031-4.588c-2.266-0.986-4.811-0.308-6.102,0.167c-0.523-1.254-1.754-3.605-4.013-4.588
			c-2.259-0.974-4.816-0.295-6.095,0.168l-0.549-1.124l0.585-1.102c1.254,0.505,3.775,1.27,6.077,0.365
			c2.302-0.901,3.61-3.215,4.171-4.458c1.261,0.518,3.781,1.291,6.083,0.375c2.289-0.91,3.604-3.212,4.165-4.445
			c1.254,0.512,3.781,1.273,6.095,0.375l-0.535-1.349c-1.833,0.742-4.013,0.058-5.061-0.387l0.024-0.043l-0.061-0.019
			c0.469-1.035,1.571-3.011,3.41-3.76l-0.536-1.327c-2.29,0.91-3.604,3.218-4.165,4.457c-1.255-0.512-3.781-1.291-6.089-0.375
			c-2.29,0.911-3.599,3.212-4.165,4.451c-1.255-0.511-3.788-1.279-6.077-0.372c-2.302,0.907-3.604,3.222-4.165,4.458
			c-0.999-0.405-2.776-0.956-4.615-0.725c-1.854-0.317-3.693,0.195-4.716,0.576c-0.524-1.255-1.75-3.605-4.022-4.576
			c-2.256-0.993-4.813-0.308-6.099,0.155c-0.523-1.255-1.75-3.593-4.016-4.579c-2.262-0.983-4.807-0.305-6.089,0.17
			c-0.527-1.267-1.76-3.605-4.022-4.585l-0.582,1.318c1.814,0.792,2.85,2.804,3.279,3.852l-0.042,0.024l0.012,0.046
			c-1.06,0.393-3.249,0.989-5.057,0.21l-0.579,1.318c2.262,0.983,4.813,0.304,6.099-0.171c0.518,1.261,1.75,3.599,4.022,4.579
			c2.256,0.996,4.807,0.311,6.092-0.158c0.524,1.261,1.751,3.599,4.013,4.579c2.259,0.996,4.813,0.311,6.099-0.158l0.545,1.123
			l-0.582,1.111C96.965,74.242,94.441,73.478,92.145,74.4z M84.102,84.006c-1.839,0.737-4.003,0.058-5.051-0.384l0.016-0.04
			l-0.04-0.037c0.462-1.022,1.565-2.999,3.404-3.748c1.836-0.73,4.003-0.042,5.045,0.387l-0.012,0.052l0.037,0.024
			C87.04,81.284,85.934,83.284,84.102,84.006z M94.347,79.917c-1.839,0.73-4.004,0.052-5.051-0.387l0.012-0.043l-0.037-0.018
			c0.463-1.029,1.559-3.015,3.398-3.754c1.839-0.731,4.003-0.052,5.051,0.387l-0.013,0.042l0.043,0.019
			C97.285,77.204,96.186,79.174,94.347,79.917z M119.824,80.708c1.06-0.387,3.245-0.996,5.06-0.204
			c1.803,0.791,2.838,2.81,3.271,3.857l-0.043,0.012l0.013,0.058c-1.06,0.386-3.252,1.004-5.055,0.198
			c-1.814-0.792-2.85-2.798-3.275-3.845l0.042-0.024L119.824,80.708z M109.715,76.3c1.065-0.393,3.252-1.008,5.061-0.216
			c1.802,0.798,2.837,2.798,3.275,3.857l-0.049,0.012l0.013,0.058c-1.06,0.387-3.252,1.005-5.054,0.198
			c-1.809-0.791-2.844-2.798-3.276-3.839l0.049-0.019L109.715,76.3z M123.417,63.473c1.832-0.721,4-0.055,5.048,0.39l-0.013,0.049
			l0.037,0.018c-0.451,1.029-1.571,3.011-3.398,3.748c-1.839,0.733-4.006,0.061-5.054-0.381l0.019-0.048l-0.043-0.028
			C120.475,66.18,121.578,64.204,123.417,63.473z M113.168,67.559c1.839-0.737,4.006-0.049,5.048,0.38l-0.013,0.049L118.247,68
			c-0.463,1.035-1.559,3.011-3.397,3.754s-4.007,0.064-5.055-0.38l0.013-0.037l-0.037-0.024
			C110.227,70.278,111.33,68.29,113.168,67.559z M107.968,72.022l-0.013,0.046l0.037,0.024l-0.165,0.375l-0.614-0.712
			L107.968,72.022z M107.786,75.152l0.158,0.374l-0.055,0.027l0.018,0.055l-0.767,0.25L107.786,75.152z M102.92,71.636l0.873-0.229
			l0.874,0.268c1.014,0.435,1.787,1.279,2.351,2.119c-0.6,0.811-1.385,1.626-2.42,2.04l-0.881,0.237l-0.864-0.271
			c-1.022-0.441-1.79-1.288-2.351-2.131C101.093,72.872,101.885,72.062,102.92,71.636z M99.611,71.879l0.761-0.243l-0.636,0.673
			l-0.158-0.378l0.045-0.021L99.611,71.879z M99.696,75.021l0.618,0.706l-0.761-0.28l0.012-0.045l-0.042-0.024L99.696,75.021z
			 M87.694,66.755c-1.053,0.387-3.236,1.011-5.057,0.204c-1.814-0.779-2.844-2.798-3.273-3.839l0.037-0.024l-0.012-0.046
			c1.059-0.387,3.249-1.008,5.057-0.216c1.814,0.792,2.85,2.81,3.279,3.845l-0.042,0.024L87.694,66.755z M97.802,71.17
			c-1.054,0.393-3.236,1.005-5.057,0.21c-1.809-0.792-2.844-2.798-3.273-3.852l0.042-0.018l-0.012-0.052
			c1.054-0.387,3.236-1.011,5.057-0.204c1.809,0.791,2.844,2.81,3.273,3.845L97.79,71.13L97.802,71.17z"/>
		<path d="M152.516,41.777h-22.572c-2.466-7.24-8.58-7.41-8.58-7.41c-8.451-1.258-9.627-3.988-9.627-3.988
			c-1.79-2.576-0.767-7.515-0.767-7.515c1.485-1.211,2.058-4.414,2.058-4.414c2.467-1.897,2.345-4.658,1.212-4.628
			c-0.919,0.024-0.712-0.734-0.712-0.734C115.068,0.643,104.007,0,104.007,0h-1.69c0,0-11.063,0.643-9.523,13.088
			c0,0,0.207,0.758-0.715,0.734c-1.136-0.03-1.242,2.731,1.214,4.628c0,0,0.573,3.203,2.058,4.414c0,0,1.023,4.938-0.767,7.515
			c0,0-1.172,2.73-9.627,3.988c0,0-6.117,0.164-8.58,7.41H53.799c-1.72,0-3.118,1.395-3.118,3.118v58.199
			c0,1.712,1.397,3.118,3.118,3.118h8.081c-1.684,2.722-2.911,5.505-1.501,5.949c0,0,1.684,0.164,3.909-4.25
			c0,0-0.046,1.698-1.833,6.625c-0.344,0.925-1.833,5.602,0.579,3.915c0,0,1.111-0.768,2.569-5.571c0,0-0.779,8.086,0.083,8.5
			c1.132,0.548,1.75-1.047,2.262-8.142c0,0,0.524-2.283,0.768,6.449c0.012,0.45,0.679,2.697,1.602,0.779
			c0.773-1.607,0.432-5.864,0.432-7.295c0,0,0.996,5.529,1.924,5.529c0,0,1.099,1.284,0.648-5.578
			c-0.073-1.12,0.313-3.422,0.362-4.092l0.106-2.631l-0.019-0.219h7.925c-0.177,1.937-0.25,3.848-0.03,5.65
			c0.865,7.088,2.53,22.244,4.226,28.217c0.88,3.094,0.356,10.9,1.072,12.849c0.313,0.841,0.152,1.62-0.536,3.544
			c-2.393,6.71-2.089,11.436,3.915,29.24c0,0,1.848,3.945,0.917,11.039c0,0-3.833,7.886-1.376,8.044c0,0,0.198,0.524,1.023,0.11
			c0,0,1.328,1.369,2.761,0.633c0,0,1.328,1.054,2.463,0.122c0,0,0.917,1.047,2.244,0.194c0,0,1.741,1.17,2.771-0.104
			c0,0,1.839,0.408-1.437-7.885c0,0-1.251-8.793-1.945-10.517c-1.315-3.282-0.384-12.251-0.104-14.182
			c0.459-3.209,0.216-8.695-0.618-12.933c-0.6-3.033,1.042-8.77,1.641-12.301c1.251-7.429,3.684-26.378,3.379-29.952l1.008,0.347
			c0.731,0,1.193-0.347,1.193-0.347c-0.307,3.574,2.119,22.523,3.377,29.952c0.597,3.52,2.234,9.256,1.645,12.301
			c-0.841,4.25-1.084,9.736-0.621,12.933c0.292,1.942,1.211,10.899-0.104,14.182c-0.688,1.711-1.946,10.517-1.946,10.517
			c-3.282,8.293-1.434,7.885-1.434,7.885c1.026,1.248,2.765,0.104,2.765,0.104c1.327,0.853,2.24-0.194,2.24-0.194
			c1.146,0.932,2.473-0.122,2.473-0.122c1.425,0.736,2.752-0.633,2.752-0.633c0.828,0.414,1.023-0.11,1.023-0.11
			c2.472-0.158-1.376-8.044-1.376-8.044c-0.914-7.094,0.913-11.039,0.913-11.039c6.004-17.805,6.309-22.53,3.909-29.24
			c-0.676-1.937-0.847-2.703-0.536-3.544c0.719-1.942,0.195-9.743,1.072-12.849c1.692-5.973,3.361-21.141,4.237-28.217
			c0.207-1.803,0.135-3.727-0.036-5.65h7.928l-0.018,0.219l0.115,2.631c0.049,0.67,0.42,2.983,0.359,4.092
			c-0.444,6.862,0.651,5.578,0.651,5.578c0.913,0,1.925-5.529,1.925-5.529c0,1.431-0.342,5.688,0.426,7.295
			c0.913,1.918,1.596-0.329,1.607-0.779c0.244-8.732,0.768-6.449,0.768-6.449c0.512,7.095,1.133,8.689,2.265,8.142
			c0.853-0.414,0.073-8.5,0.073-8.5c1.455,4.804,2.569,5.571,2.569,5.571c2.412,1.687,0.914-2.99,0.585-3.915
			c-1.79-4.921-1.839-6.625-1.839-6.625c2.223,4.414,3.909,4.25,3.909,4.25c1.413-0.444,0.183-3.239-1.498-5.949h8.074
			c1.717,0,3.118-1.406,3.118-3.118V44.896C155.634,43.172,154.233,41.777,152.516,41.777z M149.399,99.978H56.911V48.013h92.488
			V99.978L149.399,99.978z"/>
	</g>
</g>
<g>
</g>
<g>
</g>
<g>
</g>
<g>
</g>
<g>
</g>
<g>
</g>
<g>
</g>
<g>
</g>
<g>
</g>
<g>
</g>
<g>
</g>
<g>
</g>
<g>
</g>
<g>
</g>
<g>
</g>
</svg>
