<?xml version="1.0" encoding="iso-8859-1"?>
<!-- Generator: Adobe Illustrator 16.0.0, SVG Export Plug-In . SVG Version: 6.00 Build 0)  -->
<!DOCTYPE svg PUBLIC "-//W3C//DTD SVG 1.1//EN" "http://www.w3.org/Graphics/SVG/1.1/DTD/svg11.dtd">
<svg version="1.1" id="Capa_1" xmlns="http://www.w3.org/2000/svg" xmlns:xlink="http://www.w3.org/1999/xlink" x="0px" y="0px"
	 width="187.055px" height="187.055px" viewBox="0 0 187.055 187.055" style="enable-background:new 0 0 187.055 187.055;"
	 xml:space="preserve">
<g>
	<g>
		<path d="M93.778,13.88c0,0-0.963,0.816-1.066,1.458l-0.027,0.25l0.313,0.73l0.299,0.104l0.481-0.298l0.475,0.298l0.305-0.104
			l0.316-0.73l-0.024-0.25C94.737,14.696,93.778,13.88,93.778,13.88z"/>
		<path d="M88.154,12.488c0.216-1.071,1.407-1.738,2.655-1.482c1.248,0.25,2.082,1.327,1.863,2.405
			c-0.216,1.081-1.407,1.748-2.655,1.492C88.77,14.647,87.941,13.566,88.154,12.488z M94.749,13.356
			c-0.216-1.087,0.624-2.159,1.872-2.415c1.239-0.255,2.451,0.411,2.652,1.486c0.219,1.078-0.621,2.155-1.866,2.411
			C96.159,15.095,94.968,14.428,94.749,13.356z"/>
		<path d="M128.459,92.674c-1.114-1.389-2.533-3.249-2.947-4.333c-0.67-1.87-1.169-7.861-1.169-7.861
			c-0.22-7.085-1.949-10.154-1.949-10.154c-2.989-4.801-3.55-13.716-3.55-13.716l-0.134-15.083
			c-1.041-10.291-8.641-10.364-8.641-10.364c-7.666-1.147-8.726-3.617-8.726-3.617c-1.626-2.332-0.694-6.813-0.694-6.813
			c1.352-1.105,1.863-4.004,1.863-4.004c2.229-1.708,2.131-4.229,1.108-4.204c-0.841,0.027-0.646-0.661-0.646-0.661
			C104.34,0.566,94.319,0,94.319,0h-1.534c0,0-10.032,0.572-8.634,11.858c0,0,0.186,0.688-0.648,0.661
			c-1.029-0.024-1.129,2.484,1.102,4.205c0,0,0.518,2.898,1.866,4.004c0,0,0.923,4.481-0.7,6.813c0,0-1.065,2.469-8.729,3.617
			c0,0-7.593,0.073-8.635,10.363l-0.137,15.083c0,0-0.558,8.933-3.556,13.716c0,0-1.739,3.069-1.946,10.154
			c0,0-0.505,5.992-1.184,7.861c-0.405,1.096-1.827,2.963-2.938,4.333c-2.174,2.725-5.849,8.394-3.897,9.034
			c0,0,1.528,0.14,3.543-3.861c0,0-0.039,1.547-1.665,6.017c-0.305,0.841-1.659,5.06,0.523,3.544c0,0,1.011-0.707,2.332-5.061
			c0,0-0.712,7.338,0.067,7.703c1.029,0.499,1.592-0.938,2.058-7.387c0,0,0.475-2.07,0.694,5.853
			c0.012,0.401,0.621,2.441,1.453,0.718c0.697-1.461,0.386-5.334,0.386-6.625c0,0,0.904,5.006,1.745,5.006
			c0,0,0.993,1.169,0.594-5.042c-0.07-1.017,0.274-3.105,0.323-3.714l0.095-2.399c0,0-0.25-2.728-0.25-3.87
			c0-0.283,0.98-4.003,3.559-7.925c0,0,5.358-9.496,5.015-15.719c0,0-0.076-5.931,2.083-9.28c0,0,1.534,16.791,0.493,21.507
			c0,0-4.82,11.572-3.76,20.22c0.786,6.424,2.302,20.167,3.833,25.592c0.794,2.783,0.319,9.883,0.974,11.637
			c0.28,0.755,0.137,1.461-0.487,3.228c-2.171,6.101-1.894,10.363,3.547,26.512c0,0,1.671,3.574,0.832,9.999
			c0,0-3.48,7.148-1.249,7.295c0,0,0.189,0.475,0.929,0.104c0,0,1.2,1.235,2.502,0.572c0,0,1.203,0.949,2.232,0.104
			c0,0,0.834,0.938,2.04,0.194c0,0,1.577,1.048,2.512-0.109c0,0,1.672,0.39-1.303-7.149c0,0-1.142-7.964-1.766-9.523
			c-1.19-2.989-0.347-11.105-0.091-12.859c0.417-2.911,0.198-7.886-0.557-11.729c-0.542-2.74,0.944-7.952,1.486-11.143
			c1.139-6.723,3.34-23.924,3.066-27.146l0.91,0.311c0.66,0,1.087-0.311,1.087-0.311c-0.274,3.239,1.918,20.423,3.06,27.146
			c0.536,3.19,2.021,8.402,1.485,11.143c-0.755,3.843-0.986,8.817-0.566,11.729c0.263,1.747,1.114,9.876-0.091,12.859
			c-0.627,1.56-1.763,9.523-1.763,9.523c-2.975,7.527-1.304,7.149-1.304,7.149c0.929,1.157,2.5,0.109,2.5,0.109
			c1.206,0.743,2.046-0.194,2.046-0.194c1.023,0.864,2.223-0.104,2.223-0.104c1.303,0.663,2.496-0.572,2.496-0.572
			c0.743,0.383,0.92-0.104,0.92-0.104c2.229-0.135-1.236-7.295-1.236-7.295c-0.847-6.418,0.841-9.999,0.841-9.999
			c5.443-16.148,5.711-20.411,3.544-26.512c-0.634-1.741-0.768-2.473-0.487-3.228c0.646-1.754,0.164-8.854,0.962-11.637
			c1.534-5.419,3.045-19.162,3.83-25.592c1.054-8.641-3.763-20.22-3.763-20.22c-1.048-4.716,0.486-21.507,0.486-21.507
			c2.168,3.349,2.083,9.28,2.083,9.28c-0.354,6.208,5.018,15.719,5.018,15.719c2.581,3.934,3.556,7.663,3.556,7.925
			c0,1.143-0.243,3.87-0.243,3.87l0.097,2.387c0.043,0.615,0.384,2.704,0.323,3.721c-0.39,6.204,0.597,5.042,0.597,5.042
			c0.84,0,1.741-5.006,1.741-5.006c0,1.291-0.311,5.164,0.39,6.619c0.847,1.711,1.438-0.311,1.449-0.719
			c0.22-7.922,0.694-5.846,0.694-5.846c0.457,6.431,1.029,7.892,2.052,7.393c0.78-0.39,0.073-7.709,0.073-7.709
			c1.321,4.348,2.332,5.066,2.332,5.066c2.192,1.51,0.828-2.729,0.524-3.55c-1.626-4.464-1.675-6.011-1.675-6.011
			c2.016,4.014,3.538,3.861,3.538,3.861C134.304,101.067,130.608,95.393,128.459,92.674z M98.5,16.897
			c-1.081,0.076-0.95,2.076-0.95,2.076c-0.18,1.559-0.861,1.559-0.861,1.559c-0.654,0.055-0.637-0.953-0.637-0.953
			c-0.024-0.956-0.167-1.074-0.167-1.074l-0.423,1.303c-0.131,0.993-0.887,0.755-0.887,0.755l-0.648-1.994l-0.441,0.768
			c-0.183,1.434-0.648,1.16-0.648,1.16c-0.831,0.079-0.706-1.224-0.706-1.224c0.024-1.126-0.466-0.648-0.466-0.648
			c-0.083,1.873-0.518,1.897-0.518,1.897c-0.862,0.143-0.944-0.834-0.944-0.834c-0.235-2.807-0.877-2.752-0.877-2.752l-2.14-0.21
			c-1.583-0.624-1.09-2.302-0.591-2.825c0.615-0.648,0.518-1.571,0.518-1.571c-1.017-3.117-0.35-5.355-0.35-5.355
			c1.364-4.415,4.868-4.996,7.021-4.962c2.381,0.042,3.498,0.572,4.454,1.197c2.989,1.927,3.087,5.797,2.551,7.767
			c-0.358,1.318-0.066,2.533-0.066,2.533c1.077,1.278,0.646,2.262,0.646,2.262C101.039,17.302,98.5,16.897,98.5,16.897z"/>
	</g>
</g>
<g>
</g>
<g>
</g>
<g>
</g>
<g>
</g>
<g>
</g>
<g>
</g>
<g>
</g>
<g>
</g>
<g>
</g>
<g>
</g>
<g>
</g>
<g>
</g>
<g>
</g>
<g>
</g>
<g>
</g>
</svg>
