<?xml version="1.0" encoding="iso-8859-1"?>
<!-- Generator: Adobe Illustrator 16.0.0, SVG Export Plug-In . SVG Version: 6.00 Build 0)  -->
<!DOCTYPE svg PUBLIC "-//W3C//DTD SVG 1.1//EN" "http://www.w3.org/Graphics/SVG/1.1/DTD/svg11.dtd">
<svg version="1.1" id="Capa_1" xmlns="http://www.w3.org/2000/svg" xmlns:xlink="http://www.w3.org/1999/xlink" x="0px" y="0px"
	 width="153.683px" height="153.683px" viewBox="0 0 153.683 153.683" style="enable-background:new 0 0 153.683 153.683;"
	 xml:space="preserve">
<g>
	<g>
		<path d="M76.845,153.683c-27.055,0-49.055-22-49.055-49.054c0-24.746,39.546-94.126,44.046-101.969
			c2.07-3.547,7.925-3.547,10.008,0c4.512,7.843,44.049,77.223,44.049,101.969C125.898,131.683,103.904,153.683,76.845,153.683z
			 M76.845,17.314C63.083,42.191,39.32,88.499,39.32,104.629c0,20.679,16.831,37.515,37.525,37.515
			c20.69,0,37.521-16.83,37.521-37.515C114.365,88.487,90.605,42.191,76.845,17.314z"/>
		<path d="M76.845,130.599c-3.194,0-5.773-2.581-5.773-5.778c0-3.191,2.584-5.767,5.773-5.767c7.952,0,14.419-6.442,14.419-14.376
			c0-3.191,2.581-5.773,5.772-5.773c3.203,0,5.784,2.582,5.784,5.773C102.82,118.975,91.166,130.599,76.845,130.599z"/>
	</g>
</g>
<g>
</g>
<g>
</g>
<g>
</g>
<g>
</g>
<g>
</g>
<g>
</g>
<g>
</g>
<g>
</g>
<g>
</g>
<g>
</g>
<g>
</g>
<g>
</g>
<g>
</g>
<g>
</g>
<g>
</g>
</svg>
