<?xml version="1.0" encoding="iso-8859-1"?>
<!-- Generator: Adobe Illustrator 16.0.0, SVG Export Plug-In . SVG Version: 6.00 Build 0)  -->
<!DOCTYPE svg PUBLIC "-//W3C//DTD SVG 1.1//EN" "http://www.w3.org/Graphics/SVG/1.1/DTD/svg11.dtd">
<svg version="1.1" id="Capa_1" xmlns="http://www.w3.org/2000/svg" xmlns:xlink="http://www.w3.org/1999/xlink" x="0px" y="0px"
	 width="168.097px" height="168.097px" viewBox="0 0 168.097 168.097" style="enable-background:new 0 0 168.097 168.097;"
	 xml:space="preserve">
<g>
	<g>
		<path d="M85.076,114.289h-0.128H84.09h-0.167C30.752,113.841,1.941,79.274,0.734,77.794c-0.807-0.99-0.958-2.358-0.408-3.502
			c0.562-1.154,1.781-1.775,3.011-1.854h0.01c2.689,0,24.093-0.307,40.568-10.265c1.412-0.857,14.182-8.365,26.112-8.365
			c6.158,0,10.918,2.017,14.062,5.918c3.148-3.896,7.912-5.918,14.07-5.918c11.932,0,24.695,7.507,26.115,8.365
			c16.492,9.974,37.95,10.265,40.342,10.265c1.256,0,2.539,0.719,3.09,1.843c0.553,1.133,0.553,2.479-0.225,3.464
			c-1.152,1.48-28.836,36.03-82.202,36.539h-0.204V114.289z M10.693,78.653c10.069,9.453,35.502,28.944,73.828,29.07
			c38.665-0.126,63.459-19.661,73.161-29.07c-8.931-0.764-24.126-3.19-36.792-10.859c-4.553-2.758-14.47-7.42-22.726-7.42
			c-5.879,0-9.354,2.326-10.942,7.319c-0.852,2.717-5.39,2.717-6.251,0c-1.587-4.993-5.062-7.319-10.939-7.319
			c-8.244,0-18.156,4.663-22.716,7.42C34.67,75.442,19.506,77.88,10.693,78.653z"/>
		<path d="M84.046,82.995c-22.476,0-43.645-1.239-62.225-3.406c15.762,5.503,37.822,8.944,62.225,8.944
			c24.41,0,46.463-3.437,62.227-8.944C127.692,81.756,106.524,82.995,84.046,82.995z"/>
	</g>
</g>
<g>
</g>
<g>
</g>
<g>
</g>
<g>
</g>
<g>
</g>
<g>
</g>
<g>
</g>
<g>
</g>
<g>
</g>
<g>
</g>
<g>
</g>
<g>
</g>
<g>
</g>
<g>
</g>
<g>
</g>
</svg>
