<?xml version="1.0" encoding="iso-8859-1"?>
<!-- Generator: Adobe Illustrator 16.0.0, SVG Export Plug-In . SVG Version: 6.00 Build 0)  -->
<!DOCTYPE svg PUBLIC "-//W3C//DTD SVG 1.1//EN" "http://www.w3.org/Graphics/SVG/1.1/DTD/svg11.dtd">
<svg version="1.1" id="Capa_1" xmlns="http://www.w3.org/2000/svg" xmlns:xlink="http://www.w3.org/1999/xlink" x="0px" y="0px"
	 width="193.58px" height="193.58px" viewBox="0 0 193.58 193.58" style="enable-background:new 0 0 193.58 193.58;"
	 xml:space="preserve">
<g>
	<path d="M185.107,77.098c-2.91-12.568-11.411-21.784-24.601-26.667c-8.786-3.249-30.178-6.223-39.604,4.856
		c-30.37-17.987-46.381-8.205-57.149,3.374c-23.77,25.529-12.897,51.25-2.731,62.417c7.344,8.087,9.472,12.764,10.656,18.109
		c0.268,1.176,0.877,4.641,0.91,5.395c1.875,44.464,17.041,48.287,20.67,48.556c1.047,0.304,2.095,0.444,3.105,0.444
		c1.839,0,3.59-0.499,5.188-1.468c7.526-4.628,9.841-18.985,11.887-31.651c0.742-4.579,1.431-8.89,2.234-11.411
		c1.406-4.359,2.569-5.346,2.558-5.492c1.011,0.45,2.722,3.702,2.898,4.981c0.286,1.924,0.487,4.408,0.706,7.197
		c1.163,14.285,2.898,35.828,18.091,37.387c1.084,0.226,3.642,0.469,6.796-1.437c7.16-4.348,12.458-16.806,15.746-37.01l0.487-3.233
		c1.193-8.117,2.825-19.218,9.523-26.257C180.212,117.106,189.54,96.232,185.107,77.098z M167.984,120.894
		c-8.062,8.47-9.925,21.209-11.167,29.654l-0.475,3.13c-3.782,23.248-9.402,30.27-12.416,32.389
		c-1.583,1.126-2.582,0.962-2.467,1.011c-0.23-0.092-0.475-0.128-0.706-0.141c-10.181-0.895-11.679-19.424-12.671-31.7
		c-0.244-2.953-0.451-5.571-0.743-7.605c-0.305-2.039-3.19-9.846-8.519-10.297c-5.779-0.45-8.221,7.259-9.037,9.805
		c-0.949,2.971-1.662,7.307-2.472,12.336c-1.559,9.633-3.909,24.198-8.997,27.328c-0.693,0.426-1.714,0.877-3.568,0.268
		c-0.305-0.097-0.625-0.134-0.935-0.134c-0.024,0-0.055,0-0.088,0c-0.155,0-13.149-1.571-14.882-42.624
		c-0.064-1.431-0.816-5.468-1.042-6.479c-1.641-7.332-4.926-12.994-12.136-20.929c-2.411-2.648-22.77-26.631,2.682-53.974
		c11.704-12.568,28.964-21.068,68.156,11.119c1.315,1.084,3.276,0.904,4.384-0.436c1.097-1.33,0.901-3.288-0.426-4.384
		c-5.029-4.116-9.743-7.614-14.163-10.543c7.233-7.258,24.271-5.276,32.065-2.39c11.295,4.177,18.261,11.655,20.703,22.238
		C182.781,94.674,175.023,113.514,167.984,120.894z M45.781,77.941c0,1.726-1.4,3.118-3.117,3.118H10.452
		c-1.339,0-2.53-0.855-2.968-2.134c-0.417-1.263,0.021-2.667,1.093-3.483l26.619-19.96L10.029,21.598
		c-0.841-1.142-0.816-2.688,0.058-3.784c0.871-1.108,2.369-1.498,3.672-0.935l38.547,16.38L63.653,2.058
		C64.095,0.815,65.273,0,66.576,0c0.058,0,0.106,0,0.152,0.012c1.37,0.07,2.524,1.011,2.868,2.326l9.353,36.377
		c0.423,1.677-0.582,3.361-2.241,3.796c-1.69,0.423-3.358-0.573-3.791-2.238l-6.854-26.625l-9.021,24.829
		c-0.292,0.804-0.904,1.44-1.69,1.791c-0.779,0.344-1.671,0.344-2.463,0.012L21.882,27.105L42.049,54.26
		c1.02,1.376,0.74,3.303-0.636,4.338l-21.62,16.219h22.859C44.393,74.823,45.781,76.221,45.781,77.941z"/>
</g>
<g>
</g>
<g>
</g>
<g>
</g>
<g>
</g>
<g>
</g>
<g>
</g>
<g>
</g>
<g>
</g>
<g>
</g>
<g>
</g>
<g>
</g>
<g>
</g>
<g>
</g>
<g>
</g>
<g>
</g>
</svg>
