<?xml version="1.0" encoding="iso-8859-1"?>
<!-- Generator: Adobe Illustrator 16.0.0, SVG Export Plug-In . SVG Version: 6.00 Build 0)  -->
<!DOCTYPE svg PUBLIC "-//W3C//DTD SVG 1.1//EN" "http://www.w3.org/Graphics/SVG/1.1/DTD/svg11.dtd">
<svg version="1.1" id="Capa_1" xmlns="http://www.w3.org/2000/svg" xmlns:xlink="http://www.w3.org/1999/xlink" x="0px" y="0px"
	 width="150.615px" height="150.615px" viewBox="0 0 150.615 150.615" style="enable-background:new 0 0 150.615 150.615;"
	 xml:space="preserve">
<g>
	<g>
		<path d="M123.637,68.795c-2.144-1.863-9.286-3.312-16.751-4.372V20.864c0-7.2-5.633-13.083-12.562-13.083
			c-2.447,0-4.719,0.768-6.643,2.034C86.25,4.192,81.318,0,75.42,0c-7.003,0-12.702,5.87-12.702,13.082v26.862
			c-1.958-1.267-4.259-2.034-6.741-2.034c-3.766,0-7.121,1.742-9.454,4.433c-2.332-2.691-5.684-4.433-9.456-4.433
			c-6.774,0-12.279,5.508-12.635,12.398l-0.067,0.328v0.351v12.799v7.401v26.488v7.745c0,26.628,20.944,45.194,50.942,45.194
			c29.995,0,50.941-18.578,50.941-45.194V73.989C126.255,71.967,124.691,69.693,123.637,68.795z M94.336,14.011
			c3.489,0,6.314,3.069,6.314,6.848v42.767c-2.631-0.304-5.176-0.56-7.331-0.767c-2.022-0.219-3.739-0.167-5.304-0.012V26.396
			l0.115-0.576v-5.587C88.436,16.766,91.054,14.011,94.336,14.011z M55.978,44.128c3.568,0,6.473,3.069,6.473,6.847V71.52
			l0.063,0.305c-0.332,3.456-2.996,6.187-6.342,6.187c-3.443,0-6.205-2.874-6.399-6.467l0.006-0.024v-0.356V50.975v-0.5
			l-0.085-0.429C50.141,46.722,52.729,44.128,55.978,44.128z M37.074,44.128c3.255,0,5.849,2.606,6.296,5.918l-0.094,0.922v21.592
			c-0.627,3.081-3.097,5.444-6.196,5.444c-3.568,0-6.473-3.069-6.473-6.854v-7.389V50.975
			C30.607,47.203,33.505,44.128,37.074,44.128z M120.02,105.402c0,22.933-18.383,38.959-44.706,38.959
			c-26.327,0-44.707-16.026-44.707-38.959v-7.745V82.361c1.903,1.17,4.095,1.888,6.473,1.888c3.821,0,7.212-1.79,9.544-4.542
			c2.332,2.752,5.724,4.542,9.554,4.542c7.002,0,12.702-5.864,12.702-13.079v-9.533l0.079-0.387V13.076
			c0-3.766,2.898-6.848,6.467-6.848c3.565,0,6.47,3.069,6.47,6.848v6.598l-0.115,1.185v43.984c-2.351,1.501-3.672,3.608-4.402,5.605
			c-2.409,6.576,1.147,13.972,8.171,16.541l19.905,5.505c1.65,0.438,3.374-0.523,3.837-2.18c0.456-1.656-0.518-3.374-2.187-3.837
			l-19.649-5.419c-3.556-1.315-5.45-5.106-4.22-8.467c0.256-0.697,0.719-1.915,2.265-2.743l1.121-0.476
			c1.363-0.417,3.264-0.621,6.064-0.292c11.302,1.035,24.808,3.045,26.829,4.396l0.505,0.512V105.402L120.02,105.402z"/>
	</g>
</g>
<g>
</g>
<g>
</g>
<g>
</g>
<g>
</g>
<g>
</g>
<g>
</g>
<g>
</g>
<g>
</g>
<g>
</g>
<g>
</g>
<g>
</g>
<g>
</g>
<g>
</g>
<g>
</g>
<g>
</g>
</svg>
