<?xml version="1.0" encoding="iso-8859-1"?>
<!-- Generator: Adobe Illustrator 16.0.0, SVG Export Plug-In . SVG Version: 6.00 Build 0)  -->
<!DOCTYPE svg PUBLIC "-//W3C//DTD SVG 1.1//EN" "http://www.w3.org/Graphics/SVG/1.1/DTD/svg11.dtd">
<svg version="1.1" id="Capa_1" xmlns="http://www.w3.org/2000/svg" xmlns:xlink="http://www.w3.org/1999/xlink" x="0px" y="0px"
	 width="227.817px" height="227.817px" viewBox="0 0 227.817 227.817" style="enable-background:new 0 0 227.817 227.817;"
	 xml:space="preserve">
<g>
	<path d="M92.537,225.015c0,1.547-1.261,2.802-2.802,2.802c-16.788,0-30.448-18.064-30.448-40.271
		c0-6.188,1.081-12.312,3.149-17.865c-7.095-6.556-11.118-15.732-11.118-25.456c0-4.63,0.897-9.127,2.685-13.38
		c0.01-0.032,0.042-0.054,0.065-0.098c-3.042-3.886-4.823-8.504-4.823-13.462c0-1.542,1.26-2.801,2.802-2.801
		c1.541,0,2.801,1.259,2.801,2.801c0,10.726,11.162,19.454,24.884,19.454c13.711,0,24.868-8.729,24.868-19.454v-11.485
		c0-1.545,1.254-2.801,2.801-2.801c1.548,0,2.801,1.256,2.801,2.801v11.485c0,13.812-13.672,25.058-30.47,25.058
		c-8.267,0-15.751-2.726-21.242-7.119c-0.953,2.917-1.557,5.897-1.557,8.996c0,8.732,3.877,16.931,10.629,22.489
		c0.962,0.798,1.283,2.112,0.808,3.262c-2.271,5.341-3.469,11.416-3.469,17.575c0,19.109,11.141,34.668,24.84,34.668
		C91.276,222.214,92.537,223.46,92.537,225.015z M55.186,78.473c6.854,0,13.265,2.693,18.077,7.59
		c0.525,0.537,1.251,0.826,1.994,0.826c0,0,0.011,0,0.023,0c0.757-0.005,1.485-0.317,1.994-0.861
		c2.696-2.823,5.769-5.256,9.133-7.245c2.848-1.669,5.946-3.015,9.185-3.999c1.183-0.354,1.989-1.449,1.989-2.685V60.257
		c0-0.727-0.285-1.428-0.801-1.953c-5.568-5.735-8.764-13.96-8.764-22.556c0-16.624,11.617-30.151,25.894-30.151
		c14.282,0,25.898,13.527,25.898,30.151c0,8.591-3.193,16.816-8.764,22.556c-0.515,0.525-0.799,1.226-0.799,1.953v11.842
		c0,1.23,0.818,2.321,1.979,2.685c3.24,0.984,6.327,2.33,9.171,3.999c3.354,1.973,6.424,4.405,9.143,7.245
		c0.526,0.55,1.25,0.856,1.998,0.861c0.011,0,0.011,0,0.023,0c0.756,0,1.476-0.301,1.989-0.826c4.805-4.886,11.224-7.59,18.08-7.59
		c1.544,0,2.802-1.252,2.802-2.801c0-1.546-1.258-2.802-2.802-2.802c-7.42,0-14.435,2.591-20.005,7.342
		c-2.567-2.393-5.374-4.487-8.384-6.252c-2.648-1.554-5.461-2.859-8.392-3.885v-8.707c6.088-6.719,9.562-15.992,9.562-25.613
		C145.41,16.039,131.281,0,113.908,0c-17.37,0-31.497,16.039-31.497,35.755c0,9.638,3.474,18.899,9.565,25.619v8.7
		c-2.941,1.031-5.765,2.331-8.41,3.885c-3.016,1.77-5.822,3.871-8.378,6.252c-5.579-4.75-12.583-7.342-20.003-7.342
		c-1.541,0-2.802,1.256-2.802,2.802C52.384,77.226,53.634,78.473,55.186,78.473z M173.812,130.857
		c-0.023-0.032-0.045-0.055-0.065-0.098c3.041-3.886,4.824-8.505,4.824-13.461c0-1.55-1.256-2.802-2.802-2.802
		c-1.541,0-2.801,1.252-2.801,2.802c0,10.725-11.164,19.452-24.877,19.452c-13.723,0-24.869-8.728-24.869-19.452v-11.49
		c0-1.548-1.265-2.801-2.802-2.801c-1.549,0-2.802,1.253-2.802,2.801v11.49c0,13.811,13.663,25.056,30.473,25.056
		c8.259,0,15.744-2.726,21.234-7.12c0.952,2.917,1.564,5.91,1.564,8.986c0,8.738-3.876,16.931-10.65,22.489
		c-0.963,0.798-1.28,2.112-0.799,3.262c2.266,5.341,3.475,11.416,3.475,17.575c0,19.109-11.141,34.668-24.837,34.668
		c-1.549,0-2.802,1.256-2.802,2.801c0,1.547,1.253,2.802,2.802,2.802c16.777,0,30.44-18.064,30.44-40.271
		c0-6.188-1.089-12.322-3.157-17.865c7.11-6.556,11.13-15.732,11.13-25.456C176.502,139.618,175.6,135.12,173.812,130.857z
		 M138.62,210.486c1.537,0,2.802-1.26,2.802-2.802v-32.95c0-15.171-12.345-27.516-27.514-27.516
		c-15.168,0-27.513,12.345-27.513,27.516v31.746c0,1.544,1.262,2.802,2.803,2.802c1.548,0,2.802-1.258,2.802-2.802v-31.746
		c0-12.079,9.829-21.912,21.909-21.912c12.077,0,21.911,9.833,21.911,21.912v32.95C135.819,209.238,137.071,210.486,138.62,210.486z
		 M121.971,174.146c0.009,0,0.032,0,0.042,0c5.627,0,9.608-3.96,9.772-4.12c1.083-1.105,1.073-2.884-0.022-3.962
		c-1.089-1.084-2.882-1.073-3.961,0.022c-0.022,0.021-2.528,2.456-5.789,2.456c0,0-0.01,0-0.022,0
		c-1.789-0.011-3.555-0.826-5.268-2.363v-4.936c0-1.555-1.258-2.802-2.802-2.802c-1.548,0-2.803,1.247-2.803,2.802v4.936
		c-1.697,1.515-3.451,2.341-5.229,2.363c-3.337-0.187-5.807-2.424-5.876-2.479c-1.074-1.062-2.865-1.084-3.95,0
		c-1.092,1.089-1.103,2.867-0.021,3.962c0.166,0.16,4.158,4.12,9.783,4.12c0.011,0,0.033,0,0.044,0
		c1.816-0.011,3.571-0.416,5.251-1.215v4.454c-1.697,1.516-3.451,2.342-5.229,2.364c-3.337-0.056-5.807-2.424-5.876-2.479
		c-1.074-1.061-2.865-1.083-3.95,0c-1.092,1.092-1.103,2.867-0.021,3.963c0.166,0.158,4.158,4.119,9.783,4.119
		c0.011,0,0.033,0,0.044,0c1.816-0.01,3.571-0.415,5.251-1.214v5.948c-1.697,1.521-3.439,2.342-5.229,2.363
		c-3.337,0.196-5.797-2.419-5.876-2.468c-1.081-1.095-2.865-1.095-3.95-0.012c-1.092,1.078-1.103,2.867-0.021,3.963
		c0.166,0.158,4.158,4.119,9.783,4.119c0.011,0,0.033,0,0.044,0c1.816,0,3.571-0.415,5.251-1.214v1.072
		c0,1.543,1.255,2.802,2.803,2.802c1.544,0,2.802-1.259,2.802-2.802v-1.083c1.678,0.81,3.437,1.215,5.257,1.225
		c0.011,0,0.023,0,0.043,0c5.621,0,9.604-3.961,9.773-4.119c1.078-1.105,1.067-2.885-0.02-3.963
		c-1.107-1.094-2.891-1.071-3.964,0.022c-0.02,0.022-2.539,2.457-5.79,2.457c-0.01,0-0.02,0-0.02,0
		c-1.797-0.011-3.567-0.826-5.276-2.374v-5.943c1.686,0.799,3.437,1.204,5.253,1.215c0.011,0,0.033,0,0.057,0
		c5.617,0,9.601-3.96,9.76-4.126c1.097-1.095,1.083-2.878-0.02-3.962c-1.084-1.092-2.881-1.067-3.964,0.022
		c-0.02,0.021-2.527,2.462-5.776,2.462c-0.008,0-0.023,0-0.033,0c-1.783-0.011-3.559-0.831-5.266-2.363v-4.454
		C118.39,173.719,120.141,174.135,121.971,174.146z M113.908,205.008c-1.872,0-3.384,1.515-3.384,3.387
		c0,1.861,1.52,3.388,3.384,3.388c1.866,0,3.389-1.511,3.389-3.388C117.297,206.523,115.779,205.008,113.908,205.008z
		 M145.647,127.469c0,2.217,1.883,4.033,4.212,4.033c2.331,0,4.221-1.806,4.221-4.033c0-2.215-1.89-4.016-4.221-4.016
		C147.53,123.454,145.647,125.254,145.647,127.469z M73.738,127.469c0,2.217,1.889,4.033,4.219,4.033
		c2.332,0,4.214-1.806,4.214-4.033c0-2.215-1.882-4.016-4.214-4.016C75.627,123.454,73.738,125.254,73.738,127.469z"/>
</g>
<g>
</g>
<g>
</g>
<g>
</g>
<g>
</g>
<g>
</g>
<g>
</g>
<g>
</g>
<g>
</g>
<g>
</g>
<g>
</g>
<g>
</g>
<g>
</g>
<g>
</g>
<g>
</g>
<g>
</g>
</svg>
