<?xml version="1.0" encoding="iso-8859-1"?>
<!-- Generator: Adobe Illustrator 16.0.0, SVG Export Plug-In . SVG Version: 6.00 Build 0)  -->
<!DOCTYPE svg PUBLIC "-//W3C//DTD SVG 1.1//EN" "http://www.w3.org/Graphics/SVG/1.1/DTD/svg11.dtd">
<svg version="1.1" id="Capa_1" xmlns="http://www.w3.org/2000/svg" xmlns:xlink="http://www.w3.org/1999/xlink" x="0px" y="0px"
	 width="134.569px" height="134.57px" viewBox="0 0 134.569 134.57" style="enable-background:new 0 0 134.569 134.57;"
	 xml:space="preserve">
<g>
	<g>
		<path d="M121.67,115.316L83.187,60.895V15.789c4.099-0.332,7.344-3.657,7.344-7.833C90.53,3.547,86.986,0,82.584,0H51.986
			c-4.402,0-7.956,3.547-7.956,7.956c0,4.177,3.255,7.502,7.359,7.833V60.87l-38.486,54.434c-4.518,6.369-3.249,11.07-2.095,13.299
			c1.148,2.229,4.259,5.967,12.072,5.967h88.841c7.812,0,10.911-3.738,12.068-5.967C124.916,126.386,126.17,121.685,121.67,115.316z
			 M75.231,33.813H59.32V15.905h15.911V33.813z M116.695,124.95c-0.408,0.815-1.948,1.668-4.999,1.668H22.855
			c-3.042,0-4.588-0.853-5.008-1.668c-0.411-0.792-0.234-2.558,1.522-5.042L59.314,63.4V41.765h15.911v21.653l39.93,56.489
			C116.933,122.392,117.115,124.158,116.695,124.95z"/>
		<path d="M64.338,80.56c3.659,0,6.622,2.965,6.622,6.625c0,3.652-2.963,6.618-6.622,6.618c-3.657,0-6.622-2.966-6.622-6.618
			C57.716,83.525,60.681,80.56,64.338,80.56z"/>
		<path d="M79.917,95.466c3.3,0,5.967,2.673,5.967,5.967c0,3.301-2.667,5.967-5.967,5.967c-3.291,0-5.965-2.666-5.965-5.967
			C73.952,98.139,76.626,95.466,79.917,95.466z"/>
		<path d="M62.033,104.429c3.105,0,5.623,2.521,5.623,5.626s-2.518,5.62-5.623,5.62c-3.109,0-5.626-2.515-5.626-5.62
			S58.924,104.429,62.033,104.429z"/>
	</g>
</g>
<g>
</g>
<g>
</g>
<g>
</g>
<g>
</g>
<g>
</g>
<g>
</g>
<g>
</g>
<g>
</g>
<g>
</g>
<g>
</g>
<g>
</g>
<g>
</g>
<g>
</g>
<g>
</g>
<g>
</g>
</svg>
