<?xml version="1.0" encoding="iso-8859-1"?>
<!-- Generator: Adobe Illustrator 16.0.0, SVG Export Plug-In . SVG Version: 6.00 Build 0)  -->
<!DOCTYPE svg PUBLIC "-//W3C//DTD SVG 1.1//EN" "http://www.w3.org/Graphics/SVG/1.1/DTD/svg11.dtd">
<svg version="1.1" id="Capa_1" xmlns="http://www.w3.org/2000/svg" xmlns:xlink="http://www.w3.org/1999/xlink" x="0px" y="0px"
	 width="208.293px" height="208.293px" viewBox="0 0 208.293 208.293" style="enable-background:new 0 0 208.293 208.293;"
	 xml:space="preserve">
<g>
	<g>
		<path d="M103.383,0.01c0,0-72.181-3.215-63.912,108.512c0,0-0.454,91.49,40.462,99.771c0,0-17.926-20.691-12.872-35.415
			c0,0,22.53-4.141,19.317-38.605c0,0-18.855-16.556-21.156-28.046c0,0,0-35.869,3.224-40.466c0,0,17.932,1.379,19.765,0
			c0,0,14.718-13.335,17.933-20.226c0,0,2.759,11.947-4.131,19.318h18.843c0,0,5.979-5.979,6.887-12.416
			c0,0,1.839,11.496-0.907,12.863h11.039c0,0,5.974,31.725,4.592,40.926c0,0-10.571,23.437-21.154,27.571
			c0,0-3.684,35.415,22.067,39.999c0,0-2.302,31.731-17.938,33.107c0,0,26.214,6.898,41.394-49.194c0,0,7.355-78.154-2.46-103.595
			C164.388,54.121,154.889,5.989,103.383,0.01z"/>
	</g>
</g>
<g>
</g>
<g>
</g>
<g>
</g>
<g>
</g>
<g>
</g>
<g>
</g>
<g>
</g>
<g>
</g>
<g>
</g>
<g>
</g>
<g>
</g>
<g>
</g>
<g>
</g>
<g>
</g>
<g>
</g>
</svg>
