<?xml version="1.0" encoding="iso-8859-1"?>
<!-- Generator: Adobe Illustrator 16.0.0, SVG Export Plug-In . SVG Version: 6.00 Build 0)  -->
<!DOCTYPE svg PUBLIC "-//W3C//DTD SVG 1.1//EN" "http://www.w3.org/Graphics/SVG/1.1/DTD/svg11.dtd">
<svg version="1.1" id="Capa_1" xmlns="http://www.w3.org/2000/svg" xmlns:xlink="http://www.w3.org/1999/xlink" x="0px" y="0px"
	 width="154.312px" height="154.312px" viewBox="0 0 154.312 154.312" style="enable-background:new 0 0 154.312 154.312;"
	 xml:space="preserve">
<g>
	<g>
		<path d="M14.984,23.657l0.283-0.323L14.984,23.657z"/>
		<path d="M149.362,35.798c0,0-3.354,10.912-6.649,8.586c0,0-0.578-22.204-3.55-24.202c0,0-2.709,13.582-6.351,12.897
			c0,0,0.736-17.242-3.228-20.566c0,0-10.674,17.193-14.607,7.234c0,0,0.341-9.372,2.436-12.209
			c-2.454,2.682-11.886,11.792-17.281-1.428c0,0-9.286,4.277-10.96,7.246l-0.299-8.281c0,0-15.975,18.486-16.56-1.397L56.369,14.541
			c0,0-8.275-0.685-1.297-7.633L63.383,0c0,0-25.179,0.231-44.521,33.622c0,0-2.898,4.01-4.07-1.06l-0.226-1.279
			c-0.703-5.094-0.006-6.978,0.411-7.639C13.026,25.995,0.5,43.042,6.386,89.87c1.86,14.833,7.389,59.321,7.389,59.321
			s8.644-7.916,6.174-54.943c0,0,4.132-40.407,53.728-18.353c0,0,36.508-19.059,54.294,8.829c0,0,5.157,33.808,1.735,60.953
			c0,0,1.303,6.631,5.273,8.635c0,0,2.18-48.349,6.868-58.932C141.848,95.38,150.623,52.358,149.362,35.798z"/>
		<path d="M117.413,7.544l0.597-0.685L117.413,7.544z"/>
	</g>
</g>
<g>
</g>
<g>
</g>
<g>
</g>
<g>
</g>
<g>
</g>
<g>
</g>
<g>
</g>
<g>
</g>
<g>
</g>
<g>
</g>
<g>
</g>
<g>
</g>
<g>
</g>
<g>
</g>
<g>
</g>
</svg>
